<?xml version="1.0" encoding="UTF-8" standalone="no"?>
<svg width="76px" height="67px" viewBox="0 0 76 67" version="1.1" xmlns="http://www.w3.org/2000/svg" xmlns:xlink="http://www.w3.org/1999/xlink" xmlns:sketch="http://www.bohemiancoding.com/sketch/ns">
    <!-- Generator: Sketch 3.3.3 (12081) - http://www.bohemiancoding.com/sketch -->
    <title>facebook-icon</title>
    <desc>Created with Sketch.</desc>
    <defs></defs>
    <g id="Page-1" stroke="none" stroke-width="1" fill="none" fill-rule="evenodd" sketch:type="MSPage">
        <g id="facebook-icon" sketch:type="MSLayerGroup" fill="#FFFFFF">
            <path d="M71.817,54.006 C71.817,54.248 71.526,54.055 71.332,54.006 L70.993,53.812 C70.993,53.812 71.332,53.667 71.817,53.764 C72.301,53.861 71.817,53.764 71.817,54.006 L71.817,54.006 Z M71.332,55.362 C71.332,55.362 71.332,55.362 70.8,55.217 C70.267,55.072 70.703,54.733 70.848,54.49 C70.848,54.49 71.042,54.297 71.623,54.781 C72.204,55.265 71.332,55.362 71.332,55.362 L71.332,55.362 Z M70.364,49.502 L69.879,49.163 C69.879,49.163 70.073,48.97 70.557,48.824 C71.042,48.679 70.848,48.921 70.848,49.26 C70.848,49.599 70.364,49.502 70.364,49.502 L70.364,49.502 Z M69.831,54.151 C69.637,54.394 69.444,54.006 69.395,53.667 C69.395,53.667 69.928,53.716 70.025,53.909 C70.122,54.103 70.025,53.909 69.831,54.151 L69.831,54.151 Z M68.766,49.551 C68.766,49.551 68.766,49.357 68.959,49.115 C69.153,48.873 68.959,49.115 69.298,49.163 C69.637,49.212 69.347,49.502 69.298,49.648 C69.25,49.793 68.814,49.696 68.766,49.551 L68.766,49.551 Z M68.669,54.103 C68.62,54.248 68.475,54.103 67.991,54.006 C67.506,53.909 67.749,53.861 67.797,53.667 L68.136,53.522 C68.136,53.522 68.33,53.57 68.523,53.764 C68.717,53.958 68.717,53.958 68.669,54.103 L68.669,54.103 Z M67.264,50.374 C67.022,50.665 66.78,50.519 66.393,50.277 C66.005,50.035 66.296,49.454 66.393,49.212 L66.974,49.26 C66.974,49.26 66.974,49.26 67.652,49.309 C68.33,49.357 67.846,49.599 67.7,49.938 C67.555,50.277 67.506,50.083 67.264,50.374 L67.264,50.374 Z M67.022,52.069 C66.925,52.263 66.732,51.924 66.732,51.924 C66.732,51.924 66.78,51.585 66.974,51.585 C67.167,51.585 66.974,51.585 67.119,51.682 C67.264,51.778 67.119,51.875 67.022,52.069 L67.022,52.069 Z M66.441,55.12 C66.054,55.604 66.441,55.12 65.666,55.072 C64.891,55.023 65.472,54.781 65.472,54.248 C65.472,53.716 65.86,53.619 66.054,53.134 C66.247,52.65 66.247,52.941 66.489,52.699 C66.489,52.699 66.974,53.764 66.925,54.442 C66.877,55.12 66.829,54.636 66.441,55.12 L66.441,55.12 Z M60,57.493 C58.741,57.202 58.741,56.04 58.451,55.023 C58.16,54.006 58.208,54.006 58.257,53.377 C58.305,52.747 58.838,51.875 58.838,50.761 C58.838,49.648 58.402,49.067 58.112,47.904 C57.821,46.742 58.112,46.258 58.402,45.919 C58.693,45.58 59.225,45.095 59.806,44.369 C60.388,43.643 62.615,42.577 63.196,42.674 C63.196,42.674 63.632,43.158 63.874,43.4 C64.117,43.643 64.31,44.03 64.891,45.047 C65.472,46.064 65.279,45.822 65.715,46.839 C66.151,47.856 65.908,48.631 65.763,49.551 C65.618,50.471 65.472,51.633 65.472,52.602 C65.472,53.57 64.601,55.12 63.826,56.089 C63.051,57.057 61.259,57.783 60,57.493 L60,57.493 Z M58.063,49.744 C58.063,49.938 57.966,50.568 57.772,50.229 C57.579,49.89 57.434,49.744 57.095,49.309 C57.095,49.309 57.676,49.357 58.063,49.551 C58.451,49.744 58.063,49.551 58.063,49.744 L58.063,49.744 Z M56.659,48.437 C56.417,48.437 56.368,48.243 56.465,48.05 C56.465,48.05 56.852,47.807 57.095,47.856 C57.337,47.904 57.095,47.856 57.046,48.146 C56.998,48.437 56.901,48.437 56.659,48.437 L56.659,48.437 Z M56.755,47.178 C56.755,46.887 56.949,46.694 57.288,46.645 C57.288,46.645 57.482,46.984 57.482,47.226 C57.482,47.468 57.288,47.517 56.998,47.565 C56.707,47.614 56.755,47.468 56.755,47.178 L56.755,47.178 Z M57.288,45.531 C57.434,45.58 57.434,45.87 57.434,45.87 L57.046,45.919 C57.046,45.919 56.852,45.677 56.901,45.531 C56.949,45.386 57.143,45.483 57.288,45.531 L57.288,45.531 Z M57.772,48.727 C57.724,49.357 57.385,48.534 57.434,48.243 C57.434,48.243 57.821,48.098 57.772,48.727 L57.772,48.727 Z M64.117,5.627 L64.02,5.821 L64.02,4.997 C64.02,4.61 64.213,4.658 64.891,3.98 C65.569,3.302 65.085,3.932 65.521,4.126 C65.957,4.319 65.569,4.465 65.569,4.949 C65.569,5.433 65.424,5.288 64.795,5.869 C64.165,6.45 64.407,5.869 64.117,5.627 L64.117,5.627 Z M63.874,5.482 C63.874,5.675 63.584,5.578 63.39,5.53 C63.39,5.53 63.245,5.53 63.293,5.239 C63.342,4.949 63.535,5.094 63.826,5.094 C64.117,5.094 63.874,5.288 63.874,5.482 L63.874,5.482 Z M63.535,6.45 C63.39,6.692 63.342,6.402 63.196,6.256 C63.196,6.256 63.487,6.014 63.681,6.208 C63.874,6.402 63.681,6.208 63.535,6.45 L63.535,6.45 Z M63.196,7.273 C63.196,7.758 62.906,7.661 62.373,7.709 C61.84,7.758 62.276,7.515 62.276,7.322 C62.276,7.322 62.761,6.837 63.196,6.789 C63.632,6.741 63.196,6.789 63.196,7.273 L63.196,7.273 Z M61.453,6.741 C61.453,6.741 61.647,6.208 62.131,6.305 C62.615,6.402 62.131,6.305 62.083,6.934 C62.034,7.564 61.598,6.934 61.453,6.741 L61.453,6.741 Z M61.356,8.145 C60.872,8.097 61.163,7.951 61.114,7.758 L61.501,7.758 L61.937,7.854 C61.937,7.854 61.84,8.193 61.356,8.145 L61.356,8.145 Z M60.339,6.886 C60.339,6.886 60.533,6.741 60.63,6.45 C60.727,6.159 60.63,6.45 61.017,6.837 C61.405,7.225 60.775,7.225 60.339,6.886 L60.339,6.886 Z M59.516,6.353 C58.935,6.692 57.385,5.966 56.901,5.724 C56.417,5.482 56.417,5.239 56.417,4.949 C56.417,4.949 56.271,4.368 56.562,4.126 C56.852,3.883 57.046,3.932 57.24,3.544 C57.434,3.157 58.305,2.866 58.983,2.576 C59.661,2.285 59.758,2.77 60.049,3.012 C60.339,3.254 60.484,4.029 60.678,4.561 C60.872,5.094 60.097,6.014 59.516,6.353 L59.516,6.353 Z M59.564,8.193 C59.419,8.29 59.371,8.097 59.225,7.903 L59.467,7.661 C59.467,7.661 59.467,7.661 59.758,7.758 C60.049,7.854 59.71,8.097 59.564,8.193 L59.564,8.193 Z M55.835,5.094 C55.884,5.288 55.496,5.433 55.109,5.433 C54.722,5.433 54.915,5.288 54.867,5.046 C54.867,5.046 55.448,4.852 55.787,4.9 C56.126,4.949 55.787,4.9 55.835,5.094 L55.835,5.094 Z M54.044,6.402 C53.608,6.644 53.317,6.499 52.736,6.499 C52.155,6.499 52.397,6.353 52.3,5.917 C52.3,5.917 52.058,5.627 52.978,4.949 C53.898,4.271 53.559,4.852 53.995,4.852 C54.431,4.852 54.479,5.046 54.673,5.53 C54.867,6.014 54.479,6.159 54.044,6.402 L54.044,6.402 Z M53.801,8.29 C53.559,8.629 53.462,8.145 53.462,8.145 L53.85,7.661 C53.85,7.661 53.85,7.661 54.044,7.709 C54.237,7.758 54.044,7.951 53.801,8.29 L53.801,8.29 Z M51.671,6.402 C51.671,6.789 51.622,6.741 51.138,6.741 C50.654,6.741 50.847,6.692 50.847,6.45 L50.993,6.014 L51.671,6.014 C52.349,6.014 51.671,6.014 51.671,6.402 L51.671,6.402 Z M50.218,7.031 C49.927,7.225 49.976,7.031 49.782,6.789 C49.782,6.789 49.879,6.644 49.976,6.45 C50.072,6.256 50.218,6.45 50.508,6.837 C50.799,7.225 50.508,6.837 50.218,7.031 L50.218,7.031 Z M61.308,5.482 C61.356,5.336 61.695,5.433 61.84,5.482 C61.986,5.53 61.986,5.675 61.937,5.966 C61.889,6.256 61.405,6.111 61.163,5.821 C61.163,5.821 61.259,5.627 61.308,5.482 L61.308,5.482 Z M61.744,4.852 C61.986,4.997 61.744,4.852 61.937,4.949 C62.131,5.046 61.598,5.191 61.405,5.143 C61.405,5.143 61.501,4.707 61.744,4.852 L61.744,4.852 Z M62.906,5.724 C63.196,5.917 62.906,5.724 62.857,6.111 C62.809,6.499 62.664,6.208 62.422,6.111 L62.373,5.724 C62.373,5.724 62.615,5.53 62.906,5.724 L62.906,5.724 Z M66.151,52.069 C66.151,52.069 66.151,52.069 66.054,52.408 C65.957,52.747 66.054,52.408 65.908,52.263 C65.763,52.117 65.908,52.263 65.908,51.924 L66.151,52.069 L66.151,52.069 Z M66.102,51.1 C66.102,51.1 66.102,50.713 66.489,50.665 C66.877,50.616 66.538,50.907 66.538,51.149 C66.538,51.391 66.102,51.439 66.102,51.1 L66.102,51.1 Z M66.683,47.759 C67.022,48.437 67.071,48.534 66.78,48.679 C66.489,48.824 66.247,48.776 66.247,48.437 C66.247,48.098 66.683,47.759 66.683,47.759 L66.683,47.759 Z M67.797,45.725 C67.991,45.773 67.991,46.064 67.894,46.209 C67.797,46.355 67.506,46.209 67.506,46.209 L67.41,45.87 C67.41,45.87 67.603,45.677 67.797,45.725 L67.797,45.725 Z M68.378,48.776 C68.233,49.502 68.039,48.727 68.039,48.727 C68.039,48.727 68.281,48.146 68.523,48.05 C68.766,47.953 68.523,48.05 68.378,48.776 L68.378,48.776 Z M68.523,26.402 C69.008,26.063 68.862,26.838 68.862,27.032 L68.33,27.226 C68.33,27.226 68.088,27.226 67.942,27.08 C67.797,26.935 68.039,26.741 68.523,26.402 L68.523,26.402 Z M68.184,10.905 C68.184,10.908 68.185,10.913 68.185,10.917 C68.282,10.572 68.51,9.83 68.766,9.501 C69.105,9.065 69.444,9.404 69.734,9.453 C70.025,9.501 69.879,9.84 70.267,10.615 C70.654,11.39 70.218,11.148 69.54,12.6 C68.866,14.045 68.193,11.469 68.185,10.917 C68.154,11.028 68.136,11.099 68.136,11.099 L68.184,10.905 L68.184,10.905 Z M69.686,48.582 C69.589,48.824 69.298,48.534 69.298,48.534 C69.298,48.534 69.444,48.195 69.734,48.098 C70.025,48.001 69.783,48.34 69.686,48.582 L69.686,48.582 Z M70.509,28.243 C70.848,28.969 70.751,29.647 69.831,30.858 C68.911,32.068 68.669,29.647 68.669,28.678 C68.669,28.678 69.25,27.177 69.783,27.129 C70.315,27.08 70.17,27.516 70.509,28.243 L70.509,28.243 Z M70.993,47.904 C70.993,48.243 70.8,48.146 70.412,48.05 L70.17,47.904 C70.17,47.904 70.315,47.275 70.703,47.323 C71.09,47.372 70.993,47.565 70.993,47.904 L70.993,47.904 Z M71.817,48.389 C71.962,48.437 71.913,48.582 71.72,48.97 C71.526,49.357 71.478,48.97 71.187,48.679 C71.187,48.679 71.671,48.34 71.817,48.389 L71.817,48.389 Z M72.156,46.694 C72.785,46.694 72.204,46.887 72.204,47.323 C72.204,47.759 72.01,47.517 71.526,47.517 L71.381,47.033 C71.381,47.033 71.526,46.694 72.156,46.694 L72.156,46.694 Z M72.446,44.999 C72.688,44.611 72.688,44.853 72.882,44.999 C73.076,45.144 72.785,45.677 72.591,46.064 C72.398,46.451 72.398,46.064 72.252,46.016 C72.252,46.016 72.156,45.822 72.156,45.677 C72.156,45.531 72.204,45.386 72.446,44.999 L72.446,44.999 Z M72.301,49.309 C72.301,49.309 72.107,48.243 72.107,48.098 L72.543,47.759 C72.543,47.759 72.591,48.05 72.591,48.34 C72.591,48.631 72.301,49.309 72.301,49.309 L72.301,49.309 Z M55.981,47.565 C55.738,47.807 55.738,48.292 55.351,47.904 C54.964,47.517 54.722,47.468 54.867,47.081 C55.012,46.694 55.012,46.5 55.303,46.5 C55.593,46.5 56.174,46.79 56.174,46.79 C56.126,47.275 56.223,47.323 55.981,47.565 L55.981,47.565 Z M54.576,46.694 C54.431,46.887 54.334,46.742 54.334,46.451 C54.334,46.161 54.189,45.967 54.334,45.822 C54.479,45.677 54.625,45.434 54.722,45.677 C54.818,45.919 54.77,45.58 54.818,45.919 C54.867,46.258 54.576,46.694 54.576,46.694 L54.576,46.694 Z M54.528,48.437 C54.528,48.437 54.528,48.098 54.625,47.807 C54.625,47.807 54.77,48.001 54.77,48.389 C54.77,48.776 54.528,48.437 54.528,48.437 L54.528,48.437 Z M62.857,25.87 C62.809,26.548 62.422,26.015 62.422,25.531 C62.422,25.531 62.422,25.337 62.518,24.998 C62.615,24.659 62.906,24.804 62.906,24.804 C62.906,24.804 62.906,25.192 62.857,25.87 L62.857,25.87 Z M62.034,25.143 C61.84,25.579 61.114,25.434 60.581,25.385 C60.049,25.337 59.08,25.385 58.402,25.482 C57.724,25.579 56.998,24.417 56.998,23.933 C56.998,23.448 57.482,23.206 57.821,23.012 C58.16,22.819 58.644,22.819 59.177,22.577 C59.177,22.577 59.71,22.867 60.194,23.158 C60.678,23.448 61.066,23.303 61.937,23.836 C62.809,24.368 62.228,24.707 62.034,25.143 L62.034,25.143 Z M60.872,26.402 C60,26.451 60.872,26.402 59.903,26.548 C58.935,26.693 59.467,26.112 59.613,26.015 L60.581,26.015 C60.969,26.015 61.017,26.015 61.792,26.112 C62.567,26.209 61.744,26.354 60.872,26.402 L60.872,26.402 Z M48.426,7.806 C47.748,8.097 48.281,7.515 48.232,7.128 C48.232,7.128 48.717,6.934 49.395,7.225 C50.072,7.515 49.104,7.515 48.426,7.806 L48.426,7.806 Z M47.264,8.387 C46.876,8.532 46.973,8 46.973,7.709 C46.973,7.709 47.118,7.467 47.457,7.467 C47.796,7.467 47.7,7.564 47.748,7.806 C47.796,8.048 47.651,8.242 47.264,8.387 L47.264,8.387 Z M45.811,8.775 C45.375,8.726 45.375,8.436 45.084,8.823 C44.794,9.21 45.133,9.356 44.794,9.21 C44.455,9.065 44.503,9.21 44.406,8.726 C44.31,8.242 44.649,7.806 44.649,7.806 C44.552,8.048 45.181,7.273 45.472,7.709 C45.762,8.145 46.053,8.097 46.295,8.242 C46.537,8.387 46.779,8.387 46.779,8.532 C46.779,8.678 46.247,8.823 45.811,8.775 L45.811,8.775 Z M44.213,7.08 C44.213,7.08 44.019,6.595 44.31,6.353 C44.6,6.111 44.6,6.45 44.697,6.934 C44.794,7.419 44.455,7.225 44.164,7.322 C43.874,7.419 44.164,7.322 44.213,7.08 L44.213,7.08 Z M43.874,9.55 C43.777,10.227 43.486,10.324 42.954,10.324 C42.421,10.324 41.743,9.646 41.646,9.162 C41.646,9.162 42.034,8.484 42.421,8.29 C42.808,8.097 42.857,8.29 43.486,8.387 C44.116,8.484 43.971,8.871 43.874,9.55 L43.874,9.55 Z M41.259,5.627 C41.259,5.627 41.646,5.53 41.84,5.336 C42.034,5.143 42.276,5.143 43.341,5.191 C44.406,5.239 43.583,5.385 43.729,5.772 C43.874,6.159 43.438,6.789 43.002,7.419 C42.566,8.048 41.985,7.467 41.791,7.176 C41.598,6.886 41.791,7.176 41.501,6.886 C41.21,6.595 41.307,6.353 41.259,5.627 L41.259,5.627 Z M41.017,8.242 C40.92,7.854 40.92,7.661 40.92,7.661 L41.162,7.612 L41.501,8.339 C41.21,8.484 41.113,8.629 41.017,8.242 L41.017,8.242 Z M42.227,4.029 C42.421,4.029 42.324,3.738 42.421,4.029 C42.518,4.319 42.373,4.61 42.373,4.61 C42.179,4.61 42.324,4.997 42.179,4.61 C42.034,4.222 42.034,4.029 42.227,4.029 L42.227,4.029 Z M43.341,4.319 L43.68,4.271 L43.777,4.707 C43.341,4.755 43.051,4.658 43.051,4.513 C43.051,4.368 43.002,4.368 43.341,4.319 L43.341,4.319 Z M44.988,4.561 C45.327,4.61 44.988,5.191 44.794,5.627 C44.6,6.063 44.6,5.724 44.503,5.433 C44.503,5.433 44.358,5.143 44.358,4.658 C44.358,4.174 44.649,4.513 44.988,4.561 L44.988,4.561 Z M45.472,6.983 C45.472,7.176 45.181,7.176 45.181,7.176 L45.036,6.692 C45.036,6.692 45.036,6.692 45.036,6.45 C45.036,6.208 45.375,6.208 45.375,6.208 C45.375,6.208 45.375,6.208 45.375,6.547 C45.375,6.886 45.472,6.789 45.472,6.983 L45.472,6.983 Z M45.908,6.402 C46.247,6.353 46.101,6.547 46.15,6.789 C46.198,7.031 45.569,6.789 45.569,6.789 C45.569,6.789 45.569,6.45 45.908,6.402 L45.908,6.402 Z M46.295,7.273 C46.489,7.322 46.537,7.467 46.489,7.854 C46.44,8.242 46.101,7.806 46.005,7.612 C46.005,7.612 46.101,7.225 46.295,7.273 L46.295,7.273 Z M47.215,6.595 C47.554,6.644 47.215,6.886 47.167,7.031 C47.118,7.176 46.779,7.08 46.634,6.837 C46.634,6.837 46.876,6.547 47.215,6.595 L47.215,6.595 Z M37.046,14.828 C37.046,15.216 36.852,15.07 36.755,14.925 C36.755,14.925 36.706,14.247 36.949,14.247 C37.191,14.247 37.046,14.441 37.046,14.828 L37.046,14.828 Z M36.658,17.298 C36.658,17.782 36.319,18.896 35.883,19.235 C35.447,19.574 33.995,19.235 33.462,19.187 C32.929,19.138 32.881,18.944 32.445,18.702 C32.009,18.46 32.348,18.073 32.445,17.588 C32.542,17.104 33.22,16.862 33.51,16.668 L33.704,16.62 C33.704,16.62 34.479,15.603 35.351,14.973 C36.222,14.344 35.98,15.07 36.561,15.748 C37.142,16.426 36.658,16.814 36.658,17.298 L36.658,17.298 Z M32.493,20.591 C32.009,20.543 32.251,20.736 31.864,20.93 C31.476,21.124 31.864,20.93 31.089,20.736 C30.314,20.543 31.04,20.349 31.04,20.204 L31.961,19.913 L32.542,19.913 C32.929,19.913 32.832,20.01 33.51,20.252 C34.188,20.494 32.978,20.639 32.493,20.591 L32.493,20.591 Z M30.992,22.48 C30.944,22.722 30.653,22.334 30.653,22.334 L31.04,22.044 C31.04,22.044 31.04,22.238 30.992,22.48 L30.992,22.48 Z M30.266,21.075 C30.266,21.414 30.266,21.075 29.975,21.221 C29.684,21.366 29.733,21.221 29.781,20.978 C29.781,20.978 29.975,20.736 30.266,20.736 C30.556,20.736 30.266,20.736 30.266,21.075 L30.266,21.075 Z M29.83,19.526 L30.266,19.574 C30.266,19.574 30.266,19.816 30.169,20.058 C30.072,20.3 29.975,20.155 29.636,19.961 C29.297,19.768 29.636,19.961 29.83,19.526 L29.83,19.526 Z M29.055,19.332 C28.764,19.526 28.619,19.38 28.377,18.751 C28.377,18.751 28.377,18.751 28.329,18.363 C28.28,17.976 28.377,17.782 28.425,17.395 C28.474,17.007 28.474,16.959 28.91,16.62 C29.345,16.281 29.83,17.831 29.83,18.412 C29.83,18.993 29.345,19.138 29.055,19.332 L29.055,19.332 Z M29.588,56.089 C29.975,56.476 29.975,56.718 29.975,57.057 C29.975,57.396 29.539,58.171 29.152,58.461 C28.764,58.752 28.329,58.8 27.747,58.849 C27.166,58.897 26.876,58.849 26.44,58.849 C26.004,58.849 25.859,58.994 25.326,59.139 C24.793,59.285 23.583,59.914 22.033,59.817 C20.483,59.721 20.435,59.624 19.757,59.527 C19.079,59.43 18.934,59.527 18.159,59.527 C17.384,59.527 16.996,59.624 16.415,59.672 C15.834,59.721 16.125,58.704 16.173,58.558 C16.222,58.413 16.222,58.268 16.464,58.026 C16.706,57.783 17.093,57.59 17.384,57.444 C17.384,57.444 17.965,57.251 18.401,57.154 C18.837,57.057 18.885,56.96 19.224,56.863 C19.563,56.767 19.999,56.96 20.774,57.202 C21.549,57.444 22.42,57.687 23.147,57.832 C23.873,57.977 24.309,57.88 24.842,57.88 C25.374,57.88 25.665,57.106 26.149,56.524 C26.634,55.943 26.973,55.798 27.408,55.411 C27.844,55.023 27.796,55.411 28.91,55.507 C30.023,55.604 29.2,55.701 29.588,56.089 L29.588,56.089 Z M16.609,60.495 C16.609,60.495 16.367,60.253 16.415,60.108 L16.996,60.253 L16.609,60.495 L16.609,60.495 Z M15.81,60.544 C15.81,60.544 15.301,60.617 14.938,60.471 C14.575,60.326 14.938,60.471 14.938,60.108 C14.938,59.745 15.519,60.108 15.883,60.108 L15.81,60.544 L15.81,60.544 Z M15.447,58.752 L15.447,59.236 L14.962,59.333 C14.962,59.333 14.866,59.139 14.866,58.994 L15.447,58.752 L15.447,58.752 Z M12.904,55.895 C12.105,55.75 12.904,55.895 12.396,55.459 C11.887,55.023 12.396,54.95 12.541,54.587 C12.686,54.224 12.977,54.224 13.267,54.079 C13.558,53.933 13.849,53.861 15.301,53.643 C16.754,53.425 15.737,53.643 16.246,53.716 C16.754,53.788 17.045,54.079 17.117,54.587 C17.19,55.096 16.246,55.241 16.1,55.459 C15.955,55.677 15.519,55.75 15.084,55.822 C15.084,55.822 13.703,56.04 12.904,55.895 L12.904,55.895 Z M14.091,60.302 L13.655,60.108 L13.945,59.769 L14.43,59.914 L14.091,60.302 L14.091,60.302 Z M11.185,49.163 C10.459,49.018 10.798,48.921 10.846,48.582 C10.846,48.582 10.846,47.517 10.701,46.597 C10.556,45.677 10.41,46.258 10.362,45.967 C10.313,45.677 10.41,44.66 10.701,44.417 C10.991,44.175 11.088,44.175 11.573,44.03 C12.057,43.885 12.299,43.788 12.783,43.836 C13.267,43.885 13.461,44.563 13.897,45.047 C14.333,45.531 14.381,45.967 14.575,46.355 C14.769,46.742 13.461,48.631 13.122,48.97 C12.783,49.309 11.912,49.309 11.185,49.163 L11.185,49.163 Z M11.33,50.568 C11.185,50.761 10.846,50.374 10.846,50.374 L11.427,49.987 L11.96,50.035 C11.96,50.035 11.476,50.374 11.33,50.568 L11.33,50.568 Z M10.362,49.841 C10.362,49.987 9.926,49.987 9.926,49.987 L9.878,49.793 C9.878,49.793 10.023,49.454 10.168,49.309 C10.313,49.163 10.362,49.405 10.362,49.405 L10.362,49.841 L10.362,49.841 Z M12.832,41.415 C12.832,41.415 12.832,41.609 12.686,41.948 C12.541,42.287 12.444,41.996 12.105,41.802 C11.766,41.609 12.154,41.27 12.154,41.27 L12.832,41.415 L12.832,41.415 Z M13.51,40.834 C13.51,41.076 13.316,41.027 13.122,41.027 C13.122,41.027 13.074,40.785 13.267,40.543 C13.461,40.301 13.51,40.592 13.51,40.834 L13.51,40.834 Z M9.103,39.284 C8.522,38.994 8.425,39.187 7.698,39.09 C6.972,38.994 7.166,38.703 6.439,37.831 C5.713,36.96 6.439,36.911 6.536,36.524 C6.633,36.136 6.778,36.136 6.827,35.168 C6.875,34.199 7.262,33.957 7.456,34.054 C7.65,34.151 8.086,34.732 8.667,35.458 C9.248,36.185 9.49,36.136 10.265,36.475 C11.04,36.814 11.04,36.282 11.669,35.652 C12.299,35.022 12.202,34.683 12.493,33.376 C12.783,32.068 12.783,31.487 12.783,30.809 C12.783,30.131 12.783,29.114 12.977,28.049 C13.171,26.983 13.752,27.758 14.042,27.904 C14.333,28.049 14.381,28.969 14.381,29.599 C14.381,30.228 14.381,30.373 14.527,31.051 C14.672,31.729 14.914,32.262 15.398,33.812 C15.883,35.361 13.655,37.347 13.122,37.928 C12.589,38.509 12.735,39.333 12.735,40.156 C12.735,40.979 11.912,40.931 11.718,40.737 C11.524,40.543 10.749,40.107 10.265,39.817 C10.265,39.817 9.684,39.575 9.103,39.284 L9.103,39.284 Z M8.11,60.544 C7.965,60.907 7.819,60.689 7.311,60.689 C6.802,60.689 7.311,60.689 7.311,60.253 C7.311,59.817 7.456,59.745 7.892,59.527 L8.255,60.181 C8.255,60.181 8.255,60.181 8.11,60.544 L8.11,60.544 Z M6.948,58.51 C7.238,58.365 7.674,58.873 7.674,58.873 C7.456,59.018 7.02,59.018 7.02,59.018 C7.02,59.018 6.657,58.655 6.948,58.51 L6.948,58.51 Z M5.955,39.526 C5.567,39.478 5.906,39.236 5.955,38.994 C5.955,38.994 6.681,38.994 6.681,39.429 C6.681,39.865 6.342,39.575 5.955,39.526 L5.955,39.526 Z M6.73,33.279 C6.875,33.231 7.02,33.376 7.02,33.376 L6.923,33.715 L6.73,33.667 L6.584,33.327 C6.584,33.327 6.584,33.327 6.73,33.279 L6.73,33.279 Z M6.923,21.511 C7.069,21.172 7.698,21.608 7.844,21.802 C7.844,21.802 7.747,22.48 7.456,22.819 C7.166,23.158 7.02,22.77 6.778,22.286 C6.536,21.802 6.778,21.85 6.923,21.511 L6.923,21.511 Z M7.311,18.993 C7.505,18.993 7.408,19.38 7.408,19.38 L6.972,19.526 C6.972,19.526 7.117,18.993 7.311,18.993 L7.311,18.993 Z M7.166,32.553 L7.408,32.262 L7.747,32.359 C7.747,32.359 7.553,32.746 7.408,32.746 C7.262,32.746 7.166,32.553 7.166,32.553 L7.166,32.553 Z M7.698,32.892 C7.892,32.892 7.844,33.279 7.844,33.279 L7.601,33.618 L7.359,33.376 C7.359,33.376 7.505,32.892 7.698,32.892 L7.698,32.892 Z M8.376,20.785 C8.473,20.639 8.715,20.978 8.764,21.317 C8.812,21.656 8.473,21.511 7.94,21.414 C7.94,21.414 8.279,20.93 8.376,20.785 L8.376,20.785 Z M8.522,4.61 C8.522,4.61 8.957,4.319 8.957,4.61 C8.957,4.9 8.764,4.949 8.473,4.9 C8.183,4.852 8.473,4.9 8.522,4.61 L8.522,4.61 Z M9.393,29.695 C9.539,29.211 9.684,29.356 9.781,29.163 C9.781,29.163 10.313,29.163 10.459,29.453 C10.604,29.744 10.459,30.083 10.265,30.277 C10.071,30.47 10.023,30.47 9.296,30.567 C8.57,30.664 9.248,30.18 9.393,29.695 L9.393,29.695 Z M9.635,10.082 C9.635,10.082 9.926,9.985 10.217,10.082 C10.507,10.179 10.217,10.082 10.217,10.227 C10.217,10.373 10.023,10.421 9.781,10.421 C9.539,10.421 9.635,10.082 9.635,10.082 L9.635,10.082 Z M10.217,9.017 C10.459,9.017 10.217,9.017 10.265,9.259 C10.313,9.501 10.023,9.404 10.023,9.404 C10.023,9.404 9.829,9.404 9.829,9.21 C9.829,9.21 9.974,9.017 10.217,9.017 L10.217,9.017 Z M10.943,8.484 C10.943,8.484 10.895,8.726 10.652,8.871 C10.652,8.871 10.652,8.532 10.943,8.484 L10.943,8.484 Z M11.33,30.47 C11.234,30.858 11.33,30.47 10.895,30.325 C10.459,30.18 10.895,30.325 10.991,30.034 C10.991,30.034 11.427,30.083 11.33,30.47 L11.33,30.47 Z M11.863,29.695 C11.863,29.841 11.427,29.938 11.427,29.938 L11.234,29.55 L11.863,29.695 L11.863,29.695 Z M11.815,28 C11.815,28 11.96,28.533 11.863,29.017 C11.766,29.502 11.863,29.017 11.476,29.114 C11.088,29.211 11.088,28.969 11.088,28.678 C11.088,28.388 11.427,28.339 11.815,28 L11.815,28 Z M11.427,5.046 C11.718,4.804 11.96,4.949 12.444,5.094 C12.928,5.239 13.122,5.482 13.51,6.111 C13.897,6.741 12.299,7.419 11.96,7.419 C11.621,7.419 11.524,7.273 11.476,6.934 C11.476,6.934 11.137,5.288 11.427,5.046 L11.427,5.046 Z M13.897,27.08 C13.703,27.371 13.897,27.08 13.606,26.79 C13.316,26.499 13.655,26.548 13.849,26.402 C13.849,26.402 14.091,26.79 13.897,27.08 L13.897,27.08 Z M14.914,26.887 C15.205,26.887 15.156,26.983 15.156,27.274 C15.156,27.565 15.059,27.661 14.866,27.952 C14.672,28.243 14.623,27.855 14.623,27.322 C14.623,27.322 14.623,26.887 14.914,26.887 L14.914,26.887 Z M15.253,25.385 C15.253,25.385 15.495,25.579 15.495,25.918 C15.495,26.257 15.398,26.209 15.059,26.257 C14.72,26.305 14.623,26.257 14.623,26.015 C14.623,25.773 14.914,25.676 15.253,25.385 L15.253,25.385 Z M15.834,24.078 C16.173,24.078 15.979,24.368 15.931,24.756 C15.883,25.143 15.737,24.95 15.495,24.756 C15.495,24.756 15.495,24.078 15.834,24.078 L15.834,24.078 Z M16.706,25.627 C16.851,25.627 16.851,25.821 16.851,25.821 C16.851,25.821 16.464,26.063 16.173,25.821 C16.173,25.821 16.561,25.627 16.706,25.627 L16.706,25.627 Z M18.934,55.967 C18.934,56.185 18.716,56.331 18.352,56.621 C17.989,56.912 17.917,56.694 17.553,56.549 C17.553,56.549 17.989,56.258 18.207,56.185 C18.207,56.185 18.934,55.75 18.934,55.967 L18.934,55.967 Z M16.948,22.48 C17.093,21.705 17.771,21.995 18.11,21.753 L18.304,21.802 C18.304,21.802 18.691,21.414 19.369,21.124 C20.047,20.833 19.708,20.688 20.386,20.01 C21.064,19.332 21.306,19.235 21.984,19.09 C22.662,18.944 22.13,19.671 22.227,20.639 C22.323,21.608 21.016,21.511 20.532,21.511 C20.047,21.511 19.466,22.431 19.273,22.964 C19.079,23.497 18.352,24.078 17.626,24.562 C16.9,25.046 16.803,24.126 16.803,23.739 C16.803,23.351 16.803,23.255 16.948,22.48 L16.948,22.48 Z M20.241,22.431 C20.241,22.431 20.386,22.334 20.483,22.189 C20.58,22.044 20.725,22.189 20.967,22.189 C21.21,22.189 20.919,22.48 20.629,22.625 C20.338,22.77 20.289,22.577 20.241,22.431 L20.241,22.431 Z M22.323,38.267 C22.227,38.848 22.081,38.316 21.355,38.17 C20.629,38.025 20.871,38.073 20.58,37.977 C20.289,37.88 20.58,37.977 20.629,37.783 C20.677,37.589 21.306,37.25 21.306,37.25 C21.306,37.25 22.227,37.008 22.372,37.153 C22.517,37.299 22.42,37.686 22.323,38.267 L22.323,38.267 Z M22.662,21.075 L23.001,21.269 C23.001,21.269 23.001,21.269 22.856,21.56 C22.711,21.85 22.856,21.56 22.566,21.366 C22.275,21.172 22.566,21.366 22.662,21.075 L22.662,21.075 Z M23.147,13.714 C23.147,13.714 23.147,13.908 23.001,14.247 C22.856,14.586 22.566,14.15 22.566,14.15 L23.147,13.714 L23.147,13.714 Z M23.34,38.509 C23.34,38.509 23.147,37.977 23.34,37.88 C23.534,37.783 23.679,38.073 23.679,38.219 C23.679,38.364 23.34,38.509 23.34,38.509 L23.34,38.509 Z M23.195,47.807 C23.34,47.807 23.534,47.904 23.534,47.904 C23.534,47.904 23.147,48.389 23.001,48.389 C22.856,48.389 22.808,48.146 22.808,48.146 C22.808,48.146 23.05,47.807 23.195,47.807 L23.195,47.807 Z M23.001,20.639 C22.711,20.688 22.856,20.446 22.953,20.107 C22.953,20.107 23.486,20.204 23.534,20.397 C23.583,20.591 23.292,20.591 23.001,20.639 L23.001,20.639 Z M23.437,36.233 C23.583,36.33 23.583,36.524 23.583,36.911 C23.583,37.299 23.292,37.153 22.808,36.863 C22.808,36.863 22.662,36.33 22.953,36.088 C23.244,35.846 23.292,36.136 23.437,36.233 L23.437,36.233 Z M23.873,18.993 C24.454,19.09 23.873,18.993 23.631,19.429 C23.389,19.865 23.195,19.283 23.195,19.283 C23.195,19.283 23.292,18.896 23.873,18.993 L23.873,18.993 Z M23.389,17.298 L23.583,17.153 C23.583,17.153 24.067,16.814 24.987,16.329 C25.907,15.845 24.987,16.329 24.987,16.765 C24.987,17.201 24.987,17.298 24.745,17.927 C24.503,18.557 24.261,18.218 23.728,18.218 C23.195,18.218 23.34,17.831 23.389,17.298 L23.389,17.298 Z M25.181,19.719 C25.084,20.107 24.987,19.865 24.454,19.768 C23.922,19.671 24.454,19.768 24.6,19.622 C24.6,19.622 24.89,19.187 25.278,19.332 C25.665,19.477 25.278,19.332 25.181,19.719 L25.181,19.719 Z M25.859,15.216 C26.052,14.973 26.246,15.119 26.44,15.167 C26.634,15.216 26.73,15.555 26.73,15.845 C26.73,16.136 26.488,16.378 26.246,16.475 C26.004,16.572 25.52,16.281 25.471,16.039 C25.471,16.039 25.665,15.458 25.859,15.216 L25.859,15.216 Z M28.038,16.378 C28.086,16.959 28.038,16.378 27.457,16.717 C26.876,17.056 27.312,16.426 27.36,16.233 C27.36,16.233 27.457,16.087 27.796,15.748 C28.135,15.409 27.99,15.797 28.038,16.378 L28.038,16.378 Z M27.263,18.412 C26.537,18.751 27.069,18.412 26.973,18.121 C26.973,18.121 26.827,17.976 26.876,17.685 C26.924,17.395 27.118,17.395 27.699,17.007 C28.28,16.62 28.086,17.153 28.232,17.492 C28.377,17.831 27.99,18.073 27.263,18.412 L27.263,18.412 Z M27.99,45.095 C28.232,45.095 27.99,45.289 27.941,45.58 C27.893,45.87 27.505,45.58 27.457,45.434 C27.457,45.434 27.747,45.095 27.99,45.095 L27.99,45.095 Z M27.651,44.321 C27.941,44.224 27.941,44.417 27.99,44.563 C28.038,44.708 27.796,44.805 27.263,44.708 C27.263,44.708 27.36,44.417 27.651,44.321 L27.651,44.321 Z M27.844,21.269 C27.699,21.608 27.844,21.269 27.699,21.269 C27.554,21.269 27.408,21.221 27.36,20.978 L27.844,20.591 C27.844,20.591 27.99,20.93 27.844,21.269 L27.844,21.269 Z M27.166,19.768 C27.166,19.768 27.36,19.429 27.554,19.283 C27.747,19.138 28.038,19.671 28.038,19.671 C28.038,19.671 28.038,19.671 27.312,20.688 C26.585,21.705 27.118,20.155 27.166,19.768 L27.166,19.768 Z M27.069,46.112 C26.973,46.355 26.73,46.258 26.73,46.258 L26.682,45.822 C26.682,45.822 27.166,45.87 27.069,46.112 L27.069,46.112 Z M26.101,45.095 C26.101,44.95 26.585,44.999 26.682,44.66 L26.924,44.853 L26.634,45.289 C26.634,45.289 26.343,45.483 26.198,45.483 C26.052,45.483 26.101,45.241 26.101,45.095 L26.101,45.095 Z M26.198,18.702 C26.73,18.46 26.295,18.944 26.246,19.283 C26.198,19.622 25.907,19.38 25.713,19.283 C25.713,19.283 25.665,18.944 26.198,18.702 L26.198,18.702 Z M26.052,17.637 C26.052,17.927 25.859,17.734 25.568,17.588 C25.568,17.588 25.81,17.25 26.052,17.346 C26.295,17.443 26.052,17.346 26.052,17.637 L26.052,17.637 Z M25.278,20.01 C25.278,20.01 26.101,19.913 26.391,20.204 C26.682,20.494 26.391,20.833 26.295,21.414 C26.198,21.995 25.907,21.753 25.471,21.463 C25.035,21.172 25.278,21.027 24.939,20.736 C24.6,20.446 24.939,20.446 25.278,20.01 L25.278,20.01 Z M24.745,23.594 C24.745,23.594 24.745,24.029 24.503,24.223 C24.261,24.417 24.261,24.175 24.261,23.836 L24.745,23.594 L24.745,23.594 Z M24.6,22.141 C24.406,22.383 24.212,22.141 24.115,21.947 C24.115,21.947 24.261,21.705 24.454,21.463 C24.648,21.221 24.454,21.463 24.793,21.56 C25.132,21.656 24.793,21.899 24.6,22.141 L24.6,22.141 Z M28.885,54.297 C28.74,54.95 28.885,54.297 28.159,54.079 C28.159,54.079 28.214,53.425 28.522,53.425 C28.806,53.425 28.921,53.411 28.965,53.396 C28.961,53.369 28.958,53.352 28.958,53.352 C28.958,53.352 29.023,53.376 28.965,53.396 C28.979,53.496 29,53.782 28.885,54.297 L28.885,54.297 Z M29.345,20.397 C29.491,20.688 28.958,21.075 28.958,21.075 C28.958,21.075 28.474,21.027 28.28,20.397 L28.571,20.058 C28.571,20.058 28.571,20.058 29.2,20.107 C29.83,20.155 29.2,20.107 29.345,20.397 L29.345,20.397 Z M26.827,7.322 C26.924,6.886 27.049,6.564 27.118,6.063 C27.263,4.997 27.941,4.658 28.813,4.368 C29.684,4.077 29.394,4.658 29.781,4.949 C30.169,5.239 29.684,6.111 29.345,6.692 C29.006,7.273 27.99,7.661 27.651,7.903 C27.312,8.145 26.73,7.758 26.827,7.322 L26.827,7.322 Z M30.992,17.25 C31.573,17.25 31.428,17.637 31.283,17.927 C31.137,18.218 30.508,17.976 30.266,17.879 C30.266,17.879 30.072,17.685 30.072,17.54 C30.072,17.395 30.411,17.25 30.992,17.25 L30.992,17.25 Z M31.476,19.283 C31.379,19.526 31.428,19.526 31.137,19.477 C30.847,19.429 30.944,18.944 30.944,18.944 C30.944,18.944 31.428,18.848 31.573,19.041 C31.718,19.235 31.573,19.041 31.476,19.283 L31.476,19.283 Z M32.009,16.523 C32.009,16.523 32.687,15.748 33.317,15.797 C33.946,15.845 33.317,15.797 33.123,16.039 C32.929,16.281 32.881,16.329 32.348,16.62 C31.815,16.91 31.912,16.717 32.009,16.523 L32.009,16.523 Z M5.18,38.897 C4.889,39.429 4.647,38.945 4.647,38.945 C4.647,38.945 4.938,38.461 4.938,38.316 C4.938,38.316 5.519,37.831 5.567,37.977 C5.616,38.122 5.471,38.364 5.18,38.897 L5.18,38.897 Z M5.277,40.301 C5.277,40.543 4.986,40.398 4.841,40.301 C4.841,40.301 4.986,39.962 5.277,40.059 C5.567,40.156 5.277,40.059 5.277,40.301 L5.277,40.301 Z M4.551,39.526 L4.938,39.768 L4.647,39.865 L4.551,39.526 L4.551,39.526 Z M4.26,41.318 C4.066,41.415 4.066,41.173 4.066,41.173 C4.066,41.173 4.018,40.882 4.163,40.785 C4.308,40.689 4.357,40.834 4.454,40.979 C4.551,41.124 4.454,41.221 4.26,41.318 L4.26,41.318 Z M3.727,39.865 C3.727,39.575 3.437,39.284 3.776,39.284 C4.115,39.284 4.066,38.994 4.115,39.284 C4.163,39.575 4.115,39.962 4.115,39.962 C3.969,40.011 3.727,40.156 3.727,39.865 L3.727,39.865 Z M3.34,40.785 L3.485,40.398 L3.824,40.64 C3.824,40.64 3.63,40.882 3.34,40.785 L3.34,40.785 Z M3.485,41.948 C3.437,42.19 3.195,41.851 3.195,41.851 L3.34,41.512 L3.534,41.512 C3.534,41.512 3.534,41.705 3.485,41.948 L3.485,41.948 Z M3.534,44.611 C3.534,44.805 3.243,44.708 2.952,44.708 C2.662,44.708 2.759,44.611 2.759,44.611 L3.001,44.175 L3.534,44.224 L3.534,44.611 L3.534,44.611 Z M2.807,42.771 C2.807,42.771 3.098,42.916 2.952,43.158 C2.807,43.4 2.952,43.158 2.807,43.158 C2.662,43.158 2.759,42.965 2.807,42.771 L2.807,42.771 Z M2.517,40.979 C2.662,40.834 2.856,40.785 2.856,40.785 L2.71,41.221 C2.71,41.221 2.371,41.124 2.517,40.979 L2.517,40.979 Z M2.371,42.48 C2.371,42.48 2.032,42.529 2.032,42.141 C2.032,41.754 2.178,41.899 2.178,41.899 L2.42,42.093 C2.42,42.093 2.42,42.335 2.371,42.48 L2.371,42.48 Z M3.243,37.153 C3.291,37.008 3.437,37.008 3.582,37.056 C3.727,37.105 3.824,37.589 3.824,37.589 L3.437,37.686 C3.437,37.686 3.195,37.299 3.243,37.153 L3.243,37.153 Z M73.754,56.863 C73.366,56.185 71.429,54.733 72.204,54.442 C72.979,54.151 73.076,53.812 73.172,53.28 C73.269,52.747 73.366,51.73 73.269,51.536 C73.172,51.343 72.64,47.565 72.93,47.081 C73.221,46.597 73.415,46.451 73.415,46.161 C73.415,45.87 73.512,45.241 73.512,44.611 C73.512,43.982 73.608,43.788 73.608,43.497 L73.608,42.577 C73.608,42.287 73.463,40.689 73.56,40.156 C73.657,39.623 73.705,39.575 73.754,38.897 C73.802,38.219 73.705,38.655 73.996,37.783 C74.286,36.911 74.819,36.378 74.916,35.507 C75.013,34.635 75.206,33.957 75.206,33.618 C75.206,33.279 75.255,33.57 75.255,32.843 L75.255,31.826 C75.255,31.439 75.449,27.08 75.352,26.548 C75.255,26.015 75.206,25.87 75.11,25.482 C75.013,25.095 74.867,24.659 74.916,23.836 C74.964,23.012 75.061,22.334 75.206,21.753 C75.352,21.172 75.449,20.785 75.449,20.01 C75.449,19.235 75.061,17.25 74.964,15.99 C74.867,14.731 75.449,12.649 75.449,11.922 L75.449,9.84 C75.449,9.646 75.255,8.823 75.303,8.145 C75.352,7.467 75.4,6.402 75.4,5.917 C75.4,5.433 75.449,3.593 74.189,2.818 C72.93,2.043 71.574,1.849 71.284,1.898 C70.993,1.946 70.557,2.092 70.122,1.946 C69.686,1.801 69.105,1.849 68.814,1.607 C68.523,1.365 67.555,0.929 66.732,0.978 C65.908,1.026 64.359,1.414 63.923,1.704 C63.487,1.995 61.647,1.946 61.163,1.801 C60.678,1.656 59.71,1.171 58.838,0.832 C57.966,0.493 57.579,0.445 57.143,0.445 C56.707,0.445 55.593,0.639 52.978,0.639 C50.363,0.639 45.811,0.397 44.358,0.445 C42.905,0.493 41.743,0.59 40.096,0.445 C38.45,0.3 37.288,0.251 36.561,0.203 C35.835,0.154 34.866,0.397 33.995,0.445 C33.123,0.493 32.057,0.542 31.089,0.493 C30.12,0.445 28.958,0.154 28.135,0.251 C27.312,0.348 27.408,0.493 26.537,0.542 C25.665,0.59 23.97,0.3 23.437,0.348 C22.905,0.397 23.147,0.251 22.275,0.542 C21.403,0.832 21.645,0.978 20.919,1.171 C20.193,1.365 20.193,1.51 19.369,1.51 C18.546,1.51 18.595,1.462 17.917,1.462 C17.239,1.462 17.287,1.462 16.512,1.559 C15.737,1.656 13.945,1.317 13.219,1.075 C12.493,0.832 11.282,0.639 9.974,0.639 C8.667,0.639 6.73,0.542 6.197,0.542 C5.664,0.542 3.872,0.881 3.001,2.092 C2.129,3.302 1.693,5.578 1.403,6.789 C1.112,8 1.015,8.968 1.015,9.453 C1.015,9.937 1.596,10.905 1.548,13.714 C1.5,16.523 1.306,17.734 1.257,18.218 C1.209,18.702 1.161,23.303 1.209,23.787 C1.257,24.272 1.548,24.32 1.548,24.998 C1.548,25.676 1.742,27.71 1.257,28.533 C0.773,29.356 1.064,30.906 1.064,31.051 C1.064,31.197 1.306,32.02 1.306,32.214 C1.306,32.407 1.161,35.749 1.161,35.749 C1.161,35.749 0.967,36.088 0.967,36.378 C0.967,36.669 0.918,37.928 0.967,38.073 C1.015,38.219 1.161,38.606 1.161,38.606 L1.161,41.027 C1.161,41.027 1.693,41.948 1.693,42.48 L1.693,44.224 C1.693,44.999 1.693,45.58 1.79,45.773 C1.887,45.967 1.839,46.064 2.274,46.112 C2.71,46.161 2.952,46.451 2.952,46.016 C2.952,45.58 3.001,45.434 3.098,45.144 C3.195,44.853 3.727,44.514 4.018,44.756 C4.308,44.999 4.696,45.483 4.647,45.919 C4.599,46.355 4.163,46.694 3.969,46.887 C3.776,47.081 3.534,47.129 3.63,47.614 C3.727,48.098 3.872,48.97 3.872,49.454 C3.872,49.938 3.582,51.391 3.388,51.585 C3.195,51.778 3.195,51.778 3.727,52.021 C4.26,52.263 5.083,52.602 3.872,52.505 C2.662,52.408 3.098,52.505 2.662,52.408 C2.226,52.311 2.613,52.166 2.226,52.311 C1.839,52.456 1.645,52.214 1.5,52.795 C1.354,53.377 1.161,53.57 1.161,54.006 C1.161,54.442 1.112,54.636 1.112,54.926 C1.112,55.217 1.306,56.912 1.354,57.299 C1.403,57.687 1.596,59.043 1.548,59.721 C1.5,60.399 1.451,60.447 1.5,60.738 C1.548,61.028 2.952,62.045 3.437,62.336 C3.921,62.626 4.793,63.256 5.18,63.498 C5.567,63.74 5.761,63.788 5.664,64.176 C5.567,64.563 5.18,64.612 5.422,64.902 C5.664,65.193 6.923,65.435 7.505,65.532 C8.086,65.629 8.522,65.629 9.151,65.435 C9.781,65.241 9.926,65.144 10.071,64.951 C10.217,64.757 10.41,64.902 10.362,64.37 C10.313,63.837 10.507,63.837 10.265,63.546 C10.023,63.256 9.926,63.207 9.781,63.111 C9.635,63.014 8.812,62.675 9.054,62.094 C9.296,61.512 9.103,61.416 9.587,61.27 C10.071,61.125 9.781,60.931 10.556,61.028 C11.33,61.125 11.234,60.834 12.202,61.125 C13.171,61.416 13.171,61.367 14.042,61.512 C14.914,61.658 15.011,61.319 15.544,61.706 C16.076,62.094 14.962,61.803 16.415,62.384 C17.868,62.965 17.723,62.772 18.546,63.256 C19.369,63.74 18.934,63.111 19.369,63.45 C19.64,63.66 20.386,63.256 20.822,63.207 C21.258,63.159 21.5,63.159 21.984,63.111 C22.469,63.062 22.517,63.014 22.856,62.965 C23.195,62.917 23.244,63.062 23.728,62.917 C24.212,62.772 23.97,62.723 24.6,62.723 L25.81,62.723 C26.246,62.723 26.827,62.433 27.554,62.433 C28.28,62.433 28.377,62.239 28.619,62.336 C28.861,62.433 28.667,62.433 29.491,62.433 C30.314,62.433 30.411,62.384 30.992,62.433 C31.573,62.481 31.912,62.481 32.396,62.481 C32.881,62.481 32.59,62.529 33.22,62.481 C33.849,62.433 33.656,62.433 34.237,62.433 C34.818,62.433 35.835,62.287 36.222,62.336 C36.61,62.384 37.384,62.481 37.82,62.19 C38.256,61.9 38.789,61.948 38.789,60.834 C38.789,59.721 38.159,59.139 38.789,58.413 C39.418,57.687 39.757,56.718 39.661,55.992 C39.564,55.265 39.661,55.604 39.564,54.781 C39.467,53.958 39.37,53.473 39.37,53.134 C39.37,52.795 39.418,52.553 39.418,51.149 C39.418,49.744 39.661,46.645 39.661,45.822 L39.661,42.868 C39.661,42.529 39.661,42.868 39.661,42.141 C39.661,41.415 39.031,40.398 38.886,40.35 C38.74,40.301 38.692,40.011 38.111,39.962 C37.53,39.914 37.239,39.817 36.997,39.914 C36.755,40.011 36.029,40.011 35.641,40.156 C35.254,40.301 34.963,40.301 34.14,40.301 C33.317,40.301 32.3,40.204 32.057,40.204 C31.815,40.204 31.622,40.204 31.428,40.107 C31.234,40.011 30.411,39.672 30.169,39.429 C29.927,39.187 29.539,38.897 29.491,38.461 C29.442,38.025 29.684,35.119 29.781,34.49 C29.878,33.86 29.733,32.165 29.781,31.536 C29.83,30.906 31.04,29.841 31.186,29.744 C31.331,29.647 31.718,29.453 32.445,29.453 C33.171,29.453 34.479,29.599 35.012,29.599 C35.544,29.599 35.447,29.55 36.416,29.599 C37.384,29.647 37.433,29.695 37.675,29.647 C37.917,29.599 39.128,29.356 39.176,29.114 C39.225,28.872 39.322,28.872 39.322,28.436 C39.322,28 39.37,27.807 39.322,27.419 C39.273,27.032 39.225,26.838 39.225,26.354 L39.225,23.787 C39.225,23.787 40.096,22.383 40.242,21.705 C40.387,21.027 40.339,21.075 40.484,20.3 C40.629,19.526 42.324,15.942 42.808,15.506 C43.293,15.07 43.486,14.78 43.825,14.392 C44.164,14.005 45.23,12.6 46.344,12.358 C47.457,12.116 49.152,11.777 49.734,11.632 C50.315,11.487 50.605,11.39 51.283,11.39 C51.961,11.39 56.901,10.809 57.966,10.809 C59.032,10.809 59.71,10.954 60.339,10.809 C60.969,10.663 62.809,10.712 63.439,11.68 C64.068,12.649 64.165,14.247 64.213,15.361 C64.262,16.475 64.117,17.927 63.729,18.412 C63.342,18.896 61.986,19.671 61.55,19.671 C61.114,19.671 60.727,19.768 60.049,19.719 C59.371,19.671 58.499,19.671 58.16,19.671 C57.821,19.671 56.223,20.01 55.642,20.494 C55.061,20.978 53.995,21.366 53.317,22.334 C52.639,23.303 52.252,23.787 52.106,25.724 C51.961,27.661 52.494,28.63 52.542,29.114 C52.591,29.599 52.93,30.228 53.705,30.373 C54.479,30.519 57.288,30.325 57.966,30.18 C58.644,30.034 59.274,29.792 59.855,29.744 C60.436,29.695 61.356,29.308 61.986,29.986 C62.615,30.664 63.245,31.439 63.439,33.279 C63.632,35.119 63.826,37.25 63.681,37.88 C63.535,38.509 63.487,38.945 63.148,39.236 C62.809,39.526 62.615,39.817 61.647,39.817 C60.678,39.817 56.562,40.011 55.835,39.962 C55.109,39.914 53.995,39.817 53.559,40.253 C53.123,40.689 53.269,41.512 53.269,42.093 C53.269,42.674 53.85,44.853 53.898,46.209 C53.947,47.565 53.559,48.727 53.462,49.454 C53.366,50.18 53.511,52.021 53.559,53.086 C53.608,54.151 53.85,55.459 53.801,55.75 C53.753,56.04 53.898,57.59 53.898,57.977 C53.898,58.365 53.947,58.752 53.898,59.285 C53.85,59.817 53.317,62.578 53.22,63.111 C53.123,63.643 52.494,64.66 53.075,65.193 C53.656,65.726 55.351,66.404 58.208,66.549 C61.066,66.694 67.942,66.452 68.814,66.355 C69.686,66.258 72.543,66.161 72.591,65.096 C72.64,64.031 72.979,63.014 73.463,62.481 C73.947,61.948 76.03,61.416 75.981,59.721 C75.933,58.026 74.141,57.541 73.754,56.863 L73.754,56.863 Z" id="Fill-6" sketch:type="MSShapeGroup"></path>
            <path d="M59.661,45.483 C59.371,45.628 59.08,46.355 59.08,46.355 C59.08,46.839 58.886,47.323 59.322,47.226 C59.758,47.129 59.855,46.936 60.049,46.5 C60.242,46.064 59.952,45.338 59.661,45.483" id="Fill-8" sketch:type="MSShapeGroup"></path>
            <path d="M59.177,48.824 C59.274,49.018 59.71,48.921 59.71,48.921 L59.564,48.34 L59.177,48.824" id="Fill-9" sketch:type="MSShapeGroup"></path>
        </g>
    </g>
</svg>