<?xml version="1.0" encoding="utf-8"?>
<!-- Generator: Adobe Illustrator 19.0.1, SVG Export Plug-In . SVG Version: 6.00 Build 0)  -->
<!DOCTYPE svg PUBLIC "-//W3C//DTD SVG 1.1//EN" "http://www.w3.org/Graphics/SVG/1.1/DTD/svg11.dtd">
<svg version="1.1" id="Layer_1" xmlns:sketch="http://www.bohemiancoding.com/sketch/ns"
	 xmlns="http://www.w3.org/2000/svg" xmlns:xlink="http://www.w3.org/1999/xlink" x="0px" y="0px" viewBox="-557 387.9 76 67"
	 style="enable-background:new -557 387.9 76 67;" xml:space="preserve">
<style type="text/css">
	.st0{fill:#FD754D;}
</style>
<g id="Page-1" sketch:type="MSPage">
	<g id="facebook-icon" sketch:type="MSLayerGroup">
		<path id="Fill-6" sketch:type="MSShapeGroup" class="st0" d="M-485.2,441.9c0,0.2-0.3,0-0.5,0l-0.3-0.2c0,0,0.3-0.1,0.8,0
			C-484.7,441.8-485.2,441.7-485.2,441.9L-485.2,441.9z M-485.7,443.3c0,0,0,0-0.5-0.1c-0.5-0.1-0.1-0.5,0-0.7c0,0,0.2-0.2,0.8,0.3
			C-484.8,443.2-485.7,443.3-485.7,443.3L-485.7,443.3z M-486.6,437.4l-0.5-0.3c0,0,0.2-0.2,0.7-0.3c0.5-0.1,0.3,0.1,0.3,0.4
			C-486.2,437.5-486.6,437.4-486.6,437.4L-486.6,437.4z M-487.2,442c-0.2,0.2-0.4-0.1-0.4-0.5c0,0,0.5,0,0.6,0.2
			C-486.9,442-487,441.8-487.2,442L-487.2,442z M-488.2,437.4c0,0,0-0.2,0.2-0.4c0.2-0.2,0,0,0.3,0c0.3,0,0,0.3,0,0.5
			C-487.8,437.7-488.2,437.6-488.2,437.4L-488.2,437.4z M-488.3,442c0,0.1-0.2,0-0.7-0.1c-0.5-0.1-0.2-0.1-0.2-0.3l0.3-0.1
			c0,0,0.2,0,0.4,0.2C-488.3,441.8-488.3,441.8-488.3,442L-488.3,442z M-489.7,438.3c-0.2,0.3-0.5,0.1-0.9-0.1
			c-0.4-0.2-0.1-0.8,0-1.1l0.6,0c0,0,0,0,0.7,0c0.7,0,0.2,0.3,0,0.6C-489.4,438.2-489.5,438-489.7,438.3L-489.7,438.3z M-490,440
			c-0.1,0.2-0.3-0.1-0.3-0.1s0-0.3,0.2-0.3c0.2,0,0,0,0.1,0.1C-489.7,439.7-489.9,439.8-490,440L-490,440z M-490.6,443
			c-0.4,0.5,0,0-0.8,0c-0.8,0-0.2-0.3-0.2-0.8c0-0.5,0.4-0.6,0.6-1.1c0.2-0.5,0.2-0.2,0.4-0.4c0,0,0.5,1.1,0.4,1.7
			C-490.1,443-490.2,442.5-490.6,443L-490.6,443z M-497,445.4c-1.3-0.3-1.3-1.5-1.5-2.5c-0.3-1-0.2-1-0.2-1.6c0-0.6,0.6-1.5,0.6-2.6
			c0-1.1-0.4-1.7-0.7-2.9c-0.3-1.2,0-1.6,0.3-2c0.3-0.3,0.8-0.8,1.4-1.5c0.6-0.7,2.8-1.8,3.4-1.7c0,0,0.4,0.5,0.7,0.7
			c0.2,0.2,0.4,0.6,1,1.6s0.4,0.8,0.8,1.8s0.2,1.8,0,2.7c-0.1,0.9-0.3,2.1-0.3,3.1c0,1-0.9,2.5-1.6,3.5
			C-493.9,444.9-495.7,445.7-497,445.4L-497,445.4z M-498.9,437.6c0,0.2-0.1,0.8-0.3,0.5c-0.2-0.3-0.3-0.5-0.7-0.9c0,0,0.6,0,1,0.2
			C-498.5,437.6-498.9,437.4-498.9,437.6L-498.9,437.6z M-500.3,436.3c-0.2,0-0.3-0.2-0.2-0.4c0,0,0.4-0.2,0.6-0.2c0.2,0,0,0,0,0.3
			C-500,436.3-500.1,436.3-500.3,436.3L-500.3,436.3z M-500.2,435.1c0-0.3,0.2-0.5,0.5-0.5c0,0,0.2,0.3,0.2,0.6s-0.2,0.3-0.5,0.3
			C-500.3,435.5-500.2,435.4-500.2,435.1L-500.2,435.1z M-499.7,433.4c0.1,0,0.1,0.3,0.1,0.3l-0.4,0c0,0-0.2-0.2-0.1-0.4
			C-500.1,433.3-499.9,433.4-499.7,433.4L-499.7,433.4z M-499.2,436.6c0,0.6-0.4-0.2-0.3-0.5C-499.6,436.1-499.2,436-499.2,436.6
			L-499.2,436.6z M-492.9,393.5l-0.1,0.2v-0.8c0-0.4,0.2-0.3,0.9-1c0.7-0.7,0.2,0,0.6,0.1c0.4,0.2,0,0.3,0,0.8
			c0,0.5-0.1,0.3-0.8,0.9C-492.8,394.3-492.6,393.8-492.9,393.5L-492.9,393.5z M-493.1,393.4c0,0.2-0.3,0.1-0.5,0c0,0-0.1,0-0.1-0.3
			c0-0.3,0.2-0.1,0.5-0.1C-492.9,393-493.1,393.2-493.1,393.4L-493.1,393.4z M-493.5,394.3c-0.1,0.2-0.2,0-0.3-0.2
			c0,0,0.3-0.2,0.5,0C-493.1,394.3-493.3,394.1-493.5,394.3L-493.5,394.3z M-493.8,395.2c0,0.5-0.3,0.4-0.8,0.4
			c-0.5,0-0.1-0.2-0.1-0.4c0,0,0.5-0.5,0.9-0.5C-493.4,394.6-493.8,394.7-493.8,395.2L-493.8,395.2z M-495.5,394.6
			c0,0,0.2-0.5,0.7-0.4c0.5,0.1,0,0,0,0.6C-495,395.5-495.4,394.8-495.5,394.6L-495.5,394.6z M-495.6,396c-0.5,0-0.2-0.2-0.2-0.4
			h0.4l0.4,0.1C-495.1,395.7-495.2,396.1-495.6,396L-495.6,396z M-496.7,394.8c0,0,0.2-0.1,0.3-0.4c0.1-0.3,0,0,0.4,0.4
			C-495.6,395.1-496.2,395.1-496.7,394.8L-496.7,394.8z M-497.5,394.2c-0.6,0.3-2.1-0.4-2.6-0.6c-0.5-0.2-0.5-0.5-0.5-0.8
			c0,0-0.1-0.6,0.1-0.8c0.3-0.2,0.5-0.2,0.7-0.6c0.2-0.4,1.1-0.7,1.7-1c0.7-0.3,0.8,0.2,1.1,0.4c0.3,0.2,0.4,1,0.6,1.5
			C-496.1,393-496.9,393.9-497.5,394.2L-497.5,394.2z M-497.4,396.1c-0.1,0.1-0.2-0.1-0.3-0.3l0.2-0.2c0,0,0,0,0.3,0.1
			C-497,395.7-497.3,396-497.4,396.1L-497.4,396.1z M-501.2,393c0,0.2-0.3,0.3-0.7,0.3c-0.4,0-0.2-0.1-0.2-0.4c0,0,0.6-0.2,0.9-0.1
			C-500.9,392.8-501.2,392.8-501.2,393L-501.2,393z M-503,394.3c-0.4,0.2-0.7,0.1-1.3,0.1c-0.6,0-0.3-0.1-0.4-0.6c0,0-0.2-0.3,0.7-1
			c0.9-0.7,0.6-0.1,1-0.1s0.5,0.2,0.7,0.7C-502.1,393.9-502.5,394-503,394.3L-503,394.3z M-503.2,396.2c-0.2,0.3-0.3-0.1-0.3-0.1
			l0.4-0.5c0,0,0,0,0.2,0C-502.8,395.6-503,395.8-503.2,396.2L-503.2,396.2z M-505.3,394.3c0,0.4,0,0.3-0.5,0.3s-0.3,0-0.3-0.3
			l0.1-0.4h0.7C-504.7,393.9-505.3,393.9-505.3,394.3L-505.3,394.3z M-506.8,394.9c-0.3,0.2-0.2,0-0.4-0.2c0,0,0.1-0.1,0.2-0.3
			c0.1-0.2,0.2,0,0.5,0.4C-506.2,395.1-506.5,394.7-506.8,394.9L-506.8,394.9z M-495.7,393.4c0-0.1,0.4,0,0.5,0
			c0.1,0,0.1,0.2,0.1,0.5c0,0.3-0.5,0.1-0.8-0.1C-495.8,393.7-495.7,393.5-495.7,393.4L-495.7,393.4z M-495.3,392.7
			c0.2,0.1,0,0,0.2,0.1c0.2,0.1-0.3,0.2-0.5,0.2C-495.6,393-495.5,392.6-495.3,392.7L-495.3,392.7z M-494.1,393.6c0.3,0.2,0,0,0,0.4
			c0,0.4-0.2,0.1-0.4,0l0-0.4C-494.6,393.6-494.4,393.4-494.1,393.6L-494.1,393.6z M-490.8,440c0,0,0,0-0.1,0.3
			c-0.1,0.3,0,0-0.1-0.1c-0.1-0.1,0,0,0-0.3L-490.8,440L-490.8,440z M-490.9,439c0,0,0-0.4,0.4-0.4c0.4,0,0,0.2,0,0.5
			S-490.9,439.3-490.9,439L-490.9,439z M-490.3,435.6c0.3,0.7,0.4,0.8,0.1,0.9s-0.5,0.1-0.5-0.2C-490.8,436-490.3,435.6-490.3,435.6
			L-490.3,435.6z M-489.2,433.6c0.2,0,0.2,0.3,0.1,0.5c-0.1,0.1-0.4,0-0.4,0l-0.1-0.3C-489.6,433.8-489.4,433.6-489.2,433.6
			L-489.2,433.6z M-488.6,436.7c-0.1,0.7-0.3,0-0.3,0s0.2-0.6,0.5-0.7C-488.2,435.8-488.5,435.9-488.6,436.7L-488.6,436.7z
			 M-488.5,414.3c0.5-0.3,0.3,0.4,0.3,0.6l-0.5,0.2c0,0-0.2,0-0.4-0.1C-489.2,414.8-489,414.6-488.5,414.3L-488.5,414.3z
			 M-488.8,398.8C-488.8,398.8-488.8,398.8-488.8,398.8c0.1-0.3,0.3-1.1,0.6-1.4c0.3-0.4,0.7-0.1,1,0c0.3,0,0.1,0.4,0.5,1.2
			c0.4,0.8,0,0.5-0.7,2C-488.1,401.9-488.8,399.4-488.8,398.8c0,0.1,0,0.2,0,0.2L-488.8,398.8L-488.8,398.8z M-487.3,436.5
			c-0.1,0.2-0.4,0-0.4,0s0.1-0.3,0.4-0.4C-487,435.9-487.2,436.2-487.3,436.5L-487.3,436.5z M-486.5,416.1c0.3,0.7,0.2,1.4-0.7,2.6
			c-0.9,1.2-1.2-1.2-1.2-2.2c0,0,0.6-1.5,1.1-1.5C-486.7,415-486.8,415.4-486.5,416.1L-486.5,416.1z M-486,435.8
			c0,0.3-0.2,0.2-0.6,0.1l-0.2-0.1c0,0,0.1-0.6,0.5-0.6C-485.9,435.3-486,435.5-486,435.8L-486,435.8z M-485.2,436.3
			c0.1,0,0.1,0.2-0.1,0.6c-0.2,0.4-0.2,0-0.5-0.3C-485.8,436.6-485.3,436.2-485.2,436.3L-485.2,436.3z M-484.8,434.6
			c0.6,0,0,0.2,0,0.6c0,0.4-0.2,0.2-0.7,0.2l-0.1-0.5C-485.6,434.9-485.5,434.6-484.8,434.6L-484.8,434.6z M-484.6,432.9
			c0.2-0.4,0.2-0.1,0.4,0c0.2,0.1-0.1,0.7-0.3,1.1c-0.2,0.4-0.2,0-0.3,0c0,0-0.1-0.2-0.1-0.3C-484.8,433.4-484.8,433.3-484.6,432.9
			L-484.6,432.9z M-484.7,437.2c0,0-0.2-1.1-0.2-1.2l0.4-0.3c0,0,0,0.3,0,0.6C-484.4,436.5-484.7,437.2-484.7,437.2L-484.7,437.2z
			 M-501,435.5c-0.2,0.2-0.2,0.7-0.6,0.3c-0.4-0.4-0.6-0.4-0.5-0.8c0.1-0.4,0.1-0.6,0.4-0.6c0.3,0,0.9,0.3,0.9,0.3
			C-500.9,435.2-500.8,435.2-501,435.5L-501,435.5z M-502.4,434.6c-0.1,0.2-0.2,0-0.2-0.2c0-0.3-0.1-0.5,0-0.6
			c0.1-0.1,0.3-0.4,0.4-0.1c0.1,0.2,0-0.1,0.1,0.2C-502.1,434.1-502.4,434.6-502.4,434.6L-502.4,434.6z M-502.5,436.3
			c0,0,0-0.3,0.1-0.6c0,0,0.1,0.2,0.1,0.6C-502.2,436.7-502.5,436.3-502.5,436.3L-502.5,436.3z M-494.1,413.8c0,0.7-0.4,0.1-0.4-0.3
			c0,0,0-0.2,0.1-0.5c0.1-0.3,0.4-0.2,0.4-0.2S-494.1,413.1-494.1,413.8L-494.1,413.8z M-495,413c-0.2,0.4-0.9,0.3-1.5,0.2
			c-0.5,0-1.5,0-2.2,0.1c-0.7,0.1-1.4-1.1-1.4-1.5c0-0.5,0.5-0.7,0.8-0.9c0.3-0.2,0.8-0.2,1.4-0.4c0,0,0.5,0.3,1,0.6
			c0.5,0.3,0.9,0.1,1.7,0.7C-494.2,412.3-494.8,412.6-495,413L-495,413z M-496.1,414.3c-0.9,0,0,0-1,0.1c-1,0.1-0.4-0.4-0.3-0.5h1
			c0.4,0,0.4,0,1.2,0.1C-494.4,414.1-495.3,414.2-496.1,414.3L-496.1,414.3z M-508.6,395.7c-0.7,0.3-0.1-0.3-0.2-0.7
			c0,0,0.5-0.2,1.2,0.1C-506.9,395.4-507.9,395.4-508.6,395.7L-508.6,395.7z M-509.7,396.3c-0.4,0.1-0.3-0.4-0.3-0.7
			c0,0,0.1-0.2,0.5-0.2s0.2,0.1,0.3,0.3C-509.2,395.9-509.3,396.1-509.7,396.3L-509.7,396.3z M-511.2,396.7c-0.4,0-0.4-0.3-0.7,0
			c-0.3,0.4,0,0.5-0.3,0.4c-0.3-0.1-0.3,0-0.4-0.5c-0.1-0.5,0.2-0.9,0.2-0.9c-0.1,0.2,0.5-0.5,0.8-0.1c0.3,0.4,0.6,0.4,0.8,0.5
			c0.2,0.1,0.5,0.1,0.5,0.3C-510.2,396.6-510.8,396.7-511.2,396.7L-511.2,396.7z M-512.8,395c0,0-0.2-0.5,0.1-0.7
			c0.3-0.2,0.3,0.1,0.4,0.6c0.1,0.5-0.2,0.3-0.5,0.4C-513.1,395.3-512.8,395.2-512.8,395L-512.8,395z M-513.1,397.4
			c-0.1,0.7-0.4,0.8-0.9,0.8c-0.5,0-1.2-0.7-1.3-1.2c0,0,0.4-0.7,0.8-0.9c0.4-0.2,0.4,0,1.1,0.1C-512.9,396.4-513,396.8-513.1,397.4
			L-513.1,397.4z M-515.7,393.5c0,0,0.4-0.1,0.6-0.3c0.2-0.2,0.4-0.2,1.5-0.1s0.2,0.2,0.4,0.6c0.1,0.4-0.3,1-0.7,1.6
			c-0.4,0.6-1,0-1.2-0.2c-0.2-0.3,0,0-0.3-0.3C-515.8,394.5-515.7,394.2-515.7,393.5L-515.7,393.5z M-516,396.1
			c-0.1-0.4-0.1-0.6-0.1-0.6l0.2,0l0.3,0.7C-515.8,396.4-515.9,396.5-516,396.1L-516,396.1z M-514.8,391.9c0.2,0,0.1-0.3,0.2,0
			c0.1,0.3,0,0.6,0,0.6c-0.2,0,0,0.4-0.2,0C-515,392.1-515,391.9-514.8,391.9L-514.8,391.9z M-513.7,392.2l0.3,0l0.1,0.4
			c-0.4,0-0.7,0-0.7-0.2C-513.9,392.3-514,392.3-513.7,392.2L-513.7,392.2z M-512,392.5c0.3,0,0,0.6-0.2,1.1
			c-0.2,0.4-0.2,0.1-0.3-0.2c0,0-0.1-0.3-0.1-0.8C-512.6,392.1-512.4,392.4-512,392.5L-512,392.5z M-511.5,394.9
			c0,0.2-0.3,0.2-0.3,0.2l-0.1-0.5c0,0,0,0,0-0.2s0.3-0.2,0.3-0.2s0,0,0,0.3C-511.6,394.8-511.5,394.7-511.5,394.9L-511.5,394.9z
			 M-511.1,394.3c0.3,0,0.2,0.1,0.2,0.4c0,0.2-0.6,0-0.6,0S-511.4,394.3-511.1,394.3L-511.1,394.3z M-510.7,395.2
			c0.2,0,0.2,0.2,0.2,0.6c0,0.4-0.4,0-0.5-0.2C-511,395.5-510.9,395.1-510.7,395.2L-510.7,395.2z M-509.8,394.5c0.3,0,0,0.3,0,0.4
			c0,0.1-0.4,0-0.5-0.2C-510.4,394.7-510.1,394.4-509.8,394.5L-509.8,394.5z M-520,402.7c0,0.4-0.2,0.2-0.3,0.1c0,0,0-0.7,0.2-0.7
			C-519.8,402.1-520,402.3-520,402.7L-520,402.7z M-520.3,405.2c0,0.5-0.3,1.6-0.8,1.9s-1.9,0-2.4,0c-0.5,0-0.6-0.2-1-0.5
			c-0.4-0.2-0.1-0.6,0-1.1c0.1-0.5,0.8-0.7,1.1-0.9l0.2,0c0,0,0.8-1,1.6-1.6c0.9-0.6,0.6,0.1,1.2,0.8S-520.3,404.7-520.3,405.2
			L-520.3,405.2z M-524.5,408.5c-0.5,0-0.2,0.1-0.6,0.3c-0.4,0.2,0,0-0.8-0.2c-0.8-0.2,0-0.4,0-0.5l0.9-0.3h0.6c0.4,0,0.3,0.1,1,0.3
			S-524,408.5-524.5,408.5L-524.5,408.5z M-526,410.4c0,0.2-0.3-0.1-0.3-0.1l0.4-0.3C-526,409.9-526,410.1-526,410.4L-526,410.4z
			 M-526.7,409c0,0.3,0,0-0.3,0.1c-0.3,0.1-0.2,0-0.2-0.2c0,0,0.2-0.2,0.5-0.2C-526.4,408.6-526.7,408.6-526.7,409L-526.7,409z
			 M-527.2,407.4l0.4,0c0,0,0,0.2-0.1,0.5s-0.2,0.1-0.5-0.1C-527.7,407.7-527.4,407.9-527.2,407.4L-527.2,407.4z M-527.9,407.2
			c-0.3,0.2-0.4,0-0.7-0.6c0,0,0,0,0-0.4c0-0.4,0-0.6,0.1-1c0-0.4,0-0.4,0.5-0.8c0.4-0.3,0.9,1.2,0.9,1.8S-527.7,407-527.9,407.2
			L-527.9,407.2z M-527.4,444c0.4,0.4,0.4,0.6,0.4,1c0,0.3-0.4,1.1-0.8,1.4c-0.4,0.3-0.8,0.3-1.4,0.4c-0.6,0-0.9,0-1.3,0
			s-0.6,0.1-1.1,0.3c-0.5,0.1-1.7,0.8-3.3,0.7c-1.6-0.1-1.6-0.2-2.3-0.3c-0.7-0.1-0.8,0-1.6,0s-1.2,0.1-1.7,0.1
			c-0.6,0-0.3-1-0.2-1.1c0-0.1,0-0.3,0.3-0.5c0.2-0.2,0.6-0.4,0.9-0.6c0,0,0.6-0.2,1-0.3c0.4-0.1,0.5-0.2,0.8-0.3
			c0.3-0.1,0.8,0.1,1.5,0.3c0.8,0.2,1.6,0.5,2.4,0.6c0.7,0.1,1.2,0,1.7,0c0.5,0,0.8-0.8,1.3-1.4c0.5-0.6,0.8-0.7,1.3-1.1
			c0.4-0.4,0.4,0,1.5,0.1C-527,443.5-527.8,443.6-527.4,444L-527.4,444z M-540.4,448.4c0,0-0.2-0.2-0.2-0.4l0.6,0.1L-540.4,448.4
			L-540.4,448.4z M-541.2,448.4c0,0-0.5,0.1-0.9-0.1c-0.4-0.1,0,0,0-0.4c0-0.4,0.6,0,0.9,0L-541.2,448.4L-541.2,448.4z
			 M-541.6,446.6v0.5l-0.5,0.1c0,0-0.1-0.2-0.1-0.3L-541.6,446.6L-541.6,446.6z M-544.1,443.8c-0.8-0.1,0,0-0.5-0.4
			c-0.5-0.4,0-0.5,0.1-0.9c0.1-0.4,0.4-0.4,0.7-0.5c0.3-0.1,0.6-0.2,2-0.4c1.5-0.2,0.4,0,0.9,0.1c0.5,0.1,0.8,0.4,0.9,0.9
			c0.1,0.5-0.9,0.7-1,0.9c-0.1,0.2-0.6,0.3-1,0.4C-541.9,443.7-543.3,443.9-544.1,443.8L-544.1,443.8z M-542.9,448.2l-0.4-0.2
			l0.3-0.3l0.5,0.1L-542.9,448.2L-542.9,448.2z M-545.8,437.1c-0.7-0.1-0.4-0.2-0.3-0.6c0,0,0-1.1-0.1-2c-0.1-0.9-0.3-0.3-0.3-0.6
			c0-0.3,0-1.3,0.3-1.5c0.3-0.2,0.4-0.2,0.9-0.4c0.5-0.1,0.7-0.2,1.2-0.2c0.5,0,0.7,0.7,1.1,1.2c0.4,0.5,0.5,0.9,0.7,1.3
			c0.2,0.4-1.1,2.3-1.5,2.6C-544.2,437.2-545.1,437.2-545.8,437.1L-545.8,437.1z M-545.7,438.5c-0.1,0.2-0.5-0.2-0.5-0.2l0.6-0.4
			l0.5,0C-545,437.9-545.5,438.3-545.7,438.5L-545.7,438.5z M-546.6,437.7c0,0.1-0.4,0.1-0.4,0.1l0-0.2c0,0,0.1-0.3,0.3-0.5
			c0.1-0.1,0.2,0.1,0.2,0.1V437.7L-546.6,437.7z M-544.2,429.3c0,0,0,0.2-0.1,0.5c-0.1,0.3-0.2,0-0.6-0.1c-0.3-0.2,0-0.5,0-0.5
			L-544.2,429.3L-544.2,429.3z M-543.5,428.7c0,0.2-0.2,0.2-0.4,0.2c0,0,0-0.2,0.1-0.5C-543.5,428.2-543.5,428.5-543.5,428.7
			L-543.5,428.7z M-547.9,427.2c-0.6-0.3-0.7-0.1-1.4-0.2c-0.7-0.1-0.5-0.4-1.3-1.3c-0.7-0.9,0-0.9,0.1-1.3c0.1-0.4,0.2-0.4,0.3-1.4
			c0-1,0.4-1.2,0.6-1.1c0.2,0.1,0.6,0.7,1.2,1.4c0.6,0.7,0.8,0.7,1.6,1c0.8,0.3,0.8-0.2,1.4-0.8c0.6-0.6,0.5-1,0.8-2.3
			c0.3-1.3,0.3-1.9,0.3-2.6s0-1.7,0.2-2.8c0.2-1.1,0.8-0.3,1.1-0.1c0.3,0.1,0.3,1.1,0.3,1.7c0,0.6,0,0.8,0.1,1.5
			c0.1,0.7,0.4,1.2,0.9,2.8c0.5,1.5-1.7,3.5-2.3,4.1s-0.4,1.4-0.4,2.2s-0.8,0.8-1,0.6c-0.2-0.2-1-0.6-1.5-0.9
			C-546.7,427.7-547.3,427.5-547.9,427.2L-547.9,427.2z M-548.9,448.4c-0.1,0.4-0.3,0.1-0.8,0.1c-0.5,0,0,0,0-0.4s0.1-0.5,0.6-0.7
			l0.4,0.7C-548.7,448.1-548.7,448.1-548.9,448.4L-548.9,448.4z M-550.1,446.4c0.3-0.1,0.7,0.4,0.7,0.4c-0.2,0.1-0.7,0.1-0.7,0.1
			S-550.3,446.5-550.1,446.4L-550.1,446.4z M-551,427.4c-0.4,0,0-0.3,0-0.5c0,0,0.7,0,0.7,0.4C-550.3,427.8-550.7,427.5-551,427.4
			L-551,427.4z M-550.3,421.2c0.1,0,0.3,0.1,0.3,0.1l-0.1,0.3l-0.2,0l-0.1-0.3C-550.4,421.2-550.4,421.2-550.3,421.2L-550.3,421.2z
			 M-550.1,409.4c0.1-0.3,0.8,0.1,0.9,0.3c0,0-0.1,0.7-0.4,1c-0.3,0.3-0.4,0-0.7-0.5S-550.2,409.7-550.1,409.4L-550.1,409.4z
			 M-549.7,406.9c0.2,0,0.1,0.4,0.1,0.4l-0.4,0.1C-550,407.4-549.9,406.9-549.7,406.9L-549.7,406.9z M-549.8,420.4l0.2-0.3l0.3,0.1
			c0,0-0.2,0.4-0.3,0.4C-549.7,420.6-549.8,420.4-549.8,420.4L-549.8,420.4z M-549.3,420.8c0.2,0,0.1,0.4,0.1,0.4l-0.2,0.3l-0.2-0.2
			C-549.6,421.3-549.5,420.8-549.3,420.8L-549.3,420.8z M-548.6,408.7c0.1-0.1,0.3,0.2,0.4,0.5c0,0.3-0.3,0.2-0.8,0.1
			C-549.1,409.3-548.7,408.8-548.6,408.7L-548.6,408.7z M-548.5,392.5c0,0,0.4-0.3,0.4,0c0,0.3-0.2,0.3-0.5,0.3
			C-548.8,392.7-548.5,392.8-548.5,392.5L-548.5,392.5z M-547.6,417.6c0.1-0.5,0.3-0.3,0.4-0.5c0,0,0.5,0,0.7,0.3
			c0.1,0.3,0,0.6-0.2,0.8c-0.2,0.2-0.2,0.2-1,0.3C-548.4,418.6-547.8,418.1-547.6,417.6L-547.6,417.6z M-547.4,398
			c0,0,0.3-0.1,0.6,0c0.3,0.1,0,0,0,0.1c0,0.1-0.2,0.2-0.4,0.2S-547.4,398-547.4,398L-547.4,398z M-546.8,396.9c0.2,0,0,0,0,0.2
			c0,0.2-0.2,0.1-0.2,0.1s-0.2,0-0.2-0.2C-547.2,397.1-547,396.9-546.8,396.9L-546.8,396.9z M-546.1,396.4c0,0,0,0.2-0.3,0.4
			C-546.3,396.8-546.3,396.4-546.1,396.4L-546.1,396.4z M-545.7,418.4c-0.1,0.4,0,0-0.4-0.1c-0.4-0.1,0,0,0.1-0.3
			C-546,417.9-545.6,418-545.7,418.4L-545.7,418.4z M-545.1,417.6c0,0.1-0.4,0.2-0.4,0.2l-0.2-0.4L-545.1,417.6L-545.1,417.6z
			 M-545.2,415.9c0,0,0.1,0.5,0,1c-0.1,0.5,0,0-0.4,0.1c-0.4,0.1-0.4-0.1-0.4-0.4C-545.9,416.3-545.6,416.2-545.2,415.9
			L-545.2,415.9z M-545.6,392.9c0.3-0.2,0.5-0.1,1,0c0.5,0.1,0.7,0.4,1.1,1c0.4,0.6-1.2,1.3-1.5,1.3c-0.3,0-0.4-0.1-0.5-0.5
			C-545.5,394.8-545.9,393.2-545.6,392.9L-545.6,392.9z M-543.1,415c-0.2,0.3,0,0-0.3-0.3c-0.3-0.3,0-0.2,0.2-0.4
			C-543.2,414.3-542.9,414.7-543.1,415L-543.1,415z M-542.1,414.8c0.3,0,0.2,0.1,0.2,0.4c0,0.3-0.1,0.4-0.3,0.7
			c-0.2,0.3-0.2-0.1-0.2-0.6C-542.4,415.2-542.4,414.8-542.1,414.8L-542.1,414.8z M-541.7,413.3c0,0,0.2,0.2,0.2,0.5
			c0,0.3-0.1,0.3-0.4,0.3c-0.3,0-0.4,0-0.4-0.2S-542.1,413.6-541.7,413.3L-541.7,413.3z M-541.2,412c0.3,0,0.1,0.3,0.1,0.7
			c0,0.4-0.2,0.2-0.4,0C-541.5,412.6-541.5,412-541.2,412L-541.2,412z M-540.3,413.5c0.1,0,0.1,0.2,0.1,0.2s-0.4,0.2-0.7,0
			C-540.8,413.7-540.4,413.5-540.3,413.5L-540.3,413.5z M-538.1,443.9c0,0.2-0.2,0.4-0.6,0.7c-0.4,0.3-0.4,0.1-0.8-0.1
			c0,0,0.4-0.3,0.7-0.4C-538.8,444.1-538.1,443.6-538.1,443.9L-538.1,443.9z M-540.1,410.4c0.1-0.8,0.8-0.5,1.2-0.7l0.2,0
			c0,0,0.4-0.4,1.1-0.7c0.7-0.3,0.3-0.4,1-1.1c0.7-0.7,0.9-0.8,1.6-0.9c0.7-0.1,0.1,0.6,0.2,1.5c0.1,1-1.2,0.9-1.7,0.9
			c-0.5,0-1.1,0.9-1.3,1.5c-0.2,0.5-0.9,1.1-1.6,1.6c-0.7,0.5-0.8-0.4-0.8-0.8C-540.2,411.2-540.2,411.1-540.1,410.4L-540.1,410.4z
			 M-536.8,410.3c0,0,0.1-0.1,0.2-0.2c0.1-0.1,0.2,0,0.5,0c0.2,0,0,0.3-0.3,0.4C-536.7,410.7-536.7,410.5-536.8,410.3L-536.8,410.3z
			 M-534.7,426.2c-0.1,0.6-0.2,0-1-0.1c-0.7-0.1-0.5-0.1-0.8-0.2c-0.3-0.1,0,0,0-0.2c0-0.2,0.7-0.5,0.7-0.5s0.9-0.2,1.1-0.1
			C-534.5,425.2-534.6,425.6-534.7,426.2L-534.7,426.2z M-534.3,409l0.3,0.2c0,0,0,0-0.1,0.3c-0.1,0.3,0,0-0.3-0.2
			C-534.7,409.1-534.4,409.3-534.3,409L-534.3,409z M-533.9,401.6c0,0,0,0.2-0.1,0.5c-0.1,0.3-0.4-0.1-0.4-0.1L-533.9,401.6
			L-533.9,401.6z M-533.7,426.4c0,0-0.2-0.5,0-0.6c0.2-0.1,0.3,0.2,0.3,0.3C-533.3,426.3-533.7,426.4-533.7,426.4L-533.7,426.4z
			 M-533.8,435.7c0.1,0,0.3,0.1,0.3,0.1s-0.4,0.5-0.5,0.5c-0.1,0-0.2-0.2-0.2-0.2S-534,435.7-533.8,435.7L-533.8,435.7z M-534,408.5
			c-0.3,0-0.1-0.2,0-0.5c0,0,0.5,0.1,0.6,0.3C-533.4,408.5-533.7,408.5-534,408.5L-534,408.5z M-533.6,424.1
			c0.1,0.1,0.1,0.3,0.1,0.7c0,0.4-0.3,0.2-0.8,0c0,0-0.1-0.5,0.1-0.8S-533.7,424-533.6,424.1L-533.6,424.1z M-533.1,406.9
			c0.6,0.1,0,0-0.2,0.4s-0.4-0.1-0.4-0.1S-533.7,406.8-533.1,406.9L-533.1,406.9z M-533.6,405.2l0.2-0.1c0,0,0.5-0.3,1.4-0.8
			c0.9-0.5,0,0,0,0.4s0,0.5-0.2,1.2c-0.2,0.6-0.5,0.3-1,0.3C-533.8,406.1-533.7,405.7-533.6,405.2L-533.6,405.2z M-531.8,407.6
			c-0.1,0.4-0.2,0.1-0.7,0c-0.5-0.1,0,0,0.1-0.1c0,0,0.3-0.4,0.7-0.3C-531.3,407.4-531.7,407.2-531.8,407.6L-531.8,407.6z
			 M-531.1,403.1c0.2-0.2,0.4-0.1,0.6,0c0.2,0,0.3,0.4,0.3,0.7c0,0.3-0.2,0.5-0.5,0.6c-0.2,0.1-0.7-0.2-0.8-0.4
			C-531.5,403.9-531.3,403.3-531.1,403.1L-531.1,403.1z M-529,404.3c0,0.6,0,0-0.6,0.3c-0.6,0.3-0.1-0.3-0.1-0.5
			c0,0,0.1-0.1,0.4-0.5S-529,403.7-529,404.3L-529,404.3z M-529.7,406.3c-0.7,0.3-0.2,0-0.3-0.3c0,0-0.1-0.1-0.1-0.4
			c0-0.3,0.2-0.3,0.8-0.7c0.6-0.4,0.4,0.1,0.5,0.5C-528.6,405.7-529,406-529.7,406.3L-529.7,406.3z M-529,433c0.2,0,0,0.2,0,0.5
			c0,0.3-0.4,0-0.5-0.1C-529.5,433.3-529.3,433-529,433L-529,433z M-529.3,432.2c0.3-0.1,0.3,0.1,0.3,0.2c0,0.1-0.2,0.2-0.7,0.1
			C-529.7,432.6-529.6,432.3-529.3,432.2L-529.3,432.2z M-529.2,409.2c-0.1,0.3,0,0-0.1,0c-0.1,0-0.3,0-0.3-0.3l0.5-0.4
			C-529.2,408.5-529,408.8-529.2,409.2L-529.2,409.2z M-529.8,407.7c0,0,0.2-0.3,0.4-0.5c0.2-0.1,0.5,0.4,0.5,0.4s0,0-0.7,1
			C-530.4,409.6-529.9,408-529.8,407.7L-529.8,407.7z M-529.9,434c-0.1,0.2-0.3,0.1-0.3,0.1l0-0.4
			C-530.3,433.7-529.8,433.8-529.9,434L-529.9,434z M-530.9,433c0-0.1,0.5-0.1,0.6-0.4l0.2,0.2l-0.3,0.4c0,0-0.3,0.2-0.4,0.2
			C-530.9,433.4-530.9,433.1-530.9,433L-530.9,433z M-530.8,406.6c0.5-0.2,0.1,0.2,0,0.6c0,0.3-0.3,0.1-0.5,0
			C-531.3,407.2-531.3,406.8-530.8,406.6L-530.8,406.6z M-530.9,405.5c0,0.3-0.2,0.1-0.5,0c0,0,0.2-0.3,0.5-0.2
			C-530.7,405.3-530.9,405.2-530.9,405.5L-530.9,405.5z M-531.7,407.9c0,0,0.8-0.1,1.1,0.2c0.3,0.3,0,0.6-0.1,1.2
			c-0.1,0.6-0.4,0.3-0.8,0c-0.4-0.3-0.2-0.4-0.5-0.7C-532.4,408.3-532.1,408.3-531.7,407.9L-531.7,407.9z M-532.3,411.5
			c0,0,0,0.4-0.2,0.6s-0.2,0-0.2-0.4L-532.3,411.5L-532.3,411.5z M-532.4,410c-0.2,0.2-0.4,0-0.5-0.2c0,0,0.1-0.2,0.3-0.5
			c0.2-0.2,0,0,0.3,0.1C-531.9,409.5-532.2,409.8-532.4,410L-532.4,410z M-528.1,442.2c-0.1,0.7,0,0-0.7-0.2c0,0,0.1-0.7,0.4-0.7
			c0.3,0,0.4,0,0.4,0c0,0,0,0,0,0s0.1,0,0,0C-528,441.4-528,441.7-528.1,442.2L-528.1,442.2z M-527.7,408.3c0.1,0.3-0.4,0.7-0.4,0.7
			s-0.5,0-0.7-0.7l0.3-0.3c0,0,0,0,0.6,0C-527.2,408-527.8,408-527.7,408.3L-527.7,408.3z M-530.2,395.2c0.1-0.4,0.2-0.8,0.3-1.3
			c0.1-1.1,0.8-1.4,1.7-1.7c0.9-0.3,0.6,0.3,1,0.6c0.4,0.3-0.1,1.2-0.4,1.7c-0.3,0.6-1.4,1-1.7,1.2S-530.3,395.6-530.2,395.2
			L-530.2,395.2z M-526,405.1c0.6,0,0.4,0.4,0.3,0.7c-0.1,0.3-0.8,0-1,0c0,0-0.2-0.2-0.2-0.3C-526.9,405.3-526.6,405.1-526,405.1
			L-526,405.1z M-525.5,407.2c-0.1,0.2,0,0.2-0.3,0.2c-0.3,0-0.2-0.5-0.2-0.5s0.5-0.1,0.6,0.1C-525.3,407.1-525.4,406.9-525.5,407.2
			L-525.5,407.2z M-525,404.4c0,0,0.7-0.8,1.3-0.7c0.6,0,0,0-0.2,0.2c-0.2,0.2-0.2,0.3-0.8,0.6C-525.2,404.8-525.1,404.6-525,404.4
			L-525,404.4z M-551.8,426.8c-0.3,0.5-0.5,0-0.5,0s0.3-0.5,0.3-0.6c0,0,0.6-0.5,0.6-0.3C-551.4,426-551.5,426.3-551.8,426.8
			L-551.8,426.8z M-551.7,428.2c0,0.2-0.3,0.1-0.4,0c0,0,0.1-0.3,0.4-0.2C-551.4,428-551.7,427.9-551.7,428.2L-551.7,428.2z
			 M-552.4,427.4l0.4,0.2l-0.3,0.1L-552.4,427.4L-552.4,427.4z M-552.7,429.2c-0.2,0.1-0.2-0.1-0.2-0.1s0-0.3,0.1-0.4
			c0.1-0.1,0.2,0,0.3,0.2C-552.4,429-552.5,429.1-552.7,429.2L-552.7,429.2z M-553.3,427.8c0-0.3-0.3-0.6,0-0.6s0.3-0.3,0.3,0
			c0,0.3,0,0.7,0,0.7C-553,427.9-553.3,428-553.3,427.8L-553.3,427.8z M-553.7,428.7l0.1-0.4l0.3,0.2
			C-553.2,428.5-553.4,428.8-553.7,428.7L-553.7,428.7z M-553.5,429.8c0,0.2-0.3-0.1-0.3-0.1l0.1-0.3h0.2
			C-553.5,429.4-553.5,429.6-553.5,429.8L-553.5,429.8z M-553.5,432.5c0,0.2-0.3,0.1-0.6,0.1c-0.3,0-0.2-0.1-0.2-0.1l0.2-0.4l0.5,0
			V432.5L-553.5,432.5z M-554.2,430.7c0,0,0.3,0.1,0.1,0.4c-0.1,0.2,0,0-0.1,0S-554.2,430.9-554.2,430.7L-554.2,430.7z
			 M-554.5,428.9c0.1-0.1,0.3-0.2,0.3-0.2l-0.1,0.4C-554.3,429.1-554.6,429-554.5,428.9L-554.5,428.9z M-554.6,430.4
			c0,0-0.3,0-0.3-0.3c0-0.4,0.1-0.2,0.1-0.2l0.2,0.2C-554.6,430-554.6,430.2-554.6,430.4L-554.6,430.4z M-553.8,425
			c0-0.1,0.2-0.1,0.3-0.1c0.1,0,0.2,0.5,0.2,0.5l-0.4,0.1C-553.6,425.6-553.8,425.2-553.8,425L-553.8,425z M-483.2,444.8
			c-0.4-0.7-2.3-2.1-1.5-2.4c0.8-0.3,0.9-0.6,1-1.2c0.1-0.5,0.2-1.6,0.1-1.7c-0.1-0.2-0.6-4-0.3-4.5c0.3-0.5,0.5-0.6,0.5-0.9
			c0-0.3,0.1-0.9,0.1-1.5c0-0.6,0.1-0.8,0.1-1.1v-0.9c0-0.3-0.1-1.9,0-2.4c0.1-0.5,0.1-0.6,0.2-1.3c0-0.7,0-0.2,0.2-1.1
			c0.3-0.9,0.8-1.4,0.9-2.3c0.1-0.9,0.3-1.5,0.3-1.9c0-0.3,0,0,0-0.8v-1c0-0.4,0.2-4.7,0.1-5.3c-0.1-0.5-0.1-0.7-0.2-1.1
			c-0.1-0.4-0.2-0.8-0.2-1.6c0-0.8,0.1-1.5,0.3-2.1c0.1-0.6,0.2-1,0.2-1.7s-0.4-2.8-0.5-4c-0.1-1.3,0.5-3.3,0.5-4.1v-2.1
			c0-0.2-0.2-1-0.1-1.7c0-0.7,0.1-1.7,0.1-2.2c0-0.5,0-2.3-1.2-3.1c-1.3-0.8-2.6-1-2.9-0.9c-0.3,0-0.7,0.2-1.2,0
			c-0.4-0.1-1-0.1-1.3-0.3c-0.3-0.2-1.3-0.7-2.1-0.6c-0.8,0-2.4,0.4-2.8,0.7c-0.4,0.3-2.3,0.2-2.8,0.1c-0.5-0.1-1.5-0.6-2.3-1
			c-0.9-0.3-1.3-0.4-1.7-0.4s-1.6,0.2-4.2,0.2s-7.2-0.2-8.6-0.2c-1.5,0-2.6,0.1-4.3,0c-1.6-0.1-2.8-0.2-3.5-0.2
			c-0.7,0-1.7,0.2-2.6,0.2c-0.9,0-1.9,0.1-2.9,0c-1,0-2.1-0.3-3-0.2c-0.8,0.1-0.7,0.2-1.6,0.3c-0.9,0-2.6-0.2-3.1-0.2
			c-0.5,0-0.3-0.1-1.2,0.2c-0.9,0.3-0.6,0.4-1.4,0.6c-0.7,0.2-0.7,0.3-1.5,0.3c-0.8,0-0.8,0-1.5,0s-0.6,0-1.4,0.1
			c-0.8,0.1-2.6-0.2-3.3-0.5c-0.7-0.2-1.9-0.4-3.2-0.4c-1.3,0-3.2-0.1-3.8-0.1c-0.5,0-2.3,0.3-3.2,1.5c-0.9,1.2-1.3,3.5-1.6,4.7
			c-0.3,1.2-0.4,2.2-0.4,2.7c0,0.5,0.6,1.5,0.5,4.3c0,2.8-0.2,4-0.3,4.5c0,0.5-0.1,5.1,0,5.6c0,0.5,0.3,0.5,0.3,1.2s0.2,2.7-0.3,3.5
			c-0.5,0.8-0.2,2.4-0.2,2.5c0,0.1,0.2,1,0.2,1.2c0,0.2-0.1,3.5-0.1,3.5s-0.2,0.3-0.2,0.6c0,0.3,0,1.5,0,1.7c0,0.1,0.2,0.5,0.2,0.5
			v2.4c0,0,0.5,0.9,0.5,1.5v1.7c0,0.8,0,1.4,0.1,1.5c0.1,0.2,0,0.3,0.5,0.3c0.4,0,0.7,0.3,0.7-0.1c0-0.4,0-0.6,0.1-0.9
			c0.1-0.3,0.6-0.6,0.9-0.4c0.3,0.2,0.7,0.7,0.6,1.2c0,0.4-0.5,0.8-0.7,1c-0.2,0.2-0.4,0.2-0.3,0.7c0.1,0.5,0.2,1.4,0.2,1.8
			c0,0.5-0.3,1.9-0.5,2.1c-0.2,0.2-0.2,0.2,0.3,0.4c0.5,0.2,1.4,0.6,0.1,0.5c-1.2-0.1-0.8,0-1.2-0.1c-0.4-0.1,0-0.2-0.4-0.1
			c-0.4,0.1-0.6-0.1-0.7,0.5c-0.1,0.6-0.3,0.8-0.3,1.2s0,0.6,0,0.9c0,0.3,0.2,2,0.2,2.4c0,0.4,0.2,1.7,0.2,2.4c0,0.7-0.1,0.7,0,1
			c0,0.3,1.5,1.3,1.9,1.6c0.5,0.3,1.4,0.9,1.7,1.2c0.4,0.2,0.6,0.3,0.5,0.7c-0.1,0.4-0.5,0.4-0.2,0.7c0.2,0.3,1.5,0.5,2.1,0.6
			c0.6,0.1,1,0.1,1.6-0.1c0.6-0.2,0.8-0.3,0.9-0.5c0.1-0.2,0.3,0,0.3-0.6c0-0.5,0.1-0.5-0.1-0.8c-0.2-0.3-0.3-0.3-0.5-0.4
			c-0.1-0.1-1-0.4-0.7-1c0.2-0.6,0-0.7,0.5-0.8c0.5-0.1,0.2-0.3,1-0.2c0.8,0.1,0.7-0.2,1.6,0.1c1,0.3,1,0.2,1.8,0.4
			c0.9,0.1,1-0.2,1.5,0.2c0.5,0.4-0.6,0.1,0.9,0.7c1.5,0.6,1.3,0.4,2.1,0.9s0.4-0.1,0.8,0.2c0.3,0.2,1-0.2,1.5-0.2
			c0.4,0,0.7,0,1.2-0.1c0.5,0,0.5-0.1,0.9-0.1c0.3,0,0.4,0.1,0.9,0c0.5-0.1,0.2-0.2,0.9-0.2h1.2c0.4,0,1-0.3,1.7-0.3
			c0.7,0,0.8-0.2,1.1-0.1c0.2,0.1,0,0.1,0.9,0.1c0.8,0,0.9,0,1.5,0c0.6,0,0.9,0,1.4,0c0.5,0,0.2,0,0.8,0c0.6,0,0.4,0,1,0
			s1.6-0.1,2-0.1c0.4,0,1.2,0.1,1.6-0.1c0.4-0.3,1-0.2,1-1.4c0-1.1-0.6-1.7,0-2.4c0.6-0.7,1-1.7,0.9-2.4c-0.1-0.7,0-0.4-0.1-1.2
			c-0.1-0.8-0.2-1.3-0.2-1.6c0-0.3,0-0.6,0-2c0-1.4,0.2-4.5,0.2-5.3v-3c0-0.3,0,0,0-0.7c0-0.7-0.6-1.7-0.8-1.8
			c-0.1,0-0.2-0.3-0.8-0.4c-0.6,0-0.9-0.1-1.1,0c-0.2,0.1-1,0.1-1.4,0.2c-0.4,0.1-0.7,0.1-1.5,0.1s-1.8-0.1-2.1-0.1
			c-0.2,0-0.4,0-0.6-0.1c-0.2-0.1-1-0.4-1.3-0.7c-0.2-0.2-0.6-0.5-0.7-1c0-0.4,0.2-3.3,0.3-4c0.1-0.6,0-2.3,0-3
			c0-0.6,1.3-1.7,1.4-1.8c0.1-0.1,0.5-0.3,1.3-0.3c0.7,0,2,0.1,2.6,0.1c0.5,0,0.4,0,1.4,0c1,0,1,0.1,1.3,0c0.2,0,1.5-0.3,1.5-0.5
			c0-0.2,0.1-0.2,0.1-0.7c0-0.4,0-0.6,0-1c0-0.4-0.1-0.6-0.1-1.1v-2.6c0,0,0.9-1.4,1-2.1c0.1-0.7,0.1-0.6,0.2-1.4
			c0.1-0.8,1.8-4.4,2.3-4.8c0.5-0.4,0.7-0.7,1-1.1c0.3-0.4,1.4-1.8,2.5-2c1.1-0.2,2.8-0.6,3.4-0.7c0.6-0.1,0.9-0.2,1.5-0.2
			c0.7,0,5.6-0.6,6.7-0.6c1.1,0,1.7,0.1,2.4,0c0.6-0.1,2.5-0.1,3.1,0.9c0.6,1,0.7,2.6,0.8,3.7c0,1.1-0.1,2.6-0.5,3.1
			c-0.4,0.5-1.7,1.3-2.2,1.3c-0.4,0-0.8,0.1-1.5,0c-0.7,0-1.6,0-1.9,0c-0.3,0-1.9,0.3-2.5,0.8s-1.6,0.9-2.3,1.8
			c-0.7,1-1.1,1.5-1.2,3.4c-0.1,1.9,0.4,2.9,0.4,3.4c0,0.5,0.4,1.1,1.2,1.3c0.8,0.1,3.6,0,4.3-0.2c0.7-0.1,1.3-0.4,1.9-0.4
			c0.6,0,1.5-0.4,2.1,0.2c0.6,0.7,1.3,1.5,1.5,3.3c0.2,1.8,0.4,4,0.2,4.6c-0.1,0.6-0.2,1.1-0.5,1.4c-0.3,0.3-0.5,0.6-1.5,0.6
			c-1,0-5.1,0.2-5.8,0.1c-0.7,0-1.8-0.1-2.3,0.3s-0.3,1.3-0.3,1.8s0.6,2.8,0.6,4.1c0,1.4-0.3,2.5-0.4,3.2c-0.1,0.7,0,2.6,0.1,3.6
			c0,1.1,0.3,2.4,0.2,2.7c0,0.3,0.1,1.8,0.1,2.2c0,0.4,0,0.8,0,1.3c0,0.5-0.6,3.3-0.7,3.8c-0.1,0.5-0.7,1.5-0.1,2.1
			c0.6,0.5,2.3,1.2,5.1,1.4c2.9,0.1,9.7-0.1,10.6-0.2c0.9-0.1,3.7-0.2,3.8-1.3c0-1.1,0.4-2.1,0.9-2.6c0.5-0.5,2.6-1.1,2.5-2.8
			C-481.1,445.9-482.9,445.4-483.2,444.8L-483.2,444.8z"/>
		<path id="Fill-8" sketch:type="MSShapeGroup" class="st0" d="M-497.3,433.4c-0.3,0.1-0.6,0.9-0.6,0.9c0,0.5-0.2,1,0.2,0.9
			c0.4-0.1,0.5-0.3,0.7-0.7C-496.8,434-497,433.2-497.3,433.4"/>
		<path id="Fill-9" sketch:type="MSShapeGroup" class="st0" d="M-497.8,436.7c0.1,0.2,0.5,0.1,0.5,0.1l-0.1-0.6L-497.8,436.7"/>
	</g>
</g>
</svg>
