<?xml version="1.0" encoding="UTF-8" standalone="no"?>
<svg width="77px" height="70px" viewBox="0 0 77 70" version="1.1" xmlns="http://www.w3.org/2000/svg" xmlns:xlink="http://www.w3.org/1999/xlink" xmlns:sketch="http://www.bohemiancoding.com/sketch/ns">
    <!-- Generator: Sketch 3.3.3 (12081) - http://www.bohemiancoding.com/sketch -->
    <title>instagram-icon</title>
    <desc>Created with Sketch.</desc>
    <defs></defs>
    <g id="Page-1" stroke="none" stroke-width="1" fill="none" fill-rule="evenodd" sketch:type="MSPage">
        <g id="instagram-icon" sketch:type="MSLayerGroup" fill="#FFFFFF">
            <path d="M72.981,33.824 C72.399,34.478 72.254,33.17 72.254,32.444 C72.254,30.41 73.235,30.918 73.453,31.281 C73.671,31.645 73.671,31.681 73.852,32.081 C74.034,32.48 73.562,33.17 72.981,33.824 L72.981,33.824 Z M73.38,34.187 C73.416,34.405 73.38,34.187 73.235,34.514 C73.089,34.841 73.089,34.478 73.053,34.332 C73.053,34.332 73.017,34.114 73.344,33.969 C73.671,33.824 73.344,33.969 73.38,34.187 L73.38,34.187 Z M73.017,35.24 C73.017,35.386 72.944,35.422 72.69,35.349 C72.436,35.277 72.69,35.349 72.617,35.24 C72.545,35.131 72.69,35.059 72.799,34.914 L73.017,35.095 C73.017,35.095 73.017,35.095 73.017,35.24 L73.017,35.24 Z M72.508,34.514 C72.508,34.514 72.508,34.514 72.363,34.514 C72.218,34.514 72.363,34.514 72.145,34.441 C71.927,34.369 72.145,34.441 72.218,34.187 C72.29,33.933 72.508,34.151 72.508,34.151 L72.508,34.514 L72.508,34.514 Z M61.467,35.168 C61.503,34.768 62.193,34.805 62.411,34.696 C62.629,34.587 62.665,34.732 62.665,34.732 C62.665,34.732 62.556,35.24 62.302,35.386 C62.048,35.531 61.467,35.168 61.467,35.168 L61.467,35.168 Z M60.341,35.168 C60.341,35.168 60.668,35.023 60.777,35.059 C60.886,35.095 60.922,35.24 60.813,35.422 C60.704,35.604 60.813,35.422 60.559,35.422 C60.305,35.422 60.341,35.349 60.341,35.168 L60.341,35.168 Z M69.821,44.43 L69.821,45.083 C69.821,45.301 69.821,45.374 69.748,45.592 C69.675,45.81 69.639,46.318 69.53,46.645 C69.421,46.972 69.094,47.481 69.058,47.953 C69.022,48.425 68.949,50.713 68.949,51.222 C68.949,51.73 69.022,51.548 69.058,51.912 C69.094,52.275 69.058,53.582 69.058,53.982 L69.058,55.108 C69.058,55.362 68.295,58.159 68.223,58.413 C68.15,58.667 68.186,59.212 68.186,59.212 C68.186,59.212 68.186,59.394 68.077,60.52 C67.968,61.646 67.859,61.101 67.75,61.319 C67.641,61.537 64.917,62.009 64.409,62.045 C63.9,62.081 64.191,62.081 62.883,62.045 C61.576,62.009 62.52,62.045 62.193,62.045 C61.866,62.045 61.757,62.045 61.394,61.936 C61.031,61.827 59.687,61.428 59.251,61.246 C58.815,61.065 58.815,61.101 58.489,61.101 C58.162,61.101 57.363,61.319 57.254,61.319 C57.145,61.319 56.019,61.755 55.583,61.827 C55.147,61.9 54.856,62.009 54.384,62.045 C53.912,62.081 53.694,62.009 53.149,61.864 C52.605,61.718 52.023,61.682 52.023,61.682 C52.023,61.682 50.462,61.9 50.316,61.9 C50.171,61.9 50.026,61.864 49.336,61.755 C48.646,61.646 48.028,61.682 47.701,61.573 C47.374,61.464 47.338,61.573 46.902,61.573 L45.667,61.573 C45.304,61.573 40.183,61.936 39.311,62.009 C38.439,62.081 36.66,61.936 35.97,61.936 C35.28,61.936 34.698,62.19 34.698,62.19 C34.698,62.19 30.594,62.336 30.376,62.336 C30.158,62.336 29.94,62.336 29.831,62.263 C29.722,62.19 29.541,62.154 29.25,62.009 C28.96,61.864 29.032,62.154 29.032,62.154 C29.032,62.154 28.814,62.336 28.633,62.372 C28.451,62.408 27.471,62.663 27.471,62.663 L21.732,62.808 C21.732,62.808 21.732,62.808 21.587,62.844 C21.441,62.881 21.26,63.098 21.005,63.026 C20.751,62.953 20.497,62.699 20.315,62.481 C20.134,62.263 20.315,62.481 19.916,62.481 C19.516,62.481 19.553,62.735 19.553,62.735 C19.553,62.735 16.139,62.626 15.993,62.59 C15.848,62.554 15.993,62.59 15.848,62.517 C15.703,62.445 15.521,62.445 15.23,62.372 C14.94,62.299 14.722,62.372 14.504,62.372 C14.286,62.372 13.959,62.59 13.959,62.59 C13.959,62.59 12.361,62.626 11.925,62.626 C11.489,62.626 11.453,62.626 11.199,62.663 C10.945,62.699 10.945,62.844 10.654,63.062 C10.364,63.28 10.472,63.207 10.291,63.534 C10.109,63.861 10.291,63.788 10.291,64.297 C10.291,64.806 10.037,64.442 9.564,64.333 C9.092,64.224 9.201,64.333 8.874,64.188 C8.547,64.043 8.838,63.934 8.874,63.68 C8.911,63.425 9.129,63.498 9.274,63.498 C9.419,63.498 9.564,63.498 9.819,63.353 C10.073,63.207 10.218,63.171 10.291,62.99 C10.364,62.808 10.146,62.408 10,62.227 C9.855,62.045 9.564,61.5 9.564,61.5 C9.564,61.5 9.129,61.173 9.092,61.028 C9.056,60.883 7.894,59.357 7.748,59.139 C7.603,58.922 7.676,57.505 7.676,57.251 C7.676,56.997 7.748,57.069 7.748,56.706 C7.748,56.343 7.894,55.871 8.003,54.999 C8.112,54.127 7.313,53.582 7.276,53.473 C7.24,53.364 7.276,53.11 7.276,52.638 C7.276,52.166 7.276,51.912 7.313,51.73 C7.349,51.548 7.603,49.805 7.603,49.805 C7.603,49.805 7.712,49.551 7.821,49.333 C7.93,49.115 7.821,49.115 7.821,48.933 C7.821,48.752 7.567,48.643 7.567,48.643 C7.567,48.643 7.276,47.19 7.276,47.045 C7.276,46.899 6.949,46.137 6.913,45.882 C6.877,45.628 6.949,44.72 6.949,44.72 C6.949,44.72 7.24,44.066 7.313,43.739 C7.385,43.413 7.567,41.887 7.567,41.887 C7.567,41.887 7.676,41.451 7.676,41.27 C7.676,41.088 7.567,40.689 7.567,40.689 L7.276,38.328 C7.276,38.328 6.913,35.422 6.913,34.696 L6.913,32.081 C6.913,32.081 7.095,31.281 7.167,31.136 C7.24,30.991 8.257,30.156 8.366,30.047 C8.475,29.938 8.838,29.756 9.238,29.72 C9.637,29.683 9.637,29.72 9.855,29.72 L10.618,29.72 C10.872,29.72 11.054,29.611 11.199,29.611 C11.344,29.611 12.034,29.429 12.216,29.393 C12.397,29.356 13.197,29.284 13.378,29.211 C13.56,29.139 13.814,29.139 13.996,29.139 L15.085,29.139 C15.303,29.139 15.775,29.356 15.957,29.465 C16.139,29.574 16.429,29.829 16.538,29.901 C16.647,29.974 17.373,31.463 17.373,31.463 L17.264,32.335 L16.756,33.388 L16.429,34.042 C16.429,34.042 16.139,34.587 16.139,34.696 C16.139,34.805 16.247,36.294 16.247,36.294 L16.393,36.875 C16.393,36.875 16.938,39.09 17.083,39.308 C17.228,39.526 17.192,39.672 17.192,39.817 C17.192,39.962 17.228,40.289 17.228,40.289 C17.228,40.289 17.555,40.87 17.628,40.979 C17.7,41.088 18.972,43.739 18.972,43.739 L19.553,44.793 C19.553,44.793 19.698,45.374 19.698,45.519 C19.698,45.664 19.88,45.955 19.88,46.064 C19.88,46.173 21.369,47.589 21.369,47.589 C21.369,47.589 24.02,50.423 24.529,50.822 C25.037,51.222 25.328,51.585 25.4,51.73 C25.473,51.875 26.635,52.311 26.635,52.311 C26.635,52.311 27.471,53.256 27.471,53.364 C27.471,53.473 28.342,53.546 28.56,53.728 C28.778,53.909 28.56,53.728 28.742,53.8 C28.923,53.873 29.069,53.873 29.069,53.873 L29.396,53.909 C29.396,53.909 29.722,53.982 29.904,54.127 C30.086,54.273 30.376,54.236 30.485,54.309 C30.594,54.381 31.321,54.708 31.539,54.89 C31.756,55.072 33.536,55.725 33.536,55.725 C33.536,55.725 33.936,55.834 34.226,55.834 L36.769,55.834 C37.422,55.834 37.677,55.871 38.185,56.016 C38.694,56.161 38.439,56.089 38.621,56.089 C38.803,56.089 39.711,55.98 39.892,55.98 L40.982,55.98 C41.309,55.98 42.217,55.98 42.653,55.943 C43.089,55.907 43.306,55.798 43.524,55.689 C43.742,55.58 44.578,55.471 44.723,55.435 C44.868,55.398 46.975,54.055 46.975,54.055 C46.975,54.055 47.774,53.837 47.919,53.837 C48.064,53.837 49.19,53.074 49.481,52.892 C49.772,52.711 50.825,51.948 50.97,51.766 C51.115,51.585 52.023,50.967 52.132,50.822 C52.241,50.677 52.532,50.459 52.786,50.277 C53.04,50.096 53.367,49.841 53.44,49.696 C53.513,49.551 54.602,49.006 54.711,48.861 C54.82,48.715 57.472,47.045 57.472,47.045 C57.472,47.045 57.762,46.863 57.944,46.718 C58.125,46.573 58.198,46.427 58.416,45.882 C58.634,45.338 58.67,45.083 58.67,45.083 C58.67,45.083 59.76,42.25 59.905,42.032 C60.05,41.814 60.631,41.015 60.813,40.834 C60.995,40.652 61.394,39.817 61.394,39.599 C61.394,39.381 61.975,37.492 62.012,37.347 C62.048,37.202 62.738,35.713 62.847,35.458 C62.956,35.204 63.029,34.187 63.029,34.006 C63.029,33.824 62.992,33.533 62.774,33.315 C62.556,33.097 62.375,33.388 62.266,33.424 C62.157,33.461 62.193,33.642 62.084,33.897 C61.975,34.151 61.757,34.26 61.431,34.441 C61.104,34.623 60.995,34.55 60.777,34.623 C60.559,34.696 60.196,34.187 60.196,34.187 C60.196,34.187 59.941,33.751 59.832,33.243 C59.723,32.734 59.832,32.88 59.869,32.516 C59.905,32.153 59.978,32.262 60.087,31.899 C60.196,31.536 60.196,31.608 60.305,31.39 C60.414,31.172 60.595,31.1 60.922,31.1 C61.249,31.1 61.431,31.281 61.648,31.39 C61.866,31.499 61.975,31.645 62.121,31.935 C62.266,32.226 62.266,32.553 62.411,32.771 C62.556,32.989 62.811,33.061 62.811,33.061 C62.811,33.061 62.992,32.807 62.992,32.553 C62.992,32.298 62.956,31.645 63.029,31.463 C63.101,31.281 63.029,30.955 63.101,30.664 C63.174,30.373 63.319,30.41 63.464,30.264 C63.61,30.119 64.009,30.01 64.155,29.865 C64.3,29.72 64.699,29.32 64.808,29.211 C64.917,29.102 65.317,28.921 66.007,28.884 C66.697,28.848 68.186,29.502 68.331,29.756 C68.477,30.01 68.549,30.264 68.658,30.7 C68.767,31.136 68.731,31.281 68.767,31.645 C68.804,32.008 68.586,32.262 68.586,32.553 C68.586,32.843 68.658,34.914 68.658,35.277 C68.658,35.64 68.767,35.64 68.876,35.822 C68.985,36.003 68.949,38.291 68.949,38.291 C68.949,38.291 68.913,39.09 68.913,39.49 C68.913,39.889 69.022,40.362 69.022,40.543 C69.022,40.725 69.094,40.979 69.203,41.306 C69.312,41.633 69.494,41.851 69.494,41.851 C69.494,41.851 69.748,42.94 69.821,43.086 C69.893,43.231 69.821,44.43 69.821,44.43 L69.821,44.43 Z M8.475,63.244 C8.439,63.353 8.221,63.353 8.075,63.316 L7.93,63.171 C7.93,63.171 7.93,63.171 8.003,63.062 C8.075,62.953 8.293,62.917 8.475,62.99 C8.656,63.062 8.511,63.135 8.475,63.244 L8.475,63.244 Z M6.84,63.861 C6.586,64.043 6.586,63.861 6.187,63.788 C5.787,63.716 6.078,63.534 6.187,63.28 C6.296,63.026 6.768,63.244 6.949,63.498 C6.949,63.498 7.095,63.68 6.84,63.861 L6.84,63.861 Z M7.894,20.785 C8.402,20.022 9.238,20.458 9.347,20.676 C9.455,20.894 9.637,21.039 10.109,21.62 C10.581,22.201 10.727,22.637 10.472,23.69 C10.218,24.744 8.874,24.671 8.584,24.417 C8.293,24.163 7.53,23.218 7.422,22.601 C7.313,21.983 7.406,21.516 7.894,20.785 L7.894,20.785 Z M18.899,17.189 C20.352,16.862 19.771,16.354 20.606,15.736 C21.441,15.119 22.785,15.409 23.584,16.027 C24.383,16.644 22.251,17.667 21.478,17.734 C19.807,17.879 19.771,18.932 18.645,20.058 C17.519,21.184 16.175,19.55 16.211,18.533 C16.247,17.516 17.446,17.516 18.899,17.189 L18.899,17.189 Z M17.337,9.344 C17.446,9.017 17.628,9.198 18.027,9.198 C18.027,9.198 18.027,9.525 17.991,9.78 C17.955,10.034 17.882,9.925 17.555,10.143 C17.228,10.361 17.41,10.106 17.228,9.925 C17.047,9.743 17.228,9.671 17.337,9.344 L17.337,9.344 Z M22.059,7.709 L22.458,7.709 C22.458,7.709 22.458,7.709 22.495,7.818 L22.567,8.036 C22.567,8.036 22.567,8.036 22.059,7.927 C21.55,7.818 22.059,7.709 22.059,7.709 L22.059,7.709 Z M22.313,6.874 C22.422,6.801 22.495,6.765 22.604,6.765 C22.713,6.765 22.567,6.474 22.713,6.765 C22.858,7.055 22.822,7.237 22.822,7.237 L22.495,7.346 C22.422,7.237 22.204,6.946 22.313,6.874 L22.313,6.874 Z M23.257,7.528 L23.584,7.273 C23.584,7.273 23.584,7.273 23.766,7.891 C23.947,8.508 23.621,8 23.33,8 C23.039,8 23.257,7.637 23.257,7.528 L23.257,7.528 Z M24.093,8.835 C24.093,8.835 24.093,8.835 24.093,8.944 C24.093,9.053 24.093,9.162 24.056,9.307 C24.02,9.453 23.621,9.162 23.366,8.871 C23.366,8.871 23.693,8.726 23.875,8.726 C24.056,8.726 24.093,8.835 24.093,8.835 L24.093,8.835 Z M25.4,9.453 C25.945,9.453 25.909,9.598 27.507,9.707 C29.105,9.816 27.943,9.997 27.616,10.324 C27.289,10.651 26.345,11.087 25.836,11.087 C25.836,11.087 24.529,11.087 24.202,10.397 C23.875,9.707 24.855,9.453 25.4,9.453 L25.4,9.453 Z M25.909,4.404 C25.909,4.404 26.345,4.368 26.599,4.44 C26.853,4.513 26.744,4.549 26.889,4.695 C27.035,4.84 26.744,4.913 26.345,4.949 C25.945,4.985 26.054,4.949 25.872,4.913 C25.691,4.876 25.872,4.695 25.909,4.404 L25.909,4.404 Z M28.742,17.262 C28.742,17.262 28.778,17.371 28.56,17.371 C28.342,17.371 28.161,17.334 28.161,17.334 L28.161,17.116 L28.306,17.116 C28.415,17.116 28.742,17.262 28.742,17.262 L28.742,17.262 Z M23.947,21.475 C24.093,21.402 24.202,21.33 24.311,21.293 C24.311,21.293 24.42,21.475 24.42,21.62 C24.42,21.765 24.238,21.765 24.238,21.765 C24.238,21.765 23.875,21.802 23.802,21.547 C23.73,21.293 23.802,21.547 23.947,21.475 L23.947,21.475 Z M25.546,15.01 C25.546,15.01 24.492,15.119 24.274,14.973 C24.056,14.828 24.238,14.828 24.855,13.811 C25.473,12.794 25.328,13.557 25.981,13.448 C26.635,13.339 26.526,13.63 26.962,14.029 C27.398,14.429 26.308,14.828 25.546,15.01 L25.546,15.01 Z M25.764,18.133 C25.945,17.225 26.962,17.48 27.398,17.48 C27.834,17.48 27.844,17.467 28.306,17.589 C28.996,17.77 28.451,18.606 28.197,18.823 C27.943,19.041 27.834,19.259 27.035,19.622 C26.236,19.986 25.582,19.041 25.764,18.133 L25.764,18.133 Z M25.4,19.368 L25.473,19.041 C25.473,19.041 25.473,19.041 25.655,19.15 C25.836,19.259 25.655,19.15 25.655,19.259 C25.655,19.368 25.582,19.477 25.582,19.477 L25.4,19.368 L25.4,19.368 Z M25.364,20.204 C25.146,20.131 25.291,19.986 25.328,19.768 L25.909,19.804 C25.909,19.804 25.909,20.058 25.836,20.24 C25.764,20.422 25.582,20.276 25.364,20.204 L25.364,20.204 Z M25.764,20.894 C25.8,21.039 25.546,21.656 25.182,21.802 C24.819,21.947 24.928,21.765 24.783,21.584 C24.638,21.402 24.674,21.366 24.638,21.112 C24.601,20.857 24.638,20.93 24.638,20.712 C24.638,20.494 24.71,20.458 25.4,20.458 C26.09,20.458 25.727,20.748 25.727,20.748 C25.727,20.748 25.727,20.748 25.764,20.894 L25.764,20.894 Z M23.802,15.627 C23.766,15.409 23.802,15.627 23.802,15.409 C23.802,15.191 24.165,15.446 24.274,15.446 L24.311,15.809 C24.311,15.809 24.093,15.918 23.839,15.845 C23.584,15.772 23.839,15.845 23.802,15.627 L23.802,15.627 Z M23.354,44.224 C23.403,43.691 23.209,43.158 23.693,43.4 C24.177,43.643 23.839,43.497 24.517,44.03 C25.194,44.563 25.049,44.078 25.63,44.902 C26.211,45.725 26.26,45.434 26.405,45.87 C26.55,46.306 26.018,47.178 26.018,47.178 C25.679,47.226 25.388,47.226 25.049,46.887 C24.71,46.548 25.049,46.548 24.565,45.919 C24.081,45.289 23.935,45.241 23.693,44.853 C23.451,44.466 23.306,44.756 23.354,44.224 L23.354,44.224 Z M22.24,28.303 C22.022,28.594 22.24,28.303 21.986,28.158 C21.732,28.013 21.986,28.158 22.022,27.795 C22.022,27.795 22.022,27.613 22.168,27.431 C22.313,27.25 22.349,27.613 22.349,27.613 C22.349,27.613 22.458,28.013 22.24,28.303 L22.24,28.303 Z M22.713,43.848 C22.458,43.667 22.422,43.631 22.422,43.485 C22.422,43.34 22.313,43.195 22.495,43.122 C22.676,43.049 22.93,43.413 22.93,43.413 C22.93,43.631 22.967,44.03 22.713,43.848 L22.713,43.848 Z M22.713,42.468 L22.458,42.323 C22.458,42.323 22.531,42.141 22.894,42.032 C23.257,41.923 22.894,42.032 23.039,42.105 C23.185,42.178 23.039,42.323 22.967,42.541 C22.894,42.759 22.713,42.468 22.713,42.468 L22.713,42.468 Z M22.967,27.141 C22.64,27.795 22.24,26.959 22.168,26.124 C22.095,25.289 20.824,24.962 20.606,23.981 C20.388,23 20.533,22.746 21.223,22.201 C21.914,21.656 22.713,21.947 22.967,21.947 C22.967,21.947 23.548,22.274 23.548,22.746 C23.548,23.218 23.439,23.581 23.185,24.308 C22.93,25.034 23.294,26.487 22.967,27.141 L22.967,27.141 Z M25.969,47.807 C25.776,47.565 25.969,47.807 26.163,47.662 C26.163,47.662 26.599,47.614 26.454,47.953 C26.308,48.292 26.454,47.953 26.163,48.05 C25.872,48.146 26.163,48.05 25.969,47.807 L25.969,47.807 Z M27.228,48.195 C27.228,48.195 27.228,48.195 27.228,48.485 C27.228,48.776 27.132,48.728 26.938,48.728 C26.744,48.728 26.841,48.389 26.841,48.195 L27.228,48.195 L27.228,48.195 Z M27.132,47.565 C26.841,47.614 27.132,47.565 26.841,47.323 C26.55,47.081 26.841,47.323 26.938,47.033 C26.938,47.033 27.325,46.984 27.422,47.517 C27.519,48.05 27.422,47.517 27.132,47.565 L27.132,47.565 Z M27.834,46.972 C27.834,46.972 28.052,47.008 28.488,47.263 C28.923,47.517 28.633,47.444 28.56,47.626 C28.488,47.807 28.233,47.735 28.052,47.553 L27.834,46.972 L27.834,46.972 Z M28.294,48.292 C28.633,48.389 28.778,48.485 29.117,48.776 C29.117,48.776 29.456,49.599 29.456,50.132 C29.456,50.665 29.456,50.423 29.408,50.761 C29.359,51.1 28.584,50.955 28.245,50.81 C27.906,50.665 27.761,50.229 27.713,49.648 C27.664,49.067 27.761,49.26 27.761,48.728 C27.761,48.195 27.955,48.195 28.294,48.292 L28.294,48.292 Z M33.209,53.837 C33.209,54.055 33.137,54.018 32.81,54.091 C32.483,54.164 32.555,53.909 32.555,53.691 L32.955,53.51 C32.955,53.51 32.955,53.51 33.209,53.619 C33.464,53.728 33.209,53.619 33.209,53.837 L33.209,53.837 Z M45.377,51.222 C45.34,51.766 45.377,51.875 45.159,51.875 C44.941,51.875 45.014,51.984 44.796,51.875 C44.578,51.766 44.614,52.202 44.578,51.766 C44.541,51.331 44.469,51.294 44.796,51.149 C45.122,51.004 45.377,51.222 45.377,51.222 L45.377,51.222 Z M47.629,50.168 C47.556,50.423 47.447,50.677 46.939,51.076 C46.43,51.476 46.321,51.439 45.849,51.331 C45.377,51.222 45.776,50.858 45.922,50.604 C45.922,50.604 46.539,50.023 47.011,49.732 C47.483,49.442 47.229,49.623 47.629,49.696 C48.028,49.769 47.701,49.914 47.629,50.168 L47.629,50.168 Z M30.522,23.908 C31.466,23.182 34.117,21.838 34.844,21.547 C35.57,21.257 36.551,21.003 36.769,20.894 C36.987,20.785 38.076,20.748 38.331,20.603 C38.585,20.458 38.766,20.313 39.057,19.877 C39.347,19.441 39.202,19.622 39.275,19.259 C39.347,18.896 39.384,18.823 39.529,18.46 C39.674,18.097 39.856,18.097 40.074,17.952 C40.292,17.806 40.619,17.661 40.8,17.552 C40.982,17.443 41.418,17.443 41.817,17.443 C42.217,17.443 42.507,17.552 42.762,17.697 C43.016,17.843 43.052,19.296 43.052,19.405 C43.052,19.514 43.089,19.695 43.161,19.877 C43.234,20.058 43.343,20.058 43.597,20.24 C43.851,20.422 43.997,20.458 44.396,20.676 C44.796,20.894 46.575,20.93 47.265,21.148 C47.956,21.366 48.537,22.891 48.646,23.109 C48.755,23.327 49.19,23.727 49.408,24.054 C49.626,24.381 50.752,25.506 51.188,26.596 C51.624,27.686 52.169,27.431 52.35,27.649 C52.532,27.867 52.895,28.448 53.04,28.848 C53.186,29.248 53.113,29.974 53.149,30.301 C53.186,30.628 53.222,33.315 53.222,33.642 C53.222,33.969 52.132,37.456 52.132,37.601 C52.132,37.747 50.135,41.524 49.953,41.851 C49.772,42.178 49.118,43.376 49.081,43.485 C49.045,43.594 48.9,44.357 48.9,44.502 C48.9,44.648 48.537,45.083 48.246,45.447 C47.956,45.81 46.575,46.827 46.394,46.827 C46.212,46.827 43.452,48.025 43.343,48.062 C43.234,48.098 42.653,48.062 42.653,48.062 C42.653,48.062 42.471,48.316 42.326,48.534 C42.181,48.752 41.563,48.715 41.2,48.861 C40.837,49.006 40.619,48.788 40.437,48.788 C40.256,48.788 37.967,48.715 37.459,48.788 C37.459,48.788 36.841,49.079 36.478,49.297 C36.115,49.514 36.042,49.623 35.57,49.841 C35.098,50.059 34.771,50.277 34.444,50.277 C34.117,50.277 33.464,50.023 33.209,49.732 C32.955,49.442 32.41,48.57 32.41,48.134 C32.41,47.698 30.957,46.754 30.776,46.536 C30.594,46.318 29.032,44.539 28.524,44.066 C28.015,43.594 27.107,42.541 26.926,42.032 C26.744,41.524 25.764,39.744 25.618,39.163 C25.473,38.582 24.601,37.892 24.565,37.347 C24.529,36.802 24.383,33.933 24.383,33.388 C24.383,32.843 24.638,31.536 25.328,30.664 C26.018,29.792 27.289,27.795 27.943,26.887 C28.597,25.979 29.577,24.635 30.522,23.908 L30.522,23.908 Z M29.069,18.061 C29.105,17.915 29.287,18.061 29.396,18.061 L29.541,18.17 C29.541,18.17 29.541,18.17 29.396,18.388 C29.25,18.606 29.25,18.533 28.96,18.424 C28.96,18.424 29.032,18.206 29.069,18.061 L29.069,18.061 Z M29.141,17.262 C29.25,17.225 29.432,17.334 29.432,17.334 C29.432,17.334 29.505,17.48 29.396,17.661 C29.287,17.843 29.25,17.661 29.25,17.661 C29.25,17.661 28.96,17.589 28.96,17.443 C28.96,17.298 29.032,17.298 29.141,17.262 L29.141,17.262 Z M29.032,8.036 C29.032,7.637 29.396,7.818 29.577,7.818 C29.577,7.818 29.759,8.218 29.614,8.654 C29.468,9.089 29.468,8.726 29.141,8.654 C28.814,8.581 29.032,8.436 29.032,8.036 L29.032,8.036 Z M29.94,16.499 C29.94,16.499 29.94,16.499 29.94,16.753 C29.94,17.007 29.65,17.08 29.65,17.08 L29.396,17.007 C29.396,17.007 29.432,16.608 29.468,16.499 C29.505,16.39 29.614,16.426 29.868,16.317 C30.122,16.208 29.94,16.499 29.94,16.499 L29.94,16.499 Z M30.231,17.48 L30.049,17.734 L29.831,17.589 L30.231,17.48 L30.231,17.48 Z M30.63,16.027 C31.611,15.119 32.12,14.756 32.628,13.993 C33.137,13.23 33.209,12.976 33.863,12.976 C34.517,12.976 35.497,12.431 35.679,11.777 C35.861,11.123 35.97,10.906 36.587,10.942 C37.205,10.978 38.185,10.978 39.529,10.07 C40.873,9.162 42.072,9.453 42.181,9.78 C42.289,10.106 42.58,11.014 41.926,11.959 C41.561,12.487 41.272,13.375 40.401,13.484 C39.529,13.593 37.386,13.666 36.841,14.065 C36.297,14.465 35.788,15.736 34.771,16.317 C33.754,16.898 33.5,16.789 32.519,16.971 C31.539,17.153 30.957,17.298 30.739,17.189 C30.522,17.08 29.65,16.935 30.63,16.027 L30.63,16.027 Z M33.064,4.186 C33.064,4.186 33.318,4.477 33.282,4.586 C33.246,4.695 33.137,4.695 32.882,4.695 C32.628,4.695 32.882,4.695 32.664,4.549 C32.447,4.404 32.846,4.295 33.064,4.186 L33.064,4.186 Z M32.628,2.261 C32.301,2.733 32.628,2.261 32.41,2.152 C32.192,2.043 32.41,2.007 32.41,1.862 C32.41,1.862 32.483,1.571 32.592,1.535 C32.701,1.498 32.919,1.571 32.919,1.571 C32.919,1.571 32.955,1.789 32.628,2.261 L32.628,2.261 Z M33.173,3.423 C33.173,3.423 33.391,3.569 33.5,3.714 C33.609,3.859 33.391,3.896 33.391,3.896 C33.391,3.896 33.246,3.896 33.137,3.714 L33.173,3.423 L33.173,3.423 Z M34.008,4.15 C34.19,3.968 34.008,4.15 34.154,4.259 C34.299,4.368 34.154,4.404 34.008,4.731 C33.863,5.058 33.754,4.658 33.681,4.513 C33.681,4.513 33.827,4.331 34.008,4.15 L34.008,4.15 Z M35.497,3.314 C35.861,3.133 36.442,2.188 36.732,1.716 C36.732,1.716 37.531,1.571 37.749,1.571 C37.967,1.571 38.657,1.934 39.021,2.188 C39.384,2.443 39.493,3.968 38.803,4.44 C38.113,4.913 37.422,6.256 36.66,6.511 C35.897,6.765 34.698,5.348 34.626,4.84 C34.553,4.331 35.134,3.496 35.497,3.314 L35.497,3.314 Z M36.587,0.917 C36.769,0.772 36.514,0.772 36.769,0.772 C37.023,0.772 37.241,0.663 37.314,0.772 C37.386,0.881 37.459,1.063 37.459,1.063 L36.769,1.171 C36.769,1.171 36.406,1.063 36.587,0.917 L36.587,0.917 Z M38.403,1.063 L38.512,0.881 C38.512,0.881 38.512,0.663 38.694,0.663 C38.875,0.663 38.694,0.554 38.875,0.663 C39.057,0.772 39.021,0.445 39.057,0.772 C39.093,1.099 39.275,0.917 39.093,1.099 C38.912,1.28 38.548,1.353 38.548,1.353 C38.439,1.244 38.294,1.244 38.403,1.063 L38.403,1.063 Z M39.565,1.28 C39.856,1.28 39.565,1.28 39.747,1.317 C39.929,1.353 39.747,1.462 39.711,1.753 C39.674,2.043 39.529,1.862 39.347,1.716 L39.275,1.28 L39.565,1.28 L39.565,1.28 Z M45.195,14.647 C45.304,14.647 45.34,14.683 45.34,14.683 L45.231,14.864 L44.941,14.683 C44.941,14.683 45.086,14.647 45.195,14.647 L45.195,14.647 Z M45.014,13.702 L45.122,13.557 L45.449,13.92 C45.268,14.065 45.159,14.247 45.086,14.102 C45.014,13.956 44.905,13.847 45.014,13.702 L45.014,13.702 Z M45.667,14.283 C45.74,14.029 45.885,13.775 45.885,13.775 C45.994,14.029 46.212,14.138 46.103,14.501 C45.994,14.864 46.212,14.973 45.994,14.864 C45.776,14.756 45.74,14.864 45.704,14.574 C45.667,14.283 45.595,14.538 45.667,14.283 L45.667,14.283 Z M47.774,16.208 C47.629,16.354 47.774,16.208 47.629,15.99 C47.483,15.772 47.629,15.99 47.665,15.772 L47.738,15.627 C47.738,15.627 47.847,15.772 47.919,15.918 C47.992,16.063 47.919,16.063 47.774,16.208 L47.774,16.208 Z M48.573,16.572 C48.573,16.789 48.464,16.862 48.319,16.898 C48.173,16.935 48.101,16.681 48.101,16.354 C48.101,16.354 48.355,16.208 48.573,16.354 C48.791,16.499 48.573,16.354 48.573,16.572 L48.573,16.572 Z M48.609,15.809 C48.537,16.136 48.609,15.809 48.355,15.809 C48.101,15.809 48.173,15.664 48.173,15.373 C48.173,15.082 48.573,15.191 48.682,15.082 C48.682,15.082 48.682,15.482 48.609,15.809 L48.609,15.809 Z M46.394,13.157 C46.684,12.722 46.902,12.613 47.483,12.395 C48.064,12.177 48.04,12.467 48.355,11.995 C48.718,11.45 48.9,12.14 48.9,12.576 L48.9,13.521 C48.9,14.065 48.609,14.392 47.992,15.046 C47.374,15.7 47.193,15.01 46.793,14.574 C46.394,14.138 46.103,13.593 46.394,13.157 L46.394,13.157 Z M48.718,10.869 C48.864,10.724 48.755,10.688 49.227,10.76 C49.699,10.833 49.227,11.051 49.19,11.414 C49.154,11.777 48.873,11.586 48.718,11.45 C48.428,11.196 48.573,11.014 48.718,10.869 L48.718,10.869 Z M49.844,23.509 C49.844,23.509 49.953,23.4 50.135,23.4 C50.316,23.4 50.135,23.4 50.244,23.509 C50.353,23.618 50.244,23.763 49.917,23.872 C49.59,23.981 49.808,23.69 49.844,23.509 L49.844,23.509 Z M50.643,23.981 C50.643,23.981 50.643,23.981 50.571,24.235 C50.498,24.489 50.571,24.235 50.462,24.235 C50.353,24.235 50.244,24.199 50.244,24.09 L50.643,23.981 L50.643,23.981 Z M51.006,22.274 C51.115,21.874 51.515,21.947 51.878,22.129 C52.241,22.31 51.878,22.129 51.878,23.109 C51.878,24.09 51.224,23.654 50.825,23.836 C50.425,24.017 50.316,23.073 50.316,22.71 C50.316,22.347 50.911,22.624 51.006,22.274 L51.006,22.274 Z M53.186,49.224 C53.513,49.26 53.149,49.406 53.004,49.514 C52.859,49.623 52.75,49.623 52.605,49.587 C52.605,49.587 52.423,49.224 52.859,49.188 C53.295,49.151 52.859,49.188 53.186,49.224 L53.186,49.224 Z M54.348,48.933 C54.348,49.042 54.021,49.115 53.803,49.188 C53.803,49.188 53.985,48.752 54.348,48.824 C54.711,48.897 54.348,48.824 54.348,48.933 L54.348,48.933 Z M55.038,47.408 C54.965,47.916 54.675,47.88 54.021,48.534 C53.367,49.188 51.37,49.115 50.68,48.57 C49.989,48.025 50.28,47.953 50.498,47.553 C50.716,47.154 50.792,46.552 50.498,46.137 C49.881,45.265 51.515,44.938 52.35,45.265 C53.186,45.592 52.968,45.447 54.13,45.955 C55.292,46.464 55.111,46.899 55.038,47.408 L55.038,47.408 Z M55.365,47.989 C55.365,47.989 55.329,48.134 55.256,48.28 C55.183,48.425 55.002,48.389 54.893,48.389 C54.893,48.389 54.82,47.989 54.965,47.771 C55.111,47.553 55.111,47.771 55.292,47.771 C55.474,47.771 55.365,47.989 55.365,47.989 L55.365,47.989 Z M55.982,24.889 C55.837,24.925 55.728,24.816 55.728,24.816 C55.728,24.816 55.764,24.635 56.055,24.598 C56.346,24.562 56.2,24.598 56.2,24.707 C56.2,24.816 56.128,24.853 55.982,24.889 L55.982,24.889 Z M56.055,25.325 L56.273,25.397 L56.273,25.724 C56.273,25.87 56.055,25.652 56.055,25.652 L56.055,25.325 L56.055,25.325 Z M59.614,35.204 C59.614,35.204 59.578,34.914 59.614,34.805 C59.651,34.696 59.76,34.805 59.905,34.877 C60.05,34.95 59.978,35.023 59.941,35.313 C59.905,35.604 59.687,35.349 59.614,35.204 L59.614,35.204 Z M59.578,36.039 C59.469,36.403 59.578,36.039 59.36,35.894 C59.142,35.749 59.36,35.567 59.36,35.567 L59.687,35.676 C59.687,35.676 59.687,35.676 59.578,36.039 L59.578,36.039 Z M57.726,37.093 C57.508,36.657 58.104,36.509 58.416,36.221 C58.888,35.785 59.469,36.185 59.614,36.693 C59.76,37.202 59.687,37.129 59.288,38.001 C58.888,38.873 57.944,37.529 57.726,37.093 L57.726,37.093 Z M57.472,25.252 C57.472,25.252 57.871,25.325 57.871,25.47 C57.871,25.615 57.653,25.543 57.544,25.543 L57.472,25.252 L57.472,25.252 Z M56.636,24.889 C56.636,24.889 56.999,24.707 57.072,24.889 C57.145,25.071 56.963,25.107 56.818,25.216 C56.673,25.325 56.818,25.216 56.564,25.18 C56.309,25.143 56.564,24.998 56.636,24.889 L56.636,24.889 Z M56.927,41.56 C57.29,41.088 57.726,41.342 57.944,41.996 C58.162,42.65 57.944,42.723 57.508,43.122 C57.072,43.522 56.6,42.432 56.564,42.178 C56.527,41.923 56.798,41.728 56.927,41.56 L56.927,41.56 Z M67.206,25.724 C67.314,26.088 67.206,26.051 66.988,26.342 C66.77,26.632 66.697,26.56 66.261,26.778 C65.825,26.996 64.009,27.177 63.21,26.959 C62.411,26.741 62.339,26.015 62.302,25.724 C62.266,25.434 62.774,25.18 63.174,25.034 L63.791,25.034 C64.155,25.034 64.336,24.744 64.917,24.671 C65.498,24.598 65.462,24.707 66.479,24.962 C67.496,25.216 67.097,25.361 67.206,25.724 L67.206,25.724 Z M54.421,17.48 C54.457,17.153 54.675,16.681 54.784,16.499 C54.893,16.317 55.074,15.046 55.074,15.046 L55.002,11.668 C55.002,11.668 54.784,11.559 54.784,11.45 L54.784,10.397 C54.784,10.143 54.784,10.106 55.074,9.743 C55.365,9.38 56.128,9.126 56.382,9.017 C56.636,8.908 56.818,9.017 57.181,8.908 C57.544,8.799 57.835,8.763 58.416,8.654 C58.997,8.545 59.106,8.508 59.324,8.436 C59.542,8.363 60.414,8.399 60.631,8.399 C60.849,8.399 61.503,8.399 61.83,8.436 C62.157,8.472 63.138,8.545 63.9,8.545 C63.9,8.545 64.372,8.69 64.627,8.545 C64.881,8.399 65.026,8.472 65.135,8.363 C65.244,8.254 65.426,8.218 65.607,8.036 C65.789,7.855 65.934,7.709 66.007,7.6 C66.08,7.491 66.37,6.983 66.479,6.801 C66.588,6.62 66.879,6.256 66.879,6.256 C66.879,6.256 66.988,6.075 67.387,6.038 C67.787,6.002 67.605,6.075 67.605,6.075 L68.15,6.075 C68.331,6.075 68.549,6.147 68.549,6.147 C68.549,6.147 68.731,6.293 69.022,6.511 C69.312,6.729 69.312,6.801 69.385,7.092 C69.457,7.382 69.421,8.218 69.348,8.617 C69.276,9.017 68.731,9.634 68.622,9.78 C68.513,9.925 68.549,10.215 68.549,10.542 C68.549,10.869 68.84,11.632 68.84,11.632 L68.913,15.228 L69.058,15.591 L69.058,18.242 C69.058,18.569 68.949,18.896 68.913,19.15 C68.876,19.405 68.622,19.586 68.513,19.695 C68.404,19.804 68.259,20.24 68.114,20.385 C67.968,20.531 67.314,20.857 67.024,21.039 C66.733,21.221 66.334,21.257 65.789,21.257 C65.244,21.257 63.61,21.33 62.847,21.293 C62.084,21.257 61.503,21.257 61.067,21.33 C60.631,21.402 60.377,21.33 59.76,21.184 C59.142,21.039 59.76,21.184 59.469,21.366 C59.179,21.547 58.924,21.402 58.452,21.366 C57.98,21.33 57.835,21.366 57.508,21.293 C57.181,21.221 56.564,21.075 56.346,20.894 C56.128,20.712 55.728,20.458 55.619,20.24 C55.51,20.022 54.457,18.787 54.384,18.497 C54.312,18.206 54.384,17.806 54.421,17.48 L54.421,17.48 Z M5.133,5.13 C5.133,5.13 4.952,4.949 5.424,4.767 C5.896,4.586 5.424,4.767 5.642,5.094 C5.86,5.421 5.46,5.276 5.133,5.13 L5.133,5.13 Z M4.48,17.661 C4.371,17.697 4.262,17.625 4.262,17.516 L4.153,17.407 C4.153,17.407 4.153,17.407 4.407,17.116 C4.661,16.826 4.407,17.116 4.661,17.262 C4.915,17.407 4.589,17.625 4.48,17.661 L4.48,17.661 Z M3.898,16.753 C3.898,16.753 3.898,16.608 3.935,16.39 C3.971,16.172 3.935,16.39 4.08,16.426 C4.225,16.463 4.334,16.535 4.334,16.717 C4.334,16.898 4.225,16.862 4.08,16.862 L3.898,16.753 L3.898,16.753 Z M3.898,17.952 C3.971,18.097 3.535,18.097 3.535,18.097 L3.572,17.734 C3.572,17.734 3.572,17.734 3.826,17.806 C4.08,17.879 3.826,17.806 3.898,17.952 L3.898,17.952 Z M3.898,3.641 C4.044,3.351 4.552,3.859 4.552,3.859 C4.661,4.186 4.443,4.259 4.262,4.259 C4.08,4.259 3.862,4.331 3.862,4.186 C3.862,4.041 3.753,3.932 3.898,3.641 L3.898,3.641 Z M76.54,41.088 C76.576,40.906 76.685,40.471 76.613,39.998 C76.54,39.526 76.467,39.49 76.358,39.127 C76.249,38.764 76.14,38.873 76.14,38.582 C76.14,38.291 76.358,35.749 76.395,35.422 C76.431,35.095 76.395,34.914 76.504,34.296 C76.613,33.679 76.794,30.373 76.358,28.957 C75.923,27.54 75.596,26.741 75.523,26.523 C75.45,26.306 75.487,26.051 75.196,25.942 C74.906,25.833 74.579,26.197 74.906,25.833 C75.232,25.47 75.123,25.833 75.232,25.47 C75.341,25.107 75.414,25.034 75.45,24.744 C75.487,24.453 75.45,24.126 75.559,23.69 C75.668,23.255 75.705,22.746 75.705,22.637 C75.705,22.528 75.414,19.695 75.414,19.15 C75.414,18.606 75.341,18.279 75.45,18.024 C75.559,17.77 75.705,17.589 75.777,17.189 C75.85,16.789 75.814,16.862 75.923,16.39 C76.031,15.918 75.995,15.664 76.068,15.446 C76.14,15.228 76.068,14.102 76.068,13.702 L76.068,12.831 C76.068,12.358 75.741,10.978 75.777,10.869 C75.814,10.76 75.959,10.869 75.995,10.579 C76.031,10.288 76.031,9.416 76.031,9.416 C76.031,9.416 75.886,9.307 75.886,9.198 C75.886,9.089 75.814,7.855 75.814,7.855 C75.814,7.855 75.777,7.673 75.741,7.528 C75.705,7.382 75.596,7.201 75.596,7.201 C75.596,7.201 75.559,4.549 75.051,3.569 C74.542,2.588 73.525,2.334 73.307,2.116 C73.089,1.898 73.053,1.753 72.617,1.607 C72.181,1.462 71.855,1.389 71.419,1.353 C70.983,1.317 70.547,1.244 70.293,1.244 C70.039,1.244 69.748,1.171 69.494,1.208 C69.239,1.244 68.658,1.498 68.368,1.498 L66.515,1.498 C66.152,1.498 65.208,1.389 64.881,1.389 C64.554,1.389 64.082,1.244 63.9,1.244 C63.719,1.244 63.537,1.171 63.21,1.244 C62.883,1.317 62.447,1.28 61.975,1.426 C61.503,1.571 61.322,1.716 60.922,1.753 C60.522,1.789 59.76,1.789 59.76,1.789 C59.76,1.789 57.036,1.498 56.382,1.498 C55.728,1.498 52.459,1.244 52.132,1.244 C51.806,1.244 49.59,0.954 49.227,0.954 C48.864,0.954 48.755,0.881 48.137,0.917 C47.52,0.954 47.265,0.917 46.975,0.954 C46.684,0.99 46.975,0.99 46.212,0.99 C45.449,0.99 41.454,0.917 41.454,0.917 C41.454,0.917 40.401,0.699 39.747,0.554 C39.093,0.409 39.42,0.372 38.803,0.372 C38.185,0.372 38.149,0.372 37.749,0.409 C37.35,0.445 36.878,0.481 36.442,0.481 C36.006,0.481 35.824,0.481 35.171,0.518 C34.517,0.554 34.117,0.554 33.936,0.554 C33.754,0.554 33.863,0.518 33.536,0.554 C33.209,0.59 32.991,0.663 32.882,0.699 C32.773,0.736 32.374,0.881 32.156,1.026 C31.938,1.171 31.865,1.317 31.829,1.644 C31.793,1.971 31.938,2.624 31.938,2.624 C31.938,2.624 32.555,2.661 32.701,3.242 C32.846,3.823 32.628,4.222 32.265,4.222 C31.902,4.222 31.502,3.714 31.466,3.387 C31.43,3.06 31.793,2.479 31.539,1.753 C31.284,1.026 31.03,1.026 30.739,0.917 C30.449,0.808 30.485,0.736 29.904,0.699 C29.323,0.663 29.287,0.663 29.069,0.663 C28.851,0.663 29.105,0.736 28.633,0.772 C28.161,0.808 27.906,0.772 27.725,0.808 C27.543,0.845 27.035,0.808 27.035,0.808 L26.962,1.063 L25.909,1.063 L25.691,0.845 L24.383,0.845 C24.056,0.845 22.822,0.917 22.604,0.917 L22.059,0.917 C22.059,0.917 21.514,0.99 21.369,0.99 L21.042,0.99 C21.042,0.99 20.57,0.881 20.388,0.881 C20.206,0.881 19.952,0.736 19.771,0.699 C19.589,0.663 16.901,0.336 16.356,0.336 C15.812,0.336 12.288,0.227 12.143,0.263 C11.998,0.3 11.526,0.481 11.272,0.518 C11.017,0.554 10.763,0.518 10.4,0.627 C10.037,0.736 9.528,0.954 8.947,0.99 C8.366,1.026 7.639,1.063 7.022,1.171 C6.405,1.28 6.259,1.28 6.078,1.498 C5.896,1.716 6.005,1.825 5.714,1.898 C5.424,1.971 5.315,1.898 5.133,2.007 C4.952,2.116 4.77,2.007 4.516,2.188 C4.262,2.37 3.789,2.552 3.789,2.879 C3.789,3.205 3.535,3.569 3.463,3.932 C3.39,4.295 2.881,4.731 2.663,4.949 C2.446,5.167 2.155,5.457 2.01,5.53 C1.864,5.603 1.719,6.075 1.719,6.075 C1.719,6.075 1.755,8.799 1.755,8.944 C1.755,9.089 1.683,9.089 1.683,9.271 C1.683,9.453 1.61,9.816 1.61,9.816 C1.61,9.816 1.465,13.884 1.465,14.029 C1.465,14.174 1.32,15.119 1.283,15.228 C1.247,15.337 1.32,15.664 1.138,15.845 C0.956,16.027 0.92,16.063 0.847,16.463 C0.775,16.862 0.738,17.734 0.738,17.952 C0.738,18.17 1.174,19.187 1.174,19.187 L1.211,23.182 L1.429,23.182 L1.429,24.344 C1.429,24.453 1.32,24.853 1.283,24.962 C1.247,25.071 1.102,28.993 1.102,29.102 C1.102,29.211 1.429,36.112 1.429,36.584 C1.429,37.056 1.392,37.383 1.392,38.001 L1.392,39.09 C1.392,39.236 1.647,44.284 1.647,44.393 C1.647,44.502 1.574,45.773 1.574,46.318 C1.574,46.863 1.538,47.263 1.501,47.771 C1.465,48.28 1.501,48.389 1.465,48.715 C1.429,49.042 1.429,51.73 1.429,51.73 L1.61,52.493 C1.61,52.493 1.574,52.747 1.574,53.074 C1.574,53.401 1.647,53.946 1.574,54.055 C1.501,54.164 1.465,54.381 1.465,54.381 C1.465,54.381 1.429,55.907 1.429,56.089 C1.429,56.27 1.356,56.488 1.392,56.633 C1.429,56.779 1.429,56.706 1.501,56.997 C1.574,57.287 1.574,58.268 1.574,58.268 C1.574,58.268 1.719,58.304 1.755,58.522 C1.792,58.74 1.901,60.229 1.901,60.52 C1.901,60.81 1.755,63.28 1.792,63.425 C1.828,63.571 1.828,64.479 1.828,64.624 C1.828,64.769 1.901,65.423 2.518,66.222 C3.136,67.021 4.153,67.675 4.516,68.147 C4.879,68.619 4.589,68.329 4.879,68.619 C5.17,68.91 4.589,68.837 5.351,69.091 C6.114,69.346 6.84,69.346 6.84,69.346 L7.276,69.273 C7.276,69.273 9.201,69.273 9.31,69.346 C9.419,69.418 9.528,69.491 9.964,69.527 C10.4,69.564 11.054,69.527 11.163,69.491 C11.272,69.455 11.272,69.418 11.562,69.418 C11.853,69.418 15.267,69.273 15.812,69.382 C16.356,69.491 18.064,69.455 18.463,69.455 C18.863,69.455 19.153,69.418 19.698,69.418 C20.243,69.418 20.424,69.309 20.57,69.418 C20.715,69.527 21.369,69.673 21.914,69.745 C22.458,69.818 22.822,69.89 23.148,69.89 C23.475,69.89 23.875,69.854 24.274,69.745 C24.674,69.636 25.073,69.346 25.836,69.346 L27.144,69.346 C27.289,69.346 29.722,69.491 30.558,69.564 C31.393,69.636 32.156,69.673 32.519,69.564 C32.882,69.455 33.028,69.418 33.282,69.382 C33.536,69.346 34.263,69.237 34.698,69.237 C35.134,69.237 35.788,69.128 36.224,69.128 L37.604,69.128 C38.076,69.128 38.548,69.128 38.766,69.091 C38.984,69.055 39.311,68.946 39.638,68.873 C39.965,68.801 40.764,68.801 41.345,68.873 C41.926,68.946 42.871,68.91 43.089,68.946 C43.306,68.982 49.772,69.055 49.772,69.055 C49.772,69.055 50.353,68.982 50.534,68.982 C50.716,68.982 51.697,68.946 51.878,68.946 C52.06,68.946 52.714,68.837 52.931,68.91 C53.149,68.982 53.513,69.091 53.912,69.128 C54.312,69.164 54.384,69.164 54.639,69.164 C54.893,69.164 54.929,69.128 55.22,69.091 C55.51,69.055 55.111,69.273 55.51,69.055 C55.91,68.837 56.273,68.692 56.854,68.692 C57.435,68.692 58.271,68.837 58.38,68.91 C58.489,68.982 58.561,69.019 58.815,68.982 C59.07,68.946 58.961,68.946 59.251,68.873 C59.542,68.801 60.159,68.365 60.45,68.365 C60.74,68.365 61.467,68.256 61.794,68.256 C62.121,68.256 63.573,68.656 63.828,68.656 L65.063,68.656 C65.498,68.656 67.169,68.038 67.532,67.82 C67.896,67.602 68.223,67.493 68.295,67.239 C68.368,66.985 68.331,66.912 68.368,66.694 C68.404,66.476 68.404,66.44 68.477,66.295 C68.549,66.149 69.058,65.677 69.131,65.496 C69.203,65.314 69.457,64.987 70.002,64.987 C70.547,64.987 71.491,64.915 71.564,65.096 C71.637,65.278 72.181,66.004 72.363,66.186 C72.545,66.367 72.436,66.404 72.726,66.585 C73.017,66.767 73.198,66.985 73.453,67.021 C73.707,67.057 74.179,66.621 74.542,66.404 C74.906,66.186 76.249,64.188 76.249,63.934 C76.249,63.68 76.286,63.861 76.286,63.28 L76.286,62.372 L76.286,61.537 C76.286,61.137 76.358,61.173 76.286,60.883 C76.213,60.592 76.213,60.302 76.104,60.048 C75.995,59.793 75.741,59.139 75.668,58.958 C75.596,58.776 75.523,58.74 75.487,58.377 C75.45,58.014 75.45,57.505 75.45,57.178 C75.45,56.851 75.559,56.415 75.668,56.052 C75.777,55.689 75.85,55.653 75.85,55.398 L75.85,54.781 C75.85,54.599 75.814,54.309 75.85,53.909 C75.886,53.51 75.85,48.425 75.85,48.425 L76.177,48.025 C76.177,48.025 76.104,46.282 76.104,46.137 L76.104,45.447 L76.104,44.648 C76.104,44.648 75.995,44.902 75.995,43.957 C75.995,43.013 75.814,42.65 75.995,42.505 C76.177,42.359 76.504,41.27 76.54,41.088 L76.54,41.088 Z" id="Fill-10" sketch:type="MSShapeGroup"></path>
            <path d="M37.592,48.098 C37.592,47.807 38.222,48.05 37.592,47.807 C36.962,47.565 37.156,47.372 36.962,47.565 C36.769,47.759 36.914,48.195 36.914,48.195 C37.205,48.195 37.592,48.389 37.592,48.098" id="Fill-11" sketch:type="MSShapeGroup"></path>
            <path d="M38.609,48.485 C38.851,48.534 38.948,48.243 38.948,48.243 C38.948,48.243 38.851,48.05 38.657,48.05 C38.464,48.05 38.561,47.807 38.464,48.05 C38.367,48.292 38.609,48.485 38.609,48.485" id="Fill-12" sketch:type="MSShapeGroup"></path>
            <path d="M71.927,66.767 C71.6,66.658 71.31,66.404 71.056,66.658 C70.801,66.912 70.583,67.094 70.692,67.421 C70.801,67.748 70.62,67.784 70.983,67.893 C71.346,68.002 71.637,68.038 71.964,67.965 C72.29,67.893 72.654,67.965 72.69,67.748 C72.726,67.53 72.908,67.639 72.726,67.384 C72.545,67.13 71.927,66.767 71.927,66.767" id="Fill-13" sketch:type="MSShapeGroup"></path>
        </g>
    </g>
</svg>