<?xml version="1.0" encoding="utf-8"?>
<!-- Generator: Adobe Illustrator 19.0.1, SVG Export Plug-In . SVG Version: 6.00 Build 0)  -->
<!DOCTYPE svg PUBLIC "-//W3C//DTD SVG 1.1//EN" "http://www.w3.org/Graphics/SVG/1.1/DTD/svg11.dtd">
<svg version="1.1" id="Layer_1" xmlns:sketch="http://www.bohemiancoding.com/sketch/ns"
	 xmlns="http://www.w3.org/2000/svg" xmlns:xlink="http://www.w3.org/1999/xlink" x="0px" y="0px" viewBox="-557 385.9 77 70"
	 style="enable-background:new -557 385.9 77 70;" xml:space="preserve">
<style type="text/css">
	.st0{fill:#FD754D;}
</style>
<g id="Page-1" sketch:type="MSPage">
	<g id="instagram-icon" sketch:type="MSLayerGroup">
		<path id="Fill-10" sketch:type="MSShapeGroup" class="st0" d="M-484.1,419.6c-0.6,0.7-0.7-0.7-0.7-1.4c0-2,1-1.5,1.2-1.2
			c0.2,0.4,0.2,0.4,0.4,0.8C-483.1,418.3-483.5,419-484.1,419.6L-484.1,419.6z M-483.7,420c0,0.2,0,0-0.1,0.3s-0.1,0-0.2-0.2
			c0,0,0-0.2,0.3-0.4C-483.4,419.6-483.8,419.8-483.7,420L-483.7,420z M-484.1,421c0,0.1-0.1,0.2-0.3,0.1c-0.3-0.1,0,0-0.1-0.1
			s0.1-0.2,0.2-0.3L-484.1,421C-484.1,420.9-484.1,420.9-484.1,421L-484.1,421z M-484.6,420.3c0,0,0,0-0.1,0s0,0-0.2-0.1
			s0,0,0.1-0.3s0.3,0,0.3,0L-484.6,420.3L-484.6,420.3z M-495.6,421c0-0.4,0.7-0.4,0.9-0.5c0.2-0.1,0.3,0,0.3,0s-0.1,0.5-0.4,0.7
			C-495.1,421.3-495.6,421-495.6,421L-495.6,421z M-496.8,421c0,0,0.3-0.1,0.4-0.1s0.1,0.2,0,0.4c-0.1,0.2,0,0-0.3,0
			S-496.8,421.1-496.8,421L-496.8,421z M-487.3,430.2v0.7c0,0.2,0,0.3-0.1,0.5s-0.1,0.7-0.2,1.1s-0.4,0.8-0.5,1.3
			c0,0.5-0.1,2.8-0.1,3.3s0.1,0.3,0.1,0.7c0,0.4,0,1.7,0,2.1v1.1c0,0.3-0.8,3.1-0.8,3.3c-0.1,0.3,0,0.8,0,0.8s0,0.2-0.1,1.3
			c-0.1,1.1-0.2,0.6-0.3,0.8c-0.1,0.2-2.8,0.7-3.3,0.7s-0.2,0-1.5,0s-0.4,0-0.7,0s-0.4,0-0.8-0.1s-1.7-0.5-2.1-0.7s-0.4-0.1-0.8-0.1
			c-0.3,0-1.1,0.2-1.2,0.2s-1.2,0.4-1.7,0.5c-0.4,0.1-0.7,0.2-1.2,0.2s-0.7,0-1.2-0.2c-0.5-0.1-1.1-0.2-1.1-0.2s-1.6,0.2-1.7,0.2
			s-0.3,0-1-0.1s-1.3-0.1-1.6-0.2c-0.3-0.1-0.4,0-0.8,0h-1.2c-0.4,0-5.5,0.4-6.4,0.4c-0.9,0.1-2.7-0.1-3.3-0.1
			c-0.7,0-1.3,0.3-1.3,0.3s-4.1,0.1-4.3,0.1s-0.4,0-0.5-0.1s-0.3-0.1-0.6-0.3c-0.3-0.1-0.2,0.1-0.2,0.1s-0.2,0.2-0.4,0.2
			s-1.2,0.3-1.2,0.3l-5.7,0.1c0,0,0,0-0.1,0s-0.3,0.3-0.6,0.2c-0.3-0.1-0.5-0.3-0.7-0.5s0,0-0.4,0s-0.4,0.3-0.4,0.3
			s-3.4-0.1-3.6-0.1c-0.1,0,0,0-0.1-0.1s-0.3-0.1-0.6-0.1c-0.3-0.1-0.5,0-0.7,0s-0.5,0.2-0.5,0.2s-1.6,0-2,0s-0.5,0-0.7,0
			c-0.3,0-0.3,0.2-0.5,0.4c-0.3,0.2-0.2,0.1-0.4,0.5c-0.2,0.3,0,0.3,0,0.8s-0.3,0.1-0.7,0c-0.5-0.1-0.4,0-0.7-0.1s0-0.3,0-0.5
			c0-0.3,0.3-0.2,0.4-0.2c0.1,0,0.3,0,0.5-0.1c0.3-0.1,0.4-0.2,0.5-0.4c0.1-0.2-0.1-0.6-0.3-0.8c-0.1-0.2-0.4-0.7-0.4-0.7
			s-0.4-0.3-0.5-0.5c0-0.1-1.2-1.7-1.3-1.9c-0.1-0.2-0.1-1.6-0.1-1.9s0.1-0.2,0.1-0.5s0.1-0.8,0.3-1.7c0.1-0.9-0.7-1.4-0.7-1.5
			s0-0.4,0-0.8c0-0.5,0-0.7,0-0.9c0-0.2,0.3-1.9,0.3-1.9s0.1-0.3,0.2-0.5c0.1-0.2,0-0.2,0-0.4c0-0.2-0.3-0.3-0.3-0.3
			s-0.3-1.5-0.3-1.6s-0.3-0.9-0.4-1.2c0-0.3,0-1.2,0-1.2s0.3-0.7,0.4-1c0.1-0.3,0.3-1.9,0.3-1.9s0.1-0.4,0.1-0.6s-0.1-0.6-0.1-0.6
			l-0.3-2.4c0,0-0.4-2.9-0.4-3.6v-2.4c0,0,0.2-0.8,0.3-0.9s1.1-1,1.2-1.1c0.1-0.1,0.5-0.3,0.9-0.3s0.4,0,0.6,0h0.8
			c0.3,0,0.4-0.1,0.6-0.1c0.1,0,0.8-0.2,1-0.2s1-0.1,1.2-0.2s0.4-0.1,0.6-0.1h1.1c0.2,0,0.7,0.2,0.9,0.3c0.2,0.1,0.5,0.4,0.6,0.4
			c0.1,0.1,0.8,1.6,0.8,1.6l-0.1,0.9l-0.5,1.1l-0.3,0.7c0,0-0.3,0.5-0.3,0.7s0.1,1.6,0.1,1.6l0.1,0.6c0,0,0.5,2.2,0.7,2.4
			c0.1,0.2,0.1,0.4,0.1,0.5s0,0.5,0,0.5s0.3,0.6,0.4,0.7c0.1,0.1,1.3,2.8,1.3,2.8l0.6,1.1c0,0,0.1,0.6,0.1,0.7s0.2,0.4,0.2,0.5
			s1.5,1.5,1.5,1.5s2.7,2.8,3.2,3.2c0.5,0.4,0.8,0.8,0.9,0.9c0.1,0.1,1.2,0.6,1.2,0.6s0.8,0.9,0.8,1.1c0,0.1,0.9,0.2,1.1,0.4
			c0.2,0.2,0,0,0.2,0.1s0.3,0.1,0.3,0.1h0.3c0,0,0.3,0.1,0.5,0.2s0.5,0.1,0.6,0.2s0.8,0.4,1.1,0.6c0.2,0.2,2,0.8,2,0.8
			s0.4,0.1,0.7,0.1h2.5c0.7,0,0.9,0,1.4,0.2c0.5,0.1,0.3,0.1,0.4,0.1c0.2,0,1.1-0.1,1.3-0.1h1.1c0.3,0,1.2,0,1.7,0
			c0.4,0,0.7-0.1,0.9-0.3c0.2-0.1,1.1-0.2,1.2-0.3c0.1,0,2.3-1.4,2.3-1.4s0.8-0.2,0.9-0.2s1.3-0.8,1.6-0.9c0.3-0.2,1.3-0.9,1.5-1.1
			c0.1-0.2,1.1-0.8,1.2-0.9s0.4-0.4,0.7-0.5c0.3-0.2,0.6-0.4,0.7-0.6s1.2-0.7,1.3-0.8c0.1-0.1,2.8-1.8,2.8-1.8s0.3-0.2,0.5-0.3
			c0.2-0.1,0.3-0.3,0.5-0.8s0.3-0.8,0.3-0.8s1.1-2.8,1.2-3.1c0.1-0.2,0.7-1,0.9-1.2c0.2-0.2,0.6-1,0.6-1.2s0.6-2.1,0.6-2.3
			c0-0.1,0.7-1.6,0.8-1.9c0.1-0.3,0.2-1.3,0.2-1.5s0-0.5-0.3-0.7c-0.2-0.2-0.4,0.1-0.5,0.1s-0.1,0.2-0.2,0.5s-0.3,0.4-0.7,0.5
			c-0.3,0.2-0.4,0.1-0.7,0.2c-0.2,0.1-0.6-0.4-0.6-0.4s-0.3-0.4-0.4-0.9s0-0.4,0-0.7c0-0.4,0.1-0.3,0.2-0.6c0.1-0.4,0.1-0.3,0.2-0.5
			s0.3-0.3,0.6-0.3s0.5,0.2,0.7,0.3c0.2,0.1,0.3,0.3,0.5,0.5c0.1,0.3,0.1,0.6,0.3,0.8c0.1,0.2,0.4,0.3,0.4,0.3s0.2-0.3,0.2-0.5
			c0-0.3,0-0.9,0-1.1c0.1-0.2,0-0.5,0.1-0.8s0.2-0.3,0.4-0.4c0.1-0.1,0.5-0.3,0.7-0.4c0.1-0.1,0.5-0.5,0.7-0.7
			c0.1-0.1,0.5-0.3,1.2-0.3s2.2,0.6,2.3,0.9c0.1,0.3,0.2,0.5,0.3,0.9c0.1,0.4,0.1,0.6,0.1,0.9c0,0.4-0.2,0.6-0.2,0.9
			s0.1,2.4,0.1,2.7c0,0.4,0.1,0.4,0.2,0.5c0.1,0.2,0.1,2.5,0.1,2.5s0,0.8,0,1.2c0,0.4,0.1,0.9,0.1,1.1s0.1,0.4,0.2,0.8
			c0.1,0.3,0.3,0.5,0.3,0.5s0.3,1.1,0.3,1.2C-487.2,429-487.3,430.2-487.3,430.2L-487.3,430.2z M-548.6,449c0,0.1-0.3,0.1-0.4,0.1
			l-0.1-0.1c0,0,0,0,0.1-0.1s0.3-0.1,0.5-0.1C-548.4,448.9-548.6,448.9-548.6,449L-548.6,449z M-550.3,449.7c-0.3,0.2-0.3,0-0.7-0.1
			s-0.1-0.3,0-0.5s0.6,0,0.8,0.2C-550.2,449.3-550,449.5-550.3,449.7L-550.3,449.7z M-549.2,406.6c0.5-0.8,1.3-0.3,1.5-0.1
			c0.1,0.2,0.3,0.4,0.8,0.9c0.5,0.6,0.6,1,0.4,2.1c-0.3,1.1-1.6,1-1.9,0.7c-0.3-0.3-1.1-1.2-1.2-1.8
			C-549.8,407.8-549.7,407.3-549.2,406.6L-549.2,406.6z M-538.2,403c1.5-0.3,0.9-0.8,1.7-1.5c0.8-0.6,2.2-0.3,3,0.3
			c0.8,0.6-1.3,1.6-2.1,1.7c-1.7,0.1-1.7,1.2-2.8,2.3c-1.1,1.1-2.5-0.5-2.4-1.5S-539.7,403.3-538.2,403L-538.2,403z M-539.8,395.1
			c0.1-0.3,0.3-0.1,0.7-0.1c0,0,0,0.3,0,0.6c0,0.3-0.1,0.1-0.4,0.4c-0.3,0.2-0.1,0-0.3-0.2C-540.1,395.5-539.9,395.5-539.8,395.1
			L-539.8,395.1z M-535,393.5h0.4c0,0,0,0,0,0.1l0.1,0.2c0,0,0,0-0.5-0.1C-535.6,393.6-535,393.5-535,393.5L-535,393.5z
			 M-534.8,392.7c0.1-0.1,0.2-0.1,0.3-0.1s0-0.3,0.1,0s0.1,0.5,0.1,0.5l-0.3,0.1C-534.7,393-534.9,392.7-534.8,392.7L-534.8,392.7z
			 M-533.8,393.3l0.3-0.3c0,0,0,0,0.2,0.6s-0.1,0.1-0.4,0.1C-534.1,393.8-533.8,393.4-533.8,393.3L-533.8,393.3z M-533,394.6
			c0,0,0,0,0,0.1s0,0.2,0,0.4c0,0.1-0.4-0.1-0.7-0.4c0,0,0.3-0.1,0.5-0.1C-533,394.5-533,394.6-533,394.6L-533,394.6z M-531.7,395.2
			c0.5,0,0.5,0.1,2.1,0.3c1.6,0.1,0.4,0.3,0.1,0.6c-0.3,0.3-1.3,0.8-1.8,0.8c0,0-1.3,0-1.6-0.7
			C-533.2,395.5-532.2,395.2-531.7,395.2L-531.7,395.2z M-531.2,390.2c0,0,0.4,0,0.7,0c0.3,0.1,0.1,0.1,0.3,0.3
			c0.1,0.1-0.1,0.2-0.5,0.3c-0.4,0-0.3,0-0.5,0C-531.4,390.7-531.2,390.5-531.2,390.2L-531.2,390.2z M-528.4,403.1
			c0,0,0,0.1-0.2,0.1s-0.4,0-0.4,0v-0.3h0.1C-528.7,402.9-528.4,403.1-528.4,403.1L-528.4,403.1z M-533.2,407.3
			c0.1-0.1,0.3-0.1,0.4-0.2c0,0,0.1,0.2,0.1,0.3c0,0.1-0.2,0.1-0.2,0.1s-0.4,0-0.4-0.2C-533.4,407.1-533.3,407.3-533.2,407.3
			L-533.2,407.3z M-531.6,400.8c0,0-1.1,0.1-1.3,0s0-0.1,0.6-1.2c0.6-1,0.5-0.3,1.1-0.4c0.7-0.1,0.5,0.2,1,0.6
			C-529.7,400.2-530.8,400.6-531.6,400.8L-531.6,400.8z M-531.3,403.9c0.2-0.9,1.2-0.7,1.6-0.7c0.4,0,0.4,0,0.9,0.1
			c0.7,0.2,0.1,1-0.1,1.2c-0.3,0.2-0.4,0.4-1.2,0.8C-530.9,405.8-531.5,404.8-531.3,403.9L-531.3,403.9z M-531.7,405.2l0.1-0.3
			c0,0,0,0,0.2,0.1s0,0,0,0.1s-0.1,0.2-0.1,0.2L-531.7,405.2L-531.7,405.2z M-531.7,406c-0.2-0.1-0.1-0.2,0-0.4h0.6
			c0,0,0,0.3-0.1,0.4C-531.3,406.2-531.5,406.1-531.7,406L-531.7,406z M-531.3,406.7c0,0.1-0.2,0.8-0.6,0.9c-0.4,0.1-0.3,0-0.4-0.2
			c-0.1-0.2-0.1-0.2-0.1-0.5s0-0.2,0-0.4c0-0.2,0.1-0.3,0.8-0.3s0.3,0.3,0.3,0.3S-531.4,406.5-531.3,406.7L-531.3,406.7z
			 M-533.3,401.4c0-0.2,0,0,0-0.2s0.4,0,0.5,0v0.4c0,0-0.2,0.1-0.5,0C-533.5,401.6-533.3,401.6-533.3,401.4L-533.3,401.4z
			 M-533.7,430c0-0.5-0.1-1.1,0.3-0.8c0.5,0.2,0.1,0.1,0.8,0.6s0.5,0,1.1,0.9c0.6,0.8,0.6,0.5,0.8,1c0.1,0.4-0.4,1.3-0.4,1.3
			c-0.3,0-0.6,0-1-0.3c-0.3-0.3,0-0.3-0.5-1c-0.5-0.6-0.6-0.7-0.9-1.1C-533.6,430.3-533.8,430.5-533.7,430L-533.7,430z
			 M-534.9,414.1c-0.2,0.3,0,0-0.3-0.1s0,0,0-0.4c0,0,0-0.2,0.1-0.4c0.1-0.2,0.2,0.2,0.2,0.2S-534.6,413.8-534.9,414.1L-534.9,414.1
			z M-534.4,429.6c-0.3-0.2-0.3-0.2-0.3-0.4c0-0.1-0.1-0.3,0.1-0.4c0.2-0.1,0.4,0.3,0.4,0.3C-534.2,429.4-534.1,429.8-534.4,429.6
			L-534.4,429.6z M-534.4,428.3l-0.3-0.1c0,0,0.1-0.2,0.4-0.3c0.4-0.1,0,0,0.1,0.1s0,0.2-0.1,0.4
			C-534.2,428.5-534.4,428.3-534.4,428.3L-534.4,428.3z M-534.1,412.9c-0.3,0.7-0.7-0.2-0.8-1s-1.3-1.2-1.6-2.1
			c-0.2-1-0.1-1.2,0.6-1.8c0.7-0.5,1.5-0.3,1.7-0.3c0,0,0.6,0.3,0.6,0.8s-0.1,0.8-0.4,1.6C-534.2,410.8-533.8,412.3-534.1,412.9
			L-534.1,412.9z M-531.1,433.6c-0.2-0.2,0,0,0.2-0.1c0,0,0.4,0,0.3,0.3c-0.1,0.3,0,0-0.3,0.1C-531.2,433.9-530.9,433.8-531.1,433.6
			L-531.1,433.6z M-529.9,434c0,0,0,0,0,0.3s-0.1,0.2-0.3,0.2s-0.1-0.3-0.1-0.5H-529.9L-529.9,434z M-530,433.4c-0.3,0,0,0-0.3-0.2
			s0,0,0.1-0.3c0,0,0.4,0,0.5,0.5C-529.6,433.8-529.7,433.3-530,433.4L-530,433.4z M-529.3,432.8c0,0,0.2,0,0.7,0.3
			c0.4,0.3,0.1,0.2,0.1,0.4c-0.1,0.2-0.3,0.1-0.5-0.1L-529.3,432.8L-529.3,432.8z M-528.8,434.1c0.3,0.1,0.5,0.2,0.8,0.5
			c0,0,0.3,0.8,0.3,1.4s0,0.3,0,0.6c0,0.3-0.8,0.2-1.2,0c-0.3-0.1-0.5-0.6-0.5-1.2s0-0.4,0-0.9C-529.3,434-529.1,434-528.8,434.1
			L-528.8,434.1z M-523.9,439.6c0,0.2-0.1,0.2-0.4,0.3c-0.3,0.1-0.3-0.2-0.3-0.4l0.4-0.2c0,0,0,0,0.3,0.1S-523.9,439.4-523.9,439.6
			L-523.9,439.6z M-511.7,437c0,0.5,0,0.7-0.2,0.7c-0.2,0-0.1,0.1-0.4,0c-0.2-0.1-0.2,0.3-0.2-0.1s-0.1-0.5,0.2-0.6
			C-512,436.8-511.7,437-511.7,437L-511.7,437z M-509.5,436c-0.1,0.3-0.2,0.5-0.7,0.9s-0.6,0.4-1.1,0.3s-0.1-0.5,0.1-0.7
			c0,0,0.6-0.6,1.1-0.9s0.2-0.1,0.6,0C-509.1,435.6-509.4,435.7-509.5,436L-509.5,436z M-526.6,409.7c0.9-0.7,3.6-2.1,4.3-2.4
			s1.7-0.5,1.9-0.7c0.2-0.1,1.3-0.1,1.6-0.3c0.3-0.1,0.4-0.3,0.7-0.7c0.3-0.4,0.1-0.3,0.2-0.6c0.1-0.4,0.1-0.4,0.3-0.8
			s0.3-0.4,0.5-0.5s0.5-0.3,0.7-0.4s0.6-0.1,1-0.1s0.7,0.1,0.9,0.3c0.3,0.1,0.3,1.6,0.3,1.7s0,0.3,0.1,0.5s0.2,0.2,0.4,0.4
			c0.3,0.2,0.4,0.2,0.8,0.4c0.4,0.2,2.2,0.3,2.9,0.5c0.7,0.2,1.3,1.7,1.4,2c0.1,0.2,0.5,0.6,0.8,0.9c0.2,0.3,1.3,1.5,1.8,2.5
			c0.4,1.1,1,0.8,1.2,1.1c0.2,0.2,0.5,0.8,0.7,1.2c0.1,0.4,0.1,1.1,0.1,1.5c0,0.3,0.1,3,0.1,3.3s-1.1,3.8-1.1,4c0,0.1-2,3.9-2.2,4.2
			c-0.2,0.3-0.8,1.5-0.9,1.6c0,0.1-0.2,0.9-0.2,1s-0.4,0.6-0.7,0.9c-0.3,0.4-1.7,1.4-1.9,1.4c-0.2,0-2.9,1.2-3.1,1.2
			c-0.1,0-0.7,0-0.7,0s-0.2,0.3-0.3,0.5s-0.8,0.2-1.1,0.3c-0.4,0.1-0.6-0.1-0.8-0.1s-2.5-0.1-3,0c0,0-0.6,0.3-1,0.5
			s-0.4,0.3-0.9,0.5s-0.8,0.4-1.1,0.4s-1-0.3-1.2-0.5c-0.3-0.3-0.8-1.2-0.8-1.6s-1.5-1.4-1.6-1.6c-0.2-0.2-1.7-2-2.3-2.5
			c-0.5-0.5-1.4-1.5-1.6-2c-0.2-0.5-1.2-2.3-1.3-2.9s-1-1.3-1.1-1.8s-0.2-3.4-0.2-4c0-0.5,0.3-1.9,0.9-2.7c0.7-0.9,2-2.9,2.6-3.8
			C-528.5,411.8-527.5,410.4-526.6,409.7L-526.6,409.7z M-528,403.9c0-0.1,0.2,0,0.3,0l0.1,0.1c0,0,0,0-0.1,0.2s-0.1,0.1-0.4,0
			C-528.1,404.2-528.1,404-528,403.9L-528,403.9z M-528,403.1c0.1,0,0.3,0.1,0.3,0.1s0.1,0.1,0,0.3c-0.1,0.2-0.1,0-0.1,0
			s-0.3-0.1-0.3-0.2C-528.1,403.1-528.1,403.1-528,403.1L-528,403.1z M-528.1,393.8c0-0.4,0.4-0.2,0.5-0.2c0,0,0.2,0.4,0,0.8
			c-0.1,0.4-0.1,0.1-0.5,0C-528.3,394.4-528.1,394.2-528.1,393.8L-528.1,393.8z M-527.2,402.3c0,0,0,0,0,0.3s-0.3,0.3-0.3,0.3
			l-0.3-0.1c0,0,0-0.4,0.1-0.5c0-0.1,0.1-0.1,0.4-0.2C-527,402-527.2,402.3-527.2,402.3L-527.2,402.3z M-526.9,403.3l-0.2,0.3
			l-0.2-0.1L-526.9,403.3L-526.9,403.3z M-526.5,401.8c1-0.9,1.5-1.3,2-2c0.5-0.8,0.6-1,1.2-1s1.6-0.5,1.8-1.2s0.3-0.9,0.9-0.8
			c0.6,0,1.6,0,2.9-0.9c1.3-0.9,2.5-0.6,2.7-0.3c0.1,0.3,0.4,1.2-0.3,2.2c-0.4,0.5-0.7,1.4-1.5,1.5c-0.9,0.1-3,0.2-3.6,0.6
			c-0.5,0.4-1.1,1.7-2.1,2.3c-1,0.6-1.3,0.5-2.3,0.7s-1.6,0.3-1.8,0.2C-526.6,402.9-527.4,402.7-526.5,401.8L-526.5,401.8z
			 M-524,390c0,0,0.3,0.3,0.2,0.4c0,0.1-0.1,0.1-0.4,0.1c-0.3,0,0,0-0.2-0.1C-524.7,390.2-524.3,390.1-524,390L-524,390z
			 M-524.5,388.1c-0.3,0.5,0,0-0.2-0.1s0-0.1,0-0.3c0,0,0.1-0.3,0.2-0.3c0.1,0,0.3,0,0.3,0S-524.1,387.6-524.5,388.1L-524.5,388.1z
			 M-523.9,389.2c0,0,0.2,0.1,0.3,0.3s-0.1,0.2-0.1,0.2s-0.1,0-0.3-0.2L-523.9,389.2L-523.9,389.2z M-523.1,389.9
			c0.2-0.2,0,0,0.1,0.1s0,0.1-0.1,0.5c-0.1,0.3-0.3-0.1-0.3-0.2C-523.4,390.3-523.3,390.1-523.1,389.9L-523.1,389.9z M-521.6,389.1
			c0.4-0.2,0.9-1.1,1.2-1.6c0,0,0.8-0.1,1-0.1s0.9,0.4,1.3,0.6c0.4,0.3,0.5,1.8-0.2,2.3s-1.4,1.8-2.1,2.1c-0.8,0.3-2-1.2-2-1.7
			C-522.5,390.1-522,389.3-521.6,389.1L-521.6,389.1z M-520.5,386.7c0.2-0.1-0.1-0.1,0.2-0.1s0.5-0.1,0.5,0c0.1,0.1,0.1,0.3,0.1,0.3
			l-0.7,0.1C-520.3,387-520.7,386.9-520.5,386.7L-520.5,386.7z M-518.7,386.9l0.1-0.2c0,0,0-0.2,0.2-0.2s0-0.1,0.2,0
			s0.1-0.2,0.2,0.1c0,0.3,0.2,0.1,0,0.3c-0.2,0.2-0.5,0.3-0.5,0.3C-518.7,387-518.8,387-518.7,386.9L-518.7,386.9z M-517.5,387.1
			c0.3,0,0,0,0.2,0s0,0.1,0,0.4s-0.2,0.1-0.4,0l-0.1-0.4H-517.5L-517.5,387.1z M-511.9,400.4c0.1,0,0.1,0,0.1,0l-0.1,0.2l-0.3-0.2
			C-512.2,400.5-512,400.4-511.9,400.4L-511.9,400.4z M-512.1,399.5l0.1-0.1l0.3,0.4c-0.2,0.1-0.3,0.3-0.4,0.2
			C-512.1,399.7-512.2,399.6-512.1,399.5L-512.1,399.5z M-511.4,400.1c0.1-0.3,0.2-0.5,0.2-0.5c0.1,0.3,0.3,0.4,0.2,0.7
			s0.1,0.5-0.1,0.4s-0.3,0-0.3-0.3C-511.4,400.1-511.5,400.3-511.4,400.1L-511.4,400.1z M-509.3,402c-0.1,0.1,0,0-0.1-0.2s0,0,0-0.2
			l0.1-0.1c0,0,0.1,0.1,0.2,0.3C-509.1,401.9-509.2,401.9-509.3,402L-509.3,402z M-508.5,402.4c0,0.2-0.1,0.3-0.3,0.3
			c-0.1,0-0.2-0.2-0.2-0.5c0,0,0.3-0.1,0.5,0C-508.3,402.3-508.5,402.1-508.5,402.4L-508.5,402.4z M-508.5,401.6c-0.1,0.3,0,0-0.3,0
			s-0.2-0.1-0.2-0.4s0.4-0.2,0.5-0.3C-508.4,400.9-508.4,401.3-508.5,401.6L-508.5,401.6z M-510.7,398.9c0.3-0.4,0.5-0.5,1.1-0.8
			c0.6-0.2,0.6,0.1,0.9-0.4c0.4-0.5,0.5,0.1,0.5,0.6v0.9c0,0.5-0.3,0.9-0.9,1.5c-0.6,0.7-0.8,0-1.2-0.5
			C-510.7,399.9-511,399.4-510.7,398.9L-510.7,398.9z M-508.4,396.7c0.1-0.1,0-0.2,0.5-0.1s0,0.3,0,0.7c0,0.4-0.3,0.2-0.5,0
			C-508.7,397-508.5,396.8-508.4,396.7L-508.4,396.7z M-507.3,409.3c0,0,0.1-0.1,0.3-0.1c0.2,0,0,0,0.1,0.1s0,0.3-0.3,0.4
			S-507.3,409.5-507.3,409.3L-507.3,409.3z M-506.5,409.8c0,0,0,0-0.1,0.3s0,0-0.1,0s-0.2,0-0.2-0.1L-506.5,409.8L-506.5,409.8z
			 M-506.1,408.1c0.1-0.4,0.5-0.3,0.9-0.1c0.4,0.2,0,0,0,1s-0.7,0.5-1.1,0.7s-0.5-0.8-0.5-1.1S-506.2,408.4-506.1,408.1
			L-506.1,408.1z M-503.9,435c0.3,0,0,0.2-0.2,0.3c-0.1,0.1-0.3,0.1-0.4,0.1c0,0-0.2-0.4,0.3-0.4C-503.8,434.9-504.2,435-503.9,435
			L-503.9,435z M-502.8,434.7c0,0.1-0.3,0.2-0.5,0.3c0,0,0.2-0.4,0.5-0.4C-502.4,434.7-502.8,434.6-502.8,434.7L-502.8,434.7z
			 M-502.1,433.2c-0.1,0.5-0.4,0.5-1,1.1c-0.7,0.7-2.7,0.6-3.3,0c-0.7-0.5-0.4-0.6-0.2-1c0.2-0.4,0.3-1,0-1.4
			c-0.6-0.9,1-1.2,1.9-0.9c0.8,0.3,0.6,0.2,1.8,0.7C-501.8,432.3-502,432.7-502.1,433.2L-502.1,433.2z M-501.7,433.8
			c0,0,0,0.1-0.1,0.3c-0.1,0.1-0.3,0.1-0.4,0.1c0,0-0.1-0.4,0.1-0.6c0.1-0.2,0.1,0,0.3,0C-501.6,433.6-501.7,433.8-501.7,433.8
			L-501.7,433.8z M-501.1,410.7c-0.1,0-0.3-0.1-0.3-0.1s0-0.2,0.3-0.2s0.1,0,0.1,0.1C-500.9,410.6-501,410.6-501.1,410.7
			L-501.1,410.7z M-501,411.1l0.2,0.1v0.3c0,0.1-0.2-0.1-0.2-0.1V411.1L-501,411.1z M-497.5,421c0,0,0-0.3,0-0.4s0.1,0,0.3,0.1
			c0.1,0.1,0.1,0.1,0,0.4C-497.2,421.4-497.4,421.1-497.5,421L-497.5,421z M-497.5,421.8c-0.1,0.4,0,0-0.2-0.1s0-0.3,0-0.3l0.3,0.1
			C-497.4,421.5-497.4,421.5-497.5,421.8L-497.5,421.8z M-499.4,422.9c-0.2-0.4,0.4-0.6,0.7-0.9c0.5-0.4,1.1,0,1.2,0.5
			s0.1,0.4-0.3,1.3C-498.2,424.7-499.2,423.3-499.4,422.9L-499.4,422.9z M-499.6,411c0,0,0.4,0.1,0.4,0.2s-0.2,0.1-0.3,0.1
			L-499.6,411L-499.6,411z M-500.5,410.7c0,0,0.4-0.2,0.4,0c0.1,0.2-0.1,0.2-0.3,0.3c-0.1,0.1,0,0-0.3,0
			C-500.8,410.9-500.5,410.8-500.5,410.7L-500.5,410.7z M-500.2,427.4c0.4-0.5,0.8-0.2,1,0.4c0.2,0.7,0,0.7-0.4,1.1
			s-0.9-0.7-0.9-0.9C-500.6,427.7-500.3,427.5-500.2,427.4L-500.2,427.4z M-489.9,411.5c0.1,0.4,0,0.3-0.2,0.6
			c-0.2,0.3-0.3,0.2-0.7,0.4c-0.4,0.2-2.3,0.4-3.1,0.2c-0.8-0.2-0.9-0.9-0.9-1.2c0-0.3,0.5-0.5,0.9-0.7h0.6c0.4,0,0.5-0.3,1.1-0.4
			s0.5,0,1.6,0.3C-489.6,411-490,411.2-489.9,411.5L-489.9,411.5z M-502.7,403.3c0-0.3,0.3-0.8,0.4-1s0.3-1.5,0.3-1.5l-0.1-3.4
			c0,0-0.2-0.1-0.2-0.2v-1.1c0-0.3,0-0.3,0.3-0.7c0.3-0.4,1.1-0.6,1.3-0.7c0.3-0.1,0.4,0,0.8-0.1s0.7-0.1,1.2-0.3
			c0.6-0.1,0.7-0.1,0.9-0.2c0.2-0.1,1.1,0,1.3,0c0.2,0,0.9,0,1.2,0c0.3,0,1.3,0.1,2.1,0.1c0,0,0.5,0.1,0.7,0
			c0.3-0.1,0.4-0.1,0.5-0.2s0.3-0.1,0.5-0.3c0.2-0.2,0.3-0.3,0.4-0.4s0.4-0.6,0.5-0.8c0.1-0.2,0.4-0.5,0.4-0.5s0.1-0.2,0.5-0.2
			s0.2,0,0.2,0h0.5c0.2,0,0.4,0.1,0.4,0.1s0.2,0.1,0.5,0.4c0.3,0.2,0.3,0.3,0.4,0.6c0.1,0.3,0,1.1,0,1.5c-0.1,0.4-0.6,1-0.7,1.2
			c-0.1,0.1-0.1,0.4-0.1,0.8s0.3,1.1,0.3,1.1l0.1,3.6l0.1,0.4v2.7c0,0.3-0.1,0.7-0.1,0.9c0,0.3-0.3,0.4-0.4,0.5s-0.3,0.5-0.4,0.7
			c-0.1,0.1-0.8,0.5-1.1,0.7c-0.3,0.2-0.7,0.2-1.2,0.2s-2.2,0.1-2.9,0c-0.8,0-1.3,0-1.8,0c-0.4,0.1-0.7,0-1.3-0.1
			c-0.6-0.1,0,0-0.3,0.2s-0.5,0-1,0s-0.6,0-0.9-0.1s-0.9-0.2-1.2-0.4c-0.2-0.2-0.6-0.4-0.7-0.7c-0.1-0.2-1.2-1.5-1.2-1.7
			C-502.8,404-502.7,403.6-502.7,403.3L-502.7,403.3z M-552,390.9c0,0-0.2-0.2,0.3-0.4c0.5-0.2,0,0,0.2,0.3
			C-551.2,391.2-551.6,391.1-552,390.9L-552,390.9z M-552.6,403.5c-0.1,0-0.2,0-0.2-0.1l-0.1-0.1c0,0,0,0,0.3-0.3s0,0,0.3,0.1
			C-552.2,403.2-552.5,403.4-552.6,403.5L-552.6,403.5z M-553.2,402.5c0,0,0-0.1,0-0.4c0-0.2,0,0,0.1,0s0.3,0.1,0.3,0.3
			C-552.8,402.6-552.9,402.5-553.2,402.5L-553.2,402.5L-553.2,402.5z M-553.2,403.7c0.1,0.1-0.4,0.1-0.4,0.1v-0.4c0,0,0,0,0.3,0.1
			C-553,403.7-553.3,403.6-553.2,403.7L-553.2,403.7z M-553.2,389.4c0.1-0.3,0.7,0.2,0.7,0.2c0.1,0.3-0.1,0.4-0.3,0.4
			s-0.4,0.1-0.4-0.1C-553.2,389.8-553.3,389.7-553.2,389.4L-553.2,389.4z M-480.6,426.9c0-0.2,0.1-0.6,0.1-1.1
			c-0.1-0.5-0.1-0.5-0.3-0.9s-0.2-0.3-0.2-0.5c0-0.3,0.2-2.8,0.3-3.2c0-0.3,0-0.5,0.1-1.1s0.3-3.9-0.1-5.3s-0.8-2.2-0.8-2.4
			c-0.1-0.2,0-0.5-0.3-0.6s-0.6,0.3-0.3-0.1c0.3-0.4,0.2,0,0.3-0.4c0.1-0.4,0.2-0.4,0.2-0.7c0-0.3,0-0.6,0.1-1.1
			c0.1-0.4,0.1-0.9,0.1-1.1c0-0.1-0.3-2.9-0.3-3.5c0-0.5-0.1-0.9,0-1.1c0.1-0.3,0.3-0.4,0.3-0.8c0.1-0.4,0-0.3,0.1-0.8
			s0.1-0.7,0.1-0.9c0.1-0.2,0-1.3,0-1.7v-0.9c0-0.5-0.3-1.9-0.3-2s0.2,0,0.2-0.3s0-1.2,0-1.2s-0.1-0.1-0.1-0.2s-0.1-1.3-0.1-1.3
			s0-0.2-0.1-0.3c0-0.1-0.1-0.3-0.1-0.3s0-2.7-0.5-3.6c-0.5-1-1.5-1.2-1.7-1.5c-0.2-0.2-0.3-0.4-0.7-0.5c-0.4-0.1-0.8-0.2-1.2-0.3
			c-0.4,0-0.9-0.1-1.1-0.1s-0.5-0.1-0.8,0c-0.3,0-0.8,0.3-1.1,0.3h-1.9c-0.4,0-1.3-0.1-1.6-0.1c-0.3,0-0.8-0.1-1-0.1s-0.4-0.1-0.7,0
			s-0.8,0-1.2,0.2c-0.5,0.1-0.7,0.3-1.1,0.3s-1.2,0-1.2,0s-2.7-0.3-3.4-0.3c-0.7,0-3.9-0.3-4.2-0.3c-0.3,0-2.5-0.3-2.9-0.3
			s-0.5-0.1-1.1,0c-0.6,0-0.9,0-1.2,0c-0.3,0,0,0-0.8,0s-4.8-0.1-4.8-0.1s-1.1-0.2-1.7-0.4s-0.3-0.2-0.9-0.2c-0.6,0-0.7,0-1.1,0
			c-0.4,0-0.9,0.1-1.3,0.1c-0.4,0-0.6,0-1.3,0s-1.1,0-1.2,0c-0.2,0-0.1,0-0.4,0c-0.3,0-0.5,0.1-0.7,0.1c-0.1,0-0.5,0.2-0.7,0.3
			c-0.2,0.1-0.3,0.3-0.3,0.6s0.1,1,0.1,1s0.6,0,0.8,0.6c0.1,0.6-0.1,1-0.4,1c-0.4,0-0.8-0.5-0.8-0.8s0.3-0.9,0.1-1.6
			c-0.3-0.7-0.5-0.7-0.8-0.8c-0.3-0.1-0.3-0.2-0.8-0.2c-0.6,0-0.6,0-0.8,0s0,0.1-0.4,0.1c-0.5,0-0.7,0-0.9,0s-0.7,0-0.7,0l-0.1,0.3
			h-1.1l-0.2-0.2h-1.3c-0.3,0-1.6,0.1-1.8,0.1h-0.5c0,0-0.5,0.1-0.7,0.1h-0.3c0,0-0.5-0.1-0.7-0.1s-0.4-0.1-0.6-0.2
			c-0.2,0-2.9-0.4-3.4-0.4s-4.1-0.1-4.2-0.1c-0.1,0-0.6,0.2-0.9,0.3c-0.3,0-0.5,0-0.9,0.1s-0.9,0.3-1.5,0.4c-0.6,0-1.3,0.1-1.9,0.2
			c-0.6,0.1-0.8,0.1-0.9,0.3c-0.2,0.2-0.1,0.3-0.4,0.4c-0.3,0.1-0.4,0-0.6,0.1c-0.2,0.1-0.4,0-0.6,0.2c-0.3,0.2-0.7,0.4-0.7,0.7
			c0,0.3-0.3,0.7-0.3,1.1c-0.1,0.4-0.6,0.8-0.8,1s-0.5,0.5-0.7,0.6c-0.1,0.1-0.3,0.5-0.3,0.5s0,2.7,0,2.9c0,0.1-0.1,0.1-0.1,0.3
			c0,0.2-0.1,0.5-0.1,0.5s-0.1,4.1-0.1,4.2s-0.1,1.1-0.2,1.2c0,0.1,0,0.4-0.1,0.6c-0.2,0.2-0.2,0.2-0.3,0.6s-0.1,1.3-0.1,1.5
			s0.4,1.2,0.4,1.2v4h0.2v1.2c0,0.1-0.1,0.5-0.1,0.6s-0.2,4-0.2,4.1s0.3,7,0.3,7.5s0,0.8,0,1.4v1.1c0,0.1,0.3,5.2,0.3,5.3
			c0,0.1-0.1,1.4-0.1,1.9s0,0.9-0.1,1.5c0,0.5,0,0.6,0,0.9s0,3,0,3l0.2,0.8c0,0,0,0.3,0,0.6c0,0.3,0.1,0.9,0,1s-0.1,0.3-0.1,0.3
			s0,1.5,0,1.7s-0.1,0.4,0,0.5c0,0.1,0,0.1,0.1,0.4s0.1,1.3,0.1,1.3s0.1,0,0.2,0.3c0,0.2,0.1,1.7,0.1,2s-0.1,2.8-0.1,2.9
			s0,1.1,0,1.2s0.1,0.8,0.7,1.6c0.6,0.8,1.6,1.5,2,1.9c0.4,0.5,0.1,0.2,0.4,0.5c0.3,0.3-0.3,0.2,0.5,0.5s1.5,0.3,1.5,0.3l0.4-0.1
			c0,0,1.9,0,2,0.1s0.2,0.1,0.7,0.2c0.4,0,1.1,0,1.2,0c0.1,0,0.1-0.1,0.4-0.1c0.3,0,3.7-0.1,4.2,0s2.3,0.1,2.7,0.1s0.7,0,1.2,0
			s0.7-0.1,0.9,0c0.1,0.1,0.8,0.3,1.3,0.3c0.5,0.1,0.9,0.1,1.2,0.1s0.7,0,1.1-0.1c0.4-0.1,0.8-0.4,1.6-0.4h1.3
			c0.1,0,2.6,0.1,3.4,0.2c0.8,0.1,1.6,0.1,2,0s0.5-0.1,0.8-0.2c0.3,0,1-0.1,1.4-0.1s1.1-0.1,1.5-0.1h1.4c0.5,0,0.9,0,1.2,0
			c0.2,0,0.5-0.1,0.9-0.2c0.3-0.1,1.1-0.1,1.7,0c0.6,0.1,1.5,0,1.7,0.1c0.2,0,6.7,0.1,6.7,0.1s0.6-0.1,0.8-0.1c0.2,0,1.2,0,1.3,0
			c0.2,0,0.8-0.1,1.1,0c0.2,0.1,0.6,0.2,1,0.2s0.5,0,0.7,0c0.3,0,0.3,0,0.6-0.1c0.3,0-0.1,0.2,0.3,0s0.8-0.4,1.3-0.4
			s1.4,0.1,1.5,0.2s0.2,0.1,0.4,0.1c0.3,0,0.1,0,0.4-0.1s0.9-0.5,1.2-0.5c0.3,0,1-0.1,1.3-0.1s1.8,0.4,2,0.4h1.2
			c0.4,0,2.1-0.6,2.5-0.8c0.4-0.2,0.7-0.3,0.8-0.6c0.1-0.3,0-0.3,0.1-0.5c0-0.2,0-0.3,0.1-0.4s0.6-0.6,0.7-0.8
			c0.1-0.2,0.3-0.5,0.9-0.5c0.5,0,1.5-0.1,1.6,0.1s0.6,0.9,0.8,1.1c0.2,0.2,0.1,0.2,0.4,0.4c0.3,0.2,0.5,0.4,0.7,0.4
			c0.3,0,0.7-0.4,1.1-0.6s1.7-2.2,1.7-2.5s0-0.1,0-0.7v-0.9v-0.8c0-0.4,0.1-0.4,0-0.7c-0.1-0.3-0.1-0.6-0.2-0.8
			c-0.1-0.3-0.4-0.9-0.4-1.1c-0.1-0.2-0.1-0.2-0.2-0.6c0-0.4,0-0.9,0-1.2s0.1-0.8,0.2-1.1c0.1-0.4,0.2-0.4,0.2-0.7v-0.6
			c0-0.2,0-0.5,0-0.9s0-5.5,0-5.5l0.3-0.4c0,0-0.1-1.7-0.1-1.9v-0.7v-0.8c0,0-0.1,0.3-0.1-0.7c0-0.9-0.2-1.3,0-1.5
			C-480.9,428.1-480.6,427.1-480.6,426.9L-480.6,426.9z"/>
		<path id="Fill-11" sketch:type="MSShapeGroup" class="st0" d="M-519.5,433.9c0-0.3,0.6,0,0-0.3c-0.6-0.2-0.4-0.4-0.6-0.2
			c-0.2,0.2,0,0.6,0,0.6C-519.9,434-519.5,434.2-519.5,433.9"/>
		<path id="Fill-12" sketch:type="MSShapeGroup" class="st0" d="M-518.5,434.3c0.2,0,0.3-0.2,0.3-0.2s-0.1-0.2-0.3-0.2
			s-0.1-0.2-0.2,0C-518.7,434.1-518.5,434.3-518.5,434.3"/>
		<path id="Fill-13" sketch:type="MSShapeGroup" class="st0" d="M-485.2,452.6c-0.3-0.1-0.6-0.4-0.9-0.1s-0.5,0.4-0.4,0.8
			c0.1,0.3-0.1,0.4,0.3,0.5s0.7,0.1,1,0.1c0.3-0.1,0.7,0,0.7-0.2s0.2-0.1,0-0.4C-484.6,452.9-485.2,452.6-485.2,452.6"/>
	</g>
</g>
</svg>
