<?xml version="1.0" encoding="utf-8"?>
<!-- Generator: Adobe Illustrator 19.0.1, SVG Export Plug-In . SVG Version: 6.00 Build 0)  -->
<!DOCTYPE svg PUBLIC "-//W3C//DTD SVG 1.1//EN" "http://www.w3.org/Graphics/SVG/1.1/DTD/svg11.dtd">
<svg version="1.1" id="Layer_1" xmlns:sketch="http://www.bohemiancoding.com/sketch/ns"
	 xmlns="http://www.w3.org/2000/svg" xmlns:xlink="http://www.w3.org/1999/xlink" x="0px" y="0px" viewBox="-560 389.9 70 62"
	 style="enable-background:new -560 389.9 70 62;" xml:space="preserve">
<style type="text/css">
	.st0{fill:#FD754D;}
</style>
<g id="Page-1" sketch:type="MSPage">
	<g id="twitter-icon" sketch:type="MSLayerGroup">
		<path id="Fill-1" sketch:type="MSShapeGroup" class="st0" d="M-537.8,442.4c-0.2,0.3-0.3,0.1-0.2,0.5c0.1,0.4-0.1,0.5,0.3,0.5h0.7
			c0.2,0,0.1,0.1,0.4,0c0.2-0.1,0.3-0.1,0.3-0.3c0.1-0.3,0.2-0.6,0.1-0.7s-0.3,0-0.3,0c-0.3,0-0.8,0-0.9,0
			C-537.6,442.4-537.6,442.2-537.8,442.4"/>
		<path id="Fill-2" sketch:type="MSShapeGroup" class="st0" d="M-538.4,442.2l0.1-0.3c0,0-0.1-0.4-0.3-0.4s-0.3,0.1-0.3,0.2
			c0,0.1,0,0.2,0,0.4C-538.9,442.4-538.6,442.3-538.4,442.2"/>
		<path id="Fill-3" sketch:type="MSShapeGroup" class="st0" d="M-536.6,442c0.1-0.5,0.3-0.5,0.1-0.5c-0.1,0-0.3-0.1-0.3,0
			c0,0.1-0.2,0.5-0.2,0.5C-536.8,442-536.7,442.6-536.6,442"/>
		<g id="Group-7" sketch:type="MSShapeGroup">
			<path id="Fill-4" class="st0" d="M-501.2,408.6c-0.4,0.3-2.1,2.3-2.5,2.6c-0.4,0.3-1.6,1.5-2.5,3c-0.9,1.5-2.4,0.2-2.4-0.4
				c0-0.7,0.6-1.6,1.1-2.2c0.5-0.6,0.4-1.6,0.9-1.8c0.5-0.2,0.3-1.1,0.9-1.2c0.5-0.1,0.9-1.4,1.2-1.6c0.3-0.3,0.1-0.3,0.2-0.8
				c0-0.5,0.1-0.9,0.4-1.2c0.3-0.3,0.3-0.6,1.2-1.2c1.5-1.1,2.2,0.5,2.6,1.8C-499.7,406.8-500.8,408.4-501.2,408.6L-501.2,408.6z
				 M-504.6,424.4c0,0,0.4-0.5,0.4-0.7c0-0.1,0.6-0.2,0.7,0c0.1,0.2,0,0.5-0.1,1C-503.8,425.2-504.3,424.5-504.6,424.4L-504.6,424.4
				z M-503.8,427.1c-0.1,0.8-1.2,0.6-1.7,0.4c-0.4-0.2-0.4-0.9-0.3-1.2c0-0.1,0-0.1,0-0.1c0,0,0.4-1,0.8-1.3s0.6-0.1,1.3,0.3
				C-503,425.5-503.7,426.3-503.8,427.1L-503.8,427.1z M-506.9,430.7c0,0.4-0.5,0.6-1.1,0.8c-0.5,0.2-0.4-0.6-0.3-1.1
				c0,0-0.1-0.9,0.1-0.9c0.1,0,0.3,0,1.1,0.3C-506.3,430-506.9,430.3-506.9,430.7L-506.9,430.7z M-508.3,410.2
				c0.3-0.3,0.4,0.1,0.6,0.1c0,0,0.1,0.4,0,0.6c-0.1,0.2-0.4,0.1-0.5,0c-0.2-0.1-0.1,0-0.4-0.2
				C-508.8,410.5-508.5,410.4-508.3,410.2L-508.3,410.2z M-509,409.7c0,0.1-0.3,0.1-0.5-0.1c-0.1-0.1,0.1-0.2,0.5,0
				C-508.5,409.8-508.9,409.6-509,409.7L-509,409.7z M-509.5,411.2c-0.2,0.1-0.1,0.1-0.8,0.1s0-0.1,0-0.1s0.1-0.1,0.2-0.3
				c0.1-0.2,0.5-0.3,0.7-0.3c0,0,0.1,0.2,0.1,0.3S-509.3,411.1-509.5,411.2L-509.5,411.2z M-511,426.9c0,0.2-0.3,0.2-0.3,0.1
				l-0.3-0.2c0,0,0,0,0.6-0.1C-510.4,426.6-511,426.7-511,426.9L-511,426.9z M-512,427.7c-0.6,0.4-0.4,1.5-0.3,3
				c0.1,1.5-1.2,0.8-1.4,0.4c-0.3-0.4,0-1.3,0-1.3s-0.1-1-0.4-1.8c-0.3-0.8,0-1,0.2-1.3c0.2-0.3,1.2-0.3,1.6-0.2
				C-511.8,426.7-511.4,427.3-512,427.7L-512,427.7z M-513.9,434.8c-0.1,1.6-1.3,1.6-1.8,1.2c-0.5-0.4-0.1-1.5-0.1-2.3
				c0-0.8,0.3-1.1,0.6-1.2c0,0,0.7-0.2,0.9-0.1C-514,432.6-513.8,433.2-513.9,434.8L-513.9,434.8z M-512.1,426.4c0,0.1-0.3,0-0.4,0
				c-0.1,0-0.2-0.2-0.2-0.2l0.3-0.2l0.2,0C-512.2,426.1-512.1,426.3-512.1,426.4L-512.1,426.4z M-516.1,421.6c-1.2,0-1.5,0-2.1,0.2
				c-0.6,0.2-1.6,0.6-1.8-0.2c-0.3-0.8-1-2.8-2.1-2.7c-1.1,0.1-0.9,0.4-1.7,0.5c-0.8,0-1.1-0.1-1.2,0.1c-0.1,0.2-0.2,0.8-1.4,0.6
				c-1.2-0.2-1.3-0.3-1.7-0.3c-0.4,0-1.2,0.2-1.2,0.2c-0.1,0-0.3,0.3-0.9,0c-0.5-0.3-1.9-1-2.1-1.3c-0.1-0.3-0.3-0.7-0.2-0.9
				c0.1-0.2,0.9-0.2,0.1-0.9c-0.8-0.7-2.2-1.5-2.4-1.6c-0.3-0.1-0.8-0.3-1.1-0.4c-0.3-0.1-1.2-0.7-0.5-1.3c0.6-0.7,1.8-1.2,2.5-0.9
				c0.8,0.2,1.6,0.6,2.6,0.6c1,0,1.8-0.2,2.9,0.8s0.4,1.9,0.4,2.5c0,0.7,1.3,1.6,2.4,0.2c1-1.4,1.8-2.9,2.5-2
				c0.7,0.9,1.7,2.5,2.4,2.5c0.7,0,2.9,0,3.6,0.4c0.8,0.4,1.3,0.6,1.9-0.4c0.6-1,0.7-1.6,1.9-1.2c1.2,0.4,1.7,2,1.3,2.7
				c-0.4,0.7-0.8,1.5-1.8,1.7c-1,0.2-1,0.4-1.5,0.7C-515.6,421.6-514.9,421.6-516.1,421.6L-516.1,421.6z M-517,430.1
				c0,0.6-0.4,0.8-0.7,1c-0.6,0.4-1.1-0.6-1.1-1.1c0-0.5,0.1-0.5,0.3-1c0.3-0.5,0.3-0.4,0.9-0.7c0.6-0.3,0.3,0,0.5,0.5
				C-516.8,429.3-517,429.5-517,430.1L-517,430.1z M-517.8,431.8c0,0.3-0.2,0.1-0.7,0c-0.4,0,0,0,0-0.1c0,0,0-0.2,0.2-0.3
				c0.1-0.1,0,0,0.4,0C-517.5,431.5-517.7,431.6-517.8,431.8L-517.8,431.8z M-518.2,432.9c-0.1,0.5-0.4,0-0.5-0.3
				c0,0,0.2-0.2,0.4-0.3c0.2-0.1,0.3,0.1,0.3,0.1S-518,432.4-518.2,432.9L-518.2,432.9z M-518.8,431.3c0,0.1,0,0.4-0.1,0.7
				c0,0.3-0.3,0.2-0.6,0.1c0,0-0.2-0.5,0-0.8c0.1-0.3,0.1-0.3,0.4-0.3C-518.7,430.9-518.8,431.1-518.8,431.3L-518.8,431.3z
				 M-520.2,423c-0.3-0.3-0.1-0.4,0.1-0.5c0,0,0.4,0.1,0.7,0.2c0.3,0.1,0,0.2,0,0.2s-0.2,0.1-0.5,0.4
				C-520.3,423.5-519.9,423.2-520.2,423L-520.2,423z M-519.1,434.3c-0.1,0.7-0.1,1,0,1.6c0,0.6-1.1,1.2-2,0.9
				c-0.9-0.3,0-1.3,0.3-1.7c0.4-0.5,0.5-0.6,0.8-1c0.3-0.4-0.1-1.2,0.1-1.6c0.3-0.5,0.7,0.1,0.9,0.8
				C-518.7,434-518.9,433.6-519.1,434.3L-519.1,434.3z M-520.7,421.6c0,0,0.3,0.1,0.3,0.2s-0.1,0.3-0.3,0.3c-0.2,0-0.1,0-0.4-0.1
				C-521.3,421.9-521.1,421.8-520.7,421.6L-520.7,421.6z M-524.8,421.7c0,0-0.4-0.1-0.4-0.3l0.3-0.1c0,0,0.1,0,0.2,0.2
				C-524.7,421.6-524.8,421.7-524.8,421.7L-524.8,421.7z M-524.9,420.8c-0.2,0.2-0.3,0-0.4-0.3l0.5-0.3c0,0,0,0,0.2,0.2
				C-524.4,420.7-524.7,420.6-524.9,420.8L-524.9,420.8z M-523.9,424.5c-2.1-0.5-2.1-1.6-1.7-2.3c0.4-0.8,0.9,0.1,1.9,0.1
				c1.7,0.1,2.4-0.2,2.9,0.7C-520.2,424-521.7,425.1-523.9,424.5L-523.9,424.5z M-526.2,421.5c-0.4-0.3,0-0.4,0-0.6
				c0,0,0.6,0,0.7,0.3c0.1,0.3,0,0.3,0,0.6C-525.5,422-525.9,421.8-526.2,421.5L-526.2,421.5z M-526.1,422.3c0,0.3-0.1,0.2-0.2,0.2
				c-0.1,0-0.2-0.4-0.3-0.7c0,0,0.3,0,0.4,0C-526,421.9-526.1,422-526.1,422.3L-526.1,422.3z M-527.3,421c-0.5-0.1,0,0,0-0.1
				c0,0,0.3-0.4,0.5-0.4c0.1,0,0.3,0.1,0.3,0.1s0,0.1-0.3,0.5C-527,421.5-526.8,421.2-527.3,421L-527.3,421z M-528.2,421
				c-0.3,0,0,0-1-0.3c-1-0.3,0-0.3,0.2-0.3c0.2,0,0.8,0,1.1,0.1C-528,420.5-528,421-528.2,421L-528.2,421z M-528.2,422.8
				c0,0.3-0.5-0.1-0.4-0.3c0,0,0.3-0.2,0.4-0.3C-528,422.2-528.1,422.5-528.2,422.8L-528.2,422.8z M-531.8,429
				c-0.1,0-0.3-0.1-0.5-0.5c-0.1-0.4,0.3-0.9,0.4-0.8c0.2,0.1,0.3,0.4,0.3,0.6C-531.5,428.7-531.7,429-531.8,429L-531.8,429z
				 M-521.8,413.1c0,0.3-0.2,0.2-0.5,0.1c-0.3-0.1,0,0-0.4-0.3c-0.4-0.3,0-0.2,0.4-0.2C-522.3,412.8-521.8,412.9-521.8,413.1
				L-521.8,413.1z M-523.2,410.1c0-1.3,1-1.5,1.4-1.5c0,0,0.5,0.6,0.7,0.9c0.2,0.3,0.2,0.5,0.3,1.2c0.1,0.6,0,1-1,1.6
				C-522.7,412.8-523.2,411.3-523.2,410.1L-523.2,410.1z M-519.2,400c0.1-0.1,0.2,0,0.2,0v0.3c0,0.1-0.1,0-0.1,0
				S-519.4,400.1-519.2,400L-519.2,400z M-518.9,401.2c0,0,0,0,0,0.1c0,0.1-0.2,0-0.2,0l-0.1-0.3h0.2
				C-518.8,401-518.9,401.2-518.9,401.2L-518.9,401.2z M-518.9,402.4c0,0-0.1-0.1-0.3-0.1s0-0.4,0-0.4s0.3,0,0.5,0.1
				C-518.4,402-518.7,402.2-518.9,402.4L-518.9,402.4z M-518.5,400.3c0,0,0,0,0.4,0.1c0.4,0.1,0,0.4,0,0.4s-0.2,0-0.3,0l-0.2-0.1
				L-518.5,400.3L-518.5,400.3z M-517.8,399.6c0-0.1,0.1-0.2,0.3-0.2c0.2,0,0.2,0.1,0.2,0.1s-0.2,0.3-0.4,0.3
				C-518,399.6-517.8,399.7-517.8,399.6L-517.8,399.6z M-518.5,401.4c0,0,0.3-0.2,0.4-0.1c0.1,0,0,0.1-0.1,0.4
				C-518.2,401.8-518.3,401.6-518.5,401.4L-518.5,401.4z M-518.2,402.6c0,0,0-0.4,0-0.6c0-0.2,0,0,0.7,0.3
				C-516.9,402.5-517.9,402.7-518.2,402.6L-518.2,402.6z M-517.8,404.2c-0.3,0.1-0.5-0.1-0.5-0.3c0,0-0.1-0.4,0.2-0.5
				c0.3-0.1,0.1,0,0.6,0.4C-517,404.2-517.5,404-517.8,404.2L-517.8,404.2z M-516.3,408.9c0,0-0.1,0.2-0.2,0.4
				c-0.1,0.2-0.3,0.1-0.5,0c-0.3-0.1,0-0.3,0-0.4l0.1,0.1l0.3-0.2L-516.3,408.9L-516.3,408.9z M-517,408.4c-0.6,0.3-0.9-0.9-1.1-1.6
				c0,0-0.2-1.1-0.1-1.6c0-0.6,0.2-0.5,0.6-0.7c0.4-0.2,0.4,0.1,0.7,0.5c0.2,0.4,0.2,0.3,0.7,1.3
				C-515.8,407.3-516.4,408.2-517,408.4L-517,408.4z M-517,396.1c0-0.3,0.3-0.2,0.8-0.2c0.4,0,0,0.7,0,0.9c0,0-0.3,0.5-0.5,0.5
				c-0.3,0-0.2-0.1-0.4-0.6C-517.4,396.2-517.1,396.4-517,396.1L-517,396.1z M-515.7,408.3c0.2,0.2,0,0,0,0.1c0,0.1-0.2,0.1-0.4,0
				l0-0.2C-516.1,408.2-515.9,408.1-515.7,408.3L-515.7,408.3z M-512.4,401.2c0.5,0,0.4,0.2,0.7,0.5c0.4,0.3,0.4,0.6,0.4,1.3
				c0,0.7-0.5,0.9-1.2,1.4c-0.7,0.5-1.2-1.2-1.2-1.5C-513.6,401.2-512.9,401.2-512.4,401.2L-512.4,401.2z M-512.1,394.9
				c0.2-0.1,0.3-0.1,0.5-0.1c0.3,0,0.5,0.4,0.5,0.4c-0.1,0.3-0.2,0.4-0.5,0.3c-0.3-0.1-0.5-0.1-0.5-0.1S-512.3,395.1-512.1,394.9
				L-512.1,394.9z M-510.7,402.4c0,0,0.4,0.2,0.5,0.4c0,0.2-0.1,0.3-0.5,0.6C-511.2,403.8-510.8,402.9-510.7,402.4L-510.7,402.4z
				 M-511.7,410.6c-0.5-0.2-0.1-0.3-0.1-0.8c0-0.4,0.1-0.2,0.7-0.4c0.6-0.2,0.4-0.4,0.8-0.5c0.7-0.2,0.6,0.5,0.4,0.9
				s-0.4,0.4-0.8,0.8C-511.3,411-511.2,410.8-511.7,410.6L-511.7,410.6z M-511.5,425.6c0,0,0,0,0-0.1c0-0.1,0.2,0,0.3,0
				c0.1,0,0,0.2,0,0.4c0,0.2-0.2-0.1-0.2-0.1L-511.5,425.6L-511.5,425.6z M-512,426l0.1-0.2h0.3v0.3
				C-511.6,426.1-511.9,426.1-512,426L-512,426z M-510.9,426.4c0.1,0.1-0.2,0.1-0.4,0.1l-0.3-0.2c0,0,0.3-0.1,0.6,0
				C-510.7,426.4-511,426.3-510.9,426.4L-510.9,426.4z M-510.4,394.9c0,0,0.7-0.1,1.1-0.1c0.3,0,0.3,0.1,0.4,0.3
				c0.1,0.2-0.1,0.5-0.9,0.5S-510.5,395.1-510.4,394.9L-510.4,394.9z M-508.9,408.5c0.1,0,0,0.2-0.1,0.5c-0.1,0.3-0.3,0-0.4-0.1
				c0,0,0.1-0.3,0.3-0.4C-508.8,408.4-509,408.5-508.9,408.5L-508.9,408.5z M-508.7,407.7c0.1-0.2,0.3,0,0.5,0.3c0.2,0.2,0,0,0,0.3
				c0,0.3-0.6,0.1-0.6-0.2C-508.9,408.1-508.8,407.9-508.7,407.7L-508.7,407.7z M-507.7,409.5c-0.2,0.2-0.4,0.2-0.6,0.1l-0.1-0.6
				c0,0,0,0,0.1-0.2c0.1-0.2,0.2-0.1,0.5-0.1c0.3,0,0.3,0,0.4,0.2C-507.3,409.2-507.5,409.4-507.7,409.5L-507.7,409.5z
				 M-508.1,406.1c0.3-0.9,0.3-0.1,0.9,0c0.6,0.1,0.2,0.2,0.3,0.6c0.1,0.4-0.3,0.7-0.5,0.9c0,0-0.4,0.1-0.7-0.1
				c-0.2-0.1-0.3-0.5-0.3-0.5S-508.3,407-508.1,406.1L-508.1,406.1z M-508.1,404.4c0.1-0.2,0.2,0,0.4,0.1c0.2,0.1,0,0.3-0.1,0.5
				c-0.1,0.2-0.2,0.2-0.4,0.2C-508.3,405.2-508.2,404.6-508.1,404.4L-508.1,404.4z M-507.5,405.1c0-0.2,0.4,0,0.4,0s0,0,0.3,0.7
				c0.3,0.7-0.4,0-0.7-0.1C-507.4,405.7-507.5,405.3-507.5,405.1L-507.5,405.1z M-507.3,403.9c0-0.4,0.3-0.6,0.8-0.7
				c0,0,0.6,0,0.8,0.1c0.2,0.2,0.1,0.4,0.1,0.8c0,0.4-0.2,0.6-0.5,0.9c-0.3,0.3-0.6,0.1-1-0.1C-507.5,404.7-507.3,404.3-507.3,403.9
				L-507.3,403.9z M-506.3,405.6l0.4,0c0,0,0,0-0.3,0.1S-506.2,405.8-506.3,405.6L-506.3,405.6z M-506.3,408.1
				c0.2-0.1,0.2,0.1,0.3,0.2c0.1,0.1,0,0-0.1,0.2c-0.1,0.2-0.3-0.1-0.3-0.1l-0.1-0.2C-506.5,408.2-506.5,408.2-506.3,408.1
				L-506.3,408.1z M-506.7,407.7l-0.1-0.3c0,0,0,0,0.1-0.2c0.1-0.2,0,0,0.3,0.1c0,0,0,0.2-0.1,0.4
				C-506.6,407.8-506.7,407.7-506.7,407.7L-506.7,407.7z M-507.1,408.4c-0.1,0.1-0.2,0.1-0.3,0c0,0,0.1-0.1,0.2-0.3
				c0.1-0.1,0,0,0.2,0C-506.7,408.1-507,408.2-507.1,408.4L-507.1,408.4z M-506.9,408.9c0,0,0.2-0.1,0.3,0.1c0.1,0.1,0,0.3,0,0.4
				s-0.2,0-0.3-0.1C-507,409.2-506.9,409-506.9,408.9L-506.9,408.9z M-504.7,406.1c0.2,0.4-0.4,1.1-0.8,1.6
				c-0.4,0.5-0.7-0.3-0.7-0.8c0,0,0.3-0.4,0.7-0.9C-505.1,405.3-504.9,405.7-504.7,406.1L-504.7,406.1z M-504.6,404.8
				c0,0,0,0.3-0.1,0.4c0,0.1-0.3,0-0.4-0.1c0,0,0-0.3,0.1-0.4C-504.8,404.6-504.6,404.8-504.6,404.8L-504.6,404.8z M-504.9,403.7
				c0.3-0.4,0.2,0.1,0.2,0.1s0,0.2-0.1,0.4s-0.2,0-0.3-0.1C-505.1,404.2-505.2,404.1-504.9,403.7L-504.9,403.7z M-504.3,404.1
				c0,0,0.2,0,0.3,0c0.1,0.1,0,0.1-0.2,0.3c-0.2,0.2-0.1,0-0.3,0L-504.3,404.1L-504.3,404.1z M-502,402.5c-0.1,0.3,0,0-0.5,0
				c-0.5,0-0.2-0.3,0-0.4c0,0,0.4-0.1,0.6,0C-501.7,402-501.9,402.1-502,402.5L-502,402.5z M-503.4,399.2c0.5-0.8,1.5-0.4,2-0.2
				c0,0,0.5,1.1,0.5,1.7c-0.1,0.6-1,1-2.1,0.5C-504.3,400.7-504,400-503.4,399.2L-503.4,399.2z M-525.6,441
				c-0.6-0.3-0.3-0.5-0.2-0.8c0,0,0.2-0.6,0.8-0.4c0.6,0.1,0.3,0.3,0.4,1C-524.5,441.5-525.1,441.3-525.6,441L-525.6,441z
				 M-527.7,448.6c-0.8,0.3-1.8-0.7-2-1.3c-0.2-0.6,0-1,0.2-1.2c0.9-0.6,1.3-0.4,2.3-0.3c0.9,0.1,0.6,0.7,0.9,1.5
				C-526,448-526.8,448.3-527.7,448.6L-527.7,448.6z M-529.7,440c0-0.5,0.4-0.2,0.7-0.2c0,0,0.4,0,0.6,0.1c0.3,0.1,0,0.2-0.2,0.9
				c-0.2,0.7-0.6,0-0.9-0.1C-529.9,440.6-529.8,440.6-529.7,440L-529.7,440z M-530.1,446.5c-0.1,0.3-0.1,0.2-0.4,0.3
				c-0.3,0.1,0,0-0.1-0.4c-0.1-0.4,0.1-0.2,0.1-0.2l0.4-0.1C-530.1,446.1-530.1,446.2-530.1,446.5L-530.1,446.5z M-532.1,445
				c-0.3,0.2-0.2-0.1-0.3-0.1c0,0,0-0.1,0-0.3c0.1-0.1,0.2-0.3,0.3-0.3s0.2,0,0.3,0.2C-531.7,444.8-531.8,444.8-532.1,445
				L-532.1,445z M-532.4,445.6c0,0.1-0.1,0.3-0.3,0.4c-0.2,0.1-0.5,0-0.6-0.1c-0.1-0.1,0.1-0.5,0.2-0.6c0,0,0.3,0,0.5,0
				C-532.3,445.4-532.4,445.5-532.4,445.6L-532.4,445.6z M-540.9,446.2c0,0.4-0.3,0-0.4-0.2c0,0,0.1-0.2,0.3-0.3
				c0.1-0.1,0,0,0.2,0.1C-540.6,445.9-540.8,445.8-540.9,446.2L-540.9,446.2z M-541.6,445.4c-0.3,0.2-0.3,0.1-0.7,0.1
				c-0.4-0.1-0.5-0.1-0.9-0.1c-0.3,0-0.1-0.4,0-0.7c0.1-0.2,0.7,0,1,0l0.8,0.4C-541.3,445.1-541.4,445.3-541.6,445.4L-541.6,445.4z
				 M-538.1,433c0.3,0.3-0.1,0.1-0.1,0.1s-0.3,0-0.4-0.2c-0.1-0.2,0.1-0.3,0.1-0.3S-538.4,432.7-538.1,433L-538.1,433z
				 M-538.2,433.9c0,0.1-0.1,0.3-0.3,0.2c-0.2-0.1,0-0.1,0-0.3l0.4-0.1C-538.2,433.7-538.2,433.7-538.2,433.9L-538.2,433.9z
				 M-538.2,435.9c0,0.2-0.3,0.2-0.4,0.1s-0.1-0.1-0.4-0.4c-0.3-0.2,0,0,0.3-0.5c0.3-0.5,0,0,0.2-0.1c0,0,0.3,0.3,0.3,0.4
				C-538.2,435.6-538.2,435.7-538.2,435.9L-538.2,435.9z M-538.9,436.7c-0.1,0.2,0,0-0.4,0c-0.4,0,0-0.4,0-0.4l0.2-0.1
				c0,0,0.1,0.1,0.3,0.1C-538.7,436.4-538.9,436.5-538.9,436.7L-538.9,436.7z M-539.9,435.9c-0.4,0.1,0,0,0-0.1
				c0-0.1,0.1-0.3,0.1-0.3s0.4,0.1,0.4,0.3C-539.5,436-539.5,435.8-539.9,435.9L-539.9,435.9z M-542.2,434.4
				c-0.3-0.2-1.6-0.2-2.3-0.3c-0.7,0-0.5-0.5-0.5-1c0-0.5,0-0.3,0.5-0.4c0.4-0.1,0.8-0.4,0.8-0.4s0.9-0.2,1.3-0.2h1.2
				c0.5,0,0.3,0,1.4,0.7c1.1,0.7,0.3,0.3,0.5,0.7c0.2,0.4,0.1,0.8,0.1,1.2c0,0.4-0.3,0.4-0.5,0.5c-0.2,0.1-0.7,0-1.5-0.2
				C-541.9,434.8-541.9,434.6-542.2,434.4L-542.2,434.4z M-545.1,432c0,0,0.2-0.2,0.4-0.2c0.3,0,0,0,0,0.2c0,0.2,0,0-0.1,0.1
				C-544.9,432.3-545.1,432.1-545.1,432L-545.1,432z M-545.3,432.7c-0.1,0.3,0,0-0.2-0.1l0.1-0.2l0.2,0
				C-545.2,432.5-545.2,432.5-545.3,432.7L-545.3,432.7z M-545.4,431.3c0,0,0.3-0.3,0.5-0.2c0.1,0,0,0.3-0.1,0.5
				c-0.1,0.2-0.4,0-0.4,0S-545.5,431.5-545.4,431.3L-545.4,431.3z M-540.2,431.2c0.3-0.1,0.2,0,0.3,0.2c0.1,0.1-0.1,0.6-0.3,0.7
				c-0.2,0.1-0.3-0.2-0.4-0.5C-540.6,431.6-540.5,431.3-540.2,431.2L-540.2,431.2z M-539.1,431.9c0.1,0,0.1,0.1,0.3,0.1
				c0.1,0.1,0,0.3-0.2,0.5c-0.1,0.2-0.3,0-0.6-0.1c-0.3-0.1,0.2-0.4-0.1-0.6C-539.9,431.6-539.3,431.9-539.1,431.9L-539.1,431.9z
				 M-539.4,429.4c0.1-0.2,0.1,0,0.3,0c0.2,0.1,0,0.3-0.1,0.4c-0.1,0.1-0.3,0-0.3,0S-539.5,429.6-539.4,429.4L-539.4,429.4z
				 M-538.8,431.3c0,0.1-0.6,0.1-0.7-0.1c0,0,0.2-0.2,0.3-0.4c0.1-0.2,0.1,0,0.4,0.1C-538.5,431.1-538.7,431.2-538.8,431.3
				L-538.8,431.3z M-545.8,432.2c-0.2,0-0.1,0.1-0.2,0c-0.1-0.1-0.2-0.2-0.1-0.3c0.1-0.1,0.2-0.2,0.3-0.3l0.1-0.1l0.2,0.5
				C-545.6,432.2-545.6,432.2-545.8,432.2L-545.8,432.2z M-542.6,411.3c-0.4,0-0.2-0.1-0.2-0.4l0.6,0.1c0,0,0.2,0.1,0.3,0.3
				C-541.9,411.3-542.2,411.3-542.6,411.3L-542.6,411.3z M-544.4,411.2c-0.4,0.3-0.8,0.6-1.7,0.6c-1,0-0.3-1.2-0.4-1.6
				c-0.2-0.9-0.1-1.1,0.6-0.9c0.7,0.1,0.4,0.3,0.7,0.7c0.3,0.4,0.6,0.3,1.5,0.6C-542.8,411-544,411-544.4,411.2L-544.4,411.2z
				 M-547.2,408.4c0-0.4,0.1-0.2,0.2-0.4c0.1-0.2,0.2,0,0.6,0.1c0.4,0.2,0.3,0.4,0,0.8l-0.4,0C-546.8,408.9-547.2,408.7-547.2,408.4
				L-547.2,408.4z M-547,409.5c0,0.3-0.1,0.4-0.2,0.4c-0.1,0-0.5,0.1-0.5-0.1c0-0.2,0.2-0.4,0.3-0.5c0,0,0.2-0.1,0.4-0.1
				C-546.8,409.2-547,409.2-547,409.5L-547,409.5z M-547,411.7c0,0,0,0-0.1,0.4c-0.1,0.4-0.3-0.1-0.5-0.3c-0.2-0.1,0.3-0.3,0.5-0.3
				C-547,411.4-547,411.7-547,411.7L-547,411.7z M-547.9,411.2c-0.1-0.1,0.1-0.6,0-0.8c-0.1-0.1,0.4,0.1,0.6,0.1c0.3,0,0,0,0.1,0.1
				c0.1,0.1,0,0.2,0,0.2s-0.1,0.3-0.4,0.5C-547.9,411.5-547.8,411.3-547.9,411.2L-547.9,411.2z M-548.3,411.2
				c-0.1,0.3-0.4,0.2-1,0.1c-0.6-0.1-0.1-0.4,0.1-0.7c0.1-0.3,0.5-0.2,0.9-0.3C-548.3,410.4-548.2,411-548.3,411.2L-548.3,411.2z
				 M-551.6,406.5c-0.8,0.4-0.7,0-0.9-0.4c-0.2-0.4-0.3-0.5-1.4-1c-1.1-0.5-1-0.7-1.1-1.1c-0.1-0.4,0.4-0.7,0.7-0.9
				c0.3-0.2,0.7,0,1.1,0.5c0,0,0.8,0.1,1.2,0.4c0.4,0.3,0.3,0.1,0.9,0.1s0.8-0.1,1.6,0.3s0.3,1.1-0.2,1.3
				C-550.2,405.8-550.9,406.1-551.6,406.5L-551.6,406.5z M-550.9,407.1c0,0,0-0.3,0.3-0.5c0.3-0.1,0.2,0,0.3,0.2
				C-550.3,407-550.6,407-550.9,407.1L-550.9,407.1z M-551.6,407.4c-0.1,0.3-0.2,0.1-0.8,0.2c-0.6,0-0.2-0.1-0.1-0.3
				c0-0.2,0.3-0.2,0.6-0.3C-552,407-551.5,407.1-551.6,407.4L-551.6,407.4z M-552.6,409.9c-0.8,0-0.9,0.5-0.8-0.1
				c0.1-0.7,0-0.7,0.1-0.9c0.1-0.2,0.8-0.7,0.8-0.7c0,0.4-0.2,0.4,0,0.8C-552.3,409.5-551.8,409.9-552.6,409.9L-552.6,409.9z
				 M-550.7,402.9c0.2-0.3,0.5,0,0.9,0c0.3,0,0.4,0.6,0.3,0.9c-0.1,0.3-0.6,0-0.9-0.1C-550.5,403.6-550.9,403.2-550.7,402.9
				L-550.7,402.9z M-490.4,400.4c-0.8,0-2,0.6-2.8,1c-0.8,0.4-1.8,0.9-2.1,1.1c-0.3,0.2-1.5,0.9-1.9,0.1s0-2.4,1.4-3.6
				c1.4-1.2,3.5-3.5,4-3.9c0.5-0.4,1-1.3,0.4-2.1c-0.6-0.8-2,0.1-2.7,0.8c-0.8,0.6-1.8,1.6-3.1,1.8c-1.2,0.2-3.4,0.6-4.9-0.9
				c-1.5-1.5-2.6-2.6-4.5-3.4c-1.9-0.8-4-1.3-5.4-0.8c-1.4,0.5-1.7,0.9-2.4,1.3c-0.7,0.4-1.7,0.7-1.9,1.1c-0.2,0.4-0.7,0.9-1.1,1.2
				c-0.4,0.3-1,0.6-1.1,0.7c-0.1,0.1-1.2,1.1-1.5,1.5c-0.3,0.4-0.8,0.9-1.2,1.4c-0.4,0.5-1.2,1.2-1.6,1.4c-0.4,0.2-0.9,0.4-1.5,1.9
				c-0.5,1.5-0.9,2.5-1.2,3.8c-0.2,1.3-0.1,2.8-0.1,3.1v0.6c0,0-0.8,1.2-1.6,1.8c-0.9,0.6-2,1.1-3.7,0.5c-1.8-0.6-3.7-1.2-5.4-1.6
				c-1.7-0.4-3.7-1.3-4.6-1.8c-0.8-0.5-2.6-1.6-4.5-2.7c-1.9-1-3.2-1.6-4.5-2.2c-1.3-0.6-2.2-1-3.4-2.4c-1.2-1.4-2.9-3.3-3.2-3.8
				c-0.3-0.5-0.3-0.7-0.7-0.9c-0.4-0.3-0.5-1.2-1.3-0.2c-0.8,0.9-0.9,1.2-0.8,2.4c0,1.2,0.2,1.7,0.2,1.7l0.1,0.5
				c0,0-0.8,1.6-0.8,2.3c0,0.7,0.1,2.3,0.4,2.8c0.3,0.5,0.4,0.5,0.4,1.1v1.2c0,0.3,0,0.5,0.1,0.9c0.1,0.4,0.7,0.7,1.2,1.5
				c0.4,0.8,1.1,0.9,1.3,1.5c0.2,0.6,0.7,0.8,1,1.1c0.4,0.3,1.3,1.4,1.5,1.7c0.3,0.3,1.2,1,2.3,1.3c1.1,0.3,2.1,0.3,2.1,0.9
				c0,0.5,0.4,1.8-0.3,2.3c-0.7,0.5-1.6,0.8-2.2,0.4c-0.6-0.4-2.3-1.8-2.9-2.3c-0.7-0.5-2.2-1.4-2.7-1.7c-0.5-0.3-0.8-0.4-1.3-0.5
				c-0.4-0.1-1.3-0.9-0.7,0.4c0.6,1.3,1.6,4,2.2,4.8c0.6,0.8,1.4,1.7,1.5,2.4c0.1,0.7,0.3,1.6,0.7,2.1c0.4,0.5,2.4,1.8,2.9,2.2
				c0.5,0.4,0.7,0.8,1.1,0.8c0.4,0,1.2-0.2,1.4-0.3c0.2-0.1,0.6-0.3,0.7-0.5c0.1-0.3,0.7-0.4,0.1-0.8s-0.8-0.3-1.3-0.5
				c-0.5-0.2-0.7-0.2-0.9-0.6s-0.3-0.4-0.4-0.7c0-0.3-0.5-0.8,0.4-0.5c0.9,0.3,2.4,0.7,2.5,1.3c0,0.6-0.1,0.8,0.1,1.2
				c0.2,0.5,1.1,1.2,1.3,1.7c0.2,0.4,0.7,0.9,1,1.1c0.3,0.1,0.5,0.3,0.9-0.1c0.4-0.4,1.5-1.2,1.5-1.6s-0.4,0,0-0.4
				c0.4-0.3,0.5-0.5,0.7-0.5c0.2,0,0.4-0.1,0.5,0c0.1,0.1,0.1-0.3,0.4,0.3c0.2,0.7,0.2,0.4,0.4,0.9c0.1,0.5,0.2,0.7,0.2,0.9
				c0,0.2-0.1,0.3-0.2,0.5c-0.1,0.2-0.2,0.4-0.7,0.5c-0.5,0.1-0.3,0.1-1,0.1c-0.7-0.1-0.9-0.1-1.2-0.1c-0.3,0-0.3-0.2-0.5,0
				c-0.2,0.2-0.4,0.5-0.4,0.7c-0.1,0.2,0,0.7-0.1,1c-0.1,0.4-0.1,0.4-0.4,0.8c-0.3,0.4-0.7,0.6-1,0.6c-0.3,0-1.7-0.3-2.3-0.9
				c-0.6-0.6-1.1-1.2-1.5-1.3c-0.4-0.1-0.6-0.3-1-0.3h-0.7c-0.2,0-0.4,0-0.6,0.3c-0.2,0.3-0.3,0.7-0.1,1c0.2,0.3,1.5,1.9,2,2.5
				c0.5,0.7,2.1,2.1,2.4,2.4c0.3,0.2,1.2,0.5,1.6,0.9c0.5,0.4,0.8,1.9,3,2c2.1,0.1,4.3-0.5,4.6-0.7c0.3-0.3,1.4-1.2,1.6-1.3
				c0.3-0.1,1.2-0.6,1.3-0.9c0.1-0.3,0.4-1.1,0.1-1.5c-0.2-0.4-0.4-0.8-0.8-1.1s-1-0.4-1.1-0.7s-0.3-0.4-0.1-0.8
				c0.2-0.4,1.1-0.8,1.5-1c0.3-0.2,0.8-0.5,1.1-0.5c0.3,0,0.3-0.4,1.2,0.3c0.8,0.7,1.4,1.3,1.7,1.5c0.3,0.2,1.2,0.8,1.8,0.4
				c0.6-0.4,0.9-0.7,1.2-1.3c0.3-0.7,0.4-1.2,1.3-1.1c0.9,0.1,2.8-0.2,2.9-0.1c0.1,0.1,1.4,0.7,1.4,1.3c0,0.6,0.5,1.1,0,1.5
				c-0.5,0.4-1.1,0.5-1.3,0.5c-0.2,0-0.5-0.2-0.6,0.1c-0.1,0.3-0.3,0.9-0.4,1.2c-0.1,0.3,0.1-0.1-0.4,0.4c-0.5,0.5,0.1,0.3-0.5,0.5
				c-0.7,0.2-0.6,0.1-0.9,0.2c-0.3,0-0.4,0-0.6,0s-0.1,0-0.5,0c-0.4,0.1-0.2-0.2-0.7,0.1c-0.5,0.4-0.2,0.1-0.5,0.4
				c-0.3,0.3,0,0.3-0.5,0.5c-0.5,0.2-0.8,0.3-1,0.4c-0.2,0.1-0.4-0.1-0.5,0.1c-0.2,0.2-0.2,0.4-0.4,0.4c-0.2,0-1-0.1-1,0.1
				c0,0.3-0.1,0.4-0.3,0.5c-0.1,0-0.2,0-0.5,0.1c-0.3,0,0,0-0.3,0c-0.3,0-0.4,0-0.8,0c-0.4,0-0.9-0.5-1,0c-0.1,0.5-0.3,0-0.1,0.5
				c0.2,0.4,2,2,2.1,2.3c0.1,0.3,0,0.3,0.4,0.5c0.4,0.2,0.2,0.1,0.6,0.3c0.4,0.2,1.6,1.1,1.5,1.6c-0.1,0.5-0.3,1.1-0.3,1.2
				c0,0.1-0.2,0.3-0.3,0.4s0.1,0-0.1,0.1c-0.2,0.1-0.4,0.1-0.4,0.4c0,0.4-0.3,1.1-0.3,1.3c0,0.3,0.1,0.9,0,1.1
				c-0.1,0.2-1.1,0.9-1.3,1.1c-0.2,0.1-0.5,0.3-0.7,0.3c-0.1,0-0.5,0-1,0c-0.4,0-0.6,0-0.9-0.1c-0.3-0.1-1-0.3-1.2-0.6
				c-0.1-0.3,0-0.1-0.3-0.8c-0.3-0.6-0.3-0.5-0.3-1c0-0.4,0.1-0.4-0.1-1c-0.3-0.5,0.3,0-0.3-0.5c-0.5-0.5,0.1-0.3-0.7-0.6
				c-0.7-0.3-0.9-0.3-1.3-0.4c-0.4-0.1-1.5-0.3-1.8-0.3c-0.3,0-0.9,0.2-1.1,0.3c-0.2,0.1-0.6,0.3-0.6,0.3c-0.6,0.4-1.8,1.3-2,1.4
				s-0.7,0.2-1.1,0.2c-0.4,0-0.4,0-0.8,0c-0.3,0-1.6,0.1-1.7,0.1c-0.1,0-0.4,0.1-0.9,0.1s-0.9-0.1-1.3-0.1c-0.4,0-2.9,0-3.4,0.1
				c-0.5,0-0.9,0-1.5,0.1c-0.6,0-0.6,0-1.1-0.1c-0.4,0-0.5,0.1-0.7,0.1s0.1,0.1,0.2,0.3c0.1,0.2,1.9,0.9,2.2,0.9
				c0.3,0,1.4,0.7,1.9,0.9c0.4,0.3,2,0.9,2.9,1c0.9,0.1,3.1,0.3,4.1,0.5c1,0.3,1.7,0.5,2.9,1.1c1.2,0.5,3.1,0.4,3.6,0.4
				s0.9,0.2,1.7,0.2c0.8,0,1.6,0.2,2.1,0c0.5-0.1,4.1-0.7,5.2-0.6c1.1,0,2.2,0.1,2.7,0.1c0.5,0,1.9-0.1,2.3-0.4
				c0.4-0.2,3-1.7,3.7-1.8c0.8-0.1,2-0.4,2.3-0.6c0.3-0.1,0.5-0.2,0.2-0.5c-0.3-0.3-0.9-0.6-1.1-0.9c-0.2-0.3-0.6-0.1-0.2-0.9
				c0.4-0.8,0.6-1.2,0.8-1.9c0.2-0.7-0.1-1.3,0.6-1.5c0.7-0.2,0.7-0.1,1.3-0.4c0.7-0.3,0.4,0.1,1.1,0c0.7-0.1,0.7-0.3,0.6-0.4
				c-0.1-0.1-0.4,0.1-0.1-0.4c0.3-0.5,0.1-0.4,0.4-0.7c0.2-0.3,0.1-0.5,0.5-0.8c0.4-0.3,0.9-0.5,1.1-0.3c0.3,0.2,1.1,0.1,1.1,1.4
				c0,1.2-0.4,2.7-0.9,2.9s-0.5,0-1.1,0.5c-0.6,0.4-1.3,0.8-1.7,1.3c-0.5,0.5-0.5,0.3-0.6,0.7c-0.1,0.4,0.2,0.4,0.2,0.6s0-0.1,0,0.2
				c0,0.3-0.6,0.3,0,0.3c0.6,0,0.3,0,0.6,0c0.3,0,0.3,0,0.7-0.1c0.4-0.1,0.5-0.2,1.1-0.5c0.6-0.4,1.9-1.7,2.3-1.8
				c0.4-0.1,1.9-0.5,2.3-0.7c0.4-0.2,0.8-0.6,1-1s0.3-0.4,0.4-0.8c0.1-0.4,0.1-0.4,0.1-0.8c0-0.3,0.2-0.3-0.1-0.4
				c-0.4-0.1-0.3,0-0.7-0.1c-0.4-0.1-0.5,0.1-0.5-0.4c0-0.4-0.1-0.7,0-0.8c0.1-0.1,0-0.4,0.5,0c0.5,0.3,0.3,0.2,0.6,0.5
				c0.3,0.3,0.2,0.3,0.7,0.3c0.4,0.1,0.6,0.1,1.1,0.1c0.5,0,1.5-0.8,1.9-1.2c0.5-0.5,0.9-1.1,1-1.5c0.1-0.4,0.4-0.4,0.2-0.6
				c-0.2-0.3,0.2-0.1-0.2-0.3c-0.4-0.2-0.8,0.7-0.6,0c0.2-0.7,0.2-0.8,0.5-0.8c0.3,0-0.1,0.1,0.5,0c0.6-0.1,0.8,0,1-0.2
				c0.2-0.3,0.4-0.6,0.5-0.7c0.1-0.1,1-1.1,1.8-2.7c0.8-1.6,2.5-4.1,2.7-4.6c0.1-0.6,0.3-0.8,0.6-1.4c0.3-0.6,1.6-2.4,2-4.3
				c0.3-1.9,0.1-2.5,0-3c0-0.5,0.4-0.6-0.1-0.7c-0.5-0.1-0.2-0.1-0.8,0c-0.5,0.1-0.7,0.3-0.8,0.3c-0.1,0-0.3,0-0.6,0
				c-0.3-0.1-0.4,0-0.4-0.2s-0.3-0.3,0.1-0.4c0.4-0.1,0-0.1,0.7-0.1c0.6,0,0.4,0,0.9,0c0.6,0,0.5,0.1,0.8-0.1
				c0.3-0.2,0.4-0.1,0.4-0.4c0-0.3,0.1-0.3,0.1-0.7c0-0.4,0.2-1.3,0.1-1.7c-0.1-0.4,0.2-0.4,0.5-0.8c0.3-0.4,0.4-0.1,0.5-0.7
				c0.1-0.5,0.2-0.9,0-1.1c-0.2-0.2-0.5-0.6-0.7-0.2c-0.2,0.4,0,0.4-0.2,0.8c-0.3,0.4-0.6,1.2-0.8,1.3c-0.2,0.1-0.4,0.2-0.8,0
				c-0.4-0.2-0.7,0.1-0.8-0.5c-0.1-0.7,0.2-1.4,0.7-1.8c0.5-0.4,0.3-0.2,1.4-0.5s1.6-0.9,1.6-1.4c0-0.5-0.3-1.2,0-2
				c0.3-0.7,2.9-3.6,3.9-4.7c1-1.2,1.4-2,1.7-2.6C-490.3,401-489.6,400.3-490.4,400.4L-490.4,400.4z"/>
		</g>
	</g>
</g>
</svg>
