<?xml version="1.0" encoding="UTF-8" standalone="no"?>
<svg width="70px" height="62px" viewBox="0 0 70 62" version="1.1" xmlns="http://www.w3.org/2000/svg" xmlns:xlink="http://www.w3.org/1999/xlink" xmlns:sketch="http://www.bohemiancoding.com/sketch/ns">
    <!-- Generator: Sketch 3.3.3 (12081) - http://www.bohemiancoding.com/sketch -->
    <title>twitter-icon</title>
    <desc>Created with Sketch.</desc>
    <defs></defs>
    <g id="Page-1" stroke="none" stroke-width="1" fill="none" fill-rule="evenodd" sketch:type="MSPage">
        <g id="twitter-icon" sketch:type="MSLayerGroup" fill="#FFFFFF">
            <path d="M22.198,52.529 C22.016,52.783 21.944,52.674 22.016,53.038 C22.089,53.401 21.907,53.546 22.27,53.546 L22.96,53.546 C23.142,53.546 23.106,53.619 23.324,53.51 C23.542,53.401 23.578,53.437 23.651,53.183 C23.723,52.929 23.832,52.602 23.723,52.493 C23.614,52.384 23.396,52.456 23.396,52.456 C23.106,52.456 22.634,52.456 22.525,52.493 C22.416,52.529 22.379,52.275 22.198,52.529" id="Fill-1" sketch:type="MSShapeGroup"></path>
            <path d="M21.58,52.348 L21.653,52.093 C21.653,52.093 21.58,51.73 21.362,51.73 C21.144,51.73 21.108,51.803 21.072,51.948 C21.035,52.093 21.072,52.13 21.108,52.311 C21.144,52.493 21.399,52.384 21.58,52.348" id="Fill-2" sketch:type="MSShapeGroup"></path>
            <path d="M23.433,52.13 C23.542,51.585 23.687,51.621 23.542,51.585 C23.396,51.548 23.251,51.439 23.215,51.548 C23.178,51.657 22.997,52.021 22.997,52.021 C23.178,52.13 23.324,52.674 23.433,52.13" id="Fill-3" sketch:type="MSShapeGroup"></path>
            <g id="Group-7" sketch:type="MSShapeGroup">
                <path d="M58.809,18.751 C58.446,19.041 56.739,21.039 56.303,21.33 C55.867,21.62 54.741,22.855 53.797,24.344 C52.852,25.833 51.436,24.562 51.436,23.908 C51.436,23.255 52.053,22.31 52.562,21.693 C53.07,21.075 52.998,20.095 53.506,19.877 C54.015,19.659 53.833,18.823 54.378,18.678 C54.923,18.533 55.286,17.298 55.54,17.044 C55.794,16.789 55.686,16.753 55.722,16.245 C55.758,15.736 55.867,15.3 56.158,15.046 C56.448,14.792 56.479,14.447 57.356,13.811 C58.809,12.758 59.536,14.356 59.935,15.627 C60.335,16.898 59.172,18.46 58.809,18.751 L58.809,18.751 Z M55.395,34.514 C55.395,34.514 55.831,33.969 55.831,33.824 C55.831,33.679 56.448,33.606 56.557,33.788 C56.666,33.969 56.594,34.296 56.412,34.805 C56.23,35.313 55.722,34.587 55.395,34.514 L55.395,34.514 Z M56.158,37.238 C56.012,38.037 54.923,37.856 54.414,37.674 C53.979,37.519 54.049,36.778 54.124,36.431 C54.137,36.373 54.15,36.325 54.16,36.294 C54.16,36.294 54.56,35.313 54.923,34.986 C55.286,34.659 55.504,34.914 56.267,35.24 C57.029,35.567 56.303,36.439 56.158,37.238 L56.158,37.238 Z M53.143,40.834 C53.179,41.27 52.635,41.451 52.09,41.669 C51.545,41.887 51.654,41.088 51.763,40.58 C51.763,40.58 51.69,39.708 51.836,39.672 C51.981,39.635 52.126,39.708 52.889,39.926 C53.652,40.144 53.107,40.398 53.143,40.834 L53.143,40.834 Z M51.727,20.276 C51.981,20.022 52.126,20.385 52.308,20.385 C52.308,20.385 52.453,20.748 52.308,20.966 C52.162,21.184 51.944,21.075 51.763,21.003 C51.581,20.93 51.618,20.966 51.4,20.785 C51.182,20.603 51.472,20.531 51.727,20.276 L51.727,20.276 Z M51.036,19.84 C51,19.949 50.759,19.963 50.528,19.731 C50.419,19.622 50.637,19.55 51.073,19.731 C51.509,19.913 51.073,19.731 51.036,19.84 L51.036,19.84 Z M50.492,21.293 C50.31,21.402 50.346,21.402 49.656,21.402 C48.966,21.402 49.693,21.257 49.693,21.257 C49.693,21.257 49.765,21.112 49.911,20.93 C50.056,20.748 50.383,20.639 50.637,20.603 C50.637,20.603 50.746,20.785 50.746,20.894 C50.746,21.003 50.673,21.184 50.492,21.293 L50.492,21.293 Z M48.966,37.056 C48.966,37.274 48.712,37.274 48.639,37.165 L48.349,36.948 C48.349,36.948 48.349,36.948 48.966,36.839 C49.584,36.73 48.966,36.839 48.966,37.056 L48.966,37.056 Z M48.022,37.819 C47.404,38.255 47.586,39.345 47.695,40.834 C47.804,42.323 46.539,41.628 46.278,41.27 C45.988,40.87 46.315,39.962 46.315,39.962 C46.315,39.962 46.169,38.945 45.915,38.182 C45.661,37.42 45.915,37.202 46.133,36.875 C46.351,36.548 47.295,36.584 47.731,36.693 C48.167,36.802 48.639,37.383 48.022,37.819 L48.022,37.819 Z M46.133,44.938 C46.061,46.573 44.826,46.536 44.353,46.173 C43.881,45.81 44.244,44.648 44.281,43.885 C44.317,43.122 44.608,42.759 44.862,42.65 C44.862,42.65 45.516,42.432 45.77,42.577 C46.024,42.723 46.206,43.304 46.133,44.938 L46.133,44.938 Z M47.913,36.475 C47.913,36.584 47.659,36.512 47.513,36.512 C47.368,36.512 47.332,36.33 47.332,36.33 L47.622,36.148 L47.804,36.185 C47.804,36.185 47.913,36.366 47.913,36.475 L47.913,36.475 Z M43.881,31.717 C42.683,31.717 42.356,31.717 41.775,31.899 C41.194,32.081 40.213,32.516 39.959,31.717 C39.704,30.918 38.978,28.957 37.888,29.03 C36.799,29.102 37.017,29.465 36.181,29.502 C35.346,29.538 35.092,29.429 34.946,29.611 C34.801,29.792 34.728,30.41 33.566,30.228 C32.404,30.047 32.259,29.974 31.895,29.974 C31.532,29.974 30.733,30.156 30.733,30.156 C30.624,30.156 30.406,30.446 29.861,30.156 C29.317,29.865 27.936,29.139 27.791,28.884 C27.646,28.63 27.501,28.194 27.61,27.976 C27.719,27.758 28.554,27.795 27.755,27.105 C26.956,26.414 25.576,25.615 25.321,25.47 C25.067,25.325 24.522,25.216 24.268,25.071 C24.014,24.925 23.106,24.417 23.723,23.763 C24.341,23.109 25.503,22.601 26.266,22.819 C27.028,23.037 27.864,23.436 28.844,23.436 C29.825,23.436 30.66,23.218 31.75,24.235 C32.84,25.252 32.15,26.088 32.113,26.741 C32.077,27.395 33.457,28.339 34.474,26.923 C35.491,25.506 36.254,24.054 36.944,24.962 C37.634,25.87 38.615,27.468 39.341,27.431 C40.068,27.395 42.211,27.395 42.973,27.831 C43.736,28.267 44.281,28.412 44.862,27.431 C45.443,26.451 45.552,25.87 46.714,26.233 C47.877,26.596 48.458,28.231 48.058,28.957 C47.659,29.683 47.259,30.482 46.278,30.664 C45.298,30.846 45.298,31.064 44.826,31.39 C44.353,31.717 45.08,31.717 43.881,31.717 L43.881,31.717 Z M43.01,40.216 C43.01,40.834 42.597,41.06 42.319,41.233 C41.738,41.597 41.194,40.616 41.194,40.144 C41.194,39.672 41.266,39.672 41.52,39.163 C41.775,38.655 41.811,38.8 42.392,38.509 C42.973,38.219 42.683,38.546 42.937,38.981 C43.191,39.417 43.01,39.599 43.01,40.216 L43.01,40.216 Z M42.247,41.923 C42.211,42.178 42.029,41.996 41.593,41.96 C41.157,41.923 41.593,41.96 41.557,41.814 C41.557,41.814 41.593,41.633 41.738,41.524 C41.884,41.415 41.738,41.524 42.102,41.56 C42.465,41.597 42.283,41.669 42.247,41.923 L42.247,41.923 Z M41.847,42.977 C41.738,43.449 41.448,42.977 41.302,42.65 C41.302,42.65 41.484,42.468 41.666,42.359 C41.847,42.25 41.956,42.505 41.956,42.505 C41.956,42.505 41.956,42.505 41.847,42.977 L41.847,42.977 Z M41.23,41.379 C41.23,41.524 41.194,41.742 41.157,42.032 C41.121,42.323 40.83,42.214 40.576,42.105 C40.576,42.105 40.394,41.597 40.54,41.342 C40.685,41.088 40.685,41.052 40.976,41.052 C41.266,41.052 41.23,41.233 41.23,41.379 L41.23,41.379 Z M39.813,33.061 C39.559,32.771 39.741,32.698 39.922,32.516 C39.922,32.516 40.322,32.625 40.576,32.734 C40.83,32.843 40.612,32.916 40.612,32.916 C40.612,32.916 40.431,33.061 40.068,33.352 C39.704,33.642 40.068,33.352 39.813,33.061 L39.813,33.061 Z M40.939,44.393 C40.794,45.12 40.867,45.374 40.903,45.991 C40.939,46.609 39.813,47.226 38.905,46.899 C37.997,46.573 38.869,45.628 39.232,45.156 C39.595,44.684 39.777,44.575 40.068,44.175 C40.358,43.776 39.97,42.925 40.177,42.541 C40.431,42.069 40.867,42.686 41.085,43.376 C41.302,44.066 41.085,43.667 40.939,44.393 L40.939,44.393 Z M39.269,31.754 C39.269,31.754 39.595,31.863 39.595,31.972 C39.595,32.081 39.486,32.226 39.305,32.262 C39.123,32.298 39.16,32.226 38.905,32.117 C38.651,32.008 38.942,31.935 39.269,31.754 L39.269,31.754 Z M35.237,31.79 C35.237,31.79 34.874,31.681 34.801,31.499 L35.128,31.354 C35.128,31.354 35.273,31.39 35.31,31.572 C35.346,31.754 35.237,31.79 35.237,31.79 L35.237,31.79 Z M35.055,30.955 C34.837,31.172 34.801,30.918 34.656,30.664 L35.128,30.373 C35.128,30.373 35.128,30.373 35.346,30.591 C35.564,30.809 35.273,30.737 35.055,30.955 L35.055,30.955 Z M36.145,34.659 C34.038,34.151 34.075,33.097 34.474,32.335 C34.874,31.572 35.375,32.436 36.399,32.48 C38.106,32.553 38.796,32.262 39.305,33.17 C39.813,34.078 38.252,35.168 36.145,34.659 L36.145,34.659 Z M33.784,31.572 C33.421,31.281 33.784,31.172 33.82,30.955 C33.82,30.955 34.402,30.955 34.547,31.245 C34.692,31.536 34.547,31.499 34.51,31.826 C34.474,32.153 34.147,31.863 33.784,31.572 L33.784,31.572 Z M33.929,32.371 C33.929,32.625 33.857,32.553 33.711,32.589 C33.566,32.625 33.53,32.226 33.457,31.935 C33.457,31.935 33.748,31.935 33.857,31.972 C33.966,32.008 33.929,32.117 33.929,32.371 L33.929,32.371 Z M32.694,31.136 C32.15,30.991 32.694,31.136 32.694,30.991 C32.694,30.991 33.021,30.628 33.167,30.628 C33.312,30.628 33.494,30.773 33.494,30.773 C33.494,30.773 33.457,30.918 33.239,31.281 C33.021,31.645 33.239,31.281 32.694,31.136 L32.694,31.136 Z M31.75,31.1 C31.496,31.1 31.75,31.1 30.733,30.809 C29.716,30.519 30.733,30.519 30.915,30.482 C31.096,30.446 31.677,30.482 32.004,30.591 C32.004,30.591 32.004,31.1 31.75,31.1 L31.75,31.1 Z M31.823,32.916 C31.786,33.206 31.314,32.843 31.387,32.625 C31.387,32.625 31.677,32.407 31.823,32.335 C31.968,32.262 31.859,32.625 31.823,32.916 L31.823,32.916 Z M28.191,39.127 C28.082,39.163 27.867,39.064 27.719,38.655 C27.573,38.255 27.973,37.747 28.154,37.892 C28.336,38.037 28.409,38.255 28.445,38.509 C28.481,38.764 28.3,39.09 28.191,39.127 L28.191,39.127 Z M38.215,23.255 C38.215,23.509 38.034,23.436 37.707,23.364 C37.38,23.291 37.707,23.364 37.344,23.109 C36.98,22.855 37.38,22.891 37.707,22.928 C37.707,22.928 38.215,23 38.215,23.255 L38.215,23.255 Z M36.835,20.167 C36.871,18.896 37.816,18.642 38.252,18.642 C38.252,18.642 38.76,19.223 38.942,19.55 C39.123,19.877 39.123,20.095 39.232,20.712 C39.341,21.33 39.232,21.693 38.252,22.31 C37.271,22.928 36.799,21.439 36.835,20.167 L36.835,20.167 Z M40.758,10.106 C40.867,10.034 40.939,10.106 40.939,10.106 L40.939,10.433 C40.939,10.542 40.794,10.47 40.794,10.47 C40.794,10.47 40.649,10.179 40.758,10.106 L40.758,10.106 Z M41.085,11.341 C41.085,11.341 41.085,11.341 41.048,11.487 C41.012,11.632 40.83,11.45 40.83,11.45 L40.721,11.123 L40.939,11.123 C41.157,11.123 41.085,11.341 41.085,11.341 L41.085,11.341 Z M41.121,12.504 C41.121,12.504 40.976,12.395 40.867,12.395 C40.758,12.395 40.903,11.995 40.903,11.995 C40.903,11.995 41.194,11.995 41.375,12.068 C41.557,12.14 41.302,12.358 41.121,12.504 L41.121,12.504 Z M41.52,10.433 C41.52,10.433 41.52,10.433 41.884,10.506 C42.247,10.579 41.847,10.942 41.847,10.942 C41.847,10.942 41.666,10.942 41.557,10.906 L41.375,10.797 L41.52,10.433 L41.52,10.433 Z M42.174,9.671 C42.174,9.525 42.247,9.489 42.428,9.489 C42.61,9.489 42.61,9.562 42.61,9.562 C42.61,9.562 42.392,9.889 42.174,9.816 C41.956,9.743 42.174,9.816 42.174,9.671 L42.174,9.671 Z M41.52,11.523 C41.52,11.523 41.811,11.341 41.956,11.378 C42.102,11.414 41.956,11.523 41.884,11.741 C41.811,11.959 41.666,11.741 41.52,11.523 L41.52,11.523 Z M41.847,12.758 C41.847,12.758 41.811,12.322 41.811,12.14 C41.811,11.959 41.811,12.14 42.465,12.395 C43.119,12.649 42.138,12.831 41.847,12.758 L41.847,12.758 Z M42.211,14.283 C41.92,14.429 41.702,14.211 41.738,13.993 C41.738,13.993 41.666,13.557 41.956,13.484 C42.247,13.412 42.102,13.484 42.574,13.884 C43.046,14.283 42.501,14.138 42.211,14.283 L42.211,14.283 Z M43.7,19.005 C43.7,19.005 43.627,19.223 43.518,19.405 C43.409,19.586 43.264,19.514 43.01,19.368 C42.755,19.223 43.01,19.114 43.046,18.969 L43.191,19.041 L43.518,18.823 L43.7,19.005 L43.7,19.005 Z M43.01,18.533 C42.428,18.787 42.102,17.589 41.956,16.935 C41.956,16.935 41.775,15.881 41.811,15.3 C41.847,14.719 41.993,14.828 42.392,14.61 C42.792,14.392 42.828,14.756 43.046,15.155 C43.264,15.555 43.227,15.409 43.7,16.426 C44.172,17.443 43.591,18.279 43.01,18.533 L43.01,18.533 Z M42.973,6.256 C43.01,5.966 43.3,6.075 43.736,6.075 C44.172,6.075 43.772,6.801 43.7,6.946 C43.7,6.946 43.445,7.419 43.155,7.419 C42.864,7.419 42.973,7.346 42.792,6.838 C42.61,6.329 42.937,6.547 42.973,6.256 L42.973,6.256 Z M44.317,18.388 C44.535,18.569 44.317,18.388 44.317,18.497 C44.317,18.606 44.135,18.606 43.881,18.533 L43.918,18.315 C43.918,18.315 44.099,18.206 44.317,18.388 L44.317,18.388 Z M47.622,11.305 C48.167,11.341 47.986,11.487 48.349,11.777 C48.712,12.068 48.785,12.358 48.785,13.085 C48.785,13.811 48.24,13.956 47.586,14.465 C46.932,14.973 46.381,13.266 46.387,12.976 C46.424,11.341 47.077,11.269 47.622,11.305 L47.622,11.305 Z M47.913,5.058 C48.131,4.949 48.167,4.913 48.421,4.913 C48.676,4.913 48.966,5.276 48.966,5.276 C48.857,5.53 48.748,5.639 48.458,5.53 C48.167,5.421 47.949,5.385 47.949,5.385 C47.949,5.385 47.695,5.167 47.913,5.058 L47.913,5.058 Z M49.293,12.467 C49.293,12.467 49.729,12.685 49.765,12.903 C49.802,13.121 49.656,13.157 49.22,13.521 C48.785,13.884 49.22,13.012 49.293,12.467 L49.293,12.467 Z M48.276,20.748 C47.768,20.567 48.203,20.422 48.167,19.986 C48.131,19.55 48.276,19.768 48.857,19.586 C49.438,19.405 49.258,19.156 49.62,19.041 C50.31,18.823 50.237,19.55 49.983,19.986 C49.729,20.422 49.584,20.422 49.148,20.785 C48.712,21.148 48.785,20.93 48.276,20.748 L48.276,20.748 Z M48.494,35.713 C48.494,35.713 48.494,35.713 48.53,35.604 C48.567,35.495 48.712,35.604 48.857,35.64 C49.003,35.676 48.857,35.858 48.821,36.039 C48.785,36.221 48.603,35.967 48.603,35.967 L48.494,35.713 L48.494,35.713 Z M48.022,36.148 L48.131,35.931 L48.385,35.931 L48.385,36.221 C48.385,36.221 48.094,36.257 48.022,36.148 L48.022,36.148 Z M49.075,36.548 C49.184,36.693 48.857,36.657 48.676,36.621 L48.349,36.403 C48.349,36.403 48.676,36.257 48.966,36.403 C49.257,36.548 48.966,36.403 49.075,36.548 L49.075,36.548 Z M49.584,5.058 C49.584,5.058 50.31,4.913 50.637,4.949 C50.964,4.985 50.891,5.058 51,5.239 C51.109,5.421 50.855,5.712 50.056,5.748 C49.257,5.784 49.511,5.167 49.584,5.058 L49.584,5.058 Z M51.145,18.642 C51.291,18.678 51.145,18.86 51.073,19.114 C51,19.368 50.782,19.114 50.71,18.969 C50.71,18.969 50.782,18.678 51,18.606 C51.218,18.533 51,18.606 51.145,18.642 L51.145,18.642 Z M51.327,17.806 C51.436,17.625 51.618,17.843 51.799,18.061 C51.981,18.279 51.799,18.061 51.763,18.388 C51.727,18.714 51.182,18.46 51.145,18.206 C51.145,18.206 51.218,17.988 51.327,17.806 L51.327,17.806 Z M52.271,19.659 C52.053,19.84 51.908,19.84 51.69,19.768 L51.545,19.187 C51.545,19.187 51.545,19.187 51.69,18.969 C51.836,18.751 51.872,18.86 52.162,18.86 C52.453,18.86 52.453,18.86 52.562,19.078 C52.671,19.296 52.489,19.477 52.271,19.659 L52.271,19.659 Z M51.944,16.245 C52.235,15.337 52.235,16.099 52.816,16.208 C53.397,16.317 53.034,16.39 53.107,16.826 C53.179,17.262 52.816,17.48 52.598,17.77 C52.598,17.77 52.162,17.843 51.944,17.697 C51.727,17.552 51.654,17.153 51.654,17.153 C51.654,17.153 51.654,17.153 51.944,16.245 L51.944,16.245 Z M51.872,14.538 C51.981,14.32 52.09,14.574 52.271,14.683 C52.453,14.792 52.271,14.937 52.126,15.155 C51.981,15.373 51.908,15.373 51.69,15.337 C51.69,15.337 51.763,14.756 51.872,14.538 L51.872,14.538 Z M52.489,15.228 C52.526,15.046 52.889,15.228 52.889,15.228 C52.889,15.228 52.889,15.228 53.216,15.881 C53.543,16.535 52.78,15.845 52.562,15.809 C52.562,15.809 52.453,15.409 52.489,15.228 L52.489,15.228 Z M52.744,14.029 C52.744,13.63 53.07,13.412 53.543,13.339 C53.543,13.339 54.16,13.303 54.342,13.484 C54.523,13.666 54.451,13.847 54.414,14.283 C54.378,14.719 54.196,14.901 53.906,15.191 C53.615,15.482 53.325,15.337 52.925,15.082 C52.526,14.828 52.744,14.429 52.744,14.029 L52.744,14.029 Z M53.688,15.736 L54.051,15.772 C54.051,15.772 54.051,15.772 53.797,15.881 C53.543,15.99 53.797,15.881 53.688,15.736 L53.688,15.736 Z M53.724,18.17 C53.942,18.061 53.906,18.242 54.015,18.351 C54.124,18.46 54.015,18.351 53.906,18.569 C53.797,18.787 53.579,18.497 53.579,18.497 L53.506,18.279 C53.506,18.279 53.506,18.279 53.724,18.17 L53.724,18.17 Z M53.288,17.806 L53.216,17.552 C53.216,17.552 53.216,17.552 53.325,17.334 C53.434,17.116 53.325,17.334 53.579,17.407 C53.579,17.407 53.579,17.589 53.47,17.77 C53.361,17.952 53.288,17.806 53.288,17.806 L53.288,17.806 Z M52.925,18.46 C52.816,18.569 52.707,18.569 52.635,18.424 C52.635,18.424 52.707,18.315 52.852,18.17 C52.998,18.024 52.852,18.17 53.07,18.206 C53.288,18.242 53.034,18.351 52.925,18.46 L52.925,18.46 Z M53.107,18.969 C53.107,18.969 53.325,18.896 53.397,19.041 C53.47,19.187 53.397,19.368 53.397,19.477 C53.397,19.586 53.216,19.477 53.107,19.405 C52.998,19.332 53.107,19.15 53.107,18.969 L53.107,18.969 Z M55.286,16.172 C55.468,16.535 54.923,17.262 54.523,17.734 C54.124,18.206 53.833,17.407 53.869,16.898 C53.869,16.898 54.16,16.535 54.523,15.99 C54.886,15.446 55.104,15.809 55.286,16.172 L55.286,16.172 Z M55.359,14.864 C55.359,14.864 55.322,15.155 55.286,15.3 C55.25,15.446 55.032,15.3 54.923,15.191 C54.923,15.191 54.923,14.937 55.068,14.828 C55.213,14.719 55.359,14.864 55.359,14.864 L55.359,14.864 Z M55.068,13.847 C55.322,13.448 55.25,13.993 55.25,13.993 C55.25,13.993 55.25,14.211 55.177,14.429 C55.104,14.647 54.995,14.429 54.923,14.32 C54.923,14.32 54.814,14.247 55.068,13.847 L55.068,13.847 Z M55.686,14.211 C55.686,14.211 55.903,14.174 56.012,14.247 C56.121,14.32 56.012,14.392 55.831,14.574 C55.649,14.756 55.686,14.61 55.577,14.538 L55.686,14.211 L55.686,14.211 Z M57.974,12.576 C57.865,12.903 57.974,12.576 57.502,12.54 C57.029,12.504 57.32,12.249 57.465,12.104 C57.465,12.104 57.828,12.031 58.083,12.068 C58.337,12.104 58.083,12.249 57.974,12.576 L57.974,12.576 Z M56.557,9.307 C57.102,8.508 58.01,8.871 58.519,9.089 C58.519,9.089 59.063,10.215 58.991,10.797 C58.918,11.378 58.01,11.777 56.848,11.305 C55.686,10.833 56.012,10.106 56.557,9.307 L56.557,9.307 Z M34.365,51.113 C33.784,50.858 34.111,50.64 34.147,50.314 C34.147,50.314 34.329,49.732 34.91,49.878 C35.491,50.023 35.164,50.168 35.31,50.895 C35.455,51.621 34.946,51.367 34.365,51.113 L34.365,51.113 Z M32.331,58.667 C31.496,58.922 30.552,57.941 30.334,57.36 C30.116,56.779 30.304,56.366 30.552,56.198 C31.46,55.58 31.859,55.834 32.803,55.907 C33.748,55.98 33.421,56.561 33.711,57.36 C34.002,58.159 33.167,58.413 32.331,58.667 L32.331,58.667 Z M30.261,50.132 C30.297,49.587 30.66,49.914 30.915,49.914 C30.915,49.914 31.278,49.95 31.532,50.059 C31.786,50.168 31.569,50.277 31.351,50.931 C31.133,51.585 30.733,50.895 30.406,50.822 C30.079,50.749 30.225,50.677 30.261,50.132 L30.261,50.132 Z M29.861,56.597 C29.789,56.851 29.752,56.815 29.462,56.888 C29.171,56.96 29.462,56.888 29.317,56.524 C29.171,56.161 29.462,56.306 29.462,56.306 L29.898,56.198 C29.898,56.198 29.934,56.343 29.861,56.597 L29.861,56.597 Z M27.864,55.108 C27.573,55.326 27.682,55.035 27.537,54.963 C27.537,54.963 27.501,54.817 27.573,54.708 C27.646,54.599 27.755,54.454 27.864,54.454 C27.973,54.454 28.045,54.454 28.154,54.672 C28.263,54.89 28.154,54.89 27.864,55.108 L27.864,55.108 Z M27.646,55.725 C27.646,55.871 27.537,56.016 27.319,56.161 C27.101,56.306 26.847,56.161 26.738,56.052 C26.629,55.943 26.847,55.544 26.956,55.471 C26.956,55.471 27.246,55.435 27.464,55.471 C27.682,55.507 27.646,55.58 27.646,55.725 L27.646,55.725 Z M19.147,56.27 C19.11,56.67 18.82,56.306 18.747,56.089 C18.747,56.089 18.856,55.907 19.002,55.762 C19.147,55.616 19.002,55.762 19.183,55.871 C19.365,55.98 19.183,55.871 19.147,56.27 L19.147,56.27 Z M18.384,55.544 C18.13,55.725 18.13,55.689 17.694,55.616 C17.258,55.544 17.149,55.507 16.822,55.507 C16.495,55.507 16.713,55.072 16.822,54.854 C16.931,54.636 17.549,54.854 17.839,54.854 L18.675,55.217 C18.675,55.217 18.638,55.362 18.384,55.544 L18.384,55.544 Z M21.907,43.158 C22.198,43.485 21.762,43.304 21.762,43.304 C21.762,43.304 21.435,43.267 21.326,43.086 C21.217,42.904 21.399,42.795 21.399,42.795 C21.399,42.795 21.617,42.831 21.907,43.158 L21.907,43.158 Z M21.835,43.994 C21.835,44.139 21.726,44.248 21.508,44.175 C21.29,44.103 21.471,44.03 21.471,43.921 L21.835,43.848 C21.835,43.848 21.835,43.848 21.835,43.994 L21.835,43.994 Z M21.762,46.028 C21.762,46.209 21.435,46.246 21.326,46.173 C21.217,46.1 21.181,46.028 20.927,45.81 C20.672,45.592 20.927,45.81 21.217,45.338 C21.508,44.865 21.217,45.338 21.435,45.192 C21.435,45.192 21.689,45.447 21.762,45.556 C21.835,45.664 21.762,45.846 21.762,46.028 L21.762,46.028 Z M21.072,46.827 C20.999,47.045 21.072,46.827 20.672,46.79 C20.273,46.754 20.672,46.391 20.672,46.391 L20.89,46.282 C20.89,46.282 21.035,46.355 21.144,46.427 C21.253,46.5 21.144,46.609 21.072,46.827 L21.072,46.827 Z M20.091,46.028 C19.655,46.137 20.091,46.028 20.055,45.919 C20.018,45.81 20.127,45.664 20.127,45.664 C20.127,45.664 20.563,45.773 20.527,45.919 C20.491,46.064 20.527,45.919 20.091,46.028 L20.091,46.028 Z M17.827,44.466 C17.537,44.224 16.181,44.224 15.503,44.175 C14.825,44.127 14.97,43.691 14.97,43.207 C14.97,42.723 15.018,42.916 15.454,42.771 C15.89,42.626 16.229,42.335 16.229,42.335 C16.229,42.335 17.101,42.093 17.537,42.093 L18.747,42.093 C19.28,42.093 19.086,42.141 20.152,42.819 C21.217,43.497 20.442,43.11 20.636,43.546 C20.83,43.982 20.781,44.369 20.781,44.756 C20.781,45.144 20.491,45.192 20.249,45.289 C20.006,45.386 19.522,45.289 18.796,45.095 C18.069,44.902 18.118,44.708 17.827,44.466 L17.827,44.466 Z M14.861,42.141 C14.861,42.141 15.043,41.923 15.297,41.96 C15.551,41.996 15.297,41.96 15.333,42.141 C15.369,42.323 15.333,42.141 15.224,42.287 C15.115,42.432 14.897,42.25 14.861,42.141 L14.861,42.141 Z M14.679,42.831 C14.57,43.086 14.679,42.831 14.461,42.723 L14.57,42.541 L14.788,42.577 C14.788,42.577 14.788,42.577 14.679,42.831 L14.679,42.831 Z M14.582,41.415 C14.582,41.415 14.922,41.124 15.067,41.173 C15.212,41.221 15.067,41.463 14.97,41.657 C14.873,41.851 14.534,41.609 14.534,41.609 C14.534,41.609 14.534,41.609 14.582,41.415 L14.582,41.415 Z M19.801,41.306 C20.127,41.233 20.018,41.342 20.091,41.488 C20.164,41.633 19.982,42.105 19.801,42.214 C19.619,42.323 19.51,42.032 19.401,41.669 C19.401,41.669 19.474,41.379 19.801,41.306 L19.801,41.306 Z M20.854,41.96 C20.963,41.96 20.999,42.032 21.108,42.105 C21.217,42.178 21.072,42.432 20.927,42.614 C20.781,42.795 20.636,42.614 20.345,42.468 C20.055,42.323 20.528,42.091 20.273,41.887 C20.091,41.742 20.745,41.96 20.854,41.96 L20.854,41.96 Z M20.563,39.49 C20.636,39.308 20.709,39.454 20.89,39.526 C21.072,39.599 20.89,39.817 20.781,39.926 C20.672,40.035 20.491,39.926 20.491,39.926 C20.491,39.926 20.491,39.672 20.563,39.49 L20.563,39.49 Z M21.217,41.451 C21.181,41.56 20.6,41.524 20.563,41.306 C20.563,41.306 20.745,41.124 20.854,40.943 C20.963,40.761 20.999,40.943 21.253,41.088 C21.508,41.233 21.253,41.342 21.217,41.451 L21.217,41.451 Z M14.171,42.287 C13.953,42.287 14.026,42.432 13.953,42.287 C13.88,42.141 13.771,42.069 13.88,41.996 C13.989,41.923 14.062,41.814 14.135,41.706 L14.207,41.597 L14.425,42.105 C14.352,42.287 14.389,42.287 14.171,42.287 L14.171,42.287 Z M17.403,21.366 C17.04,21.366 17.185,21.257 17.185,20.966 L17.767,21.039 C17.767,21.039 17.985,21.148 18.021,21.293 C18.057,21.439 17.767,21.366 17.403,21.366 L17.403,21.366 Z M15.551,21.33 C15.115,21.584 14.788,21.947 13.808,21.947 C12.827,21.947 13.514,20.772 13.408,20.349 C13.19,19.477 13.299,19.296 14.026,19.441 C14.752,19.586 14.425,19.695 14.752,20.095 C15.079,20.494 15.369,20.349 16.277,20.712 C17.185,21.075 15.987,21.075 15.551,21.33 L15.551,21.33 Z M12.827,18.46 C12.863,18.097 12.936,18.279 13.009,18.097 C13.081,17.915 13.19,18.061 13.59,18.242 C13.989,18.424 13.844,18.678 13.553,19.005 L13.19,18.969 C13.19,18.969 12.791,18.823 12.827,18.46 L12.827,18.46 Z M13.045,19.622 C13.045,19.949 12.972,20.022 12.863,20.058 C12.754,20.095 12.355,20.131 12.355,19.913 C12.355,19.695 12.573,19.477 12.645,19.368 C12.645,19.368 12.863,19.259 13.045,19.296 C13.227,19.332 13.045,19.296 13.045,19.622 L13.045,19.622 Z M13.009,21.765 C13.009,21.765 13.009,21.765 12.936,22.129 C12.863,22.492 12.649,22.052 12.427,21.874 C12.246,21.729 12.754,21.62 12.9,21.584 C13.045,21.547 13.009,21.765 13.009,21.765 L13.009,21.765 Z M12.101,21.293 C11.955,21.221 12.221,20.712 12.101,20.531 C12.028,20.422 12.464,20.603 12.718,20.639 C12.972,20.676 12.718,20.639 12.863,20.748 C13.009,20.857 12.863,20.93 12.863,20.93 C12.863,20.93 12.791,21.221 12.427,21.402 C12.064,21.584 12.246,21.366 12.101,21.293 L12.101,21.293 Z M11.665,21.33 C11.519,21.584 11.302,21.511 10.684,21.439 C10.067,21.366 10.611,21.039 10.757,20.748 C10.902,20.458 11.302,20.567 11.665,20.494 C11.665,20.494 11.81,21.075 11.665,21.33 L11.665,21.33 Z M8.36,16.608 C7.597,17.007 7.633,16.608 7.452,16.208 C7.27,15.809 7.125,15.7 6.035,15.228 C4.945,14.756 5.054,14.501 4.982,14.102 C4.909,13.702 5.381,13.375 5.672,13.194 C5.962,13.012 6.362,13.194 6.761,13.702 C6.761,13.702 7.524,13.811 7.96,14.102 C8.396,14.392 8.251,14.174 8.868,14.174 C9.485,14.174 9.703,14.065 10.466,14.501 C11.229,14.937 10.72,15.591 10.248,15.772 C9.776,15.954 9.122,16.208 8.36,16.608 L8.36,16.608 Z M9.086,17.189 C9.086,17.189 9.122,16.862 9.377,16.717 C9.631,16.572 9.558,16.717 9.631,16.935 C9.703,17.153 9.413,17.153 9.086,17.189 L9.086,17.189 Z M8.36,17.48 C8.251,17.734 8.178,17.625 7.56,17.661 C6.943,17.697 7.379,17.589 7.415,17.371 C7.452,17.153 7.742,17.153 7.996,17.116 C7.996,17.116 8.469,17.225 8.36,17.48 L8.36,17.48 Z M7.379,20.058 C6.58,20.058 6.471,20.603 6.543,19.913 C6.616,19.223 6.507,19.223 6.652,19.005 C6.798,18.787 7.488,18.315 7.488,18.315 C7.452,18.678 7.306,18.678 7.488,19.15 C7.669,19.622 8.178,20.058 7.379,20.058 L7.379,20.058 Z M9.268,13.012 C9.449,12.722 9.812,12.976 10.139,12.976 C10.466,12.976 10.539,13.593 10.466,13.884 C10.393,14.174 9.849,13.884 9.522,13.739 C9.522,13.739 9.086,13.303 9.268,13.012 L9.268,13.012 Z M69.633,10.47 C68.834,10.506 67.599,11.051 66.836,11.45 C66.073,11.85 65.056,12.395 64.729,12.576 C64.402,12.758 63.204,13.484 62.841,12.649 C62.478,11.814 62.877,10.215 64.257,9.053 C65.637,7.891 67.78,5.566 68.253,5.167 C68.725,4.767 69.269,3.823 68.652,3.06 C68.035,2.297 66.691,3.205 65.928,3.823 C65.165,4.44 64.112,5.421 62.877,5.639 C61.642,5.857 59.463,6.256 58.01,4.731 C56.557,3.205 55.395,2.116 53.506,1.317 C51.618,0.518 49.475,-0.027 48.058,0.481 C46.642,0.99 46.387,1.389 45.697,1.753 C45.007,2.116 43.99,2.479 43.772,2.879 C43.554,3.278 43.082,3.787 42.719,4.077 C42.356,4.368 41.738,4.695 41.593,4.804 C41.448,4.913 40.431,5.893 40.104,6.293 C39.777,6.692 39.341,7.201 38.905,7.673 C38.469,8.145 37.707,8.835 37.344,9.053 C36.98,9.271 36.399,9.453 35.891,10.978 C35.382,12.504 34.946,13.484 34.728,14.828 C34.51,16.172 34.619,17.589 34.619,17.952 L34.619,18.569 C34.619,18.569 33.857,19.768 32.985,20.349 C32.113,20.93 31.024,21.475 29.244,20.857 C27.464,20.24 25.576,19.695 23.868,19.296 C22.161,18.896 20.127,18.024 19.292,17.516 C18.457,17.007 16.713,15.881 14.825,14.864 C12.936,13.847 11.628,13.266 10.285,12.649 C8.941,12.031 8.105,11.632 6.87,10.215 C5.635,8.799 3.965,6.91 3.638,6.438 C3.311,5.966 3.311,5.748 2.948,5.494 C2.585,5.239 2.403,4.331 1.604,5.276 C0.805,6.22 0.732,6.474 0.768,7.709 C0.805,8.944 0.95,9.416 0.95,9.416 L1.023,9.925 C1.023,9.925 0.26,11.523 0.224,12.249 C0.187,12.976 0.333,14.538 0.623,15.082 C0.914,15.627 1.023,15.555 1.023,16.172 L1.023,17.334 C1.023,17.661 1.059,17.843 1.132,18.206 C1.204,18.569 1.858,18.932 2.294,19.731 C2.73,20.531 3.42,20.639 3.602,21.257 C3.783,21.874 4.255,22.056 4.618,22.31 C4.982,22.564 5.89,23.727 6.144,24.017 C6.398,24.308 7.379,24.998 8.469,25.289 C9.558,25.579 10.575,25.615 10.611,26.16 C10.648,26.705 11.011,27.976 10.321,28.448 C9.631,28.921 8.686,29.284 8.105,28.884 C7.524,28.485 5.853,27.105 5.163,26.632 C4.473,26.16 2.984,25.216 2.439,24.962 C1.894,24.707 1.604,24.598 1.168,24.453 C0.732,24.308 -0.103,23.545 0.514,24.853 C1.132,26.16 2.076,28.848 2.693,29.611 C3.311,30.373 4.074,31.281 4.219,32.008 C4.364,32.734 4.473,33.57 4.909,34.078 C5.345,34.587 7.343,35.858 7.815,36.257 C8.287,36.657 8.541,37.093 8.941,37.093 C9.34,37.093 10.139,36.911 10.357,36.802 C10.575,36.693 10.938,36.548 11.084,36.294 C11.229,36.039 11.81,35.931 11.229,35.495 C10.648,35.059 10.43,35.168 9.958,34.95 C9.485,34.732 9.304,34.732 9.086,34.369 C8.868,34.006 8.759,33.969 8.723,33.642 C8.686,33.315 8.251,32.807 9.159,33.134 C10.067,33.461 11.592,33.824 11.628,34.405 C11.665,34.986 11.556,35.168 11.737,35.64 C11.919,36.112 12.863,36.875 13.045,37.311 C13.227,37.747 13.699,38.255 14.026,38.4 C14.352,38.546 14.534,38.727 14.97,38.291 C15.406,37.856 16.459,37.056 16.459,36.693 C16.459,36.33 16.06,36.657 16.459,36.33 C16.859,36.003 16.931,35.822 17.149,35.785 C17.367,35.749 17.549,35.676 17.694,35.785 C17.839,35.894 17.839,35.458 18.057,36.112 C18.275,36.766 18.275,36.475 18.42,37.02 C18.566,37.565 18.602,37.71 18.602,37.928 C18.602,38.146 18.457,38.255 18.384,38.437 C18.311,38.618 18.202,38.873 17.658,38.945 C17.113,39.018 17.331,39.09 16.641,39.018 C15.951,38.945 15.769,38.945 15.478,38.909 C15.188,38.873 15.224,38.727 15.006,38.909 C14.788,39.09 14.643,39.381 14.57,39.599 C14.498,39.817 14.57,40.253 14.425,40.616 C14.28,40.979 14.352,41.015 14.026,41.379 C13.699,41.742 13.335,41.96 13.045,41.96 C12.754,41.96 11.374,41.633 10.757,41.015 C10.139,40.398 9.667,39.817 9.231,39.672 C8.795,39.526 8.65,39.417 8.251,39.417 L7.524,39.417 C7.343,39.417 7.088,39.417 6.907,39.708 C6.725,39.998 6.616,40.362 6.834,40.689 C7.052,41.015 8.323,42.541 8.795,43.195 C9.268,43.848 10.866,45.338 11.156,45.556 C11.447,45.773 12.319,46.1 12.791,46.464 C13.263,46.827 13.626,48.389 15.769,48.461 C17.912,48.534 20.091,47.989 20.418,47.735 C20.745,47.481 21.798,46.536 22.052,46.391 C22.307,46.246 23.251,45.81 23.36,45.519 C23.469,45.229 23.723,44.43 23.505,44.03 C23.287,43.631 23.069,43.231 22.706,42.977 C22.343,42.723 21.689,42.577 21.653,42.323 C21.617,42.069 21.326,41.923 21.544,41.524 C21.762,41.124 22.67,40.725 22.997,40.507 C23.324,40.289 23.76,40.035 24.05,40.035 C24.341,40.035 24.377,39.635 25.212,40.289 C26.048,40.943 26.629,41.597 26.883,41.814 C27.137,42.032 28.082,42.614 28.699,42.25 C29.317,41.887 29.644,41.597 29.934,40.906 C30.225,40.216 30.334,39.672 31.205,39.781 C32.077,39.889 33.966,39.599 34.111,39.672 C34.256,39.744 35.491,40.362 35.527,40.943 C35.564,41.524 36.072,42.032 35.564,42.432 C35.055,42.831 34.51,42.977 34.293,42.977 C34.075,42.977 33.82,42.759 33.675,43.049 C33.53,43.34 33.348,43.957 33.239,44.212 C33.13,44.466 33.312,44.139 32.803,44.648 C32.295,45.156 32.949,44.974 32.295,45.156 C31.641,45.338 31.677,45.301 31.423,45.338 C31.169,45.374 31.024,45.374 30.842,45.374 C30.66,45.374 30.769,45.338 30.37,45.41 C29.97,45.483 30.152,45.192 29.68,45.556 C29.208,45.919 29.498,45.664 29.208,45.919 C28.917,46.173 29.171,46.173 28.663,46.391 C28.154,46.609 27.9,46.718 27.682,46.79 C27.464,46.863 27.319,46.681 27.137,46.899 C26.956,47.117 26.956,47.299 26.738,47.335 C26.52,47.372 25.721,47.226 25.721,47.481 C25.721,47.735 25.612,47.916 25.467,47.953 C25.321,47.989 25.285,47.989 24.994,48.025 C24.704,48.062 25.031,48.062 24.704,48.062 C24.377,48.062 24.304,48.062 23.941,48.025 C23.578,47.989 23.033,47.517 22.924,47.989 C22.815,48.461 22.597,48.025 22.815,48.461 C23.033,48.897 24.777,50.459 24.885,50.786 C24.994,51.113 24.885,51.113 25.321,51.331 C25.757,51.548 25.503,51.439 25.939,51.657 C26.375,51.875 27.537,52.747 27.464,53.292 C27.392,53.837 27.21,54.381 27.174,54.49 C27.137,54.599 26.956,54.781 26.847,54.89 C26.738,54.999 26.956,54.854 26.738,54.999 C26.52,55.144 26.302,55.072 26.302,55.435 C26.302,55.798 25.975,56.524 25.975,56.779 C25.975,57.033 26.084,57.687 25.975,57.868 C25.866,58.05 24.885,58.813 24.668,58.958 C24.45,59.103 24.123,59.248 24.014,59.248 C23.905,59.248 23.469,59.248 23.033,59.212 C22.597,59.176 22.452,59.176 22.161,59.103 C21.871,59.031 21.144,58.849 20.999,58.522 C20.854,58.195 20.963,58.377 20.672,57.759 C20.382,57.142 20.382,57.214 20.345,56.779 C20.309,56.343 20.491,56.343 20.236,55.798 C19.982,55.253 20.491,55.762 19.982,55.253 C19.474,54.745 20.055,54.963 19.328,54.672 C18.602,54.381 18.457,54.381 18.057,54.273 C17.658,54.164 16.568,53.982 16.277,54.018 C15.987,54.055 15.369,54.2 15.188,54.273 C15.006,54.345 14.57,54.599 14.57,54.599 C13.989,54.963 12.791,55.871 12.609,55.98 C12.427,56.089 11.955,56.198 11.556,56.198 C11.156,56.198 11.12,56.234 10.793,56.234 C10.466,56.234 9.231,56.306 9.122,56.343 C9.013,56.379 8.759,56.415 8.214,56.415 C7.669,56.415 7.27,56.27 6.87,56.27 C6.471,56.27 4.001,56.306 3.493,56.343 C2.984,56.379 2.548,56.379 1.967,56.415 C1.386,56.452 1.35,56.379 0.914,56.343 C0.478,56.306 0.369,56.415 0.26,56.488 C0.151,56.561 0.369,56.633 0.478,56.815 C0.587,56.997 2.403,57.723 2.693,57.759 C2.984,57.796 4.11,58.413 4.546,58.667 C4.982,58.922 6.58,59.539 7.452,59.648 C8.323,59.757 10.539,59.939 11.556,60.193 C12.573,60.447 13.263,60.738 14.425,61.246 C15.587,61.755 17.476,61.609 18.021,61.682 C18.566,61.755 18.929,61.864 19.692,61.9 C20.454,61.936 21.326,62.081 21.835,61.936 C22.343,61.791 25.902,61.282 26.992,61.319 C28.082,61.355 29.171,61.428 29.68,61.391 C30.188,61.355 31.569,61.246 31.932,61.028 C32.295,60.81 34.91,59.357 35.673,59.212 C36.435,59.067 37.67,58.776 37.961,58.631 C38.252,58.486 38.469,58.413 38.143,58.123 C37.816,57.832 37.271,57.541 37.089,57.251 C36.908,56.96 36.472,57.178 36.908,56.379 C37.344,55.58 37.489,55.144 37.707,54.49 C37.925,53.837 37.598,53.219 38.324,53.001 C39.051,52.783 38.978,52.856 39.632,52.602 C40.285,52.348 40.031,52.674 40.721,52.602 C41.411,52.529 41.448,52.348 41.339,52.202 C41.23,52.057 40.903,52.275 41.194,51.766 C41.484,51.258 41.339,51.403 41.557,51.113 C41.775,50.822 41.702,50.568 42.065,50.277 C42.428,49.987 42.937,49.732 43.191,49.95 C43.445,50.168 44.244,50.096 44.244,51.331 C44.244,52.565 43.845,53.982 43.3,54.236 C42.755,54.49 42.792,54.273 42.174,54.708 C41.557,55.144 40.903,55.507 40.431,55.98 C39.959,56.452 39.886,56.306 39.813,56.67 C39.741,57.033 39.995,57.069 39.995,57.287 C39.995,57.505 39.959,57.214 39.995,57.505 C40.031,57.796 39.414,57.832 40.031,57.796 C40.649,57.759 40.322,57.759 40.649,57.759 C40.976,57.759 40.903,57.796 41.339,57.65 C41.775,57.505 41.847,57.469 42.465,57.106 C43.082,56.742 44.353,55.398 44.753,55.289 C45.152,55.181 46.642,54.781 47.041,54.563 C47.441,54.345 47.877,53.982 48.022,53.546 C48.167,53.11 48.312,53.11 48.385,52.711 C48.458,52.311 48.494,52.275 48.53,51.948 C48.567,51.621 48.748,51.657 48.385,51.548 C48.022,51.439 48.094,51.512 47.695,51.403 C47.295,51.294 47.223,51.476 47.186,51.04 C47.15,50.604 47.041,50.35 47.15,50.277 C47.259,50.205 47.15,49.914 47.659,50.241 C48.167,50.568 47.913,50.423 48.24,50.713 C48.567,51.004 48.458,50.967 48.894,51.04 C49.329,51.113 49.475,51.113 49.983,51.113 C50.492,51.113 51.436,50.35 51.908,49.878 C52.38,49.406 52.78,48.788 52.889,48.389 C52.998,47.989 53.325,48.025 53.107,47.771 C52.889,47.517 53.288,47.698 52.889,47.517 C52.489,47.335 52.09,48.207 52.308,47.553 C52.526,46.899 52.526,46.754 52.852,46.754 C53.179,46.754 52.744,46.827 53.325,46.754 C53.906,46.681 54.087,46.79 54.305,46.536 C54.523,46.282 54.669,45.955 54.814,45.882 C54.959,45.81 55.794,44.756 56.594,43.158 C57.393,41.56 59.136,39.09 59.281,38.509 C59.427,37.928 59.572,37.71 59.899,37.129 C60.226,36.548 61.533,34.732 61.86,32.843 C62.187,30.955 61.933,30.373 61.896,29.829 C61.86,29.284 62.26,29.248 61.787,29.102 C61.315,28.957 61.569,28.957 61.025,29.102 C60.48,29.248 60.335,29.356 60.189,29.393 C60.044,29.429 59.862,29.429 59.608,29.356 C59.354,29.284 59.209,29.32 59.209,29.175 C59.209,29.03 58.918,28.884 59.318,28.812 C59.717,28.739 59.354,28.739 59.971,28.739 C60.589,28.739 60.335,28.775 60.916,28.739 C61.497,28.703 61.424,28.812 61.678,28.594 C61.933,28.376 62.078,28.485 62.114,28.158 C62.151,27.831 62.187,27.867 62.223,27.468 C62.26,27.068 62.441,26.124 62.296,25.761 C62.151,25.397 62.478,25.325 62.804,24.962 C63.131,24.598 63.204,24.816 63.313,24.308 C63.422,23.799 63.531,23.436 63.313,23.218 C63.095,23 62.841,22.601 62.659,23 C62.478,23.4 62.695,23.364 62.441,23.799 C62.187,24.235 61.824,24.962 61.606,25.071 C61.388,25.18 61.243,25.289 60.807,25.107 C60.371,24.925 60.08,25.252 59.971,24.598 C59.862,23.945 60.189,23.182 60.698,22.819 C61.206,22.456 60.952,22.601 62.078,22.274 C63.204,21.947 63.712,21.366 63.712,20.894 C63.712,20.422 63.422,19.659 63.712,18.932 C64.003,18.206 66.654,15.373 67.635,14.211 C68.616,13.048 69.015,12.177 69.342,11.632 C69.669,11.087 70.432,10.433 69.633,10.47 L69.633,10.47 Z" id="Fill-4"></path>
            </g>
        </g>
    </g>
</svg>