<?xml version="1.0" encoding="UTF-8" standalone="no"?>
<svg width="72px" height="72px" viewBox="0 0 72 72" version="1.1" xmlns="http://www.w3.org/2000/svg" xmlns:xlink="http://www.w3.org/1999/xlink" xmlns:sketch="http://www.bohemiancoding.com/sketch/ns">
    <!-- Generator: Sketch 3.3.3 (12081) - http://www.bohemiancoding.com/sketch -->
    <title>youtube-icon</title>
    <desc>Created with Sketch.</desc>
    <defs></defs>
    <g id="Page-1" stroke="none" stroke-width="1" fill="none" fill-rule="evenodd" sketch:type="MSPage">
        <g id="youtube-icon" sketch:type="MSLayerGroup" fill="#FFFFFF">
            <path d="M46.613,43.633 C46.834,43.381 47.194,42.834 47.122,42.325 C47.049,41.817 47.666,41.599 46.758,41.272 C45.85,40.945 45.923,40.8 45.669,41.09 C45.415,41.381 45.269,41.708 45.269,42.107 C45.269,42.507 45.269,42.471 45.378,42.906 C45.487,43.342 45.85,44.505 46.613,43.633" id="Fill-14" sketch:type="MSShapeGroup"></path>
            <path d="M68.551,39.674 C68.406,40.255 68.406,40.073 68.26,40.364 C68.115,40.655 67.498,40.8 67.498,40.8 C67.498,40.8 67.788,40.219 68.042,39.71 C68.297,39.202 68.151,39.347 68.333,39.093 C68.515,38.839 68.732,38.875 68.732,38.875 C68.732,38.875 68.696,39.093 68.551,39.674 L68.551,39.674 Z M65.754,44.359 C65.718,44.686 65.464,44.468 65.464,44.468 L65.5,44.178 C65.5,44.178 65.5,44.178 65.609,43.923 C65.718,43.669 65.609,43.923 65.791,44.032 C65.972,44.141 65.791,44.032 65.754,44.359 L65.754,44.359 Z M65.355,46.248 C65.355,46.248 65.355,46.248 65.318,45.921 L65.5,46.103 C65.5,46.103 65.464,46.248 65.355,46.248 L65.355,46.248 Z M65.173,45.34 C65.173,45.34 65.064,45.231 65.173,44.94 C65.282,44.65 65.173,44.94 65.318,44.904 C65.464,44.868 65.318,44.904 65.391,45.195 C65.464,45.485 65.173,45.34 65.173,45.34 L65.173,45.34 Z M64.991,44.577 C64.991,44.759 64.519,45.558 64.12,45.667 C63.72,45.776 63.938,45.558 63.72,45.231 C63.502,44.904 63.575,44.831 63.757,44.65 C63.757,44.65 63.757,44.65 64.229,44.141 C64.701,43.633 64.628,44.032 64.955,44.069 C65.282,44.105 64.991,44.396 64.991,44.577 L64.991,44.577 Z M64.592,46.03 L64.556,45.848 C64.556,45.848 64.556,45.848 64.846,45.739 C65.137,45.631 64.846,45.739 64.991,45.885 C65.137,46.03 64.737,46.03 64.592,46.03 L64.592,46.03 Z M58.018,57.834 C58.345,58.052 58.09,58.125 58.018,58.343 C57.945,58.561 57.8,58.67 57.473,58.96 C57.146,59.251 56.965,58.561 56.928,58.343 C56.928,58.343 57.11,57.943 57.219,57.689 C57.328,57.435 57.219,57.689 57.691,57.616 C58.163,57.544 57.691,57.616 58.018,57.834 L58.018,57.834 Z M63.539,55.582 C63.175,55.546 62.558,55.546 62.122,55.546 C61.686,55.546 61.541,55.582 60.778,55.764 C60.015,55.946 57.146,55.8 56.747,55.909 C56.347,56.018 56.529,56.454 56.529,56.854 C56.529,57.253 56.311,57.616 56.311,57.907 C56.311,58.198 56.601,60.159 56.71,60.486 C56.819,60.813 57.255,61.139 57.509,61.43 C57.764,61.721 57.909,61.612 58.199,61.648 C58.49,61.684 58.708,61.648 58.89,61.648 C59.071,61.648 59.543,61.466 59.907,61.067 C60.27,60.667 60.379,60.268 60.379,59.977 C60.379,59.687 60.306,58.888 60.27,58.706 C60.233,58.524 60.27,58.198 60.27,58.016 C60.27,57.834 60.924,57.725 61.287,57.762 C61.65,57.798 62.231,57.762 62.522,57.762 C62.812,57.762 63.865,57.725 64.156,57.798 C64.447,57.871 64.41,57.98 64.519,58.161 C64.628,58.343 64.556,58.343 64.556,58.633 C64.556,58.924 64.519,59.396 64.447,59.687 C64.374,59.977 64.156,61.503 63.466,62.774 C62.776,64.045 60.996,64.481 60.488,64.626 C59.979,64.772 58.454,64.99 58.09,64.99 C57.727,64.99 57.255,64.99 56.819,64.844 C56.383,64.699 54.64,64.19 54.168,63.682 C53.696,63.173 52.751,62.374 52.642,61.757 C52.533,61.139 52.315,62.048 52.207,62.302 C52.098,62.556 51.916,62.592 51.335,62.774 C50.754,62.956 50.972,61.83 50.972,61.139 C50.972,60.449 51.299,60.159 51.625,60.05 C51.952,59.941 51.952,60.195 52.134,60.195 C52.315,60.195 52.098,58.779 51.989,58.597 C51.88,58.415 51.952,57.762 51.952,57.253 C51.952,56.745 52.134,55.8 52.134,55.546 C52.134,55.292 52.207,55.256 52.352,54.747 C52.497,54.239 52.352,54.747 52.352,54.384 C52.352,54.021 52.388,52.277 52.461,51.841 C52.533,51.406 52.424,50.57 52.388,50.207 C52.352,49.844 51.771,50.606 51.589,50.715 C51.407,50.824 51.081,51.042 50.499,51.224 C49.918,51.406 49.01,51.188 49.01,51.188 C49.01,51.188 49.119,53.04 49.01,53.149 C48.901,53.258 49.228,56.563 49.228,56.89 C49.228,57.217 49.374,56.926 49.374,56.926 C49.374,56.926 49.555,56.745 49.846,56.672 C50.136,56.599 50.136,56.781 50.282,56.963 C50.427,57.144 50.39,57.616 50.39,58.016 C50.39,58.415 50.1,58.924 49.555,58.851 C49.01,58.779 49.119,59.106 49.119,59.106 C49.119,59.106 49.083,59.251 49.01,59.469 C48.938,59.687 48.647,62.156 48.248,63.173 C47.848,64.19 46.504,64.299 46.214,64.299 C45.923,64.299 45.778,64.299 45.524,64.445 C45.269,64.59 43.78,64.626 43.235,64.517 C42.69,64.408 41.782,63.609 41.674,63.282 C41.565,62.956 41.02,63.282 41.02,63.282 L41.02,64.118 C41.02,64.445 40.475,64.372 40.112,64.445 C39.749,64.517 40.112,64.445 39.603,64.372 C39.095,64.299 37.642,64.118 37.242,63.864 C36.843,63.609 36.589,63.319 36.661,62.956 C36.734,62.592 36.915,62.048 36.915,62.048 C36.915,62.048 36.77,60.522 36.734,60.268 C36.698,60.014 36.625,59.251 36.625,59.033 C36.625,58.815 36.952,58.633 36.952,58.343 C36.952,58.052 36.952,58.125 36.988,57.943 C37.024,57.762 37.061,54.783 37.133,54.202 C37.206,53.621 36.988,46.066 37.024,45.703 C37.061,45.34 37.315,44.723 37.351,44.396 C37.388,44.069 37.306,40.291 37.315,40.182 C37.388,39.347 38.114,39.274 38.259,39.274 C38.405,39.274 38.405,39.347 38.695,39.347 C38.986,39.347 38.695,39.347 39.24,39.238 C39.785,39.129 39.676,39.202 39.785,39.202 C39.894,39.202 40.874,39.165 41.31,39.238 C41.746,39.311 41.782,39.928 41.782,40.11 C41.782,40.291 41.819,40.4 41.855,40.764 C41.891,41.127 41.782,41.454 41.746,41.635 C41.71,41.817 41.746,41.889 41.674,42.035 C41.601,42.18 41.601,42.507 41.601,42.689 L41.601,46.72 C41.601,47.701 42.037,47.047 42.146,46.974 C42.255,46.902 42.327,46.72 42.473,46.575 C42.618,46.43 43.235,46.248 43.78,45.994 C44.325,45.739 45.596,45.413 46.758,45.776 C47.921,46.139 48.792,47.882 48.792,47.882 C48.792,47.882 48.72,47.701 49.083,47.773 C49.446,47.846 49.7,47.991 50.245,48.246 C50.79,48.5 51.081,48.1 51.407,47.846 C51.734,47.592 52.025,47.12 52.533,46.684 C53.042,46.248 53.914,47.265 54.023,47.265 L54.204,47.265 C54.204,47.265 54.349,47.083 54.894,46.539 C55.439,45.994 56.674,45.739 57.001,45.667 C57.328,45.594 57.291,45.485 57.074,45.376 C56.856,45.267 56.928,44.904 56.928,44.541 C56.928,44.178 56.965,44.359 56.965,44.178 C56.965,43.996 57.182,43.814 57.473,43.597 C57.764,43.379 57.764,42.725 57.982,42.325 C58.199,41.926 58.09,41.962 58.163,41.236 C58.236,40.509 58.49,40.945 58.672,40.873 C58.853,40.8 58.926,40.618 59.362,40.001 C59.798,39.383 59.652,39.71 59.979,39.383 C60.306,39.056 60.451,38.512 60.524,38.221 C60.597,37.931 61.032,36.986 61.25,36.623 C61.468,36.26 62.049,36.587 62.304,36.514 C62.558,36.441 62.667,36.623 62.812,36.914 C62.957,37.204 63.466,37.531 63.648,38.548 C63.829,39.565 63.103,40.291 62.74,40.509 C62.376,40.727 61.94,41.199 61.723,41.417 C61.505,41.635 61.396,41.781 61.359,42.144 C61.323,42.507 60.887,42.979 60.56,43.233 C60.233,43.488 59.471,44.396 58.853,44.904 C58.236,45.413 59.434,45.413 59.434,45.413 L60.124,45.413 C60.342,45.413 60.379,45.413 60.597,45.485 C60.815,45.558 61.65,45.776 61.795,45.885 C61.94,45.994 63.248,46.466 63.902,47.41 C64.556,48.355 64.737,49.553 64.737,49.807 C64.737,50.062 64.737,53.912 64.774,54.783 C64.81,55.655 63.902,55.619 63.539,55.582 L63.539,55.582 Z M53.441,66.442 C53.441,66.442 53.441,66.442 53.369,65.97 C53.296,65.498 53.369,65.97 53.732,65.934 C54.095,65.898 53.95,66.006 54.168,66.37 C54.386,66.733 53.841,66.515 53.441,66.442 L53.441,66.442 Z M49.737,59.832 C49.664,60.159 49.446,59.832 49.446,59.687 C49.446,59.541 49.591,59.36 49.7,59.214 C49.7,59.214 49.882,59.214 49.882,59.36 C49.882,59.505 49.809,59.505 49.737,59.832 L49.737,59.832 Z M43.962,66.624 C43.853,66.951 43.453,66.769 43.126,66.769 C43.126,66.769 42.799,66.515 42.69,66.115 C42.582,65.716 42.763,65.898 43.017,65.68 C43.272,65.462 43.272,65.643 43.78,65.752 C44.289,65.861 44.071,66.297 43.962,66.624 L43.962,66.624 Z M40.475,66.588 C40.475,66.588 40.003,66.261 39.966,65.97 C39.93,65.68 39.966,65.97 40.075,65.716 C40.184,65.462 40.257,65.68 40.584,65.68 C40.911,65.68 40.765,65.934 40.838,66.188 C40.911,66.442 40.765,66.479 40.475,66.588 L40.475,66.588 Z M38.768,70.002 C38.477,69.965 38.768,70.002 38.804,69.784 C38.84,69.566 38.804,69.784 39.095,69.82 C39.095,69.82 39.059,70.038 38.768,70.002 L38.768,70.002 Z M36.698,64.19 C36.734,64.663 36.698,64.19 36.589,64.19 C36.48,64.19 36.189,64.299 35.898,64.299 C35.608,64.299 35.753,64.299 35.608,64.081 C35.463,63.864 35.608,63.936 35.826,63.609 C36.044,63.282 36.485,63.724 36.298,63.537 C36.116,63.355 36.298,63.537 36.661,63.718 C37.024,63.9 36.661,63.718 36.698,64.19 L36.698,64.19 Z M42,45.994 C42,45.994 42.037,45.703 42.146,45.558 C42.255,45.413 42.436,45.558 42.582,45.594 C42.727,45.631 42.654,45.848 42.654,46.03 C42.654,46.212 42.436,46.139 42.146,46.139 C41.855,46.139 42,45.994 42,45.994 L42,45.994 Z M48.756,34.625 C48.901,34.407 48.901,34.516 49.119,34.516 C49.337,34.516 49.301,34.625 49.374,34.771 C49.446,34.916 49.374,35.097 49.374,35.279 C49.374,35.461 49.265,35.461 49.119,35.57 L48.756,35.497 L48.574,34.989 C48.574,34.989 48.611,34.843 48.756,34.625 L48.756,34.625 Z M49.555,36.042 C49.555,36.151 49.482,36.223 49.265,36.332 C49.265,36.332 48.974,36.369 48.901,36.151 C48.829,35.933 48.901,36.151 48.938,36.006 C48.974,35.86 49.119,35.824 49.337,35.824 C49.555,35.824 49.555,35.933 49.555,36.042 L49.555,36.042 Z M49.628,36.696 C49.628,36.696 49.628,36.914 49.519,37.168 C49.41,37.422 49.41,37.422 49.301,37.313 C49.301,37.313 49.047,37.131 49.01,36.914 C48.974,36.696 49.01,36.914 49.047,36.805 C49.083,36.696 49.192,36.696 49.41,36.623 C49.628,36.55 49.628,36.696 49.628,36.696 L49.628,36.696 Z M49.882,37.277 C49.882,37.277 50.245,37.386 50.245,37.495 C50.245,37.604 50.245,37.785 49.991,37.894 C49.737,38.003 49.991,37.894 49.737,37.567 L49.882,37.277 L49.882,37.277 Z M49.156,38.076 C48.865,38.076 48.756,37.931 48.756,37.931 C48.756,37.931 48.72,37.749 48.829,37.64 C48.938,37.531 49.083,37.458 49.083,37.458 L49.337,37.894 C49.337,37.894 49.446,38.076 49.156,38.076 L49.156,38.076 Z M50.173,40.764 C50.173,40.764 50.173,40.909 50.064,41.127 C49.955,41.345 49.918,41.054 49.809,40.945 L49.955,40.691 C49.955,40.691 49.955,40.691 50.173,40.764 L50.173,40.764 Z M50.645,41.09 C50.645,41.199 50.645,41.236 50.499,41.635 C50.354,42.035 50.499,41.635 50.318,41.599 C50.136,41.563 50.318,41.417 50.318,41.272 C50.318,41.127 50.39,41.054 50.499,40.764 C50.499,40.764 50.645,40.981 50.645,41.09 L50.645,41.09 Z M50.572,38.984 C50.717,39.383 50.572,39.42 50.572,40.073 C50.572,40.727 50.427,40.328 49.882,40.328 C49.337,40.328 49.555,40.182 49.337,39.674 C49.119,39.165 49.192,39.165 49.192,38.839 C49.192,38.512 49.628,38.039 49.846,38.039 C49.846,38.039 50.1,38.039 50.282,38.257 C50.463,38.475 50.427,38.584 50.572,38.984 L50.572,38.984 Z M53.115,35.243 C53.369,34.407 53.441,34.952 53.877,34.88 C54.313,34.807 53.986,35.097 54.277,35.352 C54.567,35.606 54.313,35.533 54.495,35.897 C54.676,36.26 54.531,36.296 54.458,36.768 C54.386,37.24 53.986,37.168 53.623,37.313 C53.26,37.458 52.969,36.587 52.933,36.405 C52.933,36.405 52.86,36.078 53.115,35.243 L53.115,35.243 Z M55.693,43.015 C55.657,43.124 55.475,43.015 55.003,42.979 C54.531,42.943 55.003,42.979 55.003,42.834 C55.003,42.834 55.403,42.725 55.548,42.725 C55.693,42.725 55.548,42.725 55.73,42.761 C55.911,42.798 55.73,42.906 55.693,43.015 L55.693,43.015 Z M55.33,40.618 C56.383,40.291 56.165,41.199 56.347,41.49 C56.529,41.781 56.347,41.49 56.274,41.817 C56.202,42.144 55.875,41.998 55.403,42.325 C54.931,42.652 55.403,42.325 54.349,42.398 C53.296,42.471 54.349,42.398 54.24,42.18 C54.132,41.962 54.24,41.926 54.277,41.526 C54.313,41.127 54.422,41.308 54.676,41.127 C54.931,40.945 54.935,40.741 55.33,40.618 L55.33,40.618 Z M55.112,35.824 C55.294,35.788 55.112,35.824 55.294,36.042 C55.475,36.26 55.294,36.042 55.366,36.187 C55.439,36.332 55.33,36.369 55.221,36.55 C55.112,36.732 54.894,36.151 54.894,35.969 C54.894,35.969 54.931,35.86 55.112,35.824 L55.112,35.824 Z M56.347,39.928 C56.529,39.783 56.819,39.565 56.965,39.71 C57.11,39.856 57.037,39.783 57.11,40.073 C57.182,40.364 57.291,40.473 57.182,40.546 C57.074,40.618 56.928,40.764 56.928,40.764 C56.783,40.873 56.783,40.981 56.638,40.8 C56.492,40.618 56.492,40.691 56.42,40.437 C56.347,40.182 56.165,40.073 56.347,39.928 L56.347,39.928 Z M57.364,41.127 L57.364,40.764 C57.364,40.764 57.364,40.764 57.473,40.546 C57.582,40.328 57.473,40.546 57.909,40.509 C57.909,40.509 57.909,40.691 57.836,40.945 C57.764,41.199 57.546,41.127 57.364,41.127 L57.364,41.127 Z M56.892,41.962 C56.601,41.672 56.892,41.962 56.783,41.781 C56.674,41.599 56.747,41.599 56.819,41.272 L57.473,41.272 C57.691,41.272 57.655,41.381 57.655,41.381 L57.655,41.889 C57.655,42.035 57.182,42.253 56.892,41.962 L56.892,41.962 Z M56.238,43.197 C56.129,42.979 56.165,43.052 56.165,42.798 C56.165,42.543 56.456,42.434 56.565,42.398 C56.565,42.398 56.928,42.434 57.074,42.58 C57.219,42.725 57.074,42.798 57.001,43.052 C56.928,43.306 56.965,43.233 56.674,43.524 C56.383,43.814 56.529,43.524 56.347,43.415 C56.165,43.306 56.347,43.415 56.238,43.197 L56.238,43.197 Z M57.255,38.693 C57.473,38.766 57.582,39.02 57.691,39.165 C57.8,39.311 57.655,39.165 57.873,39.529 C58.09,39.892 58.163,39.892 58.199,40.037 C58.236,40.182 57.982,40.328 57.873,40.328 L57.364,40.328 C57.364,40.037 57.618,39.964 57.364,39.71 C57.11,39.456 57.001,39.165 57.037,39.02 C57.074,38.875 57.037,38.621 57.255,38.693 L57.255,38.693 Z M58.817,38.548 C59.035,38.766 58.708,38.875 58.599,39.274 C58.599,39.274 58.381,39.347 58.199,39.274 C58.018,39.202 57.909,39.093 57.8,38.948 C57.691,38.802 57.691,38.802 57.618,38.584 C57.546,38.366 57.655,38.076 58.381,38.148 C59.107,38.221 58.599,38.33 58.817,38.548 L58.817,38.548 Z M57.291,36.332 C57.437,35.933 57.473,36.187 58.127,35.969 C58.781,35.751 58.272,35.969 58.962,36.006 C59.652,36.042 59.216,36.078 59.434,36.223 C59.652,36.369 59.434,36.405 59.398,36.95 C59.362,37.495 59.216,37.422 59.071,37.64 C58.926,37.858 58.781,37.931 58.454,37.967 C58.127,38.003 58.09,38.076 57.873,38.076 C57.873,38.076 57.582,37.931 57.4,37.676 C57.219,37.422 57.255,37.458 57.146,37.131 C57.037,36.805 57.146,36.732 57.291,36.332 L57.291,36.332 Z M59.144,35.17 C59.18,34.989 59.434,34.843 59.834,34.625 C60.233,34.407 60.161,34.625 60.415,34.698 C60.669,34.771 60.415,34.698 60.379,35.388 C60.342,36.078 60.306,35.533 60.161,35.751 C60.015,35.969 59.907,36.223 59.907,36.405 L59.434,35.86 C59.434,35.86 59.434,35.86 59.035,35.57 C58.635,35.279 59.107,35.352 59.144,35.17 L59.144,35.17 Z M60.524,37.531 C60.524,37.676 60.306,37.749 59.979,38.003 C59.652,38.257 59.979,38.003 59.652,37.858 C59.325,37.713 59.652,37.858 59.543,37.676 C59.434,37.495 59.689,37.386 59.798,37.204 C59.798,37.204 60.161,37.095 60.451,37.095 C60.742,37.095 60.524,37.386 60.524,37.531 L60.524,37.531 Z M61.795,35.17 C61.94,35.025 61.977,35.17 62.34,35.279 C62.703,35.388 62.34,35.279 62.376,35.424 C62.413,35.57 62.376,35.642 62.267,36.006 C62.158,36.369 62.122,36.114 61.759,36.042 C61.396,35.969 61.759,36.042 61.686,35.824 C61.614,35.606 61.614,35.461 61.614,35.461 C61.468,35.388 61.65,35.315 61.795,35.17 L61.795,35.17 Z M65.246,43.488 C65.464,43.342 65.609,43.161 65.718,43.052 C65.827,42.943 65.754,42.725 65.827,42.943 C65.899,43.161 65.718,43.597 65.718,43.597 L65.246,43.96 L65.064,43.706 C65.064,43.706 65.028,43.633 65.246,43.488 L65.246,43.488 Z M33.211,46.648 C33.138,46.829 32.92,54.384 32.957,54.892 C32.993,55.401 32.63,61.357 32.63,61.793 C32.63,62.229 32.521,63.246 32.448,63.682 C32.375,64.118 31.758,64.009 31.504,63.864 C31.249,63.718 30.995,63.864 30.668,63.864 C30.341,63.864 28.889,63.9 28.598,63.791 C28.307,63.682 28.525,62.629 28.598,62.011 C28.671,61.394 28.489,61.721 28.38,61.939 C28.271,62.156 28.053,62.302 27.69,62.447 C27.327,62.592 27.472,62.701 27.436,62.847 C27.399,62.992 26.092,63.827 25.547,64.009 C25.002,64.19 23.15,64.227 22.097,63.827 C21.043,63.428 20.898,62.411 20.862,61.83 C20.825,61.248 20.789,61.321 20.716,61.139 C20.644,60.958 20.862,57.181 20.862,57.035 C20.862,56.89 21.007,56.127 21.08,55.655 C21.152,55.183 21.152,51.478 21.189,50.897 C21.225,50.316 21.152,50.134 21.08,49.88 C21.007,49.626 21.152,47.047 21.189,46.284 C21.225,45.522 21.879,45.594 21.879,45.594 L22.46,45.594 C22.46,45.594 23.186,45.558 23.295,45.558 C23.404,45.558 24.167,45.558 24.348,45.594 C24.53,45.631 24.93,45.703 25.075,45.776 C25.22,45.848 25.293,45.885 25.293,46.357 C25.293,46.829 25.257,49.88 25.257,50.389 C25.257,50.897 25.111,55.946 25.111,56.817 C25.111,57.689 25.002,57.362 24.857,57.762 C24.712,58.161 24.748,58.379 24.748,59.069 C24.748,59.759 25.111,60.268 26.128,60.595 C27.145,60.922 28.344,59.541 28.38,59.432 C28.416,59.323 28.671,59.069 28.743,58.815 C28.816,58.561 28.743,57.943 28.743,57.689 C28.743,57.435 28.598,56.999 28.416,56.781 C28.235,56.563 28.09,56.708 27.617,56.599 C27.145,56.49 27.726,56.345 28.017,55.837 C28.307,55.328 28.671,55.437 28.671,55.437 C28.671,55.437 28.78,52.677 28.852,52.314 C28.925,51.95 28.852,51.406 28.889,50.897 C28.925,50.389 29.143,47.12 29.288,46.284 C29.433,45.449 30.015,45.631 30.196,45.631 C30.378,45.631 30.741,45.703 30.959,45.703 C31.177,45.703 32.012,45.522 32.484,45.522 C32.957,45.522 33.211,46.103 33.283,46.321 C33.356,46.539 33.283,46.466 33.211,46.648 L33.211,46.648 Z M26.273,69.856 C26.128,70.038 25.983,70.183 25.329,70.583 C24.675,70.982 24.603,70.619 24.058,70.583 C23.513,70.547 21.959,70.801 21.624,70.801 C21.443,70.801 22.06,70.292 23.295,70.292 C24.53,70.292 23.658,70.292 24.276,70.147 C24.893,70.002 25.002,69.711 25.874,69.493 C26.746,69.275 26.419,69.675 26.273,69.856 L26.273,69.856 Z M20.026,42.616 C19.518,42.471 18.392,42.507 17.992,42.507 C17.593,42.507 17.375,42.434 17.048,42.507 C16.721,42.58 16.431,42.362 16.358,42.616 C16.285,42.87 16.358,48.391 16.322,48.754 C16.285,49.117 16.322,53.512 16.176,53.875 C16.031,54.239 15.922,54.529 15.922,54.674 C15.922,54.82 15.886,55.147 15.886,55.51 L15.886,57.072 C15.886,57.471 16.104,59.178 16.104,59.687 C16.104,60.195 16.14,60.304 16.104,60.595 C16.067,60.885 15.995,61.031 15.995,61.248 L15.995,61.83 C15.995,62.084 16.031,63.246 15.995,63.355 C15.958,63.464 15.995,63.464 15.886,63.609 C15.777,63.755 15.668,63.791 15.523,63.9 C15.377,64.009 15.886,64.045 15.232,64.045 C14.578,64.045 14.433,64.009 13.707,64.009 L12.69,64.009 C12.326,64.009 12.217,64.154 11.999,64.009 C11.782,63.864 11.455,63.827 11.382,63.537 C11.309,63.246 11.273,63.21 11.273,62.992 C11.273,62.774 11.237,62.338 11.309,61.902 C11.382,61.466 11.636,55.764 11.6,55.401 C11.564,55.038 11.309,45.267 11.346,45.158 C11.382,45.049 11.455,44.868 11.491,44.541 C11.527,44.214 11.564,43.96 11.564,43.814 C11.564,43.669 11.527,42.906 11.527,42.906 C11.527,42.906 11.055,42.398 10.728,42.507 C10.521,42.576 10.292,42.543 9.893,42.58 C9.493,42.616 9.348,42.616 9.021,42.652 C8.694,42.689 8.367,42.725 8.258,42.761 C8.149,42.798 8.222,42.87 7.932,42.87 C7.641,42.87 7.278,43.015 7.132,42.87 C6.987,42.725 6.551,42.543 6.551,42.398 C6.551,42.253 6.769,40.945 6.697,40.727 C6.624,40.509 6.697,40.001 6.697,40.001 C6.697,40.001 6.697,39.42 7.423,39.311 C8.149,39.202 9.239,39.238 9.348,39.202 C9.457,39.165 13.125,38.911 13.67,38.911 L16.503,38.911 L19.3,38.911 C19.518,38.911 20.934,38.548 21.261,39.42 C21.588,40.291 21.407,41.345 21.407,41.599 C21.407,41.853 21.37,42.18 21.37,42.18 C21.37,42.18 20.934,42.58 20.789,42.616 C20.644,42.652 20.535,42.761 20.026,42.616 L20.026,42.616 Z M21.116,36.841 C21.261,36.841 21.334,36.768 21.443,36.841 C21.552,36.914 21.697,37.095 21.697,37.095 C21.624,37.24 21.879,37.567 21.443,37.531 C21.007,37.495 20.934,37.531 20.934,37.349 C20.934,37.168 20.971,36.841 21.116,36.841 L21.116,36.841 Z M22.496,37.785 C22.932,37.822 22.496,37.785 23.513,37.785 C24.53,37.785 24.058,37.822 24.457,37.931 C24.857,38.039 24.276,38.621 23.767,39.02 C23.767,39.02 22.714,39.347 22.169,39.202 C21.624,39.056 22.06,38.875 21.842,38.475 C21.624,38.076 21.733,38.257 21.733,37.894 C21.733,37.531 22.06,37.749 22.496,37.785 L22.496,37.785 Z M22.787,37.168 C23.259,37.095 22.787,37.168 22.896,37.277 C23.005,37.386 22.896,37.531 22.605,37.604 L22.315,37.24 C22.315,37.24 22.315,37.24 22.787,37.168 L22.787,37.168 Z M25.148,42.071 C25.148,42.071 25.148,42.289 25.075,42.507 C25.002,42.725 24.893,42.798 24.893,42.798 C24.893,42.798 24.784,42.943 24.348,43.088 C23.913,43.233 24.348,43.088 24.094,42.906 C23.84,42.725 24.131,42.616 24.203,42.253 C24.276,41.889 24.203,42.253 24.603,42.107 C25.002,41.962 25.148,42.071 25.148,42.071 L25.148,42.071 Z M25.474,42.834 C25.656,42.834 25.656,42.906 25.656,43.161 C25.656,43.415 25.264,43.067 25.329,43.197 C25.402,43.342 25.111,43.124 25.111,43.124 C25.111,43.124 25.111,43.124 25.293,42.834 C25.474,42.543 25.293,42.834 25.474,42.834 L25.474,42.834 Z M25.511,42.144 L25.511,41.744 C25.511,41.563 25.511,41.744 25.729,41.744 C25.947,41.744 25.729,41.744 26.056,41.781 C26.382,41.817 26.056,41.998 25.983,42.216 C25.91,42.434 25.656,42.471 25.511,42.362 C25.365,42.253 25.511,42.362 25.511,42.144 L25.511,42.144 Z M25.838,41.236 C25.874,41.127 25.91,41.018 25.947,40.691 C25.983,40.364 26.056,40.364 26.673,40.364 C27.29,40.364 26.673,40.364 26.818,40.618 C26.964,40.873 26.818,41.018 26.818,41.272 C26.818,41.526 26.491,41.417 26.092,41.526 C25.692,41.635 26.092,41.526 25.874,41.526 C25.874,41.526 25.801,41.345 25.838,41.236 L25.838,41.236 Z M27.363,43.996 L26.709,44.032 C26.709,44.032 26.782,43.778 27.073,43.778 L27.254,43.778 L27.363,43.996 L27.363,43.996 Z M27.073,41.926 C27.073,41.926 27.69,41.962 27.944,41.926 C28.199,41.889 28.126,41.926 28.307,41.998 C28.489,42.071 28.453,42.216 28.453,42.216 C28.453,42.216 28.453,42.216 28.453,42.58 C28.453,42.943 28.38,42.798 28.271,43.052 C28.162,43.306 28.017,43.197 26.855,43.451 C25.692,43.706 26.855,43.451 26.709,42.58 C26.564,41.708 26.782,42.362 27.073,41.926 L27.073,41.926 Z M27.073,41.308 C27.073,41.09 27.073,41.308 27.109,41.163 C27.145,41.018 27.29,41.163 27.581,41.236 C27.872,41.308 27.581,41.454 27.436,41.635 C27.29,41.817 27.395,41.741 27.182,41.599 C26.964,41.454 27.073,41.526 27.073,41.308 L27.073,41.308 Z M28.707,42.216 C28.707,42.216 29.107,41.998 29.288,41.998 C29.47,41.998 29.47,42.035 29.833,42.216 C30.196,42.398 29.906,42.434 29.906,42.434 C29.906,42.434 29.579,42.798 29.397,42.798 C29.215,42.798 29.397,42.798 28.816,42.906 C28.235,43.015 28.78,42.616 28.707,42.216 L28.707,42.216 Z M71.892,50.861 C71.674,49.844 71.783,50.316 71.566,49.553 C71.348,48.79 71.021,45.158 71.021,44.686 C71.021,44.214 70.875,43.923 70.73,43.27 C70.585,42.616 70.476,42.725 70.476,41.962 C70.476,41.199 70.549,41.236 70.476,40.618 C70.403,40.001 70.403,39.71 70.294,39.383 C70.185,39.056 69.749,37.567 69.423,37.131 C69.096,36.696 67.316,35.134 67.243,35.025 C67.171,34.916 67.098,35.897 66.59,35.751 C66.081,35.606 65.827,35.751 65.827,35.206 L65.827,34.117 C65.827,34.117 64.192,33.754 63.757,33.572 C63.321,33.39 63.066,33.172 62.921,33.39 C62.776,33.608 62.921,34.189 62.594,34.407 C62.267,34.625 62.304,35.025 61.577,34.734 C60.851,34.444 60.56,34.407 60.56,34.044 C60.56,33.681 60.56,33.645 60.633,33.354 C60.706,33.064 61.141,32.991 60.451,32.991 C59.761,32.991 58.49,32.918 57.945,32.991 C57.4,33.064 57.219,33.209 56.71,33.1 C56.202,32.991 55.621,32.955 55.149,32.955 C54.676,32.955 54.604,33.064 53.587,32.918 C52.57,32.773 51.444,32.664 51.081,32.664 L41.71,32.664 C40.874,32.664 39.022,32.555 38.296,32.555 L36.661,32.555 C36.334,32.555 21.08,32.41 20.39,32.446 C19.699,32.482 19.627,32.591 18.791,32.664 C17.956,32.737 17.23,32.773 16.721,32.773 C16.213,32.773 13.234,32.737 12.145,32.773 C11.055,32.809 9.457,33.027 9.13,33.027 C8.803,33.027 5.68,33.863 4.626,34.734 C3.573,35.606 2.338,36.95 1.975,37.386 C1.612,37.822 1.648,37.785 1.466,38.221 C1.285,38.657 1.067,39.311 0.958,39.456 C0.849,39.601 0.922,39.747 0.704,40.001 C0.486,40.255 0.341,40.546 0.377,41.199 C0.395,41.526 0.813,42.798 0.849,44.069 C0.885,45.34 1.43,46.938 1.285,47.701 C1.14,48.464 0.958,49.662 0.74,50.171 C0.522,50.679 0.413,50.824 0.268,51.188 C0.123,51.551 0.232,53.585 0.123,54.348 C0.014,55.11 -0.023,55.11 0.014,56.2 C0.05,57.289 0.232,58.851 0.304,59.178 C0.377,59.505 0.449,59.687 0.522,60.014 C0.561,60.187 0.609,61.205 0.646,62.125 C0.675,62.086 0.871,61.936 0.849,61.757 C0.828,61.59 1.198,61.241 1.395,60.996 C1.249,60.899 1.036,60.792 1.321,60.74 C1.593,60.691 1.541,60.815 1.395,60.996 C1.454,61.035 1.503,61.072 1.503,61.103 C1.503,61.212 1.466,61.648 1.43,61.83 C1.394,62.011 1.43,61.83 0.885,62.048 C0.697,62.123 0.644,62.143 0.647,62.13 C0.68,62.945 0.704,63.682 0.704,63.682 C0.704,63.682 1.285,64.626 1.503,65.389 C1.721,66.152 3.718,67.496 4.227,68.149 C4.735,68.803 4.445,68.694 5.135,69.021 C5.825,69.348 5.607,69.348 6.515,69.856 C7.423,70.365 7.605,70.619 8.04,70.765 C8.476,70.91 9.929,70.873 11.382,70.91 C12.835,70.946 13.017,70.946 14.215,71.019 C15.414,71.091 18.465,71.309 19.699,71.273 C20.934,71.237 28.707,71.6 29.433,71.709 C30.16,71.818 30.668,71.745 31.467,71.673 C32.266,71.6 31.576,71.6 33.937,71.636 C36.298,71.673 35.426,72.036 35.971,71.491 C36.516,70.946 36.516,71.128 36.807,71.418 C37.097,71.709 37.351,71.709 37.751,71.709 C38.15,71.709 38.223,71.564 38.695,71.564 C39.167,71.564 39.385,71.673 39.603,71.673 C39.821,71.673 40.184,71.781 40.184,71.673 C40.184,71.564 41.165,71.564 40.62,71.346 C40.075,71.128 39.966,70.583 40.33,70.292 C40.693,70.002 42.073,69.639 42.473,70.147 C42.872,70.656 42.981,70.619 43.017,70.982 C43.054,71.346 42.799,71.273 42.799,71.455 C42.799,71.636 42.4,71.455 42.799,71.636 C43.199,71.818 44.252,71.927 44.652,71.781 C45.051,71.636 45.124,71.527 45.124,71.382 C45.124,71.237 45.051,70.982 45.16,70.765 C45.269,70.547 45.887,68.803 46.032,68.404 C46.177,68.004 46.686,67.895 46.867,67.823 C47.049,67.75 46.831,67.641 47.485,67.641 C48.139,67.641 48.139,67.786 48.502,67.387 C48.865,66.987 48.974,66.915 49.192,66.588 C49.41,66.261 49.482,65.934 49.591,65.825 C49.7,65.716 49.664,65.643 50.064,65.825 C50.463,66.006 50.499,65.643 50.754,66.333 C51.008,67.023 51.008,67.568 51.008,67.823 C51.008,68.077 50.536,68.04 50.282,68.331 C50.027,68.621 49.991,69.239 49.991,69.348 C49.991,69.457 50.027,69.421 49.628,69.566 C49.228,69.711 49.664,69.384 49.228,69.711 C48.792,70.038 49.047,69.53 48.393,70.292 C47.739,71.055 47.703,71.128 47.703,71.346 C47.703,71.564 47.63,71.6 47.703,71.709 C47.775,71.818 47.557,72.145 48.211,71.927 C48.865,71.709 48.938,71.781 49.192,71.6 C49.446,71.418 49.882,71.2 50.136,70.91 C50.39,70.619 50.427,70.256 50.79,70.292 C51.153,70.329 51.299,70.438 51.081,70.656 C50.863,70.873 50.681,70.801 50.608,71.055 C50.536,71.309 50.427,71.455 50.608,71.6 C50.79,71.745 50.972,71.709 51.19,71.745 C51.407,71.781 51.662,71.781 51.952,71.781 C52.243,71.781 53.768,71.818 54.458,71.818 C55.149,71.818 55.221,71.6 55.802,71.6 C56.383,71.6 55.984,71.636 56.783,71.6 C57.582,71.564 61.323,71.128 62.122,71.055 C62.921,70.982 65.936,70.365 66.59,69.53 C67.243,68.694 68.987,66.769 69.314,66.479 C69.641,66.188 69.822,66.297 70.04,65.643 C70.258,64.99 70.149,64.772 70.367,64.081 C70.585,63.391 70.694,63.028 70.73,62.919 C70.766,62.81 71.166,58.524 71.202,58.161 C71.239,57.798 71.457,57.58 71.493,57.072 C71.529,56.563 71.202,52.786 71.529,52.241 C71.856,51.696 72.11,51.878 71.892,50.861 L71.892,50.861 Z" id="Fill-16" sketch:type="MSShapeGroup"></path>
            <path d="M44.361,50.534 C44.434,50.679 44.289,50.861 44.18,50.97 C44.071,51.079 43.998,50.679 43.998,50.679 C43.998,50.679 43.998,50.461 44.071,50.352 C44.143,50.243 44.071,50.352 44.289,50.389 C44.507,50.425 44.289,50.389 44.361,50.534 L44.361,50.534 Z M44.289,53.149 C44.289,53.585 44.18,53.294 43.707,53.258 C43.235,53.222 43.453,53.149 43.017,52.713 C42.582,52.277 42.799,52.35 42.836,51.914 C42.872,51.478 43.017,51.514 43.344,51.224 C43.671,50.933 43.671,51.26 43.925,51.66 C44.18,52.059 44.071,52.023 44.289,52.386 L44.289,53.149 L44.289,53.149 Z M42.618,50.606 C42.763,50.461 42.69,50.425 42.908,50.425 C43.126,50.425 42.872,50.243 43.126,50.425 C43.381,50.606 43.562,50.933 43.562,50.933 C43.381,50.933 42.727,51.26 42.618,51.079 C42.509,50.897 42.473,50.752 42.618,50.606 L42.618,50.606 Z M41.855,50.207 C41.565,49.989 41.855,50.207 41.819,49.916 C41.782,49.626 41.819,49.698 41.891,49.408 C41.964,49.117 42.218,49.226 42.364,49.154 C42.364,49.154 42.836,49.698 42.836,50.098 C42.836,50.498 42.654,50.316 42.473,50.389 C42.291,50.461 42.146,50.425 41.855,50.207 L41.855,50.207 Z M42.908,49.372 C42.945,49.19 43.199,49.045 43.381,49.045 C43.562,49.045 43.235,48.79 43.562,49.045 C43.889,49.299 43.889,49.226 43.889,49.589 C43.889,49.953 43.599,50.134 43.599,50.134 C43.308,49.989 43.272,50.134 43.09,49.88 C42.908,49.626 42.872,49.553 42.908,49.372 L42.908,49.372 Z M44.724,54.529 C44.797,54.42 44.579,50.57 44.615,50.352 C44.652,50.134 44.652,50.025 44.652,49.771 C44.652,49.517 44.434,49.19 44.252,49.081 C44.071,48.972 43.562,48.754 43.344,48.718 C43.126,48.681 43.017,48.645 42.836,48.645 C42.654,48.645 42.509,48.536 42.364,48.645 C42.218,48.754 42.109,48.827 41.964,48.936 C41.819,49.045 41.492,49.117 41.492,49.117 C41.492,49.117 40.983,53.548 40.983,54.021 C40.983,54.493 41.02,54.747 41.02,54.965 C41.02,55.183 40.947,56.89 40.947,57.108 C40.947,57.326 40.874,57.762 40.874,58.016 C40.874,58.27 40.802,58.597 40.911,58.815 C41.02,59.033 41.165,59.614 41.165,59.759 C41.165,59.905 41.31,60.958 41.31,60.958 C41.31,60.958 42.69,61.539 42.908,61.612 C43.126,61.684 42.981,61.793 43.344,61.721 C43.707,61.648 44.289,61.067 44.398,60.776 C44.507,60.486 44.797,59.759 44.797,59.36 C44.797,58.96 44.652,54.638 44.724,54.529 L44.724,54.529 Z" id="Fill-18" sketch:type="MSShapeGroup"></path>
            <path d="M59.834,49.263 C59.616,49.045 59.58,48.899 59.325,48.827 C59.071,48.754 58.199,48.718 57.982,48.754 C57.764,48.79 57.4,48.718 57.219,48.936 C57.037,49.154 56.856,49.408 56.783,49.589 C56.71,49.771 56.674,50.28 56.601,50.606 C56.529,50.933 56.492,51.26 56.492,51.587 L56.492,52.713 L56.819,52.895 C56.819,52.895 59.689,52.931 59.798,52.931 C59.907,52.931 60.633,52.749 60.633,52.749 C60.633,52.749 60.597,50.606 60.451,50.207 C60.306,49.807 60.052,49.481 59.834,49.263" id="Fill-19" sketch:type="MSShapeGroup"></path>
            <path d="M57.509,22.567 C57.509,22.785 57.437,22.785 57.291,23.148 C57.146,23.511 57.037,23.003 57.001,22.712 C57.001,22.712 56.928,22.385 57.001,22.24 C57.074,22.095 57.328,22.131 57.509,22.131 C57.691,22.131 57.509,22.349 57.509,22.567 L57.509,22.567 Z M56.928,24.347 C56.819,24.528 56.928,24.347 56.783,24.31 C56.638,24.274 56.783,24.31 56.819,24.165 L57.037,24.02 C57.037,24.02 57.037,24.165 56.928,24.347 L56.928,24.347 Z M56.129,24.129 C55.657,24.419 56.129,24.129 55.911,23.874 C55.693,23.62 56.129,23.547 56.202,23.402 L56.42,23.112 L56.71,23.112 C57.001,23.112 56.747,23.257 56.747,23.62 C56.747,23.983 56.601,23.838 56.129,24.129 L56.129,24.129 Z M55.802,26.163 C55.802,26.272 55.73,26.526 55.73,26.526 C55.73,26.526 55.33,26.344 55.33,26.163 C55.33,26.163 55.548,25.945 55.802,26.054 C56.057,26.163 55.802,26.054 55.802,26.163 L55.802,26.163 Z M58.018,20.823 L58.127,19.08 C58.127,19.08 58.236,18.245 58.236,17.954 C58.236,17.664 58.199,17.337 58.272,16.973 C58.345,16.61 58.381,12.397 58.381,12.179 C58.381,11.961 58.345,10.508 58.345,10.145 C58.345,9.782 58.417,9.491 58.345,9.055 C58.272,8.62 58.272,8.22 58.236,8.111 C58.199,8.002 57.836,7.639 57.836,7.639 C57.836,7.639 57.473,7.639 56.928,7.603 C56.383,7.566 55.657,7.566 55.294,7.566 L54.204,7.566 L53.296,7.566 L52.642,7.93 C52.642,7.93 52.606,8.438 52.606,8.729 C52.606,9.019 52.642,13.705 52.642,13.814 C52.642,13.922 52.933,14.177 52.824,14.831 C52.715,15.484 52.606,15.956 52.606,16.32 C52.606,16.683 52.533,21.041 52.533,21.405 L52.533,21.913 C52.533,22.167 51.916,22.531 51.734,22.676 C51.553,22.821 51.008,23.075 50.826,23.075 C50.645,23.075 50.427,23.148 50.318,22.894 C50.209,22.639 50.136,22.458 50.136,22.058 C50.136,21.659 50.209,21.078 50.209,21.078 C50.209,21.078 50.39,20.969 50.39,20.823 L50.39,18.608 C50.39,18.281 50.354,18.208 50.39,17.881 C50.427,17.555 50.79,13.487 50.79,13.123 C50.79,12.76 50.717,9.419 50.717,9.419 C50.717,9.419 50.754,8.801 50.717,8.656 C50.681,8.511 49.955,8.002 49.955,8.002 C49.955,8.002 49.446,7.821 49.156,7.748 C48.865,7.675 48.502,7.566 48.03,7.566 L47.049,7.566 C46.686,7.566 46.468,7.566 46.214,7.639 C45.959,7.712 45.669,7.675 45.415,7.748 C45.16,7.821 44.906,7.857 44.797,7.93 C44.688,8.002 44.615,8.002 44.579,8.22 C44.543,8.438 44.724,8.765 44.724,8.765 L44.724,10.327 C44.724,10.436 45.015,10.545 45.015,10.799 C45.015,11.053 44.87,14.722 44.87,14.722 L44.833,15.448 C44.833,15.448 44.652,18.354 44.652,18.463 L44.652,23.911 C44.652,23.911 44.906,24.347 44.906,24.492 C44.906,24.637 44.87,24.746 44.87,24.964 C44.87,25.182 44.833,25.182 44.942,25.436 C45.051,25.69 45.742,26.598 45.887,26.744 C46.032,26.889 47.013,27.18 47.158,27.216 C47.303,27.252 48.611,27.289 49.01,27.325 C49.41,27.361 49.737,27.543 50.173,27.361 C50.608,27.18 50.572,27.107 50.754,27.107 C50.935,27.107 51.008,26.998 51.262,26.853 C51.516,26.707 51.916,26.526 51.989,26.417 C52.061,26.308 51.916,26.272 52.134,26.126 C52.352,25.981 52.098,25.836 52.352,25.981 C52.606,26.126 52.642,26.199 52.679,26.381 C52.715,26.562 52.497,26.816 52.57,26.998 C52.642,27.18 52.388,27.034 52.642,27.18 C52.897,27.325 52.86,27.361 53.26,27.325 C53.659,27.289 55.548,27.289 55.948,27.252 C56.347,27.216 56.202,27.143 56.638,27.071 C57.074,26.998 57.074,26.962 57.364,26.962 C57.655,26.962 57.437,27.107 57.655,26.962 C57.873,26.816 58.381,26.417 58.381,26.017 C58.381,26.017 58.054,22.022 58.054,21.84 C58.054,21.659 58.018,20.823 58.018,20.823 L58.018,20.823 Z" id="Fill-20" sketch:type="MSShapeGroup"></path>
            <path d="M37.133,19.806 C37.097,20.133 36.698,21.514 36.589,21.986 C36.48,22.458 36.516,22.785 36.48,23.112 C36.443,23.439 35.826,23.439 35.608,23.439 C35.39,23.439 35.245,23.33 34.954,23.148 C34.664,22.966 34.664,22.821 34.664,22.494 C34.664,22.167 34.482,19.153 34.482,19.044 C34.482,18.935 34.627,18.172 34.664,17.918 C34.7,17.664 34.845,14.758 34.845,14.576 C34.845,14.395 35.063,12.034 35.063,12.034 C35.063,12.034 35.608,11.598 35.753,11.489 C35.753,11.489 36.371,11.525 36.625,11.562 C36.879,11.598 36.807,11.671 36.952,11.961 C37.097,12.252 37.097,12.361 37.133,12.688 C37.17,13.014 37.242,13.341 37.279,13.777 C37.315,14.213 37.315,15.412 37.315,15.63 C37.315,15.847 37.17,19.48 37.133,19.806 L37.133,19.806 Z M42.908,17.627 C42.945,17.264 42.981,14.213 42.981,13.777 C42.981,13.341 42.545,12.47 42.545,12.288 C42.545,12.106 42.509,10.436 42.436,10.29 C42.364,10.145 42.218,10.036 42.073,9.891 C41.928,9.746 41.565,9.346 41.419,9.128 C41.274,8.91 39.567,7.93 39.204,7.748 C38.84,7.566 37.569,7.348 37.133,7.348 C36.698,7.348 35.608,7.312 35.136,7.312 C34.664,7.312 34.264,7.348 33.937,7.457 C33.61,7.566 33.102,7.821 32.884,7.857 C32.666,7.893 32.266,8.038 31.903,8.22 C31.54,8.402 31.032,8.511 30.668,8.838 C30.305,9.164 29.579,10.254 29.506,10.436 C29.433,10.617 29.288,10.69 29.215,10.981 C29.143,11.271 29.433,14.504 29.433,15.012 C29.433,15.521 29.324,16.174 29.179,16.32 C29.034,16.465 28.816,17.119 28.816,17.337 C28.816,17.555 28.816,22.785 28.852,23.184 C28.889,23.584 29.143,24.056 29.215,24.201 C29.288,24.347 30.341,25.654 30.814,26.054 C31.286,26.453 32.157,26.925 32.739,27.143 C33.32,27.361 33.356,27.434 33.792,27.506 C34.228,27.579 34.228,27.47 34.882,27.615 C35.535,27.761 36.952,27.906 37.17,27.761 C37.388,27.615 38.332,26.925 38.877,26.962 C39.422,26.998 40.148,26.962 40.33,26.816 C40.511,26.671 41.31,25.799 41.528,25.545 C41.746,25.291 41.964,25.654 42.291,24.564 C42.618,23.475 42.654,23.62 42.69,23.148 C42.727,22.676 42.654,21.078 42.654,21.078 C42.654,21.078 42.582,19.952 42.582,19.625 C42.582,19.298 42.582,19.189 42.69,18.826 C42.799,18.463 42.872,17.99 42.908,17.627 L42.908,17.627 Z" id="Fill-21" sketch:type="MSShapeGroup"></path>
            <path d="M28.562,5.605 C28.562,5.787 28.38,5.823 28.09,5.823 C27.799,5.823 27.835,5.787 27.835,5.787 L27.835,5.46 C27.835,5.46 27.835,5.46 27.944,5.314 C28.053,5.169 28.126,5.314 28.38,5.351 C28.634,5.387 28.562,5.423 28.562,5.605 L28.562,5.605 Z M27.908,8.111 C27.763,8.111 27.69,8.184 27.617,8.002 L27.436,7.784 C27.436,7.784 27.436,7.784 27.69,7.566 C27.944,7.348 28.017,7.712 28.126,7.857 C28.235,8.002 28.053,8.111 27.908,8.111 L27.908,8.111 Z M27.29,9.709 L27.29,9.491 C27.29,9.491 27.327,9.346 27.581,9.419 C27.835,9.491 27.581,9.419 27.69,9.455 C27.799,9.491 27.508,9.782 27.29,9.709 L27.29,9.709 Z M26.782,8.656 C26.927,8.583 26.673,8.62 26.927,8.583 L27.182,8.547 L27.327,8.983 C27.327,8.983 26.637,8.729 26.782,8.656 L26.782,8.656 Z M26.6,10 C26.382,10.181 26.419,10.327 26.056,10.545 C25.692,10.763 25.511,9.927 25.511,9.6 C25.511,9.6 25.729,9.201 25.983,9.128 C26.237,9.055 26.564,9.128 26.855,9.273 C27.145,9.419 26.818,9.818 26.6,10 L26.6,10 Z M25.293,9.346 C25.257,9.528 25.184,9.6 25.075,9.673 C24.966,9.746 24.784,9.782 24.821,9.564 L24.93,9.055 C24.93,9.055 25.111,9.019 25.293,9.019 C25.474,9.019 25.329,9.164 25.293,9.346 L25.293,9.346 Z M24.748,8.729 C24.639,9.128 24.748,8.729 24.566,8.801 C24.385,8.874 24.566,8.801 24.566,8.62 L24.857,8.329 C24.857,8.329 24.857,8.329 24.748,8.729 L24.748,8.729 Z M24.603,18.789 C24.603,18.935 24.385,18.789 23.913,18.499 C23.44,18.208 23.949,18.354 23.949,18.208 L24.203,18.136 C24.203,18.136 24.203,18.136 24.421,18.172 C24.639,18.208 24.639,18.354 24.639,18.354 C24.639,18.354 24.603,18.644 24.603,18.789 L24.603,18.789 Z M23.913,9.164 C23.985,9.019 24.058,8.91 24.058,8.91 C24.058,8.91 24.385,8.91 24.494,8.983 C24.603,9.055 24.53,9.164 24.494,9.564 C24.457,9.963 24.385,9.927 24.058,10.109 C23.731,10.29 24.058,10.109 23.876,10.036 C23.876,10.036 23.84,9.818 23.84,9.31 C23.84,8.801 23.84,9.31 23.913,9.164 L23.913,9.164 Z M23.985,7.239 L24.421,6.985 C24.421,6.985 24.421,6.985 24.566,7.094 C24.712,7.203 24.566,7.239 24.421,7.53 C24.276,7.821 24.421,7.53 24.094,7.53 C23.767,7.53 23.985,7.239 23.985,7.239 L23.985,7.239 Z M25.002,7.966 C25.002,7.857 25.293,7.675 25.547,7.675 C25.801,7.675 25.692,7.675 25.801,7.857 C25.91,8.038 25.801,8.256 25.692,8.511 C25.583,8.765 25.329,8.583 25.148,8.547 C25.148,8.547 25.039,8.293 25.002,8.075 C24.966,7.857 25.002,8.075 25.002,7.966 L25.002,7.966 Z M25.874,7.203 C26.092,7.021 25.874,7.203 26.056,7.312 C26.237,7.421 26.056,7.312 26.273,7.421 C26.491,7.53 26.128,7.784 26.128,7.675 C26.128,7.675 25.729,7.675 25.656,7.53 C25.583,7.385 25.656,7.385 25.874,7.203 L25.874,7.203 Z M26.528,6.477 C26.673,6.295 26.528,6.477 27.182,6.695 C27.835,6.913 27.254,7.058 27,7.276 C26.746,7.494 27,7.276 26.6,7.276 C26.201,7.276 26.419,7.13 26.31,7.094 C26.31,7.094 26.31,7.094 26.273,6.876 C26.237,6.658 26.382,6.658 26.528,6.477 L26.528,6.477 Z M23.223,10.617 C23.223,10.617 23.114,10.145 23.15,9.855 C23.186,9.564 23.186,9.709 23.332,9.564 C23.477,9.419 23.513,10.145 23.513,10.472 C23.513,10.799 23.44,10.69 23.223,10.617 L23.223,10.617 Z M23.041,10.908 C23.005,11.089 22.896,11.162 22.75,11.344 C22.605,11.525 22.641,11.489 22.024,11.707 C21.771,11.796 21.704,11.836 21.697,11.852 C21.804,11.852 21.687,11.876 21.697,11.852 C21.515,11.852 21.552,11.707 21.443,11.525 C21.443,11.525 21.515,11.017 21.624,10.617 C21.733,10.218 21.915,10.29 22.06,10.218 C22.206,10.145 22.532,9.927 22.714,9.927 C22.896,9.927 23.077,10.726 23.041,10.908 L23.041,10.908 Z M21.37,12.397 C21.225,12.688 21.152,12.361 21.007,12.215 L21.225,11.997 C21.225,11.997 21.225,11.997 21.515,12.106 C21.806,12.215 21.515,12.106 21.37,12.397 L21.37,12.397 Z M20.68,13.922 C20.535,13.85 20.68,13.922 20.535,13.487 C20.39,13.051 20.535,13.196 20.535,13.087 L21.043,12.978 C21.043,12.978 21.08,13.378 21.152,13.632 C21.225,13.886 20.825,13.995 20.68,13.922 L20.68,13.922 Z M20.244,12.47 L20.644,12.288 C20.644,12.288 20.644,12.288 20.825,12.324 C21.007,12.361 20.825,12.324 20.825,12.506 C20.825,12.688 20.789,12.724 20.39,12.797 C19.99,12.869 20.39,12.797 20.244,12.47 L20.244,12.47 Z M19.264,14.249 C19.191,14.649 19.264,14.249 18.9,14.431 C18.537,14.613 18.9,14.431 18.646,14.249 C18.392,14.068 18.646,14.249 18.61,13.922 C18.573,13.596 18.682,13.741 18.791,13.632 C18.9,13.523 19.046,13.596 19.155,13.523 C19.155,13.523 19.336,13.85 19.264,14.249 L19.264,14.249 Z M30.632,1.428 C30.523,1.392 30.341,1.319 29.978,1.319 C29.615,1.319 28.598,1.392 28.453,1.319 C28.307,1.246 27.908,1.174 27.581,1.101 C27.254,1.029 27.109,0.92 26.818,0.92 C26.528,0.92 26.019,1.138 25.692,1.174 C25.365,1.21 25.184,1.246 24.966,1.246 C24.748,1.246 24.312,1.428 24.24,1.755 C24.167,2.082 23.804,4.043 23.767,4.733 C23.731,5.423 23.622,5.859 23.549,6.113 C23.477,6.368 23.295,6.549 23.15,6.985 C23.005,7.421 22.932,7.421 22.932,7.712 C22.932,8.002 22.896,8.22 22.714,8.62 C22.532,9.019 22.714,9.237 22.423,9.273 C22.133,9.31 21.988,9.455 21.988,9.092 C21.988,8.729 21.951,8.329 21.915,8.075 C21.879,7.821 20.535,3.535 20.426,3.353 C20.317,3.171 20.317,3.208 20.063,2.59 C19.808,1.973 19.518,1.573 19.518,1.573 C19.518,1.573 19.445,1.029 18.719,1.065 C17.992,1.101 15.159,1.029 14.869,1.101 C14.578,1.174 14.033,1.246 13.815,1.283 C13.598,1.319 13.416,1.537 13.489,1.791 C13.561,2.046 14.542,4.406 14.687,5.024 C14.832,5.641 17.411,12.106 17.629,12.433 C17.847,12.76 17.883,12.361 17.92,12.906 C17.956,13.45 18.646,14.939 18.646,15.194 C18.646,15.448 18.61,15.811 18.682,15.956 C18.755,16.102 18.755,16.647 18.791,16.828 C18.828,17.01 19.155,17.046 19.336,16.792 C19.518,16.538 19.845,15.811 19.845,15.303 C19.845,14.794 19.845,14.613 19.772,14.322 C19.699,14.031 19.663,13.85 19.699,13.487 C19.736,13.123 19.772,12.942 19.881,12.978 C19.99,13.014 20.063,13.16 20.099,13.523 C20.135,13.886 19.881,13.741 20.244,14.395 C20.607,15.048 20.825,15.194 20.934,15.593 C21.043,15.993 21.152,16.429 21.08,16.683 C21.007,16.937 20.898,17.155 20.607,17.518 C20.317,17.881 20.208,17.881 20.099,18.281 C19.99,18.681 19.954,19.153 19.881,19.407 C19.808,19.661 20.208,19.48 19.808,19.661 C19.409,19.843 19.627,20.133 19.227,19.77 C18.828,19.407 18.719,19.407 18.646,19.77 C18.573,20.133 18.537,20.896 18.573,21.187 C18.61,21.477 18.828,21.695 19.155,21.55 C19.482,21.405 20.026,21.15 20.208,21.55 C20.39,21.949 21.007,22.349 20.898,22.785 C20.789,23.221 20.535,23.656 20.353,23.729 C20.172,23.802 20.135,23.947 19.881,23.983 C19.627,24.02 19.336,24.31 19.3,24.201 C19.264,24.092 19.3,24.129 19.264,23.838 C19.227,23.547 19.227,23.33 19.191,23.148 C19.155,22.966 19.082,22.748 18.973,22.857 C18.864,22.966 18.791,22.93 18.791,23.293 C18.791,23.656 18.719,26.344 18.719,26.671 C18.719,26.998 18.646,27.216 18.719,27.361 C18.791,27.506 18.719,27.506 19.082,27.579 C19.445,27.652 19.736,27.361 20.063,27.289 C20.39,27.216 21.043,27.071 21.407,27.107 C21.77,27.143 22.133,27.18 22.532,27.216 C22.932,27.252 23.658,27.434 24.094,27.361 C24.53,27.289 24.603,27.325 24.784,27.252 C24.966,27.18 25.257,27.034 25.257,26.744 C25.257,26.453 25.257,26.308 25.293,25.945 C25.329,25.581 25.111,20.315 25.111,20.315 C25.111,20.315 25.293,19.625 25.293,19.262 C25.293,18.898 25.329,17.954 25.329,17.7 C25.329,17.446 25.365,16.247 25.365,16.247 C25.365,16.138 25.62,15.593 25.692,15.375 C25.765,15.157 26.564,14.395 26.6,13.596 C26.637,12.797 26.6,12.833 26.818,12.506 C27.036,12.179 27.254,11.816 27.254,11.816 C27.254,11.816 29.034,8.147 29.07,7.748 C29.107,7.348 29.215,7.239 29.288,6.84 C29.361,6.44 29.324,5.968 29.47,5.678 C29.615,5.387 29.906,4.915 29.906,4.552 C29.906,4.188 29.724,3.934 29.906,3.825 C30.087,3.716 30.341,3.571 30.414,3.063 C30.487,2.554 30.487,2.554 30.596,2.372 C30.705,2.191 30.814,1.937 30.814,1.791 C30.814,1.646 30.741,1.464 30.632,1.428 L30.632,1.428 Z" id="Fill-22" sketch:type="MSShapeGroup"></path>
        </g>
    </g>
</svg>