<?xml version="1.0" encoding="utf-8"?>
<!-- Generator: Adobe Illustrator 19.0.1, SVG Export Plug-In . SVG Version: 6.00 Build 0)  -->
<!DOCTYPE svg PUBLIC "-//W3C//DTD SVG 1.1//EN" "http://www.w3.org/Graphics/SVG/1.1/DTD/svg11.dtd">
<svg version="1.1" id="Layer_1" xmlns:sketch="http://www.bohemiancoding.com/sketch/ns"
	 xmlns="http://www.w3.org/2000/svg" xmlns:xlink="http://www.w3.org/1999/xlink" x="0px" y="0px" viewBox="-559 384.9 72 72"
	 style="enable-background:new -559 384.9 72 72;" xml:space="preserve">
<style type="text/css">
	.st0{fill:#FD754D;}
</style>
<g id="Page-1" sketch:type="MSPage">
	<g id="youtube-icon" sketch:type="MSLayerGroup">
		<path id="Fill-14" sketch:type="MSShapeGroup" class="st0" d="M-512.4,428.5c0.2-0.3,0.6-0.8,0.5-1.3c-0.1-0.5,0.5-0.7-0.4-1.1
			c-0.9-0.3-0.8-0.5-1.1-0.2c-0.3,0.3-0.4,0.6-0.4,1c0,0.4,0,0.4,0.1,0.8C-513.5,428.2-513.2,429.4-512.4,428.5"/>
		<path id="Fill-16" sketch:type="MSShapeGroup" class="st0" d="M-490.4,424.6c-0.1,0.6-0.1,0.4-0.3,0.7c-0.1,0.3-0.8,0.4-0.8,0.4
			s0.3-0.6,0.5-1.1c0.3-0.5,0.1-0.4,0.3-0.6s0.4-0.2,0.4-0.2S-490.3,424-490.4,424.6L-490.4,424.6z M-493.2,429.2
			c0,0.3-0.3,0.1-0.3,0.1l0-0.3c0,0,0,0,0.1-0.3c0.1-0.3,0,0,0.2,0.1C-493,429-493.2,428.9-493.2,429.2L-493.2,429.2z M-493.6,431.1
			c0,0,0,0,0-0.3l0.2,0.2C-493.5,431-493.5,431.1-493.6,431.1L-493.6,431.1z M-493.8,430.2c0,0-0.1-0.1,0-0.4c0.1-0.3,0,0,0.1,0
			c0.1,0,0,0,0.1,0.3C-493.5,430.4-493.8,430.2-493.8,430.2L-493.8,430.2z M-494,429.5c0,0.2-0.5,1-0.9,1.1
			c-0.4,0.1-0.2-0.1-0.4-0.4s-0.1-0.4,0-0.6c0,0,0,0,0.5-0.5c0.5-0.5,0.4-0.1,0.7-0.1C-493.7,429-494,429.3-494,429.5L-494,429.5z
			 M-494.4,430.9l0-0.2c0,0,0,0,0.3-0.1c0.3-0.1,0,0,0.1,0.1C-493.9,430.9-494.3,430.9-494.4,430.9L-494.4,430.9z M-501,442.7
			c0.3,0.2,0.1,0.3,0,0.5c-0.1,0.2-0.2,0.3-0.5,0.6c-0.3,0.3-0.5-0.4-0.5-0.6c0,0,0.2-0.4,0.3-0.7s0,0,0.5-0.1
			C-500.8,442.4-501.3,442.5-501,442.7L-501,442.7z M-495.5,440.5c-0.4,0-1,0-1.4,0c-0.4,0-0.6,0-1.3,0.2c-0.8,0.2-3.6,0-4,0.1
			c-0.4,0.1-0.2,0.5-0.2,0.9c0,0.4-0.2,0.8-0.2,1.1c0,0.3,0.3,2.3,0.4,2.6c0.1,0.3,0.5,0.7,0.8,0.9c0.3,0.3,0.4,0.2,0.7,0.2
			c0.3,0,0.5,0,0.7,0c0.2,0,0.7-0.2,1-0.6c0.4-0.4,0.5-0.8,0.5-1.1c0-0.3-0.1-1.1-0.1-1.3c0-0.2,0-0.5,0-0.7s0.7-0.3,1-0.3
			c0.4,0,0.9,0,1.2,0c0.3,0,1.3,0,1.6,0c0.3,0.1,0.3,0.2,0.4,0.4c0.1,0.2,0,0.2,0,0.5c0,0.3,0,0.8-0.1,1.1c-0.1,0.3-0.3,1.8-1,3.1
			s-2.5,1.7-3,1.9c-0.5,0.1-2,0.4-2.4,0.4c-0.4,0-0.8,0-1.3-0.1c-0.4-0.1-2.2-0.7-2.7-1.2c-0.5-0.5-1.4-1.3-1.5-1.9
			c-0.1-0.6-0.3,0.3-0.4,0.5c-0.1,0.3-0.3,0.3-0.9,0.5c-0.6,0.2-0.4-0.9-0.4-1.6c0-0.7,0.3-1,0.7-1.1c0.3-0.1,0.3,0.1,0.5,0.1
			c0.2,0,0-1.4-0.1-1.6c-0.1-0.2,0-0.8,0-1.3c0-0.5,0.2-1.5,0.2-1.7s0.1-0.3,0.2-0.8c0.1-0.5,0,0,0-0.4c0-0.4,0-2.1,0.1-2.5
			c0.1-0.4,0-1.3-0.1-1.6c0-0.4-0.6,0.4-0.8,0.5c-0.2,0.1-0.5,0.3-1.1,0.5c-0.6,0.2-1.5,0-1.5,0s0.1,1.9,0,2
			c-0.1,0.1,0.2,3.4,0.2,3.7s0.1,0,0.1,0s0.2-0.2,0.5-0.3c0.3-0.1,0.3,0.1,0.4,0.3c0.1,0.2,0.1,0.7,0.1,1.1c0,0.4-0.3,0.9-0.8,0.8
			c-0.5-0.1-0.4,0.3-0.4,0.3s0,0.1-0.1,0.4c-0.1,0.2-0.4,2.7-0.8,3.7c-0.4,1-1.7,1.1-2,1.1c-0.3,0-0.4,0-0.7,0.1
			c-0.3,0.1-1.7,0.2-2.3,0.1c-0.5-0.1-1.5-0.9-1.6-1.2c-0.1-0.3-0.7,0-0.7,0v0.8c0,0.3-0.5,0.3-0.9,0.3c-0.4,0.1,0,0-0.5-0.1
			c-0.5-0.1-2-0.3-2.4-0.5c-0.4-0.3-0.7-0.5-0.6-0.9c0.1-0.4,0.3-0.9,0.3-0.9s-0.1-1.5-0.2-1.8s-0.1-1-0.1-1.2
			c0-0.2,0.3-0.4,0.3-0.7c0-0.3,0-0.2,0-0.4c0-0.2,0.1-3.2,0.1-3.7c0.1-0.6-0.1-8.1-0.1-8.5c0-0.4,0.3-1,0.3-1.3c0-0.3,0-4.1,0-4.2
			c0.1-0.8,0.8-0.9,0.9-0.9c0.1,0,0.1,0.1,0.4,0.1c0.3,0,0,0,0.5-0.1c0.5-0.1,0.4,0,0.5,0c0.1,0,1.1,0,1.5,0s0.5,0.7,0.5,0.9
			c0,0.2,0,0.3,0.1,0.7c0,0.4-0.1,0.7-0.1,0.9c0,0.2,0,0.3-0.1,0.4c-0.1,0.1-0.1,0.5-0.1,0.7v4c0,1,0.4,0.3,0.5,0.3
			c0.1-0.1,0.2-0.3,0.3-0.4c0.1-0.1,0.8-0.3,1.3-0.6c0.5-0.3,1.8-0.6,3-0.2c1.2,0.4,2,2.1,2,2.1s-0.1-0.2,0.3-0.1
			c0.4,0.1,0.6,0.2,1.2,0.5c0.5,0.3,0.8-0.1,1.2-0.4c0.3-0.3,0.6-0.7,1.1-1.2c0.5-0.4,1.4,0.6,1.5,0.6h0.2c0,0,0.1-0.2,0.7-0.7
			c0.5-0.5,1.8-0.8,2.1-0.9c0.3-0.1,0.3-0.2,0.1-0.3c-0.2-0.1-0.1-0.5-0.1-0.8s0-0.2,0-0.4c0-0.2,0.2-0.4,0.5-0.6
			c0.3-0.2,0.3-0.9,0.5-1.3c0.2-0.4,0.1-0.4,0.2-1.1c0.1-0.7,0.3-0.3,0.5-0.4c0.2-0.1,0.3-0.3,0.7-0.9c0.4-0.6,0.3-0.3,0.6-0.6
			s0.5-0.9,0.5-1.2c0.1-0.3,0.5-1.2,0.7-1.6s0.8,0,1.1-0.1c0.3-0.1,0.4,0.1,0.5,0.4c0.1,0.3,0.7,0.6,0.8,1.6c0.2,1-0.5,1.7-0.9,2
			c-0.4,0.2-0.8,0.7-1,0.9c-0.2,0.2-0.3,0.4-0.4,0.7c0,0.4-0.5,0.8-0.8,1.1c-0.3,0.3-1.1,1.2-1.7,1.7c-0.6,0.5,0.6,0.5,0.6,0.5h0.7
			c0.2,0,0.3,0,0.5,0.1c0.2,0.1,1.1,0.3,1.2,0.4c0.1,0.1,1.5,0.6,2.1,1.5c0.7,0.9,0.8,2.1,0.8,2.4c0,0.3,0,4.1,0,5
			C-494.2,440.5-495.1,440.5-495.5,440.5L-495.5,440.5z M-505.6,451.3c0,0,0,0-0.1-0.5c-0.1-0.5,0,0,0.4,0s0.2,0.1,0.4,0.4
			C-504.6,451.6-505.2,451.4-505.6,451.3L-505.6,451.3z M-509.3,444.7c-0.1,0.3-0.3,0-0.3-0.1c0-0.1,0.1-0.3,0.3-0.5
			c0,0,0.2,0,0.2,0.1C-509.1,444.4-509.2,444.4-509.3,444.7L-509.3,444.7z M-515,451.5c-0.1,0.3-0.5,0.1-0.8,0.1
			c0,0-0.3-0.3-0.4-0.7c-0.1-0.4,0.1-0.2,0.3-0.4c0.3-0.2,0.3,0,0.8,0.1C-514.7,450.8-514.9,451.2-515,451.5L-515,451.5z
			 M-518.5,451.5c0,0-0.5-0.3-0.5-0.6c0-0.3,0,0,0.1-0.3c0.1-0.3,0.2,0,0.5,0c0.3,0,0.2,0.3,0.3,0.5S-518.2,451.4-518.5,451.5
			L-518.5,451.5z M-520.2,454.9c-0.3,0,0,0,0-0.2c0-0.2,0,0,0.3,0C-519.9,454.7-519.9,454.9-520.2,454.9L-520.2,454.9z
			 M-522.3,449.1c0,0.5,0,0-0.1,0s-0.4,0.1-0.7,0.1c-0.3,0-0.1,0-0.3-0.2c-0.1-0.2,0-0.1,0.2-0.5c0.2-0.3,0.7,0.1,0.5-0.1
			c-0.2-0.2,0,0,0.4,0.2C-522,448.8-522.3,448.6-522.3,449.1L-522.3,449.1z M-517,430.9c0,0,0-0.3,0.1-0.4s0.3,0,0.4,0
			c0.1,0,0.1,0.3,0.1,0.4c0,0.2-0.2,0.1-0.5,0.1C-517.1,431-517,430.9-517,430.9L-517,430.9z M-510.2,419.5c0.1-0.2,0.1-0.1,0.4-0.1
			c0.2,0,0.2,0.1,0.3,0.3c0.1,0.1,0,0.3,0,0.5s-0.1,0.2-0.3,0.3l-0.4-0.1l-0.2-0.5C-510.4,419.9-510.4,419.7-510.2,419.5
			L-510.2,419.5z M-509.4,420.9c0,0.1-0.1,0.2-0.3,0.3c0,0-0.3,0-0.4-0.2c-0.1-0.2,0,0,0-0.1c0-0.1,0.2-0.2,0.4-0.2
			C-509.4,420.7-509.4,420.8-509.4,420.9L-509.4,420.9z M-509.4,421.6c0,0,0,0.2-0.1,0.5c-0.1,0.3-0.1,0.3-0.2,0.1
			c0,0-0.3-0.2-0.3-0.4c0-0.2,0,0,0-0.1c0-0.1,0.1-0.1,0.4-0.2S-509.4,421.6-509.4,421.6L-509.4,421.6z M-509.1,422.2
			c0,0,0.4,0.1,0.4,0.2c0,0.1,0,0.3-0.3,0.4s0,0-0.3-0.3L-509.1,422.2L-509.1,422.2z M-509.8,423c-0.3,0-0.4-0.1-0.4-0.1
			s0-0.2,0.1-0.3c0.1-0.1,0.3-0.2,0.3-0.2l0.3,0.4C-509.7,422.8-509.6,423-509.8,423L-509.8,423z M-508.8,425.7c0,0,0,0.1-0.1,0.4
			c-0.1,0.2-0.1-0.1-0.3-0.2l0.1-0.3C-509,425.6-509,425.6-508.8,425.7L-508.8,425.7z M-508.4,426c0,0.1,0,0.1-0.1,0.5
			c-0.1,0.4,0,0-0.2,0c-0.2,0,0-0.2,0-0.3c0-0.1,0.1-0.2,0.2-0.5C-508.5,425.7-508.4,425.9-508.4,426L-508.4,426z M-508.4,423.9
			c0.1,0.4,0,0.4,0,1.1c0,0.7-0.1,0.3-0.7,0.3c-0.5,0-0.3-0.1-0.5-0.7c-0.2-0.5-0.1-0.5-0.1-0.8c0-0.3,0.4-0.8,0.7-0.8
			c0,0,0.3,0,0.4,0.2C-508.5,423.4-508.6,423.5-508.4,423.9L-508.4,423.9z M-505.9,420.1c0.3-0.8,0.3-0.3,0.8-0.4
			c0.4-0.1,0.1,0.2,0.4,0.5c0.3,0.3,0,0.2,0.2,0.5c0.2,0.4,0,0.4,0,0.9c-0.1,0.5-0.5,0.4-0.8,0.5c-0.4,0.1-0.7-0.7-0.7-0.9
			C-506.1,421.3-506.1,421-505.9,420.1L-505.9,420.1z M-503.3,427.9c0,0.1-0.2,0-0.7,0c-0.5,0,0,0,0-0.1c0,0,0.4-0.1,0.5-0.1
			s0,0,0.2,0C-503.1,427.7-503.3,427.8-503.3,427.9L-503.3,427.9z M-503.7,425.5c1.1-0.3,0.8,0.6,1,0.9c0.2,0.3,0,0-0.1,0.3
			c-0.1,0.3-0.4,0.2-0.9,0.5c-0.5,0.3,0,0-1.1,0.1c-1.1,0.1,0,0-0.1-0.2c-0.1-0.2,0-0.3,0-0.7c0-0.4,0.1-0.2,0.4-0.4
			C-504.1,425.8-504.1,425.6-503.7,425.5L-503.7,425.5z M-503.9,420.7c0.2,0,0,0,0.2,0.2c0.2,0.2,0,0,0.1,0.1c0.1,0.1,0,0.2-0.1,0.4
			c-0.1,0.2-0.3-0.4-0.3-0.6C-504.1,420.9-504.1,420.8-503.9,420.7L-503.9,420.7z M-502.7,424.8c0.2-0.1,0.5-0.4,0.6-0.2
			c0.1,0.1,0.1,0.1,0.1,0.4c0.1,0.3,0.2,0.4,0.1,0.5c-0.1,0.1-0.3,0.2-0.3,0.2c-0.1,0.1-0.1,0.2-0.3,0c-0.1-0.2-0.1-0.1-0.2-0.4
			C-502.7,425.1-502.8,425-502.7,424.8L-502.7,424.8z M-501.6,426v-0.4c0,0,0,0,0.1-0.2c0.1-0.2,0,0,0.4,0c0,0,0,0.2-0.1,0.4
			C-501.2,426.1-501.5,426-501.6,426L-501.6,426z M-502.1,426.9c-0.3-0.3,0,0-0.1-0.2c-0.1-0.2,0-0.2,0-0.5h0.7
			c0.2,0,0.2,0.1,0.2,0.1v0.5C-501.3,426.9-501.8,427.1-502.1,426.9L-502.1,426.9z M-502.8,428.1c-0.1-0.2-0.1-0.1-0.1-0.4
			c0-0.3,0.3-0.4,0.4-0.4c0,0,0.4,0,0.5,0.2c0.1,0.1,0,0.2-0.1,0.5c-0.1,0.3,0,0.2-0.3,0.5c-0.3,0.3-0.1,0-0.3-0.1
			C-502.8,428.2-502.7,428.3-502.8,428.1L-502.8,428.1z M-501.7,423.6c0.2,0.1,0.3,0.3,0.4,0.5c0.1,0.1,0,0,0.2,0.4
			c0.2,0.4,0.3,0.4,0.3,0.5c0,0.1-0.2,0.3-0.3,0.3h-0.5c0-0.3,0.3-0.4,0-0.6c-0.3-0.3-0.4-0.5-0.3-0.7
			C-501.9,423.8-502,423.5-501.7,423.6L-501.7,423.6z M-500.2,423.4c0.2,0.2-0.1,0.3-0.2,0.7c0,0-0.2,0.1-0.4,0
			c-0.2-0.1-0.3-0.2-0.4-0.3c-0.1-0.1-0.1-0.1-0.2-0.4c-0.1-0.2,0-0.5,0.8-0.4C-499.9,423.1-500.4,423.2-500.2,423.4L-500.2,423.4z
			 M-501.7,421.2c0.1-0.4,0.2-0.1,0.8-0.4c0.7-0.2,0.1,0,0.8,0c0.7,0,0.3,0.1,0.5,0.2c0.2,0.1,0,0.2,0,0.7c0,0.5-0.2,0.5-0.3,0.7
			c-0.1,0.2-0.3,0.3-0.6,0.3c-0.3,0-0.4,0.1-0.6,0.1c0,0-0.3-0.1-0.5-0.4c-0.2-0.3-0.1-0.2-0.3-0.5
			C-502,421.7-501.9,421.6-501.7,421.2L-501.7,421.2z M-499.9,420.1c0-0.2,0.3-0.3,0.7-0.5c0.4-0.2,0.3,0,0.6,0.1s0,0,0,0.7
			c0,0.7-0.1,0.1-0.2,0.4c-0.1,0.2-0.3,0.5-0.3,0.7l-0.5-0.5c0,0,0,0-0.4-0.3C-500.4,420.2-499.9,420.2-499.9,420.1L-499.9,420.1z
			 M-498.5,422.4c0,0.1-0.2,0.2-0.5,0.5s0,0-0.3-0.1c-0.3-0.1,0,0-0.1-0.2c-0.1-0.2,0.1-0.3,0.3-0.5c0,0,0.4-0.1,0.7-0.1
			C-498.3,422-498.5,422.3-498.5,422.4L-498.5,422.4z M-497.2,420.1c0.1-0.1,0.2,0,0.5,0.1s0,0,0,0.1c0,0.1,0,0.2-0.1,0.6
			c-0.1,0.4-0.1,0.1-0.5,0c-0.4-0.1,0,0-0.1-0.2c-0.1-0.2-0.1-0.4-0.1-0.4C-497.5,420.3-497.4,420.2-497.2,420.1L-497.2,420.1z
			 M-493.8,428.4c0.2-0.1,0.4-0.3,0.5-0.4c0.1-0.1,0-0.3,0.1-0.1c0.1,0.2-0.1,0.7-0.1,0.7l-0.5,0.4l-0.2-0.3
			C-493.9,428.6-494,428.5-493.8,428.4L-493.8,428.4z M-525.8,431.5c-0.1,0.2-0.3,7.7-0.3,8.2c0,0.5-0.3,6.5-0.3,6.9
			c0,0.4-0.1,1.5-0.2,1.9s-0.7,0.3-0.9,0.2c-0.3-0.1-0.5,0-0.8,0c-0.3,0-1.8,0-2.1-0.1c-0.3-0.1-0.1-1.2,0-1.8
			c0.1-0.6-0.1-0.3-0.2-0.1c-0.1,0.2-0.3,0.4-0.7,0.5c-0.4,0.1-0.2,0.3-0.3,0.4c0,0.1-1.3,1-1.9,1.2c-0.5,0.2-2.4,0.2-3.5-0.2
			c-1.1-0.4-1.2-1.4-1.2-2c0-0.6-0.1-0.5-0.1-0.7c-0.1-0.2,0.1-4,0.1-4.1c0-0.1,0.1-0.9,0.2-1.4c0.1-0.5,0.1-4.2,0.1-4.8
			c0-0.6,0-0.8-0.1-1c-0.1-0.3,0.1-2.8,0.1-3.6c0-0.8,0.7-0.7,0.7-0.7h0.6c0,0,0.7,0,0.8,0s0.9,0,1.1,0c0.2,0,0.6,0.1,0.7,0.2
			c0.1,0.1,0.2,0.1,0.2,0.6c0,0.5,0,3.5,0,4c0,0.5-0.1,5.6-0.1,6.4c0,0.9-0.1,0.5-0.3,0.9c-0.1,0.4-0.1,0.6-0.1,1.3
			c0,0.7,0.4,1.2,1.4,1.5c1,0.3,2.2-1.1,2.3-1.2c0-0.1,0.3-0.4,0.4-0.6c0.1-0.3,0-0.9,0-1.1s-0.1-0.7-0.3-0.9
			c-0.2-0.2-0.3-0.1-0.8-0.2c-0.5-0.1,0.1-0.3,0.4-0.8c0.3-0.5,0.7-0.4,0.7-0.4s0.1-2.8,0.2-3.1c0.1-0.4,0-0.9,0-1.4
			c0-0.5,0.3-3.8,0.4-4.6c0.1-0.8,0.7-0.7,0.9-0.7c0.2,0,0.5,0.1,0.8,0.1c0.2,0,1.1-0.2,1.5-0.2c0.5,0,0.7,0.6,0.8,0.8
			C-525.6,431.4-525.7,431.4-525.8,431.5L-525.8,431.5z M-532.7,454.7c-0.1,0.2-0.3,0.3-0.9,0.7c-0.7,0.4-0.7,0-1.3,0
			c-0.5,0-2.1,0.2-2.4,0.2c-0.2,0,0.4-0.5,1.7-0.5c1.2,0,0.4,0,1-0.1c0.6-0.1,0.7-0.4,1.6-0.7C-532.3,454.2-532.6,454.6-532.7,454.7
			L-532.7,454.7z M-539,427.5c-0.5-0.1-1.6-0.1-2-0.1c-0.4,0-0.6-0.1-0.9,0c-0.3,0.1-0.6-0.1-0.7,0.1c-0.1,0.3,0,5.8,0,6.1
			c0,0.4,0,4.8-0.1,5.1c-0.1,0.4-0.3,0.7-0.3,0.8c0,0.1,0,0.5,0,0.8v1.6c0,0.4,0.2,2.1,0.2,2.6c0,0.5,0,0.6,0,0.9
			c0,0.3-0.1,0.4-0.1,0.7v0.6c0,0.3,0,1.4,0,1.5c0,0.1,0,0.1-0.1,0.3c-0.1,0.1-0.2,0.2-0.4,0.3c-0.1,0.1,0.4,0.1-0.3,0.1
			s-0.8,0-1.5,0h-1c-0.4,0-0.5,0.1-0.7,0c-0.2-0.1-0.5-0.2-0.6-0.5c-0.1-0.3-0.1-0.3-0.1-0.5c0-0.2,0-0.7,0-1.1
			c0.1-0.4,0.3-6.1,0.3-6.5c0-0.4-0.3-10.1-0.3-10.2c0-0.1,0.1-0.3,0.1-0.6c0-0.3,0.1-0.6,0.1-0.7c0-0.1,0-0.9,0-0.9
			s-0.5-0.5-0.8-0.4c-0.2,0.1-0.4,0-0.8,0.1c-0.4,0-0.5,0-0.9,0.1c-0.3,0-0.7,0.1-0.8,0.1c-0.1,0,0,0.1-0.3,0.1
			c-0.3,0-0.7,0.1-0.8,0c-0.1-0.1-0.6-0.3-0.6-0.5c0-0.1,0.2-1.5,0.1-1.7c-0.1-0.2,0-0.7,0-0.7s0-0.6,0.7-0.7
			c0.7-0.1,1.8-0.1,1.9-0.1c0.1,0,3.8-0.3,4.3-0.3h2.8h2.8c0.2,0,1.6-0.4,2,0.5c0.3,0.9,0.1,1.9,0.1,2.2s0,0.6,0,0.6
			s-0.4,0.4-0.6,0.4C-538.4,427.5-538.5,427.7-539,427.5L-539,427.5z M-537.9,421.7c0.1,0,0.2-0.1,0.3,0c0.1,0.1,0.3,0.3,0.3,0.3
			c-0.1,0.1,0.2,0.5-0.3,0.4c-0.4,0-0.5,0-0.5-0.2C-538.1,422.1-538,421.7-537.9,421.7L-537.9,421.7z M-536.5,422.7c0.4,0,0,0,1,0
			s0.5,0,0.9,0.1c0.4,0.1-0.2,0.7-0.7,1.1c0,0-1.1,0.3-1.6,0.2c-0.5-0.1-0.1-0.3-0.3-0.7c-0.2-0.4-0.1-0.2-0.1-0.6
			S-536.9,422.6-536.5,422.7L-536.5,422.7z M-536.2,422.1c0.5-0.1,0,0,0.1,0.1c0.1,0.1,0,0.3-0.3,0.3l-0.3-0.4
			C-536.7,422.1-536.7,422.1-536.2,422.1L-536.2,422.1z M-533.9,427c0,0,0,0.2-0.1,0.4s-0.2,0.3-0.2,0.3s-0.1,0.1-0.5,0.3
			c-0.4,0.1,0,0-0.3-0.2c-0.3-0.2,0-0.3,0.1-0.7c0.1-0.4,0,0,0.4-0.1C-534,426.9-533.9,427-533.9,427L-533.9,427z M-533.5,427.7
			c0.2,0,0.2,0.1,0.2,0.3c0,0.3-0.4-0.1-0.3,0c0.1,0.1-0.2-0.1-0.2-0.1s0,0,0.2-0.3C-533.5,427.4-533.7,427.7-533.5,427.7
			L-533.5,427.7z M-533.5,427v-0.4c0-0.2,0,0,0.2,0s0,0,0.3,0c0.3,0,0,0.2-0.1,0.4c-0.1,0.2-0.3,0.3-0.5,0.1
			C-533.6,427.1-533.5,427.3-533.5,427L-533.5,427z M-533.2,426.1c0-0.1,0.1-0.2,0.1-0.5c0-0.3,0.1-0.3,0.7-0.3c0.6,0,0,0,0.1,0.3
			c0.1,0.3,0,0.4,0,0.7c0,0.3-0.3,0.1-0.7,0.3c-0.4,0.1,0,0-0.2,0C-533.1,426.4-533.2,426.2-533.2,426.1L-533.2,426.1z
			 M-531.6,428.9l-0.7,0c0,0,0.1-0.3,0.4-0.3h0.2L-531.6,428.9L-531.6,428.9z M-531.9,426.8c0,0,0.6,0,0.9,0c0.3,0,0.2,0,0.4,0.1
			c0.2,0.1,0.1,0.2,0.1,0.2s0,0,0,0.4c0,0.4-0.1,0.2-0.2,0.5c-0.1,0.3-0.3,0.1-1.4,0.4c-1.2,0.3,0,0-0.1-0.9
			C-532.4,426.6-532.2,427.3-531.9,426.8L-531.9,426.8z M-531.9,426.2c0-0.2,0,0,0-0.1c0-0.1,0.2,0,0.5,0.1c0.3,0.1,0,0.2-0.1,0.4
			c-0.1,0.2,0,0.1-0.3,0C-532,426.3-531.9,426.4-531.9,426.2L-531.9,426.2z M-530.3,427.1c0,0,0.4-0.2,0.6-0.2c0.2,0,0.2,0,0.5,0.2
			c0.4,0.2,0.1,0.2,0.1,0.2s-0.3,0.4-0.5,0.4c-0.2,0,0,0-0.6,0.1C-530.8,427.9-530.2,427.5-530.3,427.1L-530.3,427.1z M-487.1,435.8
			c-0.2-1-0.1-0.5-0.3-1.3c-0.2-0.8-0.5-4.4-0.5-4.9c0-0.5-0.1-0.8-0.3-1.4c-0.1-0.7-0.3-0.5-0.3-1.3s0.1-0.7,0-1.3
			c-0.1-0.6-0.1-0.9-0.2-1.2s-0.5-1.8-0.9-2.3c-0.3-0.4-2.1-2-2.2-2.1c-0.1-0.1-0.1,0.9-0.7,0.7c-0.5-0.1-0.8,0-0.8-0.5V419
			c0,0-1.6-0.4-2.1-0.5c-0.4-0.2-0.7-0.4-0.8-0.2c-0.1,0.2,0,0.8-0.3,1c-0.3,0.2-0.3,0.6-1,0.3c-0.7-0.3-1-0.3-1-0.7
			c0-0.4,0-0.4,0.1-0.7c0.1-0.3,0.5-0.4-0.2-0.4s-2-0.1-2.5,0c-0.5,0.1-0.7,0.2-1.2,0.1c-0.5-0.1-1.1-0.1-1.6-0.1
			c-0.5,0-0.5,0.1-1.6,0c-1-0.1-2.1-0.3-2.5-0.3h-9.4c-0.8,0-2.7-0.1-3.4-0.1h-1.6c-0.3,0-15.6-0.1-16.3-0.1c-0.7,0-0.8,0.1-1.6,0.2
			c-0.8,0.1-1.6,0.1-2.1,0.1c-0.5,0-3.5,0-4.6,0c-1.1,0-2.7,0.3-3,0.3c-0.3,0-3.5,0.8-4.5,1.7c-1.1,0.9-2.3,2.2-2.7,2.7
			c-0.4,0.4-0.3,0.4-0.5,0.8c-0.2,0.4-0.4,1.1-0.5,1.2c-0.1,0.1,0,0.3-0.3,0.5c-0.2,0.3-0.4,0.5-0.3,1.2c0,0.3,0.4,1.6,0.5,2.9
			c0,1.3,0.6,2.9,0.4,3.6c-0.1,0.8-0.3,2-0.5,2.5c-0.2,0.5-0.3,0.7-0.5,1c-0.1,0.4,0,2.4-0.1,3.2c-0.1,0.8-0.1,0.8-0.1,1.9
			c0,1.1,0.2,2.7,0.3,3c0.1,0.3,0.1,0.5,0.2,0.8c0,0.2,0.1,1.2,0.1,2.1c0,0,0.2-0.2,0.2-0.4c0-0.2,0.3-0.5,0.5-0.8
			c-0.1-0.1-0.4-0.2-0.1-0.3c0.3,0,0.2,0.1,0.1,0.3c0.1,0,0.1,0.1,0.1,0.1c0,0.1,0,0.5-0.1,0.7c0,0.2,0,0-0.5,0.2
			c-0.2,0.1-0.2,0.1-0.2,0.1c0,0.8,0.1,1.6,0.1,1.6s0.6,0.9,0.8,1.7s2.2,2.1,2.7,2.8c0.5,0.7,0.2,0.5,0.9,0.9s0.5,0.3,1.4,0.8
			c0.9,0.5,1.1,0.8,1.5,0.9c0.4,0.1,1.9,0.1,3.3,0.1c1.5,0,1.6,0,2.8,0.1c1.2,0.1,4.2,0.3,5.5,0.3c1.2,0,9,0.3,9.7,0.4
			c0.7,0.1,1.2,0,2,0c0.8-0.1,0.1-0.1,2.5,0c2.4,0,1.5,0.4,2-0.1c0.5-0.5,0.5-0.4,0.8-0.1c0.3,0.3,0.5,0.3,0.9,0.3
			c0.4,0,0.5-0.1,0.9-0.1s0.7,0.1,0.9,0.1c0.2,0,0.6,0.1,0.6,0c0-0.1,1-0.1,0.4-0.3c-0.5-0.2-0.7-0.8-0.3-1.1
			c0.4-0.3,1.7-0.7,2.1-0.1c0.4,0.5,0.5,0.5,0.5,0.8c0,0.4-0.2,0.3-0.2,0.5c0,0.2-0.4,0,0,0.2c0.4,0.2,1.5,0.3,1.9,0.1
			c0.4-0.1,0.5-0.3,0.5-0.4s-0.1-0.4,0-0.6c0.1-0.2,0.7-2,0.9-2.4c0.1-0.4,0.7-0.5,0.8-0.6c0.2-0.1,0-0.2,0.6-0.2
			c0.7,0,0.7,0.1,1-0.3c0.4-0.4,0.5-0.5,0.7-0.8c0.2-0.3,0.3-0.7,0.4-0.8c0.1-0.1,0.1-0.2,0.5,0c0.4,0.2,0.4-0.2,0.7,0.5
			c0.3,0.7,0.3,1.2,0.3,1.5c0,0.3-0.5,0.2-0.7,0.5c-0.3,0.3-0.3,0.9-0.3,1s0,0.1-0.4,0.2c-0.4,0.1,0-0.2-0.4,0.1s-0.2-0.2-0.8,0.6
			c-0.7,0.8-0.7,0.8-0.7,1.1c0,0.2-0.1,0.3,0,0.4c0.1,0.1-0.1,0.4,0.5,0.2c0.7-0.2,0.7-0.1,1-0.3c0.3-0.2,0.7-0.4,0.9-0.7
			c0.3-0.3,0.3-0.7,0.7-0.6c0.4,0,0.5,0.1,0.3,0.4c-0.2,0.2-0.4,0.1-0.5,0.4c-0.1,0.3-0.2,0.4,0,0.5c0.2,0.1,0.4,0.1,0.6,0.1
			c0.2,0,0.5,0,0.8,0c0.3,0,1.8,0,2.5,0c0.7,0,0.8-0.2,1.3-0.2s0.2,0,1,0c0.8,0,4.5-0.5,5.3-0.5c0.8-0.1,3.8-0.7,4.5-1.5
			c0.7-0.8,2.4-2.8,2.7-3.1c0.3-0.3,0.5-0.2,0.7-0.8c0.2-0.7,0.1-0.9,0.3-1.6c0.2-0.7,0.3-1.1,0.4-1.2c0-0.1,0.4-4.4,0.5-4.8
			c0-0.4,0.3-0.6,0.3-1.1c0-0.5-0.3-4.3,0-4.8C-487.1,436.6-486.9,436.8-487.1,435.8L-487.1,435.8z"/>
		<path id="Fill-18" sketch:type="MSShapeGroup" class="st0" d="M-514.6,435.4c0.1,0.1-0.1,0.3-0.2,0.4c-0.1,0.1-0.2-0.3-0.2-0.3
			s0-0.2,0.1-0.3c0.1-0.1,0,0,0.2,0C-514.5,435.3-514.7,435.3-514.6,435.4L-514.6,435.4z M-514.7,438c0,0.4-0.1,0.1-0.6,0.1
			c-0.5,0-0.3-0.1-0.7-0.5c-0.4-0.4-0.2-0.4-0.2-0.8c0-0.4,0.2-0.4,0.5-0.7c0.3-0.3,0.3,0,0.6,0.4c0.3,0.4,0.1,0.4,0.4,0.7V438
			L-514.7,438z M-516.4,435.5c0.1-0.1,0.1-0.2,0.3-0.2c0.2,0,0-0.2,0.2,0c0.3,0.2,0.4,0.5,0.4,0.5c-0.2,0-0.8,0.3-0.9,0.1
			C-516.5,435.8-516.5,435.6-516.4,435.5L-516.4,435.5z M-517.1,435.1c-0.3-0.2,0,0,0-0.3c0-0.3,0-0.2,0.1-0.5
			c0.1-0.3,0.3-0.2,0.5-0.3c0,0,0.5,0.5,0.5,0.9s-0.2,0.2-0.4,0.3C-516.7,435.4-516.9,435.3-517.1,435.1L-517.1,435.1z
			 M-516.1,434.3c0-0.2,0.3-0.3,0.5-0.3c0.2,0-0.1-0.3,0.2,0c0.3,0.3,0.3,0.2,0.3,0.5c0,0.4-0.3,0.5-0.3,0.5c-0.3-0.1-0.3,0-0.5-0.3
			C-516.1,434.5-516.1,434.4-516.1,434.3L-516.1,434.3z M-514.3,439.4c0.1-0.1-0.1-4-0.1-4.2c0-0.2,0-0.3,0-0.6s-0.2-0.6-0.4-0.7
			c-0.2-0.1-0.7-0.3-0.9-0.4c-0.2,0-0.3-0.1-0.5-0.1c-0.2,0-0.3-0.1-0.5,0c-0.1,0.1-0.3,0.2-0.4,0.3c-0.1,0.1-0.5,0.2-0.5,0.2
			s-0.5,4.4-0.5,4.9c0,0.5,0,0.7,0,0.9c0,0.2-0.1,1.9-0.1,2.1c0,0.2-0.1,0.7-0.1,0.9s-0.1,0.6,0,0.8c0.1,0.2,0.3,0.8,0.3,0.9
			c0,0.1,0.1,1.2,0.1,1.2s1.4,0.6,1.6,0.7c0.2,0.1,0.1,0.2,0.4,0.1c0.4-0.1,0.9-0.7,1.1-0.9c0.1-0.3,0.4-1,0.4-1.4
			C-514.2,443.9-514.3,439.5-514.3,439.4L-514.3,439.4z"/>
		<path id="Fill-19" sketch:type="MSShapeGroup" class="st0" d="M-499.2,434.2c-0.2-0.2-0.3-0.4-0.5-0.4c-0.3-0.1-1.1-0.1-1.3-0.1
			c-0.2,0-0.6,0-0.8,0.2c-0.2,0.2-0.4,0.5-0.4,0.7c-0.1,0.2-0.1,0.7-0.2,1c-0.1,0.3-0.1,0.7-0.1,1v1.1l0.3,0.2c0,0,2.9,0,3,0
			s0.8-0.2,0.8-0.2s0-2.1-0.2-2.5C-498.7,434.7-498.9,434.4-499.2,434.2"/>
		<path id="Fill-20" sketch:type="MSShapeGroup" class="st0" d="M-501.5,407.5c0,0.2-0.1,0.2-0.2,0.6c-0.1,0.4-0.3-0.1-0.3-0.4
			c0,0-0.1-0.3,0-0.5c0.1-0.1,0.3-0.1,0.5-0.1C-501.3,407-501.5,407.2-501.5,407.5L-501.5,407.5z M-502.1,409.2c-0.1,0.2,0,0-0.1,0
			c-0.1,0,0,0,0-0.1l0.2-0.1C-502,408.9-502,409.1-502.1,409.2L-502.1,409.2z M-502.9,409c-0.5,0.3,0,0-0.2-0.3
			c-0.2-0.3,0.2-0.3,0.3-0.5l0.2-0.3h0.3c0.3,0,0,0.1,0,0.5C-502.3,408.9-502.4,408.7-502.9,409L-502.9,409z M-503.2,411.1
			c0,0.1-0.1,0.4-0.1,0.4s-0.4-0.2-0.4-0.4c0,0,0.2-0.2,0.5-0.1C-502.9,411.1-503.2,410.9-503.2,411.1L-503.2,411.1z M-501,405.7
			l0.1-1.7c0,0,0.1-0.8,0.1-1.1c0-0.3,0-0.6,0-1c0.1-0.4,0.1-4.6,0.1-4.8s0-1.7,0-2s0.1-0.7,0-1.1c-0.1-0.4-0.1-0.8-0.1-0.9
			c0-0.1-0.4-0.5-0.4-0.5s-0.4,0-0.9,0c-0.5,0-1.3,0-1.6,0h-1.1h-0.9l-0.7,0.4c0,0,0,0.5,0,0.8c0,0.3,0,5,0,5.1c0,0.1,0.3,0.4,0.2,1
			c-0.1,0.7-0.2,1.1-0.2,1.5c0,0.4-0.1,4.7-0.1,5.1v0.5c0,0.3-0.6,0.6-0.8,0.8c-0.2,0.1-0.7,0.4-0.9,0.4c-0.2,0-0.4,0.1-0.5-0.2
			c-0.1-0.3-0.2-0.4-0.2-0.8c0-0.4,0.1-1,0.1-1s0.2-0.1,0.2-0.3v-2.2c0-0.3,0-0.4,0-0.7c0-0.3,0.4-4.4,0.4-4.8
			c0-0.4-0.1-3.7-0.1-3.7s0-0.6,0-0.8c0-0.1-0.8-0.7-0.8-0.7s-0.5-0.2-0.8-0.3c-0.3-0.1-0.7-0.2-1.1-0.2h-1c-0.4,0-0.6,0-0.8,0.1
			c-0.3,0.1-0.5,0-0.8,0.1c-0.3,0.1-0.5,0.1-0.6,0.2c-0.1,0.1-0.2,0.1-0.2,0.3c0,0.2,0.1,0.5,0.1,0.5v1.6c0,0.1,0.3,0.2,0.3,0.5
			s-0.1,3.9-0.1,3.9l0,0.7c0,0-0.2,2.9-0.2,3v5.4c0,0,0.3,0.4,0.3,0.6c0,0.1,0,0.3,0,0.5c0,0.2,0,0.2,0.1,0.5s0.8,1.2,0.9,1.3
			c0.1,0.1,1.1,0.4,1.3,0.5c0.1,0,1.5,0.1,1.9,0.1c0.4,0,0.7,0.2,1.2,0c0.4-0.2,0.4-0.3,0.6-0.3c0.2,0,0.3-0.1,0.5-0.3
			c0.3-0.1,0.7-0.3,0.7-0.4c0.1-0.1-0.1-0.1,0.1-0.3c0.2-0.1,0-0.3,0.2-0.1s0.3,0.2,0.3,0.4c0,0.2-0.2,0.4-0.1,0.6
			c0.1,0.2-0.2,0,0.1,0.2c0.3,0.1,0.2,0.2,0.6,0.1c0.4,0,2.3,0,2.7-0.1c0.4,0,0.3-0.1,0.7-0.2c0.4-0.1,0.4-0.1,0.7-0.1
			c0.3,0,0.1,0.1,0.3,0c0.2-0.1,0.7-0.5,0.7-0.9c0,0-0.3-4-0.3-4.2C-500.9,406.5-501,405.7-501,405.7L-501,405.7z"/>
		<path id="Fill-21" sketch:type="MSShapeGroup" class="st0" d="M-521.9,404.7c0,0.3-0.4,1.7-0.5,2.2c-0.1,0.5-0.1,0.8-0.1,1.1
			c0,0.3-0.7,0.3-0.9,0.3c-0.2,0-0.4-0.1-0.7-0.3c-0.3-0.2-0.3-0.3-0.3-0.7s-0.2-3.3-0.2-3.5c0-0.1,0.1-0.9,0.2-1.1
			c0-0.3,0.2-3.2,0.2-3.3c0-0.2,0.2-2.5,0.2-2.5s0.5-0.4,0.7-0.5c0,0,0.6,0,0.9,0.1c0.3,0,0.2,0.1,0.3,0.4c0.1,0.3,0.1,0.4,0.2,0.7
			c0,0.3,0.1,0.7,0.1,1.1c0,0.4,0,1.6,0,1.9C-521.7,400.7-521.8,404.4-521.9,404.7L-521.9,404.7z M-516.1,402.5
			c0-0.4,0.1-3.4,0.1-3.9s-0.4-1.3-0.4-1.5c0-0.2,0-1.9-0.1-2c-0.1-0.1-0.2-0.3-0.4-0.4c-0.1-0.1-0.5-0.5-0.7-0.8
			c-0.1-0.2-1.9-1.2-2.2-1.4c-0.4-0.2-1.6-0.4-2.1-0.4c-0.4,0-1.5,0-2,0c-0.5,0-0.9,0-1.2,0.1c-0.3,0.1-0.8,0.4-1.1,0.4
			c-0.2,0-0.6,0.2-1,0.4c-0.4,0.2-0.9,0.3-1.2,0.6c-0.4,0.3-1.1,1.4-1.2,1.6c-0.1,0.2-0.2,0.3-0.3,0.5c-0.1,0.3,0.2,3.5,0.2,4
			c0,0.5-0.1,1.2-0.3,1.3c-0.1,0.1-0.4,0.8-0.4,1c0,0.2,0,5.4,0,5.8c0,0.4,0.3,0.9,0.4,1c0.1,0.1,1.1,1.5,1.6,1.9
			c0.5,0.4,1.3,0.9,1.9,1.1c0.6,0.2,0.6,0.3,1.1,0.4c0.4,0.1,0.4,0,1.1,0.1c0.7,0.1,2.1,0.3,2.3,0.1c0.2-0.1,1.2-0.8,1.7-0.8
			c0.5,0,1.3,0,1.5-0.1c0.2-0.1,1-1,1.2-1.3c0.2-0.3,0.4,0.1,0.8-1c0.3-1.1,0.4-0.9,0.4-1.4c0-0.5,0-2.1,0-2.1s-0.1-1.1-0.1-1.5
			c0-0.3,0-0.4,0.1-0.8C-516.2,403.4-516.1,402.9-516.1,402.5L-516.1,402.5z"/>
		<path id="Fill-22" sketch:type="MSShapeGroup" class="st0" d="M-530.4,390.5c0,0.2-0.2,0.2-0.5,0.2c-0.3,0-0.3,0-0.3,0v-0.3
			c0,0,0,0,0.1-0.1c0.1-0.1,0.2,0,0.4,0C-530.4,390.3-530.4,390.3-530.4,390.5L-530.4,390.5z M-531.1,393c-0.1,0-0.2,0.1-0.3-0.1
			l-0.2-0.2c0,0,0,0,0.3-0.2c0.3-0.2,0.3,0.1,0.4,0.3C-530.8,392.9-530.9,393-531.1,393L-531.1,393z M-531.7,394.6v-0.2
			c0,0,0-0.1,0.3-0.1c0.3,0.1,0,0,0.1,0S-531.5,394.7-531.7,394.6L-531.7,394.6z M-532.2,393.5c0.1-0.1-0.1,0,0.1-0.1l0.3,0l0.1,0.4
			C-531.7,393.9-532.4,393.6-532.2,393.5L-532.2,393.5z M-532.4,394.9c-0.2,0.2-0.2,0.3-0.5,0.5c-0.4,0.2-0.5-0.6-0.5-0.9
			c0,0,0.2-0.4,0.5-0.5c0.3-0.1,0.6,0,0.9,0.1C-531.9,394.3-532.2,394.7-532.4,394.9L-532.4,394.9z M-533.7,394.2
			c0,0.2-0.1,0.3-0.2,0.3s-0.3,0.1-0.3-0.1l0.1-0.5c0,0,0.2,0,0.4,0C-533.5,393.9-533.7,394.1-533.7,394.2L-533.7,394.2z
			 M-534.3,393.6c-0.1,0.4,0,0-0.2,0.1c-0.2,0.1,0,0,0-0.2l0.3-0.3C-534.1,393.2-534.1,393.2-534.3,393.6L-534.3,393.6z
			 M-534.4,403.7c0,0.1-0.2,0-0.7-0.3c-0.5-0.3,0-0.1,0-0.3l0.3-0.1c0,0,0,0,0.2,0c0.2,0,0.2,0.2,0.2,0.2S-534.4,403.5-534.4,403.7
			L-534.4,403.7z M-535.1,394.1c0.1-0.1,0.1-0.3,0.1-0.3s0.3,0,0.4,0.1c0.1,0.1,0,0.2,0,0.6c0,0.4-0.1,0.4-0.4,0.5
			c-0.3,0.2,0,0-0.2-0.1c0,0,0-0.2,0-0.7C-535.2,393.7-535.2,394.2-535.1,394.1L-535.1,394.1z M-535,392.1l0.4-0.3c0,0,0,0,0.1,0.1
			c0.1,0.1,0,0.1-0.1,0.4c-0.1,0.3,0,0-0.3,0C-535.2,392.4-535,392.1-535,392.1L-535,392.1z M-534,392.9c0-0.1,0.3-0.3,0.5-0.3
			s0.1,0,0.3,0.2c0.1,0.2,0,0.4-0.1,0.7c-0.1,0.3-0.4,0.1-0.5,0c0,0-0.1-0.3-0.1-0.5C-534,392.7-534,393-534,392.9L-534,392.9z
			 M-533.1,392.1c0.2-0.2,0,0,0.2,0.1c0.2,0.1,0,0,0.2,0.1c0.2,0.1-0.1,0.4-0.1,0.3c0,0-0.4,0-0.5-0.1
			C-533.4,392.3-533.3,392.3-533.1,392.1L-533.1,392.1z M-532.5,391.4c0.1-0.2,0,0,0.7,0.2c0.7,0.2,0.1,0.4-0.2,0.6
			c-0.3,0.2,0,0-0.4,0c-0.4,0-0.2-0.1-0.3-0.2c0,0,0,0,0-0.2C-532.8,391.5-532.6,391.5-532.5,391.4L-532.5,391.4z M-535.8,395.5
			c0,0-0.1-0.5-0.1-0.8c0-0.3,0-0.1,0.2-0.3c0.1-0.1,0.2,0.6,0.2,0.9S-535.6,395.6-535.8,395.5L-535.8,395.5z M-536,395.8
			c0,0.2-0.1,0.3-0.3,0.4c-0.1,0.2-0.1,0.1-0.7,0.4c-0.3,0.1-0.3,0.1-0.3,0.1c0.1,0,0,0,0,0c-0.2,0-0.1-0.1-0.3-0.3
			c0,0,0.1-0.5,0.2-0.9c0.1-0.4,0.3-0.3,0.4-0.4c0.1-0.1,0.5-0.3,0.7-0.3S-535.9,395.6-536,395.8L-536,395.8z M-537.6,397.3
			c-0.1,0.3-0.2,0-0.4-0.2l0.2-0.2c0,0,0,0,0.3,0.1C-537.2,397.1-537.5,397-537.6,397.3L-537.6,397.3z M-538.3,398.8
			c-0.1-0.1,0,0-0.1-0.4c-0.1-0.4,0-0.3,0-0.4l0.5-0.1c0,0,0,0.4,0.1,0.7C-537.8,398.8-538.2,398.9-538.3,398.8L-538.3,398.8z
			 M-538.8,397.4l0.4-0.2c0,0,0,0,0.2,0c0.2,0,0,0,0,0.2s0,0.2-0.4,0.3C-539,397.8-538.6,397.7-538.8,397.4L-538.8,397.4z
			 M-539.7,399.1c-0.1,0.4,0,0-0.4,0.2c-0.4,0.2,0,0-0.3-0.2c-0.3-0.2,0,0,0-0.3c0-0.3,0.1-0.2,0.2-0.3s0.3,0,0.4-0.1
			C-539.8,398.4-539.7,398.7-539.7,399.1L-539.7,399.1z M-528.4,386.3c-0.1,0-0.3-0.1-0.7-0.1c-0.4,0-1.4,0.1-1.5,0
			c-0.1-0.1-0.5-0.1-0.9-0.2c-0.3-0.1-0.5-0.2-0.8-0.2c-0.3,0-0.8,0.2-1.1,0.3c-0.3,0-0.5,0.1-0.7,0.1s-0.7,0.2-0.7,0.5
			c-0.1,0.3-0.4,2.3-0.5,3c0,0.7-0.1,1.1-0.2,1.4c-0.1,0.3-0.3,0.4-0.4,0.9c-0.1,0.4-0.2,0.4-0.2,0.7c0,0.3,0,0.5-0.2,0.9
			c-0.2,0.4,0,0.6-0.3,0.7c-0.3,0-0.4,0.2-0.4-0.2s0-0.8-0.1-1c0-0.3-1.4-4.5-1.5-4.7c-0.1-0.2-0.1-0.1-0.4-0.8
			c-0.3-0.6-0.5-1-0.5-1s-0.1-0.5-0.8-0.5c-0.7,0-3.6,0-3.8,0c-0.3,0.1-0.8,0.1-1.1,0.2c-0.2,0-0.4,0.3-0.3,0.5
			c0.1,0.3,1.1,2.6,1.2,3.2c0.1,0.6,2.7,7.1,2.9,7.4c0.2,0.3,0.3-0.1,0.3,0.5c0,0.5,0.7,2,0.7,2.3c0,0.3,0,0.6,0,0.8
			c0.1,0.1,0.1,0.7,0.1,0.9c0,0.2,0.4,0.2,0.5,0c0.2-0.3,0.5-1,0.5-1.5c0-0.5,0-0.7-0.1-1c-0.1-0.3-0.1-0.5-0.1-0.8
			c0-0.4,0.1-0.5,0.2-0.5c0.1,0,0.2,0.2,0.2,0.5s-0.2,0.2,0.1,0.9c0.4,0.7,0.6,0.8,0.7,1.2c0.1,0.4,0.2,0.8,0.1,1.1
			c-0.1,0.3-0.2,0.5-0.5,0.8c-0.3,0.4-0.4,0.4-0.5,0.8c-0.1,0.4-0.1,0.9-0.2,1.1s0.3,0.1-0.1,0.3c-0.4,0.2-0.2,0.5-0.6,0.1
			c-0.4-0.4-0.5-0.4-0.6,0s-0.1,1.1-0.1,1.4c0,0.3,0.3,0.5,0.6,0.4c0.3-0.1,0.9-0.4,1.1,0c0.2,0.4,0.8,0.8,0.7,1.2
			c-0.1,0.4-0.4,0.9-0.5,0.9c-0.2,0.1-0.2,0.2-0.5,0.3c-0.3,0-0.5,0.3-0.6,0.2s0-0.1,0-0.4c0-0.3,0-0.5-0.1-0.7
			c0-0.2-0.1-0.4-0.2-0.3c-0.1,0.1-0.2,0.1-0.2,0.4c0,0.4-0.1,3.1-0.1,3.4s-0.1,0.5,0,0.7c0.1,0.1,0,0.1,0.4,0.2
			c0.4,0.1,0.7-0.2,1-0.3c0.3-0.1,1-0.2,1.3-0.2c0.4,0,0.7,0.1,1.1,0.1c0.4,0,1.1,0.2,1.6,0.1c0.4-0.1,0.5,0,0.7-0.1
			c0.2-0.1,0.5-0.2,0.5-0.5c0-0.3,0-0.4,0-0.8c0-0.4-0.2-5.6-0.2-5.6s0.2-0.7,0.2-1.1c0-0.4,0-1.3,0-1.6s0-1.5,0-1.5
			c0-0.1,0.3-0.7,0.3-0.9c0.1-0.2,0.9-1,0.9-1.8c0-0.8,0-0.8,0.2-1.1s0.4-0.7,0.4-0.7s1.8-3.7,1.8-4.1c0-0.4,0.1-0.5,0.2-0.9
			c0.1-0.4,0-0.9,0.2-1.2c0.1-0.3,0.4-0.8,0.4-1.1c0-0.4-0.2-0.6,0-0.7c0.2-0.1,0.4-0.3,0.5-0.8c0.1-0.5,0.1-0.5,0.2-0.7
			c0.1-0.2,0.2-0.4,0.2-0.6C-528.2,386.5-528.3,386.4-528.4,386.3L-528.4,386.3z"/>
	</g>
</g>
</svg>
