<?xml version="1.0" encoding="UTF-8" standalone="no"?>
<svg width="14px" height="17px" viewBox="0 0 14 17" version="1.1" xmlns="http://www.w3.org/2000/svg" xmlns:xlink="http://www.w3.org/1999/xlink">
    <!-- Generator: Sketch 40.3 (33839) - http://www.bohemiancoding.com/sketch -->
    <title>noun_33997_cc (1)</title>
    <desc>Created with Sketch.</desc>
    <defs></defs>
    <g id="Page-1" stroke="none" stroke-width="1" fill="none" fill-rule="evenodd">
        <g id="Wines---Desktop---1" transform="translate(-450.000000, -1021.000000)" fill="#666666">
            <g id="WHERE-TO-BUY" transform="translate(0.000000, 849.000000)">
                <g id="Group" transform="translate(435.000000, 161.000000)">
                    <g id="noun_33997_cc-(1)" transform="translate(15.000000, 11.000000)">
                        <g id="Group">
                            <path d="M7,16.772 C6.8145,16.772 6.62925,16.70375 6.4845,16.567 C5.84425,15.96125 0.228,10.5465 0.228,7 C0.228,3.26575 3.26575,0.228 7,0.228 C10.73425,0.228 13.772,3.26575 13.772,7 C13.772,10.5465 8.15575,15.96125 7.5155,16.567 C7.37075,16.7035 7.18525,16.772 7,16.772 L7,16.772 Z M7,1.728 C4.093,1.728 1.728,4.093 1.728,7 C1.728,9.2295 5.15825,13.12825 7,14.974 C8.8415,13.12825 12.272,9.2295 12.272,7 C12.272,4.093 9.907,1.728 7,1.728 L7,1.728 Z" id="Shape"></path>
                            <path d="M7,9.70575 C5.508,9.70575 4.294,8.492 4.294,7 C4.294,5.508 5.508,4.294 7,4.294 C8.492,4.294 9.70575,5.50775 9.70575,7 C9.70575,8.492 8.492,9.70575 7,9.70575 L7,9.70575 Z M7,5.59925 C6.2275,5.59925 5.599,6.22775 5.599,7 C5.599,7.77225 6.2275,8.40075 7,8.40075 C7.77225,8.40075 8.40075,7.7725 8.40075,7 C8.40075,6.2275 7.77225,5.59925 7,5.59925 L7,5.59925 Z" id="Shape"></path>
                        </g>
                    </g>
                </g>
            </g>
        </g>
    </g>
</svg>