<?xml version="1.0" encoding="UTF-8" standalone="no"?>
<svg width="225px" height="36px" viewBox="0 0 225 36" version="1.1" xmlns="http://www.w3.org/2000/svg" xmlns:xlink="http://www.w3.org/1999/xlink">
    <!-- Generator: Sketch 40.1 (33804) - http://www.bohemiancoding.com/sketch -->
    <title>logo-yellowtail</title>
    <desc>Created with Sketch.</desc>
    <defs></defs>
    <g id="Symbols" stroke="none" stroke-width="1" fill="none" fill-rule="evenodd">
        <g id="logo-yellowtail" fill="#000000">
            <polygon id="Shape" points="0 34.3625936 0 3.71366144 6.37704572 3.71366144 6.37704572 6.36502515 3.07046899 6.36502515 3.07046899 31.6926123 6.37704572 31.6926123 6.37704572 34.3625936"></polygon>
            <path d="M26.7955577,29.5526847 C25.0167369,34.4337785 23.5146216,35.9352323 20.0830466,35.9352323 C19.4666025,35.9352323 18.6396912,35.8377638 18.0264521,35.7194873 L18.2721751,32.7571003 C18.9484475,33.0144611 19.5563448,33.1064539 20.2668047,33.1064539 C21.7977658,33.1064539 22.6492493,32.3770825 23.6097057,29.7158624 L24.2143979,28.0435649 L18.5189664,12.4234077 L22.1919909,12.4234077 L24.6748614,19.5638006 C25.1727176,20.9491683 25.5348919,22.3213941 25.8735623,23.6421478 L25.9045447,23.6421478 C26.2154377,22.3892936 26.858591,20.3457394 27.4120019,18.7731007 L29.5850478,12.4234077 L33.1127752,12.4234077 L26.7955577,29.5526847 L26.7955577,29.5526847 Z" id="Shape"></path>
            <path d="M44.7301307,14.5852383 C42.8914817,14.5852383 41.6019702,15.9793672 41.3284699,18.0831547 L47.7941895,18.0831547 C47.8582912,15.9410368 46.6595903,14.5852383 44.7301307,14.5852383 M50.9800415,20.4355419 L41.2665049,20.4355419 C41.1714208,24.0561153 42.7344327,25.6878923 45.7728509,25.6878923 C47.3347944,25.6878923 48.9544294,25.3144453 50.2097533,24.6737812 L50.5217147,27.3645704 C48.9864802,28.0150909 47.1189855,28.3545881 45.2482857,28.3545881 C40.5004902,28.3545881 37.8904848,25.8390233 37.8904848,20.3446442 C37.8904848,15.6289184 40.4000643,12.1123844 44.8551289,12.1123844 C49.2033575,12.1123844 51.0729889,15.1558126 51.0729889,18.8694741 C51.0719205,19.3053447 51.0505533,19.8441596 50.9800415,20.4355419" id="Shape"></path>
            <path d="M61.9296715,28.04466 L58.6476671,28.04466 L58.6476671,7.70658671 C57.9115665,7.58392965 56.870983,7.45579684 55.97356,7.40103922 L55.97356,5.31805955 C57.6914842,5.1264079 59.9329051,5.00375084 61.9296715,5.10231455 L61.9296715,28.04466 L61.9296715,28.04466 Z" id="Shape"></path>
            <path d="M74.1912486,28.04466 L70.9167227,28.04466 L70.9167227,7.70658671 C70.1752803,7.58392965 69.1336285,7.45579684 68.2426156,7.40103922 L68.2426156,5.31805955 C69.9562663,5.12531275 72.196619,5.00375084 74.1912486,5.10231455 L74.1912486,28.04466 L74.1912486,28.04466 Z" id="Shape"></path>
            <path d="M88.6889049,14.9488288 C86.6985487,14.9488288 84.7637473,16.5050403 84.7637473,20.0883786 C84.7637473,23.6136738 86.1162921,25.4743376 88.6643326,25.4743376 C90.7722085,25.4743376 92.5467558,23.7735661 92.5467558,20.1584683 C92.5478242,16.8303005 91.3021155,14.9488288 88.6889049,14.9488288 M88.3577131,28.3567784 C84.1184573,28.3567784 81.3631548,25.937587 81.3631548,20.436637 C81.3631548,15.71215 84.3267877,12.1134796 88.9624053,12.1134796 C93.0435436,12.1134796 95.9185026,14.4373927 95.9185026,19.940533 C95.9195709,24.7537274 92.8629906,28.3567784 88.3577131,28.3567784" id="Shape"></path>
            <path d="M119.773931,28.04466 L116.165008,28.04466 L113.522952,19.8748239 C113.18535,18.8420953 112.909713,17.7666557 112.629802,16.5740349 L112.603093,16.5740349 C112.297542,17.9550219 111.958872,19.1826876 111.56251,20.5100122 L109.266603,28.0435649 L105.796567,28.0435649 L101.106463,12.4234077 L104.69295,12.4234077 L106.718562,19.6809819 C107.115992,21.1605327 107.549747,22.644464 107.856366,24.0550202 L107.883075,24.0550202 C108.183285,22.5097603 108.557211,21.126583 108.956778,19.7806408 L111.222771,12.4223125 L114.536827,12.4223125 L116.843418,19.6481274 C117.418196,21.5416457 117.72802,22.7025071 118.031435,24.0550202 L118.060281,24.0550202 C118.364763,22.6094192 118.675656,21.3510892 119.137188,19.8102099 L121.253611,12.4223125 L124.654203,12.4223125 L119.773931,28.04466 L119.773931,28.04466 Z" id="Shape"></path>
            <path d="M146.634659,28.3239238 C143.383637,28.3239238 142.399677,27.0393102 142.399677,23.5490598 L142.399677,15.028775 L139.488393,15.028775 L139.488393,12.4245028 L142.399677,12.4245028 L142.399677,7.45579684 L145.64963,6.54463012 L145.64963,12.4245028 L149.669872,12.4245028 L149.669872,15.028775 L145.681681,15.028775 L145.681681,22.5130458 C145.681681,24.8424347 146.141076,25.4765279 147.670969,25.4765279 C148.349378,25.4765279 149.086547,25.3735836 149.669872,25.2147865 L149.669872,27.9811412 C148.778859,28.1673171 147.643192,28.3239238 146.634659,28.3239238" id="Shape"></path>
            <path d="M164.776494,20.9743568 C159.995579,20.9743568 158.957133,22.4495269 158.957133,23.7987546 C158.957133,24.959616 159.757335,25.7185565 161.047915,25.7185565 C163.280789,25.7185565 164.777562,23.521681 164.777562,21.2930461 L164.777562,20.9743568 L164.776494,20.9743568 Z M164.998713,28.04466 C164.998713,27.0393102 165.029695,26.0054864 165.155762,25.1545531 L165.116233,25.1271743 C164.380132,26.9845526 162.48486,28.3567784 160.057544,28.3567784 C157.452881,28.3567784 155.800126,26.8487537 155.800126,24.3660434 C155.800126,20.78161 159.293666,18.7172479 164.775426,18.7172479 L164.775426,17.7097078 C164.775426,15.7515755 163.988044,14.7473208 161.59171,14.7473208 C160.183611,14.7473208 158.340688,15.1864769 157.05545,16.0122217 L156.752036,13.1440179 C158.252014,12.5471599 160.148355,12.1134796 162.116276,12.1134796 C166.77326,12.1134796 168.064909,14.1844125 168.064909,17.3943039 L168.064909,25.441483 C168.794599,25.5586643 169.843729,25.6889874 170.730469,25.7536014 L170.730469,27.828915 C169.013613,28.0150909 166.774329,28.1476043 164.998713,28.04466 L164.998713,28.04466 Z" id="Shape"></path>
            <path d="M179.772006,10.0929236 C178.641681,10.0929236 177.686566,9.15985381 177.686566,7.99461177 C177.686566,6.82717942 178.641681,5.88206299 179.772006,5.88206299 C180.945067,5.88206299 181.885224,6.79980061 181.885224,7.99461177 C181.885224,9.15985381 180.945067,10.0929236 179.772006,10.0929236 L179.772006,10.0929236 Z M181.403393,28.04466 L178.152371,28.04466 L178.152371,15.0276798 C177.419476,14.9104985 176.377824,14.7834609 175.484674,14.7232275 L175.484674,12.6468187 C177.196188,12.4518816 179.409832,12.3292246 181.404462,12.4245028 L181.404462,28.04466 L181.403393,28.04466 Z" id="Shape"></path>
            <path d="M193.660697,28.04466 L190.376556,28.04466 L190.376556,7.70658671 C189.647934,7.58392965 188.602009,7.45579684 187.716337,7.40103922 L187.716337,5.31805955 C189.432125,5.12531275 191.666067,5.00375084 193.661765,5.10231455 L193.661765,28.04466 L193.660697,28.04466 Z" id="Shape"></path>
            <polygon id="Shape" points="206.995977 34.3625936 206.995977 31.6926123 210.302554 31.6926123 210.302554 6.36502515 206.995977 6.36502515 206.995977 3.71366144 213.371954 3.71366144 213.371954 34.3625936"></polygon>
            <path d="M220.473348,3.67752141 L220.944496,3.67752141 C221.491496,3.67752141 221.957302,3.47382309 221.957302,2.95143544 C221.957302,2.5757982 221.693417,2.20125612 220.944496,2.20125612 C220.735097,2.20125612 220.585526,2.2176834 220.473348,2.23849129 L220.473348,3.67752141 L220.473348,3.67752141 Z M220.473348,6.02333763 L219.809896,6.02333763 L219.809896,1.77962248 C220.157114,1.72705517 220.489374,1.67339271 220.984025,1.67339271 C221.610084,1.67339271 222.018198,1.80700129 222.269263,1.99755779 C222.518191,2.18592398 222.647463,2.47285389 222.647463,2.88025054 C222.647463,3.43987336 222.285288,3.77718027 221.837645,3.90750339 L221.837645,3.94364342 C222.201956,4.00497195 222.456226,4.35432553 222.535285,4.97965749 C222.631437,5.63565372 222.736137,5.88206299 222.795965,6.02114733 L222.10153,6.02114733 C222.003241,5.88206299 221.910294,5.50314029 221.820551,4.94242231 C221.724399,4.40251223 221.458377,4.20428967 220.93488,4.20428967 L220.474417,4.20428967 L220.474417,6.02333763 L220.473348,6.02333763 Z M221.162441,0.590287088 C219.523576,0.590287088 218.192398,2.03041236 218.192398,3.81112999 C218.192398,5.61922643 219.523576,7.04511472 221.175262,7.04511472 C222.833358,7.06373231 224.151715,5.61922643 224.151715,3.82974758 C224.151715,2.03041236 222.833358,0.590287088 221.175262,0.590287088 L221.162441,0.590287088 L221.162441,0.590287088 Z M221.175262,0 C223.208352,0 224.830124,1.68981999 224.830124,3.81112999 C224.830124,5.9620091 223.208352,7.63759212 221.16351,7.63759212 C219.132556,7.63759212 217.484075,5.9620091 217.484075,3.81112999 C217.484075,1.68981999 219.132556,0 221.16351,0 L221.175262,0 L221.175262,0 Z" id="Shape"></path>
        </g>
    </g>
</svg>
