<?xml version="1.0" encoding="UTF-8" standalone="no"?>
<svg width="147px" height="23px" viewBox="0 0 147 23" version="1.1" xmlns="http://www.w3.org/2000/svg" xmlns:xlink="http://www.w3.org/1999/xlink">
    <!-- Generator: Sketch 40.1 (33804) - http://www.bohemiancoding.com/sketch -->
    <title>logo-yellowtail-white</title>
    <desc>Created with Sketch.</desc>
    <defs></defs>
    <g id="Symbols" stroke="none" stroke-width="1" fill="none" fill-rule="evenodd">
        <g id="logo-yellowtail-white" fill="#FFFFFF">
            <polygon id="Shape" points="0 21.9538793 0 2.37261703 4.16633654 2.37261703 4.16633654 4.06654384 2.00603974 4.06654384 2.00603974 20.2480579 4.16633654 20.2480579 4.16633654 21.9538793"></polygon>
            <path d="M17.506431,18.8808819 C16.3442681,21.9993585 15.3628861,22.9586206 13.1209238,22.9586206 C12.7181803,22.9586206 12.1779316,22.8963491 11.777282,22.8207836 L11.937821,20.9281474 C12.3796523,21.0925724 12.7768119,21.1513456 13.2409791,21.1513456 C14.241207,21.1513456 14.7975096,20.6853583 15.4250077,18.9851343 L15.8200733,17.916722 L12.0990581,7.93717711 L14.4987674,7.93717711 L16.1209095,12.4990948 C16.4461755,13.3841908 16.682796,14.2608907 16.9040607,15.1047055 L16.9243026,15.1047055 C17.1274193,14.3042709 17.5476128,12.9986668 17.9091745,11.9939254 L19.3288979,7.93717711 L21.6336798,7.93717711 L17.506431,18.8808819 L17.506431,18.8808819 Z" id="Shape"></path>
            <path d="M29.2236854,9.31834668 C28.0224347,9.31834668 27.1799539,10.2090401 27.001267,11.5531266 L31.2255372,11.5531266 C31.2674169,10.1845513 30.4842657,9.31834668 29.2236854,9.31834668 M33.3069604,13.0560406 L26.9607832,13.0560406 C26.8986616,15.3691848 27.9198294,16.411709 29.9049292,16.411709 C30.925399,16.411709 31.9835605,16.1731179 32.8037055,15.7638047 L33.0075203,17.48292 C32.0045004,17.8985303 30.7844039,18.1154313 29.5622133,18.1154313 C26.4603203,18.1154313 24.7551167,16.5082649 24.7551167,12.9979671 C24.7551167,9.98514233 26.3947087,7.73846781 29.3053509,7.73846781 C32.1461935,7.73846781 33.3676861,9.68288029 33.3676861,12.0554973 C33.3669881,12.3339702 33.3530282,12.6782131 33.3069604,13.0560406" id="Shape"></path>
            <path d="M40.4607187,17.9174217 L38.3164758,17.9174217 L38.3164758,4.92365262 C37.8355568,4.84528839 37.1557089,4.76342576 36.5693925,4.72844172 L36.5693925,3.39764916 C37.6917696,3.27520505 39.1561647,3.19684082 40.4607187,3.25981207 L40.4607187,17.9174217 L40.4607187,17.9174217 Z" id="Shape"></path>
            <path d="M48.4716158,17.9174217 L46.3322588,17.9174217 L46.3322588,4.92365262 C45.8478498,4.84528839 45.167304,4.76342576 44.5851755,4.72844172 L44.5851755,3.39764916 C45.7047607,3.27450537 47.1684577,3.19684082 48.4716158,3.25981207 L48.4716158,17.9174217 L48.4716158,17.9174217 Z" id="Shape"></path>
            <path d="M57.9434179,9.55064065 C56.6430518,9.55064065 55.3789815,10.5448868 55.3789815,12.8342419 C55.3789815,15.0865138 56.2626441,16.2752712 57.927364,16.2752712 C59.3045096,16.2752712 60.4638805,15.1886672 60.4638805,12.8790214 C60.4645785,10.752692 59.6507154,9.55064065 57.9434179,9.55064065 M57.7270392,18.1168307 C54.9573921,18.1168307 53.1572611,16.5712361 53.1572611,13.0567403 C53.1572611,10.0383181 55.0935013,7.73916749 58.1221048,7.73916749 C60.7884485,7.73916749 62.666755,9.2238898 62.666755,12.739785 C62.667453,15.8148814 60.6704872,18.1168307 57.7270392,18.1168307" id="Shape"></path>
            <path d="M78.2523018,17.9174217 L75.8944722,17.9174217 L74.1683287,12.6978041 C73.9477621,12.0380053 73.7676792,11.3509189 73.5848043,10.5889667 L73.5673544,10.5889667 C73.3677276,11.471264 73.146463,12.255606 72.8875065,13.1036189 L71.3875137,17.916722 L69.1204236,17.916722 L66.0562223,7.93717711 L68.399394,7.93717711 L69.7227939,12.5739607 C69.9824483,13.5192292 70.2658346,14.4672965 70.4661593,15.3684851 L70.4836092,15.3684851 C70.679746,14.3812358 70.9240445,13.4975391 71.1850949,12.6376316 L72.6655439,7.93647743 L74.8307267,7.93647743 L76.3376995,12.5529703 C76.7132212,13.7627181 76.9156399,14.5043795 77.1138707,15.3684851 L77.1327166,15.3684851 C77.3316454,14.4449067 77.5347621,13.6409736 77.8362963,12.656523 L79.2190258,7.93647743 L81.4407463,7.93647743 L78.2523018,17.9174217 L78.2523018,17.9174217 Z" id="Shape"></path>
            <path d="M95.8013105,18.0958402 C93.6773095,18.0958402 93.0344554,17.2751149 93.0344554,15.0452327 L93.0344554,9.60171734 L91.132417,9.60171734 L91.132417,7.93787679 L93.0344554,7.93787679 L93.0344554,4.76342576 L95.1577584,4.18129147 L95.1577584,7.93787679 L97.7843164,7.93787679 L97.7843164,9.60171734 L95.1786983,9.60171734 L95.1786983,14.3833348 C95.1786983,15.8715555 95.4788365,16.2766706 96.4783664,16.2766706 C96.9215937,16.2766706 97.4032107,16.2109006 97.7843164,16.1094469 L97.7843164,17.8768402 C97.2021879,17.9957859 96.4602185,18.0958402 95.8013105,18.0958402" id="Shape"></path>
            <path d="M107.653976,13.4002835 C104.530445,13.4002835 103.851993,14.3427533 103.851993,15.2047599 C103.851993,15.9464213 104.374792,16.4313 105.217971,16.4313 C106.676782,16.4313 107.654674,15.0277407 107.654674,13.6038906 L107.654674,13.4002835 L107.653976,13.4002835 Z M107.799159,17.9174217 C107.799159,17.2751149 107.819401,16.6146163 107.901765,16.0709645 L107.875939,16.0534725 C107.39502,17.2401308 106.156775,18.1168307 104.570929,18.1168307 C102.869215,18.1168307 101.789416,17.1533704 101.789416,15.5671944 C101.789416,13.2771397 104.071862,11.9582417 107.653278,11.9582417 L107.653278,11.3145355 C107.653278,10.0635066 107.138855,9.42189942 105.573251,9.42189942 C104.653292,9.42189942 103.44925,9.70247135 102.609561,10.2300305 L102.41133,8.39756697 C103.391316,8.01624102 104.630259,7.73916749 105.915967,7.73916749 C108.95853,7.73916749 109.802407,9.06226357 109.802407,11.1130275 L109.802407,16.2542808 C110.279138,16.3291466 110.96457,16.4124086 111.543906,16.4536898 L111.543906,17.7795846 C110.422227,17.8985303 108.959228,17.9831917 107.799159,17.9174217 L107.799159,17.9174217 Z" id="Shape"></path>
            <path d="M117.451044,6.44825672 C116.712565,6.44825672 116.088557,5.85212882 116.088557,5.10766863 C116.088557,4.36180907 116.712565,3.75798469 117.451044,3.75798469 C118.217444,3.75798469 118.83168,4.34431706 118.83168,5.10766863 C118.83168,5.85212882 118.217444,6.44825672 117.451044,6.44825672 L117.451044,6.44825672 Z M118.516884,17.9174217 L116.392883,17.9174217 L116.392883,9.60101766 C115.914058,9.52615183 115.233512,9.44498888 114.649987,9.40650644 L114.649987,8.07991196 C115.768176,7.95536881 117.214424,7.87700458 118.517582,7.93787679 L118.517582,17.9174217 L118.516884,17.9174217 Z" id="Shape"></path>
            <path d="M126.524989,17.9174217 L124.37935,17.9174217 L124.37935,4.92365262 C123.903317,4.84528839 123.219979,4.76342576 122.64134,4.72844172 L122.64134,3.39764916 C123.762322,3.27450537 125.221831,3.19684082 126.525687,3.25981207 L126.525687,17.9174217 L126.524989,17.9174217 Z" id="Shape"></path>
            <polygon id="Shape" points="135.237371 21.9538793 135.237371 20.2480579 137.397668 20.2480579 137.397668 4.06654384 135.237371 4.06654384 135.237371 2.37261703 139.40301 2.37261703 139.40301 21.9538793"></polygon>
            <path d="M144.042588,2.34952757 L144.350404,2.34952757 C144.707778,2.34952757 145.012104,2.21938697 145.012104,1.88563931 C145.012104,1.64564885 144.839699,1.40635807 144.350404,1.40635807 C144.213597,1.40635807 144.115877,1.41685328 144.042588,1.43014722 L144.042588,2.34952757 L144.042588,2.34952757 Z M144.042588,3.84824349 L143.609132,3.84824349 L143.609132,1.13698103 C143.835981,1.10339636 144.053058,1.06911201 144.37623,1.06911201 C144.785255,1.06911201 145.05189,1.15447305 145.215919,1.27621748 C145.378552,1.39656255 145.463009,1.57987887 145.463009,1.84016007 C145.463009,2.19769687 145.226388,2.41319851 144.933928,2.4964605 L144.933928,2.51954996 C145.171945,2.55873208 145.338068,2.7819302 145.389719,3.18144784 C145.452539,3.60055654 145.520943,3.75798469 145.56003,3.84684413 L145.106333,3.84684413 C145.042118,3.75798469 144.981392,3.51589519 144.92276,3.1576587 C144.859941,2.81271615 144.68614,2.68607395 144.344122,2.68607395 L144.043286,2.68607395 L144.043286,3.84824349 L144.042588,3.84824349 Z M144.492795,0.377127862 C143.422069,0.377127862 142.552367,1.2972079 142.552367,2.43488861 C142.552367,3.59006133 143.422069,4.50104552 144.501171,4.50104552 C145.58446,4.51294009 146.445787,3.59006133 146.445787,2.44678318 C146.445787,1.2972079 145.58446,0.377127862 144.501171,0.377127862 L144.492795,0.377127862 L144.492795,0.377127862 Z M144.501171,0 C145.829457,0 146.889014,1.07960722 146.889014,2.43488861 C146.889014,3.80906137 145.829457,4.87957274 144.493493,4.87957274 C143.166603,4.87957274 142.089596,3.80906137 142.089596,2.43488861 C142.089596,1.07960722 143.166603,0 144.493493,0 L144.501171,0 L144.501171,0 Z" id="Shape"></path>
        </g>
    </g>
</svg>