<?xml version="1.0" encoding="UTF-8"?>
<svg width="358px" height="214px" viewBox="0 0 358 214" version="1.1" xmlns="http://www.w3.org/2000/svg" xmlns:xlink="http://www.w3.org/1999/xlink">
    <defs>
        <path d="M1.20294278,215.391972 L1.28320493,215.625211 C1.41734169,216.307327 1.60425355,217.03785 1.86263172,217.728767 C2.06273736,218.268958 2.23425649,218.594613 2.39368131,218.820151 C2.47944088,219.044589 2.56849888,219.255825 2.66965119,219.452758 C2.76860453,219.654092 2.85326461,219.765211 2.91483558,219.811419 C3.10614537,220.179981 3.30405205,220.494634 3.50525718,220.777382 C3.59541467,220.984217 3.70866127,221.202054 3.8197089,221.387985 C4.04840107,221.77195 4.23861138,222.072301 4.39913569,222.30774 C4.37494709,222.729112 4.40793154,223.07787 4.52117814,223.325412 L4.51458125,223.436531 C4.46180614,223.700576 4.49918851,224.046034 4.64212111,224.014129 C4.75866616,223.982223 4.87301224,223.96242 4.99065677,223.951418 L5.03023811,223.978923 C5.10170441,224.075739 5.17866812,224.146151 5.26112924,224.191259 C5.66683793,224.394793 6.03516426,223.943717 6.43427607,223.277004 C6.82789047,222.60149 7.26548413,221.685035 7.66239697,220.805987 C8.12527871,220.05896 8.4837097,219.174411 8.73878943,218.304164 L9.26434161,217.091759 C9.3665934,216.85852 9.23685457,217.080757 9.33140999,216.892625 L9.6766472,216.252317 C10.1285341,215.396373 10.5474366,214.518424 10.9619411,213.66248 L10.9927266,213.629474 C11.2137224,213.411637 11.4270219,213.121188 11.6370228,212.781231 C11.9371813,212.296049 12.0724175,211.939589 12.256031,211.549023 C12.6199593,210.774492 12.9794898,209.965855 13.3500151,209.413562 C14.1229506,208.240764 14.8420116,206.896336 15.7237958,205.802752 C16.2658402,205.131638 16.4527521,205.14264 16.9497178,204.292196 C17.2344835,203.790512 17.3191436,203.362539 17.6522865,202.899361 C17.861188,202.610012 18.3262687,202.252452 18.5912437,201.909194 C18.9276851,201.464719 19.3355927,200.730895 19.6104631,200.243512 C20.2888433,199.012404 20.9694224,197.934222 21.7170698,196.810932 L22.2547163,196.298246 C22.9671804,195.608429 23.493832,195.050635 24.1381282,194.561052 C24.5086535,194.277204 24.7934192,194.13088 25.075986,193.964752 L24.9649384,194.061568 L25.1067715,193.943848 C25.3860398,193.767818 25.671905,193.587388 26.0259381,193.228727 C26.7208104,192.706139 27.434374,192.197853 28.1655292,191.717072 C29.1737538,191.102068 30.2105649,190.533272 31.2693657,190.005183 C31.3694185,189.954574 31.4540786,189.905066 31.5277438,189.853357 C32.2061239,189.582711 32.9086927,189.283461 33.6233557,188.954505 C33.6849267,188.944603 33.7772831,188.9226 33.8872313,188.876392 L34.5095378,188.605746 C34.5040404,188.613447 34.5084383,188.620049 34.5117368,188.624449 L34.7921046,188.522132 C35.1813211,188.374707 35.5815324,188.210779 35.9542566,188.022648 L36.5644689,187.80151 C36.8492346,188.51113 37.2615402,189.435286 37.8343701,190.554175 C38.5567295,191.920606 39.4890898,193.663301 41.1119246,195.264071 C44.3213113,198.493117 49.4481938,200.680286 54.7169095,202.940068 L56.7212644,203.84112 C57.4370269,204.172276 58.2539417,204.448423 59.0257778,204.645356 C60.594738,205.051325 62.1944836,205.230655 63.6875796,205.542008 C64.4297296,205.701535 65.1476911,205.895167 65.80738,206.175715 C65.9745012,206.241726 66.136125,206.318739 66.2900525,206.407854 C66.3384296,206.425457 66.5066503,206.525574 66.6660752,206.582783 L66.9827258,206.697203 L68.1107939,207.130676 L72.7780932,209.116512 C74.4119228,209.771122 76.1897845,210.357521 78.0534057,210.614965 C79.7872881,210.790995 81.5530555,211.132052 83.3331162,211.377394 C86.892138,211.905483 90.5358199,212.411568 94.2410728,212.757027 C97.5164284,213.105786 101.058958,213.279615 104.555309,213.315921 C108.13852,213.441342 111.880056,213.276314 115.657874,212.903351 C123.236601,212.151924 131.016532,210.477442 138.938297,208.877771 C146.536814,207.470634 154.691669,206.120705 163.189562,203.858723 C165.578735,203.217315 167.959113,202.523098 170.317501,201.740865 L179.929169,198.440308 C183.542065,197.251007 187.171454,196.127717 190.832727,195.114446 C194.557771,194.07147 198.304804,193.140712 202.079324,192.339777 C203.944045,191.966814 205.952798,191.553144 207.856,191.026155 C209.769098,190.512368 211.645913,189.942472 213.508435,189.372576 C217.243374,188.227282 220.905747,187.08859 224.65388,186.364668 C228.395415,185.617641 232.304072,185.234777 236.207232,184.25121 L236.991162,184.061978 C239.572745,183.462377 242.392915,182.249972 245.067954,180.798827 C247.792469,179.363085 250.587351,177.710605 253.532862,176.104334 C256.494866,174.461756 259.523937,173.042517 262.944425,171.710192 C266.32533,170.28215 269.696341,168.540556 272.874942,166.482108 C274.453798,165.466637 276.043648,164.342247 277.50266,163.257463 C279.054029,162.219988 280.587805,161.010884 282.02043,159.832585 C284.90327,157.459484 287.616791,155.014871 290.551307,153.206165 C290.913037,152.976226 291.285761,152.774892 291.658485,152.568057 C292.17744,152.269907 292.439117,152.075174 292.842627,151.829833 L295.071276,150.411693 C296.552278,149.454531 298.007991,148.386251 299.260301,147.158443 C299.905696,146.508234 300.432348,145.974643 301.038162,145.163806 L302.415813,143.182372 L305.05237,139.405433 C306.889603,136.895909 308.521234,134.191653 310.230928,131.567709 C311.941721,128.920662 313.677802,126.228507 315.266553,123.40213 C316.867398,120.610958 318.24285,117.539239 319.341232,114.518129 C320.531971,111.45081 321.344487,108.208563 321.851348,104.960814 C322.362607,101.705364 322.580305,98.42791 322.648473,95.1768607 L322.673761,92.7410492 L322.660567,91.4505312 L322.536325,90.230425 L322.111926,85.4512175 C321.834856,82.2628788 321.503912,79.0492359 320.868412,75.8873017 C320.566054,74.3184366 320.12956,72.7033637 319.712857,71.2335154 C319.309347,69.7614667 318.982801,68.2674142 318.674946,66.7590594 C317.94599,63.0866389 317.335778,60.0743299 316.453993,57.5053959 C315.609592,54.8539479 314.344088,52.8142033 313.063192,50.8613734 C311.75371,48.9096436 310.263912,47.0668322 308.504742,44.9511748 C307.622957,43.8883952 306.678503,42.7596045 305.68677,41.4888898 C304.722525,40.2500805 303.618646,38.7131208 302.752254,37.2124673 C302.710474,37.1420554 302.730265,37.1629589 302.684086,37.0111333 L302.57084,36.6007639 L302.361938,35.7745243 L301.979319,34.0956407 C301.717642,32.9646496 301.413086,31.8061539 300.944706,30.7092685 C300.832559,30.4342221 300.705019,30.1646765 300.575281,29.8984315 L300.416955,29.5947802 L300.314704,29.3043312 C300.104703,28.7245332 299.854021,28.1865423 299.568156,27.6826572 C299.008519,26.669386 298.353228,25.7804358 297.674848,24.9332926 C296.989871,24.0872497 296.27081,23.2951159 295.542954,22.5216852 L294.975621,21.9198835 C294.683159,21.644837 294.534729,21.5315179 294.302738,21.3268833 C293.887134,20.9561207 293.437446,20.6260649 292.995455,20.2762058 C291.205499,18.9075746 289.226432,17.6885686 287.052757,16.4794643 C284.351331,14.9810111 280.841786,13.2867249 277.233287,11.564934 L276.561504,11.2392789 L276.197575,11.0665498 C276.046946,10.9719338 275.7204,10.9004217 275.67862,10.878418 C275.271812,10.7606981 274.862805,10.576967 274.457096,10.3921358 C273.64238,10.0004696 272.827664,9.48448246 271.992058,8.95419287 C271.157552,8.42280309 270.296658,7.86500884 269.362099,7.37982687 C268.893719,7.14108653 268.416544,6.90894731 267.905285,6.72851683 C267.659002,6.62509935 267.398424,6.54698616 267.138947,6.46887296 C266.906956,6.39846106 267.147743,6.47987482 266.949836,6.40726255 L266.600201,6.26973931 C264.154954,5.33128075 261.331485,4.95941793 258.553095,4.58205417 C255.829679,4.2288945 252.892964,3.54017814 249.918867,3.06049709 C243.99486,2.03182329 238.002685,1.25399187 233.113291,0.860125324 C226.372369,0.306731824 219.469824,0.143904314 212.450734,0.873327554 C208.873021,1.31120154 205.543791,2.33767497 202.248644,2.75244504 C201.424033,2.85476233 200.604919,2.92627441 199.789104,2.94937832 L198.464229,2.95707962 L197.178935,3.00658798 L192.001476,3.13200917 C188.532612,3.20462144 185.017569,3.32344152 181.528914,3.79432108 C178.019369,4.2993064 174.684641,5.0628354 171.340019,5.89897667 C164.69805,7.62736869 158.35734,9.80023581 152.104589,11.4505146 C150.750027,11.8091752 149.389969,12.1425316 148.023313,12.4516838 C146.674249,12.760836 145.330683,13.0226803 143.916749,13.1877081 C141.113071,13.5903762 138.290702,14.0766583 135.501317,14.6707587 C132.221564,15.3297701 128.98469,16.1747128 125.863262,17.1054701 C122.760525,18.0087227 119.628102,18.8195597 116.575941,19.8526342 C113.930589,20.6898757 111.321519,21.709748 108.835591,23.0079673 C106.358459,24.373298 104.121014,25.8629497 101.820899,27.3041932 C97.241558,30.2427897 92.8051499,33.0284604 88.1741335,35.6634056 C87.2604643,36.2090978 86.4006698,36.7877955 85.6288337,37.3246862 C82.7899723,39.1950022 80.063258,41.2765539 77.2518837,43.2227828 C75.8445473,44.1909463 74.4185197,45.1294049 72.9408164,45.9853495 L71.8270416,46.6146558 L70.6176119,47.3770847 C69.8952525,47.8292611 69.152003,48.2605339 68.3955597,48.6775044 L66.4318856,49.6522691 L63.784334,50.9130821 L62.293437,51.6117001 C61.6810257,51.9065499 61.0125409,52.2861141 60.2791867,52.7977005 C59.1720088,53.5722314 58.1692816,54.517291 57.2918953,55.4986569 C56.8532022,55.9926403 56.4474935,56.4932249 56.0571775,56.9905089 L55.489845,57.7342346 C55.2259695,58.0642903 55.5437196,57.718832 55.1643985,58.0631902 L50.4674133,61.9611487 C46.6269242,65.1571887 42.9007811,68.5534626 40.3334917,72.8892951 C37.6716468,77.7389145 34.7030466,82.2210718 31.9994214,86.9595724 C30.0148572,90.3558462 28.1897178,93.8896433 26.8758373,97.4586463 C26.1996562,99.2992573 25.7565651,100.847219 25.4311185,102.238954 C25.0034202,103.945342 24.6812721,105.693538 24.4954597,107.456035 C24.4470825,107.935716 24.3932079,108.412097 24.3712183,108.886277 C24.1040443,112.445378 23.5521045,116.079292 23.1288041,119.91234 C22.8077555,122.882842 22.7000063,125.0029 22.7142996,126.648778 C22.687912,127.761066 22.6637234,128.808443 22.7153991,129.994443 C22.751682,131.10123 22.8957141,131.839455 22.9319969,132.34224 C23.0606363,134.347879 23.0254529,136.359019 23.0056622,138.413066 C22.9605835,139.515452 22.9232011,140.80707 22.9308975,142.060182 C22.9440912,143.486023 23.0199555,144.844752 23.1562912,146.116567 C23.2189616,146.753575 23.3102186,147.368579 23.4058735,147.962679 C23.4454548,148.26193 23.5158217,148.551279 23.5674973,148.835127 C23.6356651,149.136578 23.6488589,149.345613 23.7720009,149.777986 C24.2502753,151.57459 24.5867167,153.486713 24.9990223,154.923555 L25.3013797,156.182168 C25.3046782,156.201971 25.3101756,156.221775 25.3167725,156.241578 C24.9902264,156.538628 24.6592825,156.84778 24.3261396,157.166834 C23.2728362,158.179005 22.2272293,159.251687 21.3960212,159.999813 C19.6280548,161.591782 17.9062667,163.506105 16.2559449,165.206993 C15.2499193,166.25877 15.0102323,166.274173 14.0283952,167.635103 C13.4665602,168.44374 13.208182,169.089549 12.6474464,169.876182 C12.3022092,170.369065 11.6161327,171.067683 11.2203193,171.692589 C10.6925682,172.491324 10.0801569,173.77194 9.70853217,174.654289 C9.23575509,175.731371 8.81465365,176.853561 8.46281955,178.021958 L7.56234415,181.2312 L7.07307485,182.357791 C6.43097762,183.882648 5.99448344,185.089552 5.44144421,186.31846 C5.12259456,187.02808 4.85871898,187.50116 4.61683304,187.992943 L4.70479156,187.764104 L4.59264444,188.043551 C4.34526109,188.547436 4.11546945,189.070025 3.87688195,189.889663 C3.36342406,191.280298 2.87855268,192.691837 2.45745125,194.13198 C1.84064209,196.056205 1.33378109,198.03874 1.00943402,200.076284 C0.976449578,200.271017 0.966554244,200.444846 0.954459946,200.595572 C0.834616456,201.217177 0.743359486,201.866287 0.678490074,202.532999 L0.530060062,203.322933 L0.371734717,204.325202 C0.337650789,204.43412 0.299168934,204.584846 0.271681895,204.796082 L0.14194307,205.976581 C0.139744107,205.966679 0.128749291,205.966679 0.126550328,205.96778 L0.0704767683,206.492568 C-0.0042879781,207.223092 -0.0229791647,207.999823 0.030895432,208.742448 C0.0264975057,209.658903 0.091366918,210.623766 0.232100558,211.579828 C0.2892736,212.279546 0.421211387,213.002368 0.609222735,213.674582 C0.714772965,214.023341 0.815925269,214.311589 0.917077573,214.532727 L1.20294278,215.391972 Z" id="path-1"></path>
        <filter x="-4.8%" y="-5.1%" width="109.6%" height="113.8%" filterUnits="objectBoundingBox" id="filter-2">
            <feOffset dx="0" dy="4" in="SourceAlpha" result="shadowOffsetOuter1"></feOffset>
            <feGaussianBlur stdDeviation="4.5" in="shadowOffsetOuter1" result="shadowBlurOuter1"></feGaussianBlur>
            <feColorMatrix values="0 0 0 0 0   0 0 0 0 0   0 0 0 0 0  0 0 0 0.5 0" type="matrix" in="shadowBlurOuter1"></feColorMatrix>
        </filter>
    </defs>
    <g id="Page-1" stroke="none" stroke-width="1" fill="none" fill-rule="evenodd">
        <g id="About-YT---Desktop---Yellow-BG" transform="translate(-597.000000, -4976.000000)">
            <g id="Group-7" transform="translate(583.000000, 4945.913354)">
                <g id="Group-2-Copy" transform="translate(0.000000, -0.000000)">
                    <g id="balloon" transform="translate(182.888384, 143.329959) scale(-1, 1) rotate(10.000000) translate(-182.888384, -143.329959) translate(17.888384, 27.329959)">
                        <g id="Group-5" transform="translate(-0.000000, 0.052966)">
                            <g id="Fill-3">
                                <use fill="black" fill-opacity="1" filter="url(#filter-2)" xlink:href="#path-1"></use>
                                <use fill="#222222" fill-rule="evenodd" xlink:href="#path-1"></use>
                            </g>
                        </g>
                    </g>
                </g>
            </g>
        </g>
    </g>
</svg>