<?xml version="1.0" standalone="no"?>
<!DOCTYPE svg PUBLIC "-//W3C//DTD SVG 20010904//EN"
 "http://www.w3.org/TR/2001/REC-SVG-20010904/DTD/svg10.dtd">
<svg version="1.0" xmlns="http://www.w3.org/2000/svg"
 width="260.000000pt" height="260.000000pt" viewBox="0 0 260.000000 260.000000"
 preserveAspectRatio="xMidYMid meet">
<metadata>
Created by potrace 1.11, written by Peter Selinger 2001-2013
</metadata>
<g transform="translate(0.000000,260.000000) scale(0.100000,-0.100000)"
fill="#000000" stroke="none">
<path d="M0 1300 l0 -1300 1300 0 1300 0 0 1300 0 1300 -1300 0 -1300 0 0
-1300z m1890 460 c25 -25 27 -81 3 -102 -57 -49 -143 -14 -143 58 0 8 11 26
25 39 31 32 86 34 115 5z m-1320 -170 l0 -140 140 0 140 0 0 140 0 140 75 0
75 0 0 -355 0 -355 -75 0 -75 0 0 155 0 155 -140 0 -140 0 0 -155 0 -155 -75
0 -75 0 0 355 0 355 75 0 75 0 0 -140z m948 -42 c77 -36 122 -126 122 -243 l0
-45 -175 0 -175 0 0 -29 c0 -57 69 -111 143 -111 31 0 119 20 160 36 16 6 18
1 15 -51 -3 -58 -3 -58 -43 -72 -22 -8 -74 -17 -115 -20 -143 -11 -243 41
-290 149 -19 45 -22 65 -18 147 4 102 18 142 67 194 68 74 204 94 309 45z
m390 -291 c1 -194 -2 -323 -8 -348 -22 -82 -92 -129 -191 -129 -83 0 -89 5
-89 70 l0 57 48 -5 c39 -3 50 0 67 18 19 21 20 38 23 336 l3 315 72 -3 72 -3
3 -308z m283 -106 c18 -14 24 -29 24 -61 0 -32 -6 -47 -24 -61 -32 -26 -89
-25 -118 3 -30 28 -32 89 -3 118 26 26 89 27 121 1z"/>
<path d="M1341 1454 c-21 -15 -51 -70 -51 -94 0 -13 197 -14 205 0 8 12 -18
71 -38 88 -27 22 -89 26 -116 6z"/>
</g>
</svg>
