<?xml version="1.0" encoding="UTF-8" standalone="no"?>
<svg width="160px" height="52px" viewBox="0 0 160 52" version="1.1" xmlns="http://www.w3.org/2000/svg" xmlns:xlink="http://www.w3.org/1999/xlink">
    <!-- Generator: Sketch 3.6.1 (26313) - http://www.bohemiancoding.com/sketch -->
    <title>oporto-colour-logo</title>
    <desc>Created with Sketch.</desc>
    <defs></defs>
    <g id="Page-2" stroke="none" stroke-width="1" fill="none" fill-rule="evenodd">
        <g id="Home" transform="translate(-541.000000, -1166.000000)">
            <g id="Group-4" transform="translate(539.000000, 1165.318098)">
                <g id="oporto-colour-logo" transform="translate(2.000000, 0.823235)">
                    <g id="Group">
                        <path d="M73.6697744,29.0873857 C71.7630075,29.0873857 70.2171429,27.5770376 70.2171429,25.7166724 C70.2171429,23.8563072 71.7630075,22.3483565 73.6697744,22.3483565 C75.5753383,22.3483565 77.122406,23.8563072 77.122406,25.7166724 C77.122406,27.5782363 75.5753383,29.0873857 73.6697744,29.0873857 L73.6697744,29.0873857 Z M73.6529323,18.3255564 C69.4857143,18.3255564 66.1064662,21.6243484 66.1064662,25.6938973 C66.1064662,29.7634462 69.4869173,33.0622382 73.6541353,33.0622382 C77.8213534,33.0622382 81.1993985,29.7634462 81.1993985,25.6938973 C81.1993985,21.6243484 77.8213534,18.3255564 73.6541353,18.3255564 L73.6529323,18.3255564 Z M88.0144361,22.7439238 L88.0144361,22.7379304 C87.995188,22.7463212 87.9783459,22.7571094 87.9603008,22.7666989 L88.0144361,22.7427251 L88.0144361,22.7439238 Z M86.4481203,18.8793507 L86.4541353,18.8793507 L86.4481203,18.8793507 Z" id="Shape" fill="#ED1C24"></path>
                        <path d="M92.0661654,22.1242017 C92.0661654,21.4817044 92.1142857,20.8715717 92.2009023,20.2938037 C92.2285714,20.1092056 92.2634586,19.9294022 92.2995489,19.7507976 C89.9693233,17.8964258 88.476391,18.3267551 86.4529323,18.878152 C87.1542857,20.0672514 87.684812,21.3642329 88.0132331,22.7379304 C88.7326316,22.3279788 89.2499248,22.3855158 92.0673684,24.6078851 L92.0673684,22.1218043 L92.0661654,22.1242017 Z M92.0661654,27.2150336 L92.0661654,26.8710098 C91.0628571,25.787395 89.8526316,25.5644389 88.3693233,25.2791509 C88.4222556,26.6384642 88.2730827,28.0181551 87.9073684,29.3786671 C88.7615038,29.3307195 89.1945865,29.6184049 90.7079699,33.0035024 C91.0267669,33.7131263 91.5055639,34.2501389 92.0673684,34.6600905 L92.0673684,27.2138349 L92.0661654,27.2150336 Z M88.3633083,25.2779522 L88.3693233,25.2779522 L88.3633083,25.2779522 Z M87.9037594,29.3846605 L87.9061654,29.3798658 C87.8857143,29.3798658 87.8652632,29.3822631 87.846015,29.3834618 L87.9061654,29.3834618 L87.9037594,29.3846605 Z M55.6390977,25.5236835 C55.6390977,26.6096956 55.5284211,27.6393694 55.3118797,28.619897 L55.3118797,28.6222944 C56.632782,29.6291931 57.92,29.5692586 59.524812,29.5093242 C59.1398496,28.1967598 58.9449624,26.8194662 58.9654135,25.4134041 C58.1497744,25.6531419 57.6589474,25.4709412 55.356391,22.5149742 C55.3383459,22.4910005 55.3178947,22.4706228 55.2998496,22.4478477 C55.3996992,22.8889652 55.4778947,23.3372749 55.5332331,23.7963727 C55.6018045,24.3597565 55.6415038,24.9351272 55.6415038,25.5260808 L55.6390977,25.5236835 Z M59.5308271,29.5093242 L59.524812,29.5093242 L59.5308271,29.5093242 Z" id="Shape" fill="#ED1C24"></path>
                        <path d="M58.9654135,25.4086093 L58.9654135,25.4134041 L59.0231579,25.3978211 L58.9654135,25.409808 L58.9654135,25.4086093 Z M74.9533835,11.753145 L74.9557895,11.7471516 L74.9533835,11.753145 Z M79.1530827,12.739666 C79.207218,11.9245575 79.5572932,11.5529639 83.2517293,10.5736351 C87.0796992,9.55954425 87.0724812,4.29010769 87.1615038,3.91252068 C87.2661654,3.48578742 86.9473684,3.23765881 86.7404511,3.79025441 C86.5455639,4.30209458 83.9374436,6.73902919 80.0806015,7.41868581 C76.1912782,8.10433588 75.6932331,9.62427345 74.9557895,11.7495489 C76.3729323,11.8838021 77.7864662,12.2110442 79.1542857,12.7420634 L79.1530827,12.739666 Z" id="Shape" fill="#ED1C24"></path>
                        <path d="M79.1578947,12.7420634 L79.1530827,12.739666 L79.1494737,12.7996004 L79.1590977,12.7420634 L79.1578947,12.7420634 Z M81.5639098,13.9347589 C82.7621053,14.677946 83.8616541,15.5889496 84.8240602,16.6617762 C85.2655639,15.9665366 85.756391,15.7903293 89.5206015,16.5514968 C93.4183459,17.3426315 95.9530827,12.6773342 96.2153383,12.3848541 C96.5112782,12.0528172 96.3476692,11.6932106 95.8953383,12.0899766 C95.4766917,12.4555767 91.9795489,13.4612767 88.2153383,12.3632777 C84.4198496,11.2568878 83.2433083,12.3824567 81.5627068,13.9335602 L81.5639098,13.9347589 Z M81.5590977,13.9407523 L81.5627068,13.9347589 L81.5603008,13.9347589 L81.5590977,13.9407523 Z M84.8288722,16.6665709 L84.8252632,16.6629749 C84.8168421,16.6809552 84.806015,16.6965382 84.795188,16.7145185 L84.8312782,16.6665709 L84.8288722,16.6665709 Z M90.6538346,45.3272233 C90.2207519,44.9712127 88.7374436,41.7623225 89.4027068,38.0679632 C90.076391,34.3400406 88.7578947,33.3499235 86.9329323,31.9270798 C86.3121805,33.1473451 85.5037594,34.2932917 84.5124812,35.3253629 C85.2944361,35.6669892 85.5350376,36.1141002 85.2174436,39.7724988 C84.8890226,43.5603559 90.0511278,45.4470922 90.3903759,45.6628563 C90.7717293,45.9073888 91.1242105,45.7132012 90.6550376,45.3272233 L90.6538346,45.3272233 Z M84.5076692,35.3301576 L84.5112782,35.3265616 L84.4547368,35.3025878 L84.5076692,35.3313563 L84.5076692,35.3301576 Z M86.9293233,31.9210863 L86.9329323,31.9258811 L86.9293233,31.9210863 Z M82.4986466,37.0514749 L82.5010526,37.0574684 L82.4986466,37.0514749 Z M78.6983459,38.9969471 L78.7031579,38.9969471 C78.6911278,38.9801654 78.6790977,38.9645825 78.6646617,38.9489995 L78.6983459,38.9969471 L78.6983459,38.9969471 Z" id="Shape" fill="#ED1C24"></path>
                        <path d="M78.7031579,38.993351 C79.2324812,39.640643 79.2348872,40.141695 77.1873684,43.2343125 C75.0652632,46.438408 78.7512782,50.3820946 78.9485714,50.7213236 C79.1699248,51.1073014 79.5789474,51.0905197 79.3455639,50.5439176 C79.1338346,50.0380709 79.36,46.54629 81.7371429,43.5747401 C84.1335338,40.5780178 83.4381955,39.1192134 82.5010526,37.0574684 C81.3581955,37.8629874 80.0830075,38.5198689 78.7019549,38.9945497 M71.7593985,39.6766037 C71.9181955,40.4797253 71.677594,40.9232402 68.3609023,42.7536382 C64.9251128,44.6499641 66.3037594,49.7611737 66.3157895,50.1495489 C66.3278195,50.5870704 66.7007519,50.7524895 66.7572932,50.1663306 C66.8102256,49.6269206 68.6977444,46.6421851 72.2478195,45.0635118 C75.8291729,43.4716529 75.9145865,41.8773966 76.0757895,39.640643 C74.6706767,39.8480162 73.2174436,39.8659966 71.7569925,39.6766037" id="Shape" fill="#ED1C24"></path>
                        <path d="M71.7521805,39.6766037 L71.7581955,39.6766037 L71.7461654,39.6190666 L71.7509774,39.675405 L71.7521805,39.6766037 Z M76.0757895,39.6334509 L76.0757895,39.6394444 L76.0757895,39.6334509 Z M69.0466165,39.0616763 L69.0430075,39.066471 L69.0466165,39.0616763 Z M65.1861654,37.1737412 L65.1909774,37.1773373 L65.2090226,37.1209989 L65.1849624,37.1737412 L65.1861654,37.1737412 Z M69.0442105,39.0652724 C67.6944361,38.6241548 66.395188,37.9948431 65.1909774,37.1773373 C64.9419549,37.9564851 64.5100752,38.2441704 60.6736842,38.3796223 C56.6977444,38.523465 55.4345865,43.6418667 55.2553383,43.9894865 C55.0544361,44.3802591 55.3034586,44.6919182 55.6403008,44.2004558 C55.9530827,43.7473513 59.0809023,41.9553114 63.0051128,42.1447042 C66.9630075,42.3328984 67.8135338,40.966393 69.0442105,39.0640737 L69.0442105,39.0652724 Z M52.5906767,34.0187919 C53.7094737,34.2633245 54.9509774,34.6840643 56.157594,35.3733104 C59.5717293,37.3151865 60.9996992,36.496482 63.0243609,35.3793039 C62.0463158,34.3843921 61.2042105,33.2456376 60.5389474,31.9870142 C59.9350376,32.5623849 59.4129323,32.6175246 55.9434586,31.0136788 C55.522406,30.8182925 55.0953383,30.7020197 54.6754887,30.64688 C54.5130827,31.0388513 54.3350376,31.417637 54.1413534,31.7820384 C53.7058647,32.6007429 53.1873684,33.3439301 52.5918797,34.0187919 L52.5906767,34.0187919 Z M63.0291729,35.3769065 L63.0243609,35.3793039 L63.0291729,35.3769065 Z" id="Shape" fill="#ED1C24"></path>
                        <path d="M60.5353383,31.9810208 C60.5353383,31.9834181 60.5353383,31.9858155 60.5377444,31.9870142 C60.5521805,31.9750273 60.5666165,31.9594444 60.5810526,31.9450601 L60.5353383,31.9810208 L60.5353383,31.9810208 Z M60.7639098,18.9153114 L60.7639098,18.9201061 L60.8240602,18.932093 L60.7639098,18.9153114 L60.7639098,18.9153114 Z M52.3019549,10.6012049 C52.8108271,10.8481349 55.0544361,13.6290932 55.3335338,17.3737974 C55.6186466,21.1532636 57.1440602,21.8149399 59.2673684,22.7798845 C59.5633083,21.4517372 60.0613534,20.149961 60.7627068,18.9201061 C59.9206015,18.766674 59.5717293,18.3878882 58.9630075,14.7582582 C58.3314286,10.997971 52.8553383,10.3470829 52.475188,10.2152271 C52.0421053,10.0629936 51.7509774,10.335096 52.3019549,10.6012049 L52.3019549,10.6012049 Z M59.2745865,22.7846793 L59.2697744,22.7822819 L59.2745865,22.7846793 Z M62.2496241,16.8152084 L62.246015,16.8104136 L62.2496241,16.8152084 Z M65.4315789,14.0462369 C64.7530827,13.5427876 64.6255639,13.0537225 65.8213534,9.57272983 C67.0604511,5.96707351 62.4890226,2.99192758 62.2123308,2.70663961 C61.8995489,2.3829936 61.5085714,2.49447167 61.8718797,2.97274856 C62.2087218,3.41626346 62.876391,6.86009677 61.3305263,10.2991353 C59.7726316,13.7693398 60.8132331,15.0243671 62.247218,16.8104136 C63.1494737,15.7627595 64.2141353,14.8289808 65.4315789,14.0462369 L65.4315789,14.0462369 Z" id="Shape" fill="#ED1C24"></path>
                        <path d="M65.435188,14.0426409 L65.4303759,14.0462369 L65.4784962,14.0821976 L65.433985,14.0426409 L65.435188,14.0426409 Z M72.0902256,11.7591384 L72.0842105,11.7591384 L72.1082707,11.8130794 L72.0902256,11.7591384 L72.0902256,11.7591384 Z" id="Shape" fill="#ED1C24"></path>
                        <path d="M72.0842105,11.7591384 C71.7293233,11.0135539 71.8556391,10.5268862 74.6189474,7.99525519 C77.4821053,5.37611987 74.883609,0.712021227 74.7753383,0.338030279 C74.6574436,-0.0875042922 74.2544361,-0.165419073 74.3422556,0.419541127 C74.4264662,0.958951147 73.3317293,4.29130638 70.2784962,6.6287498 C67.196391,8.98657094 67.5079699,10.5568534 67.9049624,12.7708319 C69.2162406,12.2506009 70.6201504,11.9053785 72.0830075,11.7603371" id="Shape" fill="#ED1C24"></path>
                        <path id="Shape" fill="#ED1C24" d="M67.9073684,12.7756267 L67.9073684,12.7696332 L67.9049624,12.7696332"></path>
                        <path d="M73.6685714,22.4214765 C71.8039098,22.4214765 70.2953383,23.8958639 70.2953383,25.7154737 C70.2953383,27.5350835 71.8051128,29.0118683 73.6685714,29.0118683 C75.5332331,29.0118683 77.0430075,27.5350835 77.0430075,25.7154737 C77.0430075,23.8958639 75.5320301,22.4214765 73.6685714,22.4214765" id="Shape" fill="#FCC90A"></path>
                        <path d="M19.8760902,28.600718 C19.512782,29.5309006 19.0063158,30.3484064 18.3603008,31.0580303 C17.7106767,31.7652568 16.9287218,32.3166537 16.0144361,32.7086249 C15.0977444,33.1041923 14.1016541,33.2995786 13.0309774,33.2995786 C11.9242105,33.2995786 10.9221053,33.1029936 10.0210526,32.7086249 C9.12120301,32.315455 8.34646617,31.7652568 7.69924812,31.0568316 C7.05203008,30.3472077 6.54676692,29.5297019 6.18345865,28.5995193 C5.82015038,27.6729327 5.63849624,26.6576432 5.63849624,25.5548494 C5.63849624,24.4520556 5.81894737,23.4247791 6.18345865,22.4622319 C6.54676692,21.5032808 7.05203008,20.6761854 7.69924812,19.9857406 C8.34646617,19.2940971 9.12120301,18.751091 10.0210526,18.3555236 C10.9233083,17.9635524 11.9218045,17.7681661 13.0285714,17.7681661 C14.1028571,17.7681661 15.0977444,17.9635524 16.0144361,18.3555236 C16.9287218,18.751091 17.7106767,19.2940971 18.3603008,19.9857406 C19.0063158,20.6773841 19.512782,21.5044795 19.8760902,22.4634306 C20.2369925,23.4259778 20.4198496,24.4556516 20.4198496,25.5560481 C20.4198496,26.6564445 20.2393985,27.6741314 19.8760902,28.600718 M22.3157895,16.6138286 C21.1464662,15.4966505 19.7654135,14.624005 18.1702256,13.9934946 C16.5750376,13.3641829 14.8619549,13.0501264 13.0297744,13.0501264 C11.198797,13.0501264 9.48451128,13.3641829 7.88932331,13.9934946 C6.29413534,14.624005 4.91308271,15.4966505 3.74496241,16.6138286 C2.5756391,17.7310067 1.66015038,19.0531606 0.996090226,20.5790916 C0.333233083,22.1038239 0,23.7628094 0,25.5560481 C0,27.3205182 0.332030075,28.9639207 0.994887218,30.4910504 C1.65894737,32.0169814 2.57443609,33.3391353 3.7437594,34.4551147 C4.91067669,35.5734915 6.29413534,36.4545279 7.8881203,37.0994225 C9.48210526,37.7443172 11.196391,38.0667645 13.0297744,38.0667645 C14.8631579,38.0667645 16.5762406,37.7431185 18.1714286,37.0994225 C19.7654135,36.4545279 21.1476692,35.5734915 22.3169925,34.4551147 C23.4839098,33.340334 24.4006015,32.0169814 25.0646617,30.4910504 C25.7263158,28.9639207 26.0595489,27.3205182 26.0595489,25.5572468 C26.0595489,23.7640081 25.7287218,22.1050226 25.0658647,20.5778929 C24.4018045,19.0519619 23.4863158,17.729808 22.3181955,16.6126299 M49.5109774,28.5791416 C49.1621053,29.5225098 48.6652632,30.3412143 48.0192481,31.0340565 C47.3732331,31.7268987 46.5960902,32.2687061 45.6974436,32.6618761 C44.795188,33.0574434 43.8087218,33.251631 42.7344361,33.251631 C41.6276692,33.251631 40.6291729,33.0562447 39.7269173,32.6618761 C38.8270677,32.2699048 38.0607519,31.7268987 37.4291729,31.0340565 C36.796391,30.342413 36.2983459,29.5237084 35.9374436,28.5791416 C35.5729323,27.6345747 35.3912782,26.6132917 35.3912782,25.5104979 C35.3912782,24.3765382 35.5717293,23.3468644 35.9350376,22.4178804 C36.2983459,21.4900952 36.803609,20.6953644 37.4508271,20.0348868 C38.0980451,19.3732106 38.872782,18.8541782 39.7726316,18.4765912 C40.6748872,18.0990042 41.6613534,17.9096114 42.7320301,17.9096114 C43.8075188,17.9096114 44.795188,18.1085937 45.6950376,18.5017637 C46.5948872,18.8949337 47.3696241,19.4295489 48.0168421,20.1080069 C48.6640602,20.7864648 49.1596992,21.5859903 49.5085714,22.5137756 C49.6372932,22.8554019 49.7323308,23.2090151 49.8129323,23.5686218 C49.8778947,23.8599032 49.9296241,24.1559794 49.9633083,24.458049 C50.0030075,24.8020727 50.0306767,25.1532886 50.0306767,25.5128953 C50.0306767,26.6156891 49.8550376,27.6369721 49.5085714,28.5815389 M55.5115789,23.8311347 C55.3744361,22.6803933 55.0965414,21.5895864 54.6718797,20.5551178 C54.0403008,19.0124052 53.1633083,17.6902513 52.0421053,16.5874575 C50.9233083,15.4882597 49.602406,14.6216076 48.0866165,13.9934946 C46.5708271,13.3629842 44.9106767,13.0489277 43.1121805,13.0489277 C41.1512782,13.0489277 39.3684211,13.3486 37.758797,13.9455471 C36.1467669,14.5448915 34.7729323,15.4175371 33.6348872,16.5658811 C32.4980451,17.7130264 31.6138346,19.1310754 30.9810526,20.812836 C30.3494737,22.4969939 30.0342857,24.4400687 30.0342857,26.6432589 L30.0342857,46.8483596 L35.4357895,46.8483596 L35.4357895,34.4323396 C36.2237594,35.4392383 37.3124812,36.2903075 38.7031579,36.981951 C40.0938346,37.6735945 41.6866165,38.0200156 43.4887218,38.0200156 C45.2246617,38.0200156 46.8282707,37.7131512 48.2971429,37.0994225 C49.7684211,36.4880912 51.047218,35.6298299 52.1347368,34.5270361 C52.1467669,34.5186452 52.153985,34.507857 52.162406,34.4994662 C52.9347368,33.714325 53.5855639,32.8189043 54.1184962,31.8179991 C54.3278195,31.4224317 54.5203008,31.0148775 54.6935338,30.5869455 C54.9425564,29.968422 55.1386466,29.3235274 55.2878195,28.654659 C55.5043609,27.6753301 55.6174436,26.6444576 55.6174436,25.5584455 C55.6174436,24.9686905 55.5789474,24.3957172 55.5091729,23.8323334 M106.995489,13.8736257 C105.74797,13.3222288 104.128722,13.0465304 102.138947,13.0465304 C98.9810526,13.0465304 96.5088722,13.8424598 94.724812,15.4319213 C93.3365414,16.6665709 92.4908271,18.3015826 92.1828571,20.3285656 C92.0950376,20.9039363 92.0481203,21.5152677 92.0481203,22.1577649 L92.0481203,37.8737756 L97.4496241,37.8737756 L97.4496241,23.7160606 C97.4496241,23.18624 97.4857143,22.697175 97.5542857,22.2380771 C97.5759398,22.0942344 97.6,21.9563852 97.6264662,21.8209334 C98.1678195,19.1838177 99.9542857,17.8628625 102.99188,17.8628625 C104.002406,17.8628625 104.904662,17.9731419 105.692632,18.192502 C106.481805,18.4142594 107.145865,18.6480037 107.682406,18.8997284 C107.874887,18.7762635 108.117895,18.4610083 108.418647,17.9575589 C108.719398,17.4541096 108.868571,16.9362759 108.868571,16.3992633 C108.868571,15.267701 108.243008,14.4262213 106.996692,13.8748244 M124.121504,32.874044 C123.331128,33.1569346 122.479398,33.2983799 121.56391,33.2983799 C120.994887,33.2983799 120.449925,33.2348494 119.92782,33.1065897 C119.40812,32.9831247 118.949774,32.7625659 118.556391,32.4473108 C118.159398,32.1332543 117.851429,31.7161105 117.630075,31.1970782 C117.409925,30.6780459 117.299248,30.0103762 117.299248,29.1904729 L117.299248,18.6635867 L126.396391,18.6635867 C126.492632,18.4753925 126.616541,18.1529452 126.775338,17.6962447 C126.931729,17.2407429 127.012331,16.7456844 127.012331,16.2098705 C127.012331,15.3911659 126.795789,14.7690464 126.371128,14.3447105 C125.94406,13.9191759 125.210226,13.707008 124.169624,13.707008 L117.298045,13.707008 L117.298045,7.52177306 C117.141654,7.46183861 116.816842,7.35875137 116.327218,7.21610738 C115.836391,7.07466209 115.308271,7.00393944 114.739248,7.00393944 C113.855038,7.00393944 113.159699,7.20052443 112.654436,7.5936944 C112.149173,7.98926174 111.896541,8.62456688 111.896541,9.50560325 L111.896541,30.2788825 C111.896541,32.6067364 112.606316,34.4862806 114.028271,35.9187139 C115.450226,37.3511472 117.550677,38.0667645 120.329624,38.0667645 C121.308872,38.0667645 122.208722,37.9792602 123.030376,37.8078477 C123.85203,37.6352365 124.594286,37.4218698 125.25594,37.1725425 C125.921203,36.9208179 126.483008,36.6523115 126.94015,36.3694209 C127.397293,36.0853317 127.75218,35.8491899 128.006015,35.6621945 L125.826165,32.0721211 C125.477293,32.3238458 124.909474,32.5911534 124.120301,32.8752427 M148.783158,28.600718 C148.418647,29.5309006 147.913383,30.3484064 147.267368,31.0580303 C146.617744,31.7652568 145.835789,32.3166537 144.921504,32.7086249 C144.004812,33.1041923 143.008722,33.2995786 141.935639,33.2995786 C140.831278,33.2995786 139.82797,33.1029936 138.92812,32.7086249 C138.028271,32.315455 137.253534,31.7652568 136.606316,31.0568316 C135.959098,30.3484064 135.453835,29.5297019 135.090526,28.5995193 C134.727218,27.6729327 134.545564,26.6576432 134.545564,25.5548494 C134.545564,24.4544529 134.728421,23.4247791 135.091729,22.4622319 C135.455038,21.5032808 135.960301,20.6761854 136.607519,19.9857406 C137.254737,19.2952958 138.029474,18.751091 138.929323,18.3555236 C139.829173,17.9635524 140.832481,17.7681661 141.936842,17.7681661 C143.011128,17.7681661 144.006015,17.9635524 144.922707,18.3555236 C145.836992,18.751091 146.618947,19.2940971 147.268571,19.9857406 C147.914586,20.6773841 148.41985,21.5044795 148.784361,22.4634306 C149.145263,23.4259778 149.329323,24.4556516 149.329323,25.5560481 C149.329323,26.6588419 149.145263,27.6741314 148.783158,28.600718 M153.970526,20.5766942 C153.306466,19.0507632 152.390977,17.7286093 151.222857,16.6114312 C150.053534,15.4942532 148.672481,14.6216076 147.07609,13.9910972 C145.482105,13.3617855 143.76782,13.047729 141.935639,13.047729 C140.104662,13.047729 138.390376,13.3617855 136.795188,13.9910972 C135.201203,14.6216076 133.82015,15.4942532 132.650827,16.6114312 C131.48391,17.7286093 130.566015,19.0507632 129.903158,20.5766942 C129.241504,22.1038239 128.910677,23.7652068 128.910677,25.5572468 C128.910677,27.3217169 129.241504,28.9651194 129.904361,30.4922491 C130.568421,32.0181801 131.485113,33.340334 132.653233,34.4563134 C133.822556,35.5746902 135.203609,36.4557265 136.798797,37.1006212 C138.395188,37.7455158 140.109474,38.0679632 141.940451,38.0679632 C143.772632,38.0679632 145.486917,37.7443172 147.080902,37.1006212 C148.67609,36.4557265 150.058346,35.5746902 151.227669,34.4563134 C152.394586,33.3415327 153.311278,32.0181801 153.975338,30.4922491 C154.639398,28.9651194 154.970226,27.3217169 154.970226,25.5584455 C154.970226,23.7664055 154.639398,22.1062213 153.975338,20.5790916 M155.424962,35.6286312 C155.424962,35.906727 155.475489,36.1680412 155.577744,36.4125737 C155.678797,36.6571063 155.818346,36.8680755 155.992782,37.0502763 C156.166015,37.2300796 156.371729,37.3715249 156.608722,37.4758108 C156.844511,37.5788981 157.098346,37.6316404 157.366617,37.6316404 C157.634887,37.6316404 157.891128,37.5788981 158.12812,37.4758108 C158.36391,37.3715249 158.569624,37.2300796 158.74406,37.0490776 C158.919699,36.8668769 159.056842,36.6535102 159.159098,36.4101764 C159.261353,36.1644451 159.31188,35.9043296 159.31188,35.6262338 C159.31188,35.348138 159.26015,35.0868238 159.157895,34.8422912 C159.055639,34.59656 158.917293,34.3843921 158.742857,34.20339 C158.568421,34.0235867 158.362707,33.879744 158.126917,33.7766568 C157.889925,33.6747682 157.63609,33.6232246 157.366617,33.6232246 C157.097143,33.6232246 156.843308,33.6747682 156.608722,33.7790542 C156.370526,33.8821414 156.163609,34.0235867 155.990376,34.2045887 C155.813534,34.3843921 155.675188,34.5977587 155.574135,34.8422912 C155.47188,35.0856251 155.421353,35.3457406 155.421353,35.6250351 M154.970226,35.6250351 C154.970226,35.294197 155.032782,34.9849352 155.159098,34.6960512 C155.284211,34.4083658 155.455038,34.1566412 155.671579,33.9408772 C155.88812,33.7227158 156.140752,33.552502 156.43188,33.4254409 C156.723008,33.2983799 157.033383,33.2384455 157.364211,33.2384455 C157.695038,33.2384455 158.006617,33.3007773 158.296541,33.4266396 C158.585263,33.5513033 158.837895,33.7215171 159.054436,33.9384798 C159.273383,34.1542438 159.444211,34.4059685 159.571729,34.6936538 C159.699248,34.9813392 159.759398,35.2929983 159.759398,35.6238364 C159.759398,35.9546746 159.696842,36.2639363 159.570526,36.5528204 C159.444211,36.8417044 159.273383,37.0922304 159.055639,37.3079944 C158.839098,37.5261558 158.586466,37.6963696 158.295338,37.8234306 C158.006617,37.9480943 157.693835,38.0104261 157.363008,38.0104261 C157.03218,38.0104261 156.720602,37.9480943 156.430677,37.8222319 C156.140752,37.6963696 155.889323,37.5261558 155.670376,37.3091931 C155.453835,37.0934291 155.283008,36.8417044 155.156692,36.5516217 C155.029173,36.2639363 154.966617,35.9522772 154.966617,35.6226377" id="Shape" fill="#252525"></path>
                        <path d="M157.203008,34.5893679 C157.52782,34.5893679 157.753985,34.6349181 157.876692,34.7260184 C157.994586,34.8171188 158.053534,34.9333916 158.053534,35.0808303 C158.053534,35.2462494 157.993383,35.3709131 157.875489,35.4608147 C157.755188,35.5519151 157.545865,35.598664 157.254737,35.598664 C157.126015,35.598664 157.022556,35.5950679 156.941955,35.5890744 C156.874586,35.583081 156.818045,35.5770876 156.773534,35.5698954 L156.773534,34.6109443 L156.913083,34.5989574 C156.985263,34.5917653 157.081504,34.5893679 157.201805,34.5893679 L157.203008,34.5893679 Z M158.626165,36.9687654 C158.539549,36.8057437 158.437293,36.6211456 158.318195,36.4101764 C158.205113,36.2123927 158.087218,36.0265959 157.969323,35.8623755 C158.029474,35.8384017 158.087218,35.8048385 158.141353,35.7664804 C158.206316,35.7185329 158.26406,35.6621945 158.315789,35.598664 C158.366316,35.5351334 158.408421,35.459616 158.439699,35.3745091 C158.470977,35.2906009 158.48782,35.1923084 158.48782,35.082029 C158.48782,34.9238021 158.455338,34.7871516 158.391579,34.6744748 C158.331429,34.5641954 158.241203,34.4730951 158.126917,34.4047698 C158.015038,34.3376432 157.880301,34.288497 157.726316,34.257331 C157.573534,34.2273638 157.406316,34.2117809 157.229474,34.2117809 C157.051429,34.2117809 156.908271,34.2117809 156.8,34.2201717 C156.68812,34.2261651 156.617143,34.234556 156.583459,34.2441455 C156.441504,34.2717153 156.366917,34.3520275 156.366917,34.4814859 L156.366917,37.0071235 L156.77594,37.0071235 L156.77594,35.957072 C156.82406,35.9642641 156.884211,35.9690588 156.949173,35.9726549 C157.115188,35.9810457 157.245113,35.979847 157.388271,35.9750523 C157.453233,35.9750523 157.501353,35.9702575 157.532632,35.9666615 C157.571128,36.0170064 157.616842,36.0865304 157.673383,36.1704386 C157.733534,36.2627376 157.793684,36.3598314 157.853835,36.4629187 L158.025865,36.7625909 L158.15218,36.9903418 L158.159398,37.0047261 L158.645414,37.0047261 L158.626165,36.9687654 L158.626165,36.9687654 Z M73.6962406,32.9351771 C69.6228571,32.9351771 66.3218045,29.7107039 66.3218045,25.7310567 C66.3218045,21.7514094 69.6228571,18.5293335 73.6962406,18.5293335 C77.7720301,18.5293335 81.0742857,21.7538068 81.0742857,25.733454 C81.0742857,29.7131013 77.7720301,32.9351771 73.6974436,32.9351771 L73.6962406,32.9351771 Z M73.6974436,13.0189605 C66.5082707,13.0189605 60.6809023,18.7127329 60.6809023,25.7322553 C60.6809023,32.7517777 66.5058647,38.4419541 73.6962406,38.4419541 C80.8866165,38.4419541 86.712782,32.7505791 86.712782,25.7310567 C86.712782,18.7103356 80.8854135,13.0189605 73.6962406,13.0189605 L73.6974436,13.0189605 Z" id="Shape" fill="#252525"></path>
                    </g>
                </g>
            </g>
        </g>
    </g>
</svg>
