<?xml version="1.0" encoding="UTF-8" standalone="no"?>
<svg width="144px" height="26px" viewBox="0 0 144 26" version="1.1" xmlns="http://www.w3.org/2000/svg" xmlns:xlink="http://www.w3.org/1999/xlink">
    <!-- Generator: Sketch 3.6.1 (26313) - http://www.bohemiancoding.com/sketch -->
    <title>Logo</title>
    <desc>Created with Sketch.</desc>
    <defs>
        <path id="path-1" d="M0,25.6945801 L145.732385,25.6945801 L145.732385,0.420748749 L0,0.420748749"></path>
    </defs>
    <g id="Page-2" stroke="none" stroke-width="1" fill="none" fill-rule="evenodd">
        <g id="Home" transform="translate(-505.000000, -4130.000000)">
            <g id="Logo" transform="translate(505.314453, 4129.480469)">
                <path d="M10.9990463,6.93405061 C8.95970555,6.93405061 8.76974485,9.12437541 8.16637817,9.20372588 C7.84247908,9.24529041 7.90494073,8.02417489 7.86952433,7.75085661 C7.80448694,7.25712037 7.50183769,6.77094132 6.69369981,6.77094132 C6.00018229,6.77094132 5.22939261,7.07133952 3.21065775,7.80690575 C1.16294583,8.55695659 0,9.11681822 0,10.3530481 C0,11.0350843 0.562154876,11.326036 0.906659869,11.3990888 C1.35548226,11.4948132 2.39221691,11.6339914 2.39221691,12.3575921 L2.39221691,18.6489505 C2.39221691,19.5432177 2.39221691,21.501159 1.30332356,21.9117662 C0.775297217,22.1195888 0.239543659,22.2908851 0.239543659,23.2197893 C0.239543659,24.6266857 0.6967372,25.0045451 2.13721882,25.0045451 C3.89451625,25.0045451 8.84057766,25.0058046 10.2694685,25.0058046 C11.4581717,25.0058046 11.5882464,24.0668241 11.5882464,23.4603598 C11.5882464,22.5453104 11.2353703,22.2235001 10.3242029,21.9117662 C8.601034,21.329233 8.17796899,20.6427884 8.17796899,18.9575357 L8.17796899,12.9798005 C8.17796899,12.8097638 8.18054473,12.5509301 8.74463141,12.5509301 C10.5708298,12.5509301 9.33576334,15.2708878 12.0988866,15.2708878 C13.8317145,15.2708878 14.0905762,12.9105263 14.0905762,11.7429408 C14.0905762,9.97015063 13.4582324,6.93405061 10.9990463,6.93405061" id="Fill-1" fill="#FFFFFF"></path>
                <g id="Group-8" transform="translate(0.000000, 0.140082)">
                    <mask id="mask-2" fill="white">
                        <use xlink:href="#path-1"></use>
                    </mask>
                    <g id="Clip-3"></g>
                    <path d="M137.538746,12.7624979 C139.361268,12.7624979 138.129973,15.5368702 140.886249,15.5368702 C142.616231,15.5368702 142.874572,13.1292881 142.874572,11.9383443 C142.874572,10.1300882 142.242216,7.03324893 139.78798,7.03324893 C137.754672,7.03324893 137.564451,9.26739267 136.961014,9.3483306 C136.638409,9.39072665 136.702031,8.14518188 136.666043,7.86639569 C136.600494,7.36278192 136.299096,6.86687653 135.490015,6.86687653 C134.800464,6.86687653 134.031868,7.17328439 132.016554,7.92356613 C129.971679,8.68862225 128.811717,9.2596843 128.811717,10.5206458 C128.811717,11.2163266 129.37274,11.513099 129.717194,11.5876133 C130.165113,11.6852527 131.197833,11.8272152 131.197833,12.565292 L131.197833,18.9825134 C131.197833,19.894671 131.197833,21.8917822 130.112417,22.3106039 C129.586096,22.5225842 129.051421,22.6973073 129.051421,23.644795 C129.051421,25.0798372 129.505766,25.465256 130.945919,25.465256 C132.698394,25.465256 137.637069,25.4665407 139.060513,25.4665407 C140.247466,25.4665407 140.375994,24.5087752 140.375994,23.8901782 C140.375994,22.9568226 140.025756,22.6285743 139.114495,22.3106039 C137.39608,21.7164167 136.975795,21.0162394 136.975795,19.297272 L136.975795,13.1999482 C136.975795,13.0265097 136.979008,12.7624979 137.538746,12.7624979" id="Fill-2" fill="#FFFFFF" mask="url(#mask-2)"></path>
                    <path d="M121.180386,13.7491698 C120.432998,13.9778516 120.179156,13.5583875 120.179156,12.5781393 C120.179156,11.636433 120.749819,10.564969 121.573681,10.4480586 C122.615398,10.2990301 123.310733,11.410963 123.310733,12.02956 C123.310733,13.3881609 122.205395,13.4395501 121.180386,13.7491698 L121.180386,13.7491698 Z M129.000653,13.9071915 C129.000653,11.8085866 126.92236,7.02168637 122.653956,7.02168637 C117.633665,7.02168637 114.789348,11.9499068 114.789348,17.2295007 C114.789348,21.9483103 116.728831,25.2905328 121.464433,25.5995101 C124.485475,25.7973584 127.559857,24.614123 128.440915,21.1729763 C128.90747,19.3538001 128.539881,18.9632425 128.090034,19.0127045 C127.325937,19.0942848 126.334989,21.096535 124.266978,21.096535 C121.859655,21.096535 120.961247,19.3261784 120.716402,17.298876 C120.716402,17.298876 124.757954,16.1259185 127.163349,15.4180328 C128.566229,15.0062771 129.000653,14.6491225 129.000653,13.9071915 L129.000653,13.9071915 Z" id="Fill-4" fill="#FFFFFF" mask="url(#mask-2)"></path>
                    <path d="M60.7363934,7.03324893 C58.7037283,7.03324893 58.5109368,9.26739267 57.9074994,9.3483306 C57.5874655,9.39072665 57.6453029,8.14518188 57.6112431,7.86639569 C57.5469793,7.36278192 57.2449393,6.86687653 56.4390708,6.86687653 C55.7450213,6.86687653 54.9783538,7.17328439 52.9643252,7.92356613 C50.9181647,8.68862225 49.7601304,9.2596843 49.7601304,10.5206458 C49.7601304,11.2163266 50.3211536,11.513099 50.6662504,11.5876133 C51.1109562,11.6852527 52.1462466,11.8272152 52.1462466,12.565292 L52.1462466,18.9825134 C52.1462466,19.894671 52.1462466,21.8917822 51.0589025,22.3106039 C50.5338669,22.5225842 49.9979065,22.6973073 49.9979065,23.644795 C49.9979065,25.0798372 50.4535371,25.465256 51.8911191,25.465256 C53.6429513,25.465256 58.5822697,25.4665407 60.0076415,25.4665407 C61.1958799,25.4665407 61.3237649,24.5087752 61.3237649,23.8901782 C61.3237649,22.9568226 60.9728843,22.6285743 60.0603379,22.3106039 C58.3432082,21.7164167 57.9216374,21.0162394 57.9216374,19.297272 L57.9216374,13.1999482 C57.9216374,13.0265097 57.9248506,12.7624979 58.4852313,12.7624979 C60.3090389,12.7624979 59.0783865,15.5368702 61.8346624,15.5368702 C63.5614316,15.5368702 63.8210575,13.1292881 63.8210575,11.9383443 C63.8210575,10.1300882 63.1912719,7.03324893 60.7363934,7.03324893" id="Fill-5" fill="#FFFFFF" mask="url(#mask-2)"></path>
                    <path d="M37.154779,21.824334 C35.3759561,21.824334 34.8914068,17.5294849 34.8914068,15.4019737 C34.8914068,13.9084762 35.4048748,10.8797276 37.0930858,10.8797276 C38.018485,10.8797276 37.8738914,12.2749433 37.8738914,15.8207953 C37.8738914,20.0173626 38.018485,21.824334 37.154779,21.824334 L37.154779,21.824334 Z M44.9699041,21.4813113 C43.6428559,21.0624897 43.6820568,19.667274 43.6820568,16.4830731 C43.6820568,16.4830731 43.6942669,3.74626978 43.6942669,1.33419107 C43.6942669,0.246025604 42.6223462,0.367432495 42.0086265,0.517103424 C38.0634697,1.48514673 35.4858472,1.99261469 35.4858472,3.26256931 C35.4858472,3.82142642 35.9781082,4.07772986 36.5378462,4.24795645 C37.0468158,4.40340866 37.8706782,4.48306186 37.8706782,6.24892188 C37.8706782,7.73535333 37.6611781,8.02891391 37.1226471,7.76939865 C36.778193,7.6055957 36.6258877,7.04095731 35.0019406,7.04095731 C30.5349614,7.04095731 28.6224696,11.9865216 28.6224696,16.9789785 C28.6224696,22.0035536 30.5735197,25.6329131 34.2616212,25.6329131 C36.8662344,25.6329131 37.8648944,23.9107339 37.8648944,23.9107339 C37.8648944,24.8113289 38.0904605,25.8789387 39.3847341,25.5815239 C40.4740061,25.3310018 43.7668851,24.7008422 44.9499823,24.1098669 C46.2776731,23.4488738 45.8213999,21.7498197 44.9699041,21.4813113 L44.9699041,21.4813113 Z" id="Fill-6" fill="#FFFFFF" mask="url(#mask-2)"></path>
                    <path d="M20.4551788,13.7491698 C19.7058625,13.9778516 19.4533056,13.5583875 19.4533056,12.5781393 C19.4533056,11.636433 20.0220405,10.564969 20.8471882,10.4480586 C21.8876197,10.2990301 22.5855249,11.410963 22.5855249,12.02956 C22.5855249,13.3881609 21.480187,13.4395501 20.4551788,13.7491698 L20.4551788,13.7491698 Z M28.2754449,13.9071915 C28.2754449,11.8085866 26.1958672,7.02168637 21.9274633,7.02168637 C16.9071724,7.02168637 14.0622125,11.9499068 14.0622125,17.2295007 C14.0622125,21.9483103 16.0010524,25.2905328 20.7385823,25.5995101 C23.7589826,25.7973584 26.8327218,24.614123 27.7118511,21.1729763 C28.1796918,19.3538001 27.8159585,18.9632425 27.3596853,19.0127045 C26.5981588,19.0942848 25.609781,21.096535 23.5404855,21.096535 C21.1344475,21.096535 20.2341112,19.3261784 19.9899086,17.298876 C19.9899086,17.298876 24.0295333,16.1259185 26.4374992,15.4180328 C27.8390935,15.0062771 28.2754449,14.6491225 28.2754449,13.9071915 L28.2754449,13.9071915 Z" id="Fill-7" fill="#FFFFFF" mask="url(#mask-2)"></path>
                </g>
                <g id="Group-13" transform="translate(92.003174, 4.284369)" fill="#FFFFFF">
                    <path d="M21.0381978,17.5053237 C20.2117649,17.5053237 19.6468858,16.5822459 19.6468858,14.3146992 L19.6468858,7.22171039 L20.8017069,7.22171039 C22.2450727,7.22171039 22.8240898,7.35660693 22.8240898,6.53951929 C22.8240898,5.92927301 22.8285883,5.37234299 22.8285883,4.67216568 C22.8285883,4.16919427 22.8562217,3.66558051 22.1248993,3.66558051 C21.5625907,3.66558051 20.5999185,3.66365341 19.982343,3.66365341 C19.59676,3.66365341 19.6468858,3.13948398 19.6468858,1.35049884 C19.6468858,-0.7641651 18.5017043,0.321430908 15.2191075,2.75406528 C13.4190775,4.09018344 12.1048821,4.89056961 12.1048821,5.87531439 C12.1048821,7.09966113 13.5032631,6.89538922 13.5032631,7.92124533 L13.5032631,16.529572 C13.5032631,20.3850438 16.0095527,21.4777058 18.1264035,21.4777058 C19.3673381,21.4777058 23.1775409,21.0293354 23.1775409,18.2960744 C23.1775409,16.859105 21.6885478,17.5053237 21.0381978,17.5053237" id="Fill-10"></path>
                    <path d="M5.51334049,7.11186606 C5.51334049,6.52410254 6.06408156,6.30184442 6.60582569,6.42582077 C8.42320695,6.84528479 9.08640973,8.85267386 10.4141006,8.85267386 C11.1621316,8.85267386 11.621618,8.30024039 11.621618,7.23070349 C11.621618,6.06416956 10.9262833,2.79389188 9.88713712,2.79389188 C9.52404645,2.79389188 9.3421798,3.28979727 8.90839891,3.28979727 C8.10188778,3.28979727 7.94701193,2.88061108 5.95611831,2.88061108 C2.75706459,2.88061108 0.120962065,5.57404544 0.406936132,8.92590341 C0.783522207,13.4076805 7.7889229,14.2010007 7.47274483,16.8931503 C7.36928005,17.7841099 6.34941299,18.1065769 5.05321143,17.2721454 C2.42610584,15.5705218 2.63946177,14.2812963 1.44158388,14.1431879 C-0.798010781,13.884315 1.22372948,20.6567639 2.15684037,21.1777216 C2.81940051,21.5528624 3.52437478,21.0171304 3.90867252,20.9631718 C4.29168498,20.9092132 6.27358166,21.7886102 8.30945997,21.3158299 C9.89998989,20.9432585 12.7867214,19.5679561 12.417847,14.5305337 C12.0072011,8.91498322 5.51334049,9.18349158 5.51334049,7.11186606" id="Fill-12"></path>
                </g>
                <path d="M85.2342193,21.6450271 C83.9802524,21.7829601 83.4616606,19.2277362 83.1092258,16.0489798 C82.7554929,12.8714831 82.7009726,10.269022 83.9555885,10.1342382 C85.1933291,10.000714 85.7294453,12.5502694 86.0831782,15.7290258 C86.435613,18.9065225 86.4719598,21.5096135 85.2342193,21.6450271 L85.2342193,21.6450271 Z M71.871554,21.6450271 C70.6169381,21.7829601 70.0989953,19.2277362 69.7459114,16.0489798 C69.3915295,12.8714831 69.335062,10.269022 70.5929232,10.1342382 C71.8300147,10.000714 72.366131,12.5502694 72.7166186,15.7290258 C73.0729477,18.9065225 73.1086455,21.5096135 71.871554,21.6450271 L71.871554,21.6450271 Z M84.5936058,6.77094132 C81.0614694,6.77094132 78.9299854,8.62957221 77.9129222,11.3794138 C76.895859,8.62957221 74.764375,6.77094132 71.2296424,6.77094132 C65.9892033,6.77094132 63.8220215,10.8528752 63.8220215,15.8877431 C63.8220215,20.9213514 65.9892033,25.0058046 71.2296424,25.0058046 C74.764375,25.0058046 76.895859,23.1471737 77.9129222,20.3948128 C78.9299854,23.1471737 81.0614694,25.0058046 84.5936058,25.0058046 C89.8372901,25.0058046 92.0031738,20.9213514 92.0031738,15.8877431 C92.0031738,10.8528752 89.8372901,6.77094132 84.5936058,6.77094132 L84.5936058,6.77094132 Z" id="Fill-14" fill="#FFFFFF"></path>
            </g>
        </g>
    </g>
</svg>