<?xml version="1.0" encoding="UTF-8" standalone="no"?>
<svg width="173px" height="31px" viewBox="0 0 173 31" version="1.1" xmlns="http://www.w3.org/2000/svg" xmlns:xlink="http://www.w3.org/1999/xlink">
    <!-- Generator: Sketch 3.6.1 (26313) - http://www.bohemiancoding.com/sketch -->
    <title>LOGO</title>
    <desc>Created with Sketch.</desc>
    <defs>
        <path id="path-1" d="M0,31 L175.823225,31 L175.823225,0.507625 L0,0.507625"></path>
    </defs>
    <g id="Page-2" stroke="none" stroke-width="1" fill="none" fill-rule="evenodd">
        <g id="Home" transform="translate(-151.000000, -1174.000000)">
            <g id="LOGO" transform="translate(151.000000, 1174.000000)">
                <path d="M13.2701307,8.19678812 C10.8097066,8.19678812 10.5805228,10.8393714 9.85257289,10.9351062 C9.46179508,10.985253 9.53715383,9.51200138 9.49442464,9.18224832 C9.41595832,8.58656536 9.05081802,8 8.07581574,8 C7.23910063,8 6.30915821,8.36242445 3.87359474,9.24987049 C1.40307102,10.1547919 0,10.8302538 0,12.3217406 C0,13.1446037 0.678228681,13.4956312 1.09386711,13.5837679 C1.6353624,13.6992575 2.88616214,13.8671732 2.88616214,14.740183 L2.88616214,22.3305819 C2.88616214,23.4094975 2.88616214,25.7717147 1.57243396,26.2671041 C0.935380678,26.517838 0.289004661,26.7245035 0.289004661,27.8452081 C0.289004661,29.5426006 0.84059958,29.9984804 2.57851202,29.9984804 C4.69865643,29.9984804 10.6659812,30 12.3899095,30 C13.8240563,30 13.9809889,28.8671387 13.9809889,28.1354516 C13.9809889,27.0314626 13.5552509,26.643205 12.4559455,26.2671041 C10.3769765,25.5642894 9.86655699,24.7361078 9.86655699,22.7028838 L9.86655699,15.4908651 C9.86655699,15.2857192 9.86966456,14.9734415 10.5502239,14.9734415 C12.753496,14.9734415 11.2634129,18.2550164 14.5970661,18.2550164 C16.6876885,18.2550164 17,15.4072872 17,13.9986185 C17,11.8597824 16.2370898,8.19678812 13.2701307,8.19678812" id="Fill-1" fill="#B21930"></path>
                <g id="Group-8">
                    <mask id="mask-2" fill="white">
                        <use xlink:href="#path-1"></use>
                    </mask>
                    <g id="Clip-3"></g>
                    <path d="M165.937762,15.3977 C168.136599,15.3977 166.651066,18.744925 169.976458,18.744925 C172.063648,18.744925 172.37533,15.840225 172.37533,14.403375 C172.37533,12.22175 171.612405,8.485475 168.651419,8.485475 C166.198273,8.485475 165.968775,11.180925 165.24074,11.278575 C164.851524,11.329725 164.928282,9.827 164.884863,9.49065 C164.80578,8.88305 164.44215,8.28475 163.466009,8.28475 C162.634079,8.28475 161.706784,8.654425 159.275348,9.559625 C156.808247,10.48265 155.408775,11.171625 155.408775,12.69295 C155.408775,13.532275 156.085639,13.890325 156.501216,13.980225 C157.041621,14.098025 158.287577,14.2693 158.287577,15.159775 L158.287577,22.902025 C158.287577,24.002525 158.287577,26.412 156.978044,26.9173 C156.343048,27.17305 155.697974,27.38385 155.697974,28.526975 C155.697974,30.258325 156.246132,30.723325 157.983648,30.723325 C160.097974,30.723325 166.056388,30.724875 167.773744,30.724875 C169.20578,30.724875 169.360846,29.56935 169.360846,28.823025 C169.360846,27.69695 168.938291,27.300925 167.838872,26.9173 C165.765639,26.200425 165.258573,25.355675 165.258573,23.281775 L165.258573,15.925475 C165.258573,15.716225 165.262449,15.3977 165.937762,15.3977" id="Fill-2" fill="#B21930" mask="url(#mask-2)"></path>
                    <path d="M146.201727,16.5881 C145.300018,16.864 144.993762,16.357925 144.993762,15.175275 C144.993762,14.039125 145.682256,12.746425 146.676229,12.605375 C147.93304,12.425575 148.771947,13.7671 148.771947,14.513425 C148.771947,16.15255 147.438379,16.21455 146.201727,16.5881 L146.201727,16.5881 Z M155.636722,16.77875 C155.636722,14.246825 153.129304,8.471525 147.979559,8.471525 C141.922678,8.471525 138.491066,14.417325 138.491066,20.78705 C138.491066,26.4802 140.831013,30.512525 146.544423,30.8853 C150.189251,31.124 153.898432,29.69645 154.96141,25.544775 C155.5243,23.349975 155.080811,22.878775 154.538079,22.93845 C153.616211,23.036875 152.420652,25.45255 149.925639,25.45255 C147.021251,25.45255 145.937339,23.31665 145.641938,20.87075 C145.641938,20.87075 150.517991,19.4556 153.420053,18.60155 C155.112599,18.104775 155.636722,17.673875 155.636722,16.77875 L155.636722,16.77875 Z" id="Fill-4" fill="#B21930" mask="url(#mask-2)"></path>
                    <path d="M73.2772511,8.485475 C70.8248811,8.485475 70.5922819,11.180925 69.8642467,11.278575 C69.4781322,11.329725 69.5479119,9.827 69.5068194,9.49065 C69.4292863,8.88305 69.0648811,8.28475 68.0926167,8.28475 C67.2552599,8.28475 66.3302907,8.654425 63.9004053,9.559625 C61.4317533,10.48265 60.0346079,11.171625 60.0346079,12.69295 C60.0346079,13.532275 60.7114714,13.890325 61.1278238,13.980225 C61.6643524,14.098025 62.9134097,14.2693 62.9134097,15.159775 L62.9134097,22.902025 C62.9134097,24.002525 62.9134097,26.412 61.6015507,26.9173 C60.9681057,27.17305 60.3214802,27.38385 60.3214802,28.526975 C60.3214802,30.258325 60.8711894,30.723325 62.6056035,30.723325 C64.7191542,30.723325 70.6783436,30.724875 72.3980264,30.724875 C73.8316123,30.724875 73.9859031,29.56935 73.9859031,28.823025 C73.9859031,27.69695 73.5625727,27.300925 72.4616035,26.9173 C70.3899207,26.200425 69.881304,25.355675 69.881304,23.281775 L69.881304,15.925475 C69.881304,15.716225 69.8851806,15.3977 70.5612687,15.3977 C72.7616564,15.3977 71.2768987,18.744925 74.6022907,18.744925 C76.6856035,18.744925 76.998837,15.840225 76.998837,14.403375 C76.998837,12.22175 76.2390132,8.485475 73.2772511,8.485475" id="Fill-5" fill="#B21930" mask="url(#mask-2)"></path>
                    <path d="M44.8265022,26.330625 C42.6803877,26.330625 42.0957885,21.148975 42.0957885,18.582175 C42.0957885,16.7803 42.7152775,13.126175 44.7520705,13.126175 C45.8685463,13.126175 45.6940969,14.809475 45.6940969,19.087475 C45.6940969,24.15055 45.8685463,26.330625 44.8265022,26.330625 L44.8265022,26.330625 Z M54.2552952,25.916775 C52.6542379,25.411475 52.701533,23.728175 52.701533,19.8865 C52.701533,19.8865 52.7162643,4.5198 52.7162643,1.609675 C52.7162643,0.296825 51.4230132,0.4433 50.6825727,0.623875 C45.9228194,1.7918 42.8129692,2.40405 42.8129692,3.936225 C42.8129692,4.610475 43.4068722,4.9197 44.082185,5.125075 C44.6962467,5.312625 45.6902203,5.408725 45.6902203,7.5392 C45.6902203,9.33255 45.4374626,9.686725 44.7877357,9.373625 C44.3721586,9.176 44.1884053,8.494775 42.2291454,8.494775 C36.8398238,8.494775 34.5324405,14.4615 34.5324405,20.4848 C34.5324405,26.54685 36.8863436,30.9256 41.3359648,30.9256 C44.4783789,30.9256 45.6832423,28.847825 45.6832423,28.847825 C45.6832423,29.934375 45.9553833,31.222425 47.5168987,30.8636 C48.8310837,30.56135 52.8038767,29.801075 54.2312599,29.088075 C55.8330925,28.2906 55.2826079,26.240725 54.2552952,25.916775 L54.2552952,25.916775 Z" id="Fill-6" fill="#B21930" mask="url(#mask-2)"></path>
                    <path d="M24.6787665,16.5881 C23.7747313,16.864 23.4700264,16.357925 23.4700264,15.175275 C23.4700264,14.039125 24.1561938,12.746425 25.1517181,12.605375 C26.406978,12.425575 27.2489868,13.7671 27.2489868,14.513425 C27.2489868,16.15255 25.9154185,16.21455 24.6787665,16.5881 L24.6787665,16.5881 Z M34.1137621,16.77875 C34.1137621,14.246825 31.604793,8.471525 26.4550485,8.471525 C20.3981674,8.471525 16.9657797,14.417325 16.9657797,20.78705 C16.9657797,26.4802 19.3049515,30.512525 25.0206872,30.8853 C28.6647401,31.124 32.3731454,29.69645 33.4337974,25.544775 C33.9982379,23.349975 33.5594009,22.878775 33.0089163,22.93845 C32.0901498,23.036875 30.8976916,25.45255 28.4011278,25.45255 C25.4982907,25.45255 24.4120529,23.31665 24.1174273,20.87075 C24.1174273,20.87075 28.9911542,19.4556 31.8963172,18.60155 C33.5873128,18.104775 34.1137621,17.673875 34.1137621,16.77875 L34.1137621,16.77875 Z" id="Fill-7" fill="#B21930" mask="url(#mask-2)"></path>
                </g>
                <g id="Group-13" transform="translate(111.000000, 5.000000)" fill="#B21930">
                    <path d="M25.3821674,21.119825 C24.3850925,21.119825 23.7035771,20.00615 23.7035771,17.2704 L23.7035771,8.71285 L25.0968458,8.71285 C26.8382379,8.71285 27.5368106,8.8756 27.5368106,7.8898 C27.5368106,7.15355 27.5422379,6.481625 27.5422379,5.636875 C27.5422379,5.03005 27.5755771,4.42245 26.6932511,4.42245 C26.014837,4.42245 24.8533921,4.420125 24.1082996,4.420125 C23.6431013,4.420125 23.7035771,3.787725 23.7035771,1.62935 C23.7035771,-0.92195 22.3219383,0.3878 18.3615507,3.322725 C16.1898502,4.934725 14.6042996,5.900375 14.6042996,7.08845 C14.6042996,8.5656 16.2914185,8.31915 16.2914185,9.556825 L16.2914185,19.9426 C16.2914185,24.59415 19.315207,25.912425 21.8691454,25.912425 C23.3663084,25.912425 27.9632423,25.371475 27.9632423,22.07385 C27.9632423,20.340175 26.1668018,21.119825 25.3821674,21.119825" id="Fill-10"></path>
                    <path d="M6.65173568,8.580325 C6.65173568,7.8712 7.31619383,7.60305 7.96979736,7.752625 C10.1624317,8.2587 10.9625727,10.680575 12.5644053,10.680575 C13.4668899,10.680575 14.0212511,10.014075 14.0212511,8.7237 C14.0212511,7.3163 13.1823436,3.370775 11.9286344,3.370775 C11.4905727,3.370775 11.2711542,3.969075 10.7478062,3.969075 C9.77476652,3.969075 9.58791189,3.4754 7.18593833,3.4754 C3.32634361,3.4754 0.145938326,6.724975 0.490960352,10.768925 C0.945303965,16.1761 9.39718062,17.133225 9.01571806,20.38125 C8.89088987,21.456175 7.66044053,21.845225 6.09659912,20.8385 C2.92704846,18.785525 3.18445815,17.2301 1.73924229,17.063475 C-0.962784141,16.75115 1.47640529,24.921975 2.60218502,25.5505 C3.40155066,26.0031 4.25208811,25.35675 4.71573568,25.29165 C5.1778326,25.22655 7.56895154,26.287525 10.0251982,25.717125 C11.944141,25.267625 15.4269251,23.60835 14.9818855,17.5308 C14.4864493,10.75575 6.65173568,11.0797 6.65173568,8.580325" id="Fill-12"></path>
                </g>
                <path d="M102.833391,25.9452888 C101.320505,26.1117021 100.694834,23.0288754 100.269629,19.193769 C99.8428568,15.3601824 99.7770792,12.2203647 101.290748,12.0577508 C102.784058,11.8966565 103.430871,14.9726444 103.857643,18.8077508 C104.282849,22.6413374 104.3267,25.7819149 102.833391,25.9452888 L102.833391,25.9452888 Z M86.7116009,25.9452888 C85.1979318,26.1117021 84.5730441,23.0288754 84.1470554,19.193769 C83.7195007,15.3601824 83.6513738,12.2203647 85.1689583,12.0577508 C86.6614846,11.8966565 87.3082982,14.9726444 87.7311546,18.8077508 C88.1610585,22.6413374 88.2041272,25.7819149 86.7116009,25.9452888 L86.7116009,25.9452888 Z M102.060503,8 C97.7990511,8 95.227458,10.2424012 94.0003915,13.5600304 C92.773325,10.2424012 90.201732,8 85.9371473,8 C79.6146618,8 77,12.924772 77,18.9992401 C77,25.0721884 79.6146618,30 85.9371473,30 C90.201732,30 92.773325,27.7575988 94.0003915,24.4369301 C95.227458,27.7575988 97.7990511,30 102.060503,30 C108.386904,30 111,25.0721884 111,18.9992401 C111,12.924772 108.386904,8 102.060503,8 L102.060503,8 Z" id="Fill-14" fill="#B21930"></path>
            </g>
        </g>
    </g>
</svg>