<?xml version="1.0" standalone="no"?>
<!DOCTYPE svg PUBLIC "-//W3C//DTD SVG 1.1//EN" "http://www.w3.org/Graphics/SVG/1.1/DTD/svg11.dtd" >
<svg xmlns="http://www.w3.org/2000/svg" xmlns:xlink="http://www.w3.org/1999/xlink" version="1.1">
<metadata></metadata>
<defs>
<font id="newcastlebasic_rusty" horiz-adv-x="1777" >
<font-face units-per-em="2048" ascent="1638" descent="-410" />
<missing-glyph horiz-adv-x="757" />
<glyph horiz-adv-x="0" />
<glyph horiz-adv-x="682" />
<glyph unicode=" "  horiz-adv-x="757" />
<glyph unicode="&#x09;" horiz-adv-x="757" />
<glyph unicode="&#xa0;" horiz-adv-x="757" />
<glyph unicode="!" horiz-adv-x="835" d="M616 1692q0 -11 -4 -15t-16 -4q1 6 8 12.5t12 6.5zM430 1458q72 0 186 -4l15 -6v-35q-4 -40 -11.5 -97.5t-11.5 -95.5t-4 -73q0 -31 2 -45l-39 -373v-8q0 -79 -15 -211.5t-44 -132.5h-174q-47 0 -47 186l-27 287q0 13 -27.5 243t-27.5 349l12 12q46 4 213 4zM416 1077 l-21 13q0 -41 -39 -80l11 -21q9 13 23 21.5t20 17.5t6 31v18zM354 1024l6 16q-12 -10 -12 -14zM356 975l-6 26q-14 -16 -14 -36l2 -11q7 0 12.5 7t5.5 14zM537 999q-5 0 -5 -6q0 -8 5 -8l2 8q0 1 -1 3t-1 3zM317 938q-13 0 -19 -6.5t-6.5 -13.5t-0.5 -27q0 -4 6.5 -9 t11.5 -5q0 16 11 31t14 26q-1 0 -8 2t-9 2zM246 623l14 -9q-6 -14 -8 -14q-6 0 -6 23zM287 317h262q3 0 10.5 -10t7.5 -14v-260q0 -29 -49 -29q-44 0 -121 2t-114 2q-6 2 -14.5 10t-8.5 15v241q0 43 27 43z" />
<glyph unicode="&#x22;" horiz-adv-x="882" d="M279 1470l96 -2q4 0 6 -1.5t5 -11t5 -28.5l2 -38v-39q0 -6 -3 -25t-3 -20v-254q0 -17 -12 -17l-127 -6l-68 -2q-16 0 -16 37q0 8 1 24t1 23v262q0 94 20 94zM498 1466h186q16 0 16 -30v-11q-2 -80 -2 -301q0 -102 -18 -102q-58 0 -191 8q-5 0 -7.5 3.5t-5.5 31.5t-3 82 l1 13q1 12 2 45.5t1 86.5q0 17 -1 69t-1 89q0 3 9.5 9.5t13.5 6.5zM297 920q0 -15 -4 -15q-10 0 -10 6q5 9 14 9zM250 864q18 0 18 -10q-5 -3 -9.5 -9.5t-8.5 -6.5q-8 8 -8 16q0 10 8 10zM410 778q0 -7 -7 -35v15q0 20 7 20zM582 754l2 -9q0 -29 -28.5 -48t-59.5 -19h-11 q17 10 38.5 16.5t32 17t26.5 42.5zM408 737l16 -22q-4 -4 -4 -8q-12 0 -12 30z" />
<glyph unicode="#" horiz-adv-x="1572" d="M1208 1323q18 0 31.5 -12t13.5 -29q0 -6 -4 -6l-37 -8q0 16 -16 16q-9 0 -18.5 -10t-18.5 -10q-10 0 -10 20q0 6 25 22.5t34 16.5zM1305 1292l22 -4l-33 -33q-10 0 -14.5 5t-7.5 18q16 14 33 14zM1030 1212q4 0 9.5 -1t9.5 -1h161q3 0 6.5 -4.5t4.5 -5.5v-8l-33 -234h131 q54 0 72 -2t18 -12l-25 -182l-8 -12l-35 -5h-96h-88l-35 -256q6 0 15.5 -1t16 -2t7.5 -1q10 0 30 3.5t30 3.5q19 0 41 -9q8 0 12 9h33l7.5 -7.5l7.5 -7.5t5 -7.5t2 -10.5q0 -27 -6 -74q-17 -111 -31 -111q-4 0 -34 1t-72.5 2.5t-77.5 1.5h-23l-16 -115l-4 -86 q-3 -8 -9.5 -30t-12 -34.5t-9.5 -13.5q-12 -2 -69 -2q-128 0 -134 4q-5 3 -8 8v15q2 7 9.5 25t9.5 28l28 201l-282 -15q-11 -46 -13 -71q-2 -10 -7.5 -39t-10.5 -50.5t-12 -46t-16.5 -39t-20.5 -16.5h-166q-10 0 -10 4v6q29 198 35 246h-76q-87 0 -107 4.5t-20 26.5l22 174 q9 9 9 12l36 4q45 -2 136 -2h32l37 256q-86 4 -96 4q-49 0 -76 -4l-7.5 7.5l-7.5 7.5t-5 7t-2 9q0 16 8 74q18 110 29 110q4 0 34 0.5t73 1t79 0.5h14q4 30 15 92l8 84q17 76 26 78q12 2 74 2q11 0 34 -2t36 -2q49 0 55 2q4 0 10 -2q4 0 4 -8q0 -1 1 -3t1 -3t-1 -3t-1 -3 q-2 -9 -7 -28t-7 -28l-25 -176h267l3 13l1 8q5 20 16.5 78.5t21 108t11.5 52.5q2 2 8 2zM1102 1055q-33 -4 -33 -23q0 -15 16 -26q3 5 7 12l6 10.5t4 9t2 11.5zM750 942h-7q0 -1 -1 -4t-1 -4q0 -33 41 -33q0 41 -32 41zM893 924q0 -50 4 -70q0 -2 3.5 -6t6.5 -4q11 4 11 24 q0 54 -25 56zM1122 897l-8 2q-29 0 -48 -28.5t-19 -59.5v-10q10 17 16 38t16.5 31.5t42.5 26.5zM793 893q0 -13 10.5 -36t11.5 -40q2 -2 4 -2q7 0 12 5.5t5 13.5q0 18 -13 38.5t-30 20.5zM870 827l7 21q-13 0 -23 -14zM926 657l14 84q-49 -1 -131.5 -4t-146.5 -4l-44 -254 q209 8 285 10zM987 741q-10 -8 -22 -32q0 -4 12 -4q22 0 22 14q0 10 -12 22zM1106 723l-23 16q-4 -4 -8 -4q0 -12 31 -12zM1147 725q-11 0 -35 -6h14q21 0 21 6zM1063 596q0 -15 13 -27t30 -12q0 14 -14 26.5t-29 12.5zM1110 475q-8 0 -20.5 -5t-12.5 -13q0 -6 6.5 -19 t10.5 -16q16 24 16 53zM1165 440v-4q2 -7 2 -10q0 -24 -18 -33q1 -3 14.5 -8.5t16.5 -5.5q18 0 18 24q0 16 -33 37zM1098 408q0 -11 14 -39l23 24q-25 15 -37 15zM1229 393h-8q5 -8 23 -20.5t22 -12.5l10 11q-3 10 -18.5 16t-28.5 6zM1208 379l-16 -19q9 -22 33 -22z M1016 375q-19 0 -19 -60h15l22 45q0 7 -6 11t-12 4zM1112 358q-14 0 -14 -18q0 -6 4.5 -11t9.5 -5q8 8 8 18q0 12 -8 16zM1268 350q-6 0 -6 -16q0 -17 4 -17q2 0 6 6.5t4 10.5q0 12 -8 16zM1155 346q0 -13 6.5 -21t14.5 -8q1 0 7.5 5.5t8.5 5.5q-9 18 -37 18zM1018 307v-10 q0 -21 12 -33l6 23q0 16 -18 20zM942 188l25 -10l-11 15zM918 188q-11 0 -15 -4q13 0 15 4zM1008 141q0 -13 6 -37v15q0 22 -6 22zM389 139q-3 0 -7.5 -4.5t-4.5 -7.5l39 -12q2 4 2 6q0 18 -29 18zM858 117q0 -1 -1 -5t-1 -6q0 -27 28.5 -46t59.5 -19h10q-17 10 -38 16 t-31.5 16.5t-26.5 43.5zM1010 100l-17 -24q4 -4 4 -6q13 0 13 30zM436 92q-30 -15 -30 -33q34 0 34 19q0 8 -4 14z" />
<glyph unicode="$" horiz-adv-x="1191" d="M672 1382l14 -2q8 -21 8 -32q0 -55 4 -84q64 -5 160 -37q3 -2 16 -8.5t27 -14t28.5 -16t24 -15.5t9.5 -10q0 -12 -49 -97.5t-66 -104.5q-2 -7 -10 -7q-7 0 -80.5 30t-114.5 30q-65 0 -94 -45q-4 4 -28 7.5t-29 6.5q-2 -6 -27 -17t-25 -22q0 -37 37 -37q36 0 62 23 q0 -15 3 -27t12 -24.5t17.5 -22t28 -23.5t34 -24t44.5 -29.5t51 -34.5q16 -11 56 -37t55 -36t46.5 -34t44.5 -39t33 -41t28 -50.5t15 -57t7 -69.5q0 -144 -95.5 -245t-238.5 -130v-53q-14 -3 -51.5 -6t-46.5 -6l2 -8q2 -8 2 -13q14 -12 35 -12q12 0 31.5 11t27.5 11 q0 -21 1 -46t1 -29q0 -27 -25 -27h-153q-8 4 -15 4l-8 6q4 10 4 27q0 23 2 70t2 69q-136 21 -262 90q-67 41 -67 53q6 20 48.5 95.5t78.5 130.5q22 -2 56.5 -25t41.5 -26q90 -50 211 -50q45 0 75.5 19.5t30.5 60.5q0 74 -73 129q-24 14 -68.5 40t-72.5 42t-68 43t-65 48.5 t-54 53.5t-45.5 63t-27.5 71t-11 84q0 136 75.5 216.5t207.5 108.5q0 17 -2 51.5t-2 53.5q0 26 24 26h152zM487 1016q-12 0 -12 -6q0 -5 4 -9t8 -4q13 0 13 13q0 6 -13 6zM383 995l-2 -8q0 -17 49 -41l2 8q0 27 -49 41zM446 735q-24 -12 -32 -20v-6q0 -17 12 -17 q16 0 19.5 6t3.5 21q0 13 -3 16zM365 698q-5 -4 -5 -6q0 -13 16.5 -23t31.5 -10q0 22 -9 29t-34 10zM641 674l10 8q-12 4 -14 4zM557 670l4 -15q14 0 30.5 6t16.5 19zM477 674l-8 2q-7 0 -41 -17l16 -2q27 0 33 17zM690 674q-14 0 -18 -10q12 4 30 4q-4 6 -12 6zM659 668 l-8 2q-4 0 -12 -13q20 0 20 11zM793 668l-25 2q-23 0 -61 -13q8 0 18.5 -3t13.5 -3q5 0 54 17zM358 625h13q-4 -13 -23 -13l-12 2q4 11 22 11zM311 573l-24 -10l10 15zM336 573q10 0 14 -4q-12 0 -14 4zM223 526q0 -13 -6 -37v15q0 22 6 22zM395 502q0 -1 1 -4.5t1 -5.5 q0 -27 -29 -46.5t-59 -19.5h-10q17 10 38 16t31.5 16.5t26.5 43.5zM221 485l17 -24q-5 -5 -5 -6q-12 0 -12 30zM844 397h-10q-31 0 -60 -19t-29 -46q0 -2 1.5 -5.5t1.5 -4.5q16 33 26.5 43.5t31 16t38.5 15.5zM457 377q0 -17 14 -25q-4 -6 -16 -6l-23 12v4q5 0 13 7.5 t12 7.5zM909 369q0 -3 -4 -7l17 -24q0 31 -13 31zM926 319v15q-6 -24 -6 -37q6 0 6 22zM793 254q4 -4 14 -4q-2 4 -14 4zM606 250q-4 0 -9 -3.5t-5 -6.5l16 -7l29 -28v6q0 5 -12.5 21.5t-18.5 17.5zM567 246q-8 0 -8 -10q0 -13 6 -19l21 19l-2 6zM483 240h-12q-16 0 -16 -7 q2 -2 9 -4t13 -4.5t6 -5.5q0 -4 -6 -5.5t-6 -4.5q0 -10 6 -10q4 0 18.5 4.5t14.5 7.5q-1 3 -27 29zM559 193v8q-9 -7 -24.5 -15.5t-26 -16t-14.5 -17.5q-3 -4 -15.5 -17t-17.5 -16q0 -4 5.5 -10.5t8.5 -6.5q26 0 55 33t29 58zM686 193l-37 -5q0 -38 56 -38zM408 188h-15 q-19 0 -30 -7t-21 -27q7 -17 27 -17q13 0 24 17t15 34z" />
<glyph unicode="%" horiz-adv-x="1783" d="M889 1339q10 0 12 -4q-10 0 -12 4zM784 1331q1 0 3.5 -2t3.5 -2q-23 -6 -35 -29q0 13 7.5 23t20.5 10zM1499 1323l17 -16q0 -8 -5.5 -12.5t-11.5 -4.5q-8 0 -11 3t-3 14q0 16 14 16zM1442 1307q6 -6 6 -7l-6 -10q-6 0 -6 10q0 7 6 7zM983 1282l10 2q23 0 39 -49 q0 -2 -8 -2q-6 0 -12.5 4t-11 11t-7.5 13t-7 13zM1153 1239q15 0 48 -2t52 -2q21 0 33 2q19 0 19 -10q0 -12 -4.5 -23.5t-13 -25.5t-11.5 -21q-97 -181 -477 -924q-11 -18 -61 -107.5t-70 -117.5q-24 -12 -43 -12l-152 2q-1 1 -3 2t-3 2t-2.5 2t-2.5 3t-1 5q91 184 277 542 t266 519q16 39 38 84q46 78 66 80q16 2 45 2zM889 1235q0 -10 -15 -10q-6 0 -8 2q2 8 15 8h8zM428 1231q73 0 118.5 -17t92.5 -69q25 -25 27 -33q67 -122 67 -250q0 -107 -39 -223q-89 -174 -252 -174q-138 0 -218.5 102.5t-80.5 268.5q0 53 9 105.5t30.5 105.5t53 93.5 t81.5 65.5t111 25zM1374 1229l2 -8l-2 -4q-2 0 -2 4q0 8 2 8zM1085 1194q-24 0 -24 -72q18 0 23.5 10.5t9.5 24.5t16 19q-8 18 -25 18zM776 1147v-25q4 4 10 21q15 0 25 -29q-3 -6 -13 -12t-12 -8q3 3 -32 45q2 8 22 8zM829 1137q13 0 13 -15q0 -2 -4 -5t-7 -3l-16 8 q2 2 4.5 6t4.5 6.5t5 2.5zM1130 1073q-2 -27 -38 -64.5t-43 -62.5q-7 -21 -7 -49h23q9 0 29 27.5t20 44.5q12 8 23.5 42t11.5 48q-17 12 -19 14zM805 1071l-5.5 -11t-8 -13.5t-7.5 -4.5q-8 0 -8 13q0 4 2 7t5.5 4.5t6.5 2t8.5 1.5t6.5 1zM324 1057l-2 8q-1 0 -7.5 -3.5 t-11 -5.5t-11 -6t-10.5 -7.5t-7 -8.5t-3 -10l2 -8q50 14 50 41zM432 1044q-27 0 -45.5 -22t-26.5 -56t-11 -60.5t-3 -49.5q0 -213 94 -213q29 0 49.5 23t28.5 60t11 65.5t3 56.5q0 49 -7 89.5t-31 73.5t-62 33zM1014 1008q-3 0 -5 -2.5t-5 -6.5t-5 -6l17 -8q3 0 6.5 3t3.5 5 q0 15 -12 15zM223 961q-14 0 -14 -3q-3 -3 -7.5 -18.5t-4.5 -21.5q3 0 8 -5q5 0 16 17t15 28q-3 3 -13 3zM203 909q-15 -7 -15 -26q7 0 11 8.5t4 17.5zM1026 803l16 84q-12 -8 -22 -31t-10 -37q0 -3 6.5 -9.5t9.5 -6.5zM1550 829l4 -8q0 -8 -4 -8q-6 0 -6 8t6 8zM1337 758 q98 0 168.5 -53.5t102.5 -135t32 -180.5q0 -67 -15 -132.5t-47 -126.5t-90.5 -98.5t-135.5 -37.5q-20 0 -38.5 1.5t-32.5 3.5t-28 6.5t-23 7.5t-20.5 10t-16.5 10t-15 11.5t-13 11t-12.5 12.5t-11.5 12q-5 3 -9.5 12l-8 16t-5.5 7q-69 117 -69 245q0 104 36 228 q92 170 252 170zM1337 580q-27 0 -45.5 -22t-26.5 -56.5t-11 -61t-3 -49.5q0 -213 95 -213q29 0 49.5 23t28.5 60t11 65.5t3 56.5q0 35 -4.5 67t-15 62.5t-31.5 49t-50 18.5zM1436 59l6 -4l6 4h-12zM367 -31l-2 11q5 0 12 -5zM461 -31q8 0 10 -4q-3 0 -27 -6q6 10 17 10z M528 -31q19 0 19 -6q0 -8 -43 -8h-29q35 14 53 14zM430 -33q1 0 3 -1t3 -1q0 -10 -14 -10q2 12 8 12zM842 -115q10 -10 10 -18l-10 -10q-9 0 -19 10q0 7 5.5 12.5t13.5 5.5z" />
<glyph unicode="&#x26;" horiz-adv-x="1384" d="M621 1464l180 6q14 0 14 -32q0 -1 -0.5 -18.5t-1 -60.5t-0.5 -106q97 -7 176.5 -37.5t79.5 -52.5l-20 -59q-6 -15 -29 -62.5t-39 -85.5q-9 -18 -25 -18q-107 51 -186 51q-180 0 -180 -139q0 -34 22.5 -59.5t59 -39.5t67.5 -21t64 -11l10 -10q2 0 2 -37l2 -72 q0 -20 -10 -27q-5 -9 -31.5 -15t-59 -12.5t-65 -18t-54.5 -39t-22 -68.5q0 -73 50.5 -105t130.5 -32q107 0 235 71q11 0 16 -0.5t10.5 -4.5t8.5 -13q9 -32 39 -70.5t54 -78.5t24 -85q-19 -31 -122.5 -66.5t-207.5 -45.5v-111q0 -53 -3 -69.5t-13 -16.5l-86 -4l-90 4 q-15 0 -15 70q0 19 1 65.5t1 69.5q-142 25 -250 111q-23 19 -38.5 34.5t-26.5 33.5t-16 28t-16 36.5t-17 41.5q-17 70 -17 127q0 32 6 60.5t12.5 47t24 44t27 37t36 40.5t36.5 41q8 4 8 29q-57 45 -83 95t-26 118q0 104 54 184q4 0 11.5 -1t10.5 -1q0 3 -2 9t-2 9q0 9 4 13 q89 101 264 125v190q0 5 4.5 9.5t8.5 4.5zM346 1100q-4 -8 -4 -25q0 -20 4 -24q6 -6 28 -11.5t38 -5.5l-17 -16q26 -37 66 -49q-7 22 -17 32q-13 30 -25.5 43.5t-22 14t-23.5 10t-27 31.5zM485 971q-12 0 -12 -8q22 0 38 -10t25 -29.5t13 -35.5t8 -40q8 16 8 39 q0 39 -22.5 61.5t-57.5 22.5zM518 827q-25 0 -45 -10q0 -3 14.5 -9.5t18.5 -6.5q12 0 12 26zM453 770q-5 0 -12 -6t-7 -10q18 -24 26 -33t22.5 -16t35.5 -7q0 72 -65 72zM418 664v4l-12 10zM346 537l10 -9l17 2q-10 23 -33 23zM281 547q-19 -8 -19 -25l2 -8q23 10 23 25z M313 516q-3 0 -8.5 -6t-5.5 -10q0 -3 5.5 -10t8.5 -7q7 0 25.5 6.5t23.5 10.5q-4 4 -22.5 10t-26.5 6zM401 500l2 -13q2 0 4 2.5t5 4.5q0 6 -11 6zM373 481q-11 -2 -11 -24v-17q21 13 21 27q0 10 -10 14zM299 461q-10 0 -10 -15q16 0 18 9q-3 6 -8 6zM348 451l-10 2 q-14 0 -25 -19l11 -2q13 0 24 19zM313 430q-12 0 -12 -14q14 0 25 8q-2 6 -13 6zM416 424l-13 -64q39 0 39 54zM328 410q-17 0 -17 -9q6 -16 6 -20q0 -1 4.5 -7.5t4.5 -13.5q-9 -9 -15 -12h6q29 0 29 37q0 25 -18 25zM397 342l2 -8l11 2l-4 6h-9zM1108 176q-39 0 -39 -29v-8 q39 8 39 37z" />
<glyph unicode="'" horiz-adv-x="557" d="M180 1464l195 6q18 0 18 -34q0 -3 -0.5 -11.5t-1 -27t-1 -48.5t-1 -89t-0.5 -136q0 -54 -4 -74t-14 -20l-92 -4q-12 0 -47.5 1t-51.5 1t-16 119q0 6 3 25t3 20v254q0 7 3.5 12.5t6.5 5.5zM223 1358h-4q-11 0 -17.5 -10.5t-6.5 -22.5q12 0 20 8.5t8 20.5v4zM362 1223l7 18 q-22 0 -33 -22zM303 1233q-14 0 -22 -8l22 -27l8 4l4 21q0 10 -12 10zM313 1151q-6 -12 -14 -12q-3 0 -5 2t-5 5.5t-4 4.5v-4q1 -9 14.5 -18.5t13.5 -16.5v-8q19 -12 37 -12q0 2 -3 15t-3 15q-1 10 -4.5 13.5t-7 3t-9 2t-10.5 10.5z" />
<glyph unicode="(" horiz-adv-x="841" d="M487 1602q15 0 58 -63t59 -95q10 -21 33.5 -57t32.5 -54v-20l-82 -99q-41 -47 -41 -178v-659q0 -130 35 -201q7 -15 51.5 -58t44.5 -52q0 -22 -36.5 -80t-59.5 -88q-12 -16 -26.5 -36t-23 -32t-16.5 -22.5t-13 -15.5t-7 -5q-3 0 -27 8q-258 151 -258 408v946 q0 62 13.5 135t39.5 107l78 104q13 9 40.5 39t53.5 49t51 19zM352 1581q8 -4 8 -12q-4 0 -8 -4q-4 0 -4 4q0 12 4 12zM502 1509l-4 23l-33 -33q0 -17 22 -22q15 17 15 32zM436 1460q-8 0 -14 -7.5t-6 -20.5q28 0 37 18q-2 0 -9 5t-8 5zM492 1458q-7 0 -7 -4l-8 -37 q17 0 17 -16q0 -9 -10.5 -18.5t-10.5 -18.5q0 -10 21 -10q6 0 22 25t16 34q0 18 -11.5 31.5t-28.5 13.5zM440 1399q-3 0 -16 -6t-14 -9q18 -9 18 -32q0 -3 -2 -10v-5q33 21 33 37q0 25 -19 25zM541 1303q-4 -3 -10.5 -16t-6.5 -19q0 -8 13 -13.5t20 -5.5q0 30 -16 54z M367 1221q-17 0 -30 -12t-13 -27q15 0 29 12.5t14 26.5zM471 1184l-6 22q-12 -12 -12 -32v-11q18 4 18 21zM238 1073q-13 0 -13 -4q12 -24 23 -33q12 12 12 23q0 14 -22 14zM387 1059h-14q24 -6 35 -6q0 6 -21 6zM344 1038l23 17q-31 0 -31 -13q4 0 8 -4zM307 977v-10 q0 -31 19.5 -59.5t48.5 -28.5l8 2q-32 16 -42.5 26t-17 31.5t-16.5 38.5zM346 772q-16 -11 -16 -27q0 -18 32 -22q3 4 3 6q0 6 -2 11.5t-4 9l-6 10.5t-7 12z" />
<glyph unicode=")" horiz-adv-x="835" d="M342 1593q23 0 56 -18.5t55 -40.5q57 -45 94 -101.5t54.5 -124t23.5 -127.5t6 -141q0 -78 -4 -225t-4 -217q0 -47 3 -140.5t3 -140.5q0 -166 -40 -271.5t-153 -207.5q-71 -55 -92 -55q-18 0 -35 24l-153 238v10q0 17 8 23q65 61 94 124.5t29 149.5v623q32 0 80 18 q0 3 -33.5 13.5t-38.5 27.5q8 32 8 53q0 41 -23 82.5t-50.5 68t-50.5 49t-23 30.5q0 18 8 24l153 242q6 10 25 10zM375 1108q-8 0 -8 -21q0 -14 8 -14q2 1 6.5 7t5.5 7q0 9 -12 21zM399 1055q-8 0 -8 -15q15 0 17 9q-3 6 -9 6zM414 1026q-13 0 -13 -12q17 0 23 6q-2 6 -10 6 zM387 1020q-6 0 -6 -12v-11q12 8 12 15q0 5 -6 8zM389 -303q0 -12 -12 -27q0 1 -3 6.5t-3 6.5q0 5 18 14zM444 -309l11 -2q0 -8 -6 -8z" />
<glyph unicode="*" horiz-adv-x="935" d="M475 1554l72 -4q12 0 12 -84q0 -4 -2 -18t-2 -16v-91l127 43q44 15 57 15q7 0 13 -6q14 -41 28.5 -84.5t16.5 -48.5q0 -11 -82 -37q-2 -1 -9.5 -2t-14 -2t-7.5 -2l-76 -27l78 -107q33 -44 33 -55q-5 -25 -42 -50.5t-79 -41.5q-9 0 -53 63q-2 3 -6 10.5t-7 13t-4 5.5 l-63 82l-84 -119q-34 -47 -45 -47q-7 0 -68 37q-55 46 -55 49q0 14 43 70q2 3 8 9.5t10.5 11t4.5 5.5l47 66l-74 25q-1 1 -7.5 2t-14 2t-9.5 2q-82 29 -82 39q42 137 58 137q13 0 59 -15l139 -47v146q0 39 3 53t12 14zM440 1333q0 -32 27 -41v8q0 11 -8.5 22t-18.5 11z M311 1331q-16 -28 -16 -41l2 -8q33 4 33 23q0 18 -19 26zM403 1319v-16q0 -37 39 -37q0 26 -39 53zM506 1223l-31 49q-18 -8 -18 -25q0 -5 1.5 -9.5t6 -9.5t7 -7.5t9 -7.5t8.5 -7zM428 1249h-16q-27 0 -33 -16q8 -16 24 -16q19 0 25 32zM487 1194h-12q0 -16 -10 -25 t-21.5 -12t-21.5 -14t-10 -29q27 0 51 26t24 54zM664 1180l6 -6q-1 -3 -4 -5t-5.5 -3t-4.5 -3t-1 -4q-6 9 -6 15t15 6zM371 864l8 -6q-10 -10 -12 -10q-5 0 -5 10zM600 346q12 0 12 -31l-16 23q4 4 4 8zM616 309v-14q0 -21 -6 -21q0 11 6 35zM537 223l-15 4l25 9zM483 231 q13 0 15 -4q-11 0 -15 4z" />
<glyph unicode="+" horiz-adv-x="929" d="M479 862l142 -4q5 0 8 -5.5t5.5 -44.5t2.5 -116q5 -18 16 -18h88q7 0 7 -27v-227l-9 -6l-104 2l2 -154q0 -6 -7 -13t-12 -7l-278 -9q-23 0 -23 52q0 11 2.5 33t2.5 34q0 62 -50 62q-5 0 -16.5 -1t-17.5 -1q-60 0 -60 16l-2 229q0 5 6.5 11t14.5 6h100q27 0 27 53 q0 77 4.5 104t17.5 27zM397 793v-13q19 0 45 -26q-22 -22 -22 -35q0 -1 5 -5.5t7 -4.5v-25q0 -2 23 -47q12 24 12 31q0 6 -6 13.5t-6 14.5v13q1 1 17 5t17 5q3 3 3 6q0 2 -1.5 8.5t-1.5 9.5q4 9 26 13t22 16q0 10 -13 16q-50 -12 -69 -12q-10 0 -28 8.5t-30 8.5zM354 748 q-16 -7 -16 -27q0 -13 17 -24t34 -15v14q0 34 -35 52zM313 621q-4 0 -10 -6t-6 -9q0 -27 32.5 -55.5t57.5 -28.5h8q-5 6 -20.5 33t-28.5 33q-4 3 -17 15.5t-16 17.5z" />
<glyph unicode="," horiz-adv-x="761" d="M244 330h323q6 0 6 -6q0 -17 -4 -29l-108 -262l-4 -19l-95 -182q0 -3 -9.5 -19t-12.5 -16h-135q-21 0 -21 39q0 51 5 125t10.5 126t14 129t9.5 91zM530 303q-10 0 -10 -18h23q0 18 -13 18zM262 250q-14 0 -14 -12q0 -3 2 -5t6 -5t6 -5l8 17q0 3 -3 6.5t-5 3.5zM270 219 q-28 -9 -28 -24q14 -5 20 -11h-24q0 -22 8 -22q25 25 41 32q3 2 4 1q-1 1 -8 10.5t-13 13.5zM313 213q0 -1 1 -5.5t1.5 -6.5l1.5 -6t2.5 -6t4.5 -3.5t6 -1.5q12 0 12 9q0 4 -4.5 7t-13 7t-11.5 6z" />
<glyph unicode="-" horiz-adv-x="643" d="M88 745l473 140q13 0 17 -39l4 -62q0 -103 -31 -112l-465 -127q-12 0 -12 6q-8 45 -8 104q0 56 4 70t18 20zM563 621q13 0 16 -5t3 -28v-148q0 -8 -8 -15.5t-13 -10.5l-135 -33l-16 -8l-306 -86q-6 -2 -16 -2q-14 0 -14 8q-8 33 -8 90q0 3 -2.5 15t-2.5 20q0 47 27 63 l459 137q3 3 16 3zM203 475l24 -10l-10 14zM178 475q-10 0 -14 -4q12 0 14 4zM494 438l-9 13q-13 0 -22 -13q0 -10 22 -10q9 0 9 10zM119 403q0 -1 -1 -4.5t-1 -5.5q0 -27 28.5 -46t59.5 -19h10q-18 10 -38.5 15.5t-31 16t-26.5 43.5z" />
<glyph unicode="." horiz-adv-x="729" d="M262 307h234q6 0 13 -6.5t7 -11.5v-258q0 -33 -133 -33q-34 0 -99 5t-71 7l-4 21v258q0 5 18.5 11.5t34.5 6.5zM471 182q-26 -13 -33 -20v-6q0 -5 4 -11t9 -6q11 0 16 4t5.5 8t0.5 15q0 14 -2 16zM502 121l-8 2q-7 0 -41 -17l16 -2q27 0 33 17z" />
<glyph unicode="/" horiz-adv-x="1361" d="M1047 1518q15 0 48 -2.5t52 -2.5q15 0 33 3q18 0 18 -11q0 -15 -10 -32q-81 -151 -195 -373.5t-264.5 -518t-177.5 -348.5q-29 -51 -71 -128t-67.5 -122t-41.5 -67q-24 -12 -43 -12h-49l-103 2q-1 1 -3 2t-3 2t-2.5 2t-2.5 3t-1 5q92 185 373 729t360 703q11 26 39 84 q46 78 65 80q16 2 46 2zM508 557q-8 -4 -10 -4q12 -32 32 -49l2 16q0 37 -24 37zM530 487l-2 9q-16 -8 -16 -25l2 -10q16 9 16 26zM502 451q-27 0 -53 -37q3 -3 15.5 -10t16.5 -7q21 0 21 54zM598 444q-34 0 -39 -57l8 -2q31 0 31 59zM362 350l-12 -4l17 33zM420 313l14 11 q0 21 -22 34zM418 303l-6 -57q0 -38 11.5 -55t49.5 -17q0 25 -18 59t-21 62z" />
<glyph unicode="0" horiz-adv-x="1280" d="M197 1667l-4 12q2 0 14 -4zM311 1667q9 0 13 -6q-19 0 -31 -4q4 10 18 10zM272 1663l9 -2q0 -10 -21 -10q7 12 12 12zM389 1663l25 -2q-35 -12 -54 -12q-3 0 -13.5 1t-18.5 1q35 12 61 12zM219 1458q0 -1 1 -3t1 -3l-2 -8q-4 0 -4 8q0 6 4 6zM934 1348q12 -12 12 -25 l-12 -12q-13 0 -25 12q0 9 8 17t17 8zM565 1307l-18 -19q-11 0 -15 3t-4 16q0 18 19 18zM477 1307q4 -4 4 -11l-4 -8q-8 0 -8 8q0 11 8 11zM621 1257q203 0 327 -143l-8 -10q5 -3 15 -6t14 -6q133 -175 133 -455q0 -90 -14 -178.5t-48 -178t-84.5 -157t-130.5 -110 t-178 -42.5q-127 0 -200.5 35t-137.5 111q-14 7 -26 33t-17 26q-106 187 -106 416q0 185 59 375q67 137 163.5 213.5t238.5 76.5zM635 975q-52 0 -87.5 -40t-50 -105t-19.5 -113.5t-5 -98.5q0 -62 8 -120t26 -112t52 -87t80 -33q44 0 76 39.5t46 99t19.5 107.5t5.5 88 q0 67 -6.5 126.5t-22 119t-47 94.5t-75.5 35zM625 774l4 -8q0 -8 -4 -12q-7 0 -7 12q0 8 7 8zM756 -301l-8 6h14z" />
<glyph unicode="1" horiz-adv-x="886" d="M199 1534l-4 8h10zM489 1192h185q8 -123 8 -379l-2 -803l-6 -12h-213l-10 -4l-76 4v631q0 10 7 25.5t7 25.5q-2 0 -14 4t-15 4q-8 -5 -22.5 -26.5t-15.5 -22.5q-119 -119 -168 -119q0 54 4 157t4 152q11 14 82 69t116 114q1 1 20.5 26t31.5 33zM578 920q-11 0 -11 -11 q0 -6 11 -6q10 0 16 6q0 11 -16 11zM475 762q-29 0 -49 -10q18 -5 23 -19q2 1 6.5 4.5t7 6t6 5.5t5 6.5t1.5 6.5zM281 727l47 -16q0 17 -11.5 28t-25.5 11zM342 745q0 -34 12 -34l23 6q0 3 -5 11t-5 9q-1 3 -11 5.5t-14 2.5zM313 420q9 0 9 -6q-5 0 -9 -4q-4 0 -4 4q0 6 4 6 zM395 403l-6 -20q31 0 31 18zM254 387q6 0 10 -4q0 -10 -6 -16q-14 0 -14 8q0 12 10 12zM426 365q-18 -11 -18 -33l34 -6q0 32 -16 39zM473 334q-3 0 -7.5 -7t-4.5 -12q2 -1 5.5 -6.5t4.5 -5.5q6 0 6 25zM522 334q-4 0 -9 -6t-5 -11q0 -4 4 -4t9 5t5 10zM262 307l-10 2 q0 7 6 13zM315 322q11 0 11 -7q-2 -4 -11 -4q-4 0 -4 4q0 7 4 7zM647 221l4 6l-8 6zM326 205q2 -2 2 -15q0 -12 -2 -14q-4 0 -4 14q1 15 4 15zM209 162l-6 2l2 8zM326 160l2 -23q0 -20 -4 -20q0 1 -1 8t-1 12q0 23 4 23zM178 102l-6 7l6 4v-11zM330 0q6 0 6 -6q0 -12 -8 -12 q-4 4 -4 6q0 12 6 12zM406 -29q8 -8 10 -12q0 -10 -13 -14q-20 0 -20 14q8 12 23 12zM248 -59l-8 2l6 12zM326 -115l-2 9q0 8 8 12zM584 -117l-15 2l13 11z" />
<glyph unicode="2" horiz-adv-x="1146" d="M498 1247q108 0 201.5 -40.5t154.5 -124t61 -193.5q0 -146 -58.5 -290t-160.5 -267q-4 -8 -4 -21q0 -20 250 -20q14 0 44 1t44 1q4 -2 4 -10q0 -17 -31.5 -77.5t-68 -122.5t-39.5 -69l-8 -8q-6 0 -37 -2t-80 -2q-99 0 -299 2t-297 2q-7 0 -19 5t-12 9q41 62 106.5 150.5 t67.5 91.5q15 21 68 89.5t81 110t66 104.5t56 121t18 112q0 74 -58.5 115.5t-133.5 41.5q-76 0 -115 -18q-5 -1 -30.5 -15t-41.5 -14q-12 0 -12 13v254q0 28 117.5 49.5t165.5 21.5zM457 1141l-6 -35q31 0 38 16q-11 19 -32 19zM440 1087q-1 -2 -6.5 -5.5t-5.5 -4.5 q0 -6 25 -6l6 4q0 3 -7 7.5t-12 4.5zM442 1040q-4 0 -4 -4t5 -9t10 -5l6 4q0 4 -6 9t-11 5zM418 203q0 -14 7 -26.5t21 -12.5l9 2q-2 15 -11.5 26t-25.5 11zM463 156q0 -46 20 -54q17 11 17 25t-11.5 21.5t-25.5 7.5zM481 96h-14q-23 0 -23 -10q2 -2 2 -4h11q18 0 24 14z M541 92q-19 0 -30 -15t-11 -34l47 23zM432 82q-8 -3 -8 -10q0 -8 8 -11q1 0 3.5 2.5t2.5 4.5q0 8 -6 14zM469 33l18 28q-13 0 -24.5 -11.5t-11.5 -24.5z" />
<glyph unicode="3" horiz-adv-x="1181" d="M551 1257q84 0 158 -20t134.5 -60t96 -107.5t35.5 -154.5q0 -69 -27 -119t-84 -96v-8q0 -14 10 -20q22 -26 40.5 -46t28 -29t15.5 -15t8 -8.5t3 -4.5q45 -79 45 -168q0 -70 -17 -125q-2 -12 -12 -33t-10 -34q8 2 24 10t29 8l-29 -20q-1 -3 -9.5 -8.5t-10.5 -5.5 q-6 0 -10 4q-6 -1 -24.5 -22t-37.5 -45.5t-22 -27.5q-154 -122 -383 -122q-59 0 -181 24t-141 55q0 140 37 269q4 12 11.5 15t23.5 3q133 -70 235 -70q79 0 130 32.5t51 105.5q0 50 -33.5 80.5t-74.5 38t-80 15t-46 17.5q-4 4 -4 25q-2 2 -2 65q0 45 2 45l10 13q33 3 63.5 9 t67.5 19t59.5 37.5t22.5 57.5q0 145 -180 145q-85 0 -188 -49q-23 0 -23 18v238q0 26 115.5 47.5t173.5 21.5zM653 1169q-32 -12 -49 -32l17 -2q36 0 36 24q-4 8 -4 10zM365 1167q-15 -2 -26 -11.5t-11 -25.5q14 0 26.5 7.5t12.5 21.5zM502 1137l-2 -9q0 -30 59 -30 q0 34 -57 39zM365 1124l-11 -22q17 0 17 18q-2 0 -6 4zM375 1096l4 -13q4 0 7 5.5t3 9.5zM549 1075l-10 -2q9 -16 26 -16l8 2q-8 16 -24 16zM483 1069q-3 -3 -9.5 -16t-6.5 -17q0 -20 53 -20q0 27 -37 53zM442 1038q-18 -15 -39 -51q5 -2 7 -2q18 0 26 7.5t8 25.5 q0 16 -2 20zM393 1028q-35 0 -41 -16q9 -15 21 -15q10 0 15 10t5 21zM756 956q-27 0 -46.5 -29t-19.5 -59v-10q10 17 16 38t16.5 31.5t43.5 26.5q-1 0 -4.5 1t-5.5 1zM834 909q0 -12 4 -14q0 10 -4 14zM827 846l15 10l-4 14zM750 803l-25 16q-4 -4 -6 -4q0 -12 31 -12z M655 758v-6q0 -21 13 -21q10 0 10 21q0 6 -23 6zM659 700l-4 15q-11 0 -25 -9t-14 -20q25 0 29 -12q14 7 14 26zM770 578l-2 -9q0 -7 9.5 -15.5t17.5 -10.5v12q0 23 -25 23zM842 569q-17 0 -17 -12q0 -10 11 -10q6 12 6 22zM600 551q0 -31 14 -31h4q0 31 -18 31zM737 522 q-12 0 -12 -26q0 -25 12 -29l23 45q-2 2 -11 6t-12 4z" />
<glyph unicode="4" horiz-adv-x="1234" d="M950 1278q0 -14 -2 -14q-12 0 -12 8q12 6 14 6zM932 1231l14 -12q0 -18 -2 -55.5t-2 -55.5q0 -107 4 -323t4 -326q2 -6 7 -11.5t10 -5.5h88q6 0 6 -28l-111 -236v-149q0 -6 -6.5 -12.5t-11.5 -6.5l-279 -10q-20 0 -20 53q0 10 1 33t1 33q0 36 -12.5 48.5t-36.5 12.5 q-5 0 -18 -1t-19 -1q-19 0 -59 -2t-62 -2q-4 0 -22.5 2t-20.5 2h-254q-8 0 -8 31l280 569q8 35 46 97.5t38 76.5q15 28 35 71.5t35.5 76.5t32.5 64.5t34.5 49t34.5 17.5h273zM604 1139q-10 0 -10 -11q0 -6 10 -16q3 0 5 2t5 6.5t7 7.5q0 11 -17 11zM692 1004l-6 -29 q14 0 24.5 11t10.5 26zM680 911l-14 -6q0 -7 5 -18t5 -17q0 -11 -6 -20q4 0 7.5 3.5t6.5 9.5t6 9v5q-8 34 -10 34zM768 879l-8 2q-18 0 -25 -17l8 -2q15 0 25 17zM641 778l-8 -12q0 -27 20 -33q17 7 17 27zM610 711l-108 -238l-2 -14q0 -17 10 -17l37 -2l63 2q27 0 27 52v14 l-6 119q0 14 -1 43t-1 45l-6 4zM1006 -84q8 0 12 -10q-10 0 -12 10zM414 -182q6 0 6 -8q0 -6 -17 -15q0 23 11 23z" />
<glyph unicode="5" horiz-adv-x="1062" d="M862 1423l27 9q0 -6 -7.5 -14t-15.5 -11zM446 1380q1 -2 4.5 -9.5t4.5 -12.5q0 -19 -23 -19q-14 0 -17 3t-3 16q13 22 34 22zM856 1223q70 0 70 -25q0 -37 -32.5 -147t-55.5 -117q-160 0 -265 -10q-36 -9 -36 -80q0 -15 5 -21t21.5 -9.5t24.5 -6.5q147 -63 216.5 -159.5 t69.5 -250.5q0 -20 -6 -46.5t-11 -42t-17 -47.5t-13 -36q-39 -100 -143.5 -166t-214.5 -77q-11 -1 -84 -5.5t-84 -5.5l-147 31q-19 0 -19 59q0 12 2 39.5t2 42.5q0 7 -1 33.5t-1 44.5q0 49 17 49q24 0 69.5 -8t71.5 -8q43 0 83 9t77 28t59.5 54t22.5 81q0 78 -69 126 t-151 48q-4 -4 -4 -20q-12 2 -12 28q-14 4 -41 5t-42 4t-15 12q0 31 6 55l141 522l10 11l349 4q1 -5 4 -27t6.5 -38.5t7.5 -16.5q6 0 10 14.5t4 32.5q11 7 11 14q7 0 16 10.5t10 10.5h33q1 0 17 1t28 1zM446 1155q-4 0 -9 -4.5t-5 -9.5q8 -8 14 -8l9 8q0 5 -9 14zM741 1116 l-14 6q-1 0 -10 -35v-4q3 -3 6 -9t6.5 -9.5t7.5 -3.5q-6 9 -6 20q0 6 5 17t5 18zM375 1110l-8 -2q10 -16 24 -16l8 2q-7 16 -24 16zM365 1051l-5 -2l9 -37h14q0 39 -18 39zM350 1012q-4 -4 -4 -21q0 -14 4 -18l4 22v2q0 15 -4 15zM766 989l-29 -18q0 -20 17 -27q20 6 20 33z M834 831q4 0 9 -4t5 -8t-6 -4q-8 0 -8 16zM758 190q-6 0 -6 -2t6 -2q8 0 10 2q0 2 -10 2zM367 174l6 -2v10zM449 162q4 -2 6 -8.5t4 -6.5q5 5 10 5q-3 5 -5.5 6.5t-8 2.5t-6.5 1zM717 156q-3 0 -4.5 -2t-2 -6t-1.5 -5l16 4q-5 9 -8 9zM700 100q-8 0 -8 -4q4 -4 6 -4t2 8z M879 39q1 0 4.5 -3.5t3.5 -4.5h-21q0 4 13 8zM174 -217q1 -9 8.5 -24.5t7.5 -26.5q-7 0 -16.5 15.5t-9.5 21.5q0 12 10 14z" />
<glyph unicode="6" horiz-adv-x="1300" d="M862 1217q23 0 23 -13q0 -20 -12.5 -37.5t-34.5 -37.5t-31 -31q-7 -9 -27 -35t-36 -47t-34 -46.5t-28 -45.5t-10 -31q0 -9 7.5 -15.5t20 -10t24.5 -5t25.5 -2.5t18.5 -2q111 -36 180.5 -92t122.5 -156q13 -25 18 -36t12 -49t7 -89q0 -212 -118 -334t-341 -122 q-138 0 -244 64.5t-161.5 173.5t-55.5 243l2 49l50 192q42 104 155 289.5t154 220.5q63 0 161 2.5t152 2.5zM434 788l-14 7q-1 0 -10 -35v-4q3 -3 6 -9t6.5 -10t7.5 -4q-6 9 -6 21q0 6 5 16.5t5 17.5zM340 764l-8 -2q10 -17 24 -17l9 3q-7 16 -25 16zM459 662l-29 -19 q0 -21 16 -27q21 6 21 33zM649 563q-63 0 -109 -39t-46 -102q0 -81 65 -129q39 -19 53.5 -23t40.5 -4q67 0 116.5 41.5t49.5 106.5t-44.5 107t-125.5 42zM424 297l25 -10l-11 14zM399 297q-10 0 -14 -4q12 0 14 4zM489 250q0 -9 7 -37v14q0 23 -7 23zM340 225q0 -1 -1 -4.5 t-1 -5.5q0 -27 28.5 -46t59.5 -19h10q-18 10 -38.5 15.5t-31 16t-26.5 43.5zM492 209l-17 -25q4 -4 4 -6q13 0 13 31z" />
<glyph unicode="7" horiz-adv-x="1163" d="M332 1249q10 0 10 -20q10 0 51.5 1t71.5 1q209 0 405.5 -5t196.5 -14q-2 -4 -5.5 -15l-7 -22t-3.5 -12l-537 -1153l-326 -12q-16 0 -16 31l170 358q6 34 40.5 94t43.5 88q148 306 158 340q0 35 -279 35q-27 0 -68.5 -2t-54.5 -2v41q46 111 84 203q9 20 18.5 27t16 6t15 6 t16.5 26zM745 958q2 -4 13 -4q-2 4 -13 4zM647 950q-13 0 -21 -9.5t-8 -22.5q11 22 35 28q-1 0 -3 2t-3 2zM745 854h-8q-12 0 -14 -8q2 -2 8 -2q14 0 14 10zM633 741v25q-23 0 -23 -8q25 -25 32 -41q2 -3 1 -4q2 2 12 8t13 12q-10 29 -25 29q-5 -17 -10 -21zM686 756 q-3 0 -5 -2.5t-4.5 -6.5t-4.5 -6l16 -8q3 0 6.5 3t3.5 5q0 15 -12 15zM662 690q-1 0 -6.5 -1t-8.5 -1.5t-6.5 -2t-5.5 -4.5t-2 -7q0 -12 8 -12q4 0 7 4t8 13.5t6 10.5zM449 338h-15q-22 0 -22 -6q13 0 37 6zM453 334l24 -17q5 5 6 5q0 12 -30 12zM360 281l5 -15l10 25z M512 268v11q-10 -17 -16 -38.5t-16.5 -32t-43.5 -26.5q1 0 4.5 -1t5.5 -1q27 0 46.5 29t19.5 59z" />
<glyph unicode="8" horiz-adv-x="1257" d="M379 1333l6 -4q0 -4 -5.5 -9t-10.5 -5q-4 0 -4 4q0 5 4.5 9.5t9.5 4.5zM379 1284l6 -4q0 -3 -6.5 -7.5t-11.5 -4.5q-1 2 -7 5.5t-6 4.5q0 6 25 6zM616 1268q179 0 292.5 -110.5t113.5 -276.5q-2 -27 -5 -47t-13.5 -43.5t-13.5 -31t-21 -38t-21 -35.5q0 -11 14 -27t15 -18 q51 -57 73.5 -112.5t22.5 -129.5q0 -174 -124 -294.5t-298 -120.5q-129 0 -235.5 54t-169 152.5t-62.5 221.5q0 79 35 151q35 0 51 8q0 23 -12 23q-5 0 -9.5 4t-4.5 8q20 33 53 66q0 16 -5.5 30.5t-15 28.5t-12.5 21q-31 45 -31 125q0 171 106 281t277 110zM383 1214l-6 35 q32 0 39 -16q-11 -19 -33 -19zM455 1202l-2 25q-19 0 -19 -31zM424 1174q-4 0 -8.5 -3t-7 -6.5t-7 -9.5t-6.5 -8q14 -5 19 -23q10 20 10 50zM457 1090l-6 -35q31 0 38 16q-11 19 -32 19zM440 1036q-1 -2 -6.5 -5.5t-5.5 -4.5q0 -6 25 -6l6 4q0 3 -7 7.5t-12 4.5zM631 1030 q-60 0 -101 -38.5t-41 -100.5q0 -70 58 -103q48 -26 102 -26q51 0 83 41t32 92q0 26 -6 47q-34 88 -127 88zM442 989q-4 0 -4 -4t5 -9t10 -5l6 4q0 4 -6 9t-11 5zM305 561l-14 -6q0 -7 5 -18t5 -17q0 -11 -6 -20q4 0 7.5 3.5t6.5 9.5t6 9v4q-9 35 -10 35zM635 551 q-67 0 -113.5 -40t-46.5 -105q0 -89 66 -132q39 -18 53 -21t41 -3q64 0 107.5 40.5t43.5 104.5q0 61 -43.5 108.5t-107.5 47.5zM393 528l-8 2q-18 0 -25 -16l9 -2q14 0 24 16zM291 492l-8 -13q0 -27 20 -33q16 6 16 27z" />
<glyph unicode="9" horiz-adv-x="1310" d="M246 1464q9 0 14 -10q-2 -2 -14 -20q-4 0 -13 18q0 12 13 12zM582 1368q17 0 28 -8q-11 -17 -61 -17q0 10 12 17.5t21 7.5zM477 1337q-1 -6 -12 -39q-11 -26 -29 -36q0 16 12.5 45.5t28.5 29.5zM651 1266q194 0 333.5 -131t139.5 -322q0 -52 -3 -88.5t-16.5 -101 t-48.5 -138t-91 -155.5l-213 -281l-45 -51h-336q-13 0 -13 14q22 43 87 119.5t115 139t50 87.5q0 13 -4 15q-210 34 -317 141q0 3 4 16t4 27q-3 0 -10 7t-13 7q-12 0 -24 -12q-68 96 -68 244q0 198 135.5 330.5t333.5 132.5zM1030 1223l8 -2q-1 -4 -15.5 -9.5t-16.5 -9.5 q0 21 24 21zM647 979q-64 0 -112 -49t-48 -111q0 -73 56 -117.5t131 -44.5q61 5 104 50.5t43 107.5q0 70 -51 117t-123 47zM389 633q-10 0 -14 -10q2 -11 24 -11h17q-13 21 -27 21zM328 606l-2 17q-23 -10 -23 -33l16 6zM356 612q-4 -4 -10 -22.5t-6 -26.5q0 -3 6 -8.5 t10 -5.5q3 0 10 5.5t7 8.5q0 7 -6.5 25.5t-10.5 23.5zM406 598l-3 -10q0 -14 19 -25l2 10q0 15 -18 25zM471 596q-25 0 -25 -18q0 -17 9 -17q16 6 20 6l7 4q7 4 14 4q10 -10 12 -14v6q0 29 -37 29zM432 575q-6 -2 -6 -12q0 -12 14 -12q0 13 -8 24zM401 557q-6 -3 -6 -8 q0 -10 15 -10q0 16 -9 18zM317 537l-8 -7q8 -18 25 -18l8 2q-10 23 -25 23zM657 199l7 71q-17 -8 -17 -24q0 -18 10 -47zM588 137l-6 -35q32 0 39 17q-11 18 -33 18zM571 84q-1 -2 -6.5 -5.5t-5.5 -4.5q0 -6 25 -6l6 4q0 3 -7 7.5t-12 4.5zM573 37q-4 0 -4 -4q0 -5 5.5 -10 t9.5 -5l6 5q0 4 -6 9t-11 5z" />
<glyph unicode=":" horiz-adv-x="751" d="M530 881l9 -230q0 -7 -1 -18t-7.5 -26t-16.5 -15h-219q0 3 -17.5 3t-17.5 -3h-6q-7 0 -17.5 4.5t-13.5 11.5q-14 63 -14 178q0 111 31 111h274zM356 856q-28 0 -28 -8q0 -17 12 -29q-2 3 3.5 6t14 9t11.5 14q-8 8 -13 8zM315 782l4 6l-6 5zM334 793q-2 0 -4 -1.5t-3 -3.5 l-1 -2q0 -4 8 -4q4 0 4 4zM344 764q-12 0 -12 -4q3 -6 16 -6q11 0 17 6q0 4 -21 4zM297 369l-6 -4v10zM272 315h246q7 0 13 -13t6 -21v-222q0 -17 -7 -35t-22 -18h-254q-12 4 -23 4l-10 8v263q0 34 51 34zM463 303l-49 -16q2 -9 4.5 -14t7 -9t12.5 -4q25 0 25 21v22z M449 193q-23 0 -23 -35l-6 -11l18 -6q4 0 7.5 21.5t3.5 30.5zM367 121l4 -15q6 6 6 13zM313 117q-8 0 -10 -4q0 -7 10 -7q4 0 4 7q0 4 -4 4z" />
<glyph unicode=";" horiz-adv-x="757" d="M248 903h258q8 0 18 -4.5t13 -11.5q14 -61 14 -178q0 -111 -31 -111h-272l-17 16l-10 230q0 7 1 18t8 26t18 15zM322 696l-19 6q0 -20 23 -32zM453 684q-2 0 -15.5 -3t-15.5 -3q-10 -1 -13.5 -4.5t-3 -7t-2 -9t-10.5 -10.5q13 -7 13 -14q0 -3 -2 -5.5t-6 -5.5t-5 -4h4 q9 1 18.5 15t16.5 14h8q13 21 13 37zM322 649q-11 0 -11 -12q0 -15 8 -23l27 23l-4 8zM569 295l-110 -260v-21l-97 -182q0 -3 -9.5 -19t-12.5 -16h-135q-21 0 -21 39q0 51 5 125t10.5 126t14 129t9.5 91l21 23h325v-35z" />
<glyph unicode="&#x3c;" horiz-adv-x="956" d="M637 987q16 0 117 -115q12 -3 28 -36v-7q-38 -31 -61 -63l-229 -217q-17 -17 -17 -35l268 -266l39 -27q0 -14 -22 -39l-129 -108q-9 -6 -29 14l-170 164l-8 16l-6 39l-10 2l-21 -10l-100 96q-113 95 -113 125q0 20 13 38.5t42 47.5l56 49l338 320q12 12 14 12zM428 385 q0 -17 22 -38t37 -21q0 14 -22.5 36.5t-36.5 22.5zM578 383q-1 -2 -5 -15t-7 -24.5t-3 -15.5q0 -25 12 -25q3 0 3 2q1 3 4 22.5t4 22.5v8q0 17 -8 25zM408 356l-9 -10q2 -4 13 -4q0 12 -4 14zM461 322l-6 8q-6 0 -19.5 -5.5t-13.5 -11.5q10 0 20 -9t17 -9t13.5 7.5t6.5 16.5 zM516 319q10 -30 31 -30h10q-8 13 -20.5 16t-20.5 14zM483 285q0 -13 12 -24t25 -11h6q-14 2 -23 18.5t-20 16.5zM313 256l13 20q7 -2 16 -20l-12 -4l-4 8l-7 -8zM569 272q-6 0 -6 -10q0 -3 1 -6t2.5 -6.5t2.5 -5.5q11 2 11 12q0 16 -11 16zM399 238q4 0 4 -9q0 -2 -4 -6 q-4 0 -4 6q0 9 4 9zM557 236h-10q5 -9 16 -9h6q-2 9 -12 9z" />
<glyph unicode="=" horiz-adv-x="966" d="M219 817h533q6 0 6 -26l12 -193l-10 -16q-180 -4 -228 -4q-71 0 -147.5 2t-89.5 2q-6 0 -19.5 -1t-19.5 -1q-59 0 -59 14v209q0 1 3 4.5t8.5 6.5t10.5 3zM303 768l-2 -14q0 -26 29 -29v8q0 10 -4 13.5t-15 3.5v10q0 4 -8 8zM393 637l2 16q-11 0 -17 -4.5t-11 -12 t-11 -11.5l25 -15q1 -1 4 -9.5t8 -8.5l10 26l-14 9q0 1 2 5t2 5zM457 481q65 0 162.5 -3t142.5 -3q8 0 8 -26v-193l-10 -16q-28 -1 -80.5 -2t-77.5 -2q-1 1 -5.5 11t-7.5 16t-8.5 14t-11.5 12q-4 -13 -14 -27.5t-10 -25.5q-71 0 -154 2t-96 2q-6 0 -19.5 -1t-19.5 -1 q-72 0 -72 16l13 205q0 1 3 4.5t8.5 6.5t10.5 3q40 0 119 4t119 4zM569 428q-8 0 -19.5 -5t-12.5 -11q0 -17 6 -23q0 17 13 23.5t13 15.5zM565 373q-12 -8 -24 -8q-3 0 -7 1t-6 1q2 -9 19 -9q20 0 20 13zM580 367q-23 -20 -23 -58q0 -14 10 -14q0 15 7 36t18 21q7 0 10 -8 l16 16q-35 7 -38 7z" />
<glyph unicode="&#x3e;" horiz-adv-x="960" d="M317 989q3 0 12 -5.5t11 -6.5l334 -322q112 -98 112 -127q0 -17 -12.5 -34.5t-42.5 -49.5q-18 -18 -55 -47l-301 -297q-12 -12 -37 -12q-13 0 -21 4q-7 2 -69 60.5t-68 58.5v8q32 22 56 57l233 228q16 12 16 35l-292 272l-19 25q4 12 6 12l131 139q2 2 6 2zM647 897l2 -8 q0 -27 -49 -41l-2 8q0 5 3 10t6.5 8.5t10.5 7.5l10.5 6t11.5 6zM586 713q-16 0 -22 -9.5t-8.5 -27.5t-6.5 -25q-21 -8 -23 -10q-8 -6 -20 -19t-12 -16q0 -8 8 -25t14 -20q4 -3 24 -8.5t25 -5.5q0 13 -6 21t-13.5 10.5t-13.5 8t-6 15.5q0 7 30 46t30 65zM586 590q-9 0 -11 -4 q12 -6 19 -6q0 10 -8 10zM565 535q-22 -8 -44.5 -25t-22.5 -35q0 -6 4 -8q14 0 35.5 5.5t27.5 12.5q4 0 4 25q0 17 -4 25zM674 494l-8 2q-28 0 -49 -27t-21 -55q0 -35 10 -35q0 23 6.5 40t11.5 24.5t24 25.5t26 25zM705 100l12 25q10 -5 18 -25l-12 -4l-6 10l-6 -10zM584 86 l-41 4l4 4l35 4zM641 96q-15 -26 -39 -26l23 26l6 -6q4 0 10 6zM690 27q4 -4 4 -11q0 -2 -4 -6q-4 0 -4 6q0 11 4 11z" />
<glyph unicode="?" horiz-adv-x="847" d="M317 1470q151 0 249 -97t98 -249q0 -31 -14 -95t-34 -122q-7 -17 -29 -65t-34 -85t-12 -69q0 -22 6 -33t28 -30q9 -123 9 -209q0 -35 -12.5 -42t-61.5 -7q-135 0 -210 71.5t-75 206.5q0 69 51 214t54 167q0 45 -72 96q8 5 8 13q0 2 -1 6.5t-1 7.5q-25 0 -31 -12 q-49 25 -49 34q0 21 4 37l72 228q7 23 17 28.5t40 5.5zM397 1352q-4 -2 -4 -4q0 -1 2 -4.5t2 -4.5q2 0 2 9q0 4 -2 4zM330 1348q0 -14 14 -37l25 22q-30 15 -39 15zM272 1278q-16 0 -16 -16l16 -17q7 0 11 5.5t4 11.5q0 8 -2 11.5t-4.5 4t-8.5 0.5zM244 1212v-8q0 -14 6 -30 t16 -19l10 10q0 4 -12 23t-20 24zM467 979l25 10l-15 4zM516 989q2 -4 14 -4q-4 4 -14 4zM403 942q-6 0 -6 -22v-15q6 24 6 37zM575 918q-16 -33 -26.5 -43.5t-31.5 -16.5t-38 -16h10q31 0 60 19t29 46q0 2 -1.5 6t-1.5 5zM418 877l-17 24q0 -31 13 -31q0 3 4 7zM524 313 l45 -6q4 -6 8.5 -21.5t4.5 -23.5v-239q0 -25 -66 -25q-138 0 -240 4q-12 12 -12 27v264l21 20h239zM440 197q-22 0 -22 -35l-6 -10l18 -7q4 0 7 21t3 31zM358 125l4 -14q7 7 7 12zM305 121q-8 0 -10 -4q0 -6 10 -6q4 0 4 6q0 4 -4 4z" />
<glyph unicode="@" horiz-adv-x="1794" d="M879 1468q160 0 301 -57.5t247 -161.5q0 -18 -7 -42t-7 -38l-8 -12q-6 -1 -16 -19t-29 -18q-87 101 -212.5 158t-266.5 57q-259 0 -425.5 -171.5t-166.5 -432.5q0 -284 170 -461.5t450 -177.5q162 0 295 76q5 0 8 -2.5t4.5 -7.5t7.5 -15.5t15 -21.5q33 -40 33 -45l-4 -8 q-180 -101 -377 -101q-173 0 -315.5 62.5t-235.5 169t-144 246t-51 296.5q0 90 23 170.5t68 186.5q6 19 17 37t18.5 26.5t26.5 28t24 24.5q90 89 167 141.5t174 82.5t216 30zM449 1438l12 24q11 -5 18 -24l-12 -4l-6 10l-6 -10zM330 1427h-43l6 7h41zM385 1434 q-15 -27 -39 -27l23 27q0 -1 6 -7q3 0 10 7zM543 1419q4 -4 4 -10q0 -2 -4 -6q-4 0 -4 6q0 10 4 10zM1464 1210q185 -211 185 -505q0 -146 -54 -269q0 -1 -2 -3t-2 -3q-36 -79 -92.5 -110t-134.5 -31q-60 0 -128.5 38.5t-86.5 84.5q-28 -46 -104.5 -84.5t-159.5 -38.5 q-125 0 -215 57.5t-133 153t-43 217.5q0 103 40.5 191.5t126.5 147t203 58.5q171 0 242 -129v96l8 4l53 5l88 -5l2 -18l-6 -473q0 -154 113 -154q41 0 69 14.5t43.5 37t24 61.5t10.5 73.5t2 88.5q0 205 -120 366q-3 3 2 12t11.5 19.5t6.5 15.5q7 0 11.5 5t5.5 11v5v16 q8 4 18.5 24.5t15.5 20.5zM270 1016q-2 -4 -8 -6t-6 -4q4 -7 4 -11q6 3 10 21zM1040 999q-12 0 -12 -18q21 0 23 10q-3 8 -11 8zM1124 977q17 -22 23 -33v14q-7 7 -23 19zM1059 963q-7 0 -12 -5.5t-5 -13.5q21 0 31 10q-2 9 -14 9zM285 954l-43 -8q0 -10 28 -24q1 5 8 16.5 t7 15.5zM1022 954q-8 -3 -8 -18l2 -12q1 1 5.5 5t6.5 6.5t2 6.5q0 7 -8 12zM1100 940v-4q0 -15 30 -27l3 11q0 20 -25 20h-8zM874 920q-85 0 -128.5 -61t-43.5 -171q0 -16 -2 -26.5t-2 -12.5q0 -14 9 -40t10 -29q37 -80 162 -80q63 0 114 54.5t54 139.5q-3 91 -51.5 158.5 t-121.5 67.5zM197 913q-6 -1 -10.5 -7t-4.5 -9q0 -28 20 -51t40 -23q29 0 34 15q-29 5 -41.5 10.5t-16.5 9t-9.5 22.5t-11.5 33zM1171 909l11 -20q12 9 12 20h-23zM1161 879l-2 -21q0 -31 12 -51l21 10q-4 6 -12.5 31t-18.5 31zM1114 836h-12q0 -15 -12 -31h4q20 0 20 31z M205 772l-4 -6q0 -2 8 -2q0 8 -4 8zM252 756l4 -17q8 4 8 9q0 3 -2 4.5t-5.5 2.5t-4.5 1zM600 563l-8 2q-17 0 -25 -18q6 -6 8 -6q16 0 25 22zM668 539q-15 0 -15 -11q0 -5 6 -8q9 2 9 19zM614 528q-4 0 -10 -5.5t-6 -8.5q0 -8 6 -26.5t10 -22.5q4 5 10.5 23.5t6.5 25.5 q0 3 -7 8.5t-10 5.5zM698 526q-14 0 -14 -12q0 -10 6 -12q8 11 8 24zM766 510v6q-2 -4 -12 -14q-7 0 -14 4l-7 4l-20 6q-8 0 -8 -16q0 -19 24 -19q37 0 37 29zM682 504l-2 10q-18 -10 -18 -25l2 -10q18 10 18 25zM578 481l-17 6q0 -22 23 -32l2 16zM674 465h-17 q-22 0 -24 -10q4 -11 14 -11q14 0 27 21zM354 289q-2 0 -2 -6q0 -9 2 -11q2 0 2 11q0 6 -2 6zM367 250q-17 0 -25 -25q4 -3 8.5 -4t11.5 -1t11 -1q1 0 6.5 6.5t7.5 7.5q-9 17 -20 17zM1069 190l8 -6q0 -8 -8 -8q-10 0 -10 10q4 4 10 4zM1147 184l-4 -8l-2 12zM1163 188l6 -6 q0 -6 -6 -6q-8 0 -8 6q6 6 8 6zM1028 166q0 -6 -2 -8q-4 -4 -8 -4q0 2 4.5 7t5.5 5zM788 141q0 -14 -6 -16l-10 8q2 8 16 8zM1071 92q-1 0 -3.5 -2t-2.5 -4q0 -8 6 -8q8 0 8 6q0 8 -8 8zM1401 39q0 -11 -6 -35v14q0 21 6 21zM1573 14l2 -8q0 -29 -28.5 -48t-59.5 -19h-10 q17 10 38 16t31.5 16.5t26.5 42.5zM1399 -2l16 -23q-4 -4 -4 -8q-12 0 -12 31z" />
<glyph unicode="A" horiz-adv-x="1597" d="M680 1427h244q10 0 58 -112t48 -125q66 -173 139.5 -355.5t179.5 -437t146 -352.5q0 -28 -25 -35.5t-90 -7.5l-104 2q-104 2 -158 2q-6 14 -17 43t-18.5 46t-21.5 41.5t-31 45.5q-14 -1 -56.5 5t-78.5 6l-256 -5q-5 0 -36 2.5t-34 2.5q-22 0 -38 -27.5t-23.5 -62 t-19.5 -69.5t-27 -46q-56 -2 -137 3t-136 5q-86 0 -86 24q0 3 1 10t1 9l119 344q27 54 65 160t48 131q13 34 55 139.5t64 163.5q3 8 21 24.5t22 26.5q7 17 17.5 28.5t10.5 18.5t-7 31t1 31q37 90 107 274q2 16 53 16zM743 1180l-2 8q-49 -24 -49 -41l2 -8q49 14 49 41z M895 1114q-43 0 -43 -24q0 -10 8 -18.5t17 -8.5q17 0 31 6t14 18q0 11 -8 19t-19 8zM678 1106q-23 -8 -45.5 -24.5t-22.5 -34.5q0 -7 4 -9q14 0 36 6t28 13q4 0 4 24q0 17 -4 25zM786 1065l-8 2q-28 0 -48.5 -27t-20.5 -55q0 -35 10 -35q0 23 6.5 40.5t11 24t24 25 t25.5 25.5zM543 1055q-13 -46 -13 -72q19 25 19 43q0 4 -3 16t-3 13zM680 1004q-16 0 -22 -9.5t-8.5 -27.5t-6.5 -25q-20 -8 -22 -10q-8 -7 -20.5 -19.5t-12.5 -15.5q0 -8 8 -25t14 -20q4 -3 24 -8.5t25 -5.5q0 13 -6 21t-13 10.5t-13 8t-6 15.5q0 7 29.5 46t29.5 65z M870 969q-12 -42 -12 -72q19 25 19 43q0 3 -3.5 15.5t-3.5 13.5zM547 924q-10 -11 -19 -39q7 -4 8 -14t-1 -11q-5 -4 -9 -13.5t-4 -12.5q0 -36 8 -41q2 -1 6.5 -15t6.5 -14q0 16 -1 35t-1 30q0 6 3 40.5t3 54.5zM381 895l-19 -12q0 23 23 30zM680 881q-8 0 -10 -4 q14 -7 18 -7q0 11 -8 11zM809 739l-27 64q-9 0 -68 -141t-59 -166t45 -25h54q9 0 27 0.5t29 1t27 1t25.5 2t19.5 3t14.5 3.5t4.5 5q0 27 -10.5 58t-52.5 129q-20 51 -29 65zM936 784l-16 -16q10 -20 36 -20q0 28 -20 36zM537 723l8 12l-15 15zM543 702q-9 0 -11 -4 q12 -6 19 -6q0 10 -8 10zM541 674q-12 0 -18.5 -14t-6.5 -29q0 -17 19 -25q5 2 17 15.5t13 23.5q0 11 -7 20t-17 9zM393 612q-12 0 -12 -22q0 -10 10 -15q15 15 17 21q0 6 -4.5 11t-10.5 5zM553 592q-6 0 -9.5 -3.5t-4.5 -10t-1 -12t0.5 -14.5t0.5 -13q0 -19 6 -19 q0 24 4 43.5t4 28.5zM397 565l-4 -2l2 -22l17 6q0 5 -4.5 11.5t-10.5 6.5zM375 520q-4 -2 -4 -8q0 -5 14 -12v4q0 11 -10 16zM424 520h-4l-6 -24q32 0 32 10q0 14 -22 14zM535 508l-9 -2l4 -43l33 10q0 12 -8.5 23.5t-19.5 11.5zM393 494v-9q0 -14 10 -18v10q0 15 -10 17z M375 467l-10 12l-5 -4q0 -9 10 -19t17 -10h4q-4 6 -5.5 9.5t-1.5 4t-1.5 2t-7.5 5.5zM567 426l-4 20q-22 0 -22 -32zM528 397v-14q0 -27 19 -33v17q0 26 -19 30zM1235 319l-2 17q-26 0 -42.5 -27t-23.5 -55l9 -2q24 0 41.5 22t17.5 45zM530 334q-8 -4 -8 -17q0 -9 29 -24v10 q0 18 -21 31zM379 309l-4 21q-23 0 -23 -33zM369 242l8 12l-15 14zM1157 178q-14 0 -21.5 -12.5t-7.5 -26.5q48 0 54 21q-8 18 -25 18zM397 158l-61 -6q0 -19 10.5 -33.5t30.5 -14.5q20 24 20 54z" />
<glyph unicode="B" horiz-adv-x="1380" d="M236 1438h532q86 0 164.5 -25.5t143 -74.5t103 -128.5t38.5 -179.5q0 -89 -54 -192q-5 -7 -27 -29.5t-39.5 -42.5t-17.5 -27q0 -3 11 -14q155 -136 155 -319q0 -92 -34 -168.5t-90.5 -126t-127 -78t-147.5 -33.5q-95 0 -215.5 -1t-155.5 -1q-129 0 -246 8q-24 7 -24 51 l4 1348q2 2 6 11.5t9 15.5t12 6zM358 1317q-18 -7 -18 -25q0 -43 33 -43q35 0 35 27l-2 8q-4 6 -23 18.5t-25 14.5zM340 1151v-31q9 3 15.5 12.5t6.5 18.5h-22zM586 1145q-6 -2 -13.5 -8.5t-7.5 -10.5v-221l15 -12h55l12 2q73 4 116.5 29.5t43.5 89.5q0 17 -4 37 q-3 13 -10 28q-22 42 -73 54t-134 12zM977 1104q14 -20 14 -43h15q0 43 -29 43zM324 991v25q-13 0 -26 -2.5t-26.5 -13.5t-13.5 -29q25 20 66 20zM1006 1010q-2 -2 -15.5 -11.5t-15.5 -11.5v-6q0 -13 14 -23l-14 -40q2 -2 8 -27q4 0 13 5l8 5q8 4 8 21l-13 4q15 11 15 28 l-8 2l4 15l12 6q0 26 -16 33zM455 971q-17 -6 -17 -31q0 -26 17 -51q31 20 73 20q0 6 -16 18.5t-34.5 26t-22.5 17.5zM999 883q-8 -8 -8 -64l19 47q0 17 -11 17zM506 823q-3 0 -10 -6t-7 -10q0 -6 7 -25t10 -24q3 5 9.5 24t6.5 25q0 4 -6.5 10t-9.5 6zM1006 819 q-4 -17 -19 -22q2 -2 5 -6.5t5.5 -7.5t5.5 -6.5t6.5 -5t6.5 -1.5q0 29 -10 49zM662 741q-1 0 -12 -19.5t-21.5 -40.5t-10.5 -26q23 0 52 24.5t32 47.5l-24 -10q0 24 -16 24zM367 668l-17 -47q17 0 28 11t11 25zM989 664l-6 -35q32 0 39 16q-11 19 -33 19zM414 639 q-5 -18 -19 -23q1 -2 4.5 -6.5t6 -7t5.5 -6t6.5 -5t6.5 -1.5q0 29 -10 49zM385 606q-35 0 -35 -12l6 -23q4 0 12 5.5t9 5.5q3 1 5.5 10.5t2.5 13.5zM993 606q-6 0 -6 -24l4 -7q3 0 8 7.5t5 11.5q-2 1 -6 6.5t-5 5.5zM643 582q-25 0 -35.5 -0.5t-22.5 -3t-16 -8.5t-4 -17 v-231l15 -7l26 -2l41 -2l29 -2q46 0 83.5 10.5t66 41.5t28.5 79q0 42 -16 68q-41 74 -195 74zM455 561l-21 6q0 -30 19 -30zM987 559q-4 0 -4 -4q0 -5 4.5 -9.5t9.5 -4.5l7 4q0 4 -6 9t-11 5zM383 549l-6 -35q32 0 39 16q-11 19 -33 19zM1010 526l-21 6q0 -30 19 -30z M367 496q-1 -2 -7 -6t-6 -5q0 -6 25 -6l6 4q0 3 -7 8t-11 5zM1014 469q-2 -2 -2 -16q0 -35 57 -35q0 27 -55 51zM369 449q-4 0 -4 -5q0 -4 4.5 -9t9.5 -5l6 4q0 4 -5.5 9.5t-10.5 5.5zM987 391q-15 -7 -49 -33v-10q0 -15 17 -30t32 -15v37h23q0 42 -23 51zM1030 293l-8 -2 l33 -33v8q0 12 -7.5 19.5t-17.5 7.5zM1094 246q-7 0 -7 -4q0 -5 1 -15t7.5 -23.5t16.5 -13.5l6 3q0 53 -24 53zM336 207q-27 0 -45 -25q12 -4 14 -4q-3 0 41 25q-2 4 -10 4zM432 205l-10 -23q16 0 16 19q-4 4 -6 4zM442 176l4 -12q4 0 7.5 5t3.5 9z" />
<glyph unicode="C" horiz-adv-x="1439" d="M946 1444q57 0 84 -4q22 -2 62.5 -12t86 -26t78.5 -39t33 -46q0 -31 -66.5 -157t-78.5 -126q-4 2 -19.5 8.5t-21.5 9.5t-21.5 9t-24.5 9l-24 8t-27.5 7.5l-27.5 5.5t-30 4t-31 1q-155 0 -272.5 -110.5t-117.5 -256.5q0 -54 11 -108.5t38.5 -111t68.5 -100t107.5 -71 t149.5 -27.5q63 0 114.5 11t77 24t46.5 24t30 11q11 0 15 -4q13 -1 87.5 -125.5t74.5 -142.5q0 -23 -67.5 -58t-153 -60.5t-136.5 -25.5q-29 -6 -73 -6q-197 0 -357.5 71.5t-268 212.5t-140.5 335q0 1 -3.5 2t-3.5 2q0 4 12.5 12t12.5 12q0 14 -12.5 53.5t-12.5 63.5 q0 169 75.5 320t211.5 247q2 0 7 -2.5t5 -5.5q0 22 35 43q96 68 211.5 93.5t255.5 25.5zM434 1339l-14 -14l-17 14l9 11zM360 1257l-20 -10l6 29zM410 1233l-7 -29q14 0 24.5 11t10.5 26zM1130 1219l-2 16q-24 -29 -49 -36t-73 -7l-9 -6q35 -12 72 -12q24 0 42.5 11.5 t18.5 33.5zM397 1141l-14 -6q0 -7 5 -18t5 -17q0 -12 -6 -21q4 0 7.5 4t7 10t6.5 9v4q-9 35 -11 35zM1110 1112l6 2q0 6 -14 6zM485 1108l-8 2q-17 0 -24 -16l8 -2q14 0 24 16zM358 1008l-8 -13q0 -26 21 -32q16 6 16 26zM475 692l14 2l-8 15zM401 547h5q12 0 25 -17.5 t24 -17.5q39 0 39 39q-19 0 -45.5 8t-42.5 8zM512 512v10q-26 -18 -36.5 -33t-10.5 -40q29 0 38 16t9 47zM489 438l-22 -20q33 -24 33 -45q0 -9 -6.5 -19.5t-14.5 -15.5l10 -2q11 0 26.5 14.5t23.5 16.5q-3 14 -20.5 39t-29.5 32zM590 367q-17 0 -23.5 -5.5t-9.5 -16.5 t-8 -17q0 -1 -5 -3t-10 -4.5t-6 -3.5q-8 -24 -8 -41h8q8 0 32 37.5t30 53.5zM741 299q-16 0 -27.5 -12t-11.5 -25q13 -12 13 -14q25 15 33 49q0 2 -7 2zM770 270h-4q0 -25 -29.5 -62.5t-29.5 -62.5l2 -22q1 -1 15 -5.5t17 -6.5v-11q0 -4 9 -8q2 1 20 19q0 12 8 20 q1 1 10.5 5t10.5 5l2 4q0 9 -11.5 19t-19.5 10l-6 -24l-29 -9q0 5 -3 14.5t-3 14.5q2 4 30.5 37.5t28.5 50.5q0 3 -18 12zM1065 193l-10 -29q22 0 35 20zM334 141l-2 15q4 0 9 -3.5t5 -7.5zM1051 145l-7 -39q38 14 50 33zM309 137q19 0 19 -16l-23 10q0 2 4 6zM817 102 l-31 -8q0 -22 19 -33zM307 45q25 -44 25 -41q0 -2 -4 -14q-25 18 -25 45q0 8 4 10z" />
<glyph unicode="D" horiz-adv-x="1558" d="M1247 1438h-10q-30 0 -59 -19.5t-29 -46.5q0 -2 1 -5.5t1 -4.5q16 33 26.5 43.5t31.5 16.5t38 16zM330 1423q76 0 121.5 -0.5t120 -3.5t125.5 -10t118.5 -18t119.5 -29.5t107.5 -43.5t103.5 -61t89 -81q59 -71 82 -115q96 -169 96 -356q0 -171 -69 -323t-193 -251 q-10 10 -35.5 24t-32.5 19q-1 0 -18.5 41t-28.5 41q-6 0 -11.5 -4t-9 -8t-9 -11.5t-7.5 -9.5q0 -11 -16 -51.5t-16 -85.5q-22 -11 -56 -47.5t-69 -42.5q-119 -19 -332 -19h-104l-156 -2l-33 2l-8 9l-4 379l4 32l-2 21v956q0 49 123 49zM1313 1409q0 -2 -4 -6l16 -25 q0 31 -12 31zM1329 1360v14q-6 -24 -6 -37q6 0 6 23zM874 1321q-17 0 -30 -17t-13 -34l9 -6q18 0 26 19t8 38zM1235 1290l14 -4l11 14zM1196 1294q4 -4 14 -4q-2 4 -14 4zM328 1288q0 -2 -2 -11.5t-2 -12.5q0 -18 12 -62q0 8 1 19t1 16q0 15 -10 51zM809 1268q-2 0 -6 -5 t-4 -8q-11 -22 -11 -34l11 -2q12 0 21 11t9 23q0 6 -6 10.5t-14 4.5zM940 1266q-12 -5 -12 -17q0 -15 12 -30q12 20 12 30q0 12 -12 17zM889 1249q-7 0 -16 -12t-9 -16q0 -13 35 -13l25 2q-5 3 -15 21t-20 18zM1155 1214l6 13q-8 0 -14 -6zM1042 1214q-10 0 -12 -8 q19 0 31 -4q-4 12 -19 12zM965 1210q-3 0 -13 -2t-12 -2q36 -10 51 -10q5 0 16 1t19 1q-44 12 -61 12zM1079 1210q-6 0 -6 -4q0 -8 19 -8q-6 12 -13 12zM328 1198q-9 -2 -9 -12q0 -15 13 -19q-4 12 -4 31zM874 1196q-5 0 -10 -3.5t-11.5 -11.5t-8.5 -10h12q18 0 18 25z M950 1192q-20 -7 -24 -37h20l23 25q-4 12 -19 12zM1004 1184l14 -43q4 3 10 15.5t6 17.5q0 4 -11.5 7t-18.5 3zM1106 1167l-2 -8q0 -14 12.5 -21.5t26.5 -7.5q0 16 -11 25.5t-26 11.5zM328 1155q-4 0 -4 -6t12 -12q0 18 -8 18zM438 1133l13 4q0 4 -5.5 7t-9.5 3zM858 1114 l-2 19q-18 -5 -18 -35v-17q20 6 20 33zM414 1128q0 -2 -4 -6l22 -10q0 16 -18 16zM375 1124l-8 -2q2 -15 11 -26t25 -11q0 14 -7 26.5t-21 12.5zM1116 1102l-10 22q-4 -4 -6 -4q0 -18 16 -18zM1188 1106l-14 -14q42 0 51 20zM539 1083l10 9l-14 10zM504 1081l16 9l-8 10z M1096 1096l-15 2q0 -4 3.5 -9.5t7.5 -5.5zM319 1073l-6 8q-6 -6 -6 -14zM414 1040l-13 39q-34 0 -34 -14q0 -8 17 -16.5t30 -8.5zM977 1069l-14 -10l6 -19l28 17q-9 12 -20 12zM600 1063q-18 0 -18 -27q0 -114 2 -335.5t2 -333.5l8 -13l33 -2q399 0 399 346q0 81 -13.5 127 t-51.5 103q-13 17 -28 31t-36.5 27t-33 20t-40 20.5t-35.5 17.5q-1 1 -2 3t-2 3.5t-1.5 2.5t-0.5 2q-2 -6 -10 -6q-27 0 -84.5 7t-87.5 7zM1128 1022l11 -8l8 16zM936 1022v-6q0 -19 17 -30t36 -11q0 22 -12.5 34.5t-32.5 12.5h-8zM1137 985l8 10l-19 4zM1346 854l-17 -16 q5 -17 33 -17h16zM516 739l23 -6q0 42 -25 49zM465 737q0 -24 14 -24t25 16q-8 -2 -15 -2t-11.5 5t-12.5 5zM1288 723l-8 -2q-4 -1 -49 -31q7 -18 24 -18l7 2q8 0 33 6t34 10l2 6q0 27 -43 27zM504 698q-39 0 -39 -6q0 -2 2 -6t2 -10l-2 -19h2q16 0 25.5 13.5t9.5 27.5z M442 616l17 35l-27 4zM1194 535q-20 -6 -33 -66l-4 -37q8 0 13.5 6t5.5 15q0 5 -1 13.5t-1 12.5q0 8 2 10l18 13q2 0 2 16q0 15 -2 17zM1090 446q-38 0 -52 -15t-22 -54h8q23 0 44.5 23.5t21.5 45.5zM1112 317l4 7l4 12l-14 2zM1130 326l-4 6q0 -10 7 -21zM920 326 q-15 0 -26.5 -16t-22 -32t-25.5 -16l-15 -22q31 8 60 33.5t29 52.5zM1135 301q-17 0 -19 -12q3 -8 14 -8q5 0 21 8q-2 12 -16 12zM410 260l30 -22l-14 55zM1141 270l-4 -14l6 -2l10 -10l-6 30zM1114 250q-10 -7 -10 -19l18 -2q0 16 -8 21zM1139 233q-1 0 -3.5 -4t-2.5 -6 q1 -1 2 -2.5t2 -2.5t2 -1q2 0 2 12zM1006 182l22 39q21 -6 21 -31l-19 -6zM1141 199q0 -29 12 -31q10 0 10 8q0 9 -6.5 16t-15.5 7zM1069 178q0 -21 -22 -28l-3 8q0 20 25 20zM1081 164l2 -8q0 -15 -10 -19v10q0 15 8 17zM313 162q0 -29 18.5 -50.5t45.5 -21.5q0 36 -15 54 t-49 18zM442 80l-16 33q-3 -13 -26 -37t-23 -37v-8zM1079 109q2 -3 2 -5q0 -3 -3 -5.5t-5 -2.5l-2 2q0 11 8 11z" />
<glyph unicode="E" horiz-adv-x="1255" d="M592 1423q21 0 88.5 -1t107.5 -1q228 0 244 -16l6 -49q0 -14 -3 -100.5t-3 -102.5q0 -34 -56.5 -42.5t-201.5 -8.5q-16 0 -44.5 1t-41.5 1l-96 -2q0 -22 -4 -77t-4 -91q0 -2 -1 -4.5t-1 -3.5q0 -58 32 -58h377q7 0 15 -12.5t8 -19.5q-1 -31 -3 -136t-3 -127l-17 -12 q-334 0 -389 -6q-18 -5 -18 -61q0 -14 1 -81t1 -100q7 -13 95.5 -16t202.5 -4t154 -6q19 -12 19 -62q0 -29 -3 -88t-3 -88q0 -17 -5 -29.5t-17 -20.5t-24 -12.5t-34 -6.5t-38.5 -2.5t-45.5 -0.5q-102 0 -289 3.5t-281 3.5q-3 0 -17 -1t-26 -1q-57 0 -67 30q0 40 -1 104.5 t-1 88.5q0 13 12 28t12 21q0 15 11.5 22.5t11.5 8.5q0 3 -3.5 4.5t-12 5.5t-15.5 10q0 45 -7 138t-7 143q0 113 6 438t6 340q0 6 -2 17.5t-2 17.5l21 16q58 0 177 4t179 4zM451 1374l-5 35q-22 -9 -22 -33zM483 1364v-35l33 17q-5 18 -24 18h-9zM545 1343q-10 0 -10 -16 q0 -18 10 -18q8 4 8 16q0 10 -8 18zM293 1323l-8 2q-19 0 -41 -16l16 -17zM453 1286l16 -2l-10 21zM516 1280l33 -16l-8 30zM463 1270q-4 0 -4 -17q0 -16 6 -16q8 4 8 16q0 4 -4 10.5t-6 6.5zM483 1247v-39q43 0 52 25zM498 1188q-7 0 -19 -6q2 -4 10 -4q9 0 9 10zM477 1130 l15 15l-9 12zM489 1116q-2 0 -6 -14t-6 -15q-8 -5 -8 -40q0 -18 12 -27q2 -1 1.5 -11t-7.5 -14q9 -28 19 -39q0 20 -3.5 54.5t-3.5 40.5q0 11 1 30t1 35zM367 401h-7l9 -39l16 13q-4 26 -18 26zM393 334q-17 0 -41 -15q0 -1 12 -5.5t15 -4.5q14 0 14 25zM330 311l2 11 q-14 0 -21 -7zM270 287h11q26 0 26 18l-2 4zM276 221l-6 43q-5 -5 -17 -23.5t-15 -25.5q0 -1 7 -10t7 -10q4 3 9 14.5t15 11.5zM997 256q-20 0 -24 -35q10 -4 12 -4q16 0 21 37q0 2 -9 2zM508 250q-8 0 -10 -8q2 -9 22 -9q0 17 -12 17zM336 229h-6q-11 0 -23 -8 q11 -14 23 -14q18 0 18 12q0 10 -12 10zM469 229q0 -24 16 -24q0 11 -16 24zM420 221q-3 0 -5.5 -5.5t-2.5 -8.5q0 -5 9.5 -9.5t14.5 -4.5h4q-17 13 -20 28zM373 188v13q-27 -17 -27 -54q14 0 20.5 13t6.5 28zM307 199q-8 0 -10 -6l4 -7q3 0 9.5 3.5t8.5 3.5q-6 6 -12 6z M848 170l47 -12q0 12 -13 20t-28 10zM940 164v20q-7 -34 -39 -34q0 -33 23 -60q16 35 16 74zM252 168l-14 -49q32 14 32 22q0 17 -18 27zM786 -43l6 -2q6 -2 9 -2q-10 -6 -29 -6q-8 0 -12 2q12 8 26 8z" />
<glyph unicode="F" horiz-adv-x="1169" d="M586 1423h375q6 0 20 -6t16 -6v-268l-12 -13q-39 0 -111.5 -1t-80.5 -1q-13 0 -13 13q-4 0 -7 18.5t-5 18.5q-8 0 -8 -29q-3 0 -6.5 -11.5t-5.5 -11.5q-47 -7 -90 -7.5t-57.5 -2t-18.5 -12.5q-7 -57 -7 -111q0 -11 1.5 -43t1.5 -57q14 -31 141 -31q33 0 99.5 2t99.5 2 q50 0 61 -8q14 -61 14 -194q0 -40 -10 -62t-41 -22h-350q-7 0 -12 -8.5t-5 -18.5q0 -67 3.5 -247t3.5 -296q-14 -14 -60 -14h-293q-7 0 -15 4t-9 10q8 84 8 199q0 64 -4 212.5t-4 235.5q0 124 4 371.5t4 370.5q0 22 23 22q15 0 41 -6.5t30 -5.5q20 10 68 10q36 0 113.5 2 t97.5 2zM307 1391v-15q0 -20 6 -26q-8 -8 -8 -27l27 12l-4 21h-2v4q0 27 -19 31zM758 1354l-2 10q-17 -11 -17 -25l2 -8q17 10 17 23zM424 1276q-11 0 -18 -6t-7 -15l2 -8q23 8 23 29zM317 1274q-10 0 -10 -29q0 -8 6 -14q11 6 15 24q0 19 -11 19zM442 1241l4 6l5 13l-15 2z M461 1249l-4 6q0 -11 6 -20zM782 1227l-28 12q0 -22 20 -35zM465 1225q-17 0 -19 -13q3 -8 15 -8q4 0 20 8q-2 13 -16 13zM502 1204l-2 8q-8 -2 -8 -16v-10q10 4 10 18zM602 1186l-4 26q-6 0 -14 -1t-11 -1q0 -7 8.5 -15.5t20.5 -8.5zM324 1190v14q-1 -10 -7 -17t-12 -7 q0 -13 8 -33q-8 -10 -14 -41q4 -2 6 -2q10 0 17.5 15t7.5 30l-2 10q-7 0 -9 -4q5 30 5 35zM471 1194l-4 -14l6 -2l10 -11l-6 31zM444 1174q-10 -7 -10 -19l19 -2q0 15 -9 21zM469 1157q-1 0 -3.5 -4t-2.5 -6q1 -1 2 -2.5t2 -2.5t2 -1q2 0 2 12zM498 1157q-3 0 -6 -3.5 t-3 -6.5q1 -2 3 -2t5 2.5t3 5.5zM471 1122q0 -28 12 -30q11 0 11 8q0 9 -7 15.5t-16 6.5zM311 1044l-2 -32q13 0 13 30zM313 987q-4 0 -6 -8q2 -6 15 -6q0 14 -9 14zM322 901q-21 0 -25 -35q10 -4 12 -4q16 0 21 37q0 2 -8 2zM305 844q0 -15 4 -23q-20 -6 -20 -37 q47 0 53 21q-10 16 -16 18q-6 12 -21 21zM498 739l8 -2q9 0 16.5 7.5t7.5 19.5q-6 4 -6 6zM836 725q-9 -4 -11 -4q11 -31 33 -49l2 16q0 37 -24 37zM516 668q0 2 -3 -2l-7 -15q0 -19 24 -28v8q0 13 -14 37zM772 469v-27q-5 0 -10.5 5t-5.5 12q0 4 6.5 7t9.5 3zM834 348 l-9 45q23 -13 23 -35zM467 281l-12 26q-2 -10 -20.5 -29t-18.5 -28v-8zM496 268l-13 -16q0 -18 13 -25l26 29zM516 193q-14 0 -20 -3q14 -16 51 -38q2 4 2 6q0 35 -33 35zM506 141q0 -35 16 -41q15 9 15 21q0 10 -10 15t-21 5zM438 123l13 4q0 4 -5.5 7t-9.5 3zM414 119 q0 -2 -4 -6l22 -11q0 17 -18 17zM375 115l-8 -2q2 -15 11 -26t25 -11q0 14 -7 26.5t-21 12.5z" />
<glyph unicode="G" horiz-adv-x="1693" d="M866 1442q131 0 241 -33.5t234 -110.5q19 -13 19 -32q0 -14 -12 -33l-142 -225q-11 -13 -24 -13q-18 0 -51 20t-39 23q-126 45 -205 45q-167 0 -269 -106.5t-102 -278.5q0 -148 99.5 -258t244.5 -110q86 0 146.5 26t115.5 88q13 15 31 53.5t18 57.5q-10 0 -43 3t-59 3 q-58 0 -82 8q0 4 -2 56.5t-2 103.5q0 17 1.5 44t3.5 47t3 20l13 20q24 4 131 4q70 0 216 -6t220 -6q20 -10 20 -51q0 -185 -47.5 -338.5t-139 -266.5t-233 -176t-321.5 -63q-60 0 -80 8q-6 2 -16 2q-65 0 -209 66q-124 55 -230 182.5t-145 263.5q-25 80 -25 223 q0 181 73 335t202 255q11 8 29.5 35t31.5 27q4 0 25.5 -15.5t50.5 -15.5q12 0 23.5 34t23.5 38q121 47 262 47zM453 1403q8 0 18 -3.5t10 -10.5q0 -5 -4 -9t-10 -4q-14 0 -14 27zM504 1386q10 -4 10 -30q-20 0 -20 16q0 10 10 14zM561 1305q-8 -4 -8 -17q0 -8 8 -14 q10 20 10 22q0 1 -4 5t-6 4zM573 1257q-6 0 -18 -6q2 -4 10 -4t8 10zM553 1200l14 14l-8 13zM465 1206q-7 0 -13 -13t-6 -19v-7q15 23 39 29q-1 3 -9 6.5t-11 3.5zM565 1186q-2 0 -6 -14t-6 -15q-8 -5 -8 -41q0 -17 12 -26q2 -1 1.5 -11t-7.5 -14q1 -3 2 -8.5t2.5 -9 t4.5 -9.5t9 -12q0 20 -3 54t-3 40q0 10 1 30t1 36zM434 1094l6 71q-16 -8 -16 -24q0 -18 10 -47zM436 1087q16 -22 35 -22q0 22 -35 22zM954 784l9 -2q-9 -28 -31 -28q-10 0 -12 2q2 2 16.5 13.5t17.5 14.5zM1227 692q-6 0 -11.5 -4.5t-5.5 -11.5q0 -17 43 -17 q0 12 -7.5 22.5t-18.5 10.5zM1190 629l-2 24q-21 -14 -21 -35zM1141 637l-4 10q-54 0 -54 -22zM1352 455l-6 -58q4 1 10 2t8.5 2t5 3.5t2.5 7.5q0 9 -9.5 23.5t-10.5 19.5zM358 444q-8 -10 -8 -12q0 -6 3.5 -12t11 -13t10.5 -12l2 17q0 26 -19 32zM1262 350l-19 -28 q14 0 25.5 11.5t11.5 24.5zM1231 340l-47 -23l6 -26q19 0 30 15t11 34zM1247 281q-16 -11 -16 -25t11.5 -21.5t25.5 -7.5q0 46 -21 54zM715 238v22q-22 0 -33 -22h33zM1116 199l-5 -13q-3 -16 -3 -30q0 -22 8 -25q8 8 8 33q0 23 -8 35zM698 188l-6 -20q0 -20 23 -29l2 17 q0 26 -19 32zM1253 174l13 4q0 4 -5.5 7t-9.5 3zM641 164l-2 18q-16 -5 -16 -32v-19q18 6 18 33zM1229 170q0 -2 -4 -6l22 -10q0 16 -18 16zM1190 166l-8 -2q2 -15 11.5 -26t25.5 -11q0 14 -7.5 26.5t-21.5 12.5zM1083 131h-22q0 -65 31 -65l6 2zM373 53h10q-17 -10 -38 -16 t-31.5 -16.5t-26.5 -43.5q0 1 -1 5t-1 6q0 27 28.5 46t59.5 19zM449 25q12 0 12 -31l-17 24q5 5 5 7zM465 -10v-15q0 -22 -6 -22q0 13 6 37zM385 -98l-14 4l24 10zM332 -90q12 0 14 -4q-10 0 -14 4z" />
<glyph unicode="H" horiz-adv-x="1562" d="M975 1587h10q-17 -10 -38 -16t-31.5 -16.5t-26.5 -43.5q0 1 -1 5t-1 6q0 27 28.5 46t59.5 19zM1051 1559q12 0 12 -31l-16 24q4 4 4 7zM1067 1524v-15q0 -22 -6 -22q0 13 6 37zM332 1485q35 0 35 -19q0 -6 -5 -14q-30 15 -30 33zM987 1436l-14 4l24 10zM934 1444 q12 0 14 -4q-10 0 -14 4zM264 1423h293q30 0 35 -24q0 -28 -2 -194t-2 -210q0 -46 4 -75.5t4 -34.5h352q49 0 49 147q4 40 4 60q0 16 -2 113.5t-2 123.5q0 9 1 28t2 35l1 15l25 12h320l12 -12v-1100q0 -44 -6 -145t-6 -146q-1 -5 -9.5 -9.5t-13.5 -4.5h-315q-14 0 -21.5 40 t-7.5 95q0 64 1 106t2 59t4 57.5t5 66.5l-14 147l-10 7q-33 0 -132 3t-135 3q-89 0 -102 -13l-12 -10q0 -31 -2 -64t-2 -53q0 -22 -7 -42.5t-16 -20.5q-5 0 -10.5 -3.5t-11 -9.5t-7.5 -8q0 -4 15.5 -10.5t15.5 -15.5q10 0 17.5 -19t7.5 -36q0 -161 -4 -265q-12 -18 -60 -18 q-149 0 -293 12q-24 8 -24 66q0 215 10 647.5t10 644.5q4 55 39 55zM416 1389l-39 -13q0 -3 4.5 -7.5t7.5 -4.5q29 0 29 18zM1176 1186q-8 0 -14.5 -8t-6.5 -21q27 0 37 19q-2 0 -8.5 5t-7.5 5zM453 1141h-15q0 -60 19 -60q6 0 12 4t6 11zM1180 1124q-3 0 -16.5 -5.5 t-14.5 -8.5q18 -9 18 -33q0 -3 -2 -10v-4q33 21 33 37q0 24 -18 24zM547 1096v22q-24 0 -33 -22h33zM1280 1028q-4 -3 -10 -16t-6 -19q0 -8 12.5 -13t19.5 -5q0 29 -16 53zM487 1022q-4 0 -4 -16q0 -17 6 -17q9 5 9 17q0 4 -4.5 10t-6.5 6zM406 991l-23 25q-14 -28 -14 -39 q14 0 37 14zM1106 946q-17 0 -30 -12t-13 -27q15 0 29 12.5t14 26.5zM563 928l-10 10q-4 0 -22 -12.5t-23 -20.5h8q12 0 28 6.5t19 16.5zM1210 909l-6 23q-12 -12 -12 -33v-10q18 4 18 20zM977 799q-12 0 -12 -4q13 -26 22 -33q12 12 12 22q0 15 -22 15zM268 788 q-5 0 -9.5 -5t-4.5 -11q0 -18 14 -18q8 4 8 16q0 10 -8 18zM1126 784h-14q24 -6 35 -6q0 6 -21 6zM1083 764l23 16q-31 0 -31 -12q4 0 8 -4zM1047 702v-10q0 -31 19 -59.5t48 -28.5l8 2q-32 16 -42.5 26.5t-16.5 31.5t-16 38zM1085 498q-16 -11 -16 -27q0 -18 33 -22 q2 4 2 6q0 6 -2 11.5t-4 9l-6 10.5t-7 12zM332 477l-17 -6q11 -14 23 -14zM369 461q-3 0 -7 -4t-4 -6q-4 -20 -4 -70q25 2 25 55q0 21 -10 25zM362 358l-4 -2q-1 -17 -11.5 -39.5t-10.5 -35.5q17 0 30 20.5t13 38.5t-17 18zM1241 281l-4 22q-1 -1 -9 -8.5t-15 -14.5t-9 -10 q0 -10 5 -14.5t18 -7.5q14 16 14 33zM326 272q-41 0 -41 -32l2 -9h6q33 0 33 41zM1231 229q-6 0 -6 -4l-8 -37q16 0 16 -16q0 -9 -10.5 -18.5t-10.5 -18.5q0 -10 21 -10q6 0 22.5 25t16.5 34q0 18 -12 31.5t-29 13.5z" />
<glyph unicode="I" horiz-adv-x="808" d="M242 1419q58 0 170 -4t170 -4l14 -8l8 -12v-21v-41q0 -769 -10 -1317q-5 -12 -13.5 -17.5t-15.5 -6t-26 -0.5h-248q-3 0 -15 1t-24 1q-32 4 -39 26q-8 86 -8 254q0 154 7 461t7 459q0 23 -1 60l-1 38q3 15 4 48.5t5.5 54.5t15.5 28zM502 1257l-8 -2q14 -49 41 -49l8 2 l-3 8l-6 10.5l-6 10.5t-7.5 10.5t-8.5 6.5t-10 3zM553 1167q-10 -4 -10 -22v-12q12 4 12 22zM459 1090h-6q-9 -9 -21 -33q2 -2 17 -2q11 0 14.5 0.5t7.5 5.5t4 16q0 6 -5.5 9.5t-10.5 3.5zM510 1059l-2 16q-16 -32 -16 -41l2 -8q16 6 16 33zM498 946l-11 -51q13 0 19 16.5 t6 30.5zM393 580q-2 1 -4 -3.5t-3 -11.5t-1 -14q0 -20 8 -23q8 8 8 25q0 19 -8 27zM287 520q-11 -4 -11 -18q0 -15 35 -27v10q0 24 -24 35zM264 428q-3 0 -7.5 -3.5t-4.5 -6.5q0 -18 23.5 -38t39.5 -20h7q-7 10 -10.5 17t-3 8.5t-1 4t-5 5.5t-15.5 11q-3 2 -12.5 10.5 t-10.5 11.5zM348 426q-12 -20 -12 -55l45 18q0 15 -8.5 26t-24.5 11zM313 283l-2 24q-26 0 -26 -39zM350 166q-2 2 -3 -3l-1 -11q0 -15 4 -15q2 2 2 15q0 12 -2 14zM352 98l-2 23q-4 0 -4 -23l2 -20q4 0 4 20zM356 20l6 -6v11z" />
<glyph unicode="J" horiz-adv-x="888" d="M489 1427h158q31 0 41 -30l4 -51q8 -126 8 -189v-520q0 -17 -3 -50t-3 -69q0 -22 3 -126t3 -134q0 -126 -94 -201t-299 -75q-92 0 -127 12q-32 10 -41 31q0 36 -1 106t-1 78q0 72 27 76q85 0 116 19.5t37 84.5q0 36 4.5 218.5t4.5 207.5q0 53 -4.5 162.5t-4.5 150.5 q0 293 25 293q23 0 33 -2q16 -3 16 -80q0 -8 12 -8q6 0 12.5 23t6.5 39q0 5 11 10t11 14q3 0 14 5t31 5zM432 1329l-8 -2q8 -16 25 -16l10 2q-9 16 -27 16zM365 1307l18 -2q27 0 33 20h-17q-29 0 -34 -18zM336 1311q0 -29 14 -29l4 2q-5 27 -18 27zM393 1260q0 -14 27 -19 l2 4q0 15 -29 15zM508 1217l-8 16h-25zM399 1212l-2 19q-18 -5 -18 -35v-16q20 6 20 32zM469 1194q20 -10 35 -10q6 0 14 10l-29 8q-12 0 -20 -8zM475 1174q-21 0 -36 -20t-15 -40l10 -8q20 0 30.5 23.5t10.5 44.5zM537 1165l-17 -12l8 -23l33 19q-10 16 -24 16zM506 1163 q-14 0 -19 -26l5 -2q14 0 14 28zM575 1124l-2 9q-16 -8 -16 -25l2 -10q16 9 16 26zM440 1087q-10 -20 -10 -34q0 -7 10 -15l9 29q0 11 -9 20zM463 1049l16 8v24zM586 489q-8 0 -14.5 -7.5t-6.5 -16.5q0 -14 7.5 -35t9.5 -31l10 7l4 63l8 6q-10 14 -18 14zM508 385 q-9 0 -19 -7.5t-10 -17.5q0 -9 15 -18q14 25 14 43zM612 336q-8 -3 -8 -17l-6 -6l4 -6q0 -15 10 -18q9 2 9 14q0 31 -9 33zM549 332q-14 -6 -14 -19q0 -15 14 -32q14 17 14 32q0 13 -14 19zM537 260l-43 31q0 -58 26 -58zM610 205h-10q5 -17 35 -17h14q-24 17 -39 17z M236 102l43 9q0 24 -21 30z" />
<glyph unicode="K" horiz-adv-x="1482" d="M942 856l397 -821q0 -2 1 -6.5t1 -5.5q0 -35 -122 -35q-72 0 -167.5 6t-105.5 6l-14 10q-14 14 -230 473q-1 10 -4 18.5t-5.5 13.5t-8.5 15.5t-10 18.5q-5 0 -47.5 -58t-46.5 -67q0 -36 1 -118.5t1 -153.5q0 -57 -2 -82q-13 -9 -17 -19.5t-10 -15.5l-25 -6q-4 6 -36 6 l-9 10l6 41q-2 0 -4.5 18.5t-3.5 18.5v4q-1 0 -12 23q-5 -58 -6 -58q0 -8 -4 -18t-4 -21q-7 -25 -16 -37t-9 -20q-25 -2 -68 -2q-35 0 -94 8t-59 14v705q12 96 12 113q0 91 -8 275.5t-8 274.5q0 38 16 46q104 6 291 6q63 0 63 -23v-418q0 -20 5 -20q15 0 36 26.5t43 60.5 t35 44l230 311q10 13 28 13h303l50 -9q4 0 4 -8q0 -14 -4 -18l-88 -140l-13 -8l-262 -350q-6 -6 -6 -16q0 -15 6 -25zM471 1348v6q-18 -9 -18 -17t6 -10q12 7 12 21zM469 1305v12q-12 -4 -12 -23v-10q12 4 12 21zM481 1266l-16 8q0 -21 14 -21zM455 1212h6q7 0 12.5 7.5 t5.5 15.5l-20 6zM467 1192q-6 0 -6 -18q0 -3 -0.5 -12.5t-0.5 -15.5t1 -12.5t4.5 -10t9.5 -3.5q0 9 -4 28.5t-4 43.5zM457 1106q-19 -8 -19 -25q0 -15 6.5 -29t18.5 -14q10 0 17 9t7 20q-1 10 -13 23.5t-17 15.5zM897 1014l-2 47q-11 -18 -26.5 -58t-33 -72t-40.5 -48 q2 -2 18 -2q37 0 60.5 47t23.5 86zM473 1020q-6 0 -18 -6q2 -4 10 -4t8 10zM453 963l14 14l-8 12zM465 948q-2 0 -6 -13.5t-6 -14.5q-9 -6 -9 -41q0 -3 4 -13t9 -14q2 -1 1.5 -11t-7.5 -14q1 -3 2 -8.5t2.5 -9t4.5 -9.5t9 -12q0 20 -3 54.5t-3 40.5q0 11 1 30t1 35zM811 772 l14 -4l-14 16v-12zM453 729q0 -30 12 -72q0 1 3 13t3 16q0 19 -18 43zM758 700q-14 0 -19 -26l4 -2q15 0 15 28zM909 700q-18 -11 -18 -32l35 -6q0 31 -17 38zM827 662l-2 8q-16 -8 -16 -25l2 -10q16 9 16 27zM956 670q-3 0 -7.5 -7t-4.5 -12q2 -1 5.5 -6.5t4.5 -5.5 q7 0 7 25zM1006 670q-4 0 -9.5 -6t-5.5 -11q0 -4 4 -4q5 0 10 5.5t5 9.5zM451 649q-22 0 -29.5 -11t-7.5 -34q0 -20 2 -24q3 12 19 33.5t16 35.5zM692 625q-10 -20 -10 -35q0 -8 10 -15l8 29q0 13 -8 21zM715 586l16 8v24zM469 604q2 -2 2 -6q0 -10 -6 -48.5t-6 -47.5v-6 q5 1 8.5 5.5t5.5 12.5t3 16.5t1 19v18v17v11.5q0 5 -8 8zM461 469q-10 -38 -10 -57q0 -23 8 -39q2 7 6.5 16.5t5.5 18.5l2 28q2 17 -0.5 23.5t-11.5 9.5zM1001 399l-4 -28q31 0 31 22zM1034 375q-14 -7 -22 -27q14 0 24 -6t17 -6h10q0 10 -8 24.5t-21 14.5zM262 307l-4 15 q-6 -6 -6 -13zM997 252l19 -8q10 30 10 37q0 6 -11 18t-18 12v-59zM461 281l-12 -11q1 -5 1 -23t3 -29t12 -11q6 0 6 2v12q0 60 -10 60zM1196 254l-16 16q-22 -16 -33 -49h8q22 0 41 33zM467 186q-6 0 -9.5 -3t-4.5 -6.5t-4 -12.5h12q18 0 22 12q-7 10 -16 10zM463 59 q10 0 10 -6q-2 -4 -10 -4q-4 0 -4 4q0 6 4 6zM496 23q-4 0 -4 -7q0 -4 4 -4t8 4q0 2 -2.5 4.5t-5.5 2.5zM530 18q-10 0 -10 -12q0 -8 15 -8q6 6 6 16q-7 0 -11 4z" />
<glyph unicode="L" horiz-adv-x="1165" d="M573 1534q17 -10 17 -25q0 -20 -10 -34.5t-29 -14.5q0 66 22 74zM522 1438q4 0 6.5 -2.5l7 -7t9.5 -7.5h18l12 -10q2 -5 9 -102q0 -1 -1 -45t-1 -70q0 -32 9 -383.5t9 -501.5l6 -4h410q15 0 23 -7t8 -28q0 -29 6 -103.5t6 -127.5q0 -29 -21 -29q-78 0 -225.5 -4 t-302.5 -4q-279 0 -279 23q-2 166 -14 629t-12 716q0 51 26 51h248l10 -14l-2 -4l5 -33l4 -2l2 -6q12 0 12 47q0 29 12 29zM426 1368l-2 -8q0 -9 16 -41q21 9 21 27t-35 22zM348 1309l-2 16q-20 -6 -28.5 -16t-8.5 -31q22 0 30.5 6t8.5 25zM494 1325q-5 0 -5 -6q0 -4 5 -4 q4 0 8 4q0 6 -8 6zM496 1227q-4 0 -4 -6q0 -4 4 -4q8 0 10 4q0 6 -10 6zM319 647v-49q3 0 10 6t7 10t-7 17t-10 16zM442 637l9 -23q20 10 20 33zM434 629q-39 0 -39 -41q39 0 39 41zM481 594q-26 0 -32 -19q9 -22 67 -22q0 41 -35 41zM840 453q14 0 14 -21q-10 -6 -14 -6 l-9 12q0 5 3.5 10t5.5 5zM514 434l-4 15q-6 -6 -6 -13zM567 449q-4 0 -4 -7q0 -4 4 -4q9 0 11 4q0 7 -11 7zM461 408l-19 6q-4 0 -7 -21t-3 -31q23 0 23 35zM934 375l6 -13q-3 0 -14 -8t-25 -8v6q4 15 14 21zM442 295q-24 0 -24 -21v-22l49 16q-7 27 -25 27zM932 289 q-14 -4 -14 -43q22 0 22 28q0 11 -8 15zM584 186l6 -6v10zM770 109l-2 -9q0 -9 16 -41q21 9 21 27q0 19 -35 23z" />
<glyph unicode="M" horiz-adv-x="1945" d="M236 1409h303q10 0 23.5 -5.5t19.5 -12.5l372 -547q10 -13 19 -13t16 13l397 536l19 17l14 1q14 0 33 0.5t31 0.5q243 0 243 -8l7 -11q0 -8 4 -68t4 -67q0 -1249 -21 -1249h-323q-12 0 -16.5 26.5t-4.5 47.5q0 70 4 204.5t4 206.5q0 17 27 17q2 0 6 -10.5t13 -10.5 q22 0 44.5 15t22.5 38q0 21 -39 21q-33 0 -33 -21q-6 0 -20 6.5t-21 6.5v53q0 187 -2 195l-12 24q-4 -1 -33.5 -45.5t-59 -91t-32.5 -49.5q-47 -67 -136 -178.5t-124 -159.5q-10 -12 -18 -12q-5 0 -10 2.5t-9.5 8.5t-7 9t-6.5 11l-4 7l-111 138q-2 2 -7.5 6.5t-9 8t-3.5 7.5 l-123 182q-20 20 -55.5 75.5t-53.5 90.5q0 -118 -3 -318.5t-3 -289.5q0 -129 4 -192q-4 -4 -6.5 -10.5t-4 -10.5t-3.5 -4h-326q-16 0 -16 25v290q4 12 4 25q-8 102 -8 188q0 143 6 430t6 433q2 6 7.5 12t11.5 6zM1167 1151l27 31l6 -6q0 -12 -7.5 -19.5t-16.5 -7.5z M461 1161v-12q0 -33 20 -33q17 0 17 33q0 12 -37 12zM1274 1141l-8 -8q-9 -36 -9 -41q0 -7 3.5 -13t9.5 -6q4 0 6 2.5t3.5 8t2.5 8.5q6 7 17 7.5t16 8.5q6 6 6 18v7q-6 0 -14 -5.5t-9 -11.5zM471 1083l-4 15q-11 0 -25 -9t-14 -20q25 0 29 -12q14 7 14 26zM1186 1079 q0 3 -4 -4q-3 -4 -6 -12q0 -20 24 -29v8q0 12 -14 37zM1427 1030q-8 -4 -10 -4q11 -31 33 -49l2 16q0 37 -25 37zM1374 999q-2 1 -4 -3t-3 -11t-1 -14q0 -18 8 -21q8 8 8 25q0 16 -8 24zM682 963q-35 0 -35 -25q0 -23 23 -23q12 32 12 48zM582 961l-2 -9q0 -7 9 -15.5 t17 -10.5v12q0 23 -24 23zM1530 938l-2 8q-17 -8 -17 -24l2 -11q17 10 17 27zM412 934q0 -31 14 -31h4q0 31 -18 31zM1489 932q-34 0 -39 -58l8 -2q31 0 31 60zM549 905q-12 0 -12 -26q0 -25 12 -29l22 45q-2 2 -10.5 6t-11.5 4zM1571 893q-27 0 -53 -37q3 -3 15.5 -9.5 t16.5 -6.5q21 0 21 53zM352 836l-2 -15q0 -25 29 -28v8q0 10 -4 13t-15 3v10q0 5 -8 9zM1434 793h16v32zM1167 819q-8 0 -19.5 -5t-12.5 -11q0 -17 6 -23q0 17 13 23.5t13 15.5zM1503 760l15 10q0 22 -23 35zM1163 764q-12 -8 -24 -8q-3 0 -7 1t-6 1q2 -8 19 -8q20 0 20 12z M1178 758q-23 -20 -23 -58q0 -14 10 -14q0 15 7 36t18 21q7 0 10 -8l17 17q-30 6 -39 6zM1462 748q0 -25 18 -59t21 -62l17 -9l6 58q0 38 -12 55t-50 17zM442 705l2 16q-15 0 -24.5 -13t-13.5 -16l24 -14q1 -1 4 -10t8 -9l11 27l-15 8q0 1 2 5.5t2 5.5zM698 557l-2 8 q0 9 9 13zM942 557l14 -2l-2 12zM1432 459q0 -8 -2 -13.5t-4 -8.5l-3 -3q0 -18 27 -24l2 16q0 27 -20 33zM895 434l8 -2l-2 14zM408 317l-2 11q-17 -11 -17 -25l2 -8q17 10 17 22zM877 295l10 -12q0 -4 -3.5 -8t-6.5 -5l-3 -2q-20 0 -20 15q11 12 23 12zM1454 262 q-3 -3 -9.5 -16t-6.5 -19q0 -3 6.5 -8.5t9.5 -5.5q4 3 11.5 15.5t7.5 17.5q0 2 -7.5 9t-11.5 7zM502 182l-2 19q-15 -4 -15 -29l2 -16q15 5 15 26zM516 143l-6 -2q3 -24 27 -24q0 10 -5.5 18t-15.5 8zM481 104l-4 -4q14 -12 33 -12q18 0 22 12zM1001 74q17 -7 17 -39l-35 6 q0 22 18 33zM494 61l6 -10l37 -6q0 10 -8 16.5t-19 6.5zM1049 43q4 -2 4 -6q0 -25 -6 -25q-1 0 -5 6t-6 7q0 4 5 11t8 7zM1098 43q4 -4 4 -6q0 -4 -5 -9t-10 -5q-4 0 -4 4q0 5 5.5 10.5t9.5 5.5z" />
<glyph unicode="N" horiz-adv-x="1624" d="M258 1399l258 -8q9 0 24 -21t19 -33l193 -278q3 -8 14.5 -23t15.5 -24l265 -363q7 -14 16 -14q6 0 6 6v739l12 11q2 2 88 2q242 0 242 -9l8 -12v-731q-1 -3 -2.5 -17.5t-3 -27.5t-2.5 -14q0 -89 4 -265t4 -262q0 -59 -24 -59h-267q-32 0 -47 22l-252 377q-2 8 -17.5 26.5 t-16.5 20.5l-207 299l-25 27l-4 -8q0 -760 -18 -760h-324l-12 6q0 157 4 541.5t4 570.5q0 141 -4 213l8 60zM909 1219l2 -17q0 -15 -15 -36t-19 -31l-3 18q0 41 35 66zM356 1210q-53 0 -53 -43l9 1l-1 1q0 4 8 7q7 3 19 3.5t15 6t3 24.5zM483 1139l-8 -9q2 -8 17 -8h10z M1182 1122q-15 -15 -15 -22q2 -4 4.5 -14t4.5 -13q10 6 10 29q0 12 -4 20zM455 1073l-4 -2q-2 0 -7 -3t-11 -6.5t-7 -4.5q5 -10 12 -10l4 2q17 0 33 8l2 2q0 14 -22 14zM895 1053q16 -6 16 -25l-2 -6q-16 5 -16 25zM741 995q-26 0 -55 -20q0 -2 6.5 -8t9.5 -6q14 0 26.5 10 t12.5 24zM762 905q-8 0 -8 -16q0 -17 8 -17q8 4 8 17q0 12 -8 16zM1272 713h-8q12 -37 32 -49l2 8q0 41 -26 41zM1296 569q-8 -3 -100 -49q-16 -10 -16 -24q0 -27 59 -27q9 0 19 10t20 10l18 -2q-18 -37 -18 -65v-16q20 14 35.5 34t15.5 39q0 15 -17.5 40t-17.5 38q0 8 2 12 zM1217 410l-9 -2l13 -11l20 -6q-9 19 -24 19zM426 387l-29 16q-13 -6 -7 -16.5t4 -18t-23 -3.5q-22 5 -36.5 -6.5t-14.5 -24t4 -17.5l26 -14q10 2 31 21t36 39t9 24zM492 395q-17 0 -17 -10q0 -6 10 -6q1 0 19 6q-2 10 -12 10zM520 385q-8 -2 -8 -12v-11q8 4 8 17v6z M459 362v11q-13 -8 -16.5 -20.5t-14.5 -20.5q31 10 31 30zM1145 326h14q35 0 35 24l-2 6zM498 336v6q-2 -14 -18.5 -23t-16.5 -20q13 0 24 12t11 25zM422 303q-14 0 -37 -23t-23 -36q17 0 38.5 22t21.5 37zM442 260l-10 -6q0 -6 5.5 -19.5t11.5 -13.5q0 9 9 20t9 17 q0 8 -8 14.5t-17 6.5v-19zM1116 231l-6 43q-5 -5 -17.5 -23.5t-15.5 -25.5q0 -1 7.5 -10t7.5 -10q4 3 9 14.5t15 11.5zM1202 240l-16 2q-27 0 -31 -17l14 -2q27 0 33 17zM406 227q-13 0 -15 -4l10 -8q5 3 5 12zM924 197q8 0 12 -4q0 -23 -10 -41.5t-31 -18.5q0 12 7.5 38 t21.5 26zM295 150v-5q0 -11 10.5 -17.5t22.5 -6.5q0 12 -8.5 20.5t-20.5 8.5h-4z" />
<glyph unicode="O" d="M870 1450q168 0 315 -63t253 -177q76 -76 135 -210.5t59 -305.5q0 -140 -57.5 -273t-155 -234t-238.5 -162.5t-298 -61.5q-85 0 -167 19.5t-144 51t-105.5 62t-73.5 60.5q-117 107 -182.5 257.5t-65.5 317.5q0 87 23 168t68 182q19 0 25.5 -3.5t6.5 -14.5q0 -6 15 -11 t39 -5q0 15 14 25.5t14 17.5q0 23 -26 32q-8 3 -14.5 13.5t-6.5 19.5q0 27 16 43q135 133 256.5 192.5t294.5 59.5zM1120 1307l-2 16q-22 -8 -22 -29l6 -20q18 6 18 33zM1182 1317q-19 0 -19 -39h15l8 37zM1196 1278q-4 0 -4 -14l4 -25q4 4 4 18q0 17 -4 21zM1053 1245 l-23 -26q9 -9 23 -9q12 0 12 11l-4 20zM1112 1221l-27 4q11 -23 33 -23zM1341 1106v6q-16 -23 -38 -29q1 -3 9 -6.5t11 -3.5q7 0 12.5 13t5.5 20zM887 1081q-154 0 -257.5 -106.5t-103.5 -259.5q0 -184 123 -283q33 -33 103 -59.5t151 -26.5q154 0 256.5 107.5t102.5 261.5 q0 67 -19 117.5t-69 117.5q-52 61 -127 96t-160 35zM1458 1073q-10 -10 -10 -16l25 -4q0 11 -15 20zM342 1032v-8q0 -21 20.5 -34t43.5 -13q0 25 -15.5 40t-40.5 15h-8zM487 1001l-8 -2q-6 -2 -49 -30q7 -19 25 -19l6 2q25 0 67 17l2 6q0 26 -43 26zM352 977v-19 q0 -27 17 -32l2 18q0 27 -19 33zM1341 946q-8 -6 -8 -14q0 -13 8 -17q2 0 6.5 4t4.5 5zM401 936q-9 0 -14.5 -7t-3.5 -16q18 0 18 23zM430 877q-20 0 -20 -17q0 -10 10 -14q10 4 10 31zM377 813l-2 16q-3 -5 -10 -12t-11 -12.5t-4 -11.5l8 -13q19 6 19 33zM471 829 q-19 0 -35 -22q35 0 35 22zM338 696q-17 0 -25 -18q3 -3 16 -9.5t17 -6.5q3 0 9.5 6.5t6.5 9.5q-8 18 -24 18zM303 647q-24 0 -24 -51v-33q23 10 29.5 22.5t6.5 35.5l-2 24q-2 0 -5.5 1t-4.5 1zM295 418q-17 0 -19 -10l13 -9q6 2 6 19zM1208 328h-8q-24 0 -24 -21 q2 -6 2 -10q30 12 30 27v4zM924 326q-82 0 -82 -39q82 0 82 39zM1032 266h-12q0 -30 20 -30h4q-12 16 -12 30zM580 246q-6 0 -11.5 -7t-5.5 -16q0 -10 2 -14q7 4 10.5 18t10.5 17zM866 188l-8 -30q21 7 21 49zM1137 205h-23q0 -12 12 -21zM1008 201q-64 0 -64 -51q12 0 12 2 l-2 2q0 2 11 8q7 2 17.5 2.5t14.5 1.5t7.5 9t3.5 26zM637 193q-41 -3 -41 -39q35 0 41 39zM1028 188q-18 -14 -18 -38q28 0 28 20q0 16 -10 18zM1149 154l-2 20q-10 -6 -18.5 -30.5t-12.5 -30.5l21 -11q12 20 12 52zM946 125l-28 -10q30 -12 65 -19q6 0 17.5 3.5t11.5 11.5 q0 4 -2 4q-3 1 -27 5t-27 5h-10zM1067 117q-16 0 -18 -13q3 -8 12 -8q6 0 22 8q-2 13 -16 13zM1102 104q-8 -2 -8 -16v-10q10 4 10 18zM1544 86l19 6q0 -22 -23 -33zM1028 88q-13 -9 -17.5 -23.5t-19.5 -23.5q14 3 26.5 14t12.5 23q0 8 -2 10zM1075 53q-2 -16 -21.5 -27 t-19.5 -24q17 0 30 13.5t13 29.5q-2 4 -2 8zM1524 35l20 4q10 0 10 -12q0 -15 -8 -23l-26 23z" />
<glyph unicode="P" horiz-adv-x="1378" d="M662 1407q142 0 268 -49t209 -141q64 -79 90 -152.5t26 -171.5q0 -58 -12.5 -111t-24 -76t-20.5 -36q-184 -254 -600 -254q-35 -12 -35 -82v-289q0 -47 -47 -47q-125 0 -229 8q-10 0 -24 1t-17 1l-17 2q-24 0 -24 37q0 89 3 256t3 250q0 143 -3 433t-3 405l6 12 q54 4 78 4q19 0 35 -4q35 0 186 2zM326 1350q-23 0 -23 -9q3 -10 25 -10q17 0 24 10q1 2 -2.5 4t-10 3.5t-13.5 1.5zM541 1311q-35 0 -35 -58q45 0 45 39q0 1 -5 9.5t-5 9.5zM229 1309l-2 -2q0 -13 8.5 -30.5t18.5 -23.5v15q0 38 -25 41zM274 1266q0 -21 15 -21h4 q-4 21 -19 21zM477 1262q-3 0 -6.5 -4.5t-3.5 -6.5q-4 -16 -4 -63q22 0 22 51q0 23 -8 23zM397 1176l4 -13q9 0 13 8zM471 1165q-1 0 -4 -1t-6 -1q0 -15 -8.5 -36t-8.5 -33q17 0 29 19.5t12 35.5t-14 16zM301 1163q-9 -3 -11.5 -6t-2.5 -10q0 -21 11.5 -40.5t31.5 -19.5 q-16 12 -18 39.5t-11 36.5zM418 1143l-27 -10q14 -21 35 -21zM627 1128q-43 0 -43 -2l-21 -16v-385q0 -16 41 -16h41q58 2 103 13t84.5 34.5t61 67.5t21.5 106q0 29 -4.5 45t-25.5 53q-37 52 -108.5 76t-149.5 24zM440 1065q0 -19 15 -27q6 0 6 6t-7.5 13.5t-13.5 7.5z M391 1049q-12 0 -21.5 -8t-9.5 -17q0 -2 1 -6t1 -6q2 0 6.5 -1t6.5 -1q16 0 16 39zM983 1010q0 -24 25 -41q10 0 10 8q0 9 -12.5 21t-22.5 12zM1065 958q-1 1 -2 -2q-2 -6 -2 -14q0 -14 4 -14q6 6 6 14q0 10 -6 16zM893 551v-8q0 -11 23.5 -23t27.5 -18q4 4 4 16 q0 33 -43 33h-12zM616 549q-2 1 -4 -3t-3 -10.5t-1 -13.5q0 -22 8 -22q9 9 9 24q0 16 -9 25zM457 340q-28 0 -37 -23l14 -16q23 11 23 39zM428 219q-12 0 -12 -24q0 -17 12 -17t12 12q0 29 -12 29zM418 137q-45 0 -53 -22q30 -15 32 -15q10 0 15.5 13.5t5.5 23.5z" />
<glyph unicode="Q" horiz-adv-x="1812" d="M518 1544l-4 12q2 0 14 -4zM633 1544q8 0 12 -6q-19 0 -31 -4q4 10 19 10zM594 1540l8 -2q0 -10 -20 -10q7 12 12 12zM711 1540l24 -2q-35 -12 -53 -12q-3 0 -14 1t-19 1q35 12 62 12zM870 1456q173 0 316 -61.5t246 -171.5q75 -87 116 -165t66 -177q0 -19 7 -67.5 t7 -70.5q0 -181 -86 -348q-3 -6 -21 -30.5t-18 -40.5q0 -13 51 -13h68q88 0 88 -20q0 -8 -2 -12l-6 -11l-16 -39l-119 -202l-13 -15l-424 -4q-15 0 -98.5 -15.5t-138.5 -15.5q-163 0 -286.5 43.5t-233.5 135.5q-113 102 -170.5 251.5t-57.5 331.5q0 205 94 369t259.5 256 t371.5 92zM541 1335q-4 0 -4 -6q0 -8 4 -8q2 2 2 8zM1309 1223v-25q18 -2 28.5 -13.5t10.5 -31.5q6 -1 20 -9.5t21 -8.5h4q-3 4 -10 11.5t-12 14t-5 10.5q-3 3 -10.5 13t-16.5 19t-20 14zM578 1210q-2 -2 -19.5 -15.5t-33 -26t-15.5 -15.5q0 -16 14 -41t27 -25q0 7 3.5 30 t6.5 28q0 6 7.5 14.5t15.5 14.5l8 6q0 8 -5 18.5t-9 11.5zM346 1161h-20q0 -84 28 -84q7 0 16 5t9 14zM461 1110v23q-23 0 -33 -23h33zM893 1083q-191 0 -290 -118t-99 -322q8 -19 22 -61.5t25 -67.5q42 -84 137.5 -131t196.5 -47q92 0 178 42t143.5 123t57.5 181 q0 103 -46.5 194.5t-133 149t-191.5 57.5zM385 1024h-12q-19 0 -23 -12q7 -11 17 -11q6 0 9.5 3.5t4.5 7t4 12.5zM428 973q0 -15 8 -33t23 -18q11 0 16 10q-5 18 -17.5 29.5t-29.5 11.5zM258 963q-6 0 -6 -2v-13q0 -39 33 -39l16 2q-7 5 -19.5 28.5t-23.5 23.5zM510 885v37 q-25 -14 -25 -33q0 -20 13 -25q12 2 12 21zM276 889q0 -33 17 -39q12 9 12 20q0 8 -9.5 13.5t-19.5 5.5zM350 889q-18 0 -26.5 -21.5t-8.5 -38.5q0 -3 7.5 -9.5t11.5 -6.5q16 46 16 76zM1393 584l-9 2q-28 0 -48.5 -27t-20.5 -55q0 -35 10 -35q0 23 6.5 40t11.5 24.5 t24 25.5t26 25zM1477 487q-13 -46 -13 -71q19 25 19 43q0 3 -3 15t-3 13zM1286 399q-8 0 -10 -4q12 -6 18 -6q0 10 -8 10zM1374 381q-24 -32 -33 -98q24 8 29.5 22.5t5.5 42.5q0 29 -2 33zM723 188q-8 -2 -8 -14q0 -16 18 -16q0 20 -10 30zM686 166q-8 -3 -8 -10 q0 -13 18 -13q0 21 -10 23zM1329 156q-37 0 -37 -39v-15q37 21 37 54zM735 145q-7 0 -12 -8q3 -8 18 -8l13 2q-14 14 -19 14zM332 121q14 0 16 -15q0 -10 -8 -10q-5 2 -11.5 9.5t-6.5 11.5q4 4 10 4zM1090 74q-7 -7 -7 -11q0 -8 17 -8q0 17 -10 19zM543 -104l16 -5 q-4 -8 -12 -8zM446 -117q9 -9 11 -36.5t18 -39.5q-20 0 -31.5 19.5t-11.5 40.5q0 7 2.5 10t11.5 6z" />
<glyph unicode="R" horiz-adv-x="1435" d="M354 1487q0 -49 -16 -49q-7 0 -14 10.5t-7 21.5q0 17 37 17zM215 1411h567q127 0 240.5 -64.5t182.5 -176t69 -240.5q0 -153 -87 -266.5t-235 -174.5q-6 0 -6 -10q0 -1 1 -3t1 -3l350 -428q5 -11 11.5 -22.5t10 -17t3.5 -7.5q0 -6 -67.5 -11t-90.5 -5q-16 0 -22 6h-219 q-22 2 -35 22l-285 336q-1 1 -8 9.5t-13 13t-12 4.5q-4 0 -10 -27v-332q0 -16 -12 -16h-279q-36 0 -49 16t-16 56q0 182 3 461.5t3 420.5q0 22 -3 164l-3 141q7 151 10 154zM457 1303l2 -17q42 0 49 23zM944 1274q-20 0 -20 -17q0 -10 10 -14q10 4 10 31zM926 1217l-2 16 q-23 -10 -23 -33l17 6zM895 1188q-12 -4 -12 -21q0 -22 24 -22q0 26 -12 43zM967 1186q-11 -6 -11 -15q0 -18 25 -18q0 27 -14 33zM786 1176l-8 2q-17 0 -41 -17l13 -10l30 16zM870 1169q-18 0 -18 -39l14 -2l8 39zM999 1135q-4 -4 -10 -23t-6 -27q0 -3 6 -8.5t10 -5.5 q3 0 10 5.5t7 8.5q0 7 -7 26t-10 24zM909 1126q-10 0 -14 -10q2 -10 25 -10h16q-12 20 -27 20zM1026 1126q-4 0 -4 -14l4 -25q4 4 4 19q0 16 -4 20zM666 1114q-28 0 -86 -4l-19 -20q-1 -26 -2.5 -82.5t-2.5 -95.5t-1 -56q0 -138 25 -154h22q69 2 112.5 7.5t83.5 19.5 t61.5 39t33.5 66t12 100q0 56 -26 100q-52 80 -213 80zM926 1092l-2 -11q0 -14 18 -24l2 10q0 15 -18 25zM961 1059l-9 -6q8 -19 25 -19l8 2q-10 23 -24 23zM1006 1038q-5 0 -5 -16t7 -16q8 4 8 16q0 4 -4 10t-6 6zM1004 997q-9 0 -14.5 -6.5t-4.5 -15.5q9 0 14 7t5 15z M414 666q-5 -18 -19 -23q2 -2 5 -6.5t5.5 -7.5t5.5 -6.5t6.5 -5t6.5 -1.5q0 30 -10 50zM334 610l-17 31q-1 -3 -7 -8.5t-7 -5.5q-2 0 -9 3.5t-7 4.5h-8l-17 -17q5 -5 12.5 -9t16.5 -8t14 -7q2 0 9.5 3t14 7t5.5 6zM455 588l-21 6q0 -31 19 -31zM915 557q-3 -3 -9.5 -16 t-6.5 -17t6.5 -10t9.5 -6q3 1 10 15.5t7 17.5t-7 9.5t-10 6.5zM801 541q-2 1 -4 -3t-3 -10.5t-1 -13.5q0 -22 8 -22q6 6 6 24q0 19 -6 25zM373 539q-8 0 -8 -4q0 -18 8 -37t26 -19q0 60 -26 60zM303 496q-35 0 -35 -13l6 -22q4 0 12 5t9 5q3 1 5.5 11t2.5 14zM446 467 q-13 0 -23.5 -10.5t-10.5 -24.5q20 0 27 7.5t7 27.5zM506 195v8q-10 0 -26.5 -17t-18.5 -28q11 0 28 14t17 23zM901 166l-6 8q-2 -2 -7.5 -7t-9 -8.5t-7 -9t-3.5 -10.5q17 0 33 27zM489 154q-40 -13 -40 -33q12 2 25.5 11t14.5 22zM901 102h-10q-27 0 -27 -14q7 0 20.5 4 t16.5 10zM1032 78h-6q-9 0 -25 -8q9 -17 25 -17q18 0 18 13q0 12 -12 12zM1075 70v6q-14 -7 -14 -29q14 0 14 23zM365 -135l18 -8q0 -13 -14 -30t-27 -17q-5 0 -10.5 11t-5.5 17q0 4 9 10.5t19 11.5z" />
<glyph unicode="S" horiz-adv-x="1312" d="M723 1427q122 0 244 -49q22 -7 72.5 -32.5t50.5 -34.5l-3 -11q0 -3 -4 -7.5t-4 -8.5q-20 -40 -64.5 -116t-58.5 -97q-2 -6 -10 -6q-9 0 -94.5 34t-132.5 34q-45 0 -84 -24.5t-39 -68.5q0 -55 61 -104q33 -25 53 -39t30 -20.5t33.5 -20.5t47.5 -29q26 -19 86.5 -59.5 t95.5 -68.5t62 -60q49 -63 66.5 -114t17.5 -126q0 -128 -69 -230t-181 -156t-242 -54q-219 0 -411 107q-86 52 -86 63v8q72 137 149 254q28 0 66.5 -28t44.5 -31q109 -56 248 -56q50 0 85 22t35 69q0 41 -34 84q-31 30 -79 62t-110.5 68.5t-77.5 45.5q-264 167 -264 405 q0 102 39 179t108 123.5t158 69.5t195 23zM406 1241l-9 2q-28 0 -48.5 -27t-20.5 -55q0 -35 10 -35q0 23 6.5 40t11.5 24.5t24 25.5t26 25zM489 1145q-12 -42 -12 -72q19 25 19 43q0 4 -3.5 16t-3.5 13zM1108 1020l2 8q18 -8 18 -24l-2 -9q-18 8 -18 25zM1077 963 q8 -8 8 -17q0 -12 -8 -16q-8 0 -8 18q0 15 8 15zM684 840v26q-9 0 -18 -21t-9 -34l2 -10l33 35zM688 803q0 -20 32 -37.5t40 -28.5l2 25q0 14 -6 23t-18.5 12.5t-23 4.5t-26.5 1zM1001 743q9 -2 9 -6l-9 -4l-4 4q0 6 4 6zM942 711l-10 -13q0 -8 14 -8q6 7 6 17zM950 631 l-4 14q-6 -6 -6 -12zM1004 645q-5 0 -5 -6l5 -4q8 0 10 4q0 6 -10 6zM1014 528q-2 2 -3 -3l-1 -11q0 -14 4 -14q2 2 2 14t-2 14zM891 487l6 -2l-4 11zM1014 483q-4 0 -4 -22l2 -21q4 0 4 21zM297 471q3 -3 9.5 -16t6.5 -19q0 -3 -6.5 -9.5t-9.5 -6.5q-16 8 -16 26 q0 14 16 25zM860 432l6 -6v10zM514 424q33 0 55.5 -21t22.5 -49q0 -6 -0.5 -8.5t-3 -4t-8.5 -1.5q0 22 -9 37.5t-26.5 23.5t-33 11.5t-36.5 5.5q18 6 39 6zM461 385q0 -10 -15 -45q-3 0 -7.5 13.5t-4.5 17.5q0 14 27 14zM416 295h-13q-41 0 -41 -33q0 -1 2.5 -7.5t2.5 -8.5 q49 18 49 41v8zM455 209l-33 33q-4 0 -10 -7t-6 -10q0 -32 24 -32q17 0 25 16zM520 197l-2 12q-9 -18 -31 -25q4 -18 17 -18q16 0 16 31zM319 164l-2 33q-18 -9 -31 -50.5t-18 -48.5l21 -8q30 16 30 74zM524 98v8q-18 -10 -18 -24l2 -8q16 8 16 24zM598 49h-8q-17 0 -25 -18 h8q15 0 25 18z" />
<glyph unicode="T" horiz-adv-x="1148" d="M1044 1493q2 0 5.5 -3.5t3.5 -4.5h-21zM977 1407l18 -6q4 -74 4 -277q0 -4 -14.5 -8t-23.5 -4h-179q-11 0 -17.5 -13t-6.5 -26v-1057q0 -2 -10.5 -9t-14.5 -7h-321l-15 12l-4 324q0 4 3.5 8t6.5 4q4 -63 39 -63q0 76 -32 82q-2 5 -9.5 17.5t-7.5 18.5q-2 190 -2 572v127 q-248 0 -248 31v262q0 1 17 12h368q30 -3 35 -6q1 0 3.5 2.5t2.5 3.5h408zM340 1305l-14 -35q8 -10 10 -10q4 0 7 2.5t4.5 5.5l5 10t5.5 10zM924 1305q-6 0 -6 -2q0 -3 6 -3q7 0 10 3q0 2 -10 2zM532 1288l7 -2v10zM676 1290l8 -43q10 0 25 29q-5 1 -17 7.5t-16 6.5z M793 1282q-5 -29 -10.5 -41.5t-9 -17t-23 -10t-33.5 -11.5q1 -5 6.5 -9.5t9.5 -4.5q28 0 51 19.5t23 39.5q0 30 -14 35zM614 1276q4 -2 6.5 -8t4.5 -6q6 4 10 4q-3 6 -21 10zM883 1270q-3 0 -9 -13l17 5q-4 8 -8 8zM358 1237q-18 -8 -18 -25q0 -14 12 -21t27 -7q0 47 -21 53 zM401 1214l-10 -30q4 -1 11.5 -13.5t7.5 -15.5q0 -6 -5.5 -17t-5.5 -18q12 0 21.5 7t9.5 18q0 7 -7 19t-7 20v12q0 18 -15 18zM866 1214q-8 0 -8 -4l6 -4q2 0 2 8zM475 1176q-31 0 -31 -17q0 -8 4.5 -18.5t8.5 -10.5q18 0 18 35l29 -8l10 4q0 7 -13 11t-26 4zM737 1174 q-16 -8 -16 -21q0 -17 24 -25q2 3 7 31q0 1 -7 7t-8 8zM678 1153l-27 -16q0 -19 33 -19zM330 770q10 0 12 -4q-10 0 -12 4zM225 762q1 0 3 -2t3 -2q-22 -6 -34 -29q0 13 7.5 23t20.5 10zM434 715l-10 -2l4 -7q3 -8 6 -14t7.5 -13t11 -11t12.5 -4q8 0 8 2q-16 49 -39 49z M330 666q0 -11 -15 -11q-6 0 -8 2q2 9 15 9h8zM526 625q-24 0 -24 -72q18 0 23.5 10.5t9.5 24t16 18.5q-8 19 -25 19zM217 578v-25q5 5 10 20q8 0 15 -10t10 -18q-4 -6 -14 -13t-11 -8q3 3 -32 45q2 9 22 9zM270 567q13 0 13 -14q0 -2 -4 -5t-7 -3l-16 8q2 2 4.5 6t4.5 6 t5 2zM571 504q-2 -27 -38.5 -64.5t-43.5 -62.5q-6 -18 -6 -49h23q8 0 33.5 32t31.5 50q6 6 19.5 24t13.5 27q0 2 -7.5 11t-16 19.5t-9.5 12.5zM246 502l-5.5 -11t-8 -13.5t-7.5 -4.5q-8 0 -8 12q0 4 1.5 7t6 4.5t6.5 2.5t9 2zM455 438q-3 0 -5 -2t-5 -6t-5 -6l17 -8 q3 0 6.5 3t3.5 5q0 14 -12 14zM467 233l16 84q-12 -8 -22 -30.5t-10 -36.5q0 -3 6.5 -10t9.5 -7zM457 201l-2 -8q0 -17 18 -25l2 8q0 17 -18 25zM424 135q-8 0 -8 -14q0 -19 8 -19q8 4 8 17q0 8 -8 16z" />
<glyph unicode="U" horiz-adv-x="1486" d="M942 1407l16 4q24 0 137.5 -2t176.5 -2q31 0 31 -31v-811q0 -20 -4 -53t-9 -33v-45q0 -74 -30 -154.5t-78 -134.5q-8 -9 -31 -37t-37.5 -41.5t-32.5 -21.5q-20 -10 -92 -38t-106 -48q-6 6 -13 6q-16 0 -52 -5t-54 -5q-101 0 -165 16t-144 66q-129 68 -184 152.5 t-78 230.5q0 144 -4.5 406.5t-4.5 408.5q0 126 9 172q22 0 91 2t72 2q34 0 95.5 -2t91.5 -2l14 -12v-754q-10 -39 -10 -74q0 -19 7 -55.5t7 -67.5q2 -23 49.5 -73t69.5 -49l106 4q10 7 30.5 12.5t29.5 11.5q21 12 35 25t22.5 30.5t12.5 29t10 36.5t10 37q-2 37 -2 231 q0 488 8 668zM969 1241q-4 0 -7 -2t-4 -4l-2 -2q0 -16 13 -16q8 0 10 2.5t2 9.5q0 12 -12 12zM1214 1229q-3 0 -4.5 -1.5t-1.5 -3.5v-1q0 -11 9 -11q4 5 4 11zM993 1057l-4 8q-18 0 -20 -10zM1163 1038q-28 0 -28 -8q0 -17 12 -29q-2 3 3.5 6t14 9t11.5 14q-8 8 -13 8z M502 999l2 -8l10 2l-4 6h-8zM389 981l2 -12q2 0 3.5 2t4.5 4q0 6 -10 6zM1059 977l-8 -4q0 -8 8 -8q6 0 6 6zM1122 965l4 6l-6 4zM1141 975l-8 -6q0 -4 8 -4q4 0 4 4zM1024 954q-2 0 -6 -4t-4 -6q4 0 8 4q2 2 2 6zM502 950q-39 0 -39 -28v-9q39 8 39 37zM403 905l-12 -63 q39 0 39 53zM1087 602q-6 -8 -19 -68t-13 -73q0 -10 9 -32t9 -32q0 -6 -2 -10q9 0 22 72.5t13 101.5v12q0 24 -19 29zM414 502l-8 2q-21 0 -35.5 -23t-14.5 -45h25zM1071 369q-1 0 -3.5 -2.5t-2.5 -4.5q0 -8 6 -8q8 0 8 6q0 9 -8 9zM1051 346q0 -6 -1.5 -11t-3 -7t-2.5 -4 l-2 -2q0 -19 27 -25l2 16q0 27 -20 33zM733 295l-8 6q-6 0 -10 -4q0 -10 10 -10q8 0 8 8zM799 287l4 8l-6 4zM825 293l-6 6q-2 0 -8 -6q0 -6 8 -6q6 0 6 6zM684 276q-1 0 -5.5 -5t-4.5 -7q4 0 8 4q2 2 2 8zM498 209l-6 10q-21 0 -23 -12zM727 203q-1 0 -3.5 -2.5t-2.5 -3.5 q0 -9 6 -9q8 0 8 7q0 8 -8 8zM227 188l-12 -2l-2 11h8zM666 174l-11 -8q0 -9 6 -22t13 -13q13 0 27 10.5t14 24.5zM1051 150q-4 -4 -10.5 -17t-6.5 -18q0 -3 7 -9t10 -6q4 3 11 15.5t7 17.5q0 2 -7 9.5t-11 7.5zM293 0l-19 -12l7 22zM408 -47l-29 -2q2 12 24 12z" />
<glyph unicode="V" horiz-adv-x="1640" d="M1128 1448h363q10 0 15 -8t5 -17t-88 -254q-5 -13 -29 -98.5t-48 -124.5l-261 -749q-10 -17 -33 -99.5t-51 -101.5q-15 0 -162.5 -3t-197.5 -3l-18 20l-347 985q-13 18 -22.5 55.5t-17.5 51.5l-105 295l-2 14q0 27 21 27h358q16 0 24 -23l267 -772q10 -29 20 -29 q9 0 91 220t98 268q82 346 120 346zM487 1403l-28 -6q0 -4 5 -7.5t7 -3.5q16 0 16 17zM1202 1331q-14 0 -14 -4q0 -5 2 -10.5t2 -9.5q10 6 10 24zM1251 1286l-37 23q0 -26 19 -49zM1315 1163l-17 17q-5 0 -10 -3t-9 -6.5t-9.5 -10t-8 -10.5t-8 -12t-6.5 -10h17q19 0 30 7 t21 28zM1233 1090l-16 -11l32 -37l17 19q-9 29 -33 29zM575 1077l-6 -14q0 -13 8.5 -24t20.5 -11q18 0 25 35zM330 770q10 0 12 -4q-10 0 -12 4zM225 762q1 0 3 -2t3 -2q-22 -6 -34 -29q0 13 7.5 23t20.5 10zM1194 733q-23 -8 -23 -74q19 0 29 14.5t10 35.5q0 15 -16 24z M1047 698q0 -6 -1.5 -11t-3 -7t-3 -3.5t-1.5 -2.5q0 -19 27 -25l2 17q0 26 -20 32zM330 666q0 -11 -15 -11q-6 0 -8 2q2 9 15 9h8zM1022 629l-2 16q-39 -26 -39 -53q41 0 41 37zM217 578v-25q5 5 10 20q8 0 15 -10t10 -18q-4 -6 -14 -13t-11 -8q3 3 -32 45q2 9 22 9z M809 569q-1 0 -3 -2q-37 -33 -42 -30q2 -2 8 -12t12 -13q29 10 29 25q-15 5 -20 10h24q0 9 -2 14.5t-4 6.5zM270 567q13 0 13 -14q0 -2 -4 -5t-7 -3l-16 8q2 2 4.5 6t4.5 6t5 2zM969 567q22 -11 28 -35q0 1 2 3.5t2 3.5q0 13 -9.5 20.5t-22.5 7.5zM1047 567l-3 -8 q0 -7 17 -41q20 9 20 27t-34 22zM725 547q-12 0 -12 -8q0 -4 4 -7t13.5 -8t10.5 -6q0 1 -1 6.5t-1.5 8.5t-2 6.5t-4.5 5.5t-7 2zM793 508l-9 -16q0 -3 3.5 -7t5.5 -4q14 0 14 13q0 3 -2 5t-6 4.5t-6 4.5zM246 502l-5.5 -11t-8 -13.5t-7.5 -4.5q-8 0 -8 12q0 4 1.5 7t6 4.5 t6.5 2.5t9 2zM1047 502q-4 -4 -10.5 -17t-6.5 -18q0 -3 7 -8.5t10 -5.5q4 3 11 15t7 17q0 2 -7 9.5t-11 7.5zM340 498q0 -41 -39 -41q0 41 39 41zM387 463q35 0 35 -41q-59 0 -68 22q6 19 33 19zM897 457q-2 -2 -2 -8q0 -15 10 -15v8q0 13 -8 15zM1010 434q-4 -2 -4 -12 q4 2 4 12zM449 178q8 0 13 -5.5t5 -10.5q0 -6 -5 -19.5t-7 -13.5q-7 0 -13 7t-10 7q0 7 6.5 21t10.5 14z" />
<glyph unicode="W" horiz-adv-x="2228" d="M393 1548q0 -21 -16 -26q0 26 16 26zM340 1432q180 0 192 -27l244 -682q6 -12 12 -16q19 11 31 86l193 593q15 44 35 44h157q4 0 12.5 -12t10.5 -19l198 -576q-3 -1 -27.5 -40.5t-31.5 -39.5q0 -16 18.5 -35.5t18.5 -25.5q0 -18 16 -18q39 0 43 28q9 3 15 18.5t6 34.5 q39 103 69 199l146 449q2 6 8 15t10 9l60 6h307q16 0 16 -22q0 -67 -102 -311l-348 -1082q-11 -25 -31 -33q-98 -4 -117 -4q-11 0 -70 2t-71 2q-11 2 -19.5 15.5t-12.5 27t-9 34.5t-6 26q3 8 11 13.5t13.5 9t5.5 5.5q0 4 -4.5 7.5t-11 6.5t-8.5 5q-19 0 -25 6 q-63 225 -135 426q-10 0 -14.5 -2t-6 -4.5t-5.5 -11.5l-185 -531q0 -3 -10.5 -18t-13.5 -15h-246q-19 0 -39 5l-498 1386q-12 24 -12 41q0 23 64 23q17 0 53.5 1t93.5 1zM332 1235l-4 41q-16 0 -39 -19q10 -22 43 -22zM397 1151l13 4q0 4 -5.5 7t-9.5 3zM373 1147 q-4 -4 -4 -6l22 -11q0 17 -18 17zM344 1094h-8q-10 0 -17.5 -8t-7.5 -17l15 -16zM371 1055q-4 -2 -4 -11q0 -28 24 -45q4 12 4 15l-1 1q-1 1 -2.5 4t-3.5 6t-4.5 7.5t-4.5 8t-4.5 7.5t-3.5 7zM1294 932q-7 -34 -32 -49q64 -19 88 -19q0 26 -56 68zM1364 797l16 4 q0 43 -20 47zM1642 772l-51 -20q0 -21 30.5 -37.5t51.5 -16.5l-14 50l4 20zM1065 754l-8 2q-20 0 -43 -19v-12q0 -9 -20 -21t-21 -26v-6q11 16 22 16q8 0 19 -16q8 12 18 14t16 5.5t9 21.5q0 17 8 41zM340 692q0 -29 -39 -37v9q0 28 39 28zM1403 659q-3 0 -4.5 -1.5 t-1.5 -3.5v-1q0 -10 8 -10q4 4 4 10zM1051 623l-17 10q-3 -43 -37 -70l11 -18q9 12 21.5 19t18 15t5.5 27zM1401 629l-6 -35q32 0 39 16q-11 19 -33 19zM1405 571q-6 0 -6 -24l4 -6q3 0 7.5 6.5t4.5 11.5q-2 1 -5.5 6.5t-4.5 5.5zM588 559q-12 0 -18.5 -14t-6.5 -29 q0 -16 19 -24q6 2 17.5 15.5t12.5 22.5q0 11 -7 20t-17 9zM1249 557q-17 0 -32 -14t-15 -31q19 0 33 14t14 31zM948 555q0 -13 -9 -26t-11 -19q4 -4 12 -4q16 0 19.5 8.5t3.5 30.5q0 3 -6 6.5t-9 3.5zM1026 541q-4 -2 -4 -13q4 2 4 13zM1399 524q-4 0 -4 -4t4.5 -9t9.5 -5 l6 4q0 4 -5.5 9t-10.5 5zM1421 492l-20 6q0 -31 18 -31zM1305 479q-29 0 -29 -8q0 -17 12 -29q-2 3 3.5 6t14 9t11.5 14q-8 8 -12 8zM1407 449l6 -5l4 7zM971 444q-21 -9 -21 -26q0 -19 35 -23l2 8q0 9 -16 41zM1028 440q-4 0 -4 -8q0 -16 12.5 -26.5t28.5 -10.5 q-24 19 -37 45zM1417 430l-6 8q-4 0 -4 -8q0 -4 4 -4zM1415 416q-14 -7 -14 -23l2 -10q11 3 14.5 6t3.5 12q0 11 -6 15zM844 387v4q-6 -1 -10.5 -8.5t-4.5 -13.5q5 0 10 6t5 12zM1014 381l-23 -25q2 -12 19 -12q7 0 12.5 5t5.5 13q0 11 -14 19zM881 377q-27 -5 -27 -21 q29 0 29 15zM1237 375q-6 -6 -6 -8q0 -20 22.5 -36t44.5 -16q0 33 -12.5 44t-48.5 16zM911 358h-4q-3 -1 -5.5 -11t-2.5 -13q0 -15 12 -15q15 0 15 25q0 14 -15 14zM1425 303l-8 27q-14 -16 -14 -39l2 -10q9 1 14.5 7.5t5.5 14.5zM442 287h50q-10 -19 -25 -19q-12 0 -25 19z M1896 207l-8 -23q-20 13 -20 35zM1917 125l-2 -23q-3 5 -11.5 13t-13 15t-4.5 13q0 16 19 27zM279 106h-37q0 20 20 33z" />
<glyph unicode="X" horiz-adv-x="1687" d="M1139 1458h137q213 0 213 -22q-4 0 -26 -38.5t-58 -101t-64 -102.5q-16 -8 -39 -38t-28 -30q-70 0 -86 -22q-45 0 -45 -19q0 -22 45 -22q49 0 49 -27l-125 -207q-8 -6 -16.5 -27.5t-8.5 -31.5q0 -4 2.5 -10t7 -12.5t5.5 -8.5l313 -475q15 -37 74 -121.5t76 -126.5 q0 -2 -0.5 -4t-1 -3.5t-3 -3t-3 -2t-3.5 -1.5l-4 -2q-125 -10 -342 -10q-70 0 -86 22l-243 365q0 3 -6.5 7.5t-8.5 4.5q-17 -1 -60.5 -63t-106 -168t-68.5 -115q-27 -45 -144 -45q-10 0 -52.5 1t-86.5 1q-174 0 -174 16q0 25 8 43l238 371q6 13 14 16l189 306q0 22 -13 47 q-23 36 -78 129.5t-88 144.5q-8 13 -69.5 100t-108.5 161t-47 93t14 19h398q17 0 24 -10l162 -246q10 -35 29 -35q6 0 16 9t21.5 25t22.5 33t23.5 38.5t21 36.5t17 31t9.5 18q36 70 71.5 91t92.5 21zM1104 1354v-17q15 0 35.5 -14.5t27.5 -24.5q-8 -5 -20 -21.5t-12 -25.5 q0 -2 4 -5.5t9 -7.5l5 -3v-33q3 -17 33 -67q16 32 16 43q0 9 -9 20t-9 21l2 16q1 2 24 8t25 8t2 9q0 3 -1 11.5t-1 12.5q5 15 35 20t30 21q0 17 -16 25q-11 -2 -32.5 -8t-36 -8.5t-29.5 -2.5q-16 0 -41 11.5t-41 11.5zM1012 1327l6 19q-22 0 -33 -23zM1067 1343 q-34 0 -39 -57l8 -2q31 0 31 59zM573 1290l-2 8q-49 -24 -49 -41l2 -8q49 14 49 41zM1083 1290q-16 -7 -16 -26q0 -13 17 -24t34 -15v14q0 19 -7.5 30t-27.5 21zM1001 1274l-6 -21q0 -19 23 -28l2 16q0 27 -19 33zM721 1266l-16 -2q4 -2 13 -7.5t15 -7.5t12 -2l9 2 q-6 17 -33 17zM508 1217q-23 -8 -45.5 -25t-22.5 -35q0 -6 4 -8q14 0 36 5.5t28 12.5q4 0 4 25q0 17 -4 25zM774 1178l-2 18q-16 -6 -16 -33l2 -18q16 6 16 33zM1042 1163q-4 0 -10 -5.5t-6 -8.5q0 -27 32.5 -55.5t57.5 -28.5h8q-7 9 -15.5 24.5t-16 26t-17.5 14.5 q-4 3 -17 15.5t-16 17.5zM471 1120q2 -4 12 -4q-2 4 -12 4zM373 1112q1 0 3 -2t3 -2q-23 -6 -35 -29q0 13 8 23t21 10zM1020 1061q-4 0 -4 -6q0 -4 4 -4t8 4q0 6 -8 6zM698 1012v24q-3 -9 -12.5 -31t-15.5 -42t-6 -39q8 -23 18 -33q-2 6 -2 18q0 18 9 50.5t9 52.5zM961 1028 q-11 0 -11 -12q0 -8 15 -8q6 6 6 16q-6 0 -10 4zM463 1016h8q0 -10 -14 -10q-6 0 -8 2q2 8 14 8zM1122 946l-4 37q-39 0 -39 -55zM1020 969q-3 0 -6.5 -4.5t-3.5 -10.5q0 -10 10 -10q20 0 24 10q0 15 -24 15zM969 948l-4 15q-7 -7 -7 -13zM358 928v-25q6 6 11 21 q14 0 24 -29q-4 -6 -13.5 -13t-10.5 -8q3 3 -33 46q0 8 22 8zM412 918q12 0 12 -15q0 -2 -3.5 -5t-6.5 -3l-17 8q2 2 5 6t5 6.5t5 2.5zM690 870l-14 -77q35 0 35 71zM387 852q-2 -3 -6 -11.5t-7 -13t-7 -4.5q-9 0 -9 13q0 4 2 7t5.5 4.5t6.5 2t8.5 1.5t6.5 1zM778 664l-8 -2 q4 -33 23 -33q18 0 26 18q-30 17 -41 17zM459 623v22q18 0 18 -10q0 -12 -18 -12zM686 614h-12q0 -16 -10 -24.5t-22 -12t-22 -14t-10 -28.5q28 0 52 25.5t24 53.5zM721 580q-16 -8 -16 -25q0 -19 32 -25v17q0 27 -16 33zM807 555h-16q-37 0 -37 -39q26 0 53 39zM821 518 q-32 0 -41 -26h8q11 0 22 8t11 18zM735 502q-6 0 -12.5 -4t-9.5 -7t-10.5 -11.5t-8.5 -10.5l17 -16l49 30q-8 19 -25 19zM1321 272q-13 0 -37 -26.5t-24 -40.5q26 0 48.5 -12.5t22.5 -36.5q0 -11 -2 -15l31 15v-33h29q0 7 -4 26t-7 23q-19 2 -26 16t-5.5 30.5t-4 32.5 t-21.5 21zM1139 250v-14q0 -10 0.5 -15t4.5 -10t13 -8v16q0 27 -18 31zM1221 137v-8q0 -20 6.5 -44t19.5 -24q0 51 6 93q2 3 9 8.5t10 5.5l-19 18z" />
<glyph unicode="Y" horiz-adv-x="1542" d="M127 1436h348q41 0 53 -25l232 -420q6 -8 10 -8q7 0 27 36.5t28 61.5q3 6 30 54.5t51.5 92t54 93t50.5 79.5t27 30h396l6 -35l-236 -428q0 -5 -6 -8.5t-14.5 -7t-12.5 -7.5q-5 -5 -14.5 -8.5t-15.5 -7.5t-6 -10t6.5 -15t13.5 -12l-166 -313q-16 -27 -20 -172 q0 -11 -30 -21t-30 -14q-55 -7 -55 -27q1 0 12 -9.5t21 -10.5q0 -17 8 -17q4 0 15 19.5t22 19.5q7 0 17.5 -21.5t19.5 -25.5q0 -19 -2 -120.5t-4 -158.5q-5 -13 -29 -18q-17 0 -115.5 -2t-118.5 -2q-110 0 -110 22v521q-86 131 -195 350q-92 180 -170 276l-119 232 q0 3 -2 10.5t-2 9.5q0 3 10.5 10t14.5 7zM1231 1384q-25 0 -33 -8t-8 -33q0 -37 16 -43q7 59 49 82q-2 2 -24 2zM1286 1372l21 -57q13 0 21 6t11 18.5t3.5 20t0.5 22.5zM387 1247q-16 0 -16 -8q3 -8 16 -8t16 8q0 8 -16 8zM332 1227l-17 2q-36 0 -49 -51l8 -2q18 4 35.5 20 t22.5 31zM1139 1063q-9 0 -9 -14q7 -7 17 -7q0 7 4 11q0 10 -12 10zM1071 1044l14 5q-6 6 -12 6zM1178 997q-4 0 -4 -4t4 -8q6 0 6 8q0 4 -6 4zM1079 995q-4 0 -4 -4q0 -8 4 -10q6 0 6 10q0 4 -6 4zM1053 948l2 27q-23 0 -33 -23zM844 973q-6 0 -6 -2v-13q0 -38 32 -38l17 2 q-7 5 -19.5 28t-23.5 23zM1102 918q-16 0 -30.5 -9t-22.5 -18.5t-21 -28.5l14 -2q60 0 60 58zM899 909l-6 2q-8 -16 -8 -24q5 0 13 4l9 4zM877 903q-5 0 -5 -2q3 -4 5 -4q1 0 4 2t4 2q0 2 -8 2zM918 897l-7 -4q0 -12 8 -31.5t17 -19.5l6 2q0 53 -24 53zM995 879q-4 0 -4 -17 q0 -16 6 -16q9 4 9 16q0 4 -4.5 10.5t-6.5 6.5zM956 840q-10 0 -10 -6q1 -1 5 -3.5t5 -3.5l7 7q0 6 -7 6zM977 821q-8 0 -11.5 -1.5t-4 -4t-0.5 -8.5q0 -16 16 -16l16 16q0 14 -16 14zM1071 784l-10 11q-4 0 -22 -12.5t-23 -20.5h8q13 0 28.5 6t18.5 16zM569 782 q0 -31 35 -49v8q0 11 -12 24.5t-23 16.5zM1001 756q-18 0 -26 -21.5t-8 -38.5q0 -3 7 -9.5t11 -6.5q16 46 16 76zM930 743h-15q0 -59 19 -59q18 0 18 14zM739 465q-16 0 -25 -15t-9 -34q0 -14 16 -25q18 49 18 74zM842 455l-8 -13q0 -26 20 -32q16 6 16 26zM838 381 q-13 0 -13 -16q0 -7 0.5 -10t3.5 -5t9 -2q8 0 8 17q-8 8 -8 16zM829 334q-26 0 -26 -74q15 0 31.5 15t19.5 30q0 11 -7.5 20t-17.5 9zM688 98h-8q8 -18 25 -18l8 2q-7 16 -25 16z" />
<glyph unicode="Z" horiz-adv-x="1437" d="M389 1442q103 0 289 -7.5t289 -7.5q53 0 160.5 4.5t162.5 4.5l6 -9q0 -3 -39 -77.5t-45 -81.5l-168 -301q-46 -60 -59 -115l-240 -436q-14 -14 -28.5 -38t-14.5 -40q0 -29 185 -29q31 0 84.5 1t68.5 1q8 0 16 -9t11 -11t17.5 -5t19.5 -10q6 0 11 8t5 15q6 0 12 6t15 6 t30 2t35 2q31 0 31 -18q0 -16 -28 -91t-56.5 -142.5t-30.5 -67.5h-75l-516 4q-69 0 -203.5 -2t-200.5 -2q-4 4 -4 10l213 406l25 34l260 465q8 24 55 92.5t47 96.5q0 19 -5 22.5t-32 3.5q-82 0 -227 -1t-229 -1q-9 2 -9 19q0 12 4 12l93 272l14 13q9 0 28 1t23 1zM594 1372 q-4 -8 -4 -10q0 -11 13.5 -24.5t25.5 -16.5l2 18q0 33 -37 33zM1075 1305l10 -7l2 23zM643 1307q-15 0 -25 -25h13q18 0 18 21q-4 4 -6 4zM1110 1272l8 14q0 14 -18 14zM606 1274q-53 0 -53 -37q0 -33 35 -33q18 41 18 70zM852 1243q-2 0 -6 -3.5t-4 -4.5q0 -3 10 -23 q8 6 8 15q0 12 -8 16zM891 1227q-21 -13 -21 -31q0 -25 17 -25q6 0 10 5.5t4 11.5v8q0 16 -10 31zM791 1176q0 -20 17 -28.5t38 -8.5h16q-23 37 -71 37zM805 1098l22 -29l7 10l-9 31zM870 1085q-7 0 -12.5 -12.5t-5.5 -19.5v-6q15 22 39 28q-1 3 -9.5 6.5t-11.5 3.5z M901 1008q-12 0 -23.5 -5.5t-11.5 -17.5q19 0 35 23zM918 969q-11 -4 -11 -31q21 0 21 16q0 11 -10 15zM545 489l6 19q-21 0 -33 -23zM600 506q-34 0 -39 -57l8 -3q31 0 31 60zM535 436l-7 -20q0 -20 23 -29l2 16q0 27 -18 33zM477 412l-2 18q-16 -5 -16 -33v-18q18 6 18 33 zM637 387q-13 0 -33.5 -18.5t-36.5 -18.5q0 7 -3 11.5t-8.5 8.5t-6.5 5q-12 0 -12 -19q0 -18 49 -18q27 0 39 11t12 38zM1055 379l2 -8q0 -17 -17 -27l-2 10q0 16 17 25zM563 315q0 -25 18 -58.5t21 -61.5l16 -9l7 58q0 38 -12 54.5t-50 16.5zM344 264q0 -53 31 -53 q10 0 18 8t8 19q0 13 -19 19.5t-38 6.5zM1100 264q-27 0 -53 -37q3 -3 15.5 -9.5t16.5 -6.5q21 0 21 53zM1032 207q-15 0 -41.5 -15.5t-38.5 -15.5q-3 0 -9 4.5t-11 5.5q-1 -1 -2 -5.5t-2.5 -8.5t-3.5 -4q-2 -1 -4.5 3t-6 8.5t-6.5 4.5q-4 0 -12 -8.5t-10 -7.5l28 -39 q7 2 18 10t11 13q0 2 -3 7t-3 9l68 -6q9 0 18.5 17.5t9.5 27.5zM532 164l-16 6l-2 -6q-62 -50 -63 -51q2 -2 22 -2q26 0 37.5 12t21.5 41zM819 98q-11 0 -18.5 -8t-7.5 -18q0 -31 73 -31q0 20 -14 38.5t-33 18.5z" />
<glyph unicode="[" horiz-adv-x="935" d="M272 1561l326 8q120 0 168 -37q5 -3 8.5 -14t4.5 -32t1.5 -33t0 -41t-0.5 -34q0 -46 -6 -110l-12 -17l-207 -6q0 -16 -3 -99.5t-3 -109.5v-587q0 -26 -2 -160t-2 -150l229 -4q6 -65 6 -127q0 -4 0.5 -34t0 -44t-1.5 -37t-4.5 -37t-8.5 -22q-40 -16 -168 -16l-326 8 q-27 0 -43 15.5t-16 60.5l2 862l-4 29l2 692q0 45 16 60.5t43 15.5zM539 1546q-13 -22 -27.5 -31t-24 -9.5t-22 -14t-25.5 -43.5q-8 -8 -16 -33q39 12 65 49l-16 17q16 0 38 5t28 11q4 4 4 25q0 16 -4 24zM397 1417q-35 0 -57.5 -22.5t-22.5 -61.5q0 -21 9 -39q4 24 8 40 t13 35.5t25 29.5t38 10q0 8 -13 8zM365 1274q0 -27 12 -27q4 0 18.5 7t14.5 10q-20 10 -45 10zM379 543q-66 0 -66 -72q30 0 44.5 11t39.5 44q0 4 -6.5 10.5t-11.5 6.5zM317 453q14 -11 20.5 -25t7.5 -23.5t1 -27.5q9 3 11.5 6t2.5 10q0 21 -11.5 40.5t-31.5 19.5zM299 451 q-6 0 -12 -1.5t-10.5 -3.5t-10.5 -6.5t-9 -7t-9 -9t-7.5 -9t-8 -10.5t-7.5 -9q3 -7 13.5 -12.5t19.5 -5.5q0 23 19.5 43t21.5 31zM330 362l-19 3q-35 0 -35 -41q24 0 54 38zM262 326q-3 0 -7.5 -1t-9.5 -4t-5 -8q13 0 28 9q-4 4 -6 4z" />
<glyph unicode="\" horiz-adv-x="1409" d="M264 1473q95 0 109 -7q24 -20 37 -39l36 -63q50 -93 104 -194q41 -78 44 -87q8 -14 30 -44.5t31 -47.5q12 -31 39 -84q8 -13 43.5 -65.5t50.5 -83.5q2 -3 9 -15.5t12 -17.5q2 -3 34 -57.5t34 -61.5q47 -77 120 -219q248 -437 248 -438q0 -14 -35 -37q-33 -14 -43 -14 q-29 0 -70.5 5t-49.5 13l-469 799q-241 410 -408 708q-6 9 -6 21q0 11 8 14q11 7 42 11t50 4zM362 1358q-6 0 -11 -4.5t-5 -12.5l16 -16q7 0 11 5.5t4 10.5q0 11 -3.5 14t-11.5 3zM348 1288v-8q0 -14 6.5 -30t16.5 -19l10 10q0 4 -12.5 23t-20.5 24zM395 909q19 0 43 -18 q-29 0 -71 12q1 0 13 3t15 3zM268 811l2 8q8 -8 21 -21.5t19.5 -19.5t18 -13.5t25 -10t31.5 -2.5q0 -11 -35 -11q-28 0 -55 21t-27 49zM1010 -111l24 21q15 -21 15 -39z" />
<glyph unicode="]" horiz-adv-x="927" d="M346 1565l326 -4q27 0 43 -15.5t16 -60.5l-2 -1413l4 -29l-2 -143q0 -45 -16 -60.5t-43 -15.5l-326 -8q-117 0 -168 18q-5 9 -8.5 23t-4.5 37t-1.5 36t0 43t0.5 35q0 46 6 111l12 16h19l6 -6l4 -20l4 2l6 18l15 6l153 4q0 16 3 100.5t3 110.5v588q0 26 2 159.5t2 149.5 l-14 -4l-215 8q-6 65 -6 127q0 4 -0.5 34.5t0 44.5t1.5 38t4.5 39.5t8.5 24.5q68 6 168 6zM481 98q-6 0 -6 -2t6 -2q9 0 11 2q0 2 -11 2zM233 84l9 -43q10 0 24 29q-5 1 -17 7.5t-16 6.5zM350 76q-5 -29 -10.5 -41.5t-9 -17t-23 -10t-33.5 -11.5q1 -5 7 -9.5t10 -4.5 q28 0 51 19.5t23 39.5q0 30 -15 35zM440 63q-3 0 -4.5 -2t-2.5 -5.5t-1 -4.5l17 4q-4 8 -9 8zM424 8q-8 0 -8 -4l6 -4q2 0 2 8zM295 -33q-16 -8 -16 -20q0 -17 24 -25q3 4 4 8.5t1 11.5t1 11q0 1 -6.5 6.5t-7.5 7.5z" />
<glyph unicode="^" horiz-adv-x="892" d="M446 1618q17 0 52 -35q6 -5 30 -33l256 -270q7 -9 7 -37q-145 0 -166 8q-12 17 -35 33l-127 141q-9 11 -21 11l-153 -176l-17 -13q-160 0 -168 2l-2 4q0 3 7 13l262 282q61 70 75 70zM565 1477q-18 0 -18 -39h14l8 37zM580 1438q-5 0 -5 -15q0 -16 5 -24q4 4 4 18 q0 17 -4 21zM582 1370l-2 16q-23 -9 -23 -28l6 -21q19 6 19 33zM522 1305l4 -21q0 -10 -12 -10q-14 0 -22 8l22 27zM573 1284l7 -18q-22 0 -33 22z" />
<glyph unicode="_" horiz-adv-x="968" d="M498 0l139 2q77 0 160 -12q16 -50 16 -160q0 -13 -8 -23t-21 -10q-68 0 -271 3t-265 3l-6 2l-74 -2q-3 7 -1.5 37.5t-0.5 46.5q-8 48 -8 50q0 41 8 61h104l146 2q7 0 12.5 -9t11.5 -9q3 -10 6.5 -30t7 -32t7.5 -12q10 7 17 42.5t20 49.5zM401 -78l2 -8l11 2l-4 6h-9z M459 -96q-39 0 -39 -29v-8q39 8 39 37z" />
<glyph unicode="`" horiz-adv-x="417" d="M297 1915l45 55q10 -13 10 -26q0 -19 -16 -35h-2q-7 0 -37 6zM20 1855h246q17 0 31 -32q0 -1 -6 -17t-6 -24q5 -8 11.5 -11.5t14 -5.5t11.5 -4l96 -241v-7q0 -28 -56 -28q-9 0 -28.5 -1t-28.5 -1q-60 0 -76 22l-229 318v6q0 26 20 26zM274 1817q-4 0 -10 -10.5t-6 -18.5 q0 -3 1.5 -5t4 -2h5.5t5 -1q0 2 -1 5t-1 5q0 7 9 22q-5 5 -7 5zM213 1737q-17 0 -42.5 -22t-27.5 -23q4 -6 7.5 -18.5t8.5 -21.5t13 -12q-1 17 19 53t22 44zM248 1675l-33 8q-4 -8 -4.5 -17t1.5 -14l1 -5q20 0 28 6.5t7 21.5z" />
<glyph unicode="a" horiz-adv-x="1597" d="M680 1419h244q10 0 58 -112t48 -125q51 -180 128 -369.5t181.5 -421t155.5 -354.5q0 -28 -25 -35.5t-90 -7.5l-104 3q-104 3 -158 3q-31 25 -45 55t-17 51t-13.5 40t-45 28.5t-102.5 9.5q-79 0 -223 -4q0 18 26.5 31.5t26.5 28.5q0 20 -8.5 30.5t-20.5 10.5 q-9 0 -16.5 -12.5t-7.5 -26.5q-8 0 -18 -29t-15 -33l-70 4q-29 0 -46 -39t-30.5 -87t-31.5 -62q-208 -8 -273 -8q-86 0 -86 24q0 3 1 10t1 9l119 344q27 54 65 160t48 131q42 109 141.5 356.5t149.5 380.5q2 16 53 16zM1284 1141l14 -6q0 -7 -5 -18t-5 -17q0 -12 6 -21 q-4 0 -7.5 4t-6.5 10t-6 9v4q9 35 10 35zM1196 1108l8 2q18 0 25 -16l-8 -2q-15 0 -25 16zM604 1032l6 25q-22 -9 -22 -33zM1323 1008l8 -13q0 -26 -20 -32q-17 7 -17 26zM680 1004q-16 0 -22 -9.5t-8.5 -27.5t-6.5 -25q-20 -8 -22 -10q-8 -7 -20.5 -19.5t-12.5 -15.5 q0 -8 8 -25t14 -20q4 -3 24 -8.5t25 -5.5q0 13 -6 21t-13 10.5t-13 8t-6 15.5q0 7 29.5 46t29.5 65zM764 946q-10 0 -10 -16q0 -19 10 -19q8 4 8 17q0 10 -8 18zM582 831v-34l32 16q-5 18 -24 18h-8zM551 772l14 8l-14 35v-43zM756 805q-7 -20 -18.5 -61.5t-18.5 -63.5 q-6 -16 -26 -56t-34 -76t-14 -61q0 -8 5.5 -16t17.5 -8h227q5 0 12.5 5t7.5 11l-88 236q-14 15 -16.5 39.5t-11.5 37.5t-43 13zM614 780l33 -16v16h-33zM582 748v-39q43 0 51 24zM498 745l-6 -4q0 -4 5.5 -9t10.5 -5q4 0 4 4q0 5 -5 9.5t-9 4.5zM498 696l-6 -4q0 -3 7 -7.5 t11 -4.5q1 2 6.5 5.5t5.5 4.5q0 6 -24 6zM494 627l6 35q-32 0 -39 -17q11 -18 33 -18zM422 614l20 -6q0 31 -18 31zM453 586q0 -29 10 -49q4 17 18 22q-2 2 -6 8t-6.5 9.5t-7 6.5t-8.5 3zM504 465l-6 22q-4 0 -12 -5t-9 -5q-3 -1 -5.5 -10.5t-2.5 -13.5q35 0 35 12z M1083 453q-28 0 -49.5 -18.5t-21.5 -45.5q36 0 53.5 15t17.5 49zM487 391l17 47q-17 0 -28 -11.5t-11 -25.5zM952 389l49 -65l33 16q-13 3 -36.5 26t-36.5 23h-9zM1159 326l55 14l-32 16zM819 317l-12 27q-2 -10 -20.5 -29t-18.5 -28v-8zM848 305l-12 -16q0 -19 12 -25 l26 29z" />
<glyph unicode="b" horiz-adv-x="1388" d="M901 1444l10 22q4 -4 7 -4q0 -18 -17 -18zM236 1440h532q15 -21 55 -25q7 -1 22.5 -9.5t31.5 -8.5q12 0 31 6.5t22 11.5q126 -36 203 -143t77 -240q0 -105 -47 -192q-5 -7 -27 -29.5t-39.5 -42.5t-17.5 -27q0 -3 11 -14q155 -136 155 -319q0 -92 -34 -168.5t-90.5 -126 t-127 -78t-147.5 -33.5q-95 0 -215.5 -1t-155.5 -1q-129 0 -246 8q-24 7 -24 51q0 259 2 684.5t2 661.5q1 2 5.5 12.5t9.5 16.5t12 6zM922 1438l14 2q0 -4 -3 -9.5t-7 -5.5zM903 1313l-22 47l-27 -6q0 -19 15 -30t34 -11zM819 1313q-14 0 -21 -11.5t-7 -25.5q45 0 53 20 q-11 17 -25 17zM913 1282l-28 18q0 -13 11.5 -24.5t25.5 -11.5zM850 1294v-14q0 -23 10 -23q2 3 4 3v10q0 18 -14 24zM780 1268q-15 -2 -26 -11.5t-11 -25.5q14 0 26.5 7.5t12.5 21.5zM879 1251q-9 0 -15 -6q3 -8 10 -8q8 0 11 8q0 1 -2.5 3.5t-3.5 2.5zM868 1182 q-2 -2 -2 -8q0 -13 15 -17q-15 -60 -25 -67q10 -15 10 -37q0 -5 -0.5 -11.5t-1 -10.5t-0.5 -5q0 -14 13 -14l-3 -37q-10 -20 -10 -39q0 -3 5 -17t8 -18q0 1 3 6t5 12t2 17q0 15 -8 35q6 6 6 14l-2 29q6 0 6 6v4q-3 3 -8 41l6 9t7 10t5 6q-1 4 -14 65q2 0 6 -1t6 -1 q0 15 -29 29zM420 1174q-27 0 -42.5 -14t-15.5 -38t35 -24q2 0 9 6t8 10q6 24 6 60zM586 1133q-6 -2 -13.5 -8.5t-7.5 -10.5v-221l15 -12q36 0 53.5 0.5t49.5 3.5t49.5 10.5t37.5 20.5t28.5 34.5t8.5 50.5q0 37 -13.5 63t-32 39.5t-52 20.5t-57.5 8t-66 1zM961 1030 q-9 -10 -9 -12q0 -6 3.5 -12t11 -13t10.5 -12l2 16q0 27 -18 33zM340 879l-49 -15q0 -4 5.5 -10t10.5 -6q13 0 24 6t11 18zM608 754l-8 -2q-4 -1 -49 -31q7 -19 24 -19l7 3q8 0 33 6.5t34 9.5l2 6q0 27 -43 27zM528 686q-5 0 -9.5 -5t-4.5 -11q0 -19 14 -19q9 5 9 17 q0 9 -9 18zM643 584q-25 0 -35.5 -0.5t-22.5 -3t-16 -8.5t-4 -17v-233l15 -5q93 -6 96 -6q73 0 125.5 30.5t52.5 98.5q0 144 -211 144zM514 565q-20 -6 -33 -65l-4 -37q8 0 13.5 5.5t5.5 14.5q0 5 -1 14t-1 13q0 8 2 10l18 12q2 0 2 17q0 14 -2 16zM401 518q-4 0 -4 -16 q0 -17 6 -17q9 5 9 17q0 4 -4.5 10t-6.5 6zM477 424l-10 10q-4 0 -22 -12.5t-23 -20.5h8q12 0 28 6.5t19 16.5zM948 311q-37 -5 -37 -20l4 -12q35 4 35 24q0 8 -2 8zM868 229h-10q-18 0 -39 -8q12 -12 31 -12q7 2 10.5 5t5 8.5t2.5 6.5zM864 154l19 6q-2 14 -10.5 27.5 t-20.5 13.5zM879 145q0 -26 20 -55q1 0 7.5 16t6.5 19q0 20 -34 20zM883 57l51 -12l2 8q0 20 -37 25z" />
<glyph unicode="c" horiz-adv-x="1439" d="M918 1452q44 0 73 -4q67 -8 185 -42.5t118 -66.5q0 -18 -68 -146.5t-81 -129.5q-4 -2 -15 -2q-12 0 -21.5 3.5t-23.5 12.5t-16 10q-52 23 -166 23q-84 0 -149.5 -28t-107.5 -74t-69 -111.5t-38 -135t-11 -149.5q37 -60 61.5 -95.5t60.5 -75.5t71.5 -60.5t85.5 -34.5 t111 -14q45 0 92.5 12t78.5 25t89 41q11 0 90.5 -126t79.5 -147q0 -32 -70.5 -68t-143.5 -57.5t-104 -23.5q-27 -6 -84 -6q-296 0 -467 118q-7 6 -12.5 30.5t-5.5 41.5q-14 0 -19 -7t-10 -28q-136 94 -211.5 246t-75.5 322q0 24 7.5 63t7.5 53q0 3 -7.5 11.5t-7.5 11.5 q0 1 3.5 2.5t3.5 3.5q50 288 257 445t509 157zM1036 1319l-8 2q-24 0 -24 -21q2 4 16.5 9.5t15.5 9.5zM1085 1251q-22 -16 -22 -43q0 -8 4 -10q1 2 3.5 6.5t4.5 8t4.5 7.5t4 7t3 5.5t2.5 3.5l1 1q0 9 -5 14zM1057 1174l10 12l-12 4zM535 1186q-9 0 -21 -7.5t-12 -17.5 q50 0 61 17q-11 8 -28 8zM471 1159q-12 0 -12 -12q9 -19 12 -19l14 21q-5 10 -14 10zM430 1155q-16 0 -28.5 -30t-12.5 -46q17 10 29 37q11 33 12 39zM281 1030q-9 -4 -11 -4q11 -31 33 -49l2 16q0 37 -24 37zM383 938l-2 8q-16 -8 -16 -24l2 -11q16 9 16 27zM342 932 q-34 0 -39 -58l8 -2q31 0 31 60zM424 893q-27 0 -53 -37q3 -3 15.5 -9.5t16.5 -6.5q21 0 21 53zM422 817q-17 0 -21 -2q14 -16 52 -39q2 4 2 6q0 35 -33 35zM412 766q0 -35 16 -41q14 8 14 20q0 10 -10 15.5t-20 5.5zM344 748l12 4q0 4 -5 7t-9 3zM319 743q0 -2 -4 -6 l23 -10q0 16 -19 16zM281 739l-9 -2q2 -15 11.5 -26t25.5 -11q0 14 -7 26.5t-21 12.5zM440 510q5 -9 18 -18t25 -14.5t25 -11t14 -5.5l2 6q0 22 -26.5 32.5t-57.5 10.5zM535 446q-7 -8 -7 -10q0 -26 29.5 -45.5t58.5 -19.5q0 43 -16.5 56.5t-64.5 18.5zM842 299 q-23 0 -42.5 -17.5t-19.5 -39.5q23 0 42.5 17.5t19.5 39.5zM993 244l-8 35q-18 -20 -18 -50l2 -14q10 1 17 10t7 19zM625 231l-17 -2q4 -3 11.5 -10t13.5 -10.5t12 -3.5l12 8q-6 18 -32 18zM760 217q-19 -8 -19 -24q0 -17 19 -25q3 3 9.5 16t6.5 17q0 3 -6.5 9.5t-9.5 6.5z M1010 164q4 -2 9 -17t9 -16l2 8q0 25 -20 25zM772 154q-8 0 -10 -4q2 -1 6.5 -3.5t8 -4.5t7.5 -4.5t7 -4t5.5 -3t3.5 -2.5l1 -1q10 0 14 4q-7 10 -20 16.5t-23 6.5zM883 111l12 -11l4 13zM655 84q-16 0 -16 -6q17 -33 33 -45q3 3 9.5 16t6.5 17q0 18 -33 18z" />
<glyph unicode="d" horiz-adv-x="1556" d="M328 1446q117 0 186.5 -2.5t180.5 -12t187.5 -33t163 -62t153.5 -103t116 -150.5q96 -169 96 -356q0 -172 -68 -322.5t-199.5 -255t-303.5 -131.5q-113 -18 -332 -18q-303 0 -303 25v1372q0 49 123 49zM1065 1286q-17 0 -25 -18q2 -6 16 -18t23 -13q11 0 20 7.5t9 17.5 q0 12 -14 18t-29 6zM696 1282q-16 0 -33.5 -19.5t-17.5 -33.5v-6q9 7 14.5 9.5t7 2.5t3.5 0.5t4.5 4t9.5 13.5q17 17 21 19q0 3 -3.5 6.5t-5.5 3.5zM768 1262q-10 0 -25 -29h11q18 0 30 20q-4 9 -16 9zM580 1229l20 4q0 22 -33 22zM1098 1167l16 -32q3 13 26 36.5t23 36.5v9 zM657 1145l-6 61q-19 0 -33 -10.5t-14 -30.5q24 -20 53 -20zM588 1159l-45 10q0 -21 5.5 -42t14.5 -21q14 0 20.5 14t6.5 31zM1079 1165h-14q-10 0 -15 -0.5t-10 -4.5t-8 -13h17q26 0 30 18zM1163 1157q0 -36 15 -54t49 -18q0 29 -18.5 50.5t-45.5 21.5zM1128 1063l17 33 l-31 22zM625 1085l-33 -2l-8 -12q0 -112 -2 -334t-2 -336q0 -26 18 -26q30 0 95.5 3t92.5 3q9 0 11 -8l6 12q46 23 68 36t57 42.5t52 62t30.5 87t13.5 124.5q0 106 -58.5 187t-148 121t-192.5 40zM328 729l24 -10l-10 14zM303 729q-10 0 -14 -4q12 0 14 4zM393 682 q0 -13 6 -37v14q0 23 -6 23zM244 657q0 -1 -1 -4.5t-1 -5.5q0 -27 28.5 -46t59.5 -19h10q-18 10 -38.5 15.5t-31 16t-26.5 43.5zM395 641l-16 -25q4 -4 4 -6q12 0 12 31zM1081 596l27 -4l-10 39zM1071 590q-16 0 -25.5 -13.5t-9.5 -27.5q39 0 39 6q0 3 -2 7t-2 9v19z M961 559l2 -8q0 -11 -12 -20t-23 -9l-10 33zM1061 535q-13 0 -25 -17q8 2 15 2t11.5 -5t12.5 -5q0 25 -14 25zM1024 508l-23 6q0 -42 25 -49zM1038 434l13 -39q34 0 34 15q0 8 -17 16t-30 8zM1051 377q-19 -11 -19 -33l35 -6q0 32 -16 39zM514 360v-6q0 -20 12 -20 q11 0 11 20q0 6 -23 6zM1098 346q-3 0 -8 -7t-5 -11q2 -1 6 -7t5 -6q6 0 6 25zM1147 346q-4 0 -9 -5.5t-5 -10.5q0 -4 4 -4q5 0 9.5 5t4.5 9zM518 303l-4 14q-11 0 -25 -8.5t-14 -19.5q25 0 29 -13q14 7 14 27zM629 180l-2 -8q0 -7 9 -16t17 -11v13q0 22 -24 22zM700 172 q-16 0 -16 -12q0 -10 10 -10q6 12 6 22zM459 154q0 -31 14 -31h4q0 31 -18 31zM596 125q-12 0 -12 -27q0 -24 12 -28l22 45q-2 2 -10.5 6t-11.5 4z" />
<glyph unicode="e" horiz-adv-x="1255" d="M866 1425q36 0 54.5 -0.5t43.5 -4t37 -10.5t20.5 -20.5t8.5 -33.5q0 -30 4 -88t4 -88q0 -53 -20 -62q-40 -5 -149 -6t-192.5 -4t-90.5 -16q0 -33 -1 -85t-1 -65q0 -31 3.5 -44.5t14.5 -16.5q62 -9 389 -9l17 -12q1 -30 2 -88t2 -103.5t2 -68.5q0 -8 -8 -20.5t-15 -12.5 h-377q-32 0 -32 -57q0 -9 1 -24t1 -17q0 -164 43 -166q5 0 25.5 -1t35.5 -1q13 0 41.5 1t44.5 1q150 0 213.5 -9t63.5 -44q0 -16 2 -101.5t2 -99.5l-4 -51q-16 -16 -263 -16q-40 0 -107.5 -1t-88.5 -1q-60 0 -179 5t-177 5l-21 16q0 6 2 16.5t2 16.5q0 16 -6 341.5t-6 436.5 q0 50 2 135.5t2 130.5q70 0 70 23q0 4 -34.5 11t-35.5 11q-6 23 -6 70q0 25 1 89.5t1 103.5q9 30 67 30q12 0 26 -1t17 -1q94 0 271 3t278 3zM473 1370l4 -31l29 13q-5 18 -25 18h-8zM473 1264l2 28q-22 -9 -22 -32zM477 1249l-4 -35q42 0 51 25zM573 1227q-10 0 -10 -17 q0 -18 10 -18q9 4 9 16q0 10 -9 19zM457 1198q-4 0 -4 -16q0 -17 6 -17q8 4 8 17q0 4 -4 10t-6 6zM416 1137q-11 0 -15 -11q4 -10 31 -10q0 21 -16 21zM340 1122l-8 2q-19 0 -41 -16l16 -16zM362 1110q0 -12 5.5 -23.5t17.5 -11.5q0 19 -23 35zM342 1042l47 -12 q0 12 -13.5 20.5t-27.5 10.5zM434 1036v21q-3 -15 -13.5 -25t-25.5 -10q0 -32 23 -59q16 35 16 73zM997 256q-20 0 -24 -35q10 -4 12 -4q16 0 21 37q0 2 -9 2zM862 217q-7 -3 -25.5 -15.5t-23.5 -17.5l43 -6q0 10 12 15.5t15 9.5q-1 0 -10.5 7t-10.5 7zM958 217l-49 -14 q11 -19 27 -19q8 0 22 33zM786 186l-30 -47q4 -2 6 -2q24 0 24 35v14zM913 152q-8 -4 -8 -17q0 -8 8 -14l11 22q0 1 -4.5 5t-6.5 4zM874 135q-10 -15 -10 -31v-8q0 -6 4.5 -11t10.5 -5q16 0 16 24q0 18 -21 31zM754 106l-6 25q-9 -9 -9 -29zM975 84q-49 0 -72 -37h17 q21 0 38 8.5t17 28.5zM782 18q-14 0 -26 -8q4 -2 12 -2q19 0 29 6q-3 0 -9 2z" />
<glyph unicode="f" horiz-adv-x="1179" d="M311 1448q11 -23 64 -23q106 0 127 7q16 -9 37 -9q27 0 47 9h375q6 0 20 -6t16 -7v-268l-12 -12q-39 0 -111.5 -1t-80.5 -1q-5 0 -12.5 3t-12.5 3q-3 0 -7.5 -2.5t-8.5 -3.5q-31 -5 -61 -7t-47 -2.5t-31 -1t-21 -4t-10 -10.5q-7 -57 -7 -111q0 -11 1.5 -43t1.5 -57 q14 -31 141 -31q33 0 99.5 2t99.5 2q50 0 61 -8q14 -63 14 -196q0 -40 -10 -61t-41 -21h-350q-7 0 -12 -8.5t-5 -18.5q0 -67 3.5 -247.5t3.5 -297.5q-17 -14 -60 -14h-276q-16 0 -25 14q-16 197 -16 650q0 124 4 370.5t4 370.5q0 18 24.5 20.5t49 4t24.5 16.5zM356 1210 q-53 0 -53 -43l9 1l-1 1q0 4 8 7q7 3 19 3.5t15 6t3 24.5zM483 1139l-8 -9q2 -8 17 -8h10zM455 1073l-4 -2q-2 0 -7 -3t-11 -6.5t-7 -4.5q5 -10 12 -10l4 2q17 0 33 8l2 2q0 14 -22 14zM432 971q-12 0 -22.5 -7t-10.5 -18v-4h4q12 0 20.5 8.5t8.5 20.5zM506 877l-10 -9 q2 -4 14 -4q0 11 -4 13zM553 870q-6 0 -11 -13t-5 -19l10 -7v-18q9 0 16.5 6.5t7.5 14.5q0 6 -9 16t-9 20zM467 848q0 -14 23 -37t36 -23q0 16 -21 38t-38 22zM567 793q0 -11 16.5 -20t18.5 -23v6q0 13 -11 25t-24 12zM532 760q11 -8 14.5 -20.5t16.5 -20.5v10q0 21 -31 31z M616 729v-10q0 -10 9 -12v6q0 11 -9 16zM524 713q-4 0 -15.5 -3t-24.5 -7t-15 -5q8 -8 25 -8h8q3 1 22.5 4t22.5 4l2 2q0 6 -10 9.5t-15 3.5zM590 713q-10 0 -10 -6q0 -11 16 -11q10 0 12 11q-2 1 -5.5 2.5t-6.5 2.5t-6 1zM299 512l-8 2q-17 0 -41 -49l8 -2q27 0 41 49z M240 424q-2 -8 -2 -12q0 -19 12 -23v12q0 19 -10 23zM725 381h-10q-10 0 -17 29l9 8zM340 346h-6q-17 0 -17 -12q0 -16 6 -19.5t21 -3.5q14 0 16 2q-13 26 -20 33zM285 332l-2 -17q0 -26 16 -32l2 8q0 9 -16 41zM295 203l-14 -4q0 -15 5.5 -31t18.5 -16z" />
<glyph unicode="g" horiz-adv-x="1693" d="M866 1440q131 0 241 -33.5t234 -110.5q19 -13 19 -32q0 -14 -12 -33l-142 -225q-11 -13 -24 -13q-18 0 -51 20t-39 23q-126 45 -205 45q-154 0 -262.5 -115t-108.5 -270q0 -148 99.5 -258t244.5 -110q86 0 146.5 26t115.5 88q15 16 30.5 49t18.5 62q-4 0 -39.5 3t-62.5 3 q-64 0 -75 23t-11 145q0 17 1.5 44t3.5 47t3 20l13 20q24 4 131 4q70 0 216 -6t220 -6q20 -10 20 -51q0 -185 -47.5 -338.5t-139 -266.5t-233 -176t-321.5 -63q-82 0 -84 16q-2 -6 -12 -6q-65 0 -209 66q-124 55 -230 182.5t-145 263.5q-25 80 -25 223q0 154 54.5 291 t149 235.5t229 156t288.5 57.5zM780 1300l-2 -16q0 -27 19 -33l6 21q0 19 -23 28zM717 1294l-4 -2l8 -37h14q0 39 -18 39zM702 1255q-4 -4 -4 -20q0 -14 4 -18l5 21v3q0 14 -5 14zM838 1219l-4 -21q0 -10 12 -10q14 0 22 8l-22 27zM786 1198l-6 -18q22 0 33 22zM1204 752 v-13q0 -18 13 -22q10 7 10 16q0 6 -3 9.5t-7.5 5.5t-12.5 4zM1067 713v-21q10 0 22 1t27 4t25 9t10 15q0 7 -4.5 15.5t-13.5 8.5zM1339 717q0 -18 21.5 -26.5t38.5 -8.5q3 0 9.5 7t6.5 11q-49 17 -76 17zM1358 672q-8 0 -13.5 -9.5t-5.5 -19.5q33 0 39 16q-10 13 -20 13z M1319 651l-2 17q-5 -7 -28 -19.5t-23 -23.5q0 -7 2 -7h12q39 0 39 33zM410 487l-7 -28q14 0 24.5 11t10.5 26zM397 395l-14 -6q0 -7 5 -18t5 -17q0 -11 -6 -20q4 0 7.5 3.5t7 9.5t6.5 9v4q-9 35 -11 35zM485 362l-8 3q-17 0 -24 -17l8 -2q14 0 24 16zM975 303q0 -19 31 -31 q24 -8 51 -8q0 39 -82 39zM358 262l-8 -12q0 -27 21 -33q16 6 16 27zM977 121l6 72q-16 -8 -16 -25q0 -18 10 -47zM1032 166l-12 18q0 -42 20 -49zM1085 174q-3 0 -11 -3.5t-9 -6.5q24 -6 39 -29v6q0 6 -6 19.5t-13 13.5zM717 135q0 -18 3.5 -26t7.5 -9t14.5 -1.5t17.5 -2.5 q10 -5 10 -8l-2 -2q0 -2 12 -2q0 51 -63 51zM696 123q-10 -2 -10 -19q0 -20 29 -20q0 24 -19 39zM952 102h-10q-3 -1 -26.5 -5t-26.5 -5q-2 0 -2 -4q0 -14 28 -14q42 8 66 18zM1055 96q16 -22 35 -22q0 22 -35 22zM831 94q-14 0 -16 -12q16 -8 23 -8q9 0 12 8q-2 12 -19 12z M797 82l-2 -8q0 -15 10 -19v11q0 14 -8 16zM870 66q-2 -2 -2 -11q0 -12 12.5 -23t26.5 -14q-15 9 -19.5 24t-17.5 24zM823 31l-2 -8q0 -16 13 -29.5t30 -13.5q0 13 -19.5 24t-21.5 27z" />
<glyph unicode="h" horiz-adv-x="1562" d="M264 1423h293q30 0 35 -22q-4 -63 -4 -406q0 -61 9 -85.5t36 -24.5h315q49 0 49 147q4 40 4 60q0 16 -2 114t-2 123q0 9 1 28t2 35l1 15l25 12h320l12 -12v-1100q0 -43 -6 -143.5t-6 -147.5q-1 -5 -9.5 -9.5t-13.5 -4.5h-315q-14 0 -21.5 40.5t-7.5 96.5q0 63 1 104.5 t2 58.5t4 57.5t5 66.5q6 24 6 41q-1 7 -2.5 23t-2.5 29t-3 26t-5 20.5t-7 7.5l-10 7q-33 0 -132 3t-135 3q-92 0 -102 -13l-12 -10q0 -31 -2 -64t-2 -53q0 -26 2 -81t2 -84q0 -161 -4 -265q-12 -18 -60 -18q-149 0 -293 12q-24 10 -24 66q0 215 10 647.5t10 644.5 q4 55 39 55zM1208 1323q-9 0 -34 -16.5t-25 -22.5q0 -20 10 -20q9 0 18.5 10t18.5 10q16 0 16 -16l37 8q4 0 4 6q0 17 -13.5 29t-31.5 12zM1327 1288l-22 4q-17 0 -33 -14q3 -13 7.5 -18t14.5 -5zM293 1272h-6q0 -1 -1 -4t-1 -4q0 -33 41 -33q0 41 -33 41zM436 1253 q0 -49 4 -69q0 -2 4 -6t7 -4q10 4 10 24q0 53 -25 55zM336 1223q0 -13 10.5 -36t11.5 -40q2 -2 4 -2q17 0 17 18t-13 39t-30 21zM414 1157l6 21q-12 0 -23 -15zM1102 1055q-33 -4 -33 -23q0 -15 16 -26q3 5 7 12l6 10.5t4 9t2 11.5zM1122 897l-8 2q-29 0 -48 -28.5 t-19 -59.5v-10q10 17 16 38t16.5 31.5t42.5 26.5zM268 750q-14 0 -14 -19q0 -6 4.5 -11t9.5 -5q8 8 8 18q0 13 -8 17zM987 741q-10 -8 -22 -32q0 -4 12 -4q22 0 22 14q0 10 -12 22zM1106 723l-23 16q-4 -4 -8 -4q0 -12 31 -12zM1147 725q-11 0 -35 -6h14q21 0 21 6z M1192 614v-10q0 -21 12 -33l6 23q0 16 -18 20zM1063 596q0 -15 13 -27t30 -12q0 14 -14 26.5t-29 12.5zM1122 543v-5q2 -7 2 -10q0 -23 -18 -32q1 -3 14.5 -9t16.5 -6q18 0 18 25q0 16 -33 37zM1296 528q-7 0 -19.5 -5t-12.5 -13q0 -6 6 -19t10 -16q16 24 16 53zM1186 496 h-8q5 -8 23 -20.5t22 -12.5l10 10q-3 10 -19 16.5t-28 6.5zM1112 449q0 -13 6.5 -21t14.5 -8q1 0 7.5 5t8.5 5q-9 19 -37 19zM1038 424q0 -9 15 -39l22 25q-23 14 -37 14zM1159 412q-6 0 -6 -17q0 -16 4 -16q2 0 6 6t4 10q0 13 -8 17zM1126 319q-18 0 -18 -59h14l23 45 q0 14 -19 14zM1217 305h-33q9 -22 33 -22v22zM389 139q-3 0 -7.5 -4.5t-4.5 -7.5l39 -12q2 4 2 6q0 18 -29 18zM362 51q-30 -15 -30 -33q35 0 35 19q0 7 -5 14zM967 23l-25 10l14 4zM918 33q-2 -4 -15 -4q4 4 15 4zM1008 -14q6 0 6 -23v-14q-6 24 -6 37zM858 -39 q16 -33 26.5 -43.5t31.5 -16.5t38 -16h-10q-30 0 -59 19.5t-29 46.5q0 2 1 5.5t1 4.5zM993 -80l17 25q0 -31 -13 -31q0 2 -4 6z" />
<glyph unicode="i" horiz-adv-x="806" d="M270 1427h254q15 0 22 -0.5t19.5 -2.5t19.5 -8.5t11 -16.5q6 -86 6 -254q0 -151 -6 -465q0 -2 -15.5 -12.5t-15.5 -26.5q-30 0 -30 -20q0 -14 18.5 -21.5t42.5 -7.5q-6 -210 -6 -367q0 -16 0.5 -38.5t1 -39t0.5 -18.5q-3 -16 -4 -49.5t-5.5 -54t-15.5 -27.5q-57 0 -170 3 t-170 3l-14 8l-8 15q0 805 10 1376q5 12 13.5 17.5t15.5 6t26 0.5zM498 1364l-2 -18q0 -27 20 -33v16q0 30 -18 35zM420 1307q0 -21 10.5 -44.5t30.5 -23.5l10 8q0 20 -15 40t-36 20zM358 1298q-14 0 -24 -16l33 -18l8 22q-15 12 -17 12zM543 1171q-6 0 -6 -10q0 -4 6 -4 q4 0 4 4q0 8 -4 10zM444 1167q-6 0 -6 -8q0 -4 6 -4q5 0 5 4q0 3 -5 8zM475 1110q0 -6 -4 -10q0 -10 12 -10q9 0 9 14q-6 6 -17 6zM551 1108l-14 -4q6 -6 12 -6zM381 580q-5 0 -10 -9l4 -4l2 -35l6 -4q1 5 4.5 17t3.5 20q0 5 -3.5 10t-6.5 5zM387 518q0 -19 14 -43 q15 9 15 19t-10 17t-19 7zM283 469q-9 -2 -9 -33q0 -12 9 -14q10 3 10 18l4 6l-6 7q0 13 -8 16zM346 465q-14 -6 -14 -19q0 -14 14 -32q14 18 14 32q0 13 -14 19zM358 393l17 -26q26 0 26 57zM295 338h-10q-17 0 -39 -16h14q30 0 35 16z" />
<glyph unicode="j" horiz-adv-x="888" d="M489 1427h158q31 0 41 -30q3 -25 7.5 -118.5t4.5 -121.5q0 -73 -3 -203t-3 -168q6 -42 6 -149q0 -17 -3 -50t-3 -69q0 -22 3 -126t3 -134q0 -11 -9 -46.5t-17.5 -65.5t-7.5 -31q-32 -45 -72 -73t-90 -40.5t-91.5 -16t-105.5 -3.5q-153 0 -168 43q0 36 -1 106t-1 78 q0 72 27 76q31 2 49.5 4.5t39.5 9t32.5 17t20.5 29t11 44.5q0 36 4.5 218.5t4.5 207.5q0 53 -4.5 162.5t-4.5 150.5q0 293 25 293q14 0 43 -3t43 -3q10 0 30.5 6t30.5 6zM500 1350q-17 0 -17 -39q12 0 21.5 7.5t9.5 16.5q0 2 -1 6.5t-1 6.5q-2 0 -6 1t-6 1zM420 1321 q-6 0 -6 -6t7 -13.5t13 -7.5q0 20 -14 27zM545 1272q16 -12 17.5 -39.5t10.5 -36.5q9 3 12 6t3 10q0 21 -11.5 40.5t-31.5 19.5zM430 1266q-17 0 -29 -20t-12 -36t14 -16q1 0 4 1t7 1q0 15 8 36.5t8 33.5zM457 1217l26 10q-13 20 -34 20zM477 1184l-4 12q-8 0 -12 -8z M412 1171q-23 0 -23 -51q0 -22 8 -22q3 0 7 4t4 6q4 16 4 63zM586 1114h-4q4 -20 18 -20q0 20 -14 20zM621 1106v-14q0 -5 -6.5 -21t-5.5 -28.5t16 -18.5l22 -12q7 24 -3.5 55.5t-22.5 38.5zM446 219q-12 0 -12 -29q0 -12 12 -12q13 0 13 17q0 5 -3.5 14.5t-9.5 9.5z M457 137q0 -6 1.5 -13.5t6.5 -15.5t12 -8q3 0 33 15q-8 22 -53 22zM291 121q-18 0 -25 -10q-1 -2 3 -4t10.5 -3.5t13.5 -1.5q22 0 22 9q-3 10 -24 10zM522 111q0 -27 23 -39l14 16q-9 23 -37 23z" />
<glyph unicode="k" horiz-adv-x="1482" d="M872 1606h11q-17 -10 -38.5 -16t-32 -16.5t-26.5 -43.5q0 1 -1 4.5t-1 5.5q0 27 29 46.5t59 19.5zM948 1577q13 0 13 -31l-17 25q4 4 4 6zM965 1542v-14q0 -23 -7 -23q0 9 7 37zM885 1454l-15 4l25 10zM831 1462q13 0 15 -4q-11 0 -15 4zM512 1442q63 0 63 -25v-418 q0 -18 5 -18q15 0 36 26.5t43 60.5t35 44l230 311q13 13 28 13h303l50 -9q4 0 4 -10q0 -14 -4 -18l-88 -137l-31 -52l-244 -307q-6 -8 -6 -16q0 -15 6 -25l397 -821q0 -2 1 -6.5t1 -5.5q0 -37 -122 -37q-72 0 -167.5 6t-105.5 6l-14 12q-12 8 -230 473q-1 5 -2 17t-2 18.5 t-3.5 14t-7.5 11t-13 3.5q-5 0 -47.5 -57t-46.5 -66q0 -38 1 -120t1 -152q0 -145 -33 -154q-42 0 -103 -2t-84 -2q-34 0 -93.5 8t-59.5 12v646q39 56 39 79q0 10 -3 16t-8 10t-6 5q0 3 13.5 14.5t13.5 20.5q-7 0 -20 22.5t-17 24.5q0 92 -8 267t-8 266q0 37 16 45 q104 6 291 6zM461 1161v-12q0 -33 20 -33q17 0 17 33q0 12 -37 12zM471 1083l-4 15q-11 0 -25 -9t-14 -20q25 0 29 -12q14 7 14 26zM582 961l-2 -9q0 -7 9 -15.5t17 -10.5v12q0 23 -24 23zM412 934q0 -31 14 -31h4q0 31 -18 31zM549 905q-12 0 -12 -26q0 -25 12 -29l22 45 q-2 2 -10.5 6t-11.5 4zM281 872q-13 -35 -13 -47q35 0 35 25q0 22 -22 22zM352 836l-2 -15q0 -25 29 -28v8q0 10 -4 13t-15 3v10q0 5 -8 9zM442 705l2 16q-15 0 -24.5 -13t-13.5 -16l24 -14q1 -1 4 -10t8 -9l11 27l-15 8q0 1 2 5.5t2 5.5zM293 514q-6 2 -10 -4.5t-4 -20.5 q0 -22 14 -22q4 2 4 22q0 21 -4 25zM293 440q-6 0 -10 -12.5t-4 -26.5l6 -34q12 0 12 34q0 5 -2 19.5t-2 19.5zM1071 246l-4 14q-6 -6 -6 -12zM1018 219l-19 6q-4 0 -7 -20.5t-3 -30.5q23 0 23 35zM999 106q-24 0 -24 -20v-23l49 17q-6 26 -25 26z" />
<glyph unicode="l" horiz-adv-x="1165" d="M563 1421l12 -10q2 -5 9 -102q0 -1 -1 -45t-1 -70q0 -101 10 -408q0 -29 -17 -36q-5 -22 -20 -31q-16 -32 -16 -53q21 0 30.5 -10.5t26.5 -55.5q4 -218 4 -289l6 -6h410q15 0 23 -7t8 -28q0 -32 6 -98t6 -98q0 -12 -6.5 -32.5t-14.5 -21.5q-123 -13 -203.5 -15.5 t-285.5 -2.5q-10 27 -31 27q-5 -15 -8 -15q-4 0 -12 -6t-11 -6q-256 0 -256 23q-2 166 -14 629t-12 716q0 51 26 51h332zM530 643q18 -6 19 -6q10 0 10 6q0 10 -16 10q-11 0 -13 -10zM514 643v-6q0 -12 8 -16v10q0 10 -8 12zM510 588q10 0 14 18zM528 500l-2 12 q-12 -2 -12 -25v-10q14 4 14 23zM512 440l-4 -24q23 0 27 10q-7 14 -23 14zM424 418q-18 0 -37 -12v-9q0 -7 -14 -16.5t-15 -18.5v-4q1 1 4 5t5.5 6t5.5 2q7 0 14 -13q5 8 10.5 10.5t9 2t7 3t4.5 13.5q0 2 3 15.5t3 15.5zM514 399q-4 0 -4 -16l4 -4q2 0 5 4.5t3 7.5 q-2 1 -4.5 4.5t-3.5 3.5zM510 375q-2 0 -2 -2q0 -3 3.5 -7t6.5 -4l4 3q0 10 -12 10zM526 352l-14 4q0 -20 12 -20zM377 311l-23 -26q9 -9 23 -9q12 0 12 11l-4 20zM524 311q-10 0 -10 -10q0 -2 2 -2q3 0 7.5 3.5t4.5 6.5zM436 287l-26 4q12 -23 32 -23zM528 258 q-18 0 -18 -4q0 -1 4 -3.5t4 -4.5q4 0 9 3t5 5q-2 4 -4 4zM512 209h2v-12l14 4l-2 12q2 1 9 8q-5 12 -27 12zM268 184q0 -12 7 -22t18 -10h4v4q0 12 -8.5 20t-20.5 8zM530 180q-6 0 -20 -18q10 -2 14 -15q6 15 6 33zM811 154h-6q-13 0 -25 -11t-12 -24q11 0 20 16.5t23 18.5 zM588 129q-6 0 -17 -9t-20 -9q0 -6 13.5 -11.5t19.5 -5.5l6 10h18q0 9 -6.5 17t-13.5 8zM512 123l-4 -25q22 0 27 13q-8 12 -23 12zM842 115h-11q-20 0 -30 -31q8 11 20.5 14.5t20.5 16.5zM860 100q-12 0 -12 -24l14 -56q8 8 8 25v8q-1 3 -4 22.5t-4 22.5zM518 86l-8 -6 q0 -4 18 -4l4 2q0 2 -5 5t-9 3zM772 78q-15 0 -37 -21.5t-22 -38.5q13 0 36 23t23 37zM696 61q-10 0 -12 -4l8 -10q4 2 4 14zM516 53q-2 0 -2 -2q0 -10 10 -10l4 2q0 3 -4.5 6.5t-7.5 3.5z" />
<glyph unicode="m" horiz-adv-x="1945" d="M236 1411h303q10 0 23.5 -5.5t19.5 -12.5l372 -547q9 -12 19 -12t16 12l262 371l13 12l106 153l19 17l94 2q243 0 243 -8l7 -11q0 -8 4 -68t4 -67q0 -1249 -21 -1249h-323q-12 0 -16.5 26.5t-4.5 47.5q0 88 4 263t4 263q0 187 -2 195l-12 24q-4 -1 -33.5 -45.5t-59 -91 t-32.5 -49.5q-107 -154 -260 -361q-12 -12 -18 -12q-17 0 -37 41l-107 152q0 8 9.5 17t9.5 11q0 6 -6.5 10.5t-12.5 4.5q0 -5 -7.5 -10t-16.5 -5l-123 185q-13 7 -33.5 39.5t-36.5 61t-20 28.5q-2 0 -8 -1t-11 -1q0 -95 -3 -286.5t-3 -285.5q0 -129 4 -192q-4 -4 -6.5 -10.5 t-4 -10.5t-3.5 -4h-326q-16 0 -16 25v290q4 12 4 25q-8 102 -8 188q0 143 6 430t6 433q2 6 7.5 12t11.5 6zM446 1272l-34 14q-11 -8 -11 -10q0 -3 1.5 -5.5t5 -5t6.5 -4l8 -4t8 -4.5zM354 1272q-14 0 -21 -12t-7 -27q47 0 53 20q-8 19 -25 19zM356 1210l-30 11 q-1 -4 -13.5 -11.5t-15.5 -7.5q-6 0 -17 5t-18 5q0 -11 7 -20.5t18 -9.5q7 0 19 7t20 7h12q18 0 18 14zM301 1167q-8 0 -18.5 -4t-10.5 -8q0 -18 35 -18l-8 -29l4 -10q14 0 14 39q0 30 -16 30zM428 1073h10l-8 6zM1593 1067q-4 -8 -4 -20q0 -23 10 -29q2 3 4.5 12.5 t4.5 13.5q0 8 -15 23zM1298 1008l25 -11l-10 15zM1274 1008q-10 0 -14 -4q12 0 14 4zM418 997q-2 -4 -8.5 -6t-6.5 -4q5 -6 5 -10q5 3 6.5 5.5t2.5 8t1 6.5zM1364 961q0 -13 6 -37v14q0 23 -6 23zM432 936l-43 -8q0 -10 29 -25q1 5 7.5 17t6.5 16zM1214 936q0 -1 -1 -4.5 t-1 -5.5q0 -27 29 -46.5t59 -19.5h11q-17 10 -38.5 16t-32 16.5t-26.5 43.5zM1366 920l-16 -25q4 -4 4 -6q12 0 12 31zM344 895q-5 -1 -9.5 -6.5t-4.5 -9.5q0 -28 19.5 -51t39.5 -23q30 0 35 14q-29 5 -41.5 10.5t-17 9t-10 23t-11.5 33.5zM295 891q-17 0 -25 -25 q4 -3 8.5 -4t11.5 -1t11 -1q1 0 6.5 6.5t7.5 7.5q-9 17 -20 17zM352 754l-4 -6q0 -3 8 -3q0 9 -4 9zM399 737l4 -16q9 5 9 8t-2 4.5t-6 2t-5 1.5zM444 694q-2 0 -2 -6q0 -8 2 -10q2 0 2 10q0 6 -2 6zM1511 657h-8q-26 0 -26 -41l2 -8q20 12 32 49zM936 600l-2 16 q-23 -9 -23 -28l7 -21q18 6 18 33zM997 610q-18 0 -18 -39h14l8 37zM1012 571q-4 0 -4 -14l4 -25q4 4 4 19q0 16 -4 20zM868 539l-22 -27q8 -8 22 -8q13 0 13 10l-4 21zM928 514l-27 4q11 -22 33 -22zM1567 352l-8 2q-16 0 -25 -18l20 6zM1630 270l-47 31q-2 -4 -2 -6 q0 -25 35 -25h14zM1665 219l-6 -43q10 0 15 -11.5t9 -14.5q0 1 7.5 10t7.5 10q-3 7 -15.5 25.5t-17.5 23.5zM1589 186l-16 -2q6 -16 33 -16l14 2q-4 16 -31 16z" />
<glyph unicode="n" horiz-adv-x="1624" d="M229 1397h267q32 0 47 -23l252 -364q0 -40 34 -47l207 -299l25 -27l4 6q0 750 18 750h324l12 -9q0 -156 -4 -540t-4 -572q0 -139 2 -211l-6 -59l-41 -8l-258 8q-9 0 -24 20.5t-19 32.5l-193 277q-3 9 -15 24t-15 25l-264 375q-9 14 -17 14q-6 0 -6 -8v-750l-12 -10 q-2 -2 -88 -2q-242 0 -242 8l-8 10v721q74 0 74 25q0 6 -6.5 17t-6.5 24q0 3 10 11t13 13q0 2 -3 5.5t-7 3.5q-9 0 -21.5 -16.5t-15.5 -16.5q-5 0 -10 3.5t-11 10.5t-10 10q0 143 -3 287.5t-3 220.5q0 60 24 60zM334 1018l10 -8l16 2q-9 22 -32 22zM268 1028q-18 -8 -18 -24 l2 -9q22 9 22 25zM502 999l2 -8l10 2l-4 6h-8zM301 997q-3 0 -8.5 -6t-5.5 -10q0 -3 5.5 -9.5t8.5 -6.5q7 0 25.5 6.5t23.5 9.5q-4 4 -22.5 10t-26.5 6zM389 981l2 -12q2 0 3.5 2t4.5 4q0 6 -10 6zM360 963q-10 -2 -10 -25v-16q21 13 21 26q0 11 -11 15zM502 950 q-39 0 -39 -28v-9q39 8 39 37zM287 942q-11 0 -11 -14q17 0 19 8q-3 6 -8 6zM336 932l-10 2q-14 0 -25 -19l10 -2q14 0 25 19zM301 911q-12 0 -12 -14q13 0 24 8q-2 6 -12 6zM403 905l-12 -63q39 0 39 53zM315 891q-16 0 -16 -8q6 -17 6 -21q0 -1 4 -7t4 -13 q-12 -12 -14 -13h6q29 0 29 37q0 25 -19 25zM1235 842l4 -13q7 0 12 9zM1139 829q-9 -3 -12 -6t-3 -10q0 -20 11.5 -39.5t31.5 -19.5q-16 12 -17.5 39t-10.5 36zM1339 758q2 -4 13 -4q-2 4 -13 4zM1235 750q-13 0 -21 -10t-8 -23q11 22 35 28q-1 0 -3 2.5t-3 2.5zM1339 653 h-8q-12 0 -14 -8q2 -2 8 -2q14 0 14 10zM1227 545l-6 20q-6 0 -10.5 -2t-5.5 -4l-1 -2q25 -25 32 -41q2 -3 1 -4q2 2 12 8t13 12q-10 29 -25 29q-3 -9 -10 -16zM1280 555q-3 0 -5 -2t-4.5 -6t-4.5 -6l16 -9q3 0 6.5 3.5t3.5 5.5q0 14 -12 14zM414 502l-8 2q-21 0 -35.5 -23 t-14.5 -45h25zM1255 489q-1 0 -6.5 -1t-8 -1.5t-6.5 -2t-5.5 -4.5t-1.5 -7q0 -12 8 -12q4 0 7 4t7.5 13zM498 209l-6 10q-21 0 -23 -12z" />
<glyph unicode="o" d="M895 1440q207 0 376.5 -102t265 -277.5t95.5 -388.5q0 -87 -22.5 -167.5t-67.5 -182.5q-20 -14 -45.5 -59.5t-38.5 -57.5q-135 -133 -256.5 -192.5t-294.5 -59.5q-212 0 -386.5 97.5t-275 271.5t-100.5 387q0 140 57.5 273t155.5 234t239 162.5t298 61.5zM672 1135 q-12 0 -21.5 -21t-9.5 -43q29 -27 29 -57q0 -13 -4 -17q-59 -47 -99.5 -128t-40.5 -167q0 -166 105 -266t272 -100q154 0 256.5 106.5t102.5 259.5q0 154 -110 261.5t-265 107.5q-48 0 -102.5 -16t-88.5 -37q-19 0 -24 117zM1311 1051q-6 0 -9.5 -6t-3.5 -13q21 0 23 10 q-3 9 -10 9zM1329 1014q-16 0 -16 -19q19 0 30 11q-2 8 -14 8zM1292 1006q-8 -3 -8 -19l2 -12q1 1 5.5 5t6.5 6.5t2 6.5q0 8 -8 13zM1370 991v-4q0 -14 31 -26l2 10q0 20 -25 20h-8zM1442 961l10 -21q12 9 12 21h-22zM1432 930l-2 -21q0 -31 12 -51l20 10q-4 6 -12 31 t-18 31zM1384 887h-12q0 -15 -12 -31h4q20 0 20 31zM430 692q-4 0 -16 -3t-13 -3q42 -12 72 -12q-24 18 -43 18zM1546 690q-32 0 -74.5 -44.5t-50.5 -80.5q3 0 17.5 -3t17.5 -3l31 6q2 2 5.5 17t6.5 31t4 18t17.5 9t17.5 9q1 1 4.5 18.5t3.5 22.5zM305 602l-2 -8 q0 -28 27 -49t55 -21q35 0 35 11q-23 0 -40.5 6.5t-24 11t-25 24t-25.5 25.5zM1393 555q-30 0 -44.5 -11t-39.5 -44q0 -4 6.5 -10.5t11.5 -6.5q66 0 66 72zM1550 453q-6 -12 -6 -19q10 0 10 8q0 9 -4 11zM1272 436h-15q21 -37 54 -37q0 37 -39 37zM1438 387 q8 -24 22.5 -29.5t42.5 -5.5q29 0 33 2q-32 24 -98 33zM936 211l6 72q-16 -8 -16 -25q0 -18 10 -47zM1108 279q-14 0 -14 -21q4 -12 14 -12l12 10q0 5 -3 11t-6 9zM1044 264q-3 0 -11 -3.5t-9 -6.5q24 -6 39 -29v6q0 6 -6 19.5t-13 13.5zM1169 225h-22q0 -11 12 -20z M1182 174l-2 21q-10 -6 -18.5 -31t-12.5 -31l20 -10q13 22 13 51zM1014 186q16 -22 35 -22q0 22 -35 22zM866 150l-6 -35q32 0 39 16q-11 19 -33 19zM1044 127l-4 -10l4 -19q44 0 50 21l-33 10zM1135 125q-9 -2 -9 -16v-11q11 4 11 19zM850 96q-1 -2 -6.5 -5.5t-5.5 -4.5 q0 -6 24 -6l6 4q0 3 -7 7.5t-11 4.5zM852 49q-4 0 -4 -4q0 -5 5 -9.5t9 -4.5l6 4q0 4 -5.5 9t-10.5 5z" />
<glyph unicode="p" horiz-adv-x="1378" d="M662 1405q118 0 223.5 -33.5t188.5 -96t132 -162t49 -222.5q0 -86 -10 -86q-3 2 -7.5 5.5t-8.5 5t-10 1.5q-11 0 -19 -10q-6 0 -18 -4t-21 -4q0 -5 17.5 -9t33.5 -4q31 0 31 -8q0 -19 -16 -55t-29 -55q-184 -254 -600 -254q-12 -4 -20 -13t-11 -22.5t-3.5 -22.5t-0.5 -24 v-289q0 -47 -47 -47q-105 0 -207 6q0 9 -3.5 19.5t-4.5 15.5q-6 -5 -11.5 -13.5t-9 -14t-6.5 -5.5q-7 1 -22 2t-23 2q-24 0 -24 37q0 89 3 256.5t3 251.5q0 141 -3 430.5t-3 405.5l6 12q54 4 78 4q19 0 35 -4q35 0 186 2zM518 1370q0 -20 27 -39q12 9 12 19q0 20 -39 20z M582 1341q-6 0 -16 -8t-19 -8q8 -8 18 -8q17 0 17 24zM600 1276q-16 0 -29 -8q5 -4 7 -4q22 0 22 12zM563 1266q-23 0 -53 -39l18 -2q35 0 35 41zM829 1266q-8 -2 -8 -15q0 -16 19 -16q0 20 -11 31zM842 1229q-13 0 -13 -31l2 -24q3 5 20 13t17 17q0 7 -10.5 16t-15.5 9z M494 1212q-9 -3 -12 -6t-3 -10q0 -20 11.5 -39.5t31.5 -19.5q-14 11 -20.5 25t-7 22.5t-0.5 27.5zM582 1212q0 -23 -19.5 -42.5t-21.5 -30.5q6 0 12 1.5t10.5 3.5t10 6t8.5 6.5t9 9t8 9l8 10t7 9.5q-3 7 -13 12.5t-19 5.5zM817 1192q-8 -3 -8 -10q0 -13 18 -13q0 21 -10 23z M739 1188q-3 0 -6.5 -4.5t-3.5 -7.5q-1 -2 -6 -18.5t-6 -18.5q4 -2 12 -2q12 0 21.5 11.5t9.5 25.5q0 6 -6.5 10t-14.5 4zM825 1163q-6 -2 -6 -12q0 -5 10.5 -20t16.5 -15q8 0 8 12q0 15 -5 21.5t-13.5 9t-10.5 4.5zM690 1153q-7 0 -12 -8q3 -8 18 -8l13 2q-14 14 -19 14z M287 1128q-7 0 -11 -4q0 -4 7 -11t12 -9q8 0 8 10q-2 14 -16 14zM584 1110q-25 -16 -25 -152q0 -79 4 -235l21 -18q40 0 61.5 0.5t61 3.5t63 9.5t53.5 19.5t46 31t28 46.5t12 65.5q0 45 -8 79.5t-20.5 59t-36 41t-47 26.5t-60.5 15t-70.5 6.5t-82.5 1.5zM977 874l-33 -32 q5 -17 29 -17q35 0 39 2q-12 33 -35 47zM1057 850l4 -12q8 0 12 8zM1016 821q0 -4 3.5 -9t15.5 -10t30 -5q47 0 53 -11q26 0 33 13q-13 3 -38.5 9.5t-45.5 9.5t-51 3zM475 444q-30 0 -44.5 -11t-39.5 -44q0 -4 7 -10t12 -6q65 0 65 71zM463 342q-4 0 -18.5 -6.5t-14.5 -9.5 q22 -11 45 -11q0 27 -12 27zM514 295q-4 -24 -8 -40t-13 -35.5t-25 -29.5t-38 -10q0 -8 12 -8q35 0 57.5 22.5t22.5 61.5q0 23 -8 39zM416 174q-40 -12 -66 -49l17 -16q-15 0 -37.5 -5.5t-28.5 -11.5q-4 -4 -4 -24q0 -17 4 -25q13 22 27 31t23.5 9.5t22 14t25.5 43.5 q9 9 17 33z" />
<glyph unicode="q" horiz-adv-x="1822" d="M870 1452q272 0 466 -147.5t268 -389.5v-22q-27 0 -74 -10.5t-66 -28.5q0 -16 -69 -33.5t-86 -17.5q-8 0 -22 6t-17 10q-14 0 -27 8q-10 40 -26 74q-42 84 -137 131t-195 47q-77 0 -150 -30q-13 27 -41 59q-7 0 -22.5 -29t-20.5 -32q0 -13 -5.5 -32t-10.5 -24 q-131 -102 -131 -258q0 -103 46.5 -194.5t132.5 -149t191 -57.5q193 0 291.5 117.5t98.5 320.5q4 0 29 5t36 5q3 0 52 9.5t65 9.5h156q2 -15 14 -30.5t12 -29.5q0 -181 -86 -348q-3 -6 -21 -31t-18 -41q0 -11 51.5 -11.5t103.5 -2.5t52 -18q0 -11 -2 -11l-141 -253l-13 -15 l-424 -4q-15 0 -98.5 -15.5t-138.5 -15.5q-219 0 -390.5 100t-264.5 273t-93 389q0 252 141 438t371 250q3 0 14.5 -9t24.5 -9q7 8 24 15.5t29.5 13t12.5 10.5q47 8 108 8zM684 1370q13 0 18 27l-4 2q-14 0 -14 -29zM709 1341l-2 19q-19 -5 -19 -35v-16q21 6 21 32z M686 1284l-6 -35q32 0 39 17q-11 18 -33 18zM690 1227q-6 0 -6 -25l4 -6q3 0 7.5 7t4.5 11q-2 1 -5.5 7t-4.5 6zM684 1180q-4 0 -4 -4q0 -5 5 -10t9 -5l6 4q0 4 -5.5 9.5t-10.5 5.5zM707 1147l-21 6q0 -31 19 -31zM1354 1108q-13 0 -21 -4q18 -3 28.5 -5.5t21 -12.5 t10.5 -25q4 0 4 6q0 18 -11.5 29.5t-31.5 11.5zM1323 1083q-14 0 -14 -6q0 -2 3.5 -9t4.5 -7q6 9 6 22zM317 1044q-13 0 -20.5 -9.5t-7.5 -22.5q11 22 35 28q-1 0 -3.5 2t-3.5 2zM416 948h-8q-13 0 -15 -8q2 -2 8 -2q15 0 15 10zM303 836v24q-22 0 -22 -8q0 -1 2 -3 q33 -37 30 -42q2 2 12 8t13 12q-10 29 -25 29q-5 -15 -10 -20zM1565 850l12 2q8 0 19.5 -8t19.5 -8l12 2q-1 -6 -12.5 -13.5t-16.5 -7.5q-12 0 -34 33zM356 850q-3 0 -5 -2t-4.5 -6t-4.5 -6l16 -9q3 0 7 3.5t4 5.5q0 14 -13 14zM332 784q-1 0 -6.5 -1t-8.5 -1.5t-6.5 -2 t-5.5 -4.5t-2 -7q0 -12 8 -12q4 0 7 4t8 13.5t6 10.5zM1497 463v8q-10 0 -26.5 -17t-18.5 -28q11 0 28 14t17 23zM1481 422q-41 -14 -41 -33q12 2 26 11t15 22zM1430 371q-10 0 -17 -12.5t-16 -12.5h-8l-23 6q-4 0 -9 -8.5t-5 -11.5q6 6 14 6q14 0 14 -10q0 -8 -8 -22.5 t-8 -26.5q17 0 25 8q1 1 4.5 11t5.5 11h4q4 11 11.5 21t11.5 18.5t4 22.5zM698 356q-10 0 -10 -28q0 -9 6 -15q11 6 15 25q0 18 -11 18zM705 272v15q-4 -25 -19 -25q0 -13 8 -33q-8 -10 -14 -41q4 -2 6 -2q10 0 17.5 15t7.5 30l-2 11q-7 0 -9 -4q5 30 5 34zM1374 125l-18 8 l-10 -5q-11 -5 -20 -11.5t-9 -10.5q0 -6 5.5 -17t10.5 -11q13 0 27 17t14 30zM692 127l-2 -33q12 0 12 31zM694 70q-4 0 -6 -9q2 -6 14 -6q0 15 -8 15zM1276 41q-6 -6 -6 -10q0 -8 16 -8q0 16 -10 18z" />
<glyph unicode="r" horiz-adv-x="1435" d="M215 1421h567q127 0 240.5 -64.5t182.5 -176.5t69 -242q0 -152 -87 -264.5t-235 -173.5q-6 0 -6 -11l2 -8l350 -426q25 -37 25 -49q0 -6 -43 -6q-3 0 -57.5 -0.5t-138.5 -1t-160 -0.5q-23 3 -35 20l-285 338q-3 2 -8.5 9.5t-12 12.5t-12.5 5q-4 0 -10 -27v-331 q-9 -19 -12 -19h-279q-36 0 -49 16.5t-16 55.5q0 183 3 464t3 421q0 15 -1.5 89.5t-3 143t-1.5 70.5q7 150 10 155zM385 1272l-2 8q-49 -24 -49 -41l2 -8q49 14 49 41zM285 1176q-15 0 -15 -2q-3 -3 -7.5 -19t-4.5 -22q3 0 8 -5q5 0 16 17.5t15 28.5q-2 2 -12 2zM623 1130 q-43 0 -43 -2l-19 -16v-385q0 -16 43 -16q52 0 93 5t82.5 19.5t69.5 38.5t45 64t17 94q0 55 -27 95.5t-71.5 61.5t-92 31t-97.5 10zM264 1124q-14 -7 -14 -26q14 0 14 26zM510 993v25q-3 -9 -13 -31.5t-16 -42.5t-6 -39q7 -21 19 -33q-2 6 -2 19q0 18 9 50t9 52zM502 776 l20 6q0 72 -35 72zM801 584l-4 -6q0 -3 8 -3q0 9 -4 9zM848 567l4 -16q8 4 8 8q0 3 -2 4.5t-5.5 2.5t-4.5 1zM909 557q2 -3 11.5 -8.5t13.5 -5.5q-2 3 -11.5 8.5t-13.5 5.5zM805 549q-13 0 -21 -10t-8 -23q12 23 35 29q-1 0 -3 2t-3 2zM893 524q-2 0 -2 -6q0 -8 2 -10 q2 0 2 10q0 6 -2 6zM260 477q0 -27 26 -51.5t54 -24.5l-6 13q-16 0 -24 10t-10 21.5t-12 21.5t-28 10zM909 453h-8q-12 0 -14 -9q2 -2 8 -2q14 0 14 11zM430 424q-11 0 -16 -8t-8 -25h16q27 0 33 17q-8 16 -25 16zM346 393l19 -26q10 3 10 12q0 5 -2.5 8.5t-9 9t-7.5 6.5z M391 375q0 -26 39 -53v16q0 37 -39 37zM797 340v25q-9 0 -14.5 -2.5t-6.5 -4.5l-2 -2q25 -25 32 -41q2 -3 1 -4q1 1 10.5 8t13.5 13q-9 28 -24 28q-5 -15 -10 -20zM537 358q-33 -4 -33 -22t4.5 -43t13.5 -29q0 27 2.5 44.5t6 23t6 10t2.5 8.5zM369 354v-4q0 -6 4 -12t10 -6 q0 16 -14 22zM850 354q-3 0 -5 -2t-4.5 -6t-4.5 -6l16 -8q3 0 6.5 3t3.5 5q0 14 -12 14zM825 289q-1 0 -5.5 -1t-6.5 -1.5t-5.5 -1.5t-5.5 -2.5t-3.5 -4.5t-1.5 -6q0 -12 8 -12q4 0 7 4.5t7 13t6 11.5z" />
<glyph unicode="s" horiz-adv-x="1312" d="M723 1427q120 0 244 -47q123 -55 123 -69q0 -13 -56.5 -111t-77.5 -129q-2 -4 -10 -4q-9 0 -94.5 33t-132.5 33q-45 0 -84 -24.5t-39 -68.5q0 -50 36.5 -83.5t145.5 -100.5q9 -6 14 -9t13.5 -8.5t15.5 -9.5q26 -19 72.5 -51t70.5 -49.5t59 -47t53.5 -54.5t37.5 -59.5 t27 -76t8 -90.5q0 -129 -69 -231.5t-180.5 -156.5t-242.5 -54q-219 0 -419 113q-78 40 -78 59v6q13 27 62 113t87 141q28 0 66.5 -28t44.5 -31q109 -53 248 -53q51 0 85.5 21t34.5 69q0 49 -38 94q0 8 -21 8q-8 5 -8 14q2 2 5.5 10t8 12.5t10.5 4.5q0 10 11 10q0 5 12 16.5 t12 16.5q-19 0 -32 -10.5t-16 -19.5t-3 -15q-10 -4 -31 -4q-21 13 -63 37.5t-66.5 39t-64 40t-63.5 44t-57.5 46.5t-53.5 52t-43 56t-35 63.5t-20.5 69.5t-8.5 78q0 102 39 179t108 123.5t158 69.5t195 23zM387 1401q18 0 29 -8q-11 -17 -62 -17q0 10 12 17.5t21 7.5z M283 1370l-13 -39q-12 -28 -28 -37q0 16 12.5 46t28.5 30zM997 1313l-8 2q-24 0 -24 -21q2 4 16.5 9.5t15.5 9.5zM231 1264q9 0 15 -11q-5 -5 -15 -20q-3 0 -12 18q0 13 12 13zM401 1006q-4 0 -7 -2t-4 -4l-1 -3q0 -16 12 -16q8 0 10.5 2.5t2.5 9.5q-1 13 -13 13zM426 821 l-4 8q-19 0 -21 -10zM596 803q-29 0 -29 -8q0 -16 13 -29q-2 3 3.5 6t13.5 9t11 14q-8 8 -12 8zM492 741l-9 -4q0 -8 9 -8q6 0 6 6zM555 729l4 6l-6 4zM573 739l-8 -6q0 -4 8 -4q5 0 5 4zM457 719q-2 0 -6.5 -4.5t-4.5 -5.5q5 0 9 4q2 2 2 6zM584 711q-13 0 -13 -4 q3 -7 17 -7q9 0 16 7q0 4 -20 4zM645 692q-2 -2 -6 -10.5t-4 -11.5q0 -13 35 -13q0 17 -25 35zM621 678q-21 -9 -33 -23q1 0 5.5 -1t6.5 -1q25 0 25 17q-4 6 -4 8zM520 655q0 -11 14 -18.5t25 -7.5q0 20 -39 26zM950 631l-4 14q-6 -6 -6 -12zM1004 645q-5 0 -5 -6l5 -4 q8 0 10 4q0 6 -10 6zM551 614q-4 -2 -6 -2q7 -10 18 -10l4 2q-5 10 -16 10zM1001 612q-2 2 -3 -3l-1 -11q0 -14 4 -14q3 3 3 14t-3 14zM1001 567q-4 0 -4 -22l2 -21q5 0 5 21zM901 506l10 -2l-6 16zM854 420l8 -8v14zM514 424q33 0 55.5 -21t22.5 -49q0 -6 -0.5 -8.5t-3 -4 t-8.5 -1.5q0 22 -9 37.5t-26.5 23.5t-33 11.5t-36.5 5.5q18 6 39 6zM461 385q0 -10 -15 -45q-3 0 -7.5 13.5t-4.5 17.5q0 14 27 14zM455 236l-4 -19l4 -4l28 4q-8 19 -24 19h-4zM451 170q-17 -11 -17 -27q0 -18 33 -22q2 4 2 6q0 11 -18 43zM786 152q-21 0 -47 -26.5 t-26 -47.5q0 -17 35 -25q-3 6 -3 17q0 26 14.5 46.5t39.5 20.5q8 0 14 -2q-6 17 -27 17zM913 127l-2 25q-6 -4 -25 -24t-24 -26q0 -15 7 -22t26 -10q18 20 18 57z" />
<glyph unicode="t" horiz-adv-x="1148" d="M160 1407l174 2q0 -10 10.5 -16t11.5 -11q7 0 17 25h604l18 -6q4 -74 4 -279q0 -3 -15 -6.5t-23 -3.5h-179q-11 0 -17.5 -13t-6.5 -26v-1057q0 -2 -10.5 -9t-14.5 -7h-321l-15 12q-1 1 -2.5 170t-2.5 400t-1 391l-6 114q0 20 -60.5 25t-121 7t-60.5 14v262q0 1 17 12z M291 1386l-4 -2l8 -36h14q0 38 -18 38zM354 1374l-2 -16q0 -27 19 -33l6 21q0 19 -23 28zM276 1348q-4 -4 -4 -21q0 -14 4 -18l5 21v3q0 15 -5 15zM412 1311l-4 -21q0 -10 12 -10q14 0 22 8l-22 27zM360 1290l-6 -18q22 0 33 22zM727 883q-4 0 -4 -6q0 -5 4 -5q5 5 8 5 q0 6 -8 6zM668 850q-11 0 -11 -12q0 -9 15 -9q6 6 6 17q-4 4 -10 4zM676 770l-4 14q-6 -6 -6 -12zM729 784q-4 0 -4 -6q0 -4 4 -4q8 0 10 4q0 6 -10 6zM479 496q-19 -24 -45 -37q0 -4 8 -4q16 0 26.5 12.5t10.5 28.5zM512 459q-9 0 -18 -15l24 -22q12 2 12 18q0 7 -5 13 t-13 6zM479 416l-8 2q-7 0 -41 -17q9 -20 27 -20t22 35zM471 344q-14 0 -14 -14v-4q1 -3 11 -6t13 -3q15 0 15 13q0 14 -25 14zM504 313l-6 -2q4 -26 20 -26q0 28 -14 28zM487 274h-4q1 -6 8.5 -10t14.5 -4q0 4 -6.5 9t-12.5 5zM473 254q-10 0 -14 -6q7 -15 22 -15l11 3 q-3 11 -6.5 14.5t-12.5 3.5zM573 233l-2 7q-10 -17 -18.5 -24t-22.5 -7q-5 0 -12 4.5t-12 9t-6 4.5q-11 -15 -11 -24q0 -8 9 -13t20 -7.5t23.5 -10.5t17.5 -22v24q0 21 2 25z" />
<glyph unicode="u" horiz-adv-x="1486" d="M942 1407l16 4q24 0 137.5 -2t176.5 -2q31 0 31 -31v-811q0 -21 -4 -53.5t-11 -32.5q0 -2 -8.5 -3.5t-23 -3.5t-21.5 -3q0 -6 -2 -8q6 -6 33 -10q24 -4 24 -17q0 -74 -30 -154.5t-78 -134.5q-16 -17 -50.5 -48t-50.5 -52q-20 -10 -92 -38t-106 -48q-8 0 -48.5 -2 t-70.5 -2q-101 0 -165 16t-144 66q-129 68 -184 152.5t-78 230.5q0 144 -4.5 406.5t-4.5 408.5q0 129 19 172q15 0 82 2t71 2q34 0 95.5 -2t91.5 -2l14 -12v-754q0 -31 2 -84t2 -113q2 -32 53 -77t125 -45q67 0 107 28q17 12 29.5 25t19.5 22t14 25.5t9.5 24.5t8.5 30t9 31 q-2 37 -2 231q0 488 8 668zM1257 1266h-12q-39 0 -39 -33l2 -16q5 7 28.5 19.5t23.5 23.5q-1 6 -3 6zM1126 1202q-3 0 -9.5 -7t-6.5 -11q49 -17 76 -17q0 18 -21.5 26.5t-38.5 8.5zM1249 1161q-3 0 -9 -0.5t-16.5 -2.5t-18 -7.5t-7.5 -13.5l2 -7q6 0 16 1t23.5 7.5 t13.5 16.5q0 6 -4 6zM1204 1090q-4 -3 -4 -5q0 -1 2 -4t2 -4q2 0 2 8q0 5 -2 5zM1137 1085q0 -13 14 -36l25 22q-28 14 -39 14zM1079 1016q-6 0 -11 -4.5t-5 -12.5l16 -16q7 0 11 5.5t4 10.5q0 11 -3.5 14t-11.5 3zM1065 946v-8q0 -14 6 -30t16 -19l11 10q0 4 -12.5 23 t-20.5 24zM430 692q-4 0 -16 -3t-13 -3q42 -12 72 -12q-24 18 -43 18zM305 602l-2 -8q0 -28 27 -49t55 -21q35 0 35 11q-23 0 -40.5 6.5t-24 11t-25 24t-25.5 25.5zM977 477l10 10q-2 1 -6.5 3t-7.5 2zM1106 477q-17 0 -21 -14q18 6 35 6q-6 8 -14 8zM1061 471q-5 0 -12 -16 q22 0 22 14q-2 2 -10 2zM1221 469l-27 2q-32 0 -70 -16q9 0 21 -1t16 -1q22 0 60 16zM563 315q0 -25 18 -58.5t21 -61.5l16 -9l7 58q0 38 -12 54.5t-50 16.5z" />
<glyph unicode="v" horiz-adv-x="1640" d="M911 1587l9 2q29 0 48 -28.5t19 -59.5v-10q-8 14 -16.5 31.5t-13 24t-15.5 17t-31 23.5zM147 1448h363q7 0 15 -11t17.5 -34t17 -44t18.5 -58t17 -57.5t16.5 -59.5t13.5 -49q-6 -2 -37.5 -21.5t-57.5 -28.5q-64 -22 -69 -38q18 0 59.5 6t48.5 6l15 16l6 -2l4 -4 q46 13 49 6q40 -116 104 -288.5t72 -172.5q6 0 13 9.5t10 19.5l266 772q9 23 22 23h359q22 0 22 -27l-2 -14l-104 -295q-10 -16 -20.5 -53.5t-20.5 -53.5l-348 -985l-19 -20q-50 0 -197 3t-163 3q-27 19 -50 101.5t-34 99.5l-258 749q0 16 14.5 26t28.5 18t14 18 q-18 0 -44 -7.5t-38 -7.5q-15 32 -32.5 98.5t-20.5 77.5q-88 245 -88 254q0 25 18 25zM928 1413l22 17q5 -5 8 -5q0 -12 -30 -12zM887 1415q11 0 35 -6h-15q-20 0 -20 6zM1253 1182v6q-18 -9 -18 -17t6 -10q12 7 12 21zM1251 1139v12q-12 -4 -12 -23v-10q12 4 12 21z M1264 1100l-17 8q0 -21 15 -21zM1237 1047h6q7 0 13 7t6 15l-21 6zM1249 1026q-6 0 -6 -18q0 -3 -0.5 -12.5t-0.5 -15.5t1 -12.5t4.5 -10t9.5 -3.5q0 9 -4 28.5t-4 43.5zM352 975q-20 -9 -20 -27t35 -22l2 8q0 7 -17 41zM1239 940q-18 -8 -18 -25q0 -15 6 -29t18 -14 q10 0 17.5 9t7.5 20q-1 9 -13 23t-18 16zM547 844l6 4l-6 6v-10zM1255 854q-6 0 -18 -6q2 -4 10 -4t8 10zM1235 797l14 14l-8 12zM719 782l-49 -16q2 -9 4.5 -14t7 -9t12.5 -4q25 0 25 21v22zM1036 743l25 11l-14 4zM1085 754q2 -4 15 -4q-4 4 -15 4zM973 707q-6 0 -6 -23 v-14q6 24 6 37zM1145 682q-16 -33 -26.5 -43.5t-31.5 -16.5t-38 -16h10q30 0 59 19.5t29 46.5q0 2 -1 5.5t-1 4.5zM705 672q-23 0 -23 -35l-6 -10l18 -6q4 0 7.5 21t3.5 30zM987 641l-16 25q0 -31 12 -31q0 2 4 6zM623 600l4 -14q6 6 6 12zM569 596q-8 0 -10 -4q0 -6 10 -6 q4 0 4 6q0 4 -4 4zM621 481q0 -41 34 -41q27 0 33 19q-9 22 -67 22zM741 446q-39 0 -39 -40q39 0 39 40zM817 387v49q-3 0 -9.5 -6t-6.5 -10t6.5 -17t9.5 -16zM694 397l-8 23q-20 -10 -20 -33zM977 119q-3 -11 -4 -16t-4.5 -9t-5 -4.5t-9.5 -3t-14 -4.5q3 -6 8 -6q13 0 24 9 t11 17q0 14 -6 17z" />
<glyph unicode="w" horiz-adv-x="2228" d="M1890 1421q57 0 94 -1t54 -1q61 0 61 -22q0 -5 -36 -111q-163 -478 -429 -1272q-4 -1 -12.5 -4t-21 -7.5t-19.5 -6.5h-244q-4 0 -14 14.5t-10 18.5l-185 514q-9 15 -14 17q-4 1 -12 1q-79 -208 -135 -407q-9 -13 -18.5 -52t-20.5 -70.5t-29 -35.5l-139 -4q-23 0 -117 4 q-25 13 -31 33l-383 1065l-6 14q-94 216 -94 283q0 8 4.5 16t11.5 8h308l59 -8q6 0 18 -23l117 -319q0 -1 -1 -3t-1 -3q0 -12 8 -32.5t19 -44.5t14 -34q74 -226 88 -237q9 5 14 26.5t5 32.5l208 619q4 9 12 19.5t13 10.5h156q12 0 22 -14.5t15 -28.5l206 -579q13 -77 31 -86 l12 18l230 666q11 26 192 26zM1735 788q0 -31 26 -40v8q0 11 -8 21.5t-18 10.5zM1606 786q-17 -30 -17 -41l2 -8q33 4 33 23q0 18 -18 26zM1698 774v-16q0 -37 39 -37q0 26 -39 53zM1800 678l-31 49q-18 -8 -18 -25q0 -6 3.5 -12.5t7 -9.5t11.5 -9.5t11 -8.5zM1208 709 l-2 -1q-38 -35 -43 -32q1 -1 8 -11t13 -14q8 3 18 10t10 15q-15 5 -20 10h25q0 23 -9 23zM1722 705h-16q-27 0 -33 -17q8 -16 25 -16q11 0 16 8t8 25zM1124 686q-12 0 -12 -8q0 -4 4.5 -7.5t13.5 -8l11 -5.5q0 1 -1 5.5t-1.5 6.5l-1.5 6t-2.5 6t-4.5 3.5t-6 1.5zM1638 653 v-12q16 0 25 -10t12 -21.5t14 -21.5t29 -10q0 27 -26 51t-54 24zM1192 647l-8 -16q0 -3 3 -6.5t5 -3.5q14 0 14 12q0 3 -2 5t-6 4.5t-6 4.5zM934 586h-23q0 -19 13 -19q10 0 10 19zM1618 444q-10 0 -10 -18h22q0 18 -12 18zM823 434q0 -27 26 -51.5t54 -24.5v13 q-16 0 -25 10t-12 21.5t-14 21.5t-29 10zM1350 391q-15 0 -15 -12q0 -3 2.5 -5t6.5 -4.5t6 -4.5l8 16q0 3 -3 6.5t-5 3.5zM1358 360q-29 -10 -29 -24q16 -6 21 -10h-25q0 -23 8 -23l2 1q38 35 43 32q-2 1 -8 10.5t-12 13.5zM1401 354q0 -1 1 -6.5t1.5 -8t2 -6.5t4.5 -5.5 t7 -1.5q13 0 13 8q0 4 -4.5 7t-13 7t-11.5 6zM741 334l31 -49q19 8 19 24q0 6 -4 12.5t-7 9.5t-11.5 10.5t-10.5 8.5zM844 340q-18 0 -25 -33h17q26 0 32 17q-8 16 -24 16zM805 291q0 -26 39 -53v16q0 37 -39 37zM950 274q-32 -4 -32 -22q0 -19 18 -27q16 28 16 41zM780 264 v-8q0 -11 8.5 -22t18.5 -11q0 32 -27 41zM1221 90q16 0 16 -27q-16 5 -16 27z" />
<glyph unicode="x" horiz-adv-x="1687" d="M1065 1440h399q15 0 15 -19q0 -12 -17.5 -46t-49 -84t-55.5 -87t-57 -86t-34 -51q-33 -51 -88 -144.5t-78 -129.5q-13 -25 -13 -48l199 -305q5 -2 10 -9l4 -7l238 -371q8 -18 8 -43q0 -16 -176 -16q-44 0 -85.5 -1t-51.5 -1q-117 0 -146 45q-7 12 -38 64t-55 91 t-54.5 85.5t-53 72.5t-34.5 27q-2 0 -8 -5.5t-6 -6.5l-217 -359q-19 -22 -89 -22q-217 0 -342 10q-14 7 -14 16q17 42 63.5 113t61.5 108l313 502q9 12 9 19q0 17 -17 28l-149 234q-14 32 -56 89.5t-49 67.5q-23 37 -60 102t-59.5 101.5t-27.5 36.5q0 25 213 25h137 q57 0 92.5 -22t71.5 -93q2 -3 15.5 -27.5t28 -49t31.5 -51.5t32 -43.5t24 -16.5q19 0 29 34l161 263q10 10 25 10zM705 1071q-17 -7 -17 -27q0 -13 17 -23.5t34 -14.5v14q0 19 -7 30t-27 21zM913 981h-4q-10 -15 -12 -23q0 -12 6 -16q8 14 25 14q0 4 -7.5 12t-7.5 13z M784 958q-2 -2 -4 -9t-4.5 -13t-5.5 -6q-4 0 -5.5 6t-4.5 6q-10 0 -10 -6q0 -4 4.5 -18.5t7.5 -14.5q3 1 29 27v12q0 16 -7 16zM670 952q-4 0 -10.5 -5.5t-6.5 -8.5q0 -27 32.5 -55.5t57.5 -28.5h9q-7 9 -15.5 25t-16.5 26.5t-18 14.5q-5 3 -17 15.5t-15 16.5zM786 854 q-12 0 -18 -6l18 -21l7 2l4 17q0 8 -11 8zM791 821l-7 -16l-28 -29h6q5 0 21.5 12.5t17.5 18.5q0 4 -3.5 9t-6.5 5zM563 805v-23q-18 0 -18 13q0 10 18 10zM743 727l-4 37q-39 0 -39 -55zM1057 311v23q-21 0 -33 -23h33zM1040 262l-6 -20q0 -20 23 -29l2 16q0 27 -19 33z " />
<glyph unicode="y" horiz-adv-x="1624" d="M1108 1432h350q3 0 13 -7.5t10 -11.5q0 -1 -2 -8t-2 -10l-119 -232q-19 -24 -43 -65t-36.5 -66t-41 -83.5t-29.5 -61.5q-94 -189 -200 -350v-521q0 -22 -111 -22q-20 0 -117.5 2t-115.5 2q-21 5 -29 18q-4 82 -4 224t-3.5 226t-19.5 107l-172 314q-6 7 -21.5 37t-29.5 39 l-242 428l9 34h393q7 0 28 -29.5t51 -80t54 -92.5t52 -92t30 -54q6 -22 26.5 -56t26.5 -34q8 0 10 6l234 414q10 25 51 25zM1063 954q-4 -4 -4 -6q0 -13 16 -23t31 -10q0 22 -9 29t-34 10zM733 897q-26 -13 -33 -20v-7q0 -5 3.5 -10.5t9.5 -5.5q11 0 16 4t5.5 8t0.5 15 q0 14 -2 16zM928 836l10 8q-12 4 -14 4zM844 831l4 -14q14 0 30.5 6t16.5 19zM764 836l-8 2q-7 0 -41 -17l16 -2q27 0 33 17zM535 836l-3 -9q0 -5 3 -10t7 -8.5t10.5 -7.5t11 -6t11 -5.5t7.5 -3.5l2 9q0 27 -49 41zM1042 836q-14 0 -18 -11q12 4 31 4q-5 7 -13 7zM1012 829 l-8 2q-6 0 -13 -12q21 0 21 10zM1145 829l-25 2q-26 0 -61 -12q8 0 19 -3t14 -3q7 0 53 16zM657 786h-12q-18 0 -22 -10q8 -2 12 -2q18 0 22 12zM829 705l-20 12q0 -41 -39 -80l10 -21q9 13 23 21.5t20 17.5t6 31v19zM768 651l6 17q-12 -11 -12 -15zM770 602l-6 27 q-14 -16 -14 -37l2 -10q7 0 12.5 6.5t5.5 13.5zM950 627q-4 0 -4 -6q0 -9 4 -9l2 9q0 1 -1 3t-1 3zM741 524q0 -16 -10.5 -31t-13.5 -26q1 0 7.5 -2t8.5 -2q19 0 23 10t4 37q0 4 -7 9t-12 5zM842 205q-17 0 -17 -6q17 -33 33 -45q3 3 9.5 15.5t6.5 16.5q0 19 -32 19z" />
<glyph unicode="z" horiz-adv-x="1427" d="M330 1425l415 2q29 0 115 -3t111 -3t132.5 2t182.5 2q4 -8 4 -12l-215 -403l-22 -37l-262 -465q-8 -25 -51.5 -89.5t-43.5 -92.5q0 -19 5 -23t32 -4q82 0 249.5 3t252.5 3q8 -2 8 -18q0 -13 -2 -13l-92 -274l-14 -12q-9 0 -28.5 -1t-23.5 -1q-103 0 -311 2t-311 2h-324 l-6 6q0 5 34.5 77t41.5 79l166 301q44 54 59 114l240 443q15 15 33 43t18 45q-18 18 -143 18q-31 0 -85 -1t-69 -1q-17 0 -33 29t-18 31l-8 -9q0 -17 -18 -28.5t-21 -22.5q-15 0 -38 -3t-36 -3q-31 0 -31 20q0 16 26 90t52.5 140.5t28.5 66.5zM518 1313q-10 0 -14 -10 q4 -11 31 -11q0 21 -17 21zM465 1286q0 -35 22 -35q0 19 -22 35zM397 1276q-3 -1 -6.5 -9.5t-3.5 -11.5q0 -7 13 -12.5t20 -5.5h6q-23 15 -29 39zM362 1210l13 -20l28 22l-10 7zM649 889l-2 8l-7 -3q-8 -4 -11.5 -6l-10.5 -6t-10.5 -7.5t-6.5 -8.5t-3 -10l2 -8q49 14 49 41z M586 713q-16 0 -22 -9.5t-8.5 -27.5t-6.5 -25q-21 -8 -23 -10q-8 -6 -20 -19t-12 -16q0 -8 8 -25t14 -20q4 -3 24 -8.5t25 -5.5q0 13 -6 21t-13.5 10.5t-13.5 8t-6 15.5q0 7 30 46t30 65zM586 590q-9 0 -11 -4q12 -6 19 -6q0 10 -8 10zM1174 582h14q20 0 20 -7q-6 0 -34 7z M1167 578l-22 -17q-4 4 -8 4q0 13 30 13zM565 535q-22 -8 -44.5 -25t-22.5 -35q0 -6 4 -8q14 0 35.5 5.5t27.5 12.5q4 0 4 25q0 17 -4 25zM1108 489v11q10 -17 16.5 -38.5t17 -32t42.5 -26.5l-8 -2q-29 0 -48.5 28.5t-19.5 59.5zM674 494l-8 2q-28 0 -49 -27t-21 -55 q0 -35 10 -35q0 23 6.5 40t11.5 24.5t24 25.5t26 25zM561 391q-13 0 -21 -10t-8 -23q12 23 35 29q-1 0 -3 2t-3 2zM659 295h-8q-12 0 -14 -8q2 -2 8 -2q14 0 14 10zM686 236q-26 0 -40.5 -7.5t-14.5 -31.5q21 0 38 9.5t17 29.5zM547 182v25q-23 0 -23 -8l1 -2q34 -37 32 -43 q2 2 12 8t13 12q-10 29 -25 29q-5 -16 -10 -21zM600 197q-3 0 -5 -2.5t-4.5 -6.5t-4.5 -6l16 -8q3 0 6.5 3t3.5 5q0 15 -12 15zM631 176q-9 0 -21 -6q3 -14 11 -14q18 0 18 10t-8 10zM575 131q-1 0 -6.5 -1t-8 -1.5t-6.5 -2t-5.5 -4.5t-1.5 -7q0 -13 8 -13q4 0 7 4.5t7 13 t6 11.5zM705 100l6 -4l6 10l6 -10l12 4q-8 20 -18 25zM547 94l-4 -4l41 -4l-2 12zM641 96q-6 -6 -10 -6q-1 1 -2.5 2t-2.5 2t-1 2l-23 -26q24 0 39 26zM690 27q-4 0 -4 -11q0 -6 4 -6q4 4 4 6q0 7 -4 11z" />
<glyph unicode="{" horiz-adv-x="870" d="M506 1593l26 9q4 0 86 -111q97 -126 97 -168q0 2 -4.5 -3t-13.5 -16t-20 -24.5t-27 -32t-32 -35.5q-38 -41 -38 -196q0 -15 8 -73t8 -81q0 -38 -25.5 -83.5t-66.5 -80.5q41 -28 66.5 -77t25.5 -103q0 -19 -8 -65t-8 -80q0 -65 12.5 -119.5t32.5 -79.5l82 -98v-21 q-98 -183 -125 -221q-34 -47 -58 -47q-27 0 -61.5 17.5t-72.5 55.5t-69.5 89.5t-52 128t-20.5 162.5q0 60 22.5 133t22.5 123q0 31 -24.5 51t-55.5 20h-49q-21 0 -21 17l2 229q0 16 48 16q40 0 70 19t30 47q0 16 -11.5 55t-22.5 101.5t-11 134.5q0 116 70.5 228t187.5 179z M479 496q-19 -24 -45 -37q0 -4 8 -4q16 0 26.5 12.5t10.5 28.5zM512 459q-9 0 -18 -15l24 -22q12 2 12 18q0 7 -5 13t-13 6zM479 416l-8 2q-7 0 -41 -17q9 -20 27 -20t22 35zM471 344q-14 0 -14 -14v-4q1 -3 11 -6t13 -3q15 0 15 13q0 14 -25 14zM504 313l-6 -2 q4 -26 20 -26q0 28 -14 28zM487 274h-4q1 -6 8.5 -10t14.5 -4q0 4 -6.5 9t-12.5 5zM473 254q-10 0 -14 -6q7 -15 22 -15l11 3q-3 11 -6.5 14.5t-12.5 3.5zM573 233l-2 7q-10 -17 -18.5 -24t-22.5 -7q-5 0 -12 4.5t-12 9t-6 4.5q-11 -15 -11 -24q0 -8 9 -13t20 -7.5 t23.5 -10.5t17.5 -22v24q0 21 2 25z" />
<glyph unicode="|" horiz-adv-x="647" d="M227 1460h172q2 -1 5.5 -2.5t6 -2.5t3.5 -1l6 -76q-2 -45 -2 -131q0 -179 7.5 -510t8.5 -436q0 -15 -31 -25q1 0 12 -5t19 -5v-114q0 -65 -6 -89q0 -11 3 -33.5t3 -33.5q0 -29 -8 -53q0 -11 8 -15v-88q-3 -3 -11 -13.5t-15 -15t-17 -4.5q-8 0 -37 -1t-47 -1h-2l-43 2 q-41 4 -41 15q0 4 1.5 53t3 113t1.5 106q0 101 -2 150q0 3 3.5 5t10.5 5t9 4q-23 8 -23 23q-2 133 -11 478.5t-9 540.5q0 160 22 160zM276 1360q0 -9 13.5 -15.5t13.5 -23.5q6 6 6 22q-1 6 -13 11.5t-20 5.5zM281 1305l-2 -2q0 -13 20 -13q16 0 18 8q-2 0 -5.5 -1t-6.5 -1 q-11 0 -24 9zM266 1298q-9 0 -39 -6l17 -16q3 8 10 8q11 0 18 -21t7 -36q10 0 10 14q0 37 -23 57zM276 1219q-8 -8 -8 -25v-8q1 -3 4 -22.5t4 -22.5l3 -2q12 0 12 24q0 4 -3 15.5t-7 25t-5 15.5zM338 1155q-8 -11 -20.5 -14.5t-20.5 -16.5h10q21 0 31 31zM371 1120l-21 -6 q-2 -2 -24 -29h8q13 0 25 11t12 24zM285 1108q-11 0 -11 -16q0 -11 11 -13q6 18 6 19q0 10 -6 10zM307 1071h-10q-10 0 -12 -8h6q12 0 16 8zM248 1030q-13 0 -15 -2t3 -3q4 -1 12 -1q14 0 14 4q-2 2 -14 2zM301 1030l-22 -2q0 -4 22 -4l21 2q0 4 -21 4zM344 264l4 -14 q15 0 31 5.5t16 18.5zM268 266q-8 0 -12 -6q19 0 31 -4q-4 10 -19 10zM299 266l-8 -2q0 -10 20 -10q-7 12 -12 12zM334 250l4 12q-2 0 -14 -4z" />
<glyph unicode="}" horiz-adv-x="878" d="M354 1602q25 0 51 -19t54.5 -49t40.5 -39l78 -104q26 -34 39.5 -107t13.5 -135q0 -24 -19 -102q0 -5 -45 -5q-18 0 -30 9q-20 -15 -39 -15q-35 0 -39 -8q0 -12 55 -12q12 -12 72 -12q12 0 12 -11q-10 -42 -10 -84q0 -38 17 -54.5t61 -16.5h49q8 0 14 -6t6 -11l-2 -229 q0 -17 -47 -17q-55 0 -76.5 -12.5t-21.5 -52.5q0 -9 21.5 -109t21.5 -198q0 -257 -258 -408q-24 -8 -27 -8q-4 0 -12.5 10.5t-34 46t-39.5 54.5q-23 30 -59.5 88t-36.5 80q0 9 44.5 52t51.5 58q35 71 35 246q0 33 1 59t4.5 48.5t5 37.5t9 31.5t10.5 24.5t13.5 22t14.5 18.5 t18.5 20.5t19.5 21q-4 6 -11 16q-34 50 -48.5 75t-25.5 69.5t-11 105.5t-9 136.5t-32 106.5l-84 109l2 10q9 18 32.5 54t33.5 57q16 33 58.5 95.5t57.5 62.5zM381 1034l-6 21q-6 0 -10.5 -2t-5.5 -4l-1 -2q19 -19 31 -39q3 -5 2 -7q1 1 11 8t14 13q-10 29 -25 29 q-3 -11 -10 -17zM434 1044q-3 0 -5 -2t-4.5 -6t-4.5 -6l16 -8q3 0 6.5 3t3.5 5q0 14 -12 14zM410 979q-1 0 -6.5 -1t-8.5 -1.5t-6.5 -2t-5.5 -4.5t-2 -7q0 -13 8 -13q4 0 7.5 4.5t8 13.5zM430 573l4 -12q8 0 12 8zM334 561q-9 -3 -12 -6t-3 -10q0 -21 11.5 -40.5t31.5 -19.5 q-16 12 -17.5 39.5t-10.5 36.5zM535 489q2 -4 12 -4q-2 4 -12 4zM430 481q-13 0 -21 -9.5t-8 -22.5q11 22 35 28q-1 0 -3 2t-3 2zM535 385h-9q-12 0 -14 -8q2 -2 8 -2q15 0 15 10z" />
<glyph unicode="~" horiz-adv-x="1095" d="M723 700q16 0 20 -2l150 -98q2 -1 6.5 -4t5.5 -3.5t3.5 -3t2.5 -3.5t1 -4.5t1 -6.5v-8q0 -85 -65.5 -139.5t-157.5 -54.5q-41 0 -73 12t-49.5 27t-45 27t-61.5 12q-31 0 -50.5 -20.5t-29 -41t-14.5 -20.5q-9 0 -21 4l-149 94q-13 7 -17 13.5t-4 21.5q0 85 66 140.5 t157 55.5q25 0 49 -5.5t34 -9.5t42 -17q10 -4 47.5 -24.5t63.5 -20.5q21 -1 40.5 19t31.5 40t16 20zM328 612l-6 15q-7 0 -18 -5.5t-17 -5.5q-11 0 -21 7q0 -4 4 -7.5t10 -7t9 -6.5h4q35 9 35 10zM463 565l-2 8q-10 0 -10 -20q12 7 12 12zM440 526l13 -4q0 3 -4 15zM455 516 l-15 -4q0 -14 6 -30.5t19 -16.5z" />
<glyph unicode="&#xa1;" horiz-adv-x="835" d="M317 1456q44 0 121.5 -2t114.5 -2q6 -2 14 -10t8 -15v-241q0 -43 -26 -43h-262q-3 0 -11 10t-8 14v260q0 29 49 29zM328 1083h174q47 0 47 -186l26 -287q0 -13 28 -243t28 -349l-13 -12q-46 -4 -212 -4l-187 4l-14 6v35q4 38 11.5 97t11 96.5t3.5 72.5q0 31 -2 45l39 373 v8q0 77 15.5 210.5t44.5 133.5zM233 905q7 0 7 -22l-15 8q6 14 8 14zM367 563l24 -10l-10 14zM342 563q-10 0 -14 -4q12 0 14 4zM455 516q0 -13 6 -37v15q0 22 -6 22zM283 492q0 -1 -1 -5t-1 -6q0 -27 28.5 -46t59.5 -19h10q-17 10 -38 16t-31.5 16.5t-26.5 43.5zM457 475 l-17 -24q4 -4 4 -7q13 0 13 31zM348 268q-1 0 -3 -2q-37 -33 -42 -30q1 -1 8 -11t13 -14q8 3 18 10t10 15q-15 5 -20 10h24q0 22 -8 22zM455 262q0 -21 9.5 -38t29.5 -17q0 26 -7.5 40.5t-31.5 14.5zM264 246q-12 0 -12 -8q0 -4 4.5 -7.5t13.5 -8l11 -5.5q0 1 -1 5.5 t-1.5 6.5l-1.5 6t-2.5 6t-4.5 3.5t-6 1.5zM442 229q-7 0 -19.5 -5t-12.5 -13q0 -6 6 -19t10 -16q16 24 16 53zM332 207l-8 -17q0 -3 3 -6.5t5 -3.5q14 0 14 13q0 3 -2 5t-6 4.5t-6 4.5zM498 195v-5q2 -7 2 -10q0 -24 -19 -33l29 -14q5 2 8.5 3.5t5.5 3.5t3.5 3t2 3.5 t0.5 3.5v4v4q0 17 -32 37zM319 182q-14 -3 -14 -10q0 -18 10 -18q11 0 11 8q0 6 -7 20zM430 162q0 -11 14 -39l23 24q-25 15 -37 15zM561 147h-8q5 -8 23 -20t22 -12l10 10q-3 10 -18.5 16t-28.5 6zM541 133l-17 -18q10 -23 33 -23zM444 113q-14 0 -14 -19q0 -6 4.5 -11 t9.5 -5q9 9 9 18q0 12 -9 17zM600 104q-6 0 -6 -16t4 -16q2 0 6 6t4 10q0 12 -8 16zM487 100q0 -13 6.5 -20.5t14.5 -7.5q1 0 7.5 5t8.5 5q-9 18 -37 18zM240 -213q-1 -6 -8.5 -12t-12.5 -6q0 10 4 14t17 4z" />
<glyph unicode="&#xa2;" horiz-adv-x="1177" d="M1085 92q0 -30 -76 -63t-143 -47l2 -15q-4 -29 -4 -84q0 -12 -8 -33l-14 -2h-152q-24 0 -24 27q0 18 -2 53.5t-2 51.5q-146 17 -242 83q-27 20 -27 33q0 -4 -10 -4q-121 83 -170 202t-49 341q0 1 2 2t2 2q33 196 164 314.5t325 142.5q0 16 -1 47t-1 45q0 16 -4 26l8 7 q7 0 15 4h153q25 0 25 -27l-2 -106q194 -39 194 -76q0 -14 -52 -113t-62 -100q-2 -2 -10 -2q-7 0 -14.5 2.5t-11.5 4.5t-12 7t-10 6q-42 19 -127 19q-65 0 -115.5 -21.5t-82.5 -57t-52.5 -86t-29 -103.5t-8.5 -115q29 -47 47 -73.5t46 -57.5t55 -47t65.5 -26.5t85.5 -10.5 q35 0 71 9t60.5 19t68.5 31q8 0 68.5 -96.5t60.5 -112.5zM578 1034l24 10l-14 5zM641 1040q-4 4 -14 4q2 -4 14 -4zM508 975v-14q6 24 6 36q-6 0 -6 -22zM686 973q-16 -33 -26.5 -43.5t-31.5 -16.5t-38 -16h10q30 0 59 19.5t29 46.5q0 2 -1 5.5t-1 4.5zM524 926q0 2 4 6 l-16 24q0 -30 12 -30zM854 743h4q0 -6 -10 -6zM240 664l-7 6v-11zM406 598l-50 -16q7 -27 25 -27q25 0 25 20v23zM362 442l19 -6q4 0 7 20.5t3 30.5q-22 0 -22 -34zM309 416l4 -15q6 6 6 13zM256 401q4 0 4 7q0 4 -4 4q-8 0 -10 -4q0 -7 10 -7zM430 281q23 9 23 67 q-41 0 -41 -35q0 -26 18 -32zM369 274l22 9q-10 20 -33 20zM377 266q0 -39 41 -39q0 39 -41 39zM358 152h50q0 3 -6.5 9.5t-10.5 6.5t-17 -6.5t-16 -9.5z" />
<glyph unicode="&#xa3;" horiz-adv-x="1214" d="M721 1266q111 0 197 -20.5t86 -51.5v-254q0 -12 -13 -12q-16 0 -41 13.5t-30 14.5q-42 19 -115 19q-75 0 -134 -42t-59 -116q0 -29 6 -86t7 -69l157 -3q68 0 68 -12v-178q0 -1 -3.5 -4t-9 -5.5t-10.5 -2.5h-194q-7 -131 -66 -193l6 -8q16 -2 52 -0.5t118.5 4t135.5 2.5 l6 -4h123q14 0 22 -7t8 -28q-5 0 -9 -1.5t-9 -5t-10 -5.5q0 -39 32 -43q9 -103 9 -141q0 -29 -21 -29q-78 0 -225.5 -4t-302.5 -4q-204 0 -289 12h-10v2q-19 3 -19 8q0 18 9 133l-9 125q0 12 9 21q140 21 157 166h-143q-10 0 -19 22v164l11 14l139 2q-35 197 -35 248 q0 110 61 193.5t155 124.5t202 41zM416 1069q-22 0 -36.5 -19.5t-14.5 -39.5l10 -9q20 0 30.5 23.5t10.5 44.5zM477 1061l-16 -12l8 -23l33 18q-10 17 -25 17zM354 1024l-2 18q-18 -5 -18 -34v-17q20 6 20 33zM535 301q-8 0 -14.5 -8t-6.5 -17q0 -14 7 -34.5t9 -30.5l11 6 l4 64l8 6q-11 14 -18 14zM457 197q-9 0 -19 -7.5t-10 -17.5t14 -18q15 26 15 43zM561 147q-8 -3 -8 -16l-6 -6l4 -6q0 -16 10 -19q8 2 8 15q0 20 -1 25.5t-7 6.5zM498 143q-15 -6 -15 -18q0 -14 15 -33q14 18 14 33q0 12 -14 18zM393 119h-10q5 -17 35 -17h14q-24 17 -39 17 zM485 72l-43 30q0 -57 27 -57z" />
<glyph unicode="&#xa4;" horiz-adv-x="1232" d="M449 1063q8 -8 0 -16q-9 -9 -19 0q-4 4 4 12q10 9 15 4zM627 1049q85 0 211 -56q6 -12 6 -20q16 0 22 -2q7 7 23 21t24 22q17 16 31 2l94 -94q0 -3 6 -9q-8 -17 -16 -26q-27 -27 -39 -41q68 -100 68 -234q0 -133 -68 -247l45 -41q15 -20 2 -33l-94 -92l-12 -9h-6 q-3 2 -17 21l-30 31q-120 -86 -273 -86q-136 0 -258 88l-33 -31q-5 -8 -24 -16q-6 6 -10 6l-93 94q-12 12 2 31l43 45q-65 108 -65 233q0 142 84 256q-28 24 -41 37q-9 9 -21 14l2 9l7 12l92 94q15 16 33 -2l49 -51q117 74 256 74zM752 983l-7 -2q17 -10 24 -18.5t7 -22.5 q0 -5 -4.5 -12.5t-9 -12.5t-4.5 -6q13 -10 24 -10q8 0 13 9t7.5 20t11 23.5t22.5 17.5h-25q-21 0 -25 2zM494 979q-7 0 -13 -5t-6 -13q0 -11 14 -19l23 25q-2 12 -18 12zM700 930l-2 10q-11 -3 -14.5 -6t-3.5 -12q0 -11 6 -15q14 7 14 23zM438 928q24 -19 37 -45q4 0 4 8 q0 16 -12.5 26.5t-28.5 10.5zM518 928l-2 -8q0 -9 16 -41q21 9 21 26q0 19 -35 23zM752 909q-29 0 -29 -14l2 -6q27 5 27 20zM707 887q-15 0 -15 -25q0 -14 15 -14h4q3 1 5.5 11t2.5 13q0 15 -12 15zM606 858q-105 0 -177.5 -75t-72.5 -183q0 -147 127 -221q-3 0 -6 -6l6 -6 q11 0 11 6q62 -27 124 -27q107 0 178.5 74.5t71.5 179.5q0 101 -74.5 179.5t-187.5 78.5z" />
<glyph unicode="&#xa5;" horiz-adv-x="1439" d="M975 1251h301q5 0 12.5 -5t7.5 -9q0 -1 -2 -7t-2 -9l-102 -199q-48 -76 -141 -262t-160 -279v-39h160q6 0 6 -14l14 -104l-12 -9q-63 -2 -168 -2v-55q57 -2 170 -2q10 0 10 -14v-103l-12 -8q-119 0 -168 -2v-96q0 -21 -96 -21q-17 0 -101.5 2t-99.5 2q-23 6 -25 17 q-4 62 -4 98h-100q-82 0 -82 6l14 113q12 6 25 6q96 0 141 2v57h-53q-7 0 -22.5 -1t-22.5 -1q-68 0 -68 9v112q8 8 25 8h139q0 14 -6 41q39 -10 72 -10q43 0 43 14q10 0 18 5.5t8 15.5q0 24 -41 24q-29 0 -49 -7.5t-20 -20.5q-24 0 -39 10l-150 268q0 36 -43 66l-209 369 l7 30h339q5 0 23.5 -31t42.5 -79.5t47 -95t44 -90t26 -52.5q8 -21 25.5 -48.5t23.5 -27.5t8 4l201 404q11 20 45 20zM471 805q-6 0 -12 -2t-18.5 -7t-22.5 -8l24 -2q24 0 62 13q-8 0 -19 3t-14 3zM719 786l-4 15q-14 0 -30.5 -6t-16.5 -19zM571 799q-20 0 -20 -11l8 -2 q4 0 12 13zM848 797l-17 2q-26 0 -32 -17l8 -2q7 0 41 17zM539 793q-15 -5 -31 -5q4 -6 12 -6q15 0 19 11zM635 782l-10 -8q12 -4 14 -4zM737 748q-13 0 -20.5 -10t-7.5 -23q11 22 34 28q-1 0 -3 2.5t-3 2.5zM862 592q-26 0 -40.5 -7.5t-14.5 -31.5q21 0 38 9.5t17 29.5z M723 539v24q-23 0 -23 -8q25 -25 32 -41q2 -3 1 -4q2 2 12 8t13 12q-10 29 -25 29q-5 -15 -10 -20zM776 553q-3 0 -5 -2t-4.5 -6t-4.5 -6l16 -9q3 0 6.5 3.5t3.5 5.5q0 14 -12 14zM807 532q-9 0 -21 -6q3 -14 11 -14q18 0 18 10t-8 10zM600 504q21 0 21 -15h-13 q-16 0 -20 13q4 2 12 2zM752 487q-1 0 -6.5 -1t-8.5 -1.5t-6.5 -2t-5.5 -4.5t-2 -7q0 -12 8 -12q4 0 7 4t8 13.5t6 10.5zM780 184l-6 -28q14 0 24.5 11t10.5 26zM768 92l-14 -6q0 -7 5 -18t5 -17q0 -11 -6 -20q4 0 7.5 3.5t6.5 9.5t6 9v4q-9 35 -10 35zM856 59l-8 2 q-18 0 -25 -16l8 -2q15 0 25 16z" />
<glyph unicode="&#xa6;" horiz-adv-x="624" d="M227 1460h172q3 0 9 -3l6 -3l4 -35v-231q0 -64 -6 -88q0 -12 3 -34t3 -34q0 -14 -4 -26t-4 -19q0 -18 8 -22v-88q-4 -4 -11.5 -14.5t-14.5 -15.5t-17 -5q-13 0 -56.5 1t-72.5 1q-41 4 -41 14q0 4 1.5 53t3 113t1.5 106q0 38 -3 93.5t-3 76.5q0 160 22 160zM387 1380 l-10 -6q-20 -30 -17 -35l2 -5q2 -5 4.5 -10.5t5.5 -11t6.5 -9t6.5 -3.5q4 0 5.5 5.5t2.5 13.5t2 10v6q0 29 -8 45zM377 1104l-23 4l-8 -43q21 5 27 25zM389 1028l-2 23q-4 -3 -14.5 -6.5t-17.5 -7.5t-7 -9q0 -6 8 -10t17 -4q16 0 16 14zM328 989l6 25q-3 -6 -14 -14 t-20 -14.5t-9 -8.5q0 -4 12 -4q20 0 25 16zM346 977l-4 -2q0 -10 -6 -12l10 -5q12 0 12 11q0 8 -12 8zM328 434q92 0 92 -16v-27q-6 -147 -6 -246q0 -38 3 -93.5t3 -76.5q0 -159 -23 -159l-110 -2l-41 2h-21q-2 1 -5.5 2.5t-5.5 2.5t-3 1l-6 43q2 57 2 223q0 6 1.5 23t7 39 t13.5 26q-22 32 -22 68v155q0 21 8 27t35 6q3 0 31 1t47 1zM389 410l-6 10q-1 -1 -3 -3.5t-3 -4.5t0 -6zM336 399l-41 -2q7 -20 8 -20q4 0 15 6.5t18 15.5zM391 391l-18 2q0 -7 3 -11.5t6 -5.5l3 -1zM246 180v-6q0 -6 -2 -19t-1.5 -19.5t5.5 -6.5q4 0 9.5 4.5t13.5 13.5 t10 11zM283 135l-27 -37q-18 -26 -18 -51q0 -2 11.5 1t23 13t12.5 27l-3 3q-2 3 -4 9t-2 13q0 5 7 22zM301 133l4 -10l21 10h-25z" />
<glyph unicode="&#xa7;" horiz-adv-x="1173" d="M385 1526q-4 0 -8 3.5t-4 8.5q0 6 12 6t12 -6q0 -12 -12 -12zM362 1462q-6 0 -6 13q0 12 6 12q13 0 13 -12q0 -4 -4 -8.5t-9 -4.5zM1010 588q0 -168 -131 -279q77 -93 77 -211q0 -136 -75 -216.5t-207 -108.5q-88 -15 -166 -15q-8 0 -19 1t-14 1q-64 5 -160 37 q-3 2 -16 8.5t-27 14t-28.5 16t-23.5 15.5t-9 10q0 12 49 97.5t66 104.5q2 7 10 7q7 0 80 -30t114 -30q39 0 72 23t33 61q0 17 -6 32.5t-13.5 26t-28 27t-34.5 26.5t-50 33.5t-59 39.5q-15 10 -56 36.5t-55.5 36.5t-46 34t-44 39t-33 41.5t-28 50.5t-14.5 56.5t-7 69.5 q0 168 131 279q-78 95 -78 211q0 136 75.5 216.5t207.5 108.5q88 15 166 15q8 0 18.5 -1.5t13.5 -1.5q68 -6 160 -36q3 -2 16 -8.5t27 -14t28.5 -16t23.5 -15.5t9 -10q0 -12 -48.5 -98t-65.5 -105q-2 -6 -10 -6q-7 0 -80.5 30t-114.5 30q-39 0 -71.5 -23t-32.5 -61 q0 -40 28 -68.5t105 -77.5q9 -6 53 -71q16 -25 33 -27q47 -97 102 -160q-97 190 -99 195q-1 4 1 2q116 -74 156 -112q92 -86 96 -216v-14zM262 1200q-12 0 -12 -18q20 0 22 10q-3 8 -10 8zM264 1145q21 0 31 10q-2 8 -14 8q-17 0 -17 -18zM236 1137l2 -13q14 14 14 19 q0 7 -8 12q-8 -3 -8 -18zM352 1110l2 10q0 21 -24 21h-8v-4q0 -15 30 -27zM393 1110l10 -20q13 10 13 20h-23zM383 1079l-2 -20q0 -31 12 -51l21 10q-4 6 -12.5 30.5t-18.5 30.5zM311 1006h4q11 0 16 10t5 20h-12q0 -13 -13 -30zM215 1012l2 -8q0 -15 -10 -19v10q0 15 8 17z M694 1008h25l8 -35zM199 983l-11 -20q-12 9 -12 20h23zM604 969l29 -72q2 -3 15.5 -20t25 -31t29 -29.5t32.5 -21.5q5 -19 10.5 -37t9.5 -28t7.5 -18.5t3.5 -9.5l47 -49q5 35 -47 114t-106 141.5t-56 60.5zM199 881l-21 10q4 6 12.5 30.5t18.5 30.5l2 -20q0 -31 -12 -51z M498 840q-32 0 -74.5 -44.5t-50.5 -80.5q3 0 17.5 -3t17.5 -3l30 6q2 2 5.5 16.5t7 30.5t4.5 18t17 9.5t17 9.5q1 1 5 18.5t4 22.5zM543 543l98 -58q57 21 57 74q0 75 -73 129l-97 57q-57 -21 -57 -73q0 -72 72 -129zM879 725v-76l5 5q5 5 10 12.5t5 15.5q0 11 -3.5 18.5 t-9 13.5t-7.5 11zM279 633q65 0 65 72q-30 0 -44.5 -11t-39.5 -45q0 -4 7 -10t12 -6zM844 702v-47q1 0 3.5 -1t4.5 -3q10 -7 10 2q0 19 -18 49zM825 600h-14q-23 0 -23 -6q13 0 37 6zM860 584q0 12 -31 12l25 -16q4 4 6 4zM223 586h-14q21 -37 53 -37q0 37 -39 37zM455 502 q28 0 32 2q-32 24 -98 33q6 -16 17 -24.5t20.5 -9.5t28.5 -1zM752 530l-15 -10l4 -14zM823 420q27 0 46.5 29t19.5 59v10q-10 -17 -16 -38t-16.5 -31.5t-43.5 -26.5q1 0 4.5 -1t5.5 -1zM741 481q0 -10 4 -14q0 12 -4 14zM240 233q0 27 29 46.5t59 19.5h10q-17 -10 -38 -16 t-31.5 -16.5t-26.5 -43.5q0 1 -1 4.5t-1 5.5zM403 270q13 0 13 -30l-17 24q4 4 4 6zM420 236v-15q0 -22 -6 -22q0 13 6 37zM340 147l-14 5l24 10zM301 152q-10 0 -14 4q12 0 14 -4zM330 -289q0 17 14 17l16 -17q0 -16 -16 -16q-6 0 -8.5 0.5t-4 4t-1.5 11.5zM287 -289 q1 -1 2.5 -2t2.5 -2t1 -2q-1 -1 -3 -5t-3 -5q-6 0 -6 10q0 6 6 6z" />
<glyph unicode="&#xa8;" horiz-adv-x="774" d="M125 1944q47 -16 47 -27q0 -8 -6.5 -21.5t-9.5 -15.5q-2 -1 -7 10t-12.5 29t-11.5 25zM272 1792l11 -14v-258q0 -13 -31 -13q-26 0 -70 6.5t-65 6.5l-84 -7q-19 0 -33 11q0 258 6 258l8 10h95l24 -82q4 12 8 32t7 30.5t12.5 23t25.5 19.5zM504 1782h260q4 0 7 -11t3 -18 v-252q-41 0 -108 3.5t-88 4.5l-46 2h-16q-24 0 -24 197q0 74 12 74zM88 1745q-3 0 -6 -4.5t-6.5 -13t-5.5 -11.5h28q0 2 1 5t1 5q0 7 -3.5 13t-8.5 6zM168 1743l-43 -144q5 -1 16 -8.5t15 -7.5q24 0 24 111q0 14 -5.5 29t-6.5 20zM106 1675l-22 6q0 -3 1 -8.5t1 -10.5 t1 -9.5t2 -6.5t3 -1zM707 1638q-5 0 -14.5 -4.5t-16.5 -9.5l-6 -4q3 -4 12 -15.5t16.5 -19t16.5 -12.5q12 12 12 41q0 24 -20 24zM664 1585v-33q2 2 9.5 8t11.5 10t3 7zM700 1546q-6 -8 -8 -15t4 -9q25 0 25 8q0 2 -5.5 6t-10.5 7zM752 1544q-5 -4 -8 -10.5t-3 -10.5t2 -5 q13 0 13 10q0 4 -4 16z" />
<glyph unicode="&#xa9;" d="M870 1470q218 0 393.5 -101t272 -273t96.5 -381q0 -140 -57.5 -273t-155 -234t-238.5 -162.5t-298 -61.5q-264 0 -467 172q-271 250 -271 596q0 87 23 166.5t68 183.5q13 0 23.5 1.5t19.5 5.5t14 6t11.5 9.5t8.5 10t9 12.5t8 12q-19 22 -19 41q0 14 8 19q134 133 256 192 t295 59zM877 1339q-164 0 -301.5 -81.5t-217 -223t-79.5 -309.5q0 -170 73 -307q5 8 15 8q0 -12 -7 -14l-6 2q18 -32 63.5 -98.5t65.5 -104.5q2 0 5 1q31 2 37 15l1 2q33 -26 62 -41q136 -71 323 -71q169 0 306.5 83t213.5 222t76 303q0 124 -48.5 237.5t-132 196 t-200.5 131.5t-249 49zM354 1219l4 -33q0 -6 7 -13q3 -3 4 1q0 10 -4.5 26t-10.5 19zM918 1163q33 0 53 -2q32 -3 106 -32t74 -56q0 -12 -46 -82.5t-52 -70.5q-11 5 -11 6q-83 39 -139 39q-43 0 -75.5 -10.5t-59.5 -36.5t-43.5 -48.5t-44.5 -66.5q0 -58 11 -106.5t34.5 -90 t67 -65t102.5 -23.5q67 0 96 14q3 1 8.5 5t11.5 6t13 2q2 0 12.5 3t12.5 3q7 -1 45.5 -74.5t38.5 -81.5t-16.5 -18.5t-43 -20.5t-51 -17.5t-48.5 -15t-28 -8.5q-16 -2 -43 -2q-168 0 -277.5 93.5t-138.5 261.5q2 6 2 20q0 10 -3 30t-3 30q0 98 41.5 178.5t120.5 132.5 q6 0 6 -2q0 7 7 14.5t14 9.5q121 82 246 82zM705 1130l-17 -8q0 23 23 33zM373 1130l-8 9q-4 -15 -19.5 -30t-29 -22.5t-15.5 -7.5l10 -8q7 -1 17.5 8.5t24.5 27t20 23.5zM1427 1118l-28 -18q0 -21 16 -27q21 6 21 33zM780 1102q-16 0 -22 -9.5t-8.5 -27.5t-6.5 -25 q-20 -8 -22 -10q-8 -7 -20.5 -19.5t-12.5 -15.5q0 -8 8.5 -25t14.5 -20q4 -3 24 -8.5t25 -5.5q0 17 -10 24.5t-19.5 13t-9.5 17.5q0 7 29.5 46t29.5 65zM807 1047v-7l8 -8l12 12q-2 0 -7.5 1t-8.5 2t-4 0zM864 1044q-10 0 -10 -16q0 -18 10 -18q8 4 8 16q0 10 -8 18z M768 999l14 11l-14 8v-19zM817 989l-2 23q-2 -2 -6 -7t-6.5 -8.5t-1.5 -3.5zM1264 950l8 -2q-14 -49 -41 -49l-8 2l3 7q4 8 6 11.5l6 10.5t7.5 10.5t8.5 6.5t10 3zM1212 860q11 -4 11 -22v-13q-13 4 -13 23zM616 846l-14 -4q0 -14 6 -30.5t19 -16.5zM1307 782h6q8 -8 20 -32 q-2 -2 -16 -2q-8 0 -11 0.5t-8 2t-6.5 6.5t-1.5 13q0 12 17 12zM1255 752l2 16q17 -34 17 -41l-2 -8q-17 6 -17 33zM621 762l8 -10q4 12 4 14zM1255 492q13 -8 13 -13l-2 -8q-11 0 -11 21zM410 485l4 -10q-2 -8 -15 -8q0 14 11 18zM1262 459q10 -4 10 -19q0 -8 -6 -12 q0 19 -4 31zM1255 424q13 -38 13 -62l-2 -24q-3 9 -6.5 18.5t-5.5 14t-3.5 10t-1.5 10.5q0 3 3 14t3 19zM1462 354q-13 0 -22.5 -16t-9.5 -31q22 0 28.5 8.5t9.5 34.5q-4 4 -6 4zM526 328l6 -35q-1 -1 -3 -6t-4.5 -10t-4.5 -5t-8.5 2.5t-12 5t-5.5 1.5q-3 2 -5 2zM514 162 l25 -2l8 20l-15 6zM1565 162q10 -36 10 -51q0 -5 -1 -16t-1 -19q-12 43 -12 61q0 3 2 13t2 12zM573 141l11 2l-9 9zM627 152l-13 -2q0 -7 2 -7l13 4q0 5 -2 5zM641 137l10 -10v4l-10 10v-4zM549 129l10 4l-12 2zM623 131l-35 -16q18 -43 20 -43l25 39zM1565 72q0 -19 4 -31 q-13 4 -13 18q0 11 9 13zM1565 29q8 0 8 -19q-12 6 -12 13q0 6 4 6zM1556 -53l-12 -6q0 8 6 14z" />
<glyph unicode="&#xaa;" horiz-adv-x="911" d="M387 1368h139q4 0 23.5 -45.5t19.5 -50.5q26 -69 58 -146.5t70.5 -169.5t60.5 -145q0 -11 -10.5 -14.5t-36.5 -3.5l-125 2q-2 5 -29 59q-6 -1 -22.5 1.5t-30.5 2.5q-5 0 -59 -3t-60 -3q-1 0 -16 1t-23 1q-3 -9 -8 -23t-9.5 -25t-9.5 -20q-19 0 -62 2.5t-69 2.5 q-34 0 -34 10v6l49 139q10 21 24.5 63t20.5 56q101 254 117 297q2 6 22 6zM414 1257l-8 27q-13 -10 -13 -22zM514 1284q-8 0 -8 -10q0 -4 2 -6t4 -2h2q17 0 21 8q0 10 -21 10zM510 1223q-4 4 -6 -6q-2 -8 -2 -21q0 -29 8 -29q4 4 4 29q0 23 -4 27zM414 1141l10 -2l-6 16z M510 1137q-8 0 -8 -43l4 -39q8 0 8 39zM449 1116q0 2 -11.5 -23.5t-23 -53.5t-11.5 -33q0 -7 15 -7q74 0 74 5q0 6 -7 24t-18.5 45t-17.5 43zM367 1055l8 -8v14zM326 983l-4 -18l4 -4l28 4q-8 18 -24 18h-4zM322 918q-17 -11 -17 -27q0 -19 33 -23q2 4 2 6q0 12 -18 44z" />
<glyph unicode="&#xab;" horiz-adv-x="1210" d="M397 1055q213 0 213 -6v-7q0 -17 -8 -30l-22 -39l-160 -285q-10 -13 -10 -24l217 -347l6 -18l-2 -8h-301q-13 0 -17 8l-166 291q-38 49 -38 80l8 20q11 0 52 8.5t52 12.5q-2 4 -8 10q-11 0 -30 15t-38 20l154 282q9 17 98 17zM1081 1040l-8 -14l-215 -346q0 -5 10 -25 l176 -317q25 -30 25 -37v-6l-14 -2q-1 0 -7 -0.5t-16.5 -1t-21.5 -0.5l-166 -2q-90 0 -99 16l-149 283q-31 60 -31 78v8q0 12 9.5 36.5t23.5 43.5l162 290q4 9 16 9h303zM291 737q-2 -2 -12 -8t-13 -12q10 -29 25 -29q5 16 10 21v-25q9 0 14.5 2t6.5 4l2 2q-25 25 -32 41 q-2 3 -1 4zM262 709l-16 8q-3 0 -6.5 -3t-3.5 -5q0 -15 12 -15q3 0 5 2.5t4.5 6.5t4.5 6zM293 668q-4 0 -7.5 -4.5t-8 -13.5l-5.5 -11q1 0 6.5 1t8.5 1.5t6.5 2t5.5 4.5t2 7q0 13 -8 13zM258 588q-14 0 -14 -10h8q12 0 14 8q-2 2 -8 2zM260 522q-2 0 -2 -10q0 -6 2 -6t2 6 q0 8 -2 10zM377 514q-12 -23 -35 -29q1 0 3 -2t3 -2q13 0 21 10t8 23zM219 487q2 -3 11.5 -8.5t13.5 -5.5q-2 3 -11.5 8.5t-13.5 5.5zM305 463l-4 16q-8 -4 -8 -8q0 -3 2 -4.5t5.5 -2.5t4.5 -1zM348 455q0 -9 4 -9l4 7q0 2 -8 2zM815 330l-6 12q-5 -2 -8 -12l6 -2l2 6l4 -6z M768 322q0 -1 -1 -3.5t-1 -3.5l2 -2l2 2q0 7 -2 7z" />
<glyph unicode="&#xac;" horiz-adv-x="587" />
<glyph unicode="&#xad;" horiz-adv-x="643" d="M88 745l473 140q13 0 17 -39l4 -62q0 -103 -31 -112l-465 -127q-12 0 -12 6q-8 45 -8 104q0 56 4 70t18 20zM563 621q13 0 16 -5t3 -28v-148q0 -8 -8 -15.5t-13 -10.5l-135 -33l-16 -8l-306 -86q-6 -2 -16 -2q-14 0 -14 8q-8 33 -8 90q0 3 -2.5 15t-2.5 20q0 47 27 63 l459 137q3 3 16 3zM203 475l24 -10l-10 14zM178 475q-10 0 -14 -4q12 0 14 4zM494 438l-9 13q-13 0 -22 -13q0 -10 22 -10q9 0 9 10zM119 403q0 -1 -1 -4.5t-1 -5.5q0 -27 28.5 -46t59.5 -19h10q-18 10 -38.5 15.5t-31 16t-26.5 43.5z" />
<glyph unicode="&#xae;" d="M913 1470q89 0 170 -22.5t183 -67.5q12 -19 56.5 -45t57.5 -39q134 -134 193 -255t59 -296q0 -159 -57 -300t-156.5 -242t-240 -160t-301.5 -59q-140 0 -273 57.5t-234.5 155t-163 238.5t-61.5 298q0 143 52 269.5t145 224.5q20 20 39 20q20 0 51 -16q27 27 27 55 q0 6 -1.5 17t-0.5 17t6 11q204 139 450 139zM326 1411l28 6q0 -16 -16 -16q-2 0 -7 3t-5 7zM1163 1352l-37 22q0 -26 19 -49zM1087 1372q-14 0 -14 -4q0 -5 2 -10.5t2 -9.5q10 6 10 24zM897 1341q-161 0 -299 -77q-5 -3 -24.5 19.5t-24.5 19.5t-19.5 -57t-19.5 -58 q-117 -88 -173 -203.5t-56 -271.5q0 -165 82 -302.5t223.5 -216.5t310.5 -79q143 0 256 49q4 2 10 2q13 0 11 -31q40 19 51 19q6 0 24 -9q-24 33 -24 48q0 7 14 18q58 39 102 86q-3 1 -7.5 16t-6.5 17q0 8 5.5 12t10.5 4q8 0 12.5 -7.5t4.5 -12.5v-11q145 175 145 430 q0 170 -83 307.5t-222 213t-303 75.5zM1165 1194l17 -16q-10 -21 -21 -28t-31 -7h-16q1 1 5.5 8t6.5 10t6.5 9.5t8 9.5t7.5 7t8.5 5.5t8.5 1.5zM594 1159h334q115 0 200.5 -83t85.5 -202q0 -88 -50 -153.5t-136 -102.5q-8 0 -8 -4q0 -2 4 -6l207 -250q14 -28 14 -30 q-16 -4 -24 -4q-16 0 -69 -1t-79 -1q-49 0 -63 2q-14 3 -19 12l-168 199q-2 1 -8 7.5t-10 6.5q-8 0 -8 -14v-195q0 -12 -6 -12h-162q-22 0 -30 10t-11 35q0 106 2 270.5t2 247.5l-4 219q4 47 6 49zM1100 1079l-17 -10l33 -37l17 19q-8 28 -33 28zM809 989l-12 -10v-227 q0 -11 26 -11q181 0 181 131q0 55 -49.5 86t-123.5 31h-22zM197 784q2 -4 12 -4q-2 4 -12 4zM1061 748q-23 -8 -23 -74q19 0 29 14.5t10 34.5q0 16 -16 25zM438 725q1 0 3 -2t3 -2q-22 -6 -34 -29q0 13 7.5 23t20.5 10zM197 680h-9q-12 0 -14 -8q2 -2 8 -2q15 0 15 10z M903 655q0 -6 -2 -10l-2 -4q0 -9 14 -12l2 8q0 14 -12 18zM891 616l-2 11q-21 -17 -21 -31q23 0 23 20zM676 584l-45 -33q2 -2 8 -12t12 -13q29 10 29 25q-16 5 -21 10h25zM860 584q13 -4 17 -19l2 2q0 7 -5.5 12t-13.5 5zM903 584v-4q0 -7 8 -23q13 3 13 14q0 9 -21 13z M723 582l-6 -15q0 -13 8.5 -24t19.5 -11q18 0 25 35zM563 561q4 0 7 -1.5t4.5 -6t2.5 -6.5t2 -9l1 -6l-11 5.5t-13.5 8t-4.5 7.5q0 8 12 8zM244 551q-39 0 -39 -41q39 0 39 41zM903 547q-8 -8 -8 -19q0 -2 3.5 -5t4.5 -3q3 1 6.5 8.5t3.5 10.5q-6 8 -10 8zM430 541v-25 q4 4 10 21q15 0 25 -29q-4 -6 -14 -13t-11 -8v2q0 5 -32 43q2 9 22 9zM483 530q13 0 13 -14q0 -2 -4 -5t-7 -3l-16 8q2 2 4.5 6t4.5 6t5 2zM659 522l-8 -16q0 -3 3 -6.5t5 -3.5q15 0 15 12q0 3 -2.5 5t-6.5 4.5t-6 4.5zM254 477q-27 0 -33 -18q9 -23 68 -23q0 41 -35 41z M764 471q-2 -2 -2 -8q0 -14 10 -14v8q0 12 -8 14zM459 465l-5.5 -11t-8 -13.5t-7.5 -4.5q-8 0 -8 13q0 4 2 7t5.5 4.5t6.5 2t8.5 1.5t6.5 1zM1335 377l-18 -10l-10 30l8 9zM315 193q8 0 13.5 -6t5.5 -11q0 -6 -5 -19.5t-7 -13.5q-6 0 -13 7.5t-10 7.5q0 7 6 21t10 14z" />
<glyph unicode="&#xaf;" horiz-adv-x="600" d="M246 1858l86 -27q-3 -6 -9.5 -20.5t-11 -23.5t-8.5 -9q-11 0 -39 30t-18 50zM334 1724q39 0 106 -1t99 -1q61 0 61 -12v-162q0 -2 -6.5 -8t-13.5 -6l-330 2l-14 -2l-220 4q-6 0 -16 21v147l10 14q184 4 238 4q8 0 12.5 -2.5t11.5 -21t13 -55.5l-29 -39q7 7 21 -1t14 -16 q7 63 15 94.5t13.5 36t14.5 4.5zM551 1642l-33 48q-3 -4 -16.5 -15.5t-19 -19t0.5 -10.5q22 -11 52 -11q16 0 16 8zM242 1671q-4 0 -8 -6t-6 -12l-1 -6q2 -23 2 -33l29 41q-8 16 -16 16zM506 1599l-39 -8q14 -14 29 -14q10 0 13.5 5.5t-3.5 16.5z" />
<glyph unicode="&#xb0;" horiz-adv-x="911" d="M461 1239q66 0 127 -30.5t104 -84.5q66 -100 66 -190q0 -126 -93 -213.5t-221 -87.5q-49 0 -141 39q-3 5 -22 16l-27 17q-54 55 -77 104.5t-23 120.5q0 131 87 220t220 89zM575 1194l-2 -16q0 -27 19 -33l6 20q0 20 -23 29zM700 1194l5 -4q0 -4 -7 -4q0 8 2 8zM512 1188 q-4 0 -5 -3.5t0 -6.5l1 -4l8 -25h14v6q0 33 -18 33zM498 1149q-4 -4 -4 -21q0 -14 4 -18q4 13 4 25q0 14 -4 14zM236 1139l26 -27q12 -6 14 -4q0 20 -24 31h-16zM315 1120q-8 -3 -6 -22l21 -17q14 11 14 13q0 16 -2 18q-6 0 -15 4t-12 4zM633 1112l-4 -20q0 -11 12 -11 q14 0 23 9l-23 26zM295 1096q0 -8 6 -18.5t12.5 -18t18.5 -20t16 -17.5q-26 -41 -26 -88q0 -53 41.5 -91t91.5 -38q55 0 95 39.5t40 95.5q0 48 -39 88.5t-96 40.5q-50 0 -90 -29q-7 0 -23 31h-6q-12 0 -41 25zM582 1092l-7 -19q21 0 33 23zM285 1071v-2q0 -1 -1 -6.5 t-1.5 -9t0.5 -4.5l16 4zM377 1067h-12q0 -10 2 -10zM561 807l10 -4l-4 12zM559 772h4q16 0 19 8l-33 13zM614 786l-6 -8q6 -6 8 -6zM492 784q0 -2 -2.5 -5.5t-2.5 -6.5q0 -4 15 -16q6 -6 12 -6q8 0 14.5 8.5t7 15.5t-0.5 8q-4 0 -13 -3t-14 -3q-8 0 -16 8zM567 719l33 41 q-20 -17 -43 -17q-5 0 -20 5q1 -3 4.5 -9.5t5 -8.5t7 -5.5t13.5 -5.5zM221 506l98 -55q-12 -9 -26 -9q-19 0 -72 64z" />
<glyph unicode="&#xb1;" horiz-adv-x="929" d="M479 1044l142 -4q5 0 8 -5.5t5.5 -44.5t2.5 -116q5 -18 16 -18h88q7 0 7 -27v-227l-9 -6l-104 2l2 -154q0 -6 -7 -13t-12 -7l-278 -8q-23 0 -23 51q0 11 2.5 34t2.5 34q0 35 -13.5 48t-36.5 13q-5 0 -16.5 -1t-17.5 -1q-60 0 -60 16l-2 230q0 5 6.5 10.5t14.5 5.5h100 q27 0 27 53q0 77 4.5 104t17.5 27zM354 930q-16 -7 -16 -27q0 -13 17 -24t34 -15v15q0 19 -7.5 30t-27.5 21zM313 803q-4 0 -10 -6t-6 -9q0 -26 32.5 -54.5t57.5 -28.5h8q-7 9 -15.5 24.5t-16 26t-17.5 14.5q-4 3 -17 16t-16 17zM309 393q6 0 6 -8q0 -3 -3 -5.5t-7.5 -5 t-5.5 -3.5q0 22 10 22zM741 311q7 0 7 -26v-215l-9 -19q-180 -4 -229 -4q-71 0 -148 2t-90 2l-53 -2q-43 4 -43 17v229q0 5 6.5 10.5t14.5 5.5q154 -6 237 -6q66 0 163.5 3t143.5 3zM487 252q-16 -7 -16 -27q0 -13 17 -24t34 -15v15q0 19 -7.5 30t-27.5 21zM662 252 q-13 0 -15 -2t3 -3q4 -1 12 -1q14 0 14 4q-2 2 -14 2zM715 252l-23 -2q0 -4 23 -4l20 2q0 4 -20 4zM537 250q-7 0 -7 -10q1 -4 7 -4l4 4q0 8 -4 10zM438 246q-2 0 -3.5 -2t-2.5 -4v-2q0 -5 6 -5q4 1 4 5zM469 188l-4 -10l12 -10l8 8l-2 12h-14zM545 186l-15 -4q6 -6 13 -6z M567 139q-2 -2 -4 -9t-4.5 -13t-5.5 -6q-4 0 -5.5 6t-4.5 6q-11 0 -11 -6q0 -4 5 -18.5t8 -14.5q1 0 28 27v12q0 16 -6 16zM621 -53q0 -15 -3 -15q-12 0 -12 9q6 6 15 6z" />
<glyph unicode="&#xb4;" horiz-adv-x="393" d="M258 1901q4 0 8.5 -5.5t3.5 -13.5q0 -2 -4 -5t-10.5 -7t-9.5 -6l6 32q0 5 6 5zM141 1823h232q20 0 20 -27q0 -13 -31 -55l-174 -236q-16 -22 -75 -22l-64 2h-33q-16 0 -16 16q0 3 6 21l31 75q16 6 34 23.5t36 31t38 13.5t45 -14q-5 6 -9.5 24t-12 28.5t-23.5 10.5 q-7 0 -25.5 -6t-25.5 -6q-12 0 -12 12l29 76q3 11 12.5 22t17.5 11zM176 1614l-18 31q-48 -14 -41 -43h2q9 0 29.5 4t27.5 8zM113 1585q-12 0 -17 -8l15 -8l12 12q-4 4 -10 4zM12 1438l15 -15q0 -4 -5.5 -8t-9.5 -4q-2 0 -20 12z" />
<glyph unicode="&#xb6;" horiz-adv-x="1462" d="M928 1509q0 -8 1 -18.5t1 -13.5q0 -19 -12 -54l-3 25q0 23 13 61zM1108 1483l-10 8q12 4 14 4zM993 1483q15 0 19 -10q-12 4 -31 4q4 6 12 6zM1032 1479q4 0 12 -13q-20 0 -20 11q2 2 8 2zM829 1477q7 -7 7 -11q0 -8 -17 -8q0 17 10 19zM1186 1407q24 0 78 -4l6 -12 q0 -115 -3 -405t-3 -433q0 -83 3 -460t3 -466q0 -14 -6.5 -25.5t-18.5 -11.5q-30 0 -77 -1t-68 -1q-47 0 -47 47v699q0 6 1 49t2 113.5t1 142.5v86l-4 485l-21 11q0 8 -43 8q-73 0 -108 -4q0 -34 -3.5 -289t-3.5 -383q0 -83 3.5 -460t3.5 -466q0 -14 -6.5 -25.5t-18.5 -11.5 q-30 0 -77 -1t-68 -1q-47 0 -47 47v74q0 31 16.5 47.5t38.5 10.5q14 24 37.5 44.5t27.5 26.5q-4 2 -16 2q-18 0 -55 -12q-3 3 -23 13.5t-26 23.5v536q0 299 -21 306q-255 0 -387 135q-12 12 -12 22q0 17 32 43q-10 -2 -28 -2q-27 0 -40 15t-20 45q-8 46 -8 79 q0 114 60 198.5t153.5 124.5t204.5 40q104 0 276 -4q-14 -11 -14 -23q0 -11 13 -19t36 -9l41 51h201q16 4 35 4zM1163 1360l-8 -2q7 -7 26 -25t24 -25.5t11.5 -24.5t6.5 -40q10 0 10 35q0 28 -21 55t-49 27zM395 1335q-2 -4 -2 -6l2 -8q4 0 4 8q0 6 -4 6zM1071 1262l-3 -13 q-3 -13 -3 -16q0 -19 18 -43q0 30 -12 72zM1243 1169q-8 0 -8 -10q6 0 18 6q-2 4 -10 4zM1174 1155q-3 -6 -3 -33q0 -19 1 -28t9.5 -20t24.5 -17q-9 67 -32 98zM592 1118l-25 -47q0 -14 19 -14q12 0 17 21.5t5 39.5h-16zM508 1081h24q-10 17 -24 17v-17zM573 1018h-10 q6 -17 11 -18q2 -1 4 -1q3 0 12 9q-4 10 -17 10zM532 979q-26 0 -34 -31q2 -6 12 -6q11 0 16.5 13t5.5 24zM662 971h-5q-8 0 -16.5 -17t-13.5 -20l12 -2q23 0 23 29v10zM471 942v-29q0 -11 8 -14q10 3 10 19q0 14 -18 24zM1219 930q0 -33 36 -53v14q0 39 -36 39zM590 918 q0 -24 12 -58q3 0 7.5 5t4.5 7q0 12 -6 29t-18 17zM643 918q-6 0 -13 -4.5t-7 -10.5q0 -7 10 -14q10 4 10 29zM524 911q-3 -1 -6.5 -9t-3.5 -13l12 -11q11 -10 11 -16q8 -24 8 -43q8 0 18 18.5t10 30.5q0 2 -11 11.5t-24 20t-14 11.5zM225 188q8 -2 8 -14q0 -16 -18 -16 q0 20 10 30zM262 166q8 -3 8 -10q0 -13 -18 -13q0 21 10 23zM213 145q7 0 12 -8q-3 -8 -18 -8l-12 2q1 1 5 5.5t6.5 6.5t6.5 2zM604 121q6 0 10 -4q0 -4 -6.5 -11.5t-11.5 -9.5q-8 0 -8 10q2 15 16 15zM393 -104l-4 -13q-8 0 -12 8zM489 -117q9 -3 12 -6t3 -10 q0 -21 -11.5 -40.5t-31.5 -19.5q16 12 17.5 39.5t10.5 36.5zM823 -199l-10 -6q-11 -5 -20 -13.5t-17 -19t-10 -12.5q0 -4 -5 -10.5t-12 -14.5t-10 -12h4q7 0 20.5 9t20.5 10q0 20 10.5 31.5t28.5 13.5v24z" />
<glyph unicode="&#xb7;" horiz-adv-x="737" d="M240 803h256q6 0 13 -18t7 -33v-236q0 -6 -7 -13t-13 -7h-256q-33 0 -33 133q0 34 5 99t7 71zM414 721q-4 -4 -4 -6q0 -13 16 -23t31 -10q0 22 -9 29t-34 10zM393 602q-14 0 -18 -10q12 4 31 4q-4 6 -13 6zM362 596l-8 2q-5 0 -12 -12q20 0 20 10zM496 596l-25 2 q-26 0 -61 -12q8 0 18.5 -3t13.5 -3q8 0 54 16z" />
<glyph unicode="&#xb8;" horiz-adv-x="296" d="M37 6h117q10 -29 61 -92q6 -6 8 -12.5t1 -10.5t-2 -7.5t-1 -4.5q2 -1 12.5 0.5t10.5 -0.5q53 -68 53 -131q0 -89 -71.5 -145t-155.5 -56q-15 0 -21 3.5t-10 15.5l-37 117l-2 18q7 2 34 8t43.5 11t32 20t15.5 37q0 46 -40.5 66t-86.5 20q0 21 14 53l21 14q-2 6 -2 17 q0 8 3 27.5t3 31.5zM70 -86v-25q0 -9 6 -14t14 4q2 2 2 6q0 5 -10 15t-12 14zM203 -129q-50 0 -56 -21q0 -5 6.5 -11.5t10.5 -6.5q17 0 28 11.5t11 27.5zM29 -217q5 0 11.5 -4.5t6.5 -7.5q-2 -4 -6 -4q-25 0 -25 6q0 1 6 4.5t7 5.5zM119 -279q-4 0 -4 -4q0 -5 4.5 -9.5 t9.5 -4.5l6 4q0 4 -5.5 9t-10.5 5zM92 -305l-16 -2q6 -17 33 -17l14 2q-4 17 -31 17zM121 -387h-8q-19 0 -31 -10l10 -9l25 -8q8 11 4 27zM98 -432l8 10q-12 0 -36 -12zM63 -479l9 -8l-56 -15l19 19l4 12zM203 -600l6 35q22 0 33 -19q-7 -16 -39 -16z" />
<glyph unicode="&#xba;" horiz-adv-x="933" d="M469 1384q28 0 55 -6q9 -3 19 -26q4 1 8.5 9.5t7.5 8.5q93 -31 152 -114t59 -185q0 -49 -39 -141q-7 -6 -18 -25.5t-15 -23.5q-55 -54 -105 -77.5t-120 -23.5q-131 0 -220 87t-89 220q0 117 88 207t217 90zM543 1339v-24q0 -21 -2 -25l-13 -35l2 -6q10 17 18.5 24t22.5 7 q5 0 12.5 -4.5t12.5 -9t6 -4.5q10 13 10 24q0 8 -8.5 13t-20 7.5t-23.5 10.5t-17 22zM623 1264l-11 -2q3 -11 6.5 -15t12.5 -4q10 0 14 6q-7 15 -22 15zM598 1237q0 -5 6 -9.5t12 -4.5h5q-1 6 -8.5 10t-14.5 4zM586 1212q0 -28 14 -28l6 2q-4 26 -20 26zM469 1204l-4 4 q-2 0 -2 -8q6 0 6 4zM623 1180q-15 0 -15 -13q0 -14 25 -14q14 0 14 14v4q-1 3 -11 6t-13 3zM463 1176q-38 0 -66 -29t-28 -68q0 -40 29 -69t69 -29q39 0 66.5 29t27.5 69q0 44 -27.5 70.5t-70.5 26.5zM647 1116q-18 0 -22 -35l8 -2q7 0 41 17q-9 20 -27 20zM610 1053 l-24 22q-13 -2 -13 -18q0 -7 5.5 -13t13.5 -6q9 0 18 15zM662 1042q-16 0 -26.5 -12.5t-10.5 -28.5q19 24 45 37q0 4 -8 4zM430 692q19 0 43 -18q-30 0 -72 12q1 0 13 3t16 3zM303 594l2 8q8 -8 21 -21.5t19.5 -19.5t18 -13.5t25 -10t31.5 -2.5q0 -11 -35 -11q-28 0 -55 21 t-27 49z" />
<glyph unicode="&#xbb;" horiz-adv-x="1210" d="M201 1059l166 2q88 0 98 -17l149 -282q31 -60 31 -78v-8q0 -12 -9.5 -36.5t-23.5 -43.5l-161 -291q-4 -8 -17 -8h-303l-2 12l8 15l215 346q0 4 -10 24l-176 318q-25 30 -25 37v6l15 2q1 0 7 0.5t16.5 1t21.5 0.5zM580 1059h301q12 0 16 -8l166 -291q6 -14 13.5 -28 t11.5 -22.5t7.5 -16t5 -12t1.5 -7.5q0 -14 -5.5 -27t-16.5 -29t-15 -24l-154 -283q-8 -16 -98 -16q-213 0 -213 6v6q0 18 8 31l23 39l160 285q10 12 10 24l-217 346l-6 19zM444 1034l-2 2l-2 -2q0 -6 2 -6q0 1 1 3t1 3zM401 1016l-4 6l-2 -2l6 -12q6 3 9 12l-7 2zM954 840 q0 -7 13 -11q-3 11 -13 11zM979 788q-2 -2 -3.5 -8.5t-2.5 -7.5q16 -5 18 2q-5 1 -8 7t-4 7zM946 776v-4q1 1 4 0.5t5 0t1 3.5h-10zM989 748h-10q-2 -6 -2 -21q0 -20 10 -25q4 12 4 19q0 4 -1 13t-1 14zM813 717q-12 0 -16 -8q2 -1 6 -4t7 -5t5 0q-7 2 -3 9q4 3 9 2 q0 6 -8 6zM772 688q14 0 14 -6q-5 -3 -10 -0.5t-4 6.5zM965 678q-1 -2 -5 -5t-4 -5q16 0 17 4q-2 0 -4 3t-4 3zM950 662h-6q-2 -7 6 -11v11zM971 639l-4 -4q0 -3 5 -5t12.5 -4t10.5 -3q1 2 5 4t6 4q-4 1 -12.5 1t-14 1.5t-8.5 5.5zM846 629q0 -13 4 -13q0 3 5 4.5t5 4.5 q-3 0 -7.5 2t-6.5 2zM778 608l5 -4q5 -3 10 -4q1 6 -5.5 9.5t-9.5 -1.5zM813 596q-12 0 -8 -23q24 -15 37 -4q-22 0 -25 15q0 2 2 4.5t2 5.5q-2 2 -8 2zM946 590q-3 3 -8.5 2.5t-5.5 -4.5q2 1 8 0.5t6 1.5zM969 575q-1 -1 -5 -2t-3 -6q6 0 10 2q-1 1 -1 4q0 2 -1 2zM860 573 q-12 0 -14 -6q6 -6 8 -6q0 9 6 12zM887 569q-3 0 -8 1t-8 1t-5 -2q-3 -1 0 -5q2 -3 2 -5q-5 -9 -18 -6q1 -3 7.5 -6t8.5 -6q1 3 8 4.5t7 5.5q-5 0 -7 0.5t-3.5 2t-0.5 5.5q1 3 8 5t9 5zM956 555q-6 0 -10.5 -5t-1.5 -9q4 1 7.5 7t4.5 7zM1010 551q-13 4 -15 0q0 -5 6.5 -4.5 t8.5 4.5zM928 547v-6q6 0 8 4q-2 0 -4 1.5t-4 0.5zM954 537q-1 -6 1.5 -7.5t9.5 -1.5q0 13 -11 9zM903 535q-15 0 -18 -9q2 -1 4 0.5t4 1.5q0 -1 2 -5t2 -5q-16 0 -16 -10q4 -4 6 -4q10 0 10 12q6 0 12 7.5t9 8.5q-2 0 -7 1.5t-8 1.5zM950 526q-16 5 -18 0q14 -7 18 0z M868 524q-20 8 -43 -6q18 -6 25 -6q15 0 18 12zM690 518q3 1 5 -3t3 -5q0 -4 -4 -1.5t-6 1.5q-2 4 2 8zM848 498h-10q0 -11 10 -11v11zM860 483q-8 5 -15 0t-9 -12h22q0 3 1 6t1 6zM674 475q-2 -8 -10 0q0 7 7 2q2 -2 3 -2zM903 475q-27 0 -33 -12q7 -1 26.5 -1t31.5 -1 q0 14 -25 14zM770 459q-3 -1 -10 -3t-11.5 -4t-7.5 -6q8 -4 15 -4q0 5 6.5 8.5t7.5 8.5zM846 434q-3 -4 1.5 -7t12.5 -3q0 10 -14 10zM817 428h-6q-6 0 -10 -3t-7 -8t-6 -7q-1 -4 2 -5.5t9 -1.5q-1 4 0.5 9t1.5 8q2 2 8.5 3.5t7.5 4.5zM721 414q0 -9 -10.5 -14t-12.5 -9h7 q8 0 15.5 6t8.5 15q-2 0 -4 1.5t-4 0.5zM856 395q-3 4 -7.5 5.5t-7.5 -0.5t-3 -7q3 -3 9 -2.5t9 4.5zM942 385q-14 0 -14 -4q3 -3 7.5 -1t6.5 5zM709 379q-11 0 -11 -8q11 0 11 8zM745 379q-13 0 -20 -10h8q9 0 12 10zM793 373q-1 0 -2 1q-9 6 -9 -1q8 -8 11 0z" />
<glyph unicode="&#xbc;" horiz-adv-x="2082" d="M739 2507l-4 8h10zM1030 2165h184q9 -138 9 -379l-2 -803l-7 -12h-213l-10 -4l-76 4v631q0 10 7.5 25.5t7.5 25.5q-2 0 -14 4t-15 4q-6 -4 -13.5 -13t-15 -20.5t-10.5 -15.5q-119 -119 -168 -119q0 54 4 157t4 152q11 14 82.5 69t116.5 114q1 1 20 26t31 33zM1118 1892 q-10 0 -10 -10q0 -6 10 -6q11 0 17 6q0 10 -17 10zM1016 1735q-27 0 -49 -11q17 -4 22 -18q2 2 6.5 5t7.5 5.5t6.5 5.5t5 6.5t1.5 6.5zM821 1700l47 -17q0 17 -11.5 28t-25.5 11zM883 1718q0 -35 12 -35l23 7q0 4 -6 12l-5 8q-1 3 -10.5 5.5t-13.5 2.5zM854 1393 q3 0 5.5 -2.5t2.5 -4.5q-4 0 -8 -4q-4 0 -4 4q0 7 4 7zM936 1376l-6 -20q31 0 31 18zM795 1360q6 0 10 -4q0 -11 -6 -17q-15 0 -15 9q0 12 11 12zM967 1337q-19 -11 -19 -32l35 -7q0 32 -16 39zM1014 1307q-3 0 -8 -7.5t-5 -11.5q2 -1 6 -6.5t5 -5.5q6 0 6 24zM1063 1307 q-4 0 -9 -6t-5 -11q0 -4 4 -4q5 0 9.5 5t4.5 9zM803 1280l-10 2q0 6 6 12zM856 1294q10 0 10 -6q-2 -4 -10 -4q-4 0 -4 4q0 6 4 6zM1188 1194l4 6l-8 6zM866 1178q2 -2 2 -15q0 -12 -2 -14q-4 0 -4 14q1 15 4 15zM750 1135l-7 2l2 8zM866 1133l2 -23q0 -20 -4 -20q0 2 -1 9 t-1 11q0 23 4 23zM719 1075l-6 6l6 4v-10zM870 973q7 0 7 -6q0 -13 -9 -13q-4 4 -4 7q0 12 6 12zM946 944q8 -8 10 -12q0 -10 -12 -14q-20 0 -20 14q8 12 22 12zM788 913l-8 2l6 13zM866 858l-2 8q0 9 8 13zM1124 856l-14 2l12 10zM1528 760q59 0 108 -6h351q5 0 14 -9 q0 -22 -4 -34l-4 -64q0 -7 2 -21.5t2 -21.5l-15 -10q-146 -1 -444 -8t-649 -11.5t-762 -1.5h-31l-4 7l-10 53l12 104l5 4q12 7 20 7h317q43 6 133 6q108 0 174 -6q133 1 376.5 6.5t408.5 5.5zM1577 733h-10q-31 0 -59.5 -19t-28.5 -48l2 -9q16 32 26 42.5t31.5 17t38.5 16.5 zM1642 705q0 -5 -4 -9l17 -22q0 31 -13 31zM1888 686q-14 0 -14 -8q1 -2 7 -6.5t7 -5.5q9 0 21 12q0 8 -21 8zM1808 672h-10q9 -13 14 -13q6 0 9 7q0 6 -13 6zM1659 653v15q-6 -24 -6 -35q6 0 6 20zM1841 662q0 -15 8 -17q6 3 6 8q0 9 -14 9zM1815 651q0 -16 6 -22q6 2 6 10 q0 12 -12 12zM1319 403q0 -14 -2 -14q-12 0 -12 8q12 6 14 6zM1300 356l15 -12q0 -18 -2 -55t-2 -56q0 -107 4 -323t4 -326q1 -6 6 -11t10 -5h88q7 0 7 -29l-111 -235v-150q0 -6 -7 -12t-12 -6l-278 -10q-21 0 -21 53q0 10 1.5 32.5t1.5 32.5q0 36 -13 49t-37 13 q-5 0 -17.5 -1t-18.5 -1q-19 0 -59 -2t-62 -2q-5 0 -23 2t-20 2h-254q-8 0 -8 30l280 570q8 35 46 97.5t38 76.5q15 28 35 71.5t35.5 76t32.5 64.5t34.5 49t34.5 17h272zM973 264q-10 0 -10 -10q0 -6 10 -16q3 0 4.5 2t4.5 6.5t7 7.5q0 10 -16 10zM1061 129l-6 -29 q14 0 24.5 11t10.5 26zM395 72l-24 10l14 4zM346 82q-2 -4 -14 -4q4 4 14 4zM1049 37l-15 -6q0 -7 5 -18t5 -17q0 -12 -6 -21q4 0 7.5 4t7 10t6.5 9v4q-9 35 -10 35zM436 35q6 0 6 -23v-14q-6 24 -6 37zM287 10q16 -32 35 -46t61 -30h-10q-30 0 -59 19.5t-29 46.5q0 2 1 5.5 t1 4.5zM1137 4l-9 2q-17 0 -24 -16l8 -2q15 0 25 16zM422 -31l16 25q0 -31 -12 -31q0 2 -4 6zM1010 -96l-9 -13q0 -26 21 -32q16 6 16 26zM979 -164l-109 -237l-2 -15q0 -16 11 -16l36 -2l64 2q27 0 27 51v14l-7 119q0 14 -1 43t-1 45l-6 4zM1374 -958q8 0 12 -11 q-10 0 -12 11zM782 -1057q6 0 6 -8q0 -6 -16 -14q0 22 10 22z" />
<glyph unicode="&#xbd;" horiz-adv-x="2082" d="M739 2507l-4 8h10zM1030 2165h184q9 -138 9 -379l-2 -803l-7 -12h-213l-10 -4l-76 4v631q0 10 7.5 25.5t7.5 25.5q-2 0 -14 4t-15 4q-6 -4 -13.5 -13t-15 -20.5t-10.5 -15.5q-119 -119 -168 -119q0 54 4 157t4 152q11 14 82.5 69t116.5 114q1 1 20 26t31 33zM1118 1892 q-10 0 -10 -10q0 -6 10 -6q11 0 17 6q0 10 -17 10zM1016 1735q-27 0 -49 -11q17 -4 22 -18q2 2 6.5 5t7.5 5.5t6.5 5.5t5 6.5t1.5 6.5zM821 1700l47 -17q0 17 -11.5 28t-25.5 11zM883 1718q0 -35 12 -35l23 7q0 4 -6 12l-5 8q-1 3 -10.5 5.5t-13.5 2.5zM854 1393 q3 0 5.5 -2.5t2.5 -4.5q-4 0 -8 -4q-4 0 -4 4q0 7 4 7zM936 1376l-6 -20q31 0 31 18zM795 1360q6 0 10 -4q0 -11 -6 -17q-15 0 -15 9q0 12 11 12zM967 1337q-19 -11 -19 -32l35 -7q0 32 -16 39zM1014 1307q-3 0 -8 -7.5t-5 -11.5q2 -1 6 -6.5t5 -5.5q6 0 6 24zM1063 1307 q-4 0 -9 -6t-5 -11q0 -4 4 -4q5 0 9.5 5t4.5 9zM803 1280l-10 2q0 6 6 12zM856 1294q10 0 10 -6q-2 -4 -10 -4q-4 0 -4 4q0 6 4 6zM1188 1194l4 6l-8 6zM866 1178q2 -2 2 -15q0 -12 -2 -14q-4 0 -4 14q1 15 4 15zM750 1135l-7 2l2 8zM866 1133l2 -23q0 -20 -4 -20q0 2 -1 9 t-1 11q0 23 4 23zM719 1075l-6 6l6 4v-10zM870 973q7 0 7 -6q0 -13 -9 -13q-4 4 -4 7q0 12 6 12zM946 944q8 -8 10 -12q0 -10 -12 -14q-20 0 -20 14q8 12 22 12zM788 913l-8 2l6 13zM866 858l-2 8q0 9 8 13zM1124 856l-14 2l12 10zM1528 760q59 0 108 -6h351q5 0 14 -9 q0 -22 -4 -34l-4 -64q0 -7 2 -21.5t2 -21.5l-15 -10q-146 -1 -444 -8t-649 -11.5t-762 -1.5h-31l-4 7l-10 53l12 104l5 4q12 7 20 7h317q43 6 133 6q108 0 174 -6q133 1 376.5 6.5t408.5 5.5zM1221 713q-7 -2 -7 -11q0 -12 13 -12q0 17 -6 23zM1389 709q-7 0 -7 -21v-14 q7 28 7 35zM1192 696q-6 -3 -6 -8q0 -8 14 -8q0 14 -8 16zM1563 676l-2 8q-16 -32 -26.5 -42.5t-32 -17t-38.5 -16.5h11q31 0 59.5 19.5t28.5 48.5zM1229 682q-5 0 -8 -6q0 -6 12 -6h10q-8 12 -14 12zM1153 676q-8 0 -20 -12q0 -9 20 -9q14 0 14 9q-1 2 -7 6.5t-7 5.5z M1403 645l-17 23q0 -31 13 -31q0 4 4 8zM991 373q108 0 202 -41t155 -124.5t61 -193.5q0 -146 -58.5 -290t-160.5 -267q-4 -8 -4 -20q0 -21 250 -21q14 0 44 1t44 1q4 -2 4 -10q0 -17 -31.5 -77t-68 -122t-39.5 -69l-9 -8q-6 0 -36.5 -2t-79.5 -2q-99 0 -299 2t-297 2 q-7 0 -19 5t-12 9q41 62 106.5 150.5t67.5 91.5q16 21 68 89t80.5 109.5t66.5 104.5t56 121t18 112q0 74 -59 116t-134 42q-72 0 -114 -19q-4 -1 -30 -14.5t-42 -13.5q-4 0 -6 0.5t-4 3t-2 8.5v254q0 28 117 50t165 22zM950 266l-6 -35q32 0 39 17q-11 18 -33 18zM934 213 q-1 -2 -6.5 -5.5t-5.5 -4.5q0 -6 24 -6l6 4q0 3 -7 7.5t-11 4.5zM936 166q-4 0 -4 -4q0 -5 5 -10t9 -5l6 5q0 4 -5.5 9t-10.5 5zM1743 121l-25 10l15 4zM1694 131q-2 -4 -15 -4q4 4 15 4zM1784 84q6 0 6 -23v-14q-6 24 -6 37zM1634 59q16 -32 35 -45.5t62 -29.5h-11 q-31 0 -59.5 19t-28.5 46q0 2 1 5.5t1 4.5zM1769 18l17 25q0 -31 -12 -31q0 1 -5 6zM911 -672q0 -14 7.5 -26.5t21.5 -12.5l8 2q-2 15 -11.5 26t-25.5 11zM956 -719q0 -45 21 -53q16 11 16 24q0 14 -11.5 21.5t-25.5 7.5zM975 -778h-14q-23 0 -23 -10q2 -3 2 -5h10 q19 0 25 15zM1034 -782q-19 0 -30 -15t-11 -34l47 22zM926 -793q-8 -3 -8 -10t8 -10q2 0 4 2.5t2 3.5q0 8 -6 14zM963 -842l18 29q-13 0 -25 -11.5t-12 -25.5z" />
<glyph unicode="&#xbe;" horiz-adv-x="2082" d="M1022 2230q84 0 158 -20t134.5 -60t96 -107.5t35.5 -154.5q0 -69 -27 -119t-84 -96v-8q0 -13 11 -20q22 -26 40.5 -46t27.5 -29t15.5 -15t8 -8.5t2.5 -4.5q45 -79 45 -168q0 -70 -17 -125q-2 -12 -12 -33t-10 -34q8 2 24 10t29 8l-29 -20q-1 -3 -9.5 -9t-10.5 -6 q-6 0 -10 4q-6 -1 -24.5 -22t-37.5 -45t-22 -27q-155 -123 -383 -123q-59 0 -181 24.5t-141 55.5q0 139 37 268q6 19 35 19q133 -70 235 -70q79 0 130 32.5t51 104.5q0 50 -33.5 80.5t-74.5 38.5t-80 15.5t-46 17.5q-4 4 -4 25q-2 2 -2 65q0 45 2 45l10 13q33 3 63 9 t67.5 18.5t60 37t22.5 57.5q0 146 -180 146q-85 0 -188 -49q-23 0 -23 18v238q0 26 115.5 47.5t173.5 21.5zM1124 2142q-31 -11 -49 -33l17 -2q36 0 36 25q-4 8 -4 10zM836 2140q-15 -2 -26 -11.5t-11 -25.5q14 0 26.5 7.5t12.5 21.5zM973 2109l-2 -8q0 -30 59 -30 q0 33 -57 38zM836 2097l-11 -22q17 0 17 18q-2 0 -6 4zM846 2068l4 -12q4 0 7 5.5t3 9.5zM1020 2048l-10 -2q9 -16 26 -16l8 2q-8 16 -24 16zM954 2042q-3 -3 -9.5 -16t-6.5 -17q0 -20 53 -20q0 27 -37 53zM913 2011q-18 -15 -39 -51q5 -2 7 -2q19 0 26.5 8t7.5 25 q0 16 -2 20zM864 2001q-35 0 -41 -16q9 -15 21 -15q10 0 15 10t5 21zM1227 1929q-27 0 -46.5 -29t-19.5 -59v-10q10 17 16 38t16.5 31.5t43.5 26.5q-1 0 -4.5 1t-5.5 1zM1305 1882q0 -12 4 -14q0 10 -4 14zM1298 1819l15 10l-4 14zM1221 1776l-25 16q-4 -4 -6 -4 q0 -12 31 -12zM1126 1731v-7q0 -20 13 -20q10 0 10 20q0 7 -23 7zM1130 1673l-4 15q-11 0 -25 -9t-14 -20q25 0 29 -12q14 7 14 26zM1241 1550l-2 -8q0 -7 9.5 -15.5t17.5 -10.5v12q0 22 -25 22zM1313 1542q-17 0 -17 -12q0 -10 11 -10q6 12 6 22zM1071 1524q0 -31 14 -31h5 q0 10 -5 20.5t-14 10.5zM1208 1495q-12 0 -12 -27q0 -24 12 -28l23 45q-2 2 -11 6t-12 4zM1528 760q59 0 108 -6h351q5 0 14 -9q0 -22 -4 -34l-4 -64q0 -7 2 -21.5t2 -21.5l-15 -10q-146 -1 -444 -8t-649 -11.5t-762 -1.5h-31l-4 7l-10 53l12 104l5 4q12 7 20 7h317 q43 6 133 6q108 0 174 -6q133 1 376.5 6.5t408.5 5.5zM1221 713q-7 -2 -7 -11q0 -12 13 -12q0 17 -6 23zM1389 709q-7 0 -7 -21v-14q7 28 7 35zM1192 696q-6 -3 -6 -8q0 -8 14 -8q0 14 -8 16zM1563 676l-2 8q-16 -32 -26.5 -42.5t-32 -17t-38.5 -16.5h11q31 0 59.5 19.5 t28.5 48.5zM1229 682q-5 0 -8 -6q0 -6 12 -6h10q-8 12 -14 12zM1153 676q-8 0 -20 -12q0 -9 20 -9q14 0 14 9q-1 2 -7 6.5t-7 5.5zM1403 645l-17 23q0 -31 13 -31q0 4 4 8zM731 469l-24 10l14 4zM682 479q-2 -4 -14 -4q4 4 14 4zM772 432q6 0 6 -22v-15q-6 24 -6 37z M623 408q16 -32 35 -46t61 -30h-10q-31 0 -59.5 19t-28.5 46q0 2 1 6t1 5zM1319 403q0 -14 -2 -14q-12 0 -12 8q12 6 14 6zM758 367l16 24q0 -31 -12 -31q0 3 -4 7zM1300 356l15 -12q0 -18 -2 -55t-2 -56q0 -107 4 -323t4 -326q1 -6 6 -11t10 -5h88q7 0 7 -29l-111 -235 v-150q0 -6 -7 -12t-12 -6l-278 -10q-21 0 -21 53q0 10 1.5 32.5t1.5 32.5q0 36 -13 49t-37 13q-5 0 -17.5 -1t-18.5 -1q-19 0 -59 -2t-62 -2q-5 0 -23 2t-20 2h-254q-8 0 -8 30l280 570q8 35 46 97.5t38 76.5q15 28 35 71.5t35.5 76t32.5 64.5t34.5 49t34.5 17h272zM973 264 q-10 0 -10 -10q0 -6 10 -16q3 0 4.5 2t4.5 6.5t7 7.5q0 10 -16 10zM1061 129l-6 -29q14 0 24.5 11t10.5 26zM1049 37l-15 -6q0 -7 5 -18t5 -17q0 -12 -6 -21q4 0 7.5 4t7 10t6.5 9v4q-9 35 -10 35zM1137 4l-9 2q-17 0 -24 -16l8 -2q15 0 25 16zM1010 -96l-9 -13 q0 -26 21 -32q16 6 16 26zM979 -164l-109 -237l-2 -15q0 -16 11 -16l36 -2l64 2q27 0 27 51v14l-7 119q0 14 -1 43t-1 45l-6 4zM1374 -958q8 0 12 -11q-10 0 -12 11zM782 -1057q6 0 6 -8q0 -6 -16 -14q0 22 10 22z" />
<glyph unicode="&#xbf;" horiz-adv-x="847" d="M332 1466q137 0 239 -4q13 -13 13 -26v-265l-21 -20h-239l-45 6q-4 6 -8.5 21.5t-4.5 23.5v240q0 24 66 24zM395 1358l4 -12q9 0 13 8zM299 1346q-14 -5 -14 -17q0 -20 11.5 -39.5t31.5 -19.5q-16 12 -18 39.5t-11 36.5zM500 1274q2 -4 12 -4q-2 4 -12 4zM395 1266 q-13 0 -20.5 -10t-7.5 -23q12 23 34 29q-1 0 -3 2t-3 2zM500 1169h-8q-13 0 -15 -8q2 -2 8 -2q15 0 15 10zM338 1098q135 0 210 -72t75 -207q0 -69 -51 -214t-54 -167q0 -29 23 -55t50 -41t50 -28.5t23 -20.5q0 -17 -5 -37l-71 -227q-7 -23 -17.5 -29t-40.5 -6 q-151 0 -248.5 97t-97.5 249q0 32 13.5 96t33.5 121q7 18 29 65.5t34.5 84.5t12.5 69q0 22 -6.5 33.5t-28.5 30.5q-8 109 -8 209q0 35 12.5 42t61.5 7zM328 645l-6 21q-9 1 -13 -4.5t-4 -10.5q9 -9 33 -39q1 1 10.5 8t13.5 13q-10 29 -24 29q-4 -10 -10 -17zM381 655 q-3 0 -5 -2t-4.5 -6t-4.5 -6l16 -8q3 0 6.5 3t3.5 5q0 14 -12 14zM356 590q-1 0 -5.5 -1t-6.5 -1.5t-5.5 -1.5t-5.5 -2.5t-3.5 -4.5t-1.5 -6q0 -12 8 -12q4 0 7 4.5t7 13t6 11.5z" />
<glyph unicode="&#xc0;" horiz-adv-x="1597" d="M741 1960l45 55q11 -15 11 -26q0 -18 -17 -35h-2q-7 0 -37 6zM465 1901h246q16 0 30 -33q0 -1 -6 -17t-6 -24q5 -8 11.5 -11.5t14 -5.5t11.5 -4l96 -241v-6q0 -29 -55 -29q-9 0 -28.5 -1t-28.5 -1q-60 0 -76 22l-230 318v6q0 27 21 27zM719 1862q-4 0 -10.5 -10.5 t-6.5 -18.5q0 -3 2 -5t4.5 -2h5.5t5 -1q0 2 -1 5t-1 5q0 10 8 23q-4 4 -6 4zM657 1782q-17 0 -41.5 -21.5t-27.5 -23.5q4 -6 7.5 -18.5t8 -21t12.5 -11.5q-1 17 19 52.5t22 43.5zM692 1720l-33 9q-4 -8 -4.5 -17.5t1.5 -14.5l1 -5q20 0 28.5 6.5t6.5 21.5zM680 1427h244 q10 0 58 -112t48 -125q66 -173 139.5 -355.5t179.5 -437t146 -352.5q0 -28 -25 -35.5t-90 -7.5l-104 2q-104 2 -158 2q-6 14 -17 43t-18.5 46t-21.5 41.5t-31 45.5q-14 -1 -56.5 5t-78.5 6l-256 -5q-5 0 -36 2.5t-34 2.5q-22 0 -38 -27.5t-23.5 -62t-19.5 -69.5t-27 -46 q-56 -2 -137 3t-136 5q-86 0 -86 24q0 3 1 10t1 9l119 344q27 54 65 160t48 131q13 34 55 139.5t64 163.5q3 8 21 24.5t22 26.5q7 17 17.5 28.5t10.5 18.5t-7 31t1 31q37 90 107 274q2 16 53 16zM743 1180l-2 8q-49 -24 -49 -41l2 -8q49 14 49 41zM895 1114q-43 0 -43 -24 q0 -10 8 -18.5t17 -8.5q17 0 31 6t14 18q0 11 -8 19t-19 8zM678 1106q-23 -8 -45.5 -24.5t-22.5 -34.5q0 -7 4 -9q14 0 36 6t28 13q4 0 4 24q0 17 -4 25zM786 1065l-8 2q-28 0 -48.5 -27t-20.5 -55q0 -35 10 -35q0 23 6.5 40.5t11 24t24 25t25.5 25.5zM543 1055 q-13 -46 -13 -72q19 25 19 43q0 4 -3 16t-3 13zM680 1004q-16 0 -22 -9.5t-8.5 -27.5t-6.5 -25q-20 -8 -22 -10q-8 -7 -20.5 -19.5t-12.5 -15.5q0 -8 8 -25t14 -20q4 -3 24 -8.5t25 -5.5q0 13 -6 21t-13 10.5t-13 8t-6 15.5q0 7 29.5 46t29.5 65zM870 969q-12 -42 -12 -72 q19 25 19 43q0 3 -3.5 15.5t-3.5 13.5zM547 924q-10 -11 -19 -39q7 -4 8 -14t-1 -11q-5 -4 -9 -13.5t-4 -12.5q0 -36 8 -41q2 -1 6.5 -15t6.5 -14q0 16 -1 35t-1 30q0 6 3 40.5t3 54.5zM381 895l-19 -12q0 23 23 30zM680 881q-8 0 -10 -4q14 -7 18 -7q0 11 -8 11zM809 739 l-27 64q-9 0 -68 -141t-59 -166t45 -25h54q9 0 27 0.5t29 1t27 1t25.5 2t19.5 3t14.5 3.5t4.5 5q0 27 -10.5 58t-52.5 129q-20 51 -29 65zM936 784l-16 -16q10 -20 36 -20q0 28 -20 36zM537 723l8 12l-15 15zM543 702q-9 0 -11 -4q12 -6 19 -6q0 10 -8 10zM541 674 q-12 0 -18.5 -14t-6.5 -29q0 -17 19 -25q5 2 17 15.5t13 23.5q0 11 -7 20t-17 9zM393 612q-12 0 -12 -22q0 -10 10 -15q15 15 17 21q0 6 -4.5 11t-10.5 5zM553 592q-6 0 -9.5 -3.5t-4.5 -10t-1 -12t0.5 -14.5t0.5 -13q0 -19 6 -19q0 24 4 43.5t4 28.5zM397 565l-4 -2l2 -22 l17 6q0 5 -4.5 11.5t-10.5 6.5zM375 520q-4 -2 -4 -8q0 -5 14 -12v4q0 11 -10 16zM424 520h-4l-6 -24q32 0 32 10q0 14 -22 14zM535 508l-9 -2l4 -43l33 10q0 12 -8.5 23.5t-19.5 11.5zM393 494v-9q0 -14 10 -18v10q0 15 -10 17zM375 467l-10 12l-5 -4q0 -9 10 -19t17 -10h4 q-4 6 -5.5 9.5t-1.5 4t-1.5 2t-7.5 5.5zM567 426l-4 20q-22 0 -22 -32zM528 397v-14q0 -27 19 -33v17q0 26 -19 30zM1235 319l-2 17q-26 0 -42.5 -27t-23.5 -55l9 -2q24 0 41.5 22t17.5 45zM530 334q-8 -4 -8 -17q0 -9 29 -24v10q0 18 -21 31zM379 309l-4 21q-23 0 -23 -33z M369 242l8 12l-15 14zM1157 178q-14 0 -21.5 -12.5t-7.5 -26.5q48 0 54 21q-8 18 -25 18zM397 158l-61 -6q0 -19 10.5 -33.5t30.5 -14.5q20 24 20 54z" />
<glyph unicode="&#xc1;" horiz-adv-x="1597" d="M948 1946q4 0 9 -5.5t4 -13.5q0 -2 -4.5 -5t-11 -7t-9.5 -6l6 33q0 4 6 4zM831 1868h232q20 0 20 -27q0 -15 -30 -55l-174 -236q-17 -22 -76 -22l-64 2h-32q-17 0 -17 16q0 3 6 21l31 75q16 6 49.5 37t59.5 31q20 0 45 -14q-5 6 -9.5 24t-12 28.5t-23.5 10.5q-7 0 -26 -6 t-26 -6q-12 0 -12 12l29 76q3 11 12.5 22t17.5 11zM866 1659l-18 31q-48 -14 -41 -43h2q9 0 29.5 4t27.5 8zM803 1630q-12 0 -17 -8l15 -8l12 12q-4 4 -10 4zM702 1483l15 -15q0 -4 -5.5 -8t-9.5 -4q-2 0 -20 12zM680 1427h244q10 0 58 -112t48 -125q66 -173 139.5 -355.5 t179.5 -437t146 -352.5q0 -28 -25 -35.5t-90 -7.5l-104 2q-104 2 -158 2q-6 14 -17 43t-18.5 46t-21.5 41.5t-31 45.5q-14 -1 -56.5 5t-78.5 6l-256 -5q-5 0 -36 2.5t-34 2.5q-22 0 -38 -27.5t-23.5 -62t-19.5 -69.5t-27 -46q-56 -2 -137 3t-136 5q-86 0 -86 24q0 3 1 10 t1 9l119 344q27 54 65 160t48 131q13 34 55 139.5t64 163.5q3 8 21 24.5t22 26.5q7 17 17.5 28.5t10.5 18.5t-7 31t1 31q37 90 107 274q2 16 53 16zM743 1180l-2 8q-49 -24 -49 -41l2 -8q49 14 49 41zM895 1114q-43 0 -43 -24q0 -10 8 -18.5t17 -8.5q17 0 31 6t14 18 q0 11 -8 19t-19 8zM678 1106q-23 -8 -45.5 -24.5t-22.5 -34.5q0 -7 4 -9q14 0 36 6t28 13q4 0 4 24q0 17 -4 25zM786 1065l-8 2q-28 0 -48.5 -27t-20.5 -55q0 -35 10 -35q0 23 6.5 40.5t11 24t24 25t25.5 25.5zM543 1055q-13 -46 -13 -72q19 25 19 43q0 4 -3 16t-3 13z M680 1004q-16 0 -22 -9.5t-8.5 -27.5t-6.5 -25q-20 -8 -22 -10q-8 -7 -20.5 -19.5t-12.5 -15.5q0 -8 8 -25t14 -20q4 -3 24 -8.5t25 -5.5q0 13 -6 21t-13 10.5t-13 8t-6 15.5q0 7 29.5 46t29.5 65zM870 969q-12 -42 -12 -72q19 25 19 43q0 3 -3.5 15.5t-3.5 13.5zM547 924 q-10 -11 -19 -39q7 -4 8 -14t-1 -11q-5 -4 -9 -13.5t-4 -12.5q0 -36 8 -41q2 -1 6.5 -15t6.5 -14q0 16 -1 35t-1 30q0 6 3 40.5t3 54.5zM381 895l-19 -12q0 23 23 30zM680 881q-8 0 -10 -4q14 -7 18 -7q0 11 -8 11zM809 739l-27 64q-9 0 -68 -141t-59 -166t45 -25h54 q9 0 27 0.5t29 1t27 1t25.5 2t19.5 3t14.5 3.5t4.5 5q0 27 -10.5 58t-52.5 129q-20 51 -29 65zM936 784l-16 -16q10 -20 36 -20q0 28 -20 36zM537 723l8 12l-15 15zM543 702q-9 0 -11 -4q12 -6 19 -6q0 10 -8 10zM541 674q-12 0 -18.5 -14t-6.5 -29q0 -17 19 -25 q5 2 17 15.5t13 23.5q0 11 -7 20t-17 9zM393 612q-12 0 -12 -22q0 -10 10 -15q15 15 17 21q0 6 -4.5 11t-10.5 5zM553 592q-6 0 -9.5 -3.5t-4.5 -10t-1 -12t0.5 -14.5t0.5 -13q0 -19 6 -19q0 24 4 43.5t4 28.5zM397 565l-4 -2l2 -22l17 6q0 5 -4.5 11.5t-10.5 6.5zM375 520 q-4 -2 -4 -8q0 -5 14 -12v4q0 11 -10 16zM424 520h-4l-6 -24q32 0 32 10q0 14 -22 14zM535 508l-9 -2l4 -43l33 10q0 12 -8.5 23.5t-19.5 11.5zM393 494v-9q0 -14 10 -18v10q0 15 -10 17zM375 467l-10 12l-5 -4q0 -9 10 -19t17 -10h4q-4 6 -5.5 9.5t-1.5 4t-1.5 2t-7.5 5.5z M567 426l-4 20q-22 0 -22 -32zM528 397v-14q0 -27 19 -33v17q0 26 -19 30zM1235 319l-2 17q-26 0 -42.5 -27t-23.5 -55l9 -2q24 0 41.5 22t17.5 45zM530 334q-8 -4 -8 -17q0 -9 29 -24v10q0 18 -21 31zM379 309l-4 21q-23 0 -23 -33zM369 242l8 12l-15 14zM1157 178 q-14 0 -21.5 -12.5t-7.5 -26.5q48 0 54 21q-8 18 -25 18zM397 158l-61 -6q0 -19 10.5 -33.5t30.5 -14.5q20 24 20 54z" />
<glyph unicode="&#xc2;" horiz-adv-x="1597" d="M678 1868h170q23 0 45 -22t80 -105l131 -185l4 -12q0 -14 -18 -14q-5 0 -65.5 -1t-90.5 -1q-18 0 -43 22q0 1 1 3t1 3v11q0 9 12 14q-6 6 -10 6q-6 0 -16 -5.5t-13 -6.5l-92 92l-112 -117q-14 -22 -39 -22q-27 0 -78 1t-80 1q-19 0 -19 14q0 8 9 21l131 184l28 16 q8 11 -4 23q-13 13 -49 33q51 0 76 18q7 4 19.5 16.5t21.5 12.5zM680 1825q-12 0 -20.5 -11.5t-8.5 -23.5q47 0 47 16q0 19 -18 19zM721 1755l24 -10q0 24 -22 37zM774 1765l64 -14q0 25 -58 25zM969 1636l-60 -39q2 -1 4.5 -3t5 -3.5t3.5 -1.5q7 0 19 7.5t20 15t8 8.5v16z M909 1567l27 -15q27 7 27 11q0 2 -3 3t-7 1.5t-5 1.5zM680 1427h244q10 0 58 -112t48 -125q66 -173 139.5 -355.5t179.5 -437t146 -352.5q0 -28 -25 -35.5t-90 -7.5l-104 2q-104 2 -158 2q-6 14 -17 43t-18.5 46t-21.5 41.5t-31 45.5q-14 -1 -56.5 5t-78.5 6l-256 -5 q-5 0 -36 2.5t-34 2.5q-22 0 -38 -27.5t-23.5 -62t-19.5 -69.5t-27 -46q-56 -2 -137 3t-136 5q-86 0 -86 24q0 3 1 10t1 9l119 344q27 54 65 160t48 131q13 34 55 139.5t64 163.5q3 8 21 24.5t22 26.5q7 17 17.5 28.5t10.5 18.5t-7 31t1 31q37 90 107 274q2 16 53 16z M743 1180l-2 8q-49 -24 -49 -41l2 -8q49 14 49 41zM895 1114q-43 0 -43 -24q0 -10 8 -18.5t17 -8.5q17 0 31 6t14 18q0 11 -8 19t-19 8zM678 1106q-23 -8 -45.5 -24.5t-22.5 -34.5q0 -7 4 -9q14 0 36 6t28 13q4 0 4 24q0 17 -4 25zM786 1065l-8 2q-28 0 -48.5 -27t-20.5 -55 q0 -35 10 -35q0 23 6.5 40.5t11 24t24 25t25.5 25.5zM543 1055q-13 -46 -13 -72q19 25 19 43q0 4 -3 16t-3 13zM680 1004q-16 0 -22 -9.5t-8.5 -27.5t-6.5 -25q-20 -8 -22 -10q-8 -7 -20.5 -19.5t-12.5 -15.5q0 -8 8 -25t14 -20q4 -3 24 -8.5t25 -5.5q0 13 -6 21t-13 10.5 t-13 8t-6 15.5q0 7 29.5 46t29.5 65zM870 969q-12 -42 -12 -72q19 25 19 43q0 3 -3.5 15.5t-3.5 13.5zM547 924q-10 -11 -19 -39q7 -4 8 -14t-1 -11q-5 -4 -9 -13.5t-4 -12.5q0 -36 8 -41q2 -1 6.5 -15t6.5 -14q0 16 -1 35t-1 30q0 6 3 40.5t3 54.5zM381 895l-19 -12 q0 23 23 30zM680 881q-8 0 -10 -4q14 -7 18 -7q0 11 -8 11zM809 739l-27 64q-9 0 -68 -141t-59 -166t45 -25h54q9 0 27 0.5t29 1t27 1t25.5 2t19.5 3t14.5 3.5t4.5 5q0 27 -10.5 58t-52.5 129q-20 51 -29 65zM936 784l-16 -16q10 -20 36 -20q0 28 -20 36zM537 723l8 12 l-15 15zM543 702q-9 0 -11 -4q12 -6 19 -6q0 10 -8 10zM541 674q-12 0 -18.5 -14t-6.5 -29q0 -17 19 -25q5 2 17 15.5t13 23.5q0 11 -7 20t-17 9zM393 612q-12 0 -12 -22q0 -10 10 -15q15 15 17 21q0 6 -4.5 11t-10.5 5zM553 592q-6 0 -9.5 -3.5t-4.5 -10t-1 -12t0.5 -14.5 t0.5 -13q0 -19 6 -19q0 24 4 43.5t4 28.5zM397 565l-4 -2l2 -22l17 6q0 5 -4.5 11.5t-10.5 6.5zM375 520q-4 -2 -4 -8q0 -5 14 -12v4q0 11 -10 16zM424 520h-4l-6 -24q32 0 32 10q0 14 -22 14zM535 508l-9 -2l4 -43l33 10q0 12 -8.5 23.5t-19.5 11.5zM393 494v-9 q0 -14 10 -18v10q0 15 -10 17zM375 467l-10 12l-5 -4q0 -9 10 -19t17 -10h4q-4 6 -5.5 9.5t-1.5 4t-1.5 2t-7.5 5.5zM567 426l-4 20q-22 0 -22 -32zM528 397v-14q0 -27 19 -33v17q0 26 -19 30zM1235 319l-2 17q-26 0 -42.5 -27t-23.5 -55l9 -2q24 0 41.5 22t17.5 45z M530 334q-8 -4 -8 -17q0 -9 29 -24v10q0 18 -21 31zM379 309l-4 21q-23 0 -23 -33zM369 242l8 12l-15 14zM1157 178q-14 0 -21.5 -12.5t-7.5 -26.5q48 0 54 21q-8 18 -25 18zM397 158l-61 -6q0 -19 10.5 -33.5t30.5 -14.5q20 24 20 54z" />
<glyph unicode="&#xc3;" horiz-adv-x="1597" d="M698 1974l19 11q6 0 15 -9t9 -18q0 -10 -10 -12q-10 5 -33 28zM1008 1882q10 0 27 -3.5t24 -4.5l-53 -41h-5q-9 0 -16 15.5t-4 29.5q20 4 27 4zM1006 1815q14 0 20 -3l16 -8l45 -47l27 8q10 -5 13 -7t5.5 -7.5t2.5 -15.5q0 -91 -65.5 -144t-158.5 -53q-41 0 -73 12 t-49.5 27t-45 27t-61.5 12q-31 0 -50.5 -20.5t-29 -41t-14.5 -20.5q-9 0 -21 4l-88 43q-13 6 -16.5 12.5t-3.5 22.5q0 70 47 123q67 73 176 73q36 0 66 -10q49 -7 49 -37q0 -17 -17 -43q42 23 68 23q12 0 34 -5t36 -5q21 -1 40.5 19t31.5 40.5t16 20.5zM737 1735 q-13 0 -23.5 -21.5t-0.5 -32.5l37 25q2 2 2 6q0 10 -9 19q-4 4 -6 4zM815 1718l43 -12v6l-4 4q-3 5 -6 8t-8 6t-9 -1zM823 1694q-9 0 -18.5 -3.5t-16 -7.5t-12.5 -8l-6 -4l29 -18q11 -8 24 -8q16 0 26.5 10.5t10.5 23.5q0 3 -15 9t-22 6zM680 1427h244q10 0 58 -112t48 -125 q66 -173 139.5 -355.5t179.5 -437t146 -352.5q0 -28 -25 -35.5t-90 -7.5l-104 2q-104 2 -158 2q-6 14 -17 43t-18.5 46t-21.5 41.5t-31 45.5q-14 -1 -56.5 5t-78.5 6l-256 -5q-5 0 -36 2.5t-34 2.5q-22 0 -38 -27.5t-23.5 -62t-19.5 -69.5t-27 -46q-56 -2 -137 3t-136 5 q-86 0 -86 24q0 3 1 10t1 9l119 344q27 54 65 160t48 131q13 34 55 139.5t64 163.5q3 8 21 24.5t22 26.5q7 17 17.5 28.5t10.5 18.5t-7 31t1 31q37 90 107 274q2 16 53 16zM743 1180l-2 8q-49 -24 -49 -41l2 -8q49 14 49 41zM895 1114q-43 0 -43 -24q0 -10 8 -18.5t17 -8.5 q17 0 31 6t14 18q0 11 -8 19t-19 8zM678 1106q-23 -8 -45.5 -24.5t-22.5 -34.5q0 -7 4 -9q14 0 36 6t28 13q4 0 4 24q0 17 -4 25zM786 1065l-8 2q-28 0 -48.5 -27t-20.5 -55q0 -35 10 -35q0 23 6.5 40.5t11 24t24 25t25.5 25.5zM543 1055q-13 -46 -13 -72q19 25 19 43 q0 4 -3 16t-3 13zM680 1004q-16 0 -22 -9.5t-8.5 -27.5t-6.5 -25q-20 -8 -22 -10q-8 -7 -20.5 -19.5t-12.5 -15.5q0 -8 8 -25t14 -20q4 -3 24 -8.5t25 -5.5q0 13 -6 21t-13 10.5t-13 8t-6 15.5q0 7 29.5 46t29.5 65zM870 969q-12 -42 -12 -72q19 25 19 43q0 3 -3.5 15.5 t-3.5 13.5zM547 924q-10 -11 -19 -39q7 -4 8 -14t-1 -11q-5 -4 -9 -13.5t-4 -12.5q0 -36 8 -41q2 -1 6.5 -15t6.5 -14q0 16 -1 35t-1 30q0 6 3 40.5t3 54.5zM381 895l-19 -12q0 23 23 30zM680 881q-8 0 -10 -4q14 -7 18 -7q0 11 -8 11zM809 739l-27 64q-9 0 -68 -141 t-59 -166t45 -25h54q9 0 27 0.5t29 1t27 1t25.5 2t19.5 3t14.5 3.5t4.5 5q0 27 -10.5 58t-52.5 129q-20 51 -29 65zM936 784l-16 -16q10 -20 36 -20q0 28 -20 36zM537 723l8 12l-15 15zM543 702q-9 0 -11 -4q12 -6 19 -6q0 10 -8 10zM541 674q-12 0 -18.5 -14t-6.5 -29 q0 -17 19 -25q5 2 17 15.5t13 23.5q0 11 -7 20t-17 9zM393 612q-12 0 -12 -22q0 -10 10 -15q15 15 17 21q0 6 -4.5 11t-10.5 5zM553 592q-6 0 -9.5 -3.5t-4.5 -10t-1 -12t0.5 -14.5t0.5 -13q0 -19 6 -19q0 24 4 43.5t4 28.5zM397 565l-4 -2l2 -22l17 6q0 5 -4.5 11.5 t-10.5 6.5zM375 520q-4 -2 -4 -8q0 -5 14 -12v4q0 11 -10 16zM424 520h-4l-6 -24q32 0 32 10q0 14 -22 14zM535 508l-9 -2l4 -43l33 10q0 12 -8.5 23.5t-19.5 11.5zM393 494v-9q0 -14 10 -18v10q0 15 -10 17zM375 467l-10 12l-5 -4q0 -9 10 -19t17 -10h4q-4 6 -5.5 9.5 t-1.5 4t-1.5 2t-7.5 5.5zM567 426l-4 20q-22 0 -22 -32zM528 397v-14q0 -27 19 -33v17q0 26 -19 30zM1235 319l-2 17q-26 0 -42.5 -27t-23.5 -55l9 -2q24 0 41.5 22t17.5 45zM530 334q-8 -4 -8 -17q0 -9 29 -24v10q0 18 -21 31zM379 309l-4 21q-23 0 -23 -33zM369 242l8 12 l-15 14zM1157 178q-14 0 -21.5 -12.5t-7.5 -26.5q48 0 54 21q-8 18 -25 18zM397 158l-61 -6q0 -19 10.5 -33.5t30.5 -14.5q20 24 20 54z" />
<glyph unicode="&#xc4;" horiz-adv-x="1597" d="M518 1944q47 -16 47 -27q0 -8 -6.5 -21.5t-9.5 -15.5q-2 -1 -7 10t-12.5 29t-11.5 25zM666 1792l10 -14v-258q0 -13 -31 -13q-27 0 -71 6.5t-64 6.5l-84 -7q-19 0 -33 11q0 258 6 258l9 10h94l24 -82q3 11 7.5 31.5t8 31t13 23t25.5 19.5zM897 1782h260q4 0 7 -11t3 -18 v-252q-41 0 -108 3.5t-88 4.5l-45 2h-17q-24 0 -24 197q0 74 12 74zM481 1745q-3 0 -6 -4.5t-6.5 -13t-5.5 -11.5h29q0 2 1 5t1 5q0 7 -4 13t-9 6zM561 1743l-43 -144q5 -1 16 -8.5t15 -7.5q24 0 24 111q0 14 -5.5 29t-6.5 20zM500 1675l-23 6q0 -3 1 -8.5t1 -10.5t1 -9.5 t2 -6.5t3 -1zM1100 1638q-5 0 -14.5 -4.5t-15.5 -9.5l-7 -4q3 -4 12 -15.5t16.5 -19t16.5 -12.5q12 12 12 41q0 24 -20 24zM1057 1585v-33q2 2 9.5 8t11.5 10t3 7zM1094 1546q-6 -8 -8 -15t4 -9q24 0 24 8q0 2 -5 6t-10 7zM1145 1544q-5 -4 -7.5 -10.5t-2.5 -10.5t2 -5 q12 0 12 10q0 4 -4 16zM932 1399l3 -1q3 0 4 -1t2.5 -4t2 -8.5t0.5 -14.5q0 -13 -14 -27q-18 -18 -19 -20q6 -6 17 -6q4 0 11.5 1.5t12.5 1.5t9 -3q23 -18 39 -54t21 -59t5 -30l268 -695q0 -2 -1 -5t-1 -5q0 -23 21 -33l147 -397q15 -20 15 -37h-345q-21 0 -38 30.5t-25 67 t-18 67t-19 30.5q-22 0 -68 -1t-69 -1q-162 0 -277 10q-9 0 -25.5 8t-25.5 8q-20 -3 -34.5 -40.5t-22.5 -81t-28 -79.5t-50 -36q-4 0 -25.5 2t-25.5 2h-260q-17 0 -17 14v12l35 58l8 39l185 469q9 21 10 30l149 355q0 6 72 59q-8 24 -8 57q0 41 13.5 84.5t43.5 108.5t41 94 q11 25 68 25q27 0 61 2t74 2q66 0 78 2zM492 1196q10 0 10 -49q0 -36 -8 -55q-3 8 -15 34.5t-12 36.5t7.5 21.5t17.5 11.5zM438 1130v-16q0 -12 -13 -10q-6 2 -7 6q0 7 5 13.5t15 6.5zM692 1106q0 -31 15 -31h4q0 10 -5 20.5t-14 10.5zM586 1032l-2 -14q0 -27 28 -29v8 q0 10 -3.5 13.5t-14.5 3.5v10q0 4 -8 8zM741 1024l2 -8q4 -7 16.5 -10.5t20.5 -1.5q-1 1 -3 6t-3 6q-10 21 -33 8zM715 989q-30 -19 -19 -39q10 -19 31 -10q-4 32 -12 49zM627 928v51q-3 1 -13 1t-12 -1q-6 -3 -6 -10q0 -3 1 -6.5t2.5 -8.5t2.5 -8q12 -20 25 -18zM840 893 l-11 10q-10 -5 -18 -19t-4 -24q25 8 31 2q10 10 2 31zM723 877l2 16q-15 0 -25 -13.5t-14 -15.5l25 -14q1 -1 4 -10t8 -9l10 27l-14 8q0 1 2 5.5t2 5.5zM825 825q-6 -5 -11 -8.5t-10 -5.5t-7.5 -3.5t-7 -2t-6 -0.5h-6h-5.5q-6 -20 -18 -60.5t-19 -62.5q-6 -15 -26 -55.5 t-33.5 -76.5t-13.5 -61q0 -26 22 -26h227q5 0 13 6t8 10l-88 236q-17 17 -17 49q0 5 1 17t1 18q0 10 -4 26zM893 821q-4 0 -10 -2t-11.5 -4.5t-7.5 -3.5l4 -10q15 -31 35 -21q8 5 8 13q0 4 -10 24q-4 4 -8 4zM1030 502l-16 -2q7 -5 19.5 -28t23.5 -23q6 0 6 2v12 q0 39 -33 39zM993 471q-6 0 -9.5 -3t-4.5 -6.5t-4 -12.5h12q19 0 23 12q-7 10 -17 10zM1006 395q-7 0 -16 -4.5t-9 -13.5l33 -66h20q0 84 -28 84zM268 262q-11 0 -15.5 -6.5t-12.5 -32.5q22 7 28 13q8 7 10 13t-1 9.5t-9 3.5zM272 168q-3 0 -6.5 -2t-7 -4.5t-4.5 -3.5 q0 -6 3.5 -10.5t6.5 -4.5q12 0 12 19q0 6 -4 6zM309 127l-8 8q-3 -5 -10.5 -9.5t-13 -6.5t-5.5 -4q0 -11 19 -11q26 0 18 23zM215 86q-7 -7 -15.5 -14t-14.5 -11.5t-12 -9.5t-9 -8.5t-5 -6.5t-2 -5t3 -4q17 -11 28 2l19 22q24 31 8 35z" />
</font>
</defs>
</svg>
