<?xml version="1.0" encoding="UTF-8"?>
<svg width="28px" height="28px" viewBox="0 0 28 28" version="1.1" xmlns="http://www.w3.org/2000/svg" xmlns:xlink="http://www.w3.org/1999/xlink">
    <!-- Generator: Sketch 46.1 (44463) - http://www.bohemiancoding.com/sketch -->
    <title>Page 1 Copy 4@2x</title>
    <desc>Created with Sketch.</desc>
    <defs>
        <polygon id="path-1" points="9.21563103e-17 27.5553333 9.21563103e-17 0.145555556 27.8526839 0.145555556 27.8526839 27.5553333"></polygon>
    </defs>
    <g id="Design-Artboards" stroke="none" stroke-width="1" fill="none" fill-rule="evenodd">
        <g id="Footer-V2" transform="translate(-786.000000, -169.000000)">
            <g id="Footer-">
                <g id="Page-1-Copy-4" transform="translate(786.000000, 169.000000)">
                    <g id="Group-3" transform="translate(0.000000, 0.299111)">
                        <mask id="mask-2" fill="white">
                            <use xlink:href="#path-1"></use>
                        </mask>
                        <g id="Clip-2"></g>
                        <path d="M13.9262968,27.5553333 C21.6177161,27.5553333 27.8526839,21.4193333 27.8526839,13.8508889 C27.8526839,6.28111111 21.6177161,0.145555556 13.9262968,0.145555556 C6.23487742,0.145555556 -9.03225806e-05,6.28111111 -9.03225806e-05,13.8508889 C-9.03225806e-05,21.4193333 6.23487742,27.5553333 13.9262968,27.5553333" id="Fill-1" fill="#FAC800" mask="url(#mask-2)"></path>
                    </g>
                    <path d="M15.2617613,13.5217778 C14.9795032,13.3142222 14.4949226,13.4831111 14.1792452,13.8991111 C13.8640194,14.3146667 13.8369226,14.82 14.1191806,15.0275556 C14.4018903,15.2351111 14.886471,15.0662222 15.2016968,14.6502222 C15.5173742,14.2346667 15.5440194,13.7293333 15.2617613,13.5217778" id="Fill-4" fill="#FFFFFF"></path>
                    <path d="M20.2799935,19.4924889 C19.9977355,19.2849333 19.5131548,19.4538222 19.1974774,19.8698222 C18.8822516,20.2853778 18.8551548,20.7907111 19.1374129,20.9982667 C19.4201226,21.2058222 19.9047032,21.0369333 20.219929,20.6209333 C20.5356065,20.2053778 20.5622516,19.7000444 20.2799935,19.4924889" id="Fill-6" fill="#FFFFFF"></path>
                    <path d="M23.2935161,16.5265333 C23.0112581,16.3189778 22.5266774,16.4878667 22.211,16.9038667 C21.8957742,17.3194222 21.8686774,17.8247556 22.1509355,18.0323111 C22.4336452,18.2398667 22.9182258,18.0709778 23.2334516,17.6549778 C23.549129,17.2394222 23.5757742,16.7340889 23.2935161,16.5265333" id="Fill-8" fill="#FFFFFF"></path>
                    <path d="M24.9162968,12.5554222 C24.6340387,12.3478667 24.1494581,12.5167556 23.8337806,12.9327556 C23.5185548,13.3483111 23.4914581,13.8536444 23.7737161,14.0612 C24.0564258,14.2687556 24.5410065,14.0998667 24.8562323,13.6838667 C25.1719097,13.2683111 25.1985548,12.7629778 24.9162968,12.5554222" id="Fill-10" fill="#FFFFFF"></path>
                    <path d="M21.9025032,20.0321778 C21.6202452,20.2397333 21.6468903,20.7450667 21.9625677,21.1606222 C22.2777935,21.5766222 22.7623742,21.7450667 23.0450839,21.5379556 C23.3273419,21.3304 23.3002452,20.8250667 22.9850194,20.4095111 C22.6693419,19.9935111 22.1847613,19.8246222 21.9025032,20.0321778" id="Fill-12" fill="#FFFFFF"></path>
                    <path d="M16.9685419,8.68671111 C16.7138323,8.92671111 16.8032516,9.42493333 17.1677032,9.7996 C17.5326065,10.1747111 18.0343484,10.2840444 18.2890581,10.0440444 C18.5433161,9.80448889 18.4543484,9.30626667 18.0894452,8.93115556 C17.7249935,8.55648889 17.2232516,8.44671111 16.9685419,8.68671111" id="Fill-14" fill="#FFFFFF"></path>
                    <path d="M18.6867484,5.77546667 C18.8642323,6.07502222 19.3772645,6.10613333 19.8329419,5.8448 C20.2881677,5.58302222 20.5135226,5.12835556 20.3360387,4.8288 C20.1585548,4.52924444 19.6455226,4.49813333 19.1898452,4.75991111 C18.7346194,5.02124444 18.5092645,5.47591111 18.6867484,5.77546667" id="Fill-16" fill="#FFFFFF"></path>
                    <path d="M20.0508452,12.5302222 C20.3791677,12.656 20.8005226,12.3657778 20.9915548,11.8822222 C21.1825871,11.3986667 21.0714903,10.9044444 20.7427161,10.7791111 C20.4143935,10.6533333 19.9934903,10.9435556 19.8020065,11.4271111 C19.6109742,11.9106667 19.7225226,12.4044444 20.0508452,12.5302222" id="Fill-18" fill="#FFFFFF"></path>
                    <path d="M6.67845161,17.3227556 C7.00677419,17.4485333 7.42812903,17.1583111 7.61916129,16.6747556 C7.81019355,16.1912 7.69909677,15.6969778 7.37032258,15.5716444 C7.042,15.4458667 6.62109677,15.7360889 6.4296129,16.2196444 C6.23858065,16.7032 6.35012903,17.1969778 6.67845161,17.3227556" id="Fill-20" fill="#FFFFFF"></path>
                    <path d="M16.3636516,6.73182222 C16.7086839,6.66115556 16.901071,6.19226667 16.7940387,5.68426667 C16.6865548,5.17626667 16.3198452,4.8216 15.9748129,4.89226667 C15.6297806,4.96293333 15.4369419,5.43182222 15.5444258,5.93982222 C15.6519097,6.44782222 16.0186194,6.80248889 16.3636516,6.73182222" id="Fill-22" fill="#FFFFFF"></path>
                    <path d="M22.2310968,9.74897778 C22.5806452,9.79253333 22.918,9.41075556 22.9843871,8.89608889 C23.0512258,8.38142222 22.8218065,7.92853333 22.4722581,7.88497778 C22.1227097,7.84097778 21.7853548,8.22275556 21.7185161,8.73786667 C21.652129,9.25253333 21.8815484,9.70497778 22.2310968,9.74897778" id="Fill-24" fill="#FFFFFF"></path>
                    <path d="M16.0586774,24.7396444 C16.4082258,24.7832 16.7455806,24.4014222 16.8119677,23.8867556 C16.8788065,23.3720889 16.6493871,22.9192 16.2998387,22.8756444 C15.9502903,22.8316444 15.6129355,23.2134222 15.5460968,23.7285333 C15.4797097,24.2432 15.709129,24.6956444 16.0586774,24.7396444" id="Fill-26" fill="#FFFFFF"></path>
                    <path d="M4.38245161,19.1220444 C4.732,19.1656 5.06935484,18.7838222 5.13574194,18.2691556 C5.20258065,17.7544889 4.97316129,17.3016 4.6236129,17.2580444 C4.27406452,17.2140444 3.93670968,17.5958222 3.86987097,18.1109333 C3.80348387,18.6256 4.03290323,19.0780444 4.38245161,19.1220444" id="Fill-28" fill="#FFFFFF"></path>
                    <path d="M12.6667484,3.43386667 C12.8171355,3.74764444 13.3256516,3.82231111 13.8025548,3.60097778 C14.2794581,3.37964444 14.5441032,2.94586667 14.3937161,2.63208889 C14.243329,2.31875556 13.7348129,2.24364444 13.2579097,2.46497778 C12.7810065,2.68631111 12.5163613,3.12008889 12.6667484,3.43386667" id="Fill-30" fill="#FFFFFF"></path>
                    <path d="M11.9169806,8.4148 C11.5967871,8.56013333 11.5164,9.05968889 11.7372387,9.5308 C11.9580774,10.0023556 12.3961419,10.2663556 12.7163355,10.1210222 C13.036529,9.97613333 13.1169161,9.47657778 12.8960774,9.00502222 C12.6752387,8.53391111 12.2371742,8.26946667 11.9169806,8.4148" id="Fill-32" fill="#FFFFFF"></path>
                    <path d="M4.80737419,8.29324444 C4.48718065,8.43857778 4.40679355,8.93813333 4.62763226,9.40924444 C4.84847097,9.8808 5.28653548,10.1448 5.60672903,9.99946667 C5.92692258,9.85457778 6.00730968,9.35502222 5.78647097,8.88346667 C5.56563226,8.41235556 5.12756774,8.14791111 4.80737419,8.29324444" id="Fill-34" fill="#FFFFFF"></path>
                    <path d="M15.2128065,11.9937778 C15.5623548,12.0373333 15.8997097,11.6555556 15.9660968,11.1408889 C16.0329355,10.6262222 15.8035161,10.1733333 15.4539677,10.1297778 C15.1044194,10.0857778 14.7670645,10.4675556 14.7002258,10.9826667 C14.6338387,11.4973333 14.8632581,11.9497778 15.2128065,11.9937778" id="Fill-36" fill="#FFFFFF"></path>
                    <path d="M16.7008258,19.5664889 C16.8083097,19.2362667 16.4885677,18.8402667 15.9863742,18.6820444 C15.4841806,18.5238222 14.9896645,18.6633778 14.8821806,18.9936 C14.7751484,19.3238222 15.0948903,19.7198222 15.5970839,19.8780444 C16.0992774,20.0362667 16.5933419,19.8967111 16.7008258,19.5664889" id="Fill-38" fill="#FFFFFF"></path>
                    <path d="M5.41226452,13.5092 C5.51974839,13.1789778 5.20000645,12.7829778 4.6978129,12.6247556 C4.19561935,12.4665333 3.70110323,12.6060889 3.59361935,12.9363111 C3.4865871,13.2665333 3.80632903,13.6625333 4.30852258,13.8207556 C4.81071613,13.9789778 5.30478065,13.8394222 5.41226452,13.5092" id="Fill-40" fill="#FFFFFF"></path>
                    <path d="M12.5692452,5.83275556 C12.676729,5.50253333 12.3569871,5.10653333 11.8547935,4.94831111 C11.3526,4.79008889 10.8580839,4.92964444 10.7506,5.25986667 C10.6435677,5.59008889 10.9633097,5.98608889 11.4655032,6.14431111 C11.9676968,6.30253333 12.4617613,6.16297778 12.5692452,5.83275556" id="Fill-42" fill="#FFFFFF"></path>
                    <path d="M10.6320516,11.0729778 C10.4139226,10.8005333 9.90134194,10.8400889 9.4872129,11.1614222 C9.07308387,11.4827556 8.91456774,11.9640889 9.13269677,12.2360889 C9.35082581,12.5085333 9.86340645,12.4689778 10.2770839,12.1476444 C10.6912129,11.8263111 10.8501806,11.3454222 10.6320516,11.0729778" id="Fill-44" fill="#FFFFFF"></path>
                    <path d="M12.1924194,23.5908 C11.9101613,23.7983556 11.9368065,24.3036889 12.2524839,24.7192444 C12.5677097,25.1352444 13.0522903,25.3036889 13.335,25.0965778 C13.6172581,24.8890222 13.5901613,24.3836889 13.2749355,23.9681333 C12.9592581,23.5521333 12.4746774,23.3832444 12.1924194,23.5908" id="Fill-46" fill="#FFFFFF"></path>
                    <path d="M10.1067806,18.6769333 C10.050329,19.0191556 10.426071,19.3644889 10.946329,19.4476 C11.4670387,19.5311556 11.9349097,19.3213778 11.9913613,18.9791556 C12.0478129,18.6364889 11.672071,18.2916 11.1518129,18.2080444 C10.6311032,18.1249333 10.1632323,18.3347111 10.1067806,18.6769333" id="Fill-48" fill="#FFFFFF"></path>
                    <path d="M6.93514839,22.0829778 C6.87869677,22.4252 7.25443871,22.7705333 7.77469677,22.8536444 C8.29540645,22.9372 8.76327742,22.7274222 8.81972903,22.3852 C8.87618065,22.0425333 8.50043871,21.6976444 7.98018065,21.6140889 C7.45947097,21.5309778 6.9916,21.7407556 6.93514839,22.0829778" id="Fill-50" fill="#FFFFFF"></path>
                    <path d="M19.0223871,14.2537778 C18.7514194,14.032 18.2587097,14.1755556 17.9213548,14.5746667 C17.584,14.9737778 17.5307097,15.4768889 17.8016774,15.6986667 C18.0721935,15.9204444 18.5653548,15.7764444 18.9027097,15.3777778 C19.2396129,14.9786667 19.2933548,14.4755556 19.0223871,14.2537778" id="Fill-52" fill="#FFFFFF"></path>
                    <path d="M8.32304516,5.78675556 C8.05207742,5.56497778 7.55936774,5.70853333 7.2220129,6.10764444 C6.88465806,6.50675556 6.83136774,7.00986667 7.10233548,7.23164444 C7.37285161,7.45342222 7.8660129,7.30942222 8.20336774,6.91075556 C8.54027097,6.51164444 8.5940129,6.00853333 8.32304516,5.78675556" id="Fill-54" fill="#FFFFFF"></path>
                </g>
            </g>
        </g>
    </g>
</svg>