<?xml version="1.0" encoding="UTF-8" standalone="no"?>
<svg width="740px" height="555px" viewBox="0 0 740 555" version="1.1" xmlns="http://www.w3.org/2000/svg" xmlns:xlink="http://www.w3.org/1999/xlink">
    <!-- Generator: Sketch 3.6.1 (26313) - http://www.bohemiancoding.com/sketch -->
    <title>Page 1</title>
    <desc>Created with Sketch.</desc>
    <defs></defs>
    <g id="Page-2" stroke="none" stroke-width="1" fill="none" fill-rule="evenodd">
        <g id="Home" transform="translate(-607.000000, -4411.000000)">
            <g id="Page-1" transform="translate(607.000000, 4411.311436)">
                <path d="M238.348381,10.931015 C235.628741,11.531984 229.267637,11.2314995 229.267637,8.5016742 C229.267637,5.77694186 223.512595,0.638147593 219.881316,0.638147593 C216.244944,0.638147593 212.002511,7.89561224 211.707119,10.931015 C211.406635,13.9613248 205.6465,13.6557473 206.252562,17.8879951 C206.491931,19.5584853 205.417317,20.2765923 204.032032,20.7145866 C204.95895,24.3713302 205.478432,27.0094823 204.133891,26.6733471 C201.714736,26.0672851 201.108674,29.092502 197.477396,29.092502 C196.229621,29.092502 194.136415,25.960333 191.926072,21.8655951 C191.859863,21.8605021 191.783469,21.8299444 191.722353,21.8299444 C189.303199,21.8299444 183.853734,30.3046259 182.64161,36.059668 C181.429486,41.8096172 175.985114,39.9965243 167.805824,40.5974933 C159.631627,41.2035552 162.957329,49.6782368 161.144236,53.6252789 C159.483932,57.220907 150.505047,50.7172001 145.962129,49.7953748 C146.726073,53.0395888 147.795594,56.3449183 149.028089,56.3449183 C151.452337,56.3449183 155.088709,62.395352 157.507864,60.5771661 C159.932112,58.7691662 167.189576,60.5771661 170.825948,59.3701352 C174.46232,58.1631042 175.068382,55.1327944 181.129002,55.1327944 C187.179435,55.1327944 184.76028,59.9812901 190.810714,56.9509803 C196.871334,53.9155775 200.507705,56.3449183 199.891457,50.8954537 C199.290488,45.445989 203.527829,45.445989 202.921767,41.2035552 C202.320798,36.9611215 209.593542,39.9965243 208.972201,32.1177188 C208.376325,24.2490992 219.881316,25.4663161 224.719626,25.4663161 C225.840077,25.4663161 227.581868,26.1233077 229.568122,27.1113414 C233.153564,25.3440851 238.292358,23.0166035 235.924133,20.9233979 C233.204493,18.4991501 244.103423,20.6127275 245.310454,16.9814487 C246.522578,13.3501699 241.073113,10.3198601 238.348381,10.931015 M83.4868175,22.5786091 C83.6396062,15.7693248 77.1257134,16.5332684 75.613105,11.8426544 C74.0954036,7.14694747 71.52346,9.86658685 70.6118206,6.84137001 C70.4794037,6.38809678 70.1891051,5.89407988 69.8275051,5.37969116 C66.3999446,6.47977001 67.6375333,9.32164038 66.6749643,9.51007981 C65.4170038,9.7647277 58.6077194,10.5235784 58.6077194,8.5016742 C58.6077194,6.48995593 57.6044068,3.21518416 53.5809702,2.46651939 C51.5183224,2.07436165 49.4709534,1.96231658 47.6374886,2.06926869 C50.0617365,7.45252492 50.3673139,13.1566375 50.4742661,17.7402994 C50.6372407,23.7907331 59.5651955,33.4877244 60.9250151,37.4194877 C62.2899278,41.356344 64.8618714,42.5684679 70.7697023,46.8109016 C76.6724402,51.0482424 88.1774315,57.8575268 90.4437977,56.8032845 C92.7152568,55.7388564 86.9653076,45.7464735 83.6345133,42.2679834 C80.303719,38.7844004 83.3340288,29.3929865 83.4868175,22.5786091" id="Fill-1" fill="#8562b5"></path>
                <path d="M238.348381,10.931015 C235.628741,11.531984 229.267637,11.2314995 229.267637,8.5016742 C229.267637,5.77694186 223.512595,0.638147593 219.881316,0.638147593 C216.244944,0.638147593 212.002511,7.89561224 211.707119,10.931015 C211.406635,13.9613248 205.6465,13.6557473 206.252562,17.8879951 C206.491931,19.5584853 205.417317,20.2765923 204.032032,20.7145866 C204.95895,24.3713302 205.478432,27.0094823 204.133891,26.6733471 C201.714736,26.0672851 201.108674,29.092502 197.477396,29.092502 C196.229621,29.092502 194.136415,25.960333 191.926072,21.8655951 C191.859863,21.8605021 191.783469,21.8299444 191.722353,21.8299444 C189.303199,21.8299444 183.853734,30.3046259 182.64161,36.059668 C181.429486,41.8096172 175.985114,39.9965243 167.805824,40.5974933 C159.631627,41.2035552 162.957329,49.6782368 161.144236,53.6252789 C159.483932,57.220907 150.505047,50.7172001 145.962129,49.7953748 C146.726073,53.0395888 147.795594,56.3449183 149.028089,56.3449183 C151.452337,56.3449183 155.088709,62.395352 157.507864,60.5771661 C159.932112,58.7691662 167.189576,60.5771661 170.825948,59.3701352 C174.46232,58.1631042 175.068382,55.1327944 181.129002,55.1327944 C187.179435,55.1327944 184.76028,59.9812901 190.810714,56.9509803 C196.871334,53.9155775 200.507705,56.3449183 199.891457,50.8954537 C199.290488,45.445989 203.527829,45.445989 202.921767,41.2035552 C202.320798,36.9611215 209.593542,39.9965243 208.972201,32.1177188 C208.376325,24.2490992 219.881316,25.4663161 224.719626,25.4663161 C225.840077,25.4663161 227.581868,26.1233077 229.568122,27.1113414 C233.153564,25.3440851 238.292358,23.0166035 235.924133,20.9233979 C233.204493,18.4991501 244.103423,20.6127275 245.310454,16.9814487 C246.522578,13.3501699 241.073113,10.3198601 238.348381,10.931015 L238.348381,10.931015 Z M83.4868175,22.5786091 C83.6396062,15.7693248 77.1257134,16.5332684 75.613105,11.8426544 C74.0954036,7.14694747 71.52346,9.86658685 70.6118206,6.84137001 C70.4794037,6.38809678 70.1891051,5.89407988 69.8275051,5.37969116 C66.3999446,6.47977001 67.6375333,9.32164038 66.6749643,9.51007981 C65.4170038,9.7647277 58.6077194,10.5235784 58.6077194,8.5016742 C58.6077194,6.48995593 57.6044068,3.21518416 53.5809702,2.46651939 C51.5183224,2.07436165 49.4709534,1.96231658 47.6374886,2.06926869 C50.0617365,7.45252492 50.3673139,13.1566375 50.4742661,17.7402994 C50.6372407,23.7907331 59.5651955,33.4877244 60.9250151,37.4194877 C62.2899278,41.356344 64.8618714,42.5684679 70.7697023,46.8109016 C76.6724402,51.0482424 88.1774315,57.8575268 90.4437977,56.8032845 C92.7152568,55.7388564 86.9653076,45.7464735 83.6345133,42.2679834 C80.303719,38.7844004 83.3340288,29.3929865 83.4868175,22.5786091 L83.4868175,22.5786091 Z" id="Stroke-3" stroke="#FFFFFF" stroke-width="0.25"></path>
                <path d="M197.475358,29.0945391 C201.106637,29.0945391 201.712699,26.0642293 204.136947,26.6702913 C205.476395,27.0115195 204.962006,24.3682745 204.029995,20.7115309 C201.875674,21.3939872 198.987967,21.3787083 198.987967,23.0390125 C198.987967,25.6975364 194.399212,22.0458858 191.924035,21.8676322 C194.139471,25.9623702 196.232677,29.0945391 197.475358,29.0945391" id="Fill-5" fill="#8562b5"></path>
                <path d="M197.475358,29.0945391 C201.106637,29.0945391 201.712699,26.0642293 204.136947,26.6702913 C205.476395,27.0115195 204.962006,24.3682745 204.029995,20.7115309 C201.875674,21.3939872 198.987967,21.3787083 198.987967,23.0390125 C198.987967,25.6975364 194.399212,22.0458858 191.924035,21.8676322 C194.139471,25.9623702 196.232677,29.0945391 197.475358,29.0945391 L197.475358,29.0945391 Z" id="Stroke-7" stroke="#FFFFFF" stroke-width="0.25"></path>
                <path d="M590.771883,109.631516 C585.933573,106.596113 581.691139,104.482535 587.73648,110.232485 C593.802192,115.987527 590.537606,120.86658 594.097584,119.924383 C599.852626,118.416868 595.615285,112.661825 590.771883,109.631516 M580.479015,121.136507 C580.479015,123.856146 575.635612,125.378941 568.062384,128.399065 C560.504435,131.424281 546.748357,124.93076 546.264526,129.305611 C545.969134,132.030343 554.749393,136.883932 562.918497,136.883932 C571.092694,136.883932 584.110294,128.704642 584.110294,126.285487 C584.110294,123.866332 589.259274,119.623899 587.140604,117.199651 C585.027026,114.780496 580.479015,118.411775 580.479015,121.136507 M563.218982,175.030185 C561.105404,174.118545 555.650847,170.487267 555.951331,168.068112 C556.256909,165.648957 549.900897,165.949441 545.663557,163.219616 C541.426216,160.494884 542.933731,151.719718 538.395906,149.595954 C533.852988,147.472191 530.517101,140.815695 535.966565,141.11618 C541.41603,141.421757 542.327669,138.386354 538.090329,134.459684 C533.852988,130.522828 518.41114,129.010219 517.799985,123.26027 C517.199016,117.500135 489.651208,103.876473 477.540155,101.146648 C475.385834,100.66791 472.793519,99.8785017 469.966927,98.9261186 L469.966927,163.550658 C472.77824,165.435053 476.272009,166.947661 480.865856,167.161565 C494.183941,167.762534 490.863332,160.194399 493.272301,160.194399 C495.706735,160.194399 496.613282,155.957058 499.338014,152.621171 C502.062746,149.300563 513.868222,152.015109 520.835388,157.464574 C527.797461,162.919131 535.966565,178.967041 543.234216,177.44934 C550.506959,175.941824 558.075094,181.691773 564.736683,181.386196 C571.398272,181.080618 565.337652,175.941824 563.218982,175.030185" id="Fill-9" fill="#8562b5"></path>
                <path d="M590.771883,109.631516 C585.933573,106.596113 581.691139,104.482535 587.73648,110.232485 C593.802192,115.987527 590.537606,120.86658 594.097584,119.924383 C599.852626,118.416868 595.615285,112.661825 590.771883,109.631516 L590.771883,109.631516 Z M580.479015,121.136507 C580.479015,123.856146 575.635612,125.378941 568.062384,128.399065 C560.504435,131.424281 546.748357,124.93076 546.264526,129.305611 C545.969134,132.030343 554.749393,136.883932 562.918497,136.883932 C571.092694,136.883932 584.110294,128.704642 584.110294,126.285487 C584.110294,123.866332 589.259274,119.623899 587.140604,117.199651 C585.027026,114.780496 580.479015,118.411775 580.479015,121.136507 L580.479015,121.136507 Z M563.218982,175.030185 C561.105404,174.118545 555.650847,170.487267 555.951331,168.068112 C556.256909,165.648957 549.900897,165.949441 545.663557,163.219616 C541.426216,160.494884 542.933731,151.719718 538.395906,149.595954 C533.852988,147.472191 530.517101,140.815695 535.966565,141.11618 C541.41603,141.421757 542.327669,138.386354 538.090329,134.459684 C533.852988,130.522828 518.41114,129.010219 517.799985,123.26027 C517.199016,117.500135 489.651208,103.876473 477.540155,101.146648 C475.385834,100.66791 472.793519,99.8785017 469.966927,98.9261186 L469.966927,163.550658 C472.77824,165.435053 476.272009,166.947661 480.865856,167.161565 C494.183941,167.762534 490.863332,160.194399 493.272301,160.194399 C495.706735,160.194399 496.613282,155.957058 499.338014,152.621171 C502.062746,149.300563 513.868222,152.015109 520.835388,157.464574 C527.797461,162.919131 535.966565,178.967041 543.234216,177.44934 C550.506959,175.941824 558.075094,181.691773 564.736683,181.386196 C571.398272,181.080618 565.337652,175.941824 563.218982,175.030185 L563.218982,175.030185 Z" id="Stroke-11" stroke="#FFFFFF" stroke-width="0.25"></path>
                <path d="M674.2587,158.825412 C671.987241,163.826697 681.073077,172.454167 682.432897,172.678257 C683.792717,172.90744 676.01577,154.980229 674.2587,158.825412 M682.208807,179.039361 C682.656987,180.169998 688.569911,185.624555 691.518733,183.577186 C694.467556,181.53491 681.429584,177.093851 682.208807,179.039361 M663.583861,169.046978 C664.4955,173.589896 671.304785,176.314629 674.03461,174.725626 C676.754249,173.136623 662.65185,164.351271 663.583861,169.046978 M665.402047,159.283778 C667.902689,157.694776 651.345484,148.624218 651.090836,151.557762 C650.866746,154.282494 662.901404,160.872781 665.402047,159.283778 M631.340346,141.117198 C631.111163,142.247835 638.378813,149.291395 639.972909,148.155666 C641.556819,147.025029 631.752876,139.064736 631.340346,141.117198 M611.971828,128.39499 C611.35558,131.129908 621.072943,145.537886 624.68385,143.235869 C631.340346,139.003621 612.572797,125.675351 611.971828,128.39499" id="Fill-13" fill="#8562b5"></path>
                <path d="M674.2587,158.825412 C671.987241,163.826697 681.073077,172.454167 682.432897,172.678257 C683.792717,172.90744 676.01577,154.980229 674.2587,158.825412 L674.2587,158.825412 Z M682.208807,179.039361 C682.656987,180.169998 688.569911,185.624555 691.518733,183.577186 C694.467556,181.53491 681.429584,177.093851 682.208807,179.039361 L682.208807,179.039361 Z M663.583861,169.046978 C664.4955,173.589896 671.304785,176.314629 674.03461,174.725626 C676.754249,173.136623 662.65185,164.351271 663.583861,169.046978 L663.583861,169.046978 Z M665.402047,159.283778 C667.902689,157.694776 651.345484,148.624218 651.090836,151.557762 C650.866746,154.282494 662.901404,160.872781 665.402047,159.283778 L665.402047,159.283778 Z M631.340346,141.117198 C631.111163,142.247835 638.378813,149.291395 639.972909,148.155666 C641.556819,147.025029 631.752876,139.064736 631.340346,141.117198 L631.340346,141.117198 Z M611.971828,128.39499 C611.35558,131.129908 621.072943,145.537886 624.68385,143.235869 C631.340346,139.003621 612.572797,125.675351 611.971828,128.39499 L611.971828,128.39499 Z" id="Stroke-15" stroke="#FFFFFF" stroke-width="0.25"></path>
                <path d="M674.2587,158.825412 C671.987241,163.826697 681.073077,172.454167 682.432897,172.678257 C683.792717,172.90744 676.01577,154.980229 674.2587,158.825412 M682.208807,179.039361 C682.656987,180.169998 688.569911,185.624555 691.518733,183.577186 C694.467556,181.53491 681.429584,177.093851 682.208807,179.039361 M663.583861,169.046978 C664.4955,173.589896 671.304785,176.314629 674.03461,174.725626 C676.754249,173.136623 662.65185,164.351271 663.583861,169.046978 M665.402047,159.283778 C667.902689,157.694776 651.345484,148.624218 651.090836,151.557762 C650.866746,154.282494 662.901404,160.872781 665.402047,159.283778 M631.340346,141.117198 C631.111163,142.247835 638.378813,149.291395 639.972909,148.155666 C641.556819,147.025029 631.752876,139.064736 631.340346,141.117198 M611.971828,128.39499 C611.35558,131.129908 621.072943,145.537886 624.68385,143.235869 C631.340346,139.003621 612.572797,125.675351 611.971828,128.39499" id="Fill-17" fill="#8562b5"></path>
                <path d="M674.2587,158.825412 C671.987241,163.826697 681.073077,172.454167 682.432897,172.678257 C683.792717,172.90744 676.01577,154.980229 674.2587,158.825412 L674.2587,158.825412 Z M682.208807,179.039361 C682.656987,180.169998 688.569911,185.624555 691.518733,183.577186 C694.467556,181.53491 681.429584,177.093851 682.208807,179.039361 L682.208807,179.039361 Z M663.583861,169.046978 C664.4955,173.589896 671.304785,176.314629 674.03461,174.725626 C676.754249,173.136623 662.65185,164.351271 663.583861,169.046978 L663.583861,169.046978 Z M665.402047,159.283778 C667.902689,157.694776 651.345484,148.624218 651.090836,151.557762 C650.866746,154.282494 662.901404,160.872781 665.402047,159.283778 L665.402047,159.283778 Z M631.340346,141.117198 C631.111163,142.247835 638.378813,149.291395 639.972909,148.155666 C641.556819,147.025029 631.752876,139.064736 631.340346,141.117198 L631.340346,141.117198 Z M611.971828,128.39499 C611.35558,131.129908 621.072943,145.537886 624.68385,143.235869 C631.340346,139.003621 612.572797,125.675351 611.971828,128.39499 L611.971828,128.39499 Z" id="Stroke-19" stroke="#FFFFFF" stroke-width="0.25"></path>
                <path d="M524.613344,522.374989 C518.486516,523.062538 509.283542,516.793108 507.124128,517.383891 C504.628578,518.066347 515.079327,533.727192 511.901322,537.816837 C508.723316,541.906482 521.206155,553.034594 525.524984,553.711958 C529.833626,554.394414 528.244623,549.403315 531.198538,549.627406 C534.152454,549.851496 533.016724,546.67349 533.469997,544.402031 C533.923271,542.135665 536.877186,546.89758 539.372735,545.542854 C541.873378,544.177941 538.695372,534.409648 542.331744,534.409648 C545.95793,534.409648 543.009107,522.609265 541.873378,518.748803 C540.737648,514.878156 530.750358,521.692533 524.613344,522.374989 M421.980062,459.247779 C424.475611,461.519238 432.873898,460.836782 434.238811,457.658776 C435.59863,454.480771 419.734067,457.215689 421.980062,459.247779 M370.882418,190.390545 C370.429144,187.665813 354.26919,190.81326 357.712029,193.568551 C359.983488,195.386736 371.335691,193.12037 370.882418,190.390545 M598.4103,368.195882 C600.233579,366.83097 597.508847,359.563319 595.914751,360.699049 C594.330841,361.834778 594.330841,349.341753 595.466571,343.668198 C596.597207,337.989551 595.914751,338.672007 592.965929,341.625922 C590.012013,344.579838 586.834008,335.947275 586.151551,333.675815 C585.469095,331.409449 582.061906,325.048345 578.201444,325.954892 C574.346076,326.866531 576.841625,320.505427 573.210346,321.187883 C569.573974,321.87034 568.896611,315.962509 569.573974,310.513044 C570.256431,305.063579 567.078425,309.382407 565.484329,307.110948 C563.900419,304.839489 562.082233,306.657675 559.581591,307.559129 C557.086042,308.475861 556.403586,302.797213 557.086042,300.520661 C557.768498,298.254295 556.632769,295.52447 553.22558,293.02892 C549.818391,290.533371 549.589208,288.486002 549.818391,285.532087 C550.047575,282.583264 530.516082,272.590881 526.202347,271.684335 C521.888612,270.777788 525.524984,266.23487 523.701705,264.645867 C521.888612,263.056865 521.206155,257.154127 521.206155,252.157935 C521.206155,247.161744 514.850144,245.567648 515.079327,241.488189 C515.303418,237.393451 513.261141,233.532989 513.714415,228.995164 C514.167688,224.452246 507.124128,223.316516 506.900037,220.820967 C506.68104,218.320325 502.815485,220.591784 498.955023,221.05015 C495.094562,221.49833 495.323745,216.048866 495.777018,210.828584 C496.230291,205.603209 494.182922,196.975739 491.004917,194.48019 C487.826911,191.984641 487.597728,183.352078 486.013818,181.987165 C484.419722,180.627345 479.199441,186.535176 479.423531,189.483999 C479.652714,192.437914 478.975351,195.845103 476.933075,197.658196 C474.880613,199.476381 478.292894,206.514849 475.563069,209.015491 C472.838337,211.51104 475.338979,221.49833 474.656523,227.176978 C473.979159,232.850533 474.203249,238.982454 471.478517,242.842916 C468.753785,246.703378 468.300511,252.840392 462.845954,254.882668 C457.401582,256.924944 450.133931,252.611209 450.358022,249.657293 C450.587205,246.703378 444.455284,244.890285 441.277278,245.343558 C438.099273,245.796831 436.281087,241.259006 431.284895,237.393451 C426.283611,233.532989 422.428242,238.305091 420.839239,233.762172 C419.245143,229.224347 417.661234,228.546984 414.024862,226.041249 C410.398676,223.545699 411.529313,223.545699 414.936501,221.05015 C418.34369,218.554601 417.661234,215.371502 415.843048,212.417587 C414.024862,209.463671 417.885324,210.146128 422.428242,207.645486 C426.97116,205.155029 422.428242,202.201114 425.835431,200.836201 C429.237526,199.476381 427.200343,196.522466 423.563971,195.845103 C419.9276,195.162646 421.068422,199.476381 419.70351,199.924562 C418.34369,200.382928 416.978777,194.251007 415.843048,194.48019 C414.707318,194.70428 410.398676,200.607018 408.127217,197.658196 C405.855758,194.70428 393.133549,192.208731 388.137358,191.526275 C383.14626,190.843818 381.557257,184.487807 378.603341,185.623537 C375.654519,186.764359 379.056615,188.801542 382.463803,192.437914 C385.870992,196.069193 371.106508,198.564742 366.797865,197.204922 C362.48413,195.845103 367.475229,200.382928 363.849043,200.153745 C360.212671,199.924562 359.530215,206.285666 356.581392,209.463671 C353.627477,212.64677 355.669753,214.918229 352.486655,216.955412 C349.308649,219.002781 349.084559,221.27424 352.945021,225.593068 C356.805483,229.90171 351.126835,230.130894 347.719646,226.723705 C344.31755,223.316516 340.910362,223.316516 341.139545,227.176978 C341.358542,231.03744 337.0499,229.224347 337.732356,224.910612 C338.40972,220.591784 332.960255,222.63406 332.053708,220.138511 C331.142069,217.637868 326.375061,213.553316 323.421145,213.777407 C320.477416,214.00659 320.477416,217.189688 317.5235,217.189688 C314.569585,217.189688 313.887129,218.778691 314.340402,221.956696 C314.798768,225.134702 309.802576,221.732606 306.390295,222.18588 C302.988199,222.63406 306.390295,226.494522 304.577202,226.723705 C302.759016,226.947795 302.759016,230.130894 299.805101,230.130894 C296.851185,230.130894 297.309551,236.710995 297.767918,240.123276 C298.216098,243.525372 293.219906,238.534274 290.271084,239.44082 C287.317168,240.347367 290.95354,243.301282 291.860087,247.161744 C292.766633,251.022206 290.271084,250.798116 288.682081,252.382025 C287.093078,253.976121 284.592436,248.06829 284.592436,244.666195 C284.592436,241.259006 280.731974,244.437012 276.642329,248.745654 C272.56287,253.064482 278.012335,259.649676 276.194149,260.785406 C274.375963,261.916042 266.201766,269.642059 261.429665,275.315614 C256.667749,280.989169 246.446183,277.592166 243.268178,280.316898 C240.090172,283.041631 236.682984,280.989169 233.499885,283.494904 C230.321879,285.990453 224.419142,290.757461 223.741778,287.803546 C223.059322,284.84963 214.880032,287.131276 211.477936,290.757461 C208.070747,294.393833 202.61619,297.566746 198.755728,297.801022 C194.900359,298.025112 194.900359,303.92785 193.311356,305.292762 C191.722353,306.657675 192.175627,300.520661 192.175627,298.936751 C192.175627,297.342656 188.539255,301.661484 186.950252,306.433585 C185.361249,311.1955 190.810714,313.013686 187.408618,318.009878 C183.996337,323.006069 180.818331,327.997168 185.595525,334.358272 C190.357441,340.719376 193.07708,344.803928 191.49317,347.981933 C189.899075,351.159939 186.496979,341.625922 185.361249,342.761652 C184.22552,343.897381 189.674984,347.981933 188.315165,350.024209 C186.950252,352.071578 182.061013,342.303286 181.047514,344.579838 C180.135875,346.622114 191.263987,362.058868 191.49317,367.737516 C191.722353,373.416164 200.573914,378.865629 200.125734,387.044919 C199.667367,395.214023 207.846657,408.389504 209.206477,410.43178 C210.566297,412.474056 206.023378,417.918428 206.929925,424.050349 C207.846657,430.18227 204.892742,432.453729 201.03228,432.453729 C197.171818,432.453729 199.443277,438.819926 203.751919,439.268106 C208.070747,439.72138 206.481745,442.680388 211.248753,445.858394 C216.015761,449.036399 227.367964,447.895577 231.233519,447.895577 C235.088888,447.895577 236.22971,441.992839 241.449992,441.768749 C246.675366,441.539565 246.217,439.94547 248.712549,436.767464 C251.213192,433.589459 263.02376,434.501098 275.058419,435.183554 C287.093078,435.866011 292.318453,432.229639 294.131546,427.228354 C295.684898,422.965549 304.348019,422.690529 307.755207,419.512524 C311.162396,416.334518 314.116312,416.110428 322.967872,416.558608 C331.824525,417.011881 339.998722,412.244873 345.67737,409.978507 C351.350925,407.701955 361.801674,408.613594 367.251139,407.248682 C372.700603,405.883769 373.60715,414.057966 379.739071,413.380603 C385.870992,412.698146 388.595724,415.198788 391.77373,414.969605 C394.951735,414.745515 394.498462,417.235972 397.676468,417.918428 C400.854473,418.605977 400.4012,421.330709 398.364017,424.279532 C396.316648,427.228354 403.125932,427.004264 407.44476,432.912095 C411.758496,438.819926 407.668851,439.72138 409.94031,444.264298 C412.211769,448.807216 413.800772,447.666393 418.34369,441.310382 C422.881515,434.954371 427.877707,439.044016 428.560163,433.589459 C429.237526,428.139994 434.014721,421.783983 437.192726,424.508715 C440.370732,427.228354 434.921267,428.593267 432.873898,439.044016 C430.831622,449.484579 427.200343,444.035115 426.517887,446.983937 C425.835431,449.937853 436.051904,451.531948 436.051904,446.082484 C436.051904,440.627926 437.875182,438.132377 441.735644,443.123475 C445.591013,448.12476 439.459092,452.214405 440.370732,454.480771 C441.277278,456.75223 445.591013,453.798314 447.867565,454.027498 C451.906281,454.429841 457.401582,463.337424 456.489943,468.109525 C455.583396,472.871441 454.223576,477.414359 461.939407,481.279914 C469.660331,485.135283 466.711509,485.817739 472.385063,485.817739 C478.058618,485.817739 489.87428,490.360657 493.052286,493.08539 C496.230291,495.805029 504.404488,491.043114 505.993491,485.588556 C507.582494,480.144184 513.485232,485.364466 510.307226,487.182652 C507.124128,488.995745 511.901322,493.314573 512.125412,490.360657 C512.349502,487.406742 513.714415,484.911193 514.850144,488.318381 C515.985874,491.720477 520.075519,491.720477 521.664522,494.450302 C523.253524,497.175035 525.07171,499.217311 525.07171,496.945852 C525.07171,494.679486 525.978257,492.627024 529.609536,491.267204 C533.240814,489.907384 535.517366,487.406742 539.372735,484.228736 C543.233197,481.050731 559.128318,480.368275 560.722414,480.368275 C562.306324,480.368275 563.217963,466.744613 564.12451,459.701052 C565.036149,452.662585 570.938887,451.531948 571.84034,444.035115 C572.757073,436.543374 580.702087,422.690529 582.744363,422.013166 C584.791732,421.330709 588.652194,419.288433 588.876284,414.969605 C589.105467,410.65587 594.330841,405.883769 594.330841,400.66858 C594.330841,395.443206 597.279664,389.311285 596.826391,387.727375 C596.373117,386.133279 594.549838,381.137088 597.96212,377.505809 C601.364216,373.869437 596.597207,369.555702 598.4103,368.195882" id="Fill-21" fill="#8562b5"></path>
                <path d="M524.613344,522.374989 C518.486516,523.062538 509.283542,516.793108 507.124128,517.383891 C504.628578,518.066347 515.079327,533.727192 511.901322,537.816837 C508.723316,541.906482 521.206155,553.034594 525.524984,553.711958 C529.833626,554.394414 528.244623,549.403315 531.198538,549.627406 C534.152454,549.851496 533.016724,546.67349 533.469997,544.402031 C533.923271,542.135665 536.877186,546.89758 539.372735,545.542854 C541.873378,544.177941 538.695372,534.409648 542.331744,534.409648 C545.95793,534.409648 543.009107,522.609265 541.873378,518.748803 C540.737648,514.878156 530.750358,521.692533 524.613344,522.374989 L524.613344,522.374989 Z M421.980062,459.247779 C424.475611,461.519238 432.873898,460.836782 434.238811,457.658776 C435.59863,454.480771 419.734067,457.215689 421.980062,459.247779 L421.980062,459.247779 Z M370.882418,190.390545 C370.429144,187.665813 354.26919,190.81326 357.712029,193.568551 C359.983488,195.386736 371.335691,193.12037 370.882418,190.390545 L370.882418,190.390545 Z M598.4103,368.195882 C600.233579,366.83097 597.508847,359.563319 595.914751,360.699049 C594.330841,361.834778 594.330841,349.341753 595.466571,343.668198 C596.597207,337.989551 595.914751,338.672007 592.965929,341.625922 C590.012013,344.579838 586.834008,335.947275 586.151551,333.675815 C585.469095,331.409449 582.061906,325.048345 578.201444,325.954892 C574.346076,326.866531 576.841625,320.505427 573.210346,321.187883 C569.573974,321.87034 568.896611,315.962509 569.573974,310.513044 C570.256431,305.063579 567.078425,309.382407 565.484329,307.110948 C563.900419,304.839489 562.082233,306.657675 559.581591,307.559129 C557.086042,308.475861 556.403586,302.797213 557.086042,300.520661 C557.768498,298.254295 556.632769,295.52447 553.22558,293.02892 C549.818391,290.533371 549.589208,288.486002 549.818391,285.532087 C550.047575,282.583264 530.516082,272.590881 526.202347,271.684335 C521.888612,270.777788 525.524984,266.23487 523.701705,264.645867 C521.888612,263.056865 521.206155,257.154127 521.206155,252.157935 C521.206155,247.161744 514.850144,245.567648 515.079327,241.488189 C515.303418,237.393451 513.261141,233.532989 513.714415,228.995164 C514.167688,224.452246 507.124128,223.316516 506.900037,220.820967 C506.68104,218.320325 502.815485,220.591784 498.955023,221.05015 C495.094562,221.49833 495.323745,216.048866 495.777018,210.828584 C496.230291,205.603209 494.182922,196.975739 491.004917,194.48019 C487.826911,191.984641 487.597728,183.352078 486.013818,181.987165 C484.419722,180.627345 479.199441,186.535176 479.423531,189.483999 C479.652714,192.437914 478.975351,195.845103 476.933075,197.658196 C474.880613,199.476381 478.292894,206.514849 475.563069,209.015491 C472.838337,211.51104 475.338979,221.49833 474.656523,227.176978 C473.979159,232.850533 474.203249,238.982454 471.478517,242.842916 C468.753785,246.703378 468.300511,252.840392 462.845954,254.882668 C457.401582,256.924944 450.133931,252.611209 450.358022,249.657293 C450.587205,246.703378 444.455284,244.890285 441.277278,245.343558 C438.099273,245.796831 436.281087,241.259006 431.284895,237.393451 C426.283611,233.532989 422.428242,238.305091 420.839239,233.762172 C419.245143,229.224347 417.661234,228.546984 414.024862,226.041249 C410.398676,223.545699 411.529313,223.545699 414.936501,221.05015 C418.34369,218.554601 417.661234,215.371502 415.843048,212.417587 C414.024862,209.463671 417.885324,210.146128 422.428242,207.645486 C426.97116,205.155029 422.428242,202.201114 425.835431,200.836201 C429.237526,199.476381 427.200343,196.522466 423.563971,195.845103 C419.9276,195.162646 421.068422,199.476381 419.70351,199.924562 C418.34369,200.382928 416.978777,194.251007 415.843048,194.48019 C414.707318,194.70428 410.398676,200.607018 408.127217,197.658196 C405.855758,194.70428 393.133549,192.208731 388.137358,191.526275 C383.14626,190.843818 381.557257,184.487807 378.603341,185.623537 C375.654519,186.764359 379.056615,188.801542 382.463803,192.437914 C385.870992,196.069193 371.106508,198.564742 366.797865,197.204922 C362.48413,195.845103 367.475229,200.382928 363.849043,200.153745 C360.212671,199.924562 359.530215,206.285666 356.581392,209.463671 C353.627477,212.64677 355.669753,214.918229 352.486655,216.955412 C349.308649,219.002781 349.084559,221.27424 352.945021,225.593068 C356.805483,229.90171 351.126835,230.130894 347.719646,226.723705 C344.31755,223.316516 340.910362,223.316516 341.139545,227.176978 C341.358542,231.03744 337.0499,229.224347 337.732356,224.910612 C338.40972,220.591784 332.960255,222.63406 332.053708,220.138511 C331.142069,217.637868 326.375061,213.553316 323.421145,213.777407 C320.477416,214.00659 320.477416,217.189688 317.5235,217.189688 C314.569585,217.189688 313.887129,218.778691 314.340402,221.956696 C314.798768,225.134702 309.802576,221.732606 306.390295,222.18588 C302.988199,222.63406 306.390295,226.494522 304.577202,226.723705 C302.759016,226.947795 302.759016,230.130894 299.805101,230.130894 C296.851185,230.130894 297.309551,236.710995 297.767918,240.123276 C298.216098,243.525372 293.219906,238.534274 290.271084,239.44082 C287.317168,240.347367 290.95354,243.301282 291.860087,247.161744 C292.766633,251.022206 290.271084,250.798116 288.682081,252.382025 C287.093078,253.976121 284.592436,248.06829 284.592436,244.666195 C284.592436,241.259006 280.731974,244.437012 276.642329,248.745654 C272.56287,253.064482 278.012335,259.649676 276.194149,260.785406 C274.375963,261.916042 266.201766,269.642059 261.429665,275.315614 C256.667749,280.989169 246.446183,277.592166 243.268178,280.316898 C240.090172,283.041631 236.682984,280.989169 233.499885,283.494904 C230.321879,285.990453 224.419142,290.757461 223.741778,287.803546 C223.059322,284.84963 214.880032,287.131276 211.477936,290.757461 C208.070747,294.393833 202.61619,297.566746 198.755728,297.801022 C194.900359,298.025112 194.900359,303.92785 193.311356,305.292762 C191.722353,306.657675 192.175627,300.520661 192.175627,298.936751 C192.175627,297.342656 188.539255,301.661484 186.950252,306.433585 C185.361249,311.1955 190.810714,313.013686 187.408618,318.009878 C183.996337,323.006069 180.818331,327.997168 185.595525,334.358272 C190.357441,340.719376 193.07708,344.803928 191.49317,347.981933 C189.899075,351.159939 186.496979,341.625922 185.361249,342.761652 C184.22552,343.897381 189.674984,347.981933 188.315165,350.024209 C186.950252,352.071578 182.061013,342.303286 181.047514,344.579838 C180.135875,346.622114 191.263987,362.058868 191.49317,367.737516 C191.722353,373.416164 200.573914,378.865629 200.125734,387.044919 C199.667367,395.214023 207.846657,408.389504 209.206477,410.43178 C210.566297,412.474056 206.023378,417.918428 206.929925,424.050349 C207.846657,430.18227 204.892742,432.453729 201.03228,432.453729 C197.171818,432.453729 199.443277,438.819926 203.751919,439.268106 C208.070747,439.72138 206.481745,442.680388 211.248753,445.858394 C216.015761,449.036399 227.367964,447.895577 231.233519,447.895577 C235.088888,447.895577 236.22971,441.992839 241.449992,441.768749 C246.675366,441.539565 246.217,439.94547 248.712549,436.767464 C251.213192,433.589459 263.02376,434.501098 275.058419,435.183554 C287.093078,435.866011 292.318453,432.229639 294.131546,427.228354 C295.684898,422.965549 304.348019,422.690529 307.755207,419.512524 C311.162396,416.334518 314.116312,416.110428 322.967872,416.558608 C331.824525,417.011881 339.998722,412.244873 345.67737,409.978507 C351.350925,407.701955 361.801674,408.613594 367.251139,407.248682 C372.700603,405.883769 373.60715,414.057966 379.739071,413.380603 C385.870992,412.698146 388.595724,415.198788 391.77373,414.969605 C394.951735,414.745515 394.498462,417.235972 397.676468,417.918428 C400.854473,418.605977 400.4012,421.330709 398.364017,424.279532 C396.316648,427.228354 403.125932,427.004264 407.44476,432.912095 C411.758496,438.819926 407.668851,439.72138 409.94031,444.264298 C412.211769,448.807216 413.800772,447.666393 418.34369,441.310382 C422.881515,434.954371 427.877707,439.044016 428.560163,433.589459 C429.237526,428.139994 434.014721,421.783983 437.192726,424.508715 C440.370732,427.228354 434.921267,428.593267 432.873898,439.044016 C430.831622,449.484579 427.200343,444.035115 426.517887,446.983937 C425.835431,449.937853 436.051904,451.531948 436.051904,446.082484 C436.051904,440.627926 437.875182,438.132377 441.735644,443.123475 C445.591013,448.12476 439.459092,452.214405 440.370732,454.480771 C441.277278,456.75223 445.591013,453.798314 447.867565,454.027498 C451.906281,454.429841 457.401582,463.337424 456.489943,468.109525 C455.583396,472.871441 454.223576,477.414359 461.939407,481.279914 C469.660331,485.135283 466.711509,485.817739 472.385063,485.817739 C478.058618,485.817739 489.87428,490.360657 493.052286,493.08539 C496.230291,495.805029 504.404488,491.043114 505.993491,485.588556 C507.582494,480.144184 513.485232,485.364466 510.307226,487.182652 C507.124128,488.995745 511.901322,493.314573 512.125412,490.360657 C512.349502,487.406742 513.714415,484.911193 514.850144,488.318381 C515.985874,491.720477 520.075519,491.720477 521.664522,494.450302 C523.253524,497.175035 525.07171,499.217311 525.07171,496.945852 C525.07171,494.679486 525.978257,492.627024 529.609536,491.267204 C533.240814,489.907384 535.517366,487.406742 539.372735,484.228736 C543.233197,481.050731 559.128318,480.368275 560.722414,480.368275 C562.306324,480.368275 563.217963,466.744613 564.12451,459.701052 C565.036149,452.662585 570.938887,451.531948 571.84034,444.035115 C572.757073,436.543374 580.702087,422.690529 582.744363,422.013166 C584.791732,421.330709 588.652194,419.288433 588.876284,414.969605 C589.105467,410.65587 594.330841,405.883769 594.330841,400.66858 C594.330841,395.443206 597.279664,389.311285 596.826391,387.727375 C596.373117,386.133279 594.549838,381.137088 597.96212,377.505809 C601.364216,373.869437 596.597207,369.555702 598.4103,368.195882 L598.4103,368.195882 Z" id="Stroke-23" stroke="#FFFFFF" stroke-width="0.25"></path>
                <path d="M709.153609,285.632418 C708.527175,281.853443 742.461552,303.793905 738.82518,306.21306 C735.188808,308.642401 709.759671,289.26879 709.153609,285.632418" id="Fill-29" fill="#8562b5"></path>
                <path d="M227.142855,155.348959 C225.940917,158.078785 220.786844,158.674661 217.761627,156.55599 C214.73641,154.442413 210.982901,159.433511 212.918225,162.010548 C213.824771,163.222672 220.180782,168.066074 227.748917,164.434796 C235.327238,160.798424 240.466032,164.129218 242.284218,160.192362 C244.102404,156.260599 228.354979,152.624227 227.142855,155.348959 M242.284218,170.179652 C244.102404,172.904384 249.246291,172.904384 251.375148,174.727663 C253.493818,176.535663 261.05686,180.482705 261.05686,175.333725 C261.05686,170.179652 240.267407,167.149342 242.284218,170.179652 M219.584906,85.4124648 C225.029278,82.0816705 226.236309,75.7154734 225.630247,69.6650398 C225.029278,63.6095131 238.948331,63.3090286 241.072094,60.8847808 C243.195858,58.4707189 238.041785,54.5287696 234.110021,52.7105838 C230.173165,50.8923979 233.498866,46.9606346 230.779227,44.5363867 C228.054495,42.1223248 223.511576,35.7561278 227.453526,35.4556432 C231.385289,35.1449728 224.718607,29.7006011 228.054495,27.8875082 C228.502675,27.6430462 229.017064,27.3782124 229.572196,27.1082857 C227.58085,26.1253448 225.839058,25.4632603 224.718607,25.4632603 C219.880298,25.4632603 208.375306,24.2511364 208.976275,32.119756 C209.592523,39.9985615 202.31978,36.9631587 202.920749,41.2055924 C203.526811,45.4480262 199.28947,45.4480262 199.890439,50.8923979 C200.51178,56.3469555 196.875408,53.9176147 190.809695,56.9530175 C184.759262,59.9782343 187.178417,55.1297386 181.127983,55.1297386 C175.067363,55.1297386 174.461301,58.1651414 170.82493,59.3670794 C167.193651,60.5792033 159.931093,58.7661104 157.506845,60.5792033 C155.08769,62.3973892 151.456412,56.3469555 149.027071,56.3469555 C147.794575,56.3469555 146.725054,53.036533 145.966203,49.792319 C145.533302,49.7108317 145.130958,49.6497162 144.78973,49.680274 C140.86306,49.9909444 134.344074,60.3856709 138.128142,63.9150906 C142.67106,68.1575243 141.464029,74.8140199 143.577606,78.1448142 C145.70137,81.4756085 152.368051,82.0714846 152.368051,88.4325887 C152.368051,94.7885998 158.107814,104.780983 162.054857,102.061343 C165.98662,99.336611 169.011837,103.273467 170.223961,105.9982 C171.436085,108.722932 180.817313,103.879529 183.852715,104.485591 C186.883025,105.091653 196.25916,106.904746 196.875408,110.536025 C197.476377,114.172397 205.956151,110.23554 211.706101,108.121963 C217.461143,105.9982 214.130348,88.7381661 219.584906,85.4124648 M303.776589,163.360182 C302.839485,163.981522 301.759778,164.475539 300.450888,164.770931 C300.043451,165.891382 299.636014,167.149342 298.943372,167.694289 C298.092848,168.361466 296.636262,167.032204 295.597299,165.855731 C289.745491,168.279979 286.664251,175.282795 290.723339,177.452395 C294.63473,179.535415 300.323564,174.004463 303.577964,170.10835 C304.107631,169.471731 304.576183,168.875855 304.958155,168.371652 C305.177152,168.07626 305.548938,167.76559 305.98184,167.444734 C306.282324,167.220643 306.623552,166.996553 307.010617,166.76737 C306.053141,165.443201 304.841017,164.159776 303.776589,163.360182 M434.843854,86.6144028 C430.306029,86.9199803 429.694874,94.7885998 425.763111,94.7885998 C421.831347,94.7885998 416.37679,102.96789 409.114232,105.392138 C401.846581,107.811293 401.535911,84.5059183 398.21021,79.9579072 C394.884508,75.4200819 376.717928,71.7837101 374.904835,76.9326903 C373.081557,82.0816705 366.771382,79.3569382 366.114391,83.5942789 C365.513422,87.5311352 367.632092,86.3139183 371.563855,86.3139183 C375.500712,86.3139183 375.500712,89.3442281 377.313804,93.2759914 C379.137083,97.2230336 390.036013,94.4932083 393.667291,94.1927238 C397.303663,93.8871463 397.904632,99.0310336 392.765838,97.2230336 C387.616858,95.4048477 387.616858,99.6421885 383.980486,98.7305491 C380.349207,97.8189096 375.500712,98.12958 377.919866,100.243157 C380.349207,102.361828 384.280971,104.485591 384.280971,109.323901 C384.280971,114.172397 391.248137,113.26585 391.248137,109.323901 C391.248137,105.392138 394.884508,110.536025 401.846581,112.354211 C408.808655,114.172397 403.970345,116.897129 410.927325,117.202706 C417.884305,117.508284 433.63173,122.652171 439.687257,127.195089 C445.752969,131.732915 441.505443,134.758131 445.442299,139.005658 C449.379155,143.237906 450.586186,148.086402 445.136721,148.086402 C439.687257,148.086402 433.942401,153.535866 435.449916,156.260599 C436.957431,158.985331 454.833713,155.043382 459.065961,155.043382 C461.841623,155.043382 464.637656,159.973365 469.969983,163.548621 L469.969983,98.9291744 C456.86071,94.5186731 438.582085,86.3699408 434.843854,86.6144028 M196.564738,152.624227 C196.269346,148.992948 184.453684,152.318649 178.703735,149.904587 C172.948693,147.470154 185.059746,145.361669 188.996602,142.932328 C192.933459,140.513174 186.572355,139.601534 176.890642,142.636937 C167.193651,145.662154 155.994237,135.970255 155.693752,140.207596 C155.393268,144.45003 138.128142,138.38941 133.890801,135.369286 C129.658553,132.338977 113.305066,128.397027 109.969179,134.157162 C106.643477,139.912205 103.760863,134.747946 105.130869,140.207596 C106.042508,143.838875 109.969179,141.725298 112.693911,141.725298 C115.423736,141.725298 114.211612,146.874278 118.148469,147.470154 C122.080232,148.086402 135.108018,151.71768 136.315049,148.992948 C137.527173,146.268216 149.638226,148.992948 155.693752,153.836351 C161.749279,158.674661 175.678518,158.985331 181.127983,158.078785 C186.572355,157.167145 192.632974,161.70497 194.751645,158.674661 C196.875408,155.65963 200.802078,163.523156 206.867791,158.985331 C212.918225,154.442413 196.875408,156.260599 196.564738,152.624227 M356.122008,100.548735 C348.253388,98.12958 334.813073,100.192228 336.137242,104.180014 C337.354459,107.811293 343.71047,106.303777 350.071574,106.303777 C356.427585,106.303777 359.753286,110.846695 363.089174,110.846695 C366.419968,110.846695 364.000813,102.96789 356.122008,100.548735 M291.339586,155.955021 C283.160296,154.753083 277.710832,160.798424 269.531542,157.773207 C261.362438,154.753083 249.12406,157.82923 250.458415,160.497939 C251.670539,162.917094 258.933097,163.222672 267.112387,163.523156 C275.281491,163.823641 282.554234,159.285815 287.998606,158.985331 C293.453164,158.674661 299.513783,157.167145 291.339586,155.955021 M315.251023,104.780983 C316.463146,109.629478 325.243405,112.354211 327.667653,108.121963 C330.086808,103.879529 313.850459,99.1685434 315.251023,104.780983 M340.084284,66.9454004 C346.74078,67.5514623 343.71047,63.6095131 343.71047,59.3670794 C343.71047,55.1297386 337.660036,58.7661104 337.660036,56.6423471 C337.660036,54.5287696 335.541366,46.0489952 330.69287,52.7105838 C325.849467,59.3670794 332.261501,75.8275185 336.137242,75.1145044 C339.478222,74.5135354 333.417602,66.3393384 340.084284,66.9454004 M108.767241,115.384521 C108.461663,111.14718 110.279849,106.904746 110.279849,104.780983 C110.279849,102.667405 111.792458,101.765952 114.512097,102.361828 C117.241922,102.96789 116.941438,96.6067857 114.817674,96.0058167 C112.693911,95.4048477 111.491973,87.8316197 106.332807,87.8316197 C101.199106,87.8316197 102.100559,92.0638675 105.130869,92.3745379 C108.166272,92.6750224 109.969179,95.0992703 109.062632,97.2230336 C108.156086,99.341704 106.949055,95.0992703 102.706621,95.4048477 C98.4641874,95.7053322 101.199106,90.2507746 96.345517,89.9502901 C91.5072072,89.6498056 92.4188466,80.8695466 87.2596805,80.8695466 C82.1157933,80.8695466 81.8153088,76.6271129 85.1461031,73.601896 C88.4718045,70.5715862 79.9971229,67.8468539 79.9971229,64.2104821 C79.9971229,60.5792033 74.5476583,62.7080596 74.5476583,59.6726569 C74.5476583,56.6423471 72.1335963,58.1651414 69.3986781,54.5287696 C66.6790387,50.8923979 65.4669148,54.2231922 63.0426669,51.4984598 C60.628605,48.7737275 57.2876248,47.2611191 55.1740474,48.1676655 C53.055377,49.0843979 48.2068813,44.2359022 46.3937884,39.3823136 C44.9524814,35.5320376 30.9570338,29.0945391 29.1337549,23.945559 C27.320662,18.8016717 22.4772593,16.6728154 14.3030623,16.9834859 C6.12886523,17.2890633 2.89993008,8.97735644 0.974792094,13.0466296 C-1.44436279,18.1956098 9.75505108,29.7006011 14.9040313,32.7309109 C20.0479185,35.7612207 22.7726508,46.6499642 28.8281775,47.2611191 C34.8887971,47.867181 35.4897661,66.9454004 40.0326843,67.8468539 C44.5705095,68.7584933 54.2725939,83.5942789 55.7750164,91.4628985 C57.2876248,99.336611 67.2800077,103.273467 70.615895,109.023416 C73.9415963,114.778459 87.2596805,122.652171 89.0829594,125.071326 C90.8960523,127.490481 92.7142382,132.945039 94.2319396,130.21012 C95.744548,127.490481 102.100559,130.21012 105.130869,130.520791 C108.166272,130.831461 109.062632,119.621861 108.767241,115.384521 M247.127621,107.510808 C251.665446,107.811293 251.064477,114.477974 250.163024,118.409737 C249.246291,122.346594 247.412827,131.697264 251.375148,130.21012 C256.213458,128.397027 259.243767,122.346594 256.519035,120.227923 C253.784117,118.109253 254.094787,104.780983 255.301818,101.455281 C256.519035,98.12958 264.693232,100.548735 261.963407,105.692622 C259.243767,110.846695 267.112387,110.23554 267.112387,115.98549 C267.112387,121.740532 271.650212,118.715315 276.493615,117.202706 C281.347204,115.690098 280.440657,112.960273 277.099677,109.323901 C273.773975,105.692622 279.523925,100.548735 274.991192,97.5235181 C270.443181,94.4932083 267.412871,89.9502901 271.650212,89.0437436 C275.892646,88.1371971 288.604668,80.8695466 287.09206,77.8392368 C285.584544,74.8140199 267.723542,78.4452987 266.200747,83.8947634 C264.693232,89.3442281 251.976117,83.2887015 253.488725,73.9023805 C255.006427,64.5211525 280.129987,62.9983582 287.397637,66.3393384 C294.665288,69.6650398 302.533907,60.8847808 305.25864,55.7358006 C307.983372,50.5919134 299.513783,56.6423471 294.354617,59.9782343 C289.215823,63.3090286 275.592161,59.6726569 268.630088,57.248409 C261.662922,54.8343471 261.963407,61.4908427 256.208365,62.3973892 C250.458415,63.3090286 251.665446,76.0261439 248.945807,77.5336593 C246.215982,79.0564537 246.215982,88.4325887 240.77161,97.2230336 C235.317052,105.9982 242.584703,107.210324 247.127621,107.510808 M18.540403,55.7358006 C17.9343411,58.7661104 21.2600424,67.5412764 24.8964142,63.9150906 C28.5327859,60.2787188 19.1311861,52.7666063 18.540403,55.7358006 M132.378192,100.243157 C132.378192,97.5235181 124.565595,98.8375012 126.928728,102.667405 C129.352975,106.599169 132.378192,102.96789 132.378192,100.243157 M33.3761886,81.781186 C32.7752196,83.2887015 36.100921,89.3442281 38.2144984,87.5311352 C40.3382617,85.7078563 35.2860478,76.9836199 33.3761886,81.781186" id="Fill-33" fill="#8562b5"></path>
                <path d="M227.142855,155.348959 C225.940917,158.078785 220.786844,158.674661 217.761627,156.55599 C214.73641,154.442413 210.982901,159.433511 212.918225,162.010548 C213.824771,163.222672 220.180782,168.066074 227.748917,164.434796 C235.327238,160.798424 240.466032,164.129218 242.284218,160.192362 C244.102404,156.260599 228.354979,152.624227 227.142855,155.348959 L227.142855,155.348959 Z M242.284218,170.179652 C244.102404,172.904384 249.246291,172.904384 251.375148,174.727663 C253.493818,176.535663 261.05686,180.482705 261.05686,175.333725 C261.05686,170.179652 240.267407,167.149342 242.284218,170.179652 L242.284218,170.179652 Z M219.584906,85.4124648 C225.029278,82.0816705 226.236309,75.7154734 225.630247,69.6650398 C225.029278,63.6095131 238.948331,63.3090286 241.072094,60.8847808 C243.195858,58.4707189 238.041785,54.5287696 234.110021,52.7105838 C230.173165,50.8923979 233.498866,46.9606346 230.779227,44.5363867 C228.054495,42.1223248 223.511576,35.7561278 227.453526,35.4556432 C231.385289,35.1449728 224.718607,29.7006011 228.054495,27.8875082 C228.502675,27.6430462 229.017064,27.3782124 229.572196,27.1082857 C227.58085,26.1253448 225.839058,25.4632603 224.718607,25.4632603 C219.880298,25.4632603 208.375306,24.2511364 208.976275,32.119756 C209.592523,39.9985615 202.31978,36.9631587 202.920749,41.2055924 C203.526811,45.4480262 199.28947,45.4480262 199.890439,50.8923979 C200.51178,56.3469555 196.875408,53.9176147 190.809695,56.9530175 C184.759262,59.9782343 187.178417,55.1297386 181.127983,55.1297386 C175.067363,55.1297386 174.461301,58.1651414 170.82493,59.3670794 C167.193651,60.5792033 159.931093,58.7661104 157.506845,60.5792033 C155.08769,62.3973892 151.456412,56.3469555 149.027071,56.3469555 C147.794575,56.3469555 146.725054,53.036533 145.966203,49.792319 C145.533302,49.7108317 145.130958,49.6497162 144.78973,49.680274 C140.86306,49.9909444 134.344074,60.3856709 138.128142,63.9150906 C142.67106,68.1575243 141.464029,74.8140199 143.577606,78.1448142 C145.70137,81.4756085 152.368051,82.0714846 152.368051,88.4325887 C152.368051,94.7885998 158.107814,104.780983 162.054857,102.061343 C165.98662,99.336611 169.011837,103.273467 170.223961,105.9982 C171.436085,108.722932 180.817313,103.879529 183.852715,104.485591 C186.883025,105.091653 196.25916,106.904746 196.875408,110.536025 C197.476377,114.172397 205.956151,110.23554 211.706101,108.121963 C217.461143,105.9982 214.130348,88.7381661 219.584906,85.4124648 L219.584906,85.4124648 Z M303.776589,163.360182 C302.839485,163.981522 301.759778,164.475539 300.450888,164.770931 C300.043451,165.891382 299.636014,167.149342 298.943372,167.694289 C298.092848,168.361466 296.636262,167.032204 295.597299,165.855731 C289.745491,168.279979 286.664251,175.282795 290.723339,177.452395 C294.63473,179.535415 300.323564,174.004463 303.577964,170.10835 C304.107631,169.471731 304.576183,168.875855 304.958155,168.371652 C305.177152,168.07626 305.548938,167.76559 305.98184,167.444734 C306.282324,167.220643 306.623552,166.996553 307.010617,166.76737 C306.053141,165.443201 304.841017,164.159776 303.776589,163.360182 L303.776589,163.360182 Z M434.843854,86.6144028 C430.306029,86.9199803 429.694874,94.7885998 425.763111,94.7885998 C421.831347,94.7885998 416.37679,102.96789 409.114232,105.392138 C401.846581,107.811293 401.535911,84.5059183 398.21021,79.9579072 C394.884508,75.4200819 376.717928,71.7837101 374.904835,76.9326903 C373.081557,82.0816705 366.771382,79.3569382 366.114391,83.5942789 C365.513422,87.5311352 367.632092,86.3139183 371.563855,86.3139183 C375.500712,86.3139183 375.500712,89.3442281 377.313804,93.2759914 C379.137083,97.2230336 390.036013,94.4932083 393.667291,94.1927238 C397.303663,93.8871463 397.904632,99.0310336 392.765838,97.2230336 C387.616858,95.4048477 387.616858,99.6421885 383.980486,98.7305491 C380.349207,97.8189096 375.500712,98.12958 377.919866,100.243157 C380.349207,102.361828 384.280971,104.485591 384.280971,109.323901 C384.280971,114.172397 391.248137,113.26585 391.248137,109.323901 C391.248137,105.392138 394.884508,110.536025 401.846581,112.354211 C408.808655,114.172397 403.970345,116.897129 410.927325,117.202706 C417.884305,117.508284 433.63173,122.652171 439.687257,127.195089 C445.752969,131.732915 441.505443,134.758131 445.442299,139.005658 C449.379155,143.237906 450.586186,148.086402 445.136721,148.086402 C439.687257,148.086402 433.942401,153.535866 435.449916,156.260599 C436.957431,158.985331 454.833713,155.043382 459.065961,155.043382 C461.841623,155.043382 464.637656,159.973365 469.969983,163.548621 L469.969983,98.9291744 C456.86071,94.5186731 438.582085,86.3699408 434.843854,86.6144028 L434.843854,86.6144028 Z M196.564738,152.624227 C196.269346,148.992948 184.453684,152.318649 178.703735,149.904587 C172.948693,147.470154 185.059746,145.361669 188.996602,142.932328 C192.933459,140.513174 186.572355,139.601534 176.890642,142.636937 C167.193651,145.662154 155.994237,135.970255 155.693752,140.207596 C155.393268,144.45003 138.128142,138.38941 133.890801,135.369286 C129.658553,132.338977 113.305066,128.397027 109.969179,134.157162 C106.643477,139.912205 103.760863,134.747946 105.130869,140.207596 C106.042508,143.838875 109.969179,141.725298 112.693911,141.725298 C115.423736,141.725298 114.211612,146.874278 118.148469,147.470154 C122.080232,148.086402 135.108018,151.71768 136.315049,148.992948 C137.527173,146.268216 149.638226,148.992948 155.693752,153.836351 C161.749279,158.674661 175.678518,158.985331 181.127983,158.078785 C186.572355,157.167145 192.632974,161.70497 194.751645,158.674661 C196.875408,155.65963 200.802078,163.523156 206.867791,158.985331 C212.918225,154.442413 196.875408,156.260599 196.564738,152.624227 L196.564738,152.624227 Z M356.122008,100.548735 C348.253388,98.12958 334.813073,100.192228 336.137242,104.180014 C337.354459,107.811293 343.71047,106.303777 350.071574,106.303777 C356.427585,106.303777 359.753286,110.846695 363.089174,110.846695 C366.419968,110.846695 364.000813,102.96789 356.122008,100.548735 L356.122008,100.548735 Z M291.339586,155.955021 C283.160296,154.753083 277.710832,160.798424 269.531542,157.773207 C261.362438,154.753083 249.12406,157.82923 250.458415,160.497939 C251.670539,162.917094 258.933097,163.222672 267.112387,163.523156 C275.281491,163.823641 282.554234,159.285815 287.998606,158.985331 C293.453164,158.674661 299.513783,157.167145 291.339586,155.955021 L291.339586,155.955021 Z M315.251023,104.780983 C316.463146,109.629478 325.243405,112.354211 327.667653,108.121963 C330.086808,103.879529 313.850459,99.1685434 315.251023,104.780983 L315.251023,104.780983 Z M340.084284,66.9454004 C346.74078,67.5514623 343.71047,63.6095131 343.71047,59.3670794 C343.71047,55.1297386 337.660036,58.7661104 337.660036,56.6423471 C337.660036,54.5287696 335.541366,46.0489952 330.69287,52.7105838 C325.849467,59.3670794 332.261501,75.8275185 336.137242,75.1145044 C339.478222,74.5135354 333.417602,66.3393384 340.084284,66.9454004 L340.084284,66.9454004 Z M108.767241,115.384521 C108.461663,111.14718 110.279849,106.904746 110.279849,104.780983 C110.279849,102.667405 111.792458,101.765952 114.512097,102.361828 C117.241922,102.96789 116.941438,96.6067857 114.817674,96.0058167 C112.693911,95.4048477 111.491973,87.8316197 106.332807,87.8316197 C101.199106,87.8316197 102.100559,92.0638675 105.130869,92.3745379 C108.166272,92.6750224 109.969179,95.0992703 109.062632,97.2230336 C108.156086,99.341704 106.949055,95.0992703 102.706621,95.4048477 C98.4641874,95.7053322 101.199106,90.2507746 96.345517,89.9502901 C91.5072072,89.6498056 92.4188466,80.8695466 87.2596805,80.8695466 C82.1157933,80.8695466 81.8153088,76.6271129 85.1461031,73.601896 C88.4718045,70.5715862 79.9971229,67.8468539 79.9971229,64.2104821 C79.9971229,60.5792033 74.5476583,62.7080596 74.5476583,59.6726569 C74.5476583,56.6423471 72.1335963,58.1651414 69.3986781,54.5287696 C66.6790387,50.8923979 65.4669148,54.2231922 63.0426669,51.4984598 C60.628605,48.7737275 57.2876248,47.2611191 55.1740474,48.1676655 C53.055377,49.0843979 48.2068813,44.2359022 46.3937884,39.3823136 C44.9524814,35.5320376 30.9570338,29.0945391 29.1337549,23.945559 C27.320662,18.8016717 22.4772593,16.6728154 14.3030623,16.9834859 C6.12886523,17.2890633 2.89993008,8.97735644 0.974792094,13.0466296 C-1.44436279,18.1956098 9.75505108,29.7006011 14.9040313,32.7309109 C20.0479185,35.7612207 22.7726508,46.6499642 28.8281775,47.2611191 C34.8887971,47.867181 35.4897661,66.9454004 40.0326843,67.8468539 C44.5705095,68.7584933 54.2725939,83.5942789 55.7750164,91.4628985 C57.2876248,99.336611 67.2800077,103.273467 70.615895,109.023416 C73.9415963,114.778459 87.2596805,122.652171 89.0829594,125.071326 C90.8960523,127.490481 92.7142382,132.945039 94.2319396,130.21012 C95.744548,127.490481 102.100559,130.21012 105.130869,130.520791 C108.166272,130.831461 109.062632,119.621861 108.767241,115.384521 L108.767241,115.384521 Z M247.127621,107.510808 C251.665446,107.811293 251.064477,114.477974 250.163024,118.409737 C249.246291,122.346594 247.412827,131.697264 251.375148,130.21012 C256.213458,128.397027 259.243767,122.346594 256.519035,120.227923 C253.784117,118.109253 254.094787,104.780983 255.301818,101.455281 C256.519035,98.12958 264.693232,100.548735 261.963407,105.692622 C259.243767,110.846695 267.112387,110.23554 267.112387,115.98549 C267.112387,121.740532 271.650212,118.715315 276.493615,117.202706 C281.347204,115.690098 280.440657,112.960273 277.099677,109.323901 C273.773975,105.692622 279.523925,100.548735 274.991192,97.5235181 C270.443181,94.4932083 267.412871,89.9502901 271.650212,89.0437436 C275.892646,88.1371971 288.604668,80.8695466 287.09206,77.8392368 C285.584544,74.8140199 267.723542,78.4452987 266.200747,83.8947634 C264.693232,89.3442281 251.976117,83.2887015 253.488725,73.9023805 C255.006427,64.5211525 280.129987,62.9983582 287.397637,66.3393384 C294.665288,69.6650398 302.533907,60.8847808 305.25864,55.7358006 C307.983372,50.5919134 299.513783,56.6423471 294.354617,59.9782343 C289.215823,63.3090286 275.592161,59.6726569 268.630088,57.248409 C261.662922,54.8343471 261.963407,61.4908427 256.208365,62.3973892 C250.458415,63.3090286 251.665446,76.0261439 248.945807,77.5336593 C246.215982,79.0564537 246.215982,88.4325887 240.77161,97.2230336 C235.317052,105.9982 242.584703,107.210324 247.127621,107.510808 L247.127621,107.510808 Z M18.540403,55.7358006 C17.9343411,58.7661104 21.2600424,67.5412764 24.8964142,63.9150906 C28.5327859,60.2787188 19.1311861,52.7666063 18.540403,55.7358006 L18.540403,55.7358006 Z M132.378192,100.243157 C132.378192,97.5235181 124.565595,98.8375012 126.928728,102.667405 C129.352975,106.599169 132.378192,102.96789 132.378192,100.243157 L132.378192,100.243157 Z M33.3761886,81.781186 C32.7752196,83.2887015 36.100921,89.3442281 38.2144984,87.5311352 C40.3382617,85.7078563 35.2860478,76.9836199 33.3761886,81.781186 L33.3761886,81.781186 Z" id="Stroke-35" stroke="#FFFFFF" stroke-width="0.25"></path>
                <path d="M313.429781,157.169182 C309.340136,156.960371 307.700204,160.331909 304.659708,162.740878 C304.379595,162.959875 304.079111,163.1585 303.778626,163.362219 C304.837961,164.15672 306.055178,165.445238 307.007561,166.769407 C312.869556,163.285824 327.797014,158.951717 328.58133,156.858512 C329.482783,154.44445 319.490401,157.464574 313.429781,157.169182 M298.89448,165.037802 C297.728192,165.129475 296.617928,165.42996 295.599336,165.852675 C296.633207,167.029148 298.089792,168.35841 298.940316,167.691233 C299.638052,167.151379 300.045488,165.893419 300.447832,164.767875 C300.01493,164.859548 299.571843,164.951222 299.088012,165.002151 C299.021804,165.012337 298.970874,165.032709 298.89448,165.037802" id="Fill-37" fill="#8562b5"></path>
                <path d="M313.429781,157.169182 C309.340136,156.960371 307.700204,160.331909 304.659708,162.740878 C304.379595,162.959875 304.079111,163.1585 303.778626,163.362219 C304.837961,164.15672 306.055178,165.445238 307.007561,166.769407 C312.869556,163.285824 327.797014,158.951717 328.58133,156.858512 C329.482783,154.44445 319.490401,157.464574 313.429781,157.169182 L313.429781,157.169182 Z M298.89448,165.037802 C297.728192,165.129475 296.617928,165.42996 295.599336,165.852675 C296.633207,167.029148 298.089792,168.35841 298.940316,167.691233 C299.638052,167.151379 300.045488,165.893419 300.447832,164.767875 C300.01493,164.859548 299.571843,164.951222 299.088012,165.002151 C299.021804,165.012337 298.970874,165.032709 298.89448,165.037802 L298.89448,165.037802 Z" id="Stroke-39" stroke="#FFFFFF" stroke-width="0.25"></path>
            </g>
        </g>
    </g>
</svg>
