<?xml version="1.0" encoding="utf-8"?>
<!-- Generator: Adobe Illustrator 19.0.1, SVG Export Plug-In . SVG Version: 6.00 Build 0)  -->
<!DOCTYPE svg PUBLIC "-//W3C//DTD SVG 1.1//EN" "http://www.w3.org/Graphics/SVG/1.1/DTD/svg11.dtd">
<svg version="1.1" id="Layer_1" xmlns="http://www.w3.org/2000/svg" xmlns:xlink="http://www.w3.org/1999/xlink" x="0px" y="0px"
	 viewBox="0 0 132.804 42.535" enable-background="new 0 0 132.804 42.535" xml:space="preserve">
<g>
	<path fill="#ED1C24" d="M61.238,24.266c-1.585,0-2.869-1.259-2.869-2.812c0-1.552,1.284-2.811,2.869-2.811
		c1.584,0,2.869,1.259,2.869,2.811C64.107,23.007,62.822,24.266,61.238,24.266 M61.224,15.288c-3.464,0-6.273,2.752-6.273,6.147
		c0,3.395,2.809,6.147,6.273,6.147c3.464,0,6.272-2.752,6.272-6.147C67.496,18.04,64.688,15.288,61.224,15.288"/>
	<path fill="#ED1C24" d="M73.162,18.974c0-0.002-0.001-0.003-0.001-0.005c-0.015,0.008-0.029,0.017-0.044,0.025L73.162,18.974z"/>
	<polygon fill="#ED1C24" points="71.86,15.751 71.865,15.75 71.864,15.749 	"/>
	<path fill="#ED1C24" d="M76.53,18.457c0-0.536,0.039-1.045,0.112-1.527c0.023-0.154,0.052-0.304,0.082-0.453
		c-1.937-1.547-3.178-1.188-4.859-0.728c0.582,0.993,1.023,2.075,1.296,3.22c0.597-0.341,1.027-0.293,3.369,1.561v-0.564V18.457z"/>
	<path fill="#ED1C24" d="M76.53,22.704v-0.287c-0.834-0.904-1.84-1.09-3.073-1.328c0.044,1.135-0.08,2.286-0.384,3.42
		c0.709-0.039,1.069,0.2,2.328,3.025c0.264,0.592,0.662,1.04,1.129,1.382v-1.851V22.704z"/>
	<polygon fill="#ED1C24" points="73.452,21.088 73.457,21.089 73.457,21.088 	"/>
	<path fill="#ED1C24" d="M73.071,24.514c0-0.001,0.001-0.003,0.001-0.004c-0.017,0.001-0.034,0.002-0.051,0.003L73.071,24.514z"/>
	<path fill="#ED1C24" d="M46.251,21.293c0,0.906-0.093,1.765-0.273,2.583c-0.001,0.001-0.001,0.001-0.001,0.002
		c1.099,0.839,2.169,0.79,3.503,0.74c-0.32-1.095-0.482-2.244-0.465-3.417c-0.678,0.199-1.086,0.047-3-2.419
		c-0.015-0.019-0.032-0.037-0.047-0.056c0.083,0.368,0.148,0.742,0.194,1.125C46.219,20.32,46.251,20.8,46.251,21.293"/>
	<polygon fill="#ED1C24" points="49.485,24.618 49.48,24.618 49.48,24.619 	"/>
	<path fill="#ED1C24" d="M49.015,21.197v0.004c0.016-0.005,0.032-0.009,0.048-0.014L49.015,21.197z"/>
	<polygon fill="#ED1C24" points="62.305,9.805 62.307,9.8 62.306,9.8 	"/>
	<path fill="#ED1C24" d="M65.796,10.628c0.045-0.68,0.336-0.991,3.407-1.807c3.182-0.847,3.176-5.243,3.251-5.558
		c0.086-0.356-0.179-0.563-0.352-0.102c-0.161,0.426-2.329,2.458-5.535,3.026C63.334,6.759,62.92,8.028,62.306,9.8
		C63.485,9.912,64.66,10.185,65.796,10.628"/>
	<path fill="#ED1C24" d="M65.801,10.63c-0.002-0.001-0.003-0.001-0.005-0.002c-0.001,0.016-0.002,0.033-0.003,0.049L65.801,10.63z"
		/>
	<path fill="#ED1C24" d="M67.799,11.625c0.997,0.62,1.912,1.381,2.711,2.275c0.367-0.581,0.775-0.727,3.904-0.092
		c3.241,0.659,5.347-3.232,5.565-3.476c0.247-0.277,0.111-0.577-0.265-0.246c-0.348,0.305-3.255,1.144-6.384,0.228
		C70.175,9.391,69.197,10.33,67.799,11.625"/>
	<polygon fill="#ED1C24" points="67.796,11.629 67.799,11.625 67.798,11.625 	"/>
	<path fill="#ED1C24" d="M70.514,13.904c-0.001-0.001-0.002-0.002-0.003-0.003c-0.008,0.014-0.017,0.027-0.026,0.042L70.514,13.904z
		"/>
	<path fill="#ED1C24" d="M75.356,37.814c-0.36-0.297-1.593-2.974-1.04-6.056c0.559-3.109-0.536-3.936-2.053-5.123
		c-0.516,1.018-1.188,1.974-2.012,2.835c0.648,0.285,0.85,0.658,0.585,3.71c-0.273,3.16,4.018,4.734,4.299,4.914
		C75.453,38.298,75.746,38.136,75.356,37.814"/>
	<path fill="#ED1C24" d="M70.247,29.474c0.001-0.001,0.002-0.002,0.003-0.003c-0.015-0.007-0.031-0.014-0.047-0.021L70.247,29.474z"
		/>
	<polygon fill="#ED1C24" points="72.259,26.631 72.263,26.634 72.264,26.633 	"/>
	<polygon fill="#ED1C24" points="68.577,30.911 68.579,30.915 68.58,30.915 	"/>
	<path fill="#ED1C24" d="M65.418,32.533c0.001-0.001,0.003-0.001,0.004-0.001c-0.01-0.013-0.021-0.026-0.032-0.039L65.418,32.533z"
		/>
	<path fill="#ED1C24" d="M65.422,32.531c0.441,0.538,0.442,0.957-1.261,3.537c-1.763,2.673,1.302,5.963,1.465,6.246
		c0.184,0.322,0.524,0.308,0.331-0.148c-0.177-0.422,0.011-3.335,1.987-5.814c1.992-2.501,1.414-3.717,0.635-5.437
		C67.63,31.587,66.57,32.135,65.422,32.531"/>
	<path fill="#ED1C24" d="M59.649,33.099c0.133,0.671-0.067,1.042-2.824,2.568c-2.856,1.582-1.709,5.846-1.7,6.169
		c0.009,0.366,0.319,0.504,0.367,0.015c0.044-0.452,1.613-2.942,4.564-4.258c2.977-1.328,3.048-2.658,3.182-4.524
		C62.07,33.243,60.862,33.258,59.649,33.099"/>
	<path fill="#ED1C24" d="M59.644,33.099c0.002,0,0.003,0,0.005,0.001c-0.003-0.016-0.006-0.032-0.01-0.048L59.644,33.099z"/>
	<polygon fill="#ED1C24" points="63.238,33.064 63.238,33.069 63.239,33.069 	"/>
	<polygon fill="#ED1C24" points="57.395,32.587 57.392,32.591 57.393,32.591 	"/>
	<path fill="#ED1C24" d="M54.186,31.012c0.001,0.001,0.003,0.002,0.004,0.003c0.005-0.016,0.01-0.031,0.015-0.047L54.186,31.012z"/>
	<path fill="#ED1C24" d="M57.393,32.591c-1.122-0.369-2.202-0.894-3.203-1.576c-0.207,0.651-0.566,0.889-3.755,1.003
		c-3.305,0.119-4.355,4.391-4.504,4.679c-0.168,0.327,0.04,0.587,0.32,0.177c0.258-0.378,2.86-1.873,6.121-1.715
		C55.661,35.317,56.369,34.177,57.393,32.591"/>
	<path fill="#ED1C24" d="M43.716,28.38c0.931,0.204,1.962,0.555,2.965,1.129c2.837,1.622,4.024,0.938,5.707,0.006
		c-0.813-0.83-1.513-1.779-2.066-2.83c-0.502,0.48-0.936,0.526-3.819-0.812c-0.352-0.163-0.706-0.26-1.055-0.306
		c-0.135,0.327-0.283,0.643-0.444,0.947C44.642,27.197,44.211,27.817,43.716,28.38"/>
	<polygon fill="#ED1C24" points="52.393,29.513 52.389,29.515 52.39,29.516 	"/>
	<path fill="#ED1C24" d="M50.32,26.681c0.001,0.001,0.001,0.003,0.002,0.004c0.012-0.011,0.024-0.023,0.036-0.035L50.32,26.681z"/>
	<path fill="#ED1C24" d="M50.511,15.78c-0.001,0.001-0.001,0.003-0.002,0.004c0.017,0.003,0.033,0.006,0.05,0.009L50.511,15.78z"/>
	<path fill="#ED1C24" d="M43.476,8.844c0.423,0.206,2.288,2.526,2.521,5.651c0.236,3.152,1.504,3.704,3.27,4.51
		c0.245-1.109,0.658-2.195,1.242-3.222c-0.7-0.127-0.988-0.443-1.495-3.471c-0.525-3.137-5.077-3.68-5.393-3.791
		C43.261,8.395,43.018,8.621,43.476,8.844"/>
	<polygon fill="#ED1C24" points="49.272,19.008 49.268,19.006 49.267,19.007 	"/>
	<polygon fill="#ED1C24" points="51.745,14.028 51.742,14.024 51.741,14.025 	"/>
	<path fill="#ED1C24" d="M54.389,11.718c-0.563-0.421-0.67-0.828,0.325-3.732c1.031-3.008-2.77-5.491-3-5.728
		c-0.26-0.27-0.585-0.177-0.283,0.222c0.279,0.369,0.834,3.243-0.451,6.112c-1.295,2.895-0.429,3.942,0.762,5.432
		C52.491,13.15,53.377,12.371,54.389,11.718"/>
	<path fill="#ED1C24" d="M54.393,11.715c-0.001,0.001-0.003,0.002-0.004,0.003c0.013,0.01,0.027,0.02,0.04,0.03L54.393,11.715z"/>
	<path fill="#ED1C24" d="M59.925,9.81c-0.002,0-0.003,0-0.005,0c0.007,0.015,0.014,0.03,0.021,0.045L59.925,9.81z"/>
	<path fill="#ED1C24" d="M59.92,9.811c-0.295-0.623-0.191-1.029,2.107-3.14c2.381-2.186,0.219-6.077,0.131-6.389
		c-0.099-0.355-0.434-0.419-0.36,0.068c0.068,0.45-0.841,3.229-3.379,5.179c-2.561,1.968-2.302,3.278-1.972,5.125
		C57.537,10.22,58.704,9.932,59.92,9.811"/>
	<polygon fill="#ED1C24" points="56.448,10.658 56.447,10.653 56.446,10.654 	"/>
	<path fill="#FCC90A" d="M61.237,18.705c-1.549,0-2.804,1.23-2.804,2.748s1.255,2.749,2.804,2.749c1.549,0,2.805-1.231,2.805-2.749
		S62.786,18.705,61.237,18.705"/>
	<path fill="#FFFFFF" d="M16.522,23.861c-0.302,0.775-0.723,1.457-1.261,2.048c-0.538,0.591-1.188,1.05-1.949,1.378
		c-0.762,0.329-1.589,0.493-2.481,0.493c-0.92,0-1.752-0.164-2.501-0.493C7.582,26.959,6.938,26.5,6.4,25.909
		c-0.538-0.591-0.958-1.273-1.26-2.048c-0.302-0.774-0.453-1.621-0.453-2.54s0.151-1.778,0.453-2.58
		c0.302-0.8,0.722-1.49,1.26-2.067c0.538-0.577,1.182-1.031,1.93-1.359c0.749-0.328,1.581-0.492,2.501-0.492
		c0.892,0,1.719,0.164,2.481,0.492c0.761,0.328,1.411,0.782,1.949,1.359c0.538,0.577,0.959,1.267,1.261,2.067
		c0.301,0.802,0.452,1.661,0.452,2.58S16.823,23.087,16.522,23.861 M18.55,13.858c-0.972-0.932-2.121-1.66-3.446-2.186
		c-1.326-0.525-2.75-0.787-4.273-0.787c-1.523,0-2.948,0.262-4.274,0.787c-1.326,0.526-2.474,1.254-3.445,2.186
		c-0.972,0.932-1.733,2.035-2.285,3.308C0.276,18.44,0,19.824,0,21.321c0,1.471,0.276,2.842,0.827,4.116
		c0.552,1.273,1.313,2.376,2.285,3.307c0.971,0.933,2.119,1.668,3.445,2.206s2.751,0.807,4.274,0.807
		c1.523,0,2.947-0.269,4.273-0.807c1.325-0.538,2.474-1.273,3.446-2.206c0.971-0.931,1.732-2.034,2.284-3.307
		c0.551-1.274,0.827-2.645,0.827-4.116c0-1.497-0.276-2.881-0.827-4.155C20.282,15.893,19.521,14.79,18.55,13.858"/>
	<path fill="#FFFFFF" d="M41.156,23.842c-0.29,0.787-0.703,1.471-1.241,2.048s-1.182,1.031-1.93,1.358
		c-0.748,0.329-1.569,0.492-2.462,0.492c-0.919,0-1.751-0.163-2.5-0.492c-0.748-0.327-1.385-0.781-1.91-1.358
		c-0.526-0.577-0.939-1.261-1.241-2.048c-0.302-0.788-0.453-1.64-0.453-2.56c0-0.946,0.151-1.805,0.453-2.58
		c0.302-0.774,0.722-1.437,1.261-1.988c0.537-0.552,1.181-0.985,1.929-1.3c0.749-0.315,1.569-0.473,2.461-0.473
		c0.893,0,1.714,0.165,2.462,0.493c0.748,0.328,1.392,0.774,1.93,1.339s0.951,1.234,1.241,2.008
		c0.106,0.284,0.185,0.579,0.252,0.879c0.054,0.243,0.097,0.49,0.125,0.742c0.033,0.287,0.056,0.579,0.056,0.88
		C41.589,22.202,41.444,23.054,41.156,23.842 M46.147,19.879c-0.115-0.958-0.346-1.869-0.699-2.732
		c-0.525-1.287-1.254-2.389-2.186-3.309c-0.931-0.918-2.028-1.64-3.288-2.165c-1.26-0.526-2.639-0.788-4.135-0.788
		c-1.629,0-3.111,0.249-4.45,0.748c-1.339,0.499-2.481,1.228-3.427,2.186c-0.945,0.958-1.68,2.14-2.206,3.544
		c-0.525,1.405-0.787,3.026-0.787,4.864v16.856h4.49V28.725c0.656,0.841,1.561,1.55,2.717,2.127s2.481,0.866,3.978,0.866
		c1.443,0,2.776-0.256,3.997-0.768c1.222-0.511,2.285-1.226,3.19-2.146c0.008-0.007,0.015-0.016,0.022-0.023
		c0.642-0.656,1.183-1.403,1.626-2.238c0.175-0.329,0.335-0.671,0.479-1.027c0.207-0.516,0.371-1.054,0.494-1.612
		c0.181-0.817,0.274-1.677,0.274-2.583C46.236,20.828,46.204,20.349,46.147,19.879"/>
	<path fill="#FFFFFF" d="M88.94,11.574c-1.037-0.459-2.383-0.689-4.037-0.689c-2.625,0-4.68,0.663-6.163,1.988
		c-1.154,1.032-1.857,2.395-2.113,4.086c-0.073,0.482-0.112,0.99-0.112,1.527v1.508v2.739v4.361v4.503h4.49V19.785
		c0-0.442,0.03-0.851,0.087-1.233c0.018-0.119,0.038-0.235,0.061-0.348c0.449-2.2,1.934-3.302,4.459-3.302
		c0.84,0,1.589,0.092,2.245,0.275c0.656,0.185,1.208,0.381,1.654,0.591c0.158-0.104,0.361-0.367,0.611-0.787
		c0.249-0.42,0.374-0.853,0.374-1.3C90.496,12.736,89.977,12.034,88.94,11.574"/>
	<path fill="#FFFFFF" d="M103.176,27.425c-0.657,0.236-1.365,0.354-2.126,0.354c-0.473,0-0.926-0.052-1.359-0.158
		c-0.433-0.104-0.814-0.288-1.142-0.55c-0.329-0.263-0.585-0.611-0.768-1.044c-0.184-0.433-0.276-0.991-0.276-1.674v-8.782h7.562
		c0.079-0.158,0.183-0.427,0.315-0.808c0.13-0.38,0.197-0.793,0.197-1.24c0-0.683-0.178-1.202-0.532-1.556
		c-0.355-0.355-0.965-0.532-1.831-0.532h-5.711V6.276c-0.131-0.052-0.401-0.137-0.807-0.256c-0.408-0.118-0.847-0.177-1.32-0.177
		c-0.735,0-1.313,0.164-1.733,0.492c-0.42,0.329-0.63,0.86-0.63,1.595v17.329c0,1.943,0.591,3.512,1.772,4.706
		c1.182,1.195,2.928,1.792,5.238,1.792c0.814,0,1.562-0.073,2.245-0.216c0.683-0.145,1.3-0.323,1.851-0.532
		c0.552-0.21,1.018-0.433,1.398-0.67c0.381-0.236,0.676-0.433,0.887-0.59l-1.812-2.994
		C104.304,26.966,103.832,27.188,103.176,27.425"/>
	<path fill="#FFFFFF" d="M123.676,23.861c-0.303,0.775-0.723,1.457-1.261,2.048c-0.538,0.591-1.188,1.05-1.949,1.378
		c-0.762,0.329-1.589,0.493-2.482,0.493c-0.918,0-1.752-0.164-2.5-0.493c-0.748-0.328-1.392-0.787-1.93-1.378
		s-0.958-1.273-1.26-2.048c-0.302-0.774-0.453-1.621-0.453-2.54c0-0.919,0.151-1.778,0.453-2.58c0.302-0.8,0.722-1.49,1.26-2.067
		s1.182-1.031,1.93-1.359c0.748-0.328,1.582-0.492,2.5-0.492c0.893,0,1.72,0.164,2.482,0.492c0.761,0.328,1.411,0.782,1.949,1.359
		c0.538,0.577,0.958,1.267,1.261,2.067c0.301,0.802,0.453,1.661,0.453,2.58C124.129,22.24,123.977,23.087,123.676,23.861
		 M127.988,17.166c-0.552-1.273-1.313-2.376-2.284-3.308c-0.972-0.932-2.121-1.66-3.447-2.186c-1.325-0.525-2.75-0.787-4.273-0.787
		c-1.522,0-2.947,0.262-4.273,0.787c-1.326,0.526-2.474,1.254-3.446,2.186c-0.971,0.932-1.733,2.035-2.284,3.308
		c-0.551,1.274-0.826,2.659-0.826,4.155c0,1.471,0.275,2.842,0.826,4.116c0.551,1.273,1.313,2.376,2.284,3.307
		c0.972,0.933,2.12,1.668,3.446,2.206c1.326,0.538,2.751,0.807,4.273,0.807c1.523,0,2.948-0.269,4.273-0.807
		c1.326-0.538,2.475-1.273,3.447-2.206c0.971-0.931,1.732-2.034,2.284-3.307c0.552-1.274,0.827-2.645,0.827-4.116
		C128.815,19.825,128.54,18.44,127.988,17.166"/>
	<path fill="#FFFFFF" d="M129.197,29.723c0,0.232,0.042,0.449,0.127,0.654c0.084,0.204,0.199,0.381,0.345,0.532
		c0.145,0.151,0.316,0.269,0.513,0.356c0.196,0.086,0.407,0.129,0.631,0.129s0.435-0.043,0.632-0.129
		c0.196-0.087,0.367-0.205,0.512-0.356c0.146-0.151,0.26-0.328,0.345-0.532c0.085-0.205,0.127-0.422,0.127-0.654
		c0-0.232-0.042-0.45-0.127-0.654c-0.085-0.204-0.199-0.381-0.345-0.532c-0.145-0.151-0.316-0.269-0.512-0.356
		c-0.197-0.086-0.408-0.129-0.632-0.129s-0.435,0.043-0.631,0.129c-0.197,0.087-0.368,0.205-0.513,0.356
		c-0.146,0.151-0.261,0.328-0.345,0.532C129.239,29.273,129.197,29.491,129.197,29.723 M128.822,29.723
		c0-0.276,0.052-0.534,0.157-0.775c0.105-0.241,0.247-0.451,0.427-0.631c0.181-0.181,0.391-0.323,0.632-0.428
		s0.499-0.157,0.775-0.157s0.534,0.052,0.775,0.157c0.241,0.105,0.451,0.247,0.631,0.428c0.181,0.18,0.323,0.39,0.428,0.631
		s0.157,0.499,0.157,0.775c0,0.276-0.052,0.534-0.157,0.775s-0.247,0.451-0.428,0.631c-0.18,0.181-0.39,0.323-0.631,0.428
		c-0.241,0.105-0.499,0.157-0.775,0.157s-0.534-0.052-0.775-0.157s-0.451-0.247-0.632-0.428c-0.18-0.18-0.322-0.39-0.427-0.631
		C128.874,30.257,128.822,29.999,128.822,29.723"/>
	<path fill="#FFFFFF" d="M130.675,28.856c0.271,0,0.458,0.038,0.559,0.114c0.099,0.076,0.148,0.173,0.148,0.296
		c0,0.138-0.049,0.242-0.148,0.317c-0.1,0.076-0.274,0.115-0.516,0.115c-0.107,0-0.193-0.003-0.26-0.008
		c-0.056-0.005-0.103-0.01-0.139-0.016v-0.799c0.028-0.003,0.066-0.007,0.115-0.011C130.495,28.858,130.575,28.856,130.675,28.856
		 M131.858,30.841c-0.072-0.137-0.157-0.292-0.256-0.467c-0.094-0.165-0.192-0.319-0.291-0.457c0.051-0.021,0.099-0.048,0.144-0.081
		c0.054-0.039,0.102-0.086,0.145-0.139c0.042-0.053,0.077-0.116,0.103-0.187c0.026-0.07,0.039-0.152,0.039-0.244
		c0-0.132-0.026-0.246-0.078-0.339c-0.052-0.093-0.126-0.169-0.221-0.226c-0.093-0.057-0.205-0.098-0.333-0.124
		c-0.127-0.025-0.266-0.038-0.413-0.038c-0.148,0-0.267,0.002-0.357,0.008c-0.093,0.005-0.152,0.012-0.181,0.019
		c-0.117,0.024-0.179,0.092-0.179,0.199v2.107h0.339v-0.876c0.042,0.006,0.09,0.01,0.145,0.013c0.138,0.008,0.246,0.007,0.365,0.003
		c0.055-0.001,0.095-0.004,0.122-0.007c0.031,0.042,0.07,0.099,0.116,0.17c0.05,0.077,0.1,0.158,0.15,0.244
		c0.051,0.087,0.098,0.17,0.143,0.251s0.08,0.144,0.105,0.191l0.006,0.011h0.403L131.858,30.841z"/>
	<path fill="#FFFFFF" d="M61.261,27.476c-3.387,0-6.132-2.69-6.132-6.009s2.745-6.009,6.132-6.009c3.387,0,6.132,2.69,6.132,6.009
		S64.648,27.476,61.261,27.476 M61.26,10.861c-5.976,0-10.821,4.748-10.821,10.605c0,5.856,4.845,10.604,10.821,10.604
		c5.976,0,10.821-4.748,10.821-10.604C72.081,15.609,67.236,10.861,61.26,10.861"/>
</g>
</svg>
